(supertux-level
  (version 2)
  (name (_ "Challenge levels gate"))
  (author "TOUFIK")
  (license "GPL 2+ / CC-by-sa 3.0")
  (target-time 0)
  (sector
    (name "main")
    (music "music/misc/bonuscave.ogg")
    (init-script "import(\"levels/Toufiks levels/challenges.nut\")")
    (ambient-light 1 1 1)
    (background
      (speed 0.5)
      (image "images/background/arctis2.png")
    )
    (camera
      (mode "normal")
    )
    (particles-clouds
      (z-pos -1)
    )
    (infoblock
      (message (_ "-You need a password to unlock Challenge levels."))
      (x 32)
      (y 736)
    )
    (spawnpoint
      (name "main")
      (x 32)
      (y 800)
    )
    (switch
      (script "toufik(\"9\")")
      (sprite "images/objects/switch/switch.sprite")
      (x 1789)
      (y 768)
    )
    (switch
      (script "toufik(\"0\")")
      (sprite "images/objects/switch/switch.sprite")
      (x 355)
      (y 772)
    )
    (switch
      (script "toufik(\"1\")")
      (sprite "images/objects/switch/switch.sprite")
      (x 509)
      (y 768)
    )
    (switch
      (script "toufik(\"2\")")
      (sprite "images/objects/switch/switch.sprite")
      (x 669)
      (y 768)
    )
    (switch
      (script "toufik(\"3\")")
      (sprite "images/objects/switch/switch.sprite")
      (x 829)
      (y 768)
    )
    (switch
      (script "toufik(\"4\")")
      (sprite "images/objects/switch/switch.sprite")
      (x 989)
      (y 768)
    )
    (switch
      (script "toufik(\"5\")")
      (sprite "images/objects/switch/switch.sprite")
      (x 1149)
      (y 768)
    )
    (switch
      (script "toufik(\"6\")")
      (sprite "images/objects/switch/switch.sprite")
      (x 1309)
      (y 768)
    )
    (switch
      (script "toufik(\"7\")")
      (sprite "images/objects/switch/switch.sprite")
      (x 1469)
      (y 768)
    )
    (switch
      (script "toufik(\"8\")")
      (sprite "images/objects/switch/switch.sprite")
      (x 1629)
      (y 768)
    )
    (tilemap
      (solid #f)
      (z-pos -100)
      (name "Background")
      (width 75)
      (height 35)
      (tiles
      1421 1421 1421 1421 1421 1421 1421 1421 1421 1421 1421 1421 1421 1421 1421 1421 1421 1421 1421 1421 1421 1421 1421 1421 1421 1421 1421 1421 1421 1421 1421 1421 1421 1421 1421 1421 1421 1421 1421 1421 1421 1421 1421 1421 1421 1421 1421 1421 1421 1421 1421 1421 1421 1421 1421 1421 1421 1421 1421 1421 1421 1421 1421 1421 1421 1421 1421 1421 1421 1421 1421 1421 1421 1421 1421
      1421 1421 1421 1421 1421 1421 1421 1421 1421 1421 1421 1421 1421 1421 1421 1421 1421 1421 1421 1421 1421 1421 1421 1421 1421 1421 1421 1421 1421 1421 1421 1421 1421 1421 1421 1421 1421 1421 1421 1421 1421 1421 1421 1421 1421 1421 1421 1421 1421 1421 1421 1421 1421 1421 1421 1421 1421 1421 1421 1421 1421 1421 1421 1421 1421 1421 1421 1421 1421 1421 1421 1421 1421 1421 1421
      1421 1421 1421 1421 1421 1421 1421 1421 1421 1421 1421 1421 1421 1421 1421 1421 1421 1421 1421 1421 1421 1421 1421 1421 1421 1421 1421 1421 1421 1421 1421 1421 1421 1421 1421 1421 1421 1421 1421 1421 1421 1421 1421 1421 1421 1421 1421 1421 1421 1421 1421 1421 1421 1421 1421 1421 1421 1421 1421 1421 1421 1421 1421 1421 1421 1421 1421 1421 1421 1421 1421 1421 1421 1421 1421
      1421 1421 1421 1421 1421 1421 1421 1421 1421 1421 1421 1421 1421 1421 1421 1421 1421 1421 1421 1421 1421 1421 1421 1421 1421 1421 1421 1421 1421 1421 1421 1421 1421 1421 1421 1421 1421 1421 1421 1421 1421 1421 1421 1421 1421 1421 1421 1421 1421 1421 1421 1421 1421 1421 1421 1421 1421 1421 1421 1421 1421 1421 1421 1421 1421 1421 1421 1421 1421 1421 1421 1421 1421 1421 1421
      1421 1421 1421 1421 1421 1421 1421 1421 1421 1421 1421 1421 1421 1421 1421 1421 1421 1421 1421 1421 1421 1421 1421 1421 1421 1421 1421 1421 1421 1421 1421 1421 1421 1421 1421 1421 1421 1421 1421 1421 1421 1421 1421 1421 1421 1421 1421 1421 1421 1421 1421 1421 1421 1421 1421 1421 1421 1421 1421 1421 1421 1421 1421 1421 1421 1421 1421 1421 1421 1421 1421 1421 1421 1421 1421
      1421 1421 1421 1421 1421 1421 1421 1421 1421 1421 1421 1421 1421 1421 1421 1421 1421 1421 1421 1421 1421 1421 1421 1421 1421 1421 1421 1421 1421 1421 1421 1421 1421 1421 1421 1421 1421 1421 1421 1421 1421 1421 1421 1421 1421 1421 1421 1421 1421 1421 1421 1421 1421 1421 1421 1421 1421 1421 1421 1421 1421 1421 1421 1421 1421 1421 1421 1421 1421 1421 1421 1421 1421 1421 1421
      1421 1421 1421 1421 1421 1421 1421 1421 1421 1421 1421 1421 1421 1421 1421 1421 1421 1421 1421 1421 1421 1421 1421 1421 1421 1421 1421 1421 1421 1421 1421 1421 1421 1421 1421 1421 1421 1421 1421 1421 1421 1421 1421 1421 1421 1421 1421 1421 1421 1421 1421 1421 1421 1421 1421 1421 1421 1421 1421 1421 1421 1421 1421 1421 1421 1421 1421 1421 1421 1421 1421 1421 1421 1421 1421
      1421 1421 1421 1421 1421 1421 1421 1421 1421 1421 1421 1421 1421 1421 1421 1421 1421 1421 1421 1421 1421 1421 1421 1421 1421 1421 1421 1421 1421 1421 1421 1421 1421 1421 1421 1421 1421 1421 1421 1421 1421 1421 1421 1421 1421 1421 1421 1421 1421 1421 1421 1421 1421 1421 1421 1421 1421 1421 1421 1421 1421 1421 1421 1421 1421 1421 1421 1421 1421 1421 1421 1421 1421 1421 1421
      1421 1421 1421 1421 1421 1421 1421 1421 1421 1421 1421 1421 1421 1421 1421 1421 1421 1421 1421 1421 1421 1421 1421 1421 1421 1421 1421 1421 1421 1421 1421 1421 1421 1421 1421 1421 1421 1421 1421 1421 1421 1421 1421 1421 1421 1421 1421 1421 1421 1421 1421 1421 1421 1421 1421 1421 1421 1421 1421 1421 1421 1421 1421 1421 1421 1421 1421 1421 1421 1421 1421 1421 1421 1421 1421
      1421 1421 1421 1421 1421 1421 1421 1421 1421 1421 1421 1421 1421 1421 1421 1421 1421 1421 1421 1421 1421 1421 1421 1421 1421 1421 1421 1421 1421 1421 1421 1421 1421 1421 1421 1421 1421 1421 1421 1421 1421 1421 1421 1421 1421 1421 1421 1421 1421 1421 1421 1421 1421 1421 1421 1421 1421 1421 1421 1421 1421 1421 1421 1421 1421 1421 1421 1421 1421 1421 1421 1421 1421 1421 1421
      1421 1421 1421 1421 1421 1421 1421 1421 1421 1421 1421 1421 1421 1421 1421 1421 1421 1421 1421 1421 1421 1421 1421 1421 1421 1421 1421 1421 1421 1421 1421 1421 1421 1421 1421 1421 1421 1421 1421 1421 1421 1421 1421 1421 1421 1421 1421 1421 1421 1421 1421 1421 1421 1421 1421 1421 1421 1421 1421 1421 1421 1421 1421 1421 1421 1421 1421 1421 1421 1421 1421 1421 1421 1421 1421
      1421 1421 1421 1421 1421 1421 1421 1421 1421 1421 1421 1421 1421 1421 1421 1421 1421 1421 1421 1421 1421 1421 1421 1421 1421 1421 1421 1421 1421 1421 1421 1421 1421 1421 1421 1421 1421 1421 1421 1421 1421 1421 1421 1421 1421 1421 1421 1421 1421 1421 1421 1421 1421 1421 1421 1421 1421 1421 1421 1421 1421 1421 1421 1421 1421 1421 1421 1421 1421 1421 1421 1421 1421 1421 1421
      1421 1421 1421 1421 1421 1421 1421 1421 1421 1421 1421 1421 1421 1421 1421 1421 1421 1421 1421 1421 1421 1421 1421 1421 1421 1421 1421 1421 1421 1421 1421 1421 1421 1421 1421 1421 1421 1421 1421 1421 1421 1421 1421 1421 1421 1421 1421 1421 1421 1421 1421 1421 1421 1421 1421 1421 1421 1421 1421 1421 1421 1421 1421 1421 1421 1421 1421 1421 1421 1421 1421 1421 1421 1421 1421
      1421 1421 1421 1421 1421 1421 1421 1421 1421 1421 1421 1421 1421 1421 1421 1421 1421 1421 1421 1421 1421 1421 1421 1421 1421 1421 1421 1421 1421 1421 1421 1421 1421 1421 1421 1421 1421 1421 1421 1421 1421 1421 1421 1421 1421 1421 1421 1421 1421 1421 1421 1421 1421 1421 1421 1421 1421 1421 1421 1421 1421 1421 1421 1421 1421 1421 1421 1421 1421 1421 1421 1421 1421 1421 1421
      1421 1421 1421 1421 1421 1421 1421 1421 1421 1421 1421 1421 1421 1421 1421 1421 1421 1421 1421 1421 1421 1421 1421 1421 1421 1421 1421 1421 1421 1421 1421 1421 1421 1421 1421 1421 1421 1421 1421 1421 1421 1421 1421 1421 1421 1421 1421 1421 1421 1421 1421 1421 1421 1421 1421 1421 1421 1421 1421 1421 1421 1421 1421 1421 1421 1421 1421 1421 1421 1421 1421 1421 1421 1421 1421
      1421 1421 1421 1421 1421 1421 1421 1421 1421 1421 1421 1421 1421 1421 1421 1421 1421 1421 1421 1421 1421 1421 1421 1421 1421 1421 1421 1421 1421 1421 1421 1421 1421 1421 1421 1421 1421 1421 1421 1421 1421 1421 1421 1421 1421 1421 1421 1421 1421 1421 1421 1421 1421 1421 1421 1421 1421 1421 1421 1421 1421 1421 1421 1421 1421 1421 1421 1421 1421 1421 1421 1421 1421 1421 1421
      1421 1421 1421 1421 1421 1421 1421 1421 1421 1421 1421 1421 1421 1421 1421 1421 1421 1421 1421 1421 1421 1421 1421 1421 1421 1421 1421 1421 1421 1421 1421 1421 1421 1421 1421 1421 1421 1421 1421 1421 1421 1421 1421 1421 1421 1421 1421 1421 1421 1421 1421 1421 1421 1421 1421 1421 1421 1421 1421 1421 1421 1421 1421 1421 1421 1421 1421 1421 1421 1421 1421 1421 1421 1421 1421
      1421 1421 1421 1421 1421 1421 1421 1421 1421 1421 1421 1421 1421 1421 1421 1421 1421 1421 1421 1421 1421 1421 1421 1421 1421 1421 1421 1421 1421 1421 1421 1421 1421 1421 1421 1421 1421 1421 1421 1421 1421 1421 1421 1421 1421 1421 1421 1421 1421 1421 1421 1421 1421 1421 1421 1421 1421 1421 1421 1421 1421 1421 1421 1421 1421 1421 1421 1421 1421 1421 1421 1421 1421 1421 1421
      1421 1421 1421 1421 1421 1421 1421 1421 1421 1421 1421 1421 1421 1421 1421 1421 1421 1421 1421 1421 1421 1421 1421 1421 1421 1421 1421 1421 1421 1421 1421 1421 1421 1421 1421 1421 1421 1421 1421 1421 1421 1421 1421 1421 1421 1421 1421 1421 1421 1421 1421 1421 1421 1421 1421 1421 1421 1421 1421 1421 1421 1421 1421 1421 1421 1421 1421 1421 1421 1421 1421 1421 1421 1421 1421
      1421 1421 1421 1421 1421 1421 1421 1421 1421 1421 1421 1421 1421 1421 1421 1421 1421 1421 1421 1421 1421 1421 1421 1421 1421 1421 1421 1421 1421 1421 1421 1421 1421 1421 1421 1421 1421 1421 1421 1421 1421 1421 1421 1421 1421 1421 1421 1421 1421 1421 1421 1421 1421 1421 1421 1421 1421 1421 1421 1421 1421 1421 1421 1421 1421 1421 1421 1421 1421 1421 1421 1421 1421 1421 1421
      1421 1421 1421 1421 1421 1421 1421 1421 1421 1421 1421 1421 1421 1421 1421 1421 1421 1421 1421 1421 1421 1421 1421 1421 1421 1421 1421 1421 1421 1421 1421 1421 1421 1421 1421 1421 1421 1421 1421 1421 1421 1421 1421 1421 1421 1421 1421 1421 1421 1421 1421 1421 1421 1421 1421 1421 1421 1421 1421 1421 1421 1421 1421 1421 1421 1421 1421 1421 1421 1421 1421 1421 1421 1421 1421
      1421 1421 1421 1421 1421 1421 1421 1421 1421 1421 1421 1421 1421 1421 1421 1421 1421 1421 1421 1421 1421 1421 1421 1421 1421 1421 1421 1421 1421 1421 1421 1421 1421 1421 1421 1421 1421 1421 1421 1421 1421 1421 1421 1421 1421 1421 1421 1421 1421 1421 1421 1421 1421 1421 1421 1421 1421 1421 1421 1421 1421 1421 1421 1421 1421 1421 1421 1421 1421 1421 1421 1421 1421 1421 1421
      1421 1421 1421 1421 1421 1421 1421 1421 1421 1421 1421 1421 1421 1421 1421 1421 1421 1421 1421 1421 1421 1421 1421 1421 1421 1421 1421 1421 1421 1421 1421 1421 1421 1421 1421 1421 1421 1421 1421 1421 1421 1421 1421 1421 1421 1421 1421 1421 1421 1421 1421 1421 1421 1421 1421 1421 1421 1421 1421 1421 1421 1421 1421 1421 1421 1421 1421 1421 1421 1421 1421 1421 1421 1421 1421
      1421 1421 1421 1421 1421 1421 1421 1421 1421 1421 1421 1421 1421 1421 1421 1421 1421 1421 1421 1421 1421 1421 1421 1421 1421 1421 1421 1421 1421 1421 1421 1421 1421 1421 1421 1421 1421 1421 1421 1421 1421 1421 1421 1421 1421 1421 1421 1421 1421 1421 1421 1421 1421 1421 1421 1421 1421 1421 1421 1421 1421 1421 1421 1421 1421 1421 1421 1421 1421 1421 1421 1421 1421 1421 1421
      1421 1421 1421 1421 1421 1421 1421 1421 1421 1421 1421 1421 1421 1421 1421 1421 1421 1421 1421 1421 1421 1421 1421 1421 1421 1421 1421 1421 1421 1421 1421 1421 1421 1421 1421 1421 1421 1421 1421 1421 1421 1421 1421 1421 1421 1421 1421 1421 1421 1421 1421 1421 1421 1421 1421 1421 1421 1421 1421 1421 1421 1421 1421 1421 1421 1421 1421 1421 1421 1421 1421 1421 1421 1421 1421
      1421 1421 1421 1421 1421 1421 1421 1421 1421 1421 1421 1421 1421 1421 1421 1421 1421 1421 1421 1421 1421 1421 1421 1421 1421 1421 1421 1421 1421 1421 1421 1421 1421 1421 1421 1421 1421 1421 1421 1421 1421 1421 1421 1421 1421 1421 1421 1421 1421 1421 1421 1421 1421 1421 1421 1421 1421 1421 1421 1421 1421 1421 1421 1421 1421 1421 1421 1421 1421 1421 1421 1421 1421 1421 1421
      1421 1421 1421 1421 1421 1421 1421 1421 1421 1421 1421 1421 1421 1421 1421 1421 1421 1421 1421 1421 1421 1421 1421 1421 1421 1421 1421 1421 1421 1421 1421 1421 1421 1421 1421 1421 1421 1421 1421 1421 1421 1421 1421 1421 1421 1421 1421 1421 1421 1421 1421 1421 1421 1421 1421 1421 1421 1421 1421 1421 1421 1421 1421 1421 1421 1421 1421 1421 1421 1421 1421 1421 1421 1421 1421
      1421 1421 1421 1421 1421 1421 1421 1421 1421 1421 1421 1421 1421 1421 1421 1421 1421 1421 1421 1421 1421 1421 1421 1421 1421 1421 1421 1421 1421 1421 1421 1421 1421 1421 1421 1421 1421 1421 1421 1421 1421 1421 1421 1421 1421 1421 1421 1421 1421 1421 1421 1421 1421 1421 1421 1421 1421 1421 1421 1421 1421 1421 1421 1421 1421 1421 1421 1421 1421 1421 1421 1421 1421 1421 1421
      1421 1421 1421 1421 1421 1421 1421 1421 1421 1421 1421 1421 1421 1421 1421 1421 1421 1421 1421 1421 1421 1421 1421 1421 1421 1421 1421 1421 1421 1421 1421 1421 1421 1421 1421 1421 1421 1421 1421 1421 1421 1421 1421 1421 1421 1421 1421 1421 1421 1421 1421 1421 1421 1421 1421 1421 1421 1421 1421 1421 1421 1421 1421 1421 1421 1421 1421 1421 1421 1421 1421 1421 1421 1421 1421
      1421 1421 1421 1421 1421 1421 1421 1421 1421 1421 1421 1421 1421 1421 1421 1421 1421 1421 1421 1421 1421 1421 1421 1421 1421 1421 1421 1421 1421 1421 1421 1421 1421 1421 1421 1421 1421 1421 1421 1421 1421 1421 1421 1421 1421 1421 1421 1421 1421 1421 1421 1421 1421 1421 1421 1421 1421 1421 1421 1421 1421 1421 1421 1421 1421 1421 1421 1421 1421 1421 1421 1421 1421 1421 1421
      1421 1421 1421 1421 1421 1421 1421 1421 1421 1421 1421 1421 1421 1421 1421 1421 1421 1421 1421 1421 1421 1421 1421 1421 1421 1421 1421 1421 1421 1421 1421 1421 1421 1421 1421 1421 1421 1421 1421 1421 1421 1421 1421 1421 1421 1421 1421 1421 1421 1421 1421 1421 1421 1421 1421 1421 1421 1421 1421 1421 1421 1421 1421 1421 1421 1421 1421 1421 1421 1421 1421 1421 1421 1421 1421
      1421 1421 1421 1421 1421 1421 1421 1421 1421 1421 1421 1421 1421 1421 1421 1421 1421 1421 1421 1421 1421 1421 1421 1421 1421 1421 1421 1421 1421 1421 1421 1421 1421 1421 1421 1421 1421 1421 1421 1421 1421 1421 1421 1421 1421 1421 1421 1421 1421 1421 1421 1421 1421 1421 1421 1421 1421 1421 1421 1421 1421 1421 1421 1421 1421 1421 1421 1421 1421 1421 1421 1421 1421 1421 1421
      1421 1421 1421 1421 1421 1421 1421 1421 1421 1421 1421 1421 1421 1421 1421 1421 1421 1421 1421 1421 1421 1421 1421 1421 1421 1421 1421 1421 1421 1421 1421 1421 1421 1421 1421 1421 1421 1421 1421 1421 1421 1421 1421 1421 1421 1421 1421 1421 1421 1421 1421 1421 1421 1421 1421 1421 1421 1421 1421 1421 1421 1421 1421 1421 1421 1421 1421 1421 1421 1421 1421 1421 1421 1421 1421
      1421 1421 1421 1421 1421 1421 1421 1421 1421 1421 1421 1421 1421 1421 1421 1421 1421 1421 1421 1421 1421 1421 1421 1421 1421 1421 1421 1421 1421 1421 1421 1421 1421 1421 1421 1421 1421 1421 1421 1421 1421 1421 1421 1421 1421 1421 1421 1421 1421 1421 1421 1421 1421 1421 1421 1421 1421 1421 1421 1421 1421 1421 1421 1421 1421 1421 1421 1421 1421 1421 1421 1421 1421 1421 1421
      1421 1421 1421 1421 1421 1421 1421 1421 1421 1421 1421 1421 1421 1421 1421 1421 1421 1421 1421 1421 1421 1421 1421 1421 1421 1421 1421 1421 1421 1421 1421 1421 1421 1421 1421 1421 1421 1421 1421 1421 1421 1421 1421 1421 1421 1421 1421 1421 1421 1421 1421 1421 1421 1421 1421 1421 1421 1421 1421 1421 1421 1421 1421 1421 1421 1421 1421 1421 1421 1421 1421 1421 1421 1421 1421
      )
    )
    (tilemap
      (solid #t)
      (z-pos 0)
      (name "Interactive")
      (width 75)
      (height 35)
      (tiles
      64 64 64 64 64 64 64 64 64 64 64 64 64 64 64 64 64 64 64 64 64 64 64 64 64 64 64 64 64 64 64 64 64 64 64 64 64 64 64 64 64 64 64 64 64 64 64 64 64 64 64 64 64 64 64 64 64 64 64 64 64 64 64 64 64 64 64 64 64 64 64 64 64 64 64
      64 64 64 64 64 64 64 64 64 64 64 64 64 64 64 64 64 64 64 64 64 64 64 64 64 64 64 64 64 64 64 64 64 64 64 64 64 64 64 64 64 64 64 64 64 64 64 64 64 64 64 64 64 64 64 64 64 64 64 64 64 64 64 64 64 64 64 64 64 64 64 64 64 64 64
      64 64 64 64 64 64 64 64 64 64 64 64 64 64 64 64 64 64 64 64 64 64 64 64 64 64 64 64 64 64 64 64 64 64 64 64 64 64 64 64 64 64 64 64 64 64 64 64 64 64 64 64 64 64 64 64 64 64 64 64 64 64 64 64 64 64 64 64 64 64 64 64 64 64 64
      64 64 64 64 64 64 64 64 64 64 64 64 64 64 64 64 64 64 64 64 64 64 64 64 64 64 64 64 64 64 64 64 64 64 64 64 64 64 64 64 64 64 64 64 64 64 64 64 64 64 64 64 64 64 64 64 64 64 64 64 64 64 64 64 64 64 64 64 64 64 64 64 64 64 64
      64 64 64 64 64 64 64 64 64 64 64 64 64 64 64 64 64 64 64 64 64 64 64 64 64 64 64 64 64 64 64 64 64 64 64 64 64 64 64 64 64 64 64 64 64 64 64 64 64 64 64 64 64 64 64 64 64 64 64 64 64 64 64 64 64 64 64 64 64 64 64 64 64 64 64
      64 64 64 64 64 64 64 64 64 64 64 64 64 64 64 64 64 64 64 64 64 64 64 64 64 64 64 64 64 64 64 64 64 64 64 64 64 64 64 64 64 64 64 64 64 64 64 64 64 64 64 64 64 64 64 64 64 64 64 64 64 64 64 64 64 64 64 64 64 64 64 64 64 64 64
      64 64 64 64 64 64 64 64 64 64 64 64 64 64 64 64 64 64 64 64 64 64 64 64 64 64 64 64 64 64 64 64 64 64 64 64 64 64 64 64 64 64 64 64 64 64 64 64 64 64 64 64 64 64 64 64 64 64 64 64 64 64 64 64 64 64 64 64 64 64 64 64 64 64 64
      64 64 64 64 64 64 64 64 64 64 64 64 64 64 64 64 64 64 64 64 64 64 64 64 64 64 64 64 64 64 64 64 64 64 64 64 64 64 64 64 64 64 64 64 64 64 64 64 64 64 64 64 64 64 64 64 64 64 64 64 64 64 64 64 64 64 64 64 64 64 64 64 64 64 64
      64 64 64 64 64 64 64 64 64 64 64 64 64 64 64 64 64 64 64 64 64 64 64 64 64 64 64 64 64 64 64 64 64 64 64 64 64 64 64 64 64 64 64 64 64 64 64 64 64 64 64 64 64 64 64 64 64 64 64 64 64 64 64 64 64 64 64 64 64 64 64 64 64 64 64
      64 64 64 64 64 64 64 64 64 64 64 64 64 64 64 64 64 64 64 64 64 64 64 64 64 64 64 64 64 64 64 64 64 64 64 64 64 64 64 64 64 64 64 64 64 64 64 64 64 64 64 64 64 64 64 64 64 64 64 64 64 64 64 64 64 64 64 64 64 64 64 64 64 64 64
      64 64 64 64 64 64 64 64 64 64 64 64 64 64 64 64 64 64 64 64 64 64 64 64 64 64 64 64 64 64 64 64 64 64 64 64 64 64 64 64 64 64 64 64 64 64 64 64 64 64 64 64 64 64 64 64 64 64 64 64 64 64 64 64 64 64 64 64 64 64 64 64 64 64 64
      64 64 64 64 64 64 64 64 64 64 64 64 64 64 64 64 64 64 64 64 64 64 64 64 64 64 64 64 64 64 64 64 64 64 64 64 64 64 64 64 64 64 64 64 64 64 64 64 64 64 64 64 64 64 64 64 64 64 64 64 64 64 64 64 64 64 64 64 64 64 64 64 64 64 64
      64 64 64 64 64 64 64 64 64 64 64 64 64 64 64 64 64 64 64 64 64 64 64 64 64 64 64 64 64 64 64 64 64 64 64 64 64 64 64 64 64 64 64 64 64 64 64 64 64 64 64 64 64 64 64 64 64 64 64 64 64 64 64 64 64 64 64 64 64 64 64 64 64 64 64
      64 64 64 64 64 64 64 64 64 64 64 64 64 64 64 64 64 64 64 64 64 64 64 64 64 64 64 64 64 64 64 64 64 64 64 64 64 64 64 64 64 64 64 64 64 64 64 64 64 64 64 64 64 64 64 64 64 64 64 64 64 64 64 64 64 64 64 64 64 64 64 64 64 64 64
      64 64 64 64 64 64 64 64 64 64 64 64 64 64 64 64 64 64 64 64 64 64 64 64 64 64 64 64 64 64 64 64 64 64 64 64 64 64 64 64 64 64 64 64 64 64 64 64 64 64 64 64 64 64 64 64 64 64 64 64 64 64 64 64 64 64 64 64 64 64 64 64 64 64 64
      64 64 64 64 64 64 64 64 64 64 0 0 0 64 64 64 0 64 64 64 0 0 0 64 64 0 0 0 64 64 0 64 0 64 64 0 0 0 64 64 0 0 0 64 64 0 0 0 64 64 0 0 0 64 64 0 0 0 64 64 64 64 64 64 64 64 64 64 64 64 64 64 64 64 64
      64 64 64 64 64 64 64 64 64 64 0 64 0 64 64 64 0 64 64 64 64 64 0 64 64 64 64 0 64 64 0 64 0 64 64 0 64 64 64 64 0 64 64 64 64 64 64 0 64 64 0 64 0 64 64 0 64 0 64 64 64 64 64 64 64 64 64 64 64 64 64 64 64 64 64
      64 64 64 64 64 64 64 64 64 64 0 64 0 64 64 64 0 64 64 64 0 0 0 64 64 0 0 0 64 64 0 0 0 64 64 0 0 0 64 64 0 0 0 64 64 64 64 0 64 64 0 0 0 64 64 0 0 0 64 64 64 64 64 64 64 64 64 64 64 64 64 64 64 64 64
      64 64 64 64 64 64 64 64 64 64 0 64 0 64 64 64 0 64 64 64 0 64 64 64 64 64 64 0 64 64 64 64 0 64 64 64 64 0 64 64 0 64 0 64 64 64 64 0 64 64 0 64 0 64 64 64 64 0 64 64 64 64 64 64 64 64 64 64 64 64 64 64 64 64 64
      64 64 64 64 64 64 64 64 64 64 0 0 0 64 64 64 0 64 64 64 0 0 0 64 64 0 0 0 64 64 64 64 0 64 64 0 0 0 64 64 0 0 0 64 64 64 64 0 64 64 0 0 0 64 64 0 0 0 64 64 64 64 64 64 64 64 64 64 64 64 64 64 64 64 64
      64 64 64 64 64 64 64 64 64 64 64 64 64 64 64 64 64 64 64 64 64 64 64 64 64 64 64 64 64 64 64 64 64 64 64 64 64 64 64 64 64 64 64 64 64 64 64 64 64 64 64 64 64 64 64 64 64 64 64 64 64 64 64 64 64 64 64 64 64 64 64 64 64 64 64
      66 66 66 66 66 66 66 66 66 66 66 66 66 66 66 66 66 66 66 66 66 66 66 66 66 66 66 66 66 66 66 66 66 66 66 66 66 66 66 66 66 66 66 66 66 66 66 66 66 66 66 66 66 66 66 66 66 66 66 66 66 66 66 66 66 66 66 66 66 66 66 66 66 66 66
      0 0 0 0 0 0 0 0 0 0 0 0 0 0 0 0 0 0 0 0 0 0 0 0 0 0 0 0 0 0 0 0 0 0 0 0 0 0 0 0 0 0 0 0 0 0 0 0 0 0 0 0 0 0 0 0 0 0 0 0 0 0 0 0 0 0 0 211 0 0 0 0 0 0 0
      0 0 0 0 0 0 0 0 0 0 0 0 0 0 0 0 0 0 0 0 0 0 0 0 0 0 0 0 0 0 0 0 0 0 0 0 0 0 0 0 0 0 0 0 0 0 0 0 0 0 0 0 0 0 0 0 0 0 0 0 0 0 0 0 0 0 0 212 0 0 0 0 0 0 0
      0 0 0 0 0 0 0 0 0 0 0 0 0 0 0 0 0 0 0 0 0 0 0 0 0 0 0 0 0 0 0 0 0 0 0 0 0 0 0 0 0 0 0 0 0 0 0 0 0 0 0 0 0 0 0 0 0 0 0 0 0 0 0 0 0 0 0 212 0 0 0 0 0 0 0
      8 8 8 8 8 8 8 8 8 8 8 8 8 8 8 8 8 8 8 8 8 8 8 8 8 8 8 8 8 8 8 8 8 8 8 8 8 8 8 8 8 8 8 8 8 8 8 8 8 8 8 8 8 8 8 8 8 8 8 8 8 8 8 8 8 8 8 213 8 8 8 8 8 8 8
      65 65 65 65 65 65 65 65 65 65 65 65 65 65 65 65 65 65 65 65 65 65 65 65 65 65 65 65 65 65 65 65 65 65 65 65 65 65 65 65 65 65 65 65 65 65 65 65 65 65 65 65 65 65 65 65 65 65 65 65 65 65 65 65 65 65 65 65 65 65 65 65 65 65 65
      64 64 64 64 64 64 64 64 64 64 64 64 64 64 64 64 64 64 64 64 64 64 64 64 64 64 64 64 64 64 64 64 64 64 64 64 64 64 64 64 64 64 64 64 64 64 64 64 64 64 64 64 64 64 64 64 64 64 64 64 64 64 64 64 64 64 64 64 64 64 64 64 64 64 64
      64 64 64 64 64 64 64 64 64 64 64 64 64 64 64 64 64 64 64 64 64 64 64 64 64 64 64 64 64 64 64 64 64 64 64 64 64 64 64 64 64 64 64 64 64 64 64 64 64 64 64 64 64 64 64 64 64 64 64 64 64 64 64 64 64 64 64 64 64 64 64 64 64 64 64
      64 64 64 64 64 64 64 64 64 64 64 64 64 64 64 64 64 64 64 64 64 64 64 64 64 64 64 64 64 64 64 64 64 64 64 64 64 64 64 64 64 64 64 64 64 64 64 64 64 64 64 64 64 64 64 64 64 64 64 64 64 64 64 64 64 64 64 64 64 64 64 64 64 64 64
      64 64 64 64 64 64 64 64 64 64 64 64 64 64 64 64 64 64 64 64 64 64 64 64 64 64 64 64 64 64 64 64 64 64 64 64 64 64 64 64 64 64 64 64 64 64 64 64 64 64 64 64 64 64 64 64 64 64 64 64 64 64 64 64 64 64 64 64 64 64 64 64 64 64 64
      64 64 64 64 64 64 64 64 64 64 64 64 64 64 64 64 64 64 64 64 64 64 64 64 64 64 64 64 64 64 64 64 64 64 64 64 64 64 64 64 64 64 64 64 64 64 64 64 64 64 64 64 64 64 64 64 64 64 64 64 64 64 64 64 64 64 64 64 64 64 64 64 64 64 64
      64 64 64 64 64 64 64 64 64 64 64 64 64 64 64 64 64 64 64 64 64 64 64 64 64 64 64 64 64 64 64 64 64 64 64 64 64 64 64 64 64 64 64 64 64 64 64 64 64 64 64 64 64 64 64 64 64 64 64 64 64 64 64 64 64 64 64 64 64 64 64 64 64 64 64
      64 64 64 64 64 64 64 64 64 64 64 64 64 64 64 64 64 64 64 64 64 64 64 64 64 64 64 64 64 64 64 64 64 64 64 64 64 64 64 64 64 64 64 64 64 64 64 64 64 64 64 64 64 64 64 64 64 64 64 64 64 64 64 64 64 64 64 64 64 64 64 64 64 64 64
      64 64 64 64 64 64 64 64 64 64 64 64 64 64 64 64 64 64 64 64 64 64 64 64 64 64 64 64 64 64 64 64 64 64 64 64 64 64 64 64 64 64 64 64 64 64 64 64 64 64 64 64 64 64 64 64 64 64 64 64 64 64 64 64 64 64 64 64 64 64 64 64 64 64 64
      )
    )
    (tilemap
      (solid #f)
      (z-pos 100)
      (name "Foreground")
      (width 75)
      (height 35)
      (tiles
      0 0 0 0 0 0 0 0 0 0 0 0 0 0 0 0 0 0 0 0 0 0 0 0 0 0 0 0 0 0 0 0 0 0 0 0 0 0 0 0 0 0 0 0 0 0 0 0 0 0 0 0 0 0 0 0 0 0 0 0 0 0 0 0 0 0 0 0 0 0 0 0 0 0 0
      0 0 0 0 0 0 0 0 0 0 0 0 0 0 0 0 0 0 0 0 0 0 0 0 0 0 0 0 0 0 0 0 0 0 0 0 0 0 0 0 0 0 0 0 0 0 0 0 0 0 0 0 0 0 0 0 0 0 0 0 0 0 0 0 0 0 0 0 0 0 0 0 0 0 0
      0 0 0 0 0 0 0 0 0 0 0 0 0 0 0 0 0 0 0 0 0 0 0 0 0 0 0 0 0 0 0 0 0 0 0 0 0 0 0 0 0 0 0 0 0 0 0 0 0 0 0 0 0 0 0 0 0 0 0 0 0 0 0 0 0 0 0 0 0 0 0 0 0 0 0
      0 0 0 0 0 0 0 0 0 0 0 0 0 0 0 0 0 0 0 0 0 0 0 0 0 0 0 0 0 0 0 0 0 0 0 0 0 0 0 0 0 0 0 0 0 0 0 0 0 0 0 0 0 0 0 0 0 0 0 0 0 0 0 0 0 0 0 0 0 0 0 0 0 0 0
      0 0 0 0 0 0 0 0 0 0 0 0 0 0 0 0 0 0 0 0 0 0 0 0 0 0 0 0 0 0 0 0 0 0 0 0 0 0 0 0 0 0 0 0 0 0 0 0 0 0 0 0 0 0 0 0 0 0 0 0 0 0 0 0 0 0 0 0 0 0 0 0 0 0 0
      0 0 0 0 0 0 0 0 0 0 0 0 0 0 0 0 0 0 0 0 0 0 0 0 0 0 0 0 0 0 0 0 0 0 0 0 0 0 0 0 0 0 0 0 0 0 0 0 0 0 0 0 0 0 0 0 0 0 0 0 0 0 0 0 0 0 0 0 0 0 0 0 0 0 0
      0 0 0 0 0 0 0 0 0 0 0 0 0 0 0 0 0 0 0 0 0 0 0 0 0 0 0 0 0 0 0 0 0 0 0 0 0 0 0 0 0 0 0 0 0 0 0 0 0 0 0 0 0 0 0 0 0 0 0 0 0 0 0 0 0 0 0 0 0 0 0 0 0 0 0
      0 0 0 0 0 0 0 0 0 0 0 0 0 0 0 0 0 0 0 0 0 0 0 0 0 0 0 0 0 0 0 0 0 0 0 0 0 0 0 0 0 0 0 0 0 0 0 0 0 0 0 0 0 0 0 0 0 0 0 0 0 0 0 0 0 0 0 0 0 0 0 0 0 0 0
      0 0 0 0 0 0 0 0 0 0 0 0 0 0 0 0 0 0 0 0 0 0 0 0 0 0 0 0 0 0 0 0 0 0 0 0 0 0 0 0 0 0 0 0 0 0 0 0 0 0 0 0 0 0 0 0 0 0 0 0 0 0 0 0 0 0 0 0 0 0 0 0 0 0 0
      0 0 0 0 0 0 0 0 0 0 0 0 0 0 0 0 0 0 0 0 0 0 0 0 0 0 0 0 0 0 0 0 0 0 0 0 0 0 0 0 0 0 0 0 0 0 0 0 0 0 0 0 0 0 0 0 0 0 0 0 0 0 0 0 0 0 0 0 0 0 0 0 0 0 0
      0 0 0 0 0 0 0 0 0 0 0 0 0 0 0 0 0 0 0 0 0 0 0 0 0 0 0 0 0 0 0 0 0 0 0 0 0 0 0 0 0 0 0 0 0 0 0 0 0 0 0 0 0 0 0 0 0 0 0 0 0 0 0 0 0 0 0 0 0 0 0 0 0 0 0
      0 0 0 0 0 0 0 0 0 0 0 0 0 0 0 0 0 0 0 0 0 0 0 0 0 0 0 0 0 0 0 0 0 0 0 0 0 0 0 0 0 0 0 0 0 0 0 0 0 0 0 0 0 0 0 0 0 0 0 0 0 0 0 0 0 0 0 0 0 0 0 0 0 0 0
      0 0 0 0 0 0 0 0 0 0 0 0 0 0 0 0 0 0 0 0 0 0 0 0 0 0 0 0 0 0 0 0 0 0 0 0 0 0 0 0 0 0 0 0 0 0 0 0 0 0 0 0 0 0 0 0 0 0 0 0 0 0 0 0 0 0 0 0 0 0 0 0 0 0 0
      0 0 0 0 0 0 0 0 0 0 0 0 0 0 0 0 0 0 0 0 0 0 0 0 0 0 0 0 0 0 0 0 0 0 0 0 0 0 0 0 0 0 0 0 0 0 0 0 0 0 0 0 0 0 0 0 0 0 0 0 0 0 0 0 0 0 0 0 0 64 64 64 64 64 64
      0 0 0 0 0 0 0 0 0 0 0 0 0 0 0 0 0 0 0 0 0 0 0 0 0 0 0 0 0 0 0 0 0 0 0 0 0 0 0 0 0 0 0 0 0 0 0 0 0 0 0 0 0 0 0 0 0 0 0 0 0 0 0 0 0 0 0 0 0 64 64 64 64 64 64
      0 0 0 0 0 0 0 0 0 0 0 0 0 0 0 0 0 0 0 0 0 0 0 0 0 0 0 0 0 0 0 0 0 0 0 0 0 0 0 0 0 0 0 0 0 0 0 0 0 0 0 0 0 0 0 0 0 0 0 0 0 0 0 0 0 0 0 0 0 64 64 64 64 64 64
      0 0 0 0 0 0 0 0 0 0 0 0 0 0 0 0 0 0 0 0 0 0 0 0 0 0 0 0 0 0 0 0 0 0 0 0 0 0 0 0 0 0 0 0 0 0 0 0 0 0 0 0 0 0 0 0 0 0 0 0 0 0 0 0 0 0 0 0 0 64 64 64 64 64 64
      0 0 0 0 0 0 0 0 0 0 0 0 0 0 0 0 0 0 0 0 0 0 0 0 0 0 0 0 0 0 0 0 0 0 0 0 0 0 0 0 0 0 0 0 0 0 0 0 0 0 0 0 0 0 0 0 0 0 0 0 0 0 0 0 0 0 0 0 0 64 64 64 64 64 64
      0 0 0 0 0 0 0 0 0 0 0 0 0 0 0 0 0 0 0 0 0 0 0 0 0 0 0 0 0 0 0 0 0 0 0 0 0 0 0 0 0 0 0 0 0 0 0 0 0 0 0 0 0 0 0 0 0 0 0 0 0 0 0 0 0 0 0 0 0 64 64 64 64 64 64
      0 0 0 0 0 0 0 0 0 0 0 0 0 0 0 0 0 0 0 0 0 0 0 0 0 0 0 0 0 0 0 0 0 0 0 0 0 0 0 0 0 0 0 0 0 0 0 0 0 0 0 0 0 0 0 0 0 0 0 0 0 0 0 0 0 0 0 0 0 64 64 64 64 64 64
      0 0 0 0 0 0 0 0 0 0 0 0 0 0 0 0 0 0 0 0 0 0 0 0 0 0 0 0 0 0 0 0 0 0 0 0 0 0 0 0 0 0 0 0 0 0 0 0 0 0 0 0 0 0 0 0 0 0 0 0 0 0 0 0 0 0 0 0 0 64 64 64 64 64 64
      0 0 0 0 0 0 0 0 0 0 0 0 0 0 0 0 0 0 0 0 0 0 0 0 0 0 0 0 0 0 0 0 0 0 0 0 0 0 0 0 0 0 0 0 0 0 0 0 0 0 0 0 0 0 0 0 0 0 0 0 0 0 0 0 0 0 0 0 0 66 66 66 66 66 66
      0 0 0 0 0 0 0 0 0 0 0 0 0 0 0 0 0 0 0 0 0 0 0 0 0 0 0 0 0 0 0 0 0 0 0 0 0 0 0 0 0 0 0 0 0 0 0 0 0 0 0 0 0 0 0 0 0 0 0 0 0 0 0 0 0 0 0 0 0 0 0 0 0 0 0
      0 0 0 0 0 0 0 0 0 0 0 0 0 0 0 0 0 0 0 0 0 0 0 0 0 0 0 0 0 0 0 0 0 0 0 0 0 0 0 0 0 0 0 0 0 0 0 0 0 0 0 0 0 0 0 0 0 0 0 0 0 0 0 0 0 0 0 0 0 0 0 0 0 0 0
      0 0 0 0 0 0 0 0 0 0 0 0 0 0 0 0 0 0 0 0 0 0 0 0 0 0 0 0 0 0 0 0 0 0 0 0 0 0 0 0 0 0 0 0 0 0 0 0 0 0 0 0 0 0 0 0 0 0 0 0 0 0 0 0 0 0 0 0 0 0 0 0 0 0 0
      0 0 0 0 0 0 0 0 0 0 0 0 0 0 0 0 0 0 0 0 0 0 0 0 0 0 0 0 0 0 0 0 0 0 0 0 0 0 0 0 0 0 0 0 0 0 0 0 0 0 0 0 0 0 0 0 0 0 0 0 0 0 0 0 0 0 0 0 0 0 0 0 0 0 0
      0 0 0 0 0 0 0 0 0 0 0 0 0 0 0 0 0 0 0 0 0 0 0 0 0 0 0 0 0 0 0 0 0 0 0 0 0 0 0 0 0 0 0 0 0 0 0 0 0 0 0 0 0 0 0 0 0 0 0 0 0 0 0 0 0 0 0 0 0 0 0 0 0 0 0
      0 0 0 0 0 0 0 0 0 0 0 0 0 0 0 0 0 0 0 0 0 0 0 0 0 0 0 0 0 0 0 0 0 0 0 0 0 0 0 0 0 0 0 0 0 0 0 0 0 0 0 0 0 0 0 0 0 0 0 0 0 0 0 0 0 0 0 0 0 0 0 0 0 0 0
      0 0 0 0 0 0 0 0 0 0 0 0 0 0 0 0 0 0 0 0 0 0 0 0 0 0 0 0 0 0 0 0 0 0 0 0 0 0 0 0 0 0 0 0 0 0 0 0 0 0 0 0 0 0 0 0 0 0 0 0 0 0 0 0 0 0 0 0 0 0 0 0 0 0 0
      0 0 0 0 0 0 0 0 0 0 0 0 0 0 0 0 0 0 0 0 0 0 0 0 0 0 0 0 0 0 0 0 0 0 0 0 0 0 0 0 0 0 0 0 0 0 0 0 0 0 0 0 0 0 0 0 0 0 0 0 0 0 0 0 0 0 0 0 0 0 0 0 0 0 0
      0 0 0 0 0 0 0 0 0 0 0 0 0 0 0 0 0 0 0 0 0 0 0 0 0 0 0 0 0 0 0 0 0 0 0 0 0 0 0 0 0 0 0 0 0 0 0 0 0 0 0 0 0 0 0 0 0 0 0 0 0 0 0 0 0 0 0 0 0 0 0 0 0 0 0
      0 0 0 0 0 0 0 0 0 0 0 0 0 0 0 0 0 0 0 0 0 0 0 0 0 0 0 0 0 0 0 0 0 0 0 0 0 0 0 0 0 0 0 0 0 0 0 0 0 0 0 0 0 0 0 0 0 0 0 0 0 0 0 0 0 0 0 0 0 0 0 0 0 0 0
      0 0 0 0 0 0 0 0 0 0 0 0 0 0 0 0 0 0 0 0 0 0 0 0 0 0 0 0 0 0 0 0 0 0 0 0 0 0 0 0 0 0 0 0 0 0 0 0 0 0 0 0 0 0 0 0 0 0 0 0 0 0 0 0 0 0 0 0 0 0 0 0 0 0 0
      0 0 0 0 0 0 0 0 0 0 0 0 0 0 0 0 0 0 0 0 0 0 0 0 0 0 0 0 0 0 0 0 0 0 0 0 0 0 0 0 0 0 0 0 0 0 0 0 0 0 0 0 0 0 0 0 0 0 0 0 0 0 0 0 0 0 0 0 0 0 0 0 0 0 0
      0 0 0 0 0 0 0 0 0 0 0 0 0 0 0 0 0 0 0 0 0 0 0 0 0 0 0 0 0 0 0 0 0 0 0 0 0 0 0 0 0 0 0 0 0 0 0 0 0 0 0 0 0 0 0 0 0 0 0 0 0 0 0 0 0 0 0 0 0 0 0 0 0 0 0
      )
    )
    (tilemap
      (solid #t)
      (z-pos 50)
      (name "door")
      (path
        (node
          (x 0)
          (y 0)
          (time 2)
        )
        (node
          (x 0)
          (y -128)
          (time 2)
        )
      )
      (width 75)
      (height 35)
      (tiles
      0 0 0 0 0 0 0 0 0 0 0 0 0 0 0 0 0 0 0 0 0 0 0 0 0 0 0 0 0 0 0 0 0 0 0 0 0 0 0 0 0 0 0 0 0 0 0 0 0 0 0 0 0 0 0 0 0 0 0 0 0 0 0 0 0 0 0 0 0 0 0 0 0 0 0
      0 0 0 0 0 0 0 0 0 0 0 0 0 0 0 0 0 0 0 0 0 0 0 0 0 0 0 0 0 0 0 0 0 0 0 0 0 0 0 0 0 0 0 0 0 0 0 0 0 0 0 0 0 0 0 0 0 0 0 0 0 0 0 0 0 0 0 0 0 0 0 0 0 0 0
      0 0 0 0 0 0 0 0 0 0 0 0 0 0 0 0 0 0 0 0 0 0 0 0 0 0 0 0 0 0 0 0 0 0 0 0 0 0 0 0 0 0 0 0 0 0 0 0 0 0 0 0 0 0 0 0 0 0 0 0 0 0 0 0 0 0 0 0 0 0 0 0 0 0 0
      0 0 0 0 0 0 0 0 0 0 0 0 0 0 0 0 0 0 0 0 0 0 0 0 0 0 0 0 0 0 0 0 0 0 0 0 0 0 0 0 0 0 0 0 0 0 0 0 0 0 0 0 0 0 0 0 0 0 0 0 0 0 0 0 0 0 0 0 0 0 0 0 0 0 0
      0 0 0 0 0 0 0 0 0 0 0 0 0 0 0 0 0 0 0 0 0 0 0 0 0 0 0 0 0 0 0 0 0 0 0 0 0 0 0 0 0 0 0 0 0 0 0 0 0 0 0 0 0 0 0 0 0 0 0 0 0 0 0 0 0 0 0 0 0 0 0 0 0 0 0
      0 0 0 0 0 0 0 0 0 0 0 0 0 0 0 0 0 0 0 0 0 0 0 0 0 0 0 0 0 0 0 0 0 0 0 0 0 0 0 0 0 0 0 0 0 0 0 0 0 0 0 0 0 0 0 0 0 0 0 0 0 0 0 0 0 0 0 0 0 0 0 0 0 0 0
      0 0 0 0 0 0 0 0 0 0 0 0 0 0 0 0 0 0 0 0 0 0 0 0 0 0 0 0 0 0 0 0 0 0 0 0 0 0 0 0 0 0 0 0 0 0 0 0 0 0 0 0 0 0 0 0 0 0 0 0 0 0 0 0 0 0 0 0 0 0 0 0 0 0 0
      0 0 0 0 0 0 0 0 0 0 0 0 0 0 0 0 0 0 0 0 0 0 0 0 0 0 0 0 0 0 0 0 0 0 0 0 0 0 0 0 0 0 0 0 0 0 0 0 0 0 0 0 0 0 0 0 0 0 0 0 0 0 0 0 0 0 0 0 0 0 0 0 0 0 0
      0 0 0 0 0 0 0 0 0 0 0 0 0 0 0 0 0 0 0 0 0 0 0 0 0 0 0 0 0 0 0 0 0 0 0 0 0 0 0 0 0 0 0 0 0 0 0 0 0 0 0 0 0 0 0 0 0 0 0 0 0 0 0 0 0 0 0 0 0 0 0 0 0 0 0
      0 0 0 0 0 0 0 0 0 0 0 0 0 0 0 0 0 0 0 0 0 0 0 0 0 0 0 0 0 0 0 0 0 0 0 0 0 0 0 0 0 0 0 0 0 0 0 0 0 0 0 0 0 0 0 0 0 0 0 0 0 0 0 0 0 0 0 0 0 0 0 0 0 0 0
      0 0 0 0 0 0 0 0 0 0 0 0 0 0 0 0 0 0 0 0 0 0 0 0 0 0 0 0 0 0 0 0 0 0 0 0 0 0 0 0 0 0 0 0 0 0 0 0 0 0 0 0 0 0 0 0 0 0 0 0 0 0 0 0 0 0 0 0 0 0 0 0 0 0 0
      0 0 0 0 0 0 0 0 0 0 0 0 0 0 0 0 0 0 0 0 0 0 0 0 0 0 0 0 0 0 0 0 0 0 0 0 0 0 0 0 0 0 0 0 0 0 0 0 0 0 0 0 0 0 0 0 0 0 0 0 0 0 0 0 0 0 0 0 0 0 0 0 0 0 0
      0 0 0 0 0 0 0 0 0 0 0 0 0 0 0 0 0 0 0 0 0 0 0 0 0 0 0 0 0 0 0 0 0 0 0 0 0 0 0 0 0 0 0 0 0 0 0 0 0 0 0 0 0 0 0 0 0 0 0 0 0 0 0 0 0 0 0 0 0 0 0 0 0 0 0
      0 0 0 0 0 0 0 0 0 0 0 0 0 0 0 0 0 0 0 0 0 0 0 0 0 0 0 0 0 0 0 0 0 0 0 0 0 0 0 0 0 0 0 0 0 0 0 0 0 0 0 0 0 0 0 0 0 0 0 0 0 0 0 0 0 0 0 0 0 0 0 0 0 0 0
      0 0 0 0 0 0 0 0 0 0 0 0 0 0 0 0 0 0 0 0 0 0 0 0 0 0 0 0 0 0 0 0 0 0 0 0 0 0 0 0 0 0 0 0 0 0 0 0 0 0 0 0 0 0 0 0 0 0 0 0 0 0 0 0 0 0 0 0 0 0 0 0 0 0 0
      0 0 0 0 0 0 0 0 0 0 0 0 0 0 0 0 0 0 0 0 0 0 0 0 0 0 0 0 0 0 0 0 0 0 0 0 0 0 0 0 0 0 0 0 0 0 0 0 0 0 0 0 0 0 0 0 0 0 0 0 0 0 0 0 0 0 0 0 0 0 0 0 0 0 0
      0 0 0 0 0 0 0 0 0 0 0 0 0 0 0 0 0 0 0 0 0 0 0 0 0 0 0 0 0 0 0 0 0 0 0 0 0 0 0 0 0 0 0 0 0 0 0 0 0 0 0 0 0 0 0 0 0 0 0 0 0 0 0 0 0 0 0 0 0 0 0 0 0 0 0
      0 0 0 0 0 0 0 0 0 0 0 0 0 0 0 0 0 0 0 0 0 0 0 0 0 0 0 0 0 0 0 0 0 0 0 0 0 0 0 0 0 0 0 0 0 0 0 0 0 0 0 0 0 0 0 0 0 0 0 0 0 0 0 0 0 0 0 0 0 0 0 0 0 0 0
      0 0 0 0 0 0 0 0 0 0 0 0 0 0 0 0 0 0 0 0 0 0 0 0 0 0 0 0 0 0 0 0 0 0 0 0 0 0 0 0 0 0 0 0 0 0 0 0 0 0 0 0 0 0 0 0 0 0 0 0 0 0 0 0 0 0 0 0 0 0 0 0 0 0 0
      0 0 0 0 0 0 0 0 0 0 0 0 0 0 0 0 0 0 0 0 0 0 0 0 0 0 0 0 0 0 0 0 0 0 0 0 0 0 0 0 0 0 0 0 0 0 0 0 0 0 0 0 0 0 0 0 0 0 0 0 0 0 0 0 0 0 0 0 0 0 0 0 0 0 0
      0 0 0 0 0 0 0 0 0 0 0 0 0 0 0 0 0 0 0 0 0 0 0 0 0 0 0 0 0 0 0 0 0 0 0 0 0 0 0 0 0 0 0 0 0 0 0 0 0 0 0 0 0 0 0 0 0 0 0 0 0 0 0 0 0 0 0 0 0 0 0 0 0 0 0
      0 0 0 0 0 0 0 0 0 0 0 0 0 0 0 0 0 0 0 0 0 0 0 0 0 0 0 0 0 0 0 0 0 0 0 0 0 0 0 0 0 0 0 0 0 0 0 0 0 0 0 0 0 0 0 0 0 0 0 0 0 0 0 0 0 0 0 0 0 0 0 0 0 0 0
      0 0 0 0 0 0 0 0 0 0 0 0 0 0 0 0 0 0 0 0 0 0 0 0 0 0 0 0 0 0 0 0 0 0 0 0 0 0 0 0 0 0 0 0 0 0 0 0 0 0 0 0 0 0 0 0 0 0 0 0 0 0 0 0 0 0 0 0 0 0 0 0 0 0 0
      0 0 0 0 0 0 0 0 0 0 0 0 0 0 0 0 0 0 0 0 0 0 0 0 0 0 0 0 0 0 0 0 0 0 0 0 0 0 0 0 0 0 0 0 0 0 0 0 0 0 0 0 0 0 0 0 0 0 0 0 0 0 0 0 0 0 0 0 0 0 0 0 0 0 0
      0 0 0 0 0 0 0 0 0 0 0 0 0 0 0 0 0 0 0 0 0 0 0 0 0 0 0 0 0 0 0 0 0 0 0 0 0 0 0 0 0 0 0 0 0 0 0 0 0 0 0 0 0 0 0 0 0 0 0 0 0 0 0 0 0 0 0 0 0 0 0 0 0 0 0
      0 0 0 0 0 0 0 0 0 0 0 0 0 0 0 0 0 0 0 0 0 0 0 0 0 0 0 0 0 0 0 0 0 0 0 0 0 0 0 0 0 0 0 0 0 0 0 0 0 0 0 0 0 0 0 0 0 0 0 0 0 0 0 0 0 0 0 0 0 0 0 0 0 0 0
      0 0 0 0 0 0 0 0 0 0 0 0 0 0 0 0 0 0 0 0 0 0 0 0 0 0 0 0 0 0 0 0 0 0 0 0 0 0 0 0 0 0 0 0 0 0 0 0 0 0 0 0 0 0 0 0 0 0 0 0 0 0 0 0 0 0 0 0 0 0 0 0 0 0 0
      0 0 0 0 0 0 0 0 0 0 0 0 0 0 0 0 0 0 0 0 0 0 0 0 0 0 0 0 0 0 0 0 0 0 0 0 0 0 0 0 0 0 0 0 0 0 0 0 0 0 0 0 0 0 0 0 0 0 0 0 0 0 0 0 0 0 0 0 0 0 0 0 0 0 0
      0 0 0 0 0 0 0 0 0 0 0 0 0 0 0 0 0 0 0 0 0 0 0 0 0 0 0 0 0 0 0 0 0 0 0 0 0 0 0 0 0 0 0 0 0 0 0 0 0 0 0 0 0 0 0 0 0 0 0 0 0 0 0 0 0 0 0 0 0 0 0 0 0 0 0
      0 0 0 0 0 0 0 0 0 0 0 0 0 0 0 0 0 0 0 0 0 0 0 0 0 0 0 0 0 0 0 0 0 0 0 0 0 0 0 0 0 0 0 0 0 0 0 0 0 0 0 0 0 0 0 0 0 0 0 0 0 0 0 0 0 0 0 0 0 0 0 0 0 0 0
      0 0 0 0 0 0 0 0 0 0 0 0 0 0 0 0 0 0 0 0 0 0 0 0 0 0 0 0 0 0 0 0 0 0 0 0 0 0 0 0 0 0 0 0 0 0 0 0 0 0 0 0 0 0 0 0 0 0 0 0 0 0 0 0 0 0 0 0 0 0 0 0 0 0 0
      0 0 0 0 0 0 0 0 0 0 0 0 0 0 0 0 0 0 0 0 0 0 0 0 0 0 0 0 0 0 0 0 0 0 0 0 0 0 0 0 0 0 0 0 0 0 0 0 0 0 0 0 0 0 0 0 0 0 0 0 0 0 0 0 0 0 0 0 0 0 0 0 0 0 0
      0 0 0 0 0 0 0 0 0 0 0 0 0 0 0 0 0 0 0 0 0 0 0 0 0 0 0 0 0 0 0 0 0 0 0 0 0 0 0 0 0 0 0 0 0 0 0 0 0 0 0 0 0 0 0 0 0 0 0 0 0 0 0 0 0 0 0 0 0 0 0 0 0 0 0
      0 0 0 0 0 0 0 0 0 0 0 0 0 0 0 0 0 0 0 0 0 0 0 0 0 0 0 0 0 0 0 0 0 0 0 0 0 0 0 0 0 0 0 0 0 0 0 0 0 0 0 0 0 0 0 0 0 0 0 0 0 0 0 0 0 0 0 0 0 0 0 0 0 0 0
      0 0 0 0 0 0 0 0 0 0 0 0 0 0 0 0 0 0 0 0 0 0 0 0 0 0 0 0 0 0 0 0 0 0 0 0 0 0 0 0 0 0 0 0 0 0 0 0 0 0 0 0 0 0 0 0 0 0 0 0 0 0 0 0 0 0 0 0 0 0 0 0 0 0 0
      )
    )
  )
)
