(supertux-level
  (version 3)
  (name (_ "Igloo - Hurry!"))
  (author "Miksy91")
  (license "CC-BY-SA 4.0 International")
  (sector
    (name "main")
    (ambient-light
      (color 1 1 1)
    )
    (camera
      (name "Camera")
      (mode "normal")
    )
    (decal
      (z-pos 99)
      (sprite "/images/tiles/goal/exitfg.png")
      (x 928)
      (y 352.5)
    )
    (dispenser
      (cycle 2.5)
      (badguy "bouncingsnowball")
      (direction "left")
      (x 640)
      (y -32)
    )
    (dispenser
      (cycle 3.8)
      (badguy "snowman")
      (direction "left")
      (x 800)
      (y -32)
    )
    (dispenser
      (cycle 2)
      (badguy "snowball")
      (direction "left")
      (x 448)
      (y -32)
    )
    (gradient
      (top_color 0 0 0)
      (bottom_color 1 1 1)
    )
    (jumpy
      (direction "left")
      (x 711)
      (y 328)
    )
    (leveltime
      (time 10)
    )
    (music
      (file "music/antarctic/chipdisko.ogg")
    )
    (particles-snow
      (z-pos 110)
    )
    (particles-snow
    )
    (powerup
      (sprite "images/powerups/fireflower/fireflower.sprite")
      (x 82.99998)
      (y 255)
    )
    (secretarea
      (width 115.4386)
      (height 38.36374)
      (x 37.12131)
      (y 247.7487)
    )
    (snowball
      (direction "left")
      (x 723.3209)
      (y 513.2203)
    )
    (spawnpoint
      (name "main")
      (x 254.2031)
      (y 477.7502)
    )
    (tilemap
      (solid #f)
      (z-pos -100)
      (name "Background")
      (width 45)
      (height 25)
      (tiles
      0 0 0 0 0 0 0 0 0 0 0 0 0 0 0 0 0 0 0 0 0 0 0 0 0 0 0 0 0 0 0 0 0 0 0 0 0 0 0 0 0 0 0 0 0
      0 0 0 0 0 0 0 0 0 0 0 0 0 0 0 0 0 0 0 0 0 0 0 0 0 0 0 0 0 0 0 0 0 0 0 0 0 0 0 0 0 0 0 0 0
      0 0 0 0 0 0 0 0 0 0 0 0 0 0 0 0 0 0 0 0 0 0 0 0 0 0 0 0 0 0 0 0 0 0 0 0 0 0 0 0 0 0 0 0 0
      0 0 0 0 0 0 0 0 0 0 0 0 0 0 0 0 0 0 0 0 0 0 0 0 0 0 0 0 0 0 0 0 0 0 0 0 0 0 0 0 0 0 0 0 0
      0 0 0 0 0 0 0 0 0 0 0 0 0 0 0 0 0 0 0 0 0 0 0 0 0 0 0 0 0 0 0 0 0 0 0 0 0 0 0 0 0 0 0 0 0
      0 0 0 0 0 0 0 0 0 0 0 0 0 0 0 0 0 0 0 0 0 0 0 0 0 0 0 0 0 0 0 0 0 0 0 0 0 0 0 0 0 0 0 0 0
      0 0 0 0 0 0 0 0 0 0 0 0 0 0 0 0 0 0 0 0 0 0 0 0 0 0 0 0 0 0 0 0 0 0 0 0 0 0 0 0 0 0 0 0 0
      0 0 0 0 0 0 0 0 0 0 0 0 0 0 0 0 0 0 0 0 0 0 0 0 0 0 0 0 0 0 0 0 0 0 0 0 0 0 0 0 0 0 0 0 0
      0 0 0 2052 2053 2054 0 0 0 0 0 0 0 0 0 0 0 0 0 0 0 0 0 0 0 0 0 0 0 0 0 0 0 0 0 0 0 0 0 0 0 0 0 0 0
      0 0 0 0 0 2055 2054 0 0 0 0 0 0 0 0 0 0 0 0 0 0 0 0 0 0 0 0 0 0 0 0 0 0 0 0 0 0 0 0 0 0 0 0 0 0
      0 2062 2051 2060 2070 2065 2059 0 0 0 0 0 0 0 0 0 0 0 0 0 0 0 0 0 0 0 0 0 0 0 0 0 0 0 0 0 0 0 0 0 0 0 0 0 0
      0 0 2057 2066 2058 2058 2059 0 0 0 0 0 0 0 0 0 24 0 0 0 0 0 0 0 0 0 0 0 0 0 0 0 0 0 0 0 0 0 0 0 0 0 0 0 0
      0 0 2057 2058 2058 2050 2064 0 0 0 0 0 0 0 0 0 0 0 0 0 0 0 0 0 0 0 0 0 0 0 0 0 0 0 0 0 0 0 0 0 0 0 0 0 0
      0 0 2057 2071 2058 2059 0 0 0 0 0 0 0 0 2193 2184 2195 2188 2188 2188 2190 0 0 0 0 0 0 0 0 0 0 0 0 0 0 0 0 0 0 0 0 0 0 0 0
      0 0 2057 2058 2058 2059 0 0 0 0 0 0 0 0 0 2193 2184 2181 2189 2188 2198 2186 0 0 0 0 0 0 0 0 0 0 0 0 0 0 0 0 0 0 0 0 0 0 0
      0 2052 2056 2058 2058 2059 0 0 0 0 0 0 0 0 0 2185 2200 2196 2188 2180 2188 2190 107 108 0 0 0 0 0 0 0 0 0 0 0 0 0 0 0 0 0 0 0 0 0
      2052 2056 2065 2058 2058 2055 0 0 24 0 0 0 0 0 2185 2200 2197 2188 2188 2179 2188 2190 110 111 25 0 0 0 0 0 0 0 0 0 0 0 0 25 0 0 0 0 0 0 0
      0 0 0 0 0 0 0 0 0 0 0 0 0 0 0 0 0 0 0 0 0 0 0 0 0 0 0 0 0 0 0 0 0 0 0 0 0 0 0 0 0 0 0 0 0
      0 0 0 0 0 0 0 0 0 0 0 0 0 0 0 0 0 0 0 0 0 0 0 0 0 0 0 0 0 0 0 0 0 0 0 0 0 0 0 0 0 0 0 0 0
      0 0 0 0 0 0 0 0 0 0 0 0 0 0 0 0 0 0 0 0 0 0 0 0 0 0 0 0 0 0 0 0 0 0 0 0 0 0 0 0 0 0 0 0 0
      0 0 0 0 0 0 0 0 0 0 0 0 0 0 0 0 0 0 0 0 0 0 0 0 0 0 0 0 0 0 0 0 0 0 0 0 0 0 0 0 0 0 0 0 0
      0 0 0 0 0 0 0 0 0 0 0 0 0 0 0 0 0 0 0 0 0 0 0 0 0 0 0 0 0 0 0 0 0 0 0 0 0 0 0 0 0 0 0 0 0
      0 0 0 0 0 0 0 0 0 0 0 0 0 0 0 0 0 0 0 0 0 0 0 0 0 0 0 0 0 0 0 0 0 0 0 0 0 0 0 0 0 0 0 0 0
      0 0 0 0 0 0 0 0 0 0 0 0 0 0 0 0 0 0 0 0 0 0 0 0 0 0 0 0 0 0 0 0 0 0 0 0 0 0 0 0 0 0 0 0 0
      0 0 0 0 0 0 0 0 0 0 0 0 0 0 0 0 0 0 0 0 0 0 0 0 0 0 0 0 0 0 0 0 0 0 0 0 0 0 0 0 0 0 0 0 0
      )
    )
    (tilemap
      (solid #t)
      (z-pos 0)
      (name "Interactive")
      (width 45)
      (height 25)
      (tiles
      0 0 0 0 0 0 0 0 0 0 0 0 0 0 0 0 0 0 0 0 0 0 0 0 0 0 0 0 0 0 0 0 0 0 0 0 0 0 0 0 0 0 0 0 0
      0 0 0 0 0 0 0 0 0 0 0 0 0 0 0 0 0 0 0 0 0 0 0 0 0 0 0 0 0 0 0 0 0 0 0 0 0 0 0 0 0 0 0 0 0
      0 0 0 0 0 0 0 0 0 0 0 0 0 0 0 0 0 0 0 0 0 0 0 0 0 0 0 0 0 0 0 0 0 0 0 0 0 0 0 0 0 0 0 0 0
      0 0 0 0 0 0 0 0 0 0 0 0 0 0 0 0 0 0 0 0 0 0 0 0 0 0 0 0 0 0 0 0 0 0 0 0 0 0 0 0 0 0 0 0 0
      0 0 0 0 0 0 0 0 0 0 0 0 0 0 0 0 0 0 0 0 0 0 0 0 0 0 0 0 0 0 0 0 0 0 0 0 0 0 0 0 0 0 0 0 0
      0 0 0 0 0 0 0 0 0 0 0 0 0 0 0 0 0 0 0 0 0 0 0 0 0 0 0 0 0 1311 0 0 0 0 0 0 0 0 0 0 0 0 0 0 0
      0 0 0 0 0 0 0 0 0 0 0 0 0 0 0 0 0 0 0 0 0 0 0 0 0 0 0 0 0 1311 0 0 0 0 0 0 0 0 0 0 0 0 0 0 0
      0 0 0 0 0 0 0 0 0 0 0 0 0 0 0 0 0 0 0 0 0 0 0 0 0 0 0 0 0 1311 0 0 0 0 0 0 0 0 0 0 0 0 0 0 0
      0 2067 2068 2068 2069 0 0 0 0 0 0 0 0 0 0 0 0 0 0 0 0 0 0 0 0 0 0 0 0 1311 0 0 0 0 0 0 0 0 0 0 0 0 0 0 0
      0 2072 2073 2073 2078 0 0 0 0 0 0 0 0 0 0 0 0 0 0 0 0 0 0 0 0 0 0 0 0 1311 0 0 0 0 0 0 0 0 0 0 0 0 0 0 0
      0 0 0 0 0 0 0 0 0 0 0 0 0 0 0 0 0 0 0 0 0 0 0 0 0 0 0 0 0 1311 0 0 0 0 0 0 0 0 0 0 0 0 0 0 0
      0 0 0 0 0 0 0 0 0 0 0 0 0 0 7 8 8 8 8 8 8 9 0 0 0 0 126 0 0 1311 2825 2827 2825 0 0 0 0 0 0 0 0 0 0 0 0
      0 0 0 0 0 0 0 0 0 0 0 0 0 0 13 14 14 14 14 14 14 15 0 0 0 0 0 0 0 1311 0 0 0 2829 2825 0 0 0 0 0 0 0 0 0 0
      0 0 0 112 0 0 0 0 0 0 0 0 0 0 16 17 3038 3038 3038 3038 17 18 0 0 0 0 0 0 0 1311 0 0 0 0 132 2833 0 0 0 0 0 0 0 0 0
      0 0 0 0 0 0 0 0 0 0 0 0 104 0 0 0 0 0 0 0 0 0 0 0 0 0 0 0 0 133 0 0 0 0 132 2837 0 0 0 0 0 0 0 0 0
      0 0 0 0 0 0 0 0 0 0 0 0 0 0 0 0 0 0 0 0 0 106 0 0 0 0 0 0 0 133 0 0 0 0 132 1311 0 0 0 0 0 0 0 0 0
      8 8 8 8 8 8 8 8 8 8 8 8 8 8 8 8 2178 2178 2178 2178 8 109 8 8 8 8 8 8 8 133 8 2178 2178 2178 132 1311 8 8 8 8 8 8 8 8 8
      14 14 14 14 14 14 14 14 14 14 14 14 14 14 14 14 14 14 14 14 14 14 14 14 14 14 14 14 14 14 14 14 14 14 14 14 14 14 14 14 14 14 14 14 14
      11 11 11 19 11 11 11 19 11 11 115 116 11 11 11 19 11 11 11 11 11 11 11 11 11 11 11 11 11 11 11 11 11 11 11 11 11 11 11 11 11 11 11 11 11
      11 11 11 11 11 11 11 11 11 11 117 118 11 11 11 11 11 11 11 19 11 11 11 11 115 116 11 11 11 11 19 11 11 11 11 11 11 11 11 11 11 11 19 11 11
      11 11 11 11 11 11 11 11 11 11 11 11 11 11 11 11 11 11 11 11 11 11 11 11 117 118 11 11 11 11 11 11 11 11 11 11 11 19 11 11 11 11 11 11 11
      11 11 11 11 11 11 11 11 11 19 11 11 11 11 11 11 11 11 11 11 11 11 11 11 11 11 11 11 11 11 11 11 11 11 11 11 11 11 11 11 11 19 11 115 116
      11 11 11 11 11 11 11 11 11 11 11 11 11 11 11 11 11 11 11 11 11 11 11 11 11 11 11 11 11 19 11 11 11 11 11 11 11 11 11 11 11 11 11 117 118
      11 11 11 11 11 11 11 11 11 11 11 11 11 11 11 11 11 11 11 11 11 11 11 11 11 11 11 11 11 11 11 11 11 115 116 11 11 11 11 11 11 11 11 11 11
      11 11 11 11 11 11 11 11 11 11 11 11 11 11 11 11 11 11 11 11 11 11 11 11 11 11 11 11 11 11 11 11 11 117 118 11 11 11 11 11 11 11 11 11 11
      )
    )
    (tilemap
      (solid #f)
      (z-pos 100)
      (name "Foreground")
      (width 45)
      (height 25)
      (tiles
      0 0 0 0 0 0 0 0 0 0 0 0 0 0 0 0 0 0 0 0 0 0 0 0 0 0 0 0 0 0 0 0 0 0 0 0 0 0 0 0 0 0 0 0 0
      0 0 0 0 0 0 0 0 0 0 0 0 0 0 0 0 0 0 0 0 0 0 0 0 0 0 0 0 0 0 0 0 0 0 0 0 0 0 0 0 0 0 0 0 0
      0 0 0 0 0 0 0 0 0 0 0 0 0 0 0 0 0 0 0 0 0 0 0 0 0 0 0 0 0 0 0 0 0 0 0 0 0 0 0 0 0 0 0 0 0
      0 0 0 0 0 0 0 0 0 0 0 0 0 0 0 0 0 0 0 0 0 0 0 0 0 0 0 0 0 0 0 0 0 0 0 0 0 0 0 0 0 0 0 0 0
      0 0 0 0 0 0 0 0 0 0 0 0 0 0 0 0 0 0 0 0 0 0 0 0 0 0 0 0 0 0 0 0 0 0 0 0 0 0 0 0 0 0 0 0 0
      0 0 0 0 0 0 0 0 0 0 0 0 0 0 0 0 0 0 0 0 0 0 0 0 0 0 0 0 0 0 0 0 0 0 0 0 0 0 0 0 0 0 0 0 0
      0 0 0 0 0 0 0 0 0 0 0 0 0 0 0 0 0 0 0 0 0 0 0 0 0 0 0 0 0 0 0 0 0 0 0 0 0 0 0 0 0 0 0 0 0
      0 0 0 0 0 0 0 0 0 0 0 0 0 0 0 0 0 0 0 0 0 0 0 0 0 0 0 0 0 0 0 0 0 0 0 0 0 0 0 0 0 0 0 0 0
      0 0 0 0 0 0 0 0 0 0 0 0 0 0 0 0 0 0 0 0 0 0 0 0 0 0 0 0 0 0 0 0 0 0 0 0 0 0 0 0 0 0 0 0 0
      0 0 0 0 0 0 0 0 0 0 0 0 0 0 0 0 0 0 0 0 0 0 0 0 0 0 0 0 0 0 0 0 0 0 0 0 0 0 0 0 0 0 0 0 0
      0 0 0 0 0 0 0 0 0 0 0 0 0 0 0 0 0 0 0 0 0 0 0 0 0 0 0 0 0 0 0 0 0 0 0 0 0 0 0 0 0 0 0 0 0
      0 0 0 0 0 0 0 0 0 0 0 0 0 0 7 8 8 8 8 8 8 9 0 0 0 0 0 0 0 0 0 0 0 0 0 0 0 0 0 0 0 0 0 0 0
      0 0 0 0 0 0 0 0 0 0 0 0 0 0 13 14 14 14 14 14 14 15 0 0 0 0 0 0 0 0 0 0 0 0 0 0 0 0 0 0 0 0 0 0 0
      0 0 0 0 0 0 0 0 0 0 0 0 0 0 16 17 17 17 17 17 17 18 0 0 0 0 0 0 0 0 0 0 0 0 0 0 0 0 0 0 0 0 0 0 0
      0 0 0 0 0 0 0 0 0 0 0 0 0 0 0 0 0 0 0 0 0 0 0 0 0 0 0 0 0 0 0 0 0 0 0 0 0 0 0 0 0 0 0 0 0
      0 0 0 0 0 0 0 0 0 0 0 0 0 0 0 0 0 0 0 0 0 0 0 0 0 0 0 0 0 0 0 0 0 0 0 0 0 0 0 0 0 0 0 0 0
      8 8 8 8 8 8 8 8 8 8 8 8 8 8 8 8 8 8 8 8 8 8 8 8 8 8 8 8 8 8 8 8 8 8 8 8 8 8 8 8 0 0 0 0 0
      14 14 14 14 14 14 14 14 14 14 14 14 14 14 14 14 14 14 14 14 14 14 14 14 14 14 14 14 14 14 14 14 14 14 14 14 14 14 14 14 0 0 0 0 0
      0 0 0 0 0 0 0 0 0 0 0 0 0 0 0 0 0 0 0 0 0 0 0 0 0 0 0 0 0 0 0 0 0 0 0 0 0 0 0 0 0 0 0 0 0
      0 0 0 0 0 0 0 0 0 0 0 0 0 0 0 0 0 0 0 0 0 0 0 0 0 0 0 0 0 0 0 0 0 0 0 0 0 0 0 0 0 0 0 0 0
      0 0 0 0 0 0 0 0 0 0 0 0 0 0 0 0 0 0 0 0 0 0 0 0 0 0 0 0 0 0 0 0 0 0 0 0 0 0 0 0 0 0 0 0 0
      0 0 0 0 0 0 0 0 0 0 0 0 0 0 0 0 0 0 0 0 0 0 0 0 0 0 0 0 0 0 0 0 0 0 0 0 0 0 0 0 0 0 0 0 0
      0 0 0 0 0 0 0 0 0 0 0 0 0 0 0 0 0 0 0 0 0 0 0 0 0 0 0 0 0 0 0 0 0 0 0 0 0 0 0 0 0 0 0 0 0
      0 0 0 0 0 0 0 0 0 0 0 0 0 0 0 0 0 0 0 0 0 0 0 0 0 0 0 0 0 0 0 0 0 0 0 0 0 0 0 0 0 0 0 0 0
      0 0 0 0 0 0 0 0 0 0 0 0 0 0 0 0 0 0 0 0 0 0 0 0 0 0 0 0 0 0 0 0 0 0 0 0 0 0 0 0 0 0 0 0 0
      )
    )
    (tilemap
      (solid #f)
      (speed-x 0.5)
      (speed-y 0.5)
      (z-pos -110)
      (name "para1")
      (width 45)
      (height 25)
      (tiles
      0 0 0 0 0 0 0 0 0 0 0 0 0 0 0 0 0 0 0 0 0 0 0 0 0 0 0 0 0 0 0 0 0 0 0 0 0 0 0 0 0 0 0 0 0
      0 0 0 0 0 0 0 0 0 0 0 0 0 0 0 0 0 0 0 0 0 0 0 0 0 0 0 0 0 0 0 0 0 0 0 0 0 0 0 0 0 0 0 0 0
      0 0 0 0 0 0 0 0 0 0 0 0 0 0 0 0 0 0 0 0 0 0 0 0 0 0 0 0 0 0 0 0 0 0 0 0 0 0 0 0 0 0 0 0 0
      0 0 0 0 0 0 0 0 0 0 0 0 0 0 0 0 0 0 0 0 0 0 0 0 0 0 0 0 0 0 0 0 0 0 0 0 0 0 0 0 0 0 0 0 0
      0 0 0 0 0 0 0 149 150 150 151 0 0 0 0 0 0 0 0 0 0 0 0 0 0 0 0 0 0 0 0 0 0 0 0 0 0 0 0 0 0 0 0 0 0
      0 0 0 0 0 0 149 159 153 153 154 0 0 0 0 0 0 0 0 0 0 0 0 0 0 0 0 0 0 0 0 0 0 0 0 0 0 0 0 0 0 0 0 0 0
      0 0 0 0 0 0 152 153 153 153 158 151 0 0 0 0 0 0 0 0 0 0 0 0 149 150 151 0 0 0 0 0 0 0 0 0 0 0 0 0 0 0 0 0 0
      0 0 0 0 0 149 159 153 153 153 153 154 0 0 0 0 0 0 0 0 0 0 0 0 152 153 154 0 0 0 0 0 0 0 0 0 0 0 0 0 0 0 0 0 0
      0 0 0 0 0 152 153 153 244 153 153 154 0 0 0 0 0 0 0 0 0 0 0 0 152 153 158 151 0 0 0 0 0 149 150 150 151 0 0 0 0 0 0 0 0
      0 0 0 0 149 159 153 153 153 153 153 154 0 0 0 0 0 149 150 150 151 0 0 0 152 245 153 154 0 0 0 0 0 152 153 153 154 0 0 0 0 0 149 150 151
      0 0 0 149 159 153 245 153 153 153 153 154 0 0 0 149 150 159 153 153 154 0 0 0 152 153 153 158 151 0 0 0 0 152 153 153 158 151 0 0 0 0 152 153 158
      0 0 149 159 153 153 153 153 153 153 153 158 151 0 0 152 153 153 153 153 154 149 150 150 159 153 153 153 154 0 0 0 0 152 245 153 153 154 0 0 0 0 152 153 153
      0 149 159 153 153 153 153 153 153 153 153 153 154 149 150 159 153 245 153 153 158 159 153 153 153 244 153 153 154 0 0 0 149 159 153 153 153 158 151 0 0 0 152 153 153
      150 159 153 153 153 153 153 153 153 153 153 153 158 159 153 153 153 153 153 153 153 153 153 153 153 153 153 153 158 151 0 149 159 153 153 153 153 153 158 150 150 150 159 245 153
      153 153 153 153 153 153 153 153 153 153 153 153 153 153 153 153 153 153 153 153 153 153 153 153 153 153 153 153 153 158 150 159 153 153 153 153 153 153 153 153 153 153 153 153 153
      153 153 153 153 153 153 153 153 153 153 153 153 153 153 153 153 153 153 153 153 153 153 153 153 153 153 153 153 153 153 153 153 153 153 153 244 153 153 153 153 245 153 153 153 153
      153 153 153 153 244 153 153 153 245 153 153 153 153 153 153 153 153 245 153 153 153 153 153 153 153 245 153 153 153 153 153 153 153 153 153 153 153 153 153 153 153 153 153 244 153
      153 153 153 153 153 153 153 153 153 153 153 153 153 153 153 153 153 153 245 153 153 153 153 153 153 153 153 153 153 153 153 153 153 153 153 153 153 153 245 153 153 153 153 153 153
      153 245 153 153 153 153 153 153 153 153 153 153 153 153 153 153 153 153 153 153 153 153 153 153 153 153 153 153 153 153 153 153 245 153 153 153 153 153 153 153 153 153 153 153 153
      153 153 153 153 153 153 245 153 153 153 153 153 153 153 153 153 153 153 153 153 153 153 153 153 153 153 153 153 153 153 153 153 153 153 153 153 153 153 153 153 153 153 153 153 153
      153 153 153 153 153 153 153 153 153 153 153 153 153 153 153 153 153 244 153 153 153 153 153 153 153 153 153 153 153 153 153 153 153 153 153 153 153 153 153 153 153 153 153 153 153
      153 153 153 245 153 153 153 153 153 153 153 153 153 153 153 153 153 153 153 153 153 153 153 153 153 153 153 153 153 153 153 153 153 153 153 153 153 153 153 153 153 153 153 153 153
      153 153 153 153 153 153 153 153 153 153 153 153 245 153 153 153 153 153 153 153 153 153 153 153 153 153 153 153 153 153 153 153 153 153 153 153 153 153 153 153 153 153 153 153 153
      153 153 153 153 153 153 153 153 153 153 153 153 153 153 153 153 153 153 153 153 153 153 153 153 153 245 153 153 153 153 153 153 153 153 153 153 153 153 153 153 153 153 153 153 153
      153 153 153 153 153 153 153 153 153 153 153 153 153 153 153 153 153 153 153 153 153 153 153 153 153 153 153 153 153 153 153 153 153 153 153 153 153 153 153 153 0 0 0 0 0
      )
    )
    (tilemap
      (solid #f)
      (speed-x 0.25)
      (speed-y 0.25)
      (z-pos -120)
      (name "para2")
      (width 45)
      (height 25)
      (tiles
      0 0 0 0 0 0 0 0 0 0 0 0 0 0 0 0 0 0 0 0 0 0 0 0 0 0 0 0 0 0 0 0 0 0 0 0 0 0 0 0 0 0 0 0 0
      0 0 0 0 0 0 0 0 0 0 0 0 0 0 0 0 0 0 0 0 0 0 0 0 0 0 0 0 0 0 0 0 0 0 0 0 0 0 0 0 0 0 0 0 0
      0 0 0 0 0 0 0 0 0 0 0 0 0 0 0 0 0 0 0 0 0 0 0 0 0 0 0 0 0 0 0 0 0 0 0 0 0 0 0 0 0 0 0 0 0
      163 0 0 0 0 0 0 0 0 0 0 0 0 0 0 0 0 0 0 0 0 0 0 0 0 0 0 0 0 0 0 0 0 0 0 0 0 0 0 0 0 0 161 162 162
      170 162 163 0 0 0 0 0 0 0 0 0 0 0 0 0 0 0 0 0 0 0 0 0 0 0 0 0 0 0 0 0 0 0 0 0 0 161 163 0 0 0 164 257 165
      165 165 166 0 0 0 0 0 0 0 0 161 162 162 162 162 163 0 0 0 0 0 0 0 0 0 0 0 0 0 0 0 0 0 0 0 161 171 170 162 162 163 164 165 165
      165 257 166 0 0 0 0 0 0 0 0 164 165 256 165 165 166 0 0 0 0 0 0 0 0 0 0 0 0 0 0 0 0 0 0 0 164 165 165 256 165 170 171 165 257
      165 165 170 162 163 0 161 162 162 162 162 171 165 165 165 165 166 0 0 0 0 0 0 0 0 0 0 0 0 0 0 0 0 0 0 161 171 165 165 165 165 165 165 165 165
      165 165 165 165 166 0 164 165 165 165 165 165 165 165 165 165 170 162 162 162 162 163 0 0 0 0 0 0 0 0 0 0 0 0 161 171 165 165 257 165 165 257 165 165 165
      256 165 165 165 166 0 164 165 165 256 165 165 165 165 165 165 165 165 165 255 168 169 0 0 0 161 162 163 0 0 0 0 0 161 171 165 165 165 165 165 165 165 165 257 165
      165 165 165 165 166 0 164 165 165 165 165 257 165 165 165 165 165 165 165 170 162 162 162 162 162 171 165 170 162 162 162 162 162 171 165 257 165 165 257 165 165 256 165 165 165
      165 165 165 165 166 0 164 165 165 165 165 165 165 165 165 165 165 165 165 165 256 165 165 165 165 165 165 165 165 165 165 165 165 165 165 165 165 165 165 165 165 165 165 165 165
      165 257 165 165 166 0 164 165 165 165 165 165 257 165 165 165 165 165 165 165 165 165 165 165 165 165 165 257 165 165 165 165 165 165 165 165 165 165 165 165 165 165 165 165 165
      165 165 165 165 166 0 164 165 165 165 165 165 165 165 165 165 165 257 165 165 165 165 165 165 165 165 165 165 165 165 165 165 257 165 165 165 165 165 165 165 165 165 165 165 165
      165 165 165 165 170 163 164 165 165 165 165 165 165 165 165 165 165 165 165 165 165 165 165 165 165 165 165 165 165 165 165 165 165 165 165 165 257 257 165 165 165 165 165 165 165
      165 165 165 165 165 170 171 165 165 165 165 165 165 165 165 165 165 257 165 165 165 165 165 165 257 165 165 165 165 165 165 165 165 165 165 165 165 165 165 165 165 165 165 165 165
      165 165 165 165 165 165 165 165 165 165 165 165 165 165 165 165 165 165 165 165 165 165 165 165 165 165 165 165 165 165 165 165 165 165 257 165 165 165 165 165 165 165 165 165 165
      165 256 165 165 165 165 165 165 165 165 165 165 165 165 165 165 165 165 165 165 165 165 165 165 165 165 165 165 257 165 165 165 165 165 165 165 165 165 165 165 165 165 165 165 165
      165 165 165 165 165 165 165 257 165 165 165 165 165 165 165 257 257 165 165 165 165 165 165 256 165 165 165 165 165 165 165 165 165 165 165 165 165 165 165 165 165 165 165 165 165
      165 165 165 165 165 165 165 165 165 165 165 165 165 165 165 165 165 165 165 165 165 165 165 165 165 165 165 165 165 165 165 165 165 165 165 165 165 165 165 165 165 165 165 165 165
      165 165 165 165 165 165 165 165 165 165 165 165 165 165 165 165 165 165 165 165 165 165 165 165 165 165 165 165 165 165 165 165 165 165 165 165 165 165 165 165 165 165 165 165 165
      165 165 165 165 165 165 165 165 165 165 165 165 165 165 165 165 165 165 165 165 165 165 165 165 165 165 165 165 165 165 165 165 165 165 165 165 165 165 165 165 165 165 165 165 165
      165 165 165 165 165 165 165 165 165 165 165 165 165 165 165 165 165 165 165 165 165 165 165 165 165 165 165 165 165 165 165 165 165 165 165 165 165 165 165 165 165 165 165 165 165
      165 165 165 165 165 165 165 165 165 165 165 165 165 165 165 165 165 165 165 165 165 165 165 165 165 165 165 165 165 165 165 165 165 165 165 165 165 165 165 165 165 165 165 165 165
      165 165 165 165 165 165 165 165 165 165 165 165 165 165 165 165 165 165 165 165 165 165 165 165 165 165 165 165 165 165 165 165 165 165 165 165 165 165 165 165 165 165 165 165 165
      )
    )
  )
)
