(supertux-level
  (version 3)
  (name (_ "Inside Igloo"))
  (author "Miksy91")
  (license "CC-BY-SA 4.0 International")
  (sector
    (name "main")
    (ambient-light
      (color 1 1 1)
    )
    (bonusblock
      (script "drop.set_alpha(0);
blow1.start();")
      (contents "script")
      (sprite "/images/objects/bonus_block/orangeblock.sprite")
      (x 704)
      (y 448)
    )
    (bouncingsnowball
      (direction "left")
      (x 2666)
      (y 514)
    )
    (bouncingsnowball
      (direction "left")
      (x 2291)
      (y 536)
    )
    (bouncingsnowball
      (direction "left")
      (x 2277)
      (y 251)
    )
    (camera
      (name "Camera")
      (mode "normal")
    )
    (fish
      (direction "left")
      (x 2121)
      (y 195)
    )
    (fish
      (direction "left")
      (x 2162)
      (y 194)
    )
    (fish
      (direction "left")
      (x 2205)
      (y 196)
    )
    (fish
      (direction "left")
      (x 2250)
      (y 197)
    )
    (fish
      (direction "left")
      (x 2281)
      (y 197)
    )
    (fish
      (direction "left")
      (x 2312)
      (y 199)
    )
    (fish
      (direction "left")
      (x 2354)
      (y 200)
    )
    (fish
      (direction "left")
      (x 2413)
      (y 198)
    )
    (fish
      (direction "left")
      (x 2488)
      (y 203)
    )
    (flyingsnowball
      (direction "left")
      (x 886.6566)
      (y 377.7595)
    )
    (flyingsnowball
      (direction "left")
      (x 1104.657)
      (y 379.7595)
    )
    (flyingsnowball
      (direction "left")
      (x 1290.657)
      (y 381.7595)
    )
    (flyingsnowball
      (direction "left")
      (x 2327.53)
      (y 487.8246)
    )
    (flyingsnowball
      (direction "left")
      (x 2715.53)
      (y 457.8246)
    )
    (flyingsnowball
      (direction "left")
      (x 2853.358)
      (y 402.8246)
    )
    (gradient
      (top_color 0.3 0.4 0.75)
      (bottom_color 1 1 1)
    )
    (iceflame
      (direction "left")
      (x 996.8434)
      (y 379.7625)
    )
    (iceflame
      (direction "left")
      (x 1197.828)
      (y 385.5858)
    )
    (jumpy
      (direction "right")
      (x 58)
      (y 288)
    )
    (jumpy
      (direction "left")
      (x 93)
      (y 134)
    )
    (jumpy
      (direction "left")
      (x 1910)
      (y 257)
    )
    (leveltime
      (time 55)
    )
    (mrbomb
      (direction "left")
      (x 2408)
      (y 451)
    )
    (mriceblock
      (direction "left")
      (x 2727)
      (y 591)
    )
    (mriceblock
      (direction "left")
      (x 2917)
      (y 441)
    )
    (music
      (file "music/antarctic/salcon.ogg")
    )
    (particles-clouds
      (z-pos -150)
    )
    (path
      (name "gen15453436371966302295808")
      (path
        (mode "oneshot")
        (node
          (x 672)
          (y 544)
        )
      )
    )
    (secretarea
      (fade-tilemap "secret")
      (width 32)
      (height 360.0976)
      (x 3030.484)
      (y 157.8869)
    )
    (spawnpoint
      (name "main")
      (x 99.5391)
      (y 490.5786)
    )
    (stalactite
      (direction "left")
      (x 887)
      (y 9)
    )
    (stalactite
      (direction "left")
      (x 933)
      (y 10)
    )
    (stalactite
      (direction "left")
      (x 982)
      (y 9)
    )
    (stalactite
      (direction "left")
      (x 1030)
      (y 10)
    )
    (stalactite
      (direction "left")
      (x 1086)
      (y 10)
    )
    (stalactite
      (direction "left")
      (x 1294)
      (y 11)
    )
    (tilemap
      (solid #f)
      (z-pos -100)
      (name "Background")
      (width 120)
      (height 25)
      (tiles
      0 0 0 0 0 0 0 0 0 0 0 0 0 0 0 0 0 0 0 0 0 0 0 0 0 0 0 0 0 0 0 0 0 0 0 0 0 0 0 0 0 0 0 0 0 0 0 0 0 0 0 0 0 0 0 0 0 0 0 0 0 0 0 0 0 0 0 0 0 0 0 0 0 0 0 0 0 0 0 0 0 0 0 0 0 0 0 0 0 0 0 0 0 0 0 0 0 0 0 0 0 0 0 0 0 0 0 0 0 0 0 0 0 0 0 0 0 0 0 0
      0 0 0 0 0 0 0 0 0 0 0 0 0 0 0 0 0 0 0 0 0 0 0 0 0 0 0 0 0 0 0 0 0 0 0 0 0 0 0 0 0 0 0 0 0 0 0 0 0 0 0 0 0 0 0 0 0 0 0 0 0 0 0 0 0 0 0 0 0 0 0 0 0 0 0 0 0 0 0 0 0 0 0 0 0 0 0 0 0 0 0 0 0 0 0 0 0 0 0 0 0 0 0 0 0 0 0 0 0 0 0 0 0 0 0 0 0 0 0 0
      0 0 0 0 0 0 0 0 0 0 0 0 0 0 0 0 0 0 0 0 0 0 0 0 0 0 0 0 0 0 0 0 0 0 0 0 0 0 0 0 0 0 0 0 0 0 0 0 0 0 0 0 0 0 0 0 0 0 0 0 0 0 0 0 0 0 0 0 0 0 0 0 0 0 0 0 0 0 0 0 0 0 0 0 0 0 0 0 0 0 0 0 0 0 0 0 0 0 0 0 0 0 0 0 0 0 0 0 0 0 0 0 0 0 0 0 0 0 0 0
      0 0 0 0 0 0 0 0 0 0 0 0 0 0 0 0 0 0 0 0 0 0 0 0 0 0 0 0 0 0 0 0 0 0 0 0 0 0 0 0 0 0 0 0 0 0 0 0 0 0 0 0 0 0 0 0 0 0 0 0 0 0 0 0 0 0 0 0 0 0 0 0 0 0 0 0 0 0 0 0 0 0 0 0 0 0 0 0 0 0 0 0 0 0 0 0 0 0 0 0 0 0 0 0 0 0 0 0 0 0 0 0 0 0 0 0 0 0 0 0
      0 0 0 0 0 0 0 0 0 0 0 0 0 0 0 0 0 0 0 0 0 0 0 0 0 0 0 0 0 0 0 0 0 0 0 0 0 0 0 0 0 0 0 0 0 0 0 0 0 0 0 0 0 0 0 0 0 0 0 0 0 0 0 0 0 0 0 0 0 0 0 0 0 0 0 0 0 0 0 0 0 0 0 0 0 0 0 0 0 0 0 0 0 0 0 0 0 0 0 0 0 0 0 0 0 0 0 0 0 0 0 0 0 0 0 0 0 0 0 0
      0 0 0 0 0 0 0 0 0 0 0 0 0 0 0 0 0 0 0 0 0 0 0 0 0 0 0 0 0 0 0 0 0 0 0 0 0 0 0 0 0 0 0 0 0 0 0 0 0 0 0 0 0 0 0 0 0 0 0 0 0 0 0 0 0 0 0 0 0 0 0 0 0 0 0 0 0 0 0 0 0 0 0 0 0 0 0 0 0 0 0 0 0 0 0 0 0 0 0 0 0 0 0 0 0 0 0 0 0 0 0 0 0 0 0 0 0 0 0 0
      0 0 0 0 0 0 0 0 0 0 0 0 0 0 0 0 0 0 0 0 0 0 0 0 0 0 0 0 0 0 0 0 0 0 0 0 0 0 0 0 0 0 0 0 0 0 0 0 0 0 0 0 0 0 0 0 0 0 0 0 0 0 0 0 0 0 0 0 0 0 0 0 0 0 0 0 0 0 0 0 0 0 0 0 0 0 0 0 0 0 0 0 0 0 0 0 0 0 0 0 0 0 0 0 0 0 0 0 0 0 0 0 0 0 0 0 2115 0 0 0
      0 0 0 0 0 0 0 0 0 0 0 0 0 0 0 0 0 0 0 0 0 0 0 0 0 0 0 0 0 0 0 0 0 0 0 0 0 0 0 0 0 0 0 0 0 0 0 0 0 0 0 0 0 0 0 0 0 0 0 0 0 0 0 0 0 0 0 0 0 0 0 0 0 0 0 0 0 0 0 0 0 0 0 0 0 0 0 0 0 0 0 0 0 0 0 0 0 0 0 0 0 0 0 0 0 0 0 0 0 0 0 0 0 0 0 0 2115 0 0 0
      0 0 0 0 0 0 0 0 0 0 0 0 0 0 0 0 0 0 0 0 0 0 0 0 0 0 0 0 0 0 0 0 0 0 0 0 0 0 0 0 0 0 0 0 3023 3005 1719 1719 1719 1719 1718 0 0 0 0 0 0 0 0 0 0 0 0 0 0 0 0 0 0 0 0 0 0 0 0 0 0 0 0 0 0 0 0 0 0 0 0 0 0 0 0 0 0 0 0 0 0 0 0 0 0 0 0 0 0 0 0 0 0 0 0 0 0 0 0 0 2115 0 0 0
      0 0 0 0 0 0 0 0 0 0 0 0 0 0 0 0 0 0 0 0 0 0 0 0 0 0 0 0 0 0 0 0 0 0 0 0 0 0 0 0 0 0 0 3023 3016 3028 0 0 0 0 0 0 0 3017 3024 0 0 0 0 0 0 0 0 0 0 0 0 0 0 0 0 0 0 0 0 0 0 0 0 0 0 0 0 0 0 0 0 0 0 0 0 0 0 0 0 0 0 0 0 0 0 0 0 0 0 0 0 0 0 0 0 0 0 0 0 0 2115 0 0 0
      0 0 0 0 0 0 0 0 0 0 0 0 0 0 0 0 0 0 0 0 0 0 0 0 0 0 0 0 0 0 0 0 0 0 0 0 0 0 0 0 0 0 3023 3016 3028 0 0 0 0 0 0 0 0 3027 0 3024 0 0 0 0 0 0 0 0 0 0 0 0 0 0 0 0 0 0 0 0 0 0 0 0 0 0 0 0 0 0 0 0 0 0 0 0 0 0 0 0 0 0 0 0 0 0 0 0 0 0 0 0 0 0 0 0 0 0 0 0 2115 0 0 0
      0 0 0 0 0 0 0 0 0 0 0 0 0 0 0 0 0 0 0 0 0 0 0 0 0 0 0 0 0 0 0 0 0 0 0 0 0 0 0 0 0 0 3000 3028 0 0 0 0 0 0 0 0 3023 3005 1719 3008 0 0 0 0 0 0 0 0 0 0 0 0 0 0 0 0 0 0 0 0 0 0 0 0 0 0 0 0 0 0 0 0 0 0 0 0 0 0 0 0 0 0 0 0 0 0 0 0 0 0 0 0 0 0 0 0 0 0 0 0 2115 0 0 0
      0 0 0 0 0 0 0 0 0 0 0 0 0 0 0 0 0 0 0 0 0 0 0 0 0 0 0 0 0 0 0 0 0 0 0 0 0 0 0 0 0 0 3004 3024 0 0 0 0 0 0 0 3023 3016 3032 0 3028 0 0 0 0 0 0 0 0 2020 2020 2020 2020 2020 2020 2020 2020 2020 2020 2020 2020 2020 2020 2020 2020 2020 2020 2020 2020 2020 2020 2020 2020 2020 2020 2020 2020 2020 0 0 0 0 0 0 0 0 0 0 0 0 0 0 0 0 0 0 0 0 0 0 0 2115 0 0 0
      0 0 0 0 0 0 0 0 0 0 0 0 0 0 0 0 0 0 0 0 0 0 0 0 0 0 0 0 0 0 0 0 0 0 0 0 0 0 0 0 0 0 3027 3015 3024 0 0 0 0 0 3023 3016 3028 3021 3028 0 0 0 0 0 0 0 0 0 2020 2020 2020 2020 2020 2020 2020 2020 2020 2020 2020 2020 2020 2020 2020 2020 2020 2020 2020 2020 2020 2020 2020 2020 2020 2020 2020 2020 2020 0 0 0 0 0 0 0 0 0 0 0 0 0 0 0 0 0 0 0 0 0 0 0 2115 0 0 0
      0 0 0 0 0 0 0 0 0 0 0 0 0 0 0 0 0 0 0 0 0 0 0 0 0 0 0 0 0 0 0 0 0 0 0 0 0 0 0 0 0 0 0 3027 3015 3024 0 0 0 3023 3016 3028 0 0 0 0 0 0 0 0 0 0 0 0 2020 2020 2020 2020 2020 2020 2020 2020 2020 2020 2020 2020 2020 2020 2020 2020 2020 2020 2020 2020 2020 2020 2020 2020 2020 2020 2020 2020 2020 0 0 0 0 0 0 0 0 0 0 0 0 0 0 0 0 0 0 0 0 0 0 0 2115 0 0 0
      0 0 0 0 0 0 0 0 0 0 0 0 0 0 0 0 0 0 0 0 0 0 0 0 0 0 0 0 0 0 0 0 0 0 0 0 0 0 0 0 0 0 0 0 3027 3001 1719 1719 1719 3002 3028 0 0 0 0 0 0 0 0 0 0 0 0 0 2020 2020 2020 2020 2020 2020 2020 2020 2020 2020 2020 2020 2020 2020 2020 2020 2020 2020 2020 2020 2020 2020 2020 2020 2020 2020 2020 2020 2020 0 0 0 0 0 0 0 0 0 0 0 0 0 0 0 0 0 0 0 0 0 0 0 0 0 0 0
      0 0 1628 1629 0 0 0 0 0 0 0 0 0 0 0 0 0 0 0 0 0 0 0 0 0 0 0 0 0 0 0 0 0 0 0 0 0 0 0 0 0 0 0 0 0 0 0 0 0 0 0 0 0 0 0 0 0 0 0 0 0 0 0 0 2020 2020 2020 2020 2020 2020 2020 2020 2020 2020 2020 2020 2020 2020 2020 2020 2020 2020 2020 2020 2020 2020 2020 2020 2020 2020 2020 2020 2020 0 0 0 0 0 0 0 0 0 0 0 0 0 0 0 0 0 0 0 0 0 0 0 0 0 0 0
      0 0 1630 1631 0 0 0 0 0 0 0 0 0 0 0 0 0 0 0 0 0 0 0 0 0 0 0 0 0 0 0 0 0 0 0 0 0 0 0 0 0 0 0 0 0 0 0 0 0 0 0 0 0 0 0 0 0 0 0 0 0 0 0 0 2020 2020 2020 2020 2020 2020 2020 2020 2020 2020 2020 2020 2020 2020 2020 2020 2020 2020 2020 2020 2020 2020 2020 2020 2020 2020 2020 2020 2020 2020 2020 2020 2020 2020 2020 2020 2020 2020 2020 2020 2020 2020 2020 2020 2020 2020 2020 2020 2020 2020 2020 2020 2020 2020 2020 2020
      0 0 0 0 0 0 0 0 0 0 0 0 0 0 0 0 0 0 0 0 0 0 0 0 0 0 0 0 0 0 0 0 0 0 0 0 0 0 0 0 0 0 0 0 0 0 0 0 0 0 0 0 0 0 0 0 0 0 0 0 0 0 0 0 2020 2020 2020 2020 2020 2020 2020 2020 2020 2020 2020 2020 2020 2020 2020 2020 2020 2020 2020 2020 2020 2020 2020 2020 2020 2020 2020 2020 2020 2020 2020 2020 2020 2020 2020 2020 2020 2020 2020 2020 2020 2020 2020 2020 2020 2020 2020 2020 2020 2020 2020 2020 2020 2020 2020 2020
      0 0 0 0 0 0 0 0 0 0 0 0 0 0 0 0 0 0 0 0 0 0 0 0 0 0 0 0 0 0 0 0 0 0 0 0 0 0 0 0 0 0 0 0 0 0 0 0 0 0 0 0 0 0 0 0 0 0 0 0 0 0 0 0 0 0 0 0 0 0 0 0 0 0 1540 1540 1540 1540 0 0 0 0 0 0 0 0 0 0 0 0 0 0 0 0 0 0 0 0 0 0 0 0 0 0 0 0 0 0 0 0 0 0 0 0 0 0 0 0 0 0
      0 0 0 0 0 0 0 0 0 0 0 0 0 0 0 0 0 0 0 0 0 0 0 0 0 0 0 0 0 0 0 0 0 0 0 0 0 0 0 0 0 0 0 0 0 0 0 0 0 0 0 0 0 0 0 0 0 0 0 0 0 0 0 0 0 0 0 0 0 0 0 0 0 0 0 1540 1540 0 0 0 0 0 0 0 0 0 0 0 0 0 0 0 0 0 0 0 0 0 0 0 0 0 0 0 0 0 0 0 0 0 0 0 0 0 0 0 0 0 0 0
      0 0 0 0 0 0 0 0 0 0 0 0 0 0 0 0 0 0 0 0 0 0 0 0 0 0 0 0 0 0 0 0 0 0 0 0 0 0 0 0 0 0 0 0 0 0 0 0 0 0 0 0 0 0 0 0 0 0 0 0 0 0 0 0 0 0 0 0 0 0 0 0 0 0 0 1540 1540 0 0 0 0 0 0 0 0 0 0 0 0 0 0 0 0 0 0 0 0 0 0 0 0 0 0 0 0 0 0 0 0 0 0 0 0 0 0 0 0 0 0 0
      0 0 0 0 0 0 0 0 0 0 0 0 0 0 0 0 0 0 0 0 0 0 0 0 0 0 0 0 0 0 0 0 0 0 0 0 0 0 0 0 0 0 0 0 0 0 0 0 0 0 0 0 0 0 0 0 0 0 0 0 0 0 0 0 0 0 0 0 0 0 0 0 0 0 0 1540 1540 0 0 0 0 0 0 0 0 0 0 0 0 0 0 0 0 0 0 0 0 0 0 0 0 0 0 0 0 0 0 0 0 0 0 0 0 0 0 0 0 0 0 0
      0 0 0 0 0 0 0 0 0 0 0 0 0 0 0 0 0 0 0 0 0 0 0 0 0 0 0 0 0 0 0 0 0 0 0 0 0 0 0 0 0 0 0 0 0 0 0 0 0 0 0 0 0 0 0 0 0 0 0 0 0 0 0 0 0 0 0 0 0 0 0 0 0 0 0 1540 1540 0 0 0 0 0 0 0 0 0 0 0 0 0 0 0 0 0 0 0 0 0 0 0 0 0 0 0 0 0 0 0 0 0 0 0 0 0 0 0 0 0 0 0
      0 0 0 0 0 0 0 0 0 0 0 0 0 0 0 0 0 0 0 0 0 0 0 0 0 0 0 0 0 0 0 0 0 0 0 0 0 0 0 0 0 0 0 0 0 0 0 0 0 0 0 0 0 0 0 0 0 0 0 0 0 0 0 0 0 0 0 0 0 0 0 0 0 0 0 1540 1540 0 0 0 0 0 0 0 0 0 0 0 0 0 0 0 0 0 0 0 0 0 0 0 0 0 0 0 0 0 0 0 0 0 0 0 0 0 0 0 0 0 0 0
      )
    )
    (tilemap
      (solid #t)
      (z-pos 0)
      (name "Interactive")
      (width 120)
      (height 25)
      (tiles
      0 0 0 0 0 0 0 0 0 0 0 0 0 0 0 0 0 0 0 0 0 0 0 0 0 0 0 0 0 0 0 0 0 0 0 0 0 0 0 0 0 0 0 0 0 0 0 0 0 0 2087 2088 0 0 0 0 0 0 0 0 0 0 0 0 0 0 0 0 0 0 0 0 0 0 0 0 0 0 0 0 0 0 0 0 0 0 0 0 0 0 1551 1540 1540 1540 1540 1540 1540 1540 1540 1540 1540 1540 1540 1540 1540 1540 1540 1540 1540 1540 1540 1540 1540 1540 1540 1540 1540 1540 1540 1540
      0 0 0 0 0 0 0 0 0 0 0 0 0 0 0 0 0 0 0 0 0 0 0 0 0 0 0 0 0 0 0 0 0 0 0 0 0 0 0 0 0 0 0 0 0 0 0 0 0 0 2087 2088 0 0 0 0 0 0 0 0 0 0 0 0 0 0 0 0 0 0 0 0 0 0 0 0 0 0 0 0 0 0 0 0 0 0 0 0 0 0 1551 1540 1540 1540 1540 1540 1540 1540 1540 1540 1540 1540 1540 1540 1540 1540 1540 1540 1540 1540 1540 1540 1540 1540 1540 1540 1540 1540 1540 1540
      0 0 0 0 0 0 0 0 0 0 0 0 0 0 0 0 0 0 0 0 0 0 0 0 0 0 0 0 0 0 0 0 0 0 0 0 0 0 0 0 0 0 0 0 0 0 0 0 0 0 2087 2088 0 0 0 0 0 0 0 0 0 0 0 0 0 0 0 0 0 0 0 0 0 0 0 0 0 0 0 0 0 0 0 0 0 0 0 0 0 0 0 0 1551 1540 1540 1540 1540 1540 1540 1540 1540 1540 1540 1540 1540 1540 1540 1540 1540 1540 1540 1540 1540 1540 1540 1540 1540 1540 1540 1540
      0 0 0 0 0 0 0 0 0 0 0 0 0 0 0 0 0 0 0 0 0 0 0 0 0 0 0 0 0 0 0 0 0 0 0 0 0 0 0 0 0 0 0 0 0 0 0 0 0 0 2087 2088 0 0 0 0 0 0 0 0 0 0 0 0 0 0 0 0 0 0 0 0 0 0 0 0 0 0 0 0 0 0 0 0 0 0 0 0 0 0 0 0 1551 1540 1540 1540 1540 1540 1540 1540 1540 1540 1540 1540 1540 1540 1540 1540 1540 1540 1540 1540 1540 1540 1540 1540 1540 1540 1540 1540
      0 0 0 0 0 0 0 0 0 0 0 0 0 0 0 0 0 0 0 0 0 0 0 0 0 0 0 0 0 0 0 0 0 0 0 0 0 0 0 0 0 0 0 0 0 0 0 0 0 0 2087 2088 0 0 0 0 0 0 0 0 0 0 0 0 0 0 0 0 0 0 0 0 0 0 0 0 0 0 0 0 0 0 0 0 0 0 0 0 0 0 0 0 0 1551 1540 1540 1540 1540 1540 1540 1540 1540 1540 1540 1540 1540 1540 1540 1540 1540 1540 1540 1540 1540 1540 1540 1540 1540 1540 1540
      0 0 0 0 0 0 0 0 0 0 0 0 0 0 0 0 0 0 0 0 0 0 0 0 0 0 0 0 0 0 0 0 0 0 0 0 0 0 0 0 0 0 0 0 0 0 0 0 0 0 2087 2088 0 0 0 0 0 0 0 0 0 0 0 0 0 0 0 0 0 0 0 0 0 0 0 0 0 0 0 0 0 0 0 0 0 0 0 0 0 0 0 0 0 1551 1540 1540 1540 1540 1540 1540 1540 1540 1540 1540 1540 1540 1540 1540 1540 1540 1540 1540 1540 1540 1540 1540 1540 1540 1540 1540
      0 0 0 0 0 0 0 0 0 0 0 0 0 0 0 0 0 0 0 0 0 0 0 0 0 0 0 0 0 0 0 0 0 0 0 0 0 0 0 0 0 0 0 0 0 0 0 0 0 0 2087 2088 0 0 0 0 0 0 0 0 0 0 0 0 0 0 0 0 0 0 0 0 0 0 0 0 0 0 0 0 0 0 0 0 0 0 0 0 0 0 0 0 0 0 0 0 0 0 0 0 0 0 0 0 0 0 0 0 0 0 0 0 0 0 0 2114 1551 1540 1540 1540
      0 0 0 0 0 0 0 0 0 0 0 0 0 0 0 0 0 0 0 0 0 0 0 0 0 0 0 0 0 0 0 0 0 0 0 0 0 0 0 0 0 0 0 0 0 0 44 44 44 44 2087 2088 0 0 0 0 0 0 0 0 0 0 0 102 0 0 0 0 0 0 0 0 0 0 0 0 0 0 0 0 0 0 0 0 0 0 0 0 0 0 0 0 0 0 0 0 0 0 0 0 0 0 0 0 0 0 0 0 0 0 0 0 0 0 0 2114 1551 1540 1540 1540
      0 0 0 0 0 0 0 0 0 0 0 0 0 0 0 0 0 0 0 0 2817 2817 2817 2817 0 0 0 0 0 0 0 0 0 0 0 0 0 0 0 0 0 0 0 0 0 0 44 44 44 44 2089 2090 0 0 0 0 0 0 0 0 0 0 0 0 0 0 0 0 0 0 0 0 0 0 0 0 0 0 0 0 0 0 0 0 0 0 0 0 0 0 0 0 0 0 0 0 0 0 0 0 0 0 0 0 0 0 0 0 0 0 0 0 0 0 0 2114 1551 1540 1540 1540
      0 0 0 0 0 0 0 0 0 0 0 0 0 0 0 0 0 0 0 0 0 0 0 0 0 0 0 0 0 0 0 0 0 0 0 0 0 0 0 0 0 0 0 0 0 0 2817 2817 2817 2817 0 0 0 0 0 0 0 0 0 0 0 0 0 0 0 0 0 0 0 0 0 0 0 0 0 0 0 0 0 0 0 0 0 0 0 0 0 0 0 0 0 0 0 0 0 0 0 0 0 0 0 0 0 0 0 0 0 0 0 0 0 0 0 0 0 2114 1551 1540 1540 1540
      0 0 0 0 0 0 0 0 0 0 0 0 0 0 0 0 0 0 0 0 0 0 0 0 0 0 0 0 0 0 0 0 0 0 0 0 0 0 0 0 0 0 0 0 0 0 0 0 0 0 0 0 0 0 3015 0 0 44 44 0 0 0 0 0 0 0 0 0 0 0 0 0 0 0 0 0 0 0 0 0 0 0 0 0 0 0 0 0 0 0 0 0 0 62 0 0 0 0 0 0 0 0 0 0 0 0 0 0 0 0 0 0 0 0 0 2114 1551 1540 1540 1540
      0 0 0 0 0 0 0 0 0 0 0 0 0 0 0 0 0 0 0 0 0 0 0 0 0 0 0 0 0 0 0 0 0 0 0 0 0 0 0 0 0 0 0 0 0 0 0 0 0 0 0 0 0 44 3034 0 0 44 44 0 0 0 0 62 2140 2141 2142 2019 2140 2141 2142 2019 2140 2141 2142 2019 2140 2141 2142 2019 2140 2141 2142 2019 2140 2141 2142 2019 2140 2141 2142 2019 2140 61 44 44 44 44 44 44 44 44 44 44 44 44 44 44 44 44 44 0 0 0 0 2114 1551 1540 1540 1540
      0 0 0 0 0 0 0 0 0 0 0 0 0 0 2817 2817 2817 2817 0 0 0 0 0 0 0 0 0 0 0 0 0 0 0 0 0 0 0 0 0 0 0 0 0 0 0 0 0 0 0 0 0 0 44 0 3016 0 2817 2817 2817 2817 0 0 0 61 0 0 0 0 0 0 0 0 0 0 0 0 0 0 0 0 0 0 0 0 0 0 0 0 0 0 0 0 0 62 44 44 83 128 83 44 44 2948 128 2948 44 44 83 128 83 44 44 0 0 0 0 2114 1551 1540 1540 1540
      0 0 0 0 0 0 0 0 0 0 0 0 0 0 0 0 0 0 0 0 0 0 0 0 0 0 0 0 0 0 0 0 0 0 0 0 0 0 0 0 0 0 0 0 0 0 0 0 0 0 0 44 0 0 0 0 0 0 0 0 0 0 0 62 0 0 0 0 0 0 0 0 0 0 0 0 0 0 0 0 0 0 0 0 0 0 0 0 0 0 0 0 0 61 44 44 44 44 44 44 44 44 44 44 44 44 44 44 44 44 44 0 0 0 0 2114 1551 1540 1540 1540
      0 0 0 0 0 0 0 0 0 0 0 0 0 0 0 0 0 0 0 0 0 0 0 0 0 0 0 0 0 0 0 0 0 0 0 0 0 0 0 0 0 0 0 0 0 0 0 0 0 0 44 0 0 0 0 0 0 0 0 0 0 0 0 61 0 0 0 0 0 0 0 0 0 0 0 0 0 0 0 0 0 0 0 0 0 0 0 0 0 0 0 0 0 62 44 44 44 44 44 44 44 44 44 44 44 44 44 44 44 44 44 0 0 0 0 2114 1551 1540 1540 1540
      0 0 0 0 0 0 0 0 0 0 0 0 0 0 0 0 0 0 0 0 0 0 0 0 0 0 0 0 0 0 0 0 0 0 0 0 0 0 0 0 0 0 0 0 0 0 44 44 44 44 0 0 0 0 0 0 0 0 0 0 0 0 0 62 0 0 0 0 0 0 0 0 0 0 0 2085 2086 0 0 0 0 0 0 0 0 0 0 0 0 0 0 0 0 61 44 44 44 44 44 44 44 44 44 44 44 44 44 44 44 44 44 2820 2819 2820 2819 1551 1540 1540 1540 1540
      0 0 0 0 0 0 0 0 2817 2817 2817 2817 0 0 0 0 0 0 0 0 0 0 0 0 0 0 0 0 0 0 0 0 0 0 0 0 0 0 0 0 0 0 0 0 0 0 44 44 44 44 0 0 0 0 0 0 0 0 0 0 0 0 0 61 0 0 0 0 0 0 0 0 0 0 0 2087 2088 0 0 0 0 0 0 0 0 0 0 0 0 0 2818 2818 2818 62 61 62 61 62 61 62 61 62 61 62 61 62 61 62 61 62 61 62 133 133 62 61 62 61 62 61
      0 0 0 0 0 0 0 0 0 0 0 0 0 0 0 0 0 0 0 0 0 0 0 0 0 0 0 0 0 0 0 0 0 0 0 0 0 0 0 0 0 0 0 0 0 0 2817 2817 2817 2817 0 0 0 0 0 0 0 0 0 0 0 0 0 62 0 0 0 0 0 0 0 0 0 0 0 2087 2088 0 0 0 0 0 0 0 0 0 0 0 0 0 2817 2817 2817 133 0 0 0 0 0 0 0 0 0 0 0 0 0 132 0 0 0 0 0 0 0 0 0 0 132 2885
      0 0 2166 2169 0 0 0 0 0 0 0 0 0 0 0 0 0 0 0 0 0 0 0 0 0 0 0 0 0 0 0 0 0 0 0 0 0 0 0 0 0 0 0 0 0 0 0 0 0 0 0 0 0 0 0 0 0 0 0 0 0 0 0 61 0 0 0 0 0 0 0 0 0 0 0 2087 2088 0 0 0 0 0 0 0 0 0 0 62 0 0 0 0 0 133 0 0 0 0 0 0 0 0 0 0 0 0 0 132 0 0 0 0 0 0 0 0 0 0 132 2888
      0 0 2170 2173 0 0 0 0 0 0 0 0 0 0 0 0 0 0 0 0 0 0 0 0 0 0 0 0 0 0 0 0 0 0 0 0 0 0 0 0 0 0 0 0 0 0 0 0 0 0 0 0 0 0 0 0 0 0 0 0 0 0 0 1551 1540 1540 1540 1540 1540 1540 1540 1540 1540 1540 1540 2087 2088 1540 1540 1540 1540 1540 1540 1540 1540 1540 1540 1540 1540 1540 1540 1540 1540 1540 1540 1540 1540 1540 1540 1540 1540 1540 1540 1540 1540 1540 1540 1540 1540 1540 1540 1540 1540 1540 1540 1540 1540 1540 1540 1540
      0 0 2174 2177 0 0 0 0 0 0 0 0 0 0 0 0 0 0 0 0 0 0 0 0 0 0 0 0 0 0 0 0 0 0 0 0 0 0 0 0 0 0 0 0 0 0 0 0 0 0 0 0 0 0 0 0 0 0 0 0 0 0 0 1551 1540 1540 1540 1540 1540 1540 1540 1540 1540 1540 1540 2087 2088 1540 1540 1540 1540 1540 1540 1540 1540 1540 1540 1540 1540 1540 1540 1540 1540 1540 1540 1540 1540 1540 1540 1540 1540 1540 1540 1540 1540 1540 1540 1540 1540 1540 1540 1540 1540 1540 1540 1540 1540 1540 1540 1540
      0 0 2170 2173 0 0 0 0 0 0 0 0 0 0 0 0 0 0 0 0 0 0 0 0 0 0 0 0 0 0 0 0 0 0 0 0 0 0 0 0 0 0 0 0 0 0 0 0 0 0 0 0 0 0 0 0 0 0 0 0 0 0 0 1551 1540 1540 1540 1540 1540 1540 1540 1540 1540 1540 1540 2087 2088 1540 1540 1540 1540 1540 1540 1540 1540 1540 1540 1540 1540 1540 1540 1540 1540 1540 1540 1540 1540 1540 1540 1540 1540 1540 1540 1540 1540 1540 1540 1540 1540 1540 1540 1540 1540 1540 1540 1540 1540 1540 1540 1540
      0 0 2174 2177 0 0 0 0 0 0 0 0 0 0 0 0 0 0 0 0 0 0 0 0 0 0 0 0 0 0 0 0 0 0 0 0 0 0 0 0 0 0 0 0 0 0 0 0 0 0 0 0 0 0 0 0 0 0 0 0 0 0 0 1551 1540 1540 1540 1540 1540 1540 1540 1540 1540 1540 1540 2087 2088 1540 1540 1540 1540 1540 1540 1540 1540 1540 1540 1540 1540 1540 1540 1540 1540 1540 1540 1540 1540 1540 1540 1540 1540 1540 1540 1540 1540 1540 1540 1540 1540 1540 1540 1540 1540 1540 1540 1540 1540 1540 1540 1540
      0 0 2170 2173 0 0 0 0 0 0 0 0 0 0 0 0 0 0 0 0 0 0 0 0 0 0 0 0 0 0 0 0 0 0 0 0 0 0 0 0 0 0 0 0 0 0 0 0 0 0 0 0 0 0 0 0 0 0 0 0 0 0 0 1551 1540 1540 1540 1540 1540 1540 1540 1540 1540 1540 1540 2087 2088 1540 1540 1540 1540 1540 1540 1540 1540 1540 1540 1540 1540 1540 1540 1540 1540 1540 1540 1540 1540 1540 1540 1540 1540 1540 1540 1540 1540 1540 1540 1540 1540 1540 1540 1540 1540 1540 1540 1540 1540 1540 1540 1540
      0 0 2174 2177 0 0 0 0 0 0 0 0 0 0 0 0 0 0 0 0 0 0 0 0 0 0 0 0 0 0 0 0 0 0 0 0 0 0 0 0 0 0 0 0 0 0 0 0 0 0 0 0 0 0 0 0 0 0 0 0 0 0 0 1551 1540 1540 1540 1540 1540 1540 1540 1540 1540 1540 1540 2087 2088 1540 1540 1540 1540 1540 1540 1540 1540 1540 1540 1540 1540 1540 1540 1540 1540 1540 1540 1540 1540 1540 1540 1540 1540 1540 1540 1540 1540 1540 1540 1540 1540 1540 1540 1540 1540 1540 1540 1540 1540 1540 1540 1540
      )
    )
    (tilemap
      (solid #f)
      (z-pos 100)
      (name "Foreground")
      (width 120)
      (height 25)
      (tiles
      0 0 0 0 0 0 0 0 0 0 0 0 0 0 0 0 0 0 0 0 0 0 0 0 0 0 0 0 0 0 0 0 0 0 0 0 0 0 0 0 0 0 0 0 0 0 0 0 0 0 0 0 0 0 0 0 0 0 0 0 0 0 0 0 0 0 0 0 0 0 0 0 0 0 0 0 0 0 0 0 0 0 0 0 0 0 0 0 0 0 0 0 0 0 0 0 0 0 0 0 0 0 0 0 0 0 0 0 0 0 0 0 0 0 0 0 0 0 0 0
      0 0 0 0 0 0 0 0 0 0 0 0 0 0 0 0 0 0 0 0 0 0 0 0 0 0 0 0 0 0 0 0 0 0 0 0 0 0 0 0 0 0 0 0 0 0 0 0 0 0 0 0 0 0 0 0 0 0 0 0 0 0 0 0 0 0 0 0 0 0 0 0 0 0 0 0 0 0 0 0 0 0 0 0 0 0 0 0 0 0 0 0 0 0 0 0 0 0 0 0 0 0 0 0 0 0 0 0 0 0 0 0 0 0 0 0 0 0 0 0
      0 0 0 0 0 0 0 0 0 0 0 0 0 0 0 0 0 0 0 0 0 0 0 0 0 0 0 0 0 0 0 0 0 0 0 0 0 0 0 0 0 0 0 0 0 0 0 0 0 0 0 0 0 0 0 0 0 0 0 0 0 0 0 0 0 0 0 0 0 0 0 0 0 0 0 0 0 0 0 0 0 0 0 0 0 0 0 0 0 0 0 0 0 0 0 0 0 0 0 0 0 0 0 0 0 0 0 0 0 0 0 0 0 0 0 0 0 0 0 0
      0 0 0 0 0 0 0 0 0 0 0 0 0 0 0 0 0 0 0 0 0 0 0 0 0 0 0 0 0 0 0 0 0 0 0 0 0 0 0 0 0 0 0 0 0 0 0 0 0 0 0 0 0 0 0 0 0 0 0 0 0 0 0 0 0 0 0 0 0 0 0 0 0 0 0 0 0 0 0 0 0 0 0 0 0 0 0 0 0 0 0 0 0 0 0 0 0 0 0 0 0 0 0 0 0 0 0 0 0 0 0 0 0 0 0 0 0 0 0 0
      0 0 0 0 0 0 0 0 0 0 0 0 0 0 0 0 0 0 0 0 0 0 0 0 0 0 0 0 0 0 0 0 0 0 0 0 0 0 0 0 0 0 0 0 0 0 0 0 0 0 0 0 0 0 0 0 0 0 0 0 0 0 0 0 0 0 0 0 0 0 0 0 0 0 0 0 0 0 0 0 0 0 0 0 0 0 0 0 0 0 0 0 0 0 0 0 0 0 0 0 0 0 0 0 0 0 0 0 0 0 0 0 0 0 0 0 0 0 0 0
      0 0 0 0 0 0 0 0 0 0 0 0 0 0 0 0 0 0 0 0 0 0 0 0 0 0 0 0 0 0 0 0 0 0 0 0 0 0 0 0 0 0 0 0 0 0 0 0 0 0 0 0 0 0 0 0 0 0 0 0 0 0 0 0 0 0 0 0 0 0 0 0 0 0 0 0 0 0 0 0 0 0 0 0 0 0 0 0 0 0 0 0 0 0 0 0 0 0 0 0 0 0 0 0 0 0 0 0 0 0 0 0 0 0 0 0 0 0 0 0
      0 0 0 0 0 0 0 0 0 0 0 0 0 0 0 0 0 0 0 0 0 0 0 0 0 0 0 0 0 0 0 0 0 0 0 0 0 0 0 0 0 0 0 0 0 0 0 0 0 0 0 0 0 0 0 0 0 0 0 0 0 0 0 0 0 0 0 0 0 0 0 0 0 0 0 0 0 0 0 0 0 0 0 0 0 0 0 0 0 0 0 0 0 0 0 0 0 0 0 0 0 0 0 0 0 0 0 0 0 0 0 0 0 0 0 0 0 0 0 0
      0 0 0 0 0 0 0 0 0 0 0 0 0 0 0 0 0 0 0 0 85 86 87 88 0 0 0 0 0 0 0 0 0 0 0 0 0 0 0 0 0 0 0 0 0 0 0 0 0 0 0 0 0 0 0 0 0 0 0 0 0 0 0 0 0 0 0 0 0 0 0 0 0 0 0 0 0 0 0 0 0 0 0 0 0 0 0 0 0 0 0 0 0 0 0 0 0 0 0 0 0 0 0 0 0 0 0 0 0 0 0 0 0 0 0 0 0 0 0 0
      0 0 0 0 0 0 0 0 0 0 0 0 0 0 0 0 0 0 0 0 89 90 91 92 0 0 0 0 0 0 0 0 0 0 0 0 0 0 0 0 0 0 0 0 0 0 85 86 87 88 0 0 0 0 0 0 0 0 0 0 0 0 0 0 0 0 0 0 0 0 0 0 0 0 0 0 0 0 0 0 0 0 0 0 0 0 0 0 0 0 0 0 0 0 0 0 0 0 0 0 0 0 0 0 0 0 0 0 0 0 0 0 0 0 0 0 0 0 0 0
      0 0 0 0 0 0 0 0 0 0 0 0 0 0 0 0 0 0 0 0 0 0 0 0 0 0 0 0 0 0 0 0 0 0 0 0 0 0 0 0 0 0 0 0 0 0 89 90 91 92 0 0 0 0 0 0 0 0 0 0 0 0 0 0 0 0 0 0 0 0 0 0 0 0 0 0 0 0 0 0 0 0 0 0 0 0 0 0 0 0 0 0 0 0 0 0 0 0 0 0 0 0 0 0 0 0 0 0 0 0 0 0 0 0 0 0 0 0 0 0
      0 0 0 0 0 0 0 0 0 0 0 0 0 0 0 0 0 0 0 0 0 0 0 0 0 0 0 0 0 0 0 0 0 0 0 0 0 0 0 0 0 0 0 0 0 0 0 0 0 0 0 0 0 0 0 0 0 0 0 0 0 0 0 0 0 0 0 0 0 0 0 0 0 0 0 0 0 0 0 0 0 0 0 0 0 0 0 0 0 0 0 0 0 0 0 0 0 0 0 0 0 0 0 0 0 0 0 0 0 0 0 0 0 0 0 0 0 0 0 0
      0 0 0 0 0 0 0 0 0 0 0 0 0 0 85 86 87 88 0 0 0 0 0 0 0 0 0 0 0 0 0 0 0 0 0 0 0 0 0 0 0 0 0 0 0 0 0 0 0 0 0 0 0 0 0 0 85 86 87 88 0 0 0 0 0 0 0 0 0 0 0 0 0 0 0 0 0 0 0 0 0 0 0 0 0 0 0 0 0 0 0 0 0 0 0 0 0 0 0 0 0 0 0 0 0 0 0 0 0 0 0 0 0 0 0 0 0 0 0 0
      0 0 0 0 0 0 0 0 0 0 0 0 0 0 89 90 91 92 0 0 0 0 0 0 0 0 0 0 0 0 0 0 0 0 0 0 0 0 0 0 0 0 0 0 0 0 0 0 0 0 0 0 0 0 0 0 89 90 91 92 0 0 0 0 0 0 0 0 0 0 0 0 0 0 0 0 0 0 0 0 0 0 0 0 0 0 0 0 0 0 0 0 0 0 0 0 0 0 0 0 0 0 0 0 0 0 0 0 0 0 0 0 0 0 0 0 0 0 0 0
      0 0 0 0 0 0 0 0 0 0 0 0 0 0 0 0 0 0 0 0 0 0 0 0 0 0 0 0 0 0 0 0 0 0 0 0 0 0 0 0 0 0 0 0 0 0 0 0 0 0 0 0 0 0 0 0 0 0 0 0 0 0 0 0 0 0 0 0 0 0 0 0 0 0 0 0 0 0 0 0 0 0 0 0 0 0 0 0 0 0 0 0 0 0 0 0 0 0 0 0 0 0 0 0 0 0 0 0 0 0 0 0 0 0 0 0 0 0 0 0
      0 0 0 0 0 0 0 0 0 0 0 0 0 0 0 0 0 0 0 0 0 0 0 0 0 0 0 0 0 0 0 0 0 0 0 0 0 0 0 0 0 0 0 0 0 0 0 0 0 0 0 0 0 0 0 0 0 0 0 0 0 0 0 0 0 0 0 0 0 0 0 0 0 0 0 0 0 0 0 0 0 0 0 0 0 0 0 0 0 0 0 0 0 0 0 0 0 0 0 0 0 0 0 0 0 0 0 0 0 0 0 0 0 0 0 0 0 0 0 0
      0 0 0 0 0 0 0 0 85 86 87 88 0 0 0 0 0 0 0 0 0 0 0 0 0 0 0 0 0 0 0 0 0 0 0 0 0 0 0 0 0 0 0 0 0 0 0 0 0 0 0 0 0 0 0 0 0 0 0 0 0 0 0 0 0 0 0 0 0 0 0 0 0 0 0 0 0 0 0 0 0 0 0 0 0 0 0 0 0 0 0 0 0 0 0 0 0 0 0 0 0 0 0 0 0 0 0 0 0 0 0 0 2085 2086 0 0 0 0 0 0
      0 0 0 0 0 0 0 0 89 90 91 92 0 0 0 0 0 0 0 0 0 85 86 87 88 0 0 0 0 0 0 0 0 0 0 0 0 0 0 0 0 0 0 0 0 0 85 86 87 88 0 0 0 0 0 0 0 0 0 0 0 0 0 0 0 0 0 0 0 0 0 0 0 0 0 0 0 0 0 0 0 0 0 0 0 0 0 0 0 0 0 0 0 0 0 0 0 0 0 0 0 0 0 0 0 0 0 0 0 0 0 0 2087 2088 0 0 0 0 0 0
      0 0 0 0 0 0 0 0 0 0 0 0 0 0 0 0 0 0 0 0 0 89 90 91 92 0 0 0 0 0 0 0 0 0 0 0 0 0 0 0 0 0 0 0 0 0 89 90 91 92 0 0 0 0 0 0 0 0 0 0 0 0 0 0 0 0 0 0 0 0 0 0 0 0 0 0 0 0 0 0 0 0 0 0 0 0 0 0 0 0 2143 2883 2884 2884 2884 2884 2884 2884 2884 2884 2884 2884 2884 2884 2884 2884 2884 2884 2885 2144 2144 2144 2879 2881 2883 2884 2884 2884 2884 2885
      0 0 0 0 0 0 0 0 0 0 0 0 0 0 0 0 0 0 0 0 0 0 0 0 0 0 0 0 0 0 0 0 0 0 0 0 0 0 0 0 0 0 0 0 0 0 0 0 0 0 0 0 0 0 0 0 0 0 0 0 0 0 0 0 0 0 0 0 0 0 0 0 0 0 0 0 0 0 0 0 0 0 0 0 0 0 0 0 0 0 2146 2886 2887 2887 2887 2887 2887 2887 2887 2887 2887 2887 2887 2887 2887 2887 2887 2887 2888 2147 2147 2147 2147 2147 2886 2887 2887 2887 2887 2888
      0 0 0 0 0 0 0 0 0 0 0 0 0 0 0 0 0 0 0 0 0 0 0 0 0 0 0 0 0 0 0 0 0 0 0 0 0 0 0 0 0 0 0 0 0 0 0 0 0 0 0 0 0 0 0 0 0 0 0 0 0 0 0 0 0 0 0 0 0 0 0 0 0 0 0 0 0 0 0 0 0 0 0 0 0 0 0 0 0 0 0 0 0 0 0 0 0 0 0 0 0 0 0 0 0 0 0 0 0 0 0 0 0 0 0 0 0 0 0 0
      0 0 0 0 0 0 0 0 0 0 0 0 0 0 0 0 0 0 0 0 0 0 0 0 0 0 0 0 0 0 0 0 0 0 0 0 0 0 0 0 0 0 0 0 0 0 0 0 0 0 0 0 0 0 0 0 0 0 0 0 0 0 0 0 0 0 0 0 0 0 0 0 0 0 0 0 0 0 0 0 0 0 0 0 0 0 0 0 0 0 0 0 0 0 0 0 0 0 0 0 0 0 0 0 0 0 0 0 0 0 0 0 0 0 0 0 0 0 0 0
      0 0 0 0 0 0 0 0 0 0 0 0 0 0 0 0 0 0 0 0 0 0 0 0 0 0 0 0 0 0 0 0 0 0 0 0 0 0 0 0 0 0 0 0 0 0 0 0 0 0 0 0 0 0 0 0 0 0 0 0 0 0 0 0 0 0 0 0 0 0 0 0 0 0 0 0 0 0 0 0 0 0 0 0 0 0 0 0 0 0 0 0 0 0 0 0 0 0 0 0 0 0 0 0 0 0 0 0 0 0 0 0 0 0 0 0 0 0 0 0
      0 0 0 0 0 0 0 0 0 0 0 0 0 0 0 0 0 0 0 0 0 0 0 0 0 0 0 0 0 0 0 0 0 0 0 0 0 0 0 0 0 0 0 0 0 0 0 0 0 0 0 0 0 0 0 0 0 0 0 0 0 0 0 0 0 0 0 0 0 0 0 0 0 0 0 0 0 0 0 0 0 0 0 0 0 0 0 0 0 0 0 0 0 0 0 0 0 0 0 0 0 0 0 0 0 0 0 0 0 0 0 0 0 0 0 0 0 0 0 0
      0 0 0 0 0 0 0 0 0 0 0 0 0 0 0 0 0 0 0 0 0 0 0 0 0 0 0 0 0 0 0 0 0 0 0 0 0 0 0 0 0 0 0 0 0 0 0 0 0 0 0 0 0 0 0 0 0 0 0 0 0 0 0 0 0 0 0 0 0 0 0 0 0 0 0 0 0 0 0 0 0 0 0 0 0 0 0 0 0 0 0 0 0 0 0 0 0 0 0 0 0 0 0 0 0 0 0 0 0 0 0 0 0 0 0 0 0 0 0 0
      0 0 0 0 0 0 0 0 0 0 0 0 0 0 0 0 0 0 0 0 0 0 0 0 0 0 0 0 0 0 0 0 0 0 0 0 0 0 0 0 0 0 0 0 0 0 0 0 0 0 0 0 0 0 0 0 0 0 0 0 0 0 0 0 0 0 0 0 0 0 0 0 0 0 0 0 0 0 0 0 0 0 0 0 0 0 0 0 0 0 0 0 0 0 0 0 0 0 0 0 0 0 0 0 0 0 0 0 0 0 0 0 0 0 0 0 0 0 0 0
      )
    )
    (tilemap
      (solid #f)
      (z-pos -180)
      (name "white")
      (width 120)
      (height 25)
      (tiles
      98 98 98 98 98 98 98 98 98 98 98 98 98 98 98 98 98 98 98 98 98 98 98 98 98 98 98 98 98 98 98 98 98 98 98 98 98 98 98 98 98 98 98 98 98 98 98 98 98 98 98 98 98 98 98 98 98 98 98 98 98 98 98 98 98 98 98 98 98 98 98 98 98 98 98 98 98 98 98 98 98 98 98 98 98 98 98 98 98 98 98 98 98 98 98 98 98 98 98 98 98 98 98 98 98 98 98 98 98 98 98 98 98 98 98 98 98 98 98 98
      98 98 98 98 98 98 98 98 98 98 98 98 98 98 98 98 98 98 98 98 98 98 98 98 98 98 98 98 98 98 98 98 98 98 98 98 98 98 98 98 98 98 98 98 98 98 98 98 98 98 98 98 98 98 98 98 98 98 98 98 98 98 98 98 98 98 98 98 98 98 98 98 98 98 98 98 98 98 98 98 98 98 98 98 98 98 98 98 98 98 98 98 98 98 98 98 98 98 98 98 98 98 98 98 98 98 98 98 98 98 98 98 98 98 98 98 98 98 98 98
      98 98 98 98 98 98 98 98 98 98 98 98 98 98 98 98 98 98 98 98 98 98 98 98 98 98 98 98 98 98 98 98 98 98 98 98 98 98 98 98 98 98 98 98 98 98 98 98 98 98 98 98 98 98 98 98 98 98 98 98 98 98 98 98 98 98 98 98 98 98 98 98 98 98 98 98 98 98 98 98 98 98 98 98 98 98 98 98 98 98 98 98 98 98 98 98 98 98 98 98 98 98 98 98 98 98 98 98 98 98 98 98 98 98 98 98 98 98 98 98
      98 98 98 98 98 98 98 98 98 98 98 98 98 98 98 98 98 98 98 98 98 98 98 98 98 98 98 98 98 98 98 98 98 98 98 98 98 98 98 98 98 98 98 98 98 98 98 98 98 98 98 98 98 98 98 98 98 98 98 98 98 98 98 98 98 98 98 98 98 98 98 98 98 98 98 98 98 98 98 98 98 98 98 98 98 98 98 98 98 98 98 98 98 98 98 98 98 98 98 98 98 98 98 98 98 98 98 98 98 98 98 98 98 98 98 98 98 98 98 98
      98 98 98 98 98 98 98 98 98 98 98 98 98 98 98 98 98 98 98 98 98 98 98 98 98 98 98 98 98 98 98 98 98 98 98 98 98 98 98 98 98 98 98 98 98 98 98 98 98 98 98 98 98 98 98 98 98 98 98 98 98 98 98 98 98 98 98 98 98 98 98 98 98 98 98 98 98 98 98 98 98 98 98 98 98 98 98 98 98 98 98 98 98 98 98 98 98 98 98 98 98 98 98 98 98 98 98 98 98 98 98 98 98 98 98 98 98 98 98 98
      98 98 98 98 98 98 98 98 98 98 98 98 98 98 98 98 98 98 98 98 98 98 98 98 98 98 98 98 98 98 98 98 98 98 98 98 98 98 98 98 98 98 98 98 98 98 98 98 98 98 98 98 98 98 98 98 98 98 98 98 98 98 98 98 98 98 98 98 98 98 98 98 98 98 98 98 98 98 98 98 98 98 98 98 98 98 98 98 98 98 98 98 98 98 98 98 98 98 98 98 98 98 98 98 98 98 98 98 98 98 98 98 98 98 98 98 98 98 98 98
      98 98 98 98 98 98 98 98 98 98 98 98 98 98 98 98 98 98 98 98 98 98 98 98 98 98 98 98 98 98 98 98 98 98 98 98 98 98 98 98 98 98 98 98 98 98 98 98 98 98 98 98 98 98 98 98 98 98 98 98 98 98 98 98 98 98 98 98 98 98 98 98 98 98 98 98 98 98 98 98 98 98 98 98 98 98 98 98 98 98 98 98 98 98 98 98 98 98 98 98 98 98 98 98 98 98 98 98 98 98 98 98 98 98 98 98 98 98 98 98
      98 98 98 98 98 98 98 98 98 98 98 98 98 98 98 98 98 98 98 98 98 98 98 98 98 98 98 98 98 98 98 98 98 98 98 98 98 98 98 98 98 98 98 98 98 98 98 98 98 98 98 98 98 98 98 98 98 98 98 98 98 98 98 98 98 98 98 98 98 98 98 98 98 98 98 98 98 98 98 98 98 98 98 98 98 98 98 98 98 98 98 98 98 98 98 98 98 98 98 98 98 98 98 98 98 98 98 98 98 98 98 98 98 98 98 98 98 98 98 98
      98 98 98 98 98 98 98 98 98 98 98 98 98 98 98 98 98 98 98 98 98 98 98 98 98 98 98 98 98 98 98 98 98 98 98 98 98 98 98 98 98 98 98 98 98 98 98 98 98 98 98 98 98 98 98 98 98 98 98 98 98 98 98 98 98 98 98 98 98 98 98 98 98 98 98 98 98 98 98 98 98 98 98 98 98 98 98 98 98 98 98 98 98 98 98 98 98 98 98 98 98 98 98 98 98 98 98 98 98 98 98 98 98 98 98 98 98 98 98 98
      98 98 98 98 98 98 98 98 98 98 98 98 98 98 98 98 98 98 98 98 98 98 98 98 98 98 98 98 98 98 98 98 98 98 98 98 98 98 98 98 98 98 98 98 98 98 98 98 98 98 98 98 98 98 98 98 98 98 98 98 98 98 98 98 98 98 98 98 98 98 98 98 98 98 98 98 98 98 98 98 98 98 98 98 98 98 98 98 98 98 98 98 98 98 98 98 98 98 98 98 98 98 98 98 98 98 98 98 98 98 98 98 98 98 98 98 98 98 98 98
      98 98 98 98 98 98 98 98 98 98 98 98 98 98 98 98 98 98 98 98 98 98 98 98 98 98 98 98 98 98 98 98 98 98 98 98 98 98 98 98 98 98 98 98 98 98 98 98 98 98 98 98 98 98 98 98 98 98 98 98 98 98 98 98 98 98 98 98 98 98 98 98 98 98 98 98 98 98 98 98 98 98 98 98 98 98 98 98 98 98 98 98 98 98 98 98 98 98 98 98 98 98 98 98 98 98 98 98 98 98 98 98 98 98 98 98 98 98 98 98
      98 98 98 98 98 98 98 98 98 98 98 98 98 98 98 98 98 98 98 98 98 98 98 98 98 98 98 98 98 98 98 98 98 98 98 98 98 98 98 98 98 98 98 98 98 98 98 98 98 98 98 98 98 98 98 98 98 98 98 98 98 98 98 98 98 98 98 98 98 98 98 98 98 98 98 98 98 98 98 98 98 98 98 98 98 98 98 98 98 98 98 98 98 98 98 98 98 98 98 98 98 98 98 98 98 98 98 98 98 98 98 98 98 98 98 98 98 98 98 98
      98 98 98 98 98 98 98 98 98 98 98 98 98 98 98 98 98 98 98 98 98 98 98 98 98 98 98 98 98 98 98 98 98 98 98 98 98 98 98 98 98 98 98 98 98 98 98 98 98 98 98 98 98 98 98 98 98 98 98 98 98 98 98 98 98 98 98 98 98 98 98 98 98 98 98 98 98 98 98 98 98 98 98 98 98 98 98 98 98 98 98 98 98 98 98 98 98 98 98 98 98 98 98 98 98 98 98 98 98 98 98 98 98 98 98 98 98 98 98 98
      98 98 98 98 98 98 98 98 98 98 98 98 98 98 98 98 98 98 98 98 98 98 98 98 98 98 98 98 98 98 98 98 98 98 98 98 98 98 98 98 98 98 98 98 98 98 98 98 98 98 98 98 98 98 98 98 98 98 98 98 98 98 98 98 98 98 98 98 98 98 98 98 98 98 98 98 98 98 98 98 98 98 98 98 98 98 98 98 98 98 98 98 98 98 98 98 98 98 98 98 98 98 98 98 98 98 98 98 98 98 98 98 98 98 98 98 98 98 98 98
      98 98 98 98 98 98 98 98 98 98 98 98 98 98 98 98 98 98 98 98 98 98 98 98 98 98 98 98 98 98 98 98 98 98 98 98 98 98 98 98 98 98 98 98 98 98 98 98 98 98 98 98 98 98 98 98 98 98 98 98 98 98 98 98 98 98 98 98 98 98 98 98 98 98 98 98 98 98 98 98 98 98 98 98 98 98 98 98 98 98 98 98 98 98 98 98 98 98 98 98 98 98 98 98 98 98 98 98 98 98 98 98 98 98 98 98 98 98 98 98
      98 98 98 98 98 98 98 98 98 98 98 98 98 98 98 98 98 98 98 98 98 98 98 98 98 98 98 98 98 98 98 98 98 98 98 98 98 98 98 98 98 98 98 98 98 98 98 98 98 98 98 98 98 98 98 98 98 98 98 98 98 98 98 98 98 98 98 98 98 98 98 98 98 98 98 98 98 98 98 98 98 98 98 98 98 98 98 98 98 98 98 98 98 98 98 98 98 98 98 98 98 98 98 98 98 98 98 98 98 98 98 98 98 98 98 98 98 98 98 98
      98 98 98 98 98 98 98 98 98 98 98 98 98 98 98 98 98 98 98 98 98 98 98 98 98 98 98 98 98 98 98 98 98 98 98 98 98 98 98 98 98 98 98 98 98 98 98 98 98 98 98 98 98 98 98 98 98 98 98 98 98 98 98 98 98 98 98 98 98 98 98 98 98 98 98 98 98 98 98 98 98 98 98 98 98 98 98 98 98 98 98 98 98 98 98 98 98 98 98 98 98 98 98 98 98 98 98 98 98 98 98 98 98 98 98 98 98 98 98 98
      98 98 98 98 98 98 98 98 98 98 98 98 98 98 98 98 98 98 98 98 98 98 98 98 98 98 98 98 98 98 98 98 98 98 98 98 98 98 98 98 98 98 98 98 98 98 98 98 98 98 98 98 98 98 98 98 98 98 98 98 98 98 98 98 98 98 98 98 98 98 98 98 98 98 98 98 98 98 98 98 98 98 98 98 98 98 98 98 98 98 98 98 98 98 98 98 98 98 98 98 98 98 98 98 98 98 98 98 98 98 98 98 98 98 98 98 98 98 98 98
      98 98 98 98 98 98 98 98 98 98 98 98 98 98 98 98 98 98 98 98 98 98 98 98 98 98 98 98 98 98 98 98 98 98 98 98 98 98 98 98 98 98 98 98 98 98 98 98 98 98 98 98 98 98 98 98 98 98 98 98 98 98 98 98 98 98 98 98 98 98 98 98 98 98 98 98 98 98 98 98 98 98 98 98 98 98 98 98 98 98 98 98 98 98 98 98 98 98 98 98 98 98 98 98 98 98 98 98 98 98 98 98 98 98 98 98 98 98 98 98
      98 98 98 98 98 98 98 98 98 98 98 98 98 98 98 98 98 98 98 98 98 98 98 98 98 98 98 98 98 98 98 98 98 98 98 98 98 98 98 98 98 98 98 98 98 98 98 98 98 98 98 98 98 98 98 98 98 98 98 98 98 98 98 98 98 98 98 98 98 98 98 98 98 98 98 98 98 98 98 98 98 98 98 98 98 98 98 98 98 98 98 98 98 98 98 98 98 98 98 98 98 98 98 98 98 98 98 98 98 98 98 98 98 98 98 98 98 98 98 98
      98 98 98 98 98 98 98 98 98 98 98 98 98 98 98 98 98 98 98 98 98 98 98 98 98 98 98 98 98 98 98 98 98 98 98 98 98 98 98 98 98 98 98 98 98 98 98 98 98 98 98 98 98 98 98 98 98 98 98 98 98 98 98 98 98 98 98 98 98 98 98 98 98 98 98 98 98 98 98 98 98 98 98 98 98 98 98 98 98 98 98 98 98 98 98 98 98 98 98 98 98 98 98 98 98 98 98 98 98 98 98 98 98 98 98 98 98 98 98 98
      98 98 98 98 98 98 98 98 98 98 98 98 98 98 98 98 98 98 98 98 98 98 98 98 98 98 98 98 98 98 98 98 98 98 98 98 98 98 98 98 98 98 98 98 98 98 98 98 98 98 98 98 98 98 98 98 98 98 98 98 98 98 98 98 98 98 98 98 98 98 98 98 98 98 98 98 98 98 98 98 98 98 98 98 98 98 98 98 98 98 98 98 98 98 98 98 98 98 98 98 98 98 98 98 98 98 98 98 98 98 98 98 98 98 98 98 98 98 98 98
      98 98 98 98 98 98 98 98 98 98 98 98 98 98 98 98 98 98 98 98 98 98 98 98 98 98 98 98 98 98 98 98 98 98 98 98 98 98 98 98 98 98 98 98 98 98 98 98 98 98 98 98 98 98 98 98 98 98 98 98 98 98 98 98 98 98 98 98 98 98 98 98 98 98 98 98 98 98 98 98 98 98 98 98 98 98 98 98 98 98 98 98 98 98 98 98 98 98 98 98 98 98 98 98 98 98 98 98 98 98 98 98 98 98 98 98 98 98 98 98
      98 98 98 98 98 98 98 98 98 98 98 98 98 98 98 98 98 98 98 98 98 98 98 98 98 98 98 98 98 98 98 98 98 98 98 98 98 98 98 98 98 98 98 98 98 98 98 98 98 98 98 98 98 98 98 98 98 98 98 98 98 98 98 98 98 98 98 98 98 98 98 98 98 98 98 98 98 98 98 98 98 98 98 98 98 98 98 98 98 98 98 98 98 98 98 98 98 98 98 98 98 98 98 98 98 98 98 98 98 98 98 98 98 98 98 98 98 98 98 98
      98 98 98 98 98 98 98 98 98 98 98 98 98 98 98 98 98 98 98 98 98 98 98 98 98 98 98 98 98 98 98 98 98 98 98 98 98 98 98 98 98 98 98 98 98 98 98 98 98 98 98 98 98 98 98 98 98 98 98 98 98 98 98 98 98 98 98 98 98 98 98 98 98 98 98 98 98 98 98 98 98 98 98 98 98 98 98 98 98 98 98 98 98 98 98 98 98 98 98 98 98 98 98 98 98 98 98 98 98 98 98 98 98 98 98 98 98 98 98 98
      )
    )
    (tilemap
      (solid #f)
      (alpha 0.4)
      (z-pos -170)
      (name "ice")
      (width 120)
      (height 25)
      (tiles
      2406 2406 2406 2406 2406 2406 2406 2406 2406 2406 2406 2406 2406 2406 2406 2406 2406 2406 2406 2406 2406 2406 2406 2406 2406 2406 2406 2406 2406 2406 2406 2406 2406 2406 2406 2406 2406 2406 2406 2406 2406 2406 2406 2406 2406 2406 2406 2406 2406 2406 2406 2406 2406 2406 2406 2406 2406 2406 2406 2406 2406 2406 2406 2406 2406 2406 2406 2406 2406 2406 2406 2406 2406 2406 2406 2406 2406 2406 2406 2406 2406 2406 2406 2406 2406 2406 2406 2406 2406 2406 2406 2406 2406 2406 2406 2406 2406 2406 2406 2406 2406 2406 2406 2406 2406 2406 2406 2406 2406 2406 2406 2406 2406 2406 2406 2406 2406 2406 2406 2406
      2406 2406 2406 2406 2406 2406 2406 2406 2406 2406 2406 2406 2406 2406 2406 2406 2406 2406 2406 2406 2406 2406 2406 2406 2406 2406 2406 2406 2406 2406 2406 2406 2406 2406 2406 2406 2406 2406 2406 2406 2406 2406 2406 2406 2406 2406 2406 2406 2406 2406 2406 2406 2406 2406 2406 2406 2406 2406 2406 2406 2406 2406 2406 2406 2406 2406 2406 2406 2406 2406 2406 2406 2406 2406 2406 2406 2406 2406 2406 2406 2406 2406 2406 2406 2406 2406 2406 2406 2406 2406 2406 2406 2406 2406 2406 2406 2406 2406 2406 2406 2406 2406 2406 2406 2406 2406 2406 2406 2406 2406 2406 2406 2406 2406 2406 2406 2406 2406 2406 2406
      2406 2406 2406 2406 2406 2406 2406 2406 2406 2406 2406 2406 2406 2406 2406 2406 2406 2406 2406 2406 2406 2406 2406 2406 2406 2406 2406 2406 2406 2406 2406 2406 2406 2406 2406 2406 2406 2406 2406 2406 2406 2406 2406 2406 2406 2406 2406 2406 2406 2406 2406 2406 2406 2406 2406 2406 2406 2406 2406 2406 2406 2406 2406 2406 2406 2406 2406 2406 2406 2406 2406 2406 2406 2406 2406 2406 2406 2406 2406 2406 2406 2406 2406 2406 2406 2406 2406 2406 2406 2406 2406 2406 2406 2406 2406 2406 2406 2406 2406 2406 2406 2406 2406 2406 2406 2406 2406 2406 2406 2406 2406 2406 2406 2406 2406 2406 2406 2406 2406 2406
      2406 2406 2406 2406 2406 2406 2406 2406 2406 2406 2406 2406 2406 2406 2406 2406 2406 2406 2406 2406 2406 2406 2406 2406 2406 2406 2406 2406 2406 2406 2406 2406 2406 2406 2406 2406 2406 2406 2406 2406 2406 2406 2406 2406 2406 2406 2406 2406 2406 2406 2406 2406 2406 2406 2406 2406 2406 2406 2406 2406 2406 2406 2406 2406 2406 2406 2406 2406 2406 2406 2406 2406 2406 2406 2406 2406 2406 2406 2406 2406 2406 2406 2406 2406 2406 2406 2406 2406 2406 2406 2406 2406 2406 2406 2406 2406 2406 2406 2406 2406 2406 2406 2406 2406 2406 2406 2406 2406 2406 2406 2406 2406 2406 2406 2406 2406 2406 2406 2406 2406
      2406 2406 2406 2406 2406 2406 2406 2406 2406 2406 2406 2406 2406 2406 2406 2406 2406 2406 2406 2406 2406 2406 2406 2406 2406 2406 2406 2406 2406 2406 2406 2406 2406 2406 2406 2406 2406 2406 2406 2406 2406 2406 2406 2406 2406 2406 2406 2406 2406 2406 2406 2406 2406 2406 2406 2406 2406 2406 2406 2406 2406 2406 2406 2406 2406 2406 2406 2406 2406 2406 2406 2406 2406 2406 2406 2406 2406 2406 2406 2406 2406 2406 2406 2406 2406 2406 2406 2406 2406 2406 2406 2406 2406 2406 2406 2406 2406 2406 2406 2406 2406 2406 2406 2406 2406 2406 2406 2406 2406 2406 2406 2406 2406 2406 2406 2406 2406 2406 2406 2406
      2406 2406 2406 2406 2406 2406 2406 2406 2406 2406 2406 2406 2406 2406 2406 2406 2406 2406 2406 2406 2406 2406 2406 2406 2406 2406 2406 2406 2406 2406 2406 2406 2406 2406 2406 2406 2406 2406 2406 2406 2406 2406 2406 2406 2406 2406 2406 2406 2406 2406 2406 2406 2406 2406 2406 2406 2406 2406 2406 2406 2406 2406 2406 2406 2406 2406 2406 2406 2406 2406 2406 2406 2406 2406 2406 2406 2406 2406 2406 2406 2406 2406 2406 2406 2406 2406 2406 2406 2406 2406 2406 2406 2406 2406 2406 2406 2406 2406 2406 2406 2406 2406 2406 2406 2406 2406 2406 2406 2406 2406 2406 2406 2406 2406 2406 2406 2406 2406 2406 2406
      2406 2406 2406 2406 2406 2406 2406 2406 2406 2406 2406 2406 2406 2406 2406 2406 2406 2406 2406 2406 2406 2406 2406 2406 2406 2406 2406 2406 2406 2406 2406 2406 2406 2406 2406 2406 2406 2406 2406 2406 2406 2406 2406 2406 2406 2406 2406 2406 2406 2406 2406 2406 2406 2406 2406 2406 2406 2406 2406 2406 2406 2406 2406 2406 2406 2406 2406 2406 2406 2406 2406 2406 2406 2406 2406 2406 2406 2406 2406 2406 2406 2406 2406 2406 2406 2406 2406 2406 2406 2406 2406 2406 2406 2406 2406 2406 2406 2406 2406 2406 2406 2406 2406 2406 2406 2406 2406 2406 2406 2406 2406 2406 2406 2406 2406 2406 2406 2406 2406 2406
      2406 2406 2406 2406 2406 2406 2406 2406 2406 2406 2406 2406 2406 2406 2406 2406 2406 2406 2406 2406 2406 2406 2406 2406 2406 2406 2406 2406 2406 2406 2406 2406 2406 2406 2406 2406 2406 2406 2406 2406 2406 2406 2406 2406 2406 2406 2406 2406 2406 2406 2406 2406 2406 2406 2406 2406 2406 2406 2406 2406 2406 2406 2406 2406 2406 2406 2406 2406 2406 2406 2406 2406 2406 2406 2406 2406 2406 2406 2406 2406 2406 2406 2406 2406 2406 2406 2406 2406 2406 2406 2406 2406 2406 2406 2406 2406 2406 2406 2406 2406 2406 2406 2406 2406 2406 2406 2406 2406 2406 2406 2406 2406 2406 2406 2406 2406 2406 2406 2406 2406
      2406 2406 2406 2406 2406 2406 2406 2406 2406 2406 2406 2406 2406 2406 2406 2406 2406 2406 2406 2406 2406 2406 2406 2406 2406 2406 2406 2406 2406 2406 2406 2406 2406 2406 2406 2406 2406 2406 2406 2406 2406 2406 2406 2406 2406 2406 2406 2406 2406 2406 2406 2406 2406 2406 2406 2406 2406 2406 2406 2406 2406 2406 2406 2406 2406 2406 2406 2406 2406 2406 2406 2406 2406 2406 2406 2406 2406 2406 2406 2406 2406 2406 2406 2406 2406 2406 2406 2406 2406 2406 2406 2406 2406 2406 2406 2406 2406 2406 2406 2406 2406 2406 2406 2406 2406 2406 2406 2406 2406 2406 2406 2406 2406 2406 2406 2406 2406 2406 2406 2406
      2406 2406 2406 2406 2406 2406 2406 2406 2406 2406 2406 2406 2406 2406 2406 2406 2406 2406 2406 2406 2406 2406 2406 2406 2406 2406 2406 2406 2406 2406 2406 2406 2406 2406 2406 2406 2406 2406 2406 2406 2406 2406 2406 2406 2406 2406 2406 2406 2406 2406 2406 2406 2406 2406 2406 2406 2406 2406 2406 2406 2406 2406 2406 2406 2406 2406 2406 2406 2406 2406 2406 2406 2406 2406 2406 2406 2406 2406 2406 2406 2406 2406 2406 2406 2406 2406 2406 2406 2406 2406 2406 2406 2406 2406 2406 2406 2406 2406 2406 2406 2406 2406 2406 2406 2406 2406 2406 2406 2406 2406 2406 2406 2406 2406 2406 2406 2406 2406 2406 2406
      2406 2406 2406 2406 2406 2406 2406 2406 2406 2406 2406 2406 2406 2406 2406 2406 2406 2406 2406 2406 2406 2406 2406 2406 2406 2406 2406 2406 2406 2406 2406 2406 2406 2406 2406 2406 2406 2406 2406 2406 2406 2406 2406 2406 2406 2406 2406 2406 2406 2406 2406 2406 2406 2406 2406 2406 2406 2406 2406 2406 2406 2406 2406 2406 2406 2406 2406 2406 2406 2406 2406 2406 2406 2406 2406 2406 2406 2406 2406 2406 2406 2406 2406 2406 2406 2406 2406 2406 2406 2406 2406 2406 2406 2406 2406 2406 2406 2406 2406 2406 2406 2406 2406 2406 2406 2406 2406 2406 2406 2406 2406 2406 2406 2406 2406 2406 2406 2406 2406 2406
      2406 2406 2406 2406 2406 2406 2406 2406 2406 2406 2406 2406 2406 2406 2406 2406 2406 2406 2406 2406 2406 2406 2406 2406 2406 2406 2406 2406 2406 2406 2406 2406 2406 2406 2406 2406 2406 2406 2406 2406 2406 2406 2406 2406 2406 2406 2406 2406 2406 2406 2406 2406 2406 2406 2406 2406 2406 2406 2406 2406 2406 2406 2406 2406 2406 2406 2406 2406 2406 2406 2406 2406 2406 2406 2406 2406 2406 2406 2406 2406 2406 2406 2406 2406 2406 2406 2406 2406 2406 2406 2406 2406 2406 2406 2406 2406 2406 2406 2406 2406 2406 2406 2406 2406 2406 2406 2406 2406 2406 2406 2406 2406 2406 2406 2406 2406 2406 2406 2406 2406
      2406 2406 2406 2406 2406 2406 2406 2406 2406 2406 2406 2406 2406 2406 2406 2406 2406 2406 2406 2406 2406 2406 2406 2406 2406 2406 2406 2406 2406 2406 2406 2406 2406 2406 2406 2406 2406 2406 2406 2406 2406 2406 2406 2406 2406 2406 2406 2406 2406 2406 2406 2406 2406 2406 2406 2406 2406 2406 2406 2406 2406 2406 2406 2406 2406 2406 2406 2406 2406 2406 2406 2406 2406 2406 2406 2406 2406 2406 2406 2406 2406 2406 2406 2406 2406 2406 2406 2406 2406 2406 2406 2406 2406 2406 2406 2406 2406 2406 2406 2406 2406 2406 2406 2406 2406 2406 2406 2406 2406 2406 2406 2406 2406 2406 2406 2406 2406 2406 2406 2406
      2406 2406 2406 2406 2406 2406 2406 2406 2406 2406 2406 2406 2406 2406 2406 2406 2406 2406 2406 2406 2406 2406 2406 2406 2406 2406 2406 2406 2406 2406 2406 2406 2406 2406 2406 2406 2406 2406 2406 2406 2406 2406 2406 2406 2406 2406 2406 2406 2406 2406 2406 2406 2406 2406 2406 2406 2406 2406 2406 2406 2406 2406 2406 2406 2406 2406 2406 2406 2406 2406 2406 2406 2406 2406 2406 2406 2406 2406 2406 2406 2406 2406 2406 2406 2406 2406 2406 2406 2406 2406 2406 2406 2406 2406 2406 2406 2406 2406 2406 2406 2406 2406 2406 2406 2406 2406 2406 2406 2406 2406 2406 2406 2406 2406 2406 2406 2406 2406 2406 2406
      2406 2406 2406 2406 2406 2406 2406 2406 2406 2406 2406 2406 2406 2406 2406 2406 2406 2406 2406 2406 2406 2406 2406 2406 2406 2406 2406 2406 2406 2406 2406 2406 2406 2406 2406 2406 2406 2406 2406 2406 2406 2406 2406 2406 2406 2406 2406 2406 2406 2406 2406 2406 2406 2406 2406 2406 2406 2406 2406 2406 2406 2406 2406 2406 2406 2406 2406 2406 2406 2406 2406 2406 2406 2406 2406 2406 2406 2406 2406 2406 2406 2406 2406 2406 2406 2406 2406 2406 2406 2406 2406 2406 2406 2406 2406 2406 2406 2406 2406 2406 2406 2406 2406 2406 2406 2406 2406 2406 2406 2406 2406 2406 2406 2406 2406 2406 2406 2406 2406 2406
      2406 2406 2406 2406 2406 2406 2406 2406 2406 2406 2406 2406 2406 2406 2406 2406 2406 2406 2406 2406 2406 2406 2406 2406 2406 2406 2406 2406 2406 2406 2406 2406 2406 2406 2406 2406 2406 2406 2406 2406 2406 2406 2406 2406 2406 2406 2406 2406 2406 2406 2406 2406 2406 2406 2406 2406 2406 2406 2406 2406 2406 2406 2406 2406 2406 2406 2406 2406 2406 2406 2406 2406 2406 2406 2406 2406 2406 2406 2406 2406 2406 2406 2406 2406 2406 2406 2406 2406 2406 2406 2406 2406 2406 2406 2406 2406 2406 2406 2406 2406 2406 2406 2406 2406 2406 2406 2406 2406 2406 2406 2406 2406 2406 2406 2406 2406 2406 2406 2406 2406
      2406 2406 2406 2406 2406 2406 2406 2406 2406 2406 2406 2406 2406 2406 2406 2406 2406 2406 2406 2406 2406 2406 2406 2406 2406 2406 2406 2406 2406 2406 2406 2406 2406 2406 2406 2406 2406 2406 2406 2406 2406 2406 2406 2406 2406 2406 2406 2406 2406 2406 2406 2406 2406 2406 2406 2406 2406 2406 2406 2406 2406 2406 2406 2406 2406 2406 2406 2406 2406 2406 2406 2406 2406 2406 2406 2406 2406 2406 2406 2406 2406 2406 2406 2406 2406 2406 2406 2406 2406 2406 2406 2406 2406 2406 2406 2406 2406 2406 2406 2406 2406 2406 2406 2406 2406 2406 2406 2406 2406 2406 2406 2406 2406 2406 2406 2406 2406 2406 2406 2406
      2406 2406 2406 2406 2406 2406 2406 2406 2406 2406 2406 2406 2406 2406 2406 2406 2406 2406 2406 2406 2406 2406 2406 2406 2406 2406 2406 2406 2406 2406 2406 2406 2406 2406 2406 2406 2406 2406 2406 2406 2406 2406 2406 2406 2406 2406 2406 2406 2406 2406 2406 2406 2406 2406 2406 2406 2406 2406 2406 2406 2406 2406 2406 2406 2406 2406 2406 2406 2406 2406 2406 2406 2406 2406 2406 2406 2406 2406 2406 2406 2406 2406 2406 2406 2406 2406 2406 2406 2406 2406 2406 2406 2406 2406 2406 2406 2406 2406 2406 2406 2406 2406 2406 2406 2406 2406 2406 2406 2406 2406 2406 2406 2406 2406 2406 2406 2406 2406 2406 2406
      2406 2406 2406 2406 2406 2406 2406 2406 2406 2406 2406 2406 2406 2406 2406 2406 2406 2406 2406 2406 2406 2406 2406 2406 2406 2406 2406 2406 2406 2406 2406 2406 2406 2406 2406 2406 2406 2406 2406 2406 2406 2406 2406 2406 2406 2406 2406 2406 2406 2406 2406 2406 2406 2406 2406 2406 2406 2406 2406 2406 2406 2406 2406 2406 2406 2406 2406 2406 2406 2406 2406 2406 2406 2406 2406 2406 2406 2406 2406 2406 2406 2406 2406 2406 2406 2406 2406 2406 2406 2406 2406 2406 2406 2406 2406 2406 2406 2406 2406 2406 2406 2406 2406 2406 2406 2406 2406 2406 2406 2406 2406 2406 2406 2406 2406 2406 2406 2406 2406 2406
      2406 2406 2406 2406 2406 2406 2406 2406 2406 2406 2406 2406 2406 2406 2406 2406 2406 2406 2406 2406 2406 2406 2406 2406 2406 2406 2406 2406 2406 2406 2406 2406 2406 2406 2406 2406 2406 2406 2406 2406 2406 2406 2406 2406 2406 2406 2406 2406 2406 2406 2406 2406 2406 2406 2406 2406 2406 2406 2406 2406 2406 2406 2406 2406 2406 2406 2406 2406 2406 2406 2406 2406 2406 2406 2406 2406 2406 2406 2406 2406 2406 2406 2406 2406 2406 2406 2406 2406 2406 2406 2406 2406 2406 2406 2406 2406 2406 2406 2406 2406 2406 2406 2406 2406 2406 2406 2406 2406 2406 2406 2406 2406 2406 2406 2406 2406 2406 2406 2406 2406
      2406 2406 2406 2406 2406 2406 2406 2406 2406 2406 2406 2406 2406 2406 2406 2406 2406 2406 2406 2406 2406 2406 2406 2406 2406 2406 2406 2406 2406 2406 2406 2406 2406 2406 2406 2406 2406 2406 2406 2406 2406 2406 2406 2406 2406 2406 2406 2406 2406 2406 2406 2406 2406 2406 2406 2406 2406 2406 2406 2406 2406 2406 2406 2406 2406 2406 2406 2406 2406 2406 2406 2406 2406 2406 2406 2406 2406 2406 2406 2406 2406 2406 2406 2406 2406 2406 2406 2406 2406 2406 2406 2406 2406 2406 2406 2406 2406 2406 2406 2406 2406 2406 2406 2406 2406 2406 2406 2406 2406 2406 2406 2406 2406 2406 2406 2406 2406 2406 2406 2406
      2406 2406 2406 2406 2406 2406 2406 2406 2406 2406 2406 2406 2406 2406 2406 2406 2406 2406 2406 2406 2406 2406 2406 2406 2406 2406 2406 2406 2406 2406 2406 2406 2406 2406 2406 2406 2406 2406 2406 2406 2406 2406 2406 2406 2406 2406 2406 2406 2406 2406 2406 2406 2406 2406 2406 2406 2406 2406 2406 2406 2406 2406 2406 2406 2406 2406 2406 2406 2406 2406 2406 2406 2406 2406 2406 2406 2406 2406 2406 2406 2406 2406 2406 2406 2406 2406 2406 2406 2406 2406 2406 2406 2406 2406 2406 2406 2406 2406 2406 2406 2406 2406 2406 2406 2406 2406 2406 2406 2406 2406 2406 2406 2406 2406 2406 2406 2406 2406 2406 2406
      2406 2406 2406 2406 2406 2406 2406 2406 2406 2406 2406 2406 2406 2406 2406 2406 2406 2406 2406 2406 2406 2406 2406 2406 2406 2406 2406 2406 2406 2406 2406 2406 2406 2406 2406 2406 2406 2406 2406 2406 2406 2406 2406 2406 2406 2406 2406 2406 2406 2406 2406 2406 2406 2406 2406 2406 2406 2406 2406 2406 2406 2406 2406 2406 2406 2406 2406 2406 2406 2406 2406 2406 2406 2406 2406 2406 2406 2406 2406 2406 2406 2406 2406 2406 2406 2406 2406 2406 2406 2406 2406 2406 2406 2406 2406 2406 2406 2406 2406 2406 2406 2406 2406 2406 2406 2406 2406 2406 2406 2406 2406 2406 2406 2406 2406 2406 2406 2406 2406 2406
      2406 2406 2406 2406 2406 2406 2406 2406 2406 2406 2406 2406 2406 2406 2406 2406 2406 2406 2406 2406 2406 2406 2406 2406 2406 2406 2406 2406 2406 2406 2406 2406 2406 2406 2406 2406 2406 2406 2406 2406 2406 2406 2406 2406 2406 2406 2406 2406 2406 2406 2406 2406 2406 2406 2406 2406 2406 2406 2406 2406 2406 2406 2406 2406 2406 2406 2406 2406 2406 2406 2406 2406 2406 2406 2406 2406 2406 2406 2406 2406 2406 2406 2406 2406 2406 2406 2406 2406 2406 2406 2406 2406 2406 2406 2406 2406 2406 2406 2406 2406 2406 2406 2406 2406 2406 2406 2406 2406 2406 2406 2406 2406 2406 2406 2406 2406 2406 2406 2406 2406
      2406 2406 2406 2406 2406 2406 2406 2406 2406 2406 2406 2406 2406 2406 2406 2406 2406 2406 2406 2406 2406 2406 2406 2406 2406 2406 2406 2406 2406 2406 2406 2406 2406 2406 2406 2406 2406 2406 2406 2406 2406 2406 2406 2406 2406 2406 2406 2406 2406 2406 2406 2406 2406 2406 2406 2406 2406 2406 2406 2406 2406 2406 2406 2406 2406 2406 2406 2406 2406 2406 2406 2406 2406 2406 2406 2406 2406 2406 2406 2406 2406 2406 2406 2406 2406 2406 2406 2406 2406 2406 2406 2406 2406 2406 2406 2406 2406 2406 2406 2406 2406 2406 2406 2406 2406 2406 2406 2406 2406 2406 2406 2406 2406 2406 2406 2406 2406 2406 2406 2406
      )
    )
    (tilemap
      (solid #t)
      (z-pos 0)
      (name "drop")
      (path-ref "gen15453436371966302295808")
      (width 4)
      (height 1)
      (tiles
      2817 2817 2817 2817
      )
    )
    (tilemap
      (solid #f)
      (z-pos 105)
      (name "secret")
      (width 120)
      (height 25)
      (tiles
      0 0 0 0 0 0 0 0 0 0 0 0 0 0 0 0 0 0 0 0 0 0 0 0 0 0 0 0 0 0 0 0 0 0 0 0 0 0 0 0 0 0 0 0 0 0 0 0 0 0 0 0 0 0 0 0 0 0 0 0 0 0 0 0 0 0 0 0 0 0 0 0 0 0 0 0 0 0 0 0 0 0 0 0 0 0 0 0 0 0 1551 1540 1540 1540 1540 1540 1540 1540 1540 1540 1540 1540 1540 1540 1540 1540 1540 1540 1540 1540 1540 1540 1540 1540 1540 1540 1540 1540 1540 1540
      0 0 0 0 0 0 0 0 0 0 0 0 0 0 0 0 0 0 0 0 0 0 0 0 0 0 0 0 0 0 0 0 0 0 0 0 0 0 0 0 0 0 0 0 0 0 0 0 0 0 0 0 0 0 0 0 0 0 0 0 0 0 0 0 0 0 0 0 0 0 0 0 0 0 0 0 0 0 0 0 0 0 0 0 0 0 0 0 0 0 1551 1540 1540 1540 1540 1540 1540 1540 1540 1540 1540 1540 1540 1540 1540 1540 1540 1540 1540 1540 1540 1540 1540 1540 1540 1540 1540 1540 1540 1540
      0 0 0 0 0 0 0 0 0 0 0 0 0 0 0 0 0 0 0 0 0 0 0 0 0 0 0 0 0 0 0 0 0 0 0 0 0 0 0 0 0 0 0 0 0 0 0 0 0 0 0 0 0 0 0 0 0 0 0 0 0 0 0 0 0 0 0 0 0 0 0 0 0 0 0 0 0 0 0 0 0 0 0 0 0 0 0 0 0 0 0 0 1551 1540 1540 1540 1540 1540 1540 1540 1540 1540 1540 1540 1540 1540 1540 1540 1540 1540 1540 1540 1540 1540 1540 1540 1540 1540 1540 1540
      0 0 0 0 0 0 0 0 0 0 0 0 0 0 0 0 0 0 0 0 0 0 0 0 0 0 0 0 0 0 0 0 0 0 0 0 0 0 0 0 0 0 0 0 0 0 0 0 0 0 0 0 0 0 0 0 0 0 0 0 0 0 0 0 0 0 0 0 0 0 0 0 0 0 0 0 0 0 0 0 0 0 0 0 0 0 0 0 0 0 0 0 1551 1540 1540 1540 1540 1540 1540 1540 1540 1540 1540 1540 1540 1540 1540 1540 1540 1540 1540 1540 1540 1540 1540 1540 1540 1540 1540 1540
      0 0 0 0 0 0 0 0 0 0 0 0 0 0 0 0 0 0 0 0 0 0 0 0 0 0 0 0 0 0 0 0 0 0 0 0 0 0 0 0 0 0 0 0 0 0 0 0 0 0 0 0 0 0 0 0 0 0 0 0 0 0 0 0 0 0 0 0 0 0 0 0 0 0 0 0 0 0 0 0 0 0 0 0 0 0 0 0 0 0 0 0 0 1551 1540 1540 1540 1540 1540 1540 1540 1540 1540 1540 1540 1540 1540 1540 1540 1540 1540 1540 1540 1540 1540 1540 1540 1540 1540 1540
      0 0 0 0 0 0 0 0 0 0 0 0 0 0 0 0 0 0 0 0 0 0 0 0 0 0 0 0 0 0 0 0 0 0 0 0 0 0 0 0 0 0 0 0 0 0 0 0 0 0 0 0 0 0 0 0 0 0 0 0 0 0 0 0 0 0 0 0 0 0 0 0 0 0 0 0 0 0 0 0 0 0 0 0 0 0 0 0 0 0 0 0 0 1551 1540 1540 1540 1540 1540 1540 1540 1540 1540 1540 1540 1540 1540 1540 1540 1540 1540 1540 1540 1540 1540 1540 1540 1540 1540 1540
      0 0 0 0 0 0 0 0 0 0 0 0 0 0 0 0 0 0 0 0 0 0 0 0 0 0 0 0 0 0 0 0 0 0 0 0 0 0 0 0 0 0 0 0 0 0 0 0 0 0 0 0 0 0 0 0 0 0 0 0 0 0 0 0 0 0 0 0 0 0 0 0 0 0 0 0 0 0 0 0 0 0 0 0 0 0 0 0 0 0 0 0 0 0 1551 1540 1540 1540 1540 1540 1540 1540 1540 1540 1540 1540 1540 1540 1540 1540 1540 1540 1540 1540 1540 1540 1540 1540 1540 1540
      0 0 0 0 0 0 0 0 0 0 0 0 0 0 0 0 0 0 0 0 0 0 0 0 0 0 0 0 0 0 0 0 0 0 0 0 0 0 0 0 0 0 0 0 0 0 0 0 0 0 0 0 0 0 0 0 0 0 0 0 0 0 0 0 0 0 0 0 0 0 0 0 0 0 0 0 0 0 0 0 0 0 0 0 0 0 0 0 0 0 0 0 0 0 1551 1540 1540 1540 1540 1540 1540 1540 1540 1540 1540 1540 1540 1540 1540 1540 1540 1540 1540 1540 1540 1540 1540 1540 1540 1540
      0 0 0 0 0 0 0 0 0 0 0 0 0 0 0 0 0 0 0 0 0 0 0 0 0 0 0 0 0 0 0 0 0 0 0 0 0 0 0 0 0 0 0 0 0 0 0 0 0 0 0 0 0 0 0 0 0 0 0 0 0 0 0 0 0 0 0 0 0 0 0 0 0 0 0 0 0 0 0 0 0 0 0 0 0 0 0 0 0 0 0 0 0 0 1551 1540 1540 1540 1540 1540 1540 1540 1540 1540 1540 1540 1540 1540 1540 1540 1540 1540 1540 1540 1540 1540 1540 1540 1540 1540
      0 0 0 0 0 0 0 0 0 0 0 0 0 0 0 0 0 0 0 0 0 0 0 0 0 0 0 0 0 0 0 0 0 0 0 0 0 0 0 0 0 0 0 0 0 0 0 0 0 0 0 0 0 0 0 0 0 0 0 0 0 0 0 0 0 0 0 0 0 0 0 0 0 0 0 0 0 0 0 0 0 0 0 0 0 0 0 0 0 0 0 0 0 0 1551 1540 1540 1540 1540 1540 1540 1540 1540 1540 1540 1540 1540 1540 1540 1540 1540 1540 1540 1540 1540 1540 1540 1540 1540 1540
      0 0 0 0 0 0 0 0 0 0 0 0 0 0 0 0 0 0 0 0 0 0 0 0 0 0 0 0 0 0 0 0 0 0 0 0 0 0 0 0 0 0 0 0 0 0 0 0 0 0 0 0 0 0 0 0 0 0 0 0 0 0 0 0 0 0 0 0 0 0 0 0 0 0 0 0 0 0 0 0 0 0 0 0 0 0 0 0 0 0 0 0 0 1551 1540 1540 1540 1540 1540 1540 1540 1540 1540 1540 1540 1540 1540 1540 1540 1540 1540 1540 1540 1540 1540 1540 1540 1540 1540 1540
      0 0 0 0 0 0 0 0 0 0 0 0 0 0 0 0 0 0 0 0 0 0 0 0 0 0 0 0 0 0 0 0 0 0 0 0 0 0 0 0 0 0 0 0 0 0 0 0 0 0 0 0 0 0 0 0 0 0 0 0 0 0 0 0 0 0 0 0 0 0 0 0 0 0 0 0 0 0 0 0 0 0 0 0 0 0 0 0 0 0 0 0 0 1551 1540 1540 1540 1540 1540 1540 1540 1540 1540 1540 1540 1540 1540 1540 1540 1540 1540 1540 1540 1540 1540 1540 1540 1540 1540 1540
      0 0 0 0 0 0 0 0 0 0 0 0 0 0 0 0 0 0 0 0 0 0 0 0 0 0 0 0 0 0 0 0 0 0 0 0 0 0 0 0 0 0 0 0 0 0 0 0 0 0 0 0 0 0 0 0 0 0 0 0 0 0 0 0 0 0 0 0 0 0 0 0 0 0 0 0 0 0 0 0 0 0 0 0 0 0 0 0 0 0 0 0 0 1551 1540 1540 1540 1540 1540 1540 1540 1540 1540 1540 1540 1540 1540 1540 1540 1540 1540 1540 1540 1540 1540 1540 1540 1540 1540 1540
      0 0 0 0 0 0 0 0 0 0 0 0 0 0 0 0 0 0 0 0 0 0 0 0 0 0 0 0 0 0 0 0 0 0 0 0 0 0 0 0 0 0 0 0 0 0 0 0 0 0 0 0 0 0 0 0 0 0 0 0 0 0 0 0 0 0 0 0 0 0 0 0 0 0 0 0 0 0 0 0 0 0 0 0 0 0 0 0 0 0 0 0 0 1551 1540 1540 1540 1540 1540 1540 1540 1540 1540 1540 1540 1540 1540 1540 1540 1540 1540 1540 1540 1540 1540 1540 1540 1540 1540 1540
      0 0 0 0 0 0 0 0 0 0 0 0 0 0 0 0 0 0 0 0 0 0 0 0 0 0 0 0 0 0 0 0 0 0 0 0 0 0 0 0 0 0 0 0 0 0 0 0 0 0 0 0 0 0 0 0 0 0 0 0 0 0 0 0 0 0 0 0 0 0 0 0 0 0 0 0 0 0 0 0 0 0 0 0 0 0 0 0 0 0 0 0 0 1551 1540 1540 1540 1540 1540 1540 1540 1540 1540 1540 1540 1540 1540 1540 1540 1540 1540 1540 1540 1540 1540 1540 1540 1540 1540 1540
      0 0 0 0 0 0 0 0 0 0 0 0 0 0 0 0 0 0 0 0 0 0 0 0 0 0 0 0 0 0 0 0 0 0 0 0 0 0 0 0 0 0 0 0 0 0 0 0 0 0 0 0 0 0 0 0 0 0 0 0 0 0 0 0 0 0 0 0 0 0 0 0 0 0 0 0 0 0 0 0 0 0 0 0 0 0 0 0 0 0 0 0 0 1551 1540 1540 1540 1540 1540 1540 1540 1540 1540 1540 1540 1540 1540 1540 1540 1540 1540 1540 1540 1540 1540 1540 1540 1540 1540 1540
      0 0 0 0 0 0 0 0 0 0 0 0 0 0 0 0 0 0 0 0 0 0 0 0 0 0 0 0 0 0 0 0 0 0 0 0 0 0 0 0 0 0 0 0 0 0 0 0 0 0 0 0 0 0 0 0 0 0 0 0 0 0 0 0 0 0 0 0 0 0 0 0 0 0 0 0 0 0 0 0 0 0 0 0 0 0 0 0 0 0 0 0 0 1551 1540 1540 1540 1540 1540 1540 1540 1540 1540 1540 1540 1540 1540 1540 1540 1540 1540 1540 1540 1540 1540 1540 1540 1540 1540 1540
      0 0 0 0 0 0 0 0 0 0 0 0 0 0 0 0 0 0 0 0 0 0 0 0 0 0 0 0 0 0 0 0 0 0 0 0 0 0 0 0 0 0 0 0 0 0 0 0 0 0 0 0 0 0 0 0 0 0 0 0 0 0 0 0 0 0 0 0 0 0 0 0 0 0 0 0 0 0 0 0 0 0 0 0 0 0 0 0 0 0 0 0 0 0 0 0 0 0 0 0 0 0 1551 1540 1540 1540 1540 1540 1540 1540 1540 1540 1540 1540 1540 1540 1540 1540 1540 1540
      0 0 0 0 0 0 0 0 0 0 0 0 0 0 0 0 0 0 0 0 0 0 0 0 0 0 0 0 0 0 0 0 0 0 0 0 0 0 0 0 0 0 0 0 0 0 0 0 0 0 0 0 0 0 0 0 0 0 0 0 0 0 0 0 0 0 0 0 0 0 0 0 0 0 0 0 0 0 0 0 0 0 0 0 0 0 0 0 0 0 0 0 0 0 0 0 0 0 0 0 0 0 1551 1540 1540 1540 1540 1540 1540 1540 1540 1540 1540 1540 1540 1540 1540 1540 1540 1540
      0 0 0 0 0 0 0 0 0 0 0 0 0 0 0 0 0 0 0 0 0 0 0 0 0 0 0 0 0 0 0 0 0 0 0 0 0 0 0 0 0 0 0 0 0 0 0 0 0 0 0 0 0 0 0 0 0 0 0 0 0 0 0 0 0 0 0 0 0 0 0 0 0 0 0 0 0 0 0 0 0 0 0 0 0 0 0 0 0 0 0 0 0 0 0 0 0 0 0 0 0 0 1540 1540 1540 1540 1540 1540 1540 1540 1540 1540 1540 1540 1540 1540 1540 1540 1540 1540
      0 0 0 0 0 0 0 0 0 0 0 0 0 0 0 0 0 0 0 0 0 0 0 0 0 0 0 0 0 0 0 0 0 0 0 0 0 0 0 0 0 0 0 0 0 0 0 0 0 0 0 0 0 0 0 0 0 0 0 0 0 0 0 0 0 0 0 0 0 0 0 0 0 0 0 0 0 0 0 0 0 0 0 0 0 0 0 0 0 0 0 0 0 0 0 0 0 0 0 0 0 0 0 0 0 0 0 0 0 0 0 0 0 0 0 0 0 0 0 0
      0 0 0 0 0 0 0 0 0 0 0 0 0 0 0 0 0 0 0 0 0 0 0 0 0 0 0 0 0 0 0 0 0 0 0 0 0 0 0 0 0 0 0 0 0 0 0 0 0 0 0 0 0 0 0 0 0 0 0 0 0 0 0 0 0 0 0 0 0 0 0 0 0 0 0 0 0 0 0 0 0 0 0 0 0 0 0 0 0 0 0 0 0 0 0 0 0 0 0 0 0 0 0 0 0 0 0 0 0 0 0 0 0 0 0 0 0 0 0 0
      0 0 0 0 0 0 0 0 0 0 0 0 0 0 0 0 0 0 0 0 0 0 0 0 0 0 0 0 0 0 0 0 0 0 0 0 0 0 0 0 0 0 0 0 0 0 0 0 0 0 0 0 0 0 0 0 0 0 0 0 0 0 0 0 0 0 0 0 0 0 0 0 0 0 0 0 0 0 0 0 0 0 0 0 0 0 0 0 0 0 0 0 0 0 0 0 0 0 0 0 0 0 0 0 0 0 0 0 0 0 0 0 0 0 0 0 0 0 0 0
      0 0 0 0 0 0 0 0 0 0 0 0 0 0 0 0 0 0 0 0 0 0 0 0 0 0 0 0 0 0 0 0 0 0 0 0 0 0 0 0 0 0 0 0 0 0 0 0 0 0 0 0 0 0 0 0 0 0 0 0 0 0 0 0 0 0 0 0 0 0 0 0 0 0 0 0 0 0 0 0 0 0 0 0 0 0 0 0 0 0 0 0 0 0 0 0 0 0 0 0 0 0 0 0 0 0 0 0 0 0 0 0 0 0 0 0 0 0 0 0
      0 0 0 0 0 0 0 0 0 0 0 0 0 0 0 0 0 0 0 0 0 0 0 0 0 0 0 0 0 0 0 0 0 0 0 0 0 0 0 0 0 0 0 0 0 0 0 0 0 0 0 0 0 0 0 0 0 0 0 0 0 0 0 0 0 0 0 0 0 0 0 0 0 0 0 0 0 0 0 0 0 0 0 0 0 0 0 0 0 0 0 0 0 0 0 0 0 0 0 0 0 0 0 0 0 0 0 0 0 0 0 0 0 0 0 0 0 0 0 0
      )
    )
    (wind
      (blowing #f)
      (speed-x -400)
      (speed-y 0)
      (acceleration 250)
      (affects-player #t)
      (width 192)
      (height 128)
      (name "blow1")
      (x 640)
      (y 448)
    )
  )
  (tileset "images/adventure_tiles.strf")
)
