(supertux-level
  (version 3)
  (name (_ "Into The Palace"))
  (author "ThomyW")
  (license "CC-BY-SA 4.0 International")
  (allow-item-pocket "inherit")
  (icon "")
  (icon-locked "")
  (statistics
    (enable-coins #t)
    (enable-secrets #t)
  )
  (sector
    (name "main")
    (ambient-light
      (color 1 1 1)
    )
    (background
      (color 1 1 1)
      (scroll-speed-x 0.5)
      (scroll-speed-y 0.5)
      (speed 0.5)
      (image-top "/images/background/bluemountain-top.png")
      (image "/images/background/bluemountain-middle.png")
      (image-bottom "/images/background/bluemountain-bottom.png")
    )
    (background
      (scroll-offset-x 3235.95)
      (scroll-offset-y 315.539)
      (color 1 1 1)
      (speed 0.5)
      (image-top "/images/background/bluemountain/bluemountain-top.png")
      (image "/images/background/bluemountain/bluemountain-top.png")
      (image-bottom "/images/background/bluemountain/bluemountain-top.png")
      (z-pos -310)
    )
    (bonusblock
      (z-pos 51)
      (custom-contents
        (powerup
          (version 2)
          (name "c2")
          (type "flip")
          (z-pos 50)
          (script "block2.start_moving();")
          (sprite "/images/objects/crystals/crystal_2.sprite")
        )
      )
      (contents "custom")
      (x 2592)
      (y 128)
    )
    (bumper
      (z-pos 50)
      (sticky #t)
      (direction "left")
      (x 3696)
      (y 800)
    )
    (bumper
      (z-pos 50)
      (sticky #t)
      (direction "left")
      (x 3696)
      (y 768)
    )
    (bumper
      (z-pos 50)
      (sticky #t)
      (direction "left")
      (x 3696)
      (y 736)
    )
    (bumper
      (z-pos 50)
      (sticky #t)
      (direction "left")
      (x 3696)
      (y 704)
    )
    (bumper
      (z-pos 50)
      (x 3264)
      (y 1024)
    )
    (bumper
      (z-pos 50)
      (x 3264)
      (y 992)
    )
    (bumper
      (z-pos 50)
      (x 3264)
      (y 960)
    )
    (bumper
      (z-pos 50)
      (x 3264)
      (y 928)
    )
    (bumper
      (z-pos 50)
      (x 3264)
      (y 896)
    )
    (bumper
      (z-pos 50)
      (x 3264)
      (y 864)
    )
    (bumper
      (z-pos 50)
      (x 3264)
      (y 832)
    )
    (bumper
      (z-pos 50)
      (x 3264)
      (y 800)
    )
    (bumper
      (z-pos 50)
      (x 3264)
      (y 768)
    )
    (camera
      (name "Camera")
      (mode "normal")
    )
    (coin
      (z-pos 49)
      (x 2650.67)
      (y 338.664)
    )
    (coin
      (z-pos 49)
      (x 2691.33)
      (y 341.33)
    )
    (coin
      (z-pos 49)
      (x 2732.67)
      (y 338.664)
    )
    (crusher
      (z-pos 50)
      (x 2944.664)
      (y 484.6664)
    )
    (crusher
      (type "ice-krosh")
      (z-pos 50)
      (x 3712)
      (y 704)
    )
    (crystallo
      (z-pos 50)
      (glinting #f)
      (direction "left")
      (x 4174)
      (y 1185.66)
    )
    (dispenser
      (z-pos 55)
      (cycle 0.5)
      (objects
        (mrbomb
          (z-pos 50)
          (glinting #f)
        )
      )
      (direction "left")
      (limit-dispensed-badguys #t)
      (max-concurrent-badguys 1)
      (x 2032)
      (y 512)
    )
    (firefly
      (z-pos 0)
      (x 2053.997)
      (y 420.0003)
    )
    (flyingsnowball
      (z-pos 50)
      (x 58.00004)
      (y 629.0005)
      (glinting #f)
    )
    (flyingsnowball
      (z-pos 50)
      (x 210.6667)
      (y 705.3336)
      (glinting #f)
    )
    (flyingsnowball
      (z-pos 50)
      (x 4772)
      (y 1298)
      (glinting #f)
    )
    (haywire
      (z-pos 50)
      (direction "left")
      (x 4202)
      (y 1516.67)
      (glinting #f)
    )
    (hurting_platform
      (z-pos 50)
      (handle
        (scale_x 0)
        (scale_y 0)
        (offset_x 0)
        (offset_y 0)
      )
      (running #f)
      (path-ref "gen1738285385109710700886784")
    )
    (hurting_platform
      (z-pos 50)
      (handle
        (scale_x 0)
        (scale_y 0)
        (offset_x 0)
        (offset_y 0)
      )
      (running #f)
      (path-ref "gen1738285388109710697869584")
    )
    (hurting_platform
      (z-pos 50)
      (handle
        (scale_x 0)
        (scale_y 0)
        (offset_x 0)
        (offset_y 0)
      )
      (running #f)
      (path-ref "gen1738285390109710696719200")
    )
    (infoblock
      (z-pos 51)
      (message (_ "*Find the four hidden gems to unlock the doors!"))
      (x 352)
      (y 704)
    )
    (invisible_wall
      (width 32)
      (height 64)
      (x 3104)
      (y 1568)
    )
    (invisible_wall
      (width 32)
      (height 64)
      (x 4672)
      (y 1568)
    )
    (jumpy
      (z-pos 50)
      (x 566.6666)
      (y 603.3342)
      (glinting #f)
    )
    (music
      (file "/music/antarctic/midday.music")
    )
    (owl
      (z-pos 51)
      (glinting #f)
      (carry "skydive")
      (direction "left")
      (sprite "/images/creatures/owl/owl.sprite")
      (x 4257.33)
      (y 933.6635)
    )
    (path
      (name "gen1738266743109710706441632")
      (path
        (mode "pingpong")
        (adapt_speed #t)
        (node
          (x 2240)
          (y 352)
          (time 5)
        )
        (node
          (x 2240)
          (y 832)
          (time 5)
        )
      )
    )
    (path
      (name "gen1738267282109710700440512")
      (path
        (mode "oneshot")
        (adapt_speed #t)
        (node
          (x 0)
          (y 832)
        )
        (node
          (x 0)
          (y 672)
        )
      )
    )
    (path
      (name "gen1738267599109710700670400")
      (path
        (mode "pingpong")
        (adapt_speed #t)
        (node
          (x 4736)
          (y 1152)
          (time 5)
        )
        (node
          (x 4928)
          (y 1152)
          (speed 5)
        )
      )
    )
    (path
      (name "gen1738268010109710704943552")
      (path
        (mode "pingpong")
        (adapt_speed #t)
        (node
          (x 3584)
          (y 1472)
          (time 5)
        )
        (node
          (x 3584)
          (y 1968)
          (time 5)
        )
      )
    )
    (path
      (name "gen1738268128109710700670656")
      (path
        (adapt_speed #f)
        (node
          (x 2784)
          (y 1056)
        )
        (node
          (x 2784)
          (y 832)
        )
        (node
          (x 3008)
          (y 832)
        )
        (node
          (x 3008)
          (y 1152)
        )
        (node
          (x 3232)
          (y 1152)
        )
        (node
          (x 3232)
          (y 736)
          (time 2)
        )
        (node
          (x 2464)
          (y 736)
        )
        (node
          (x 2464)
          (y 1120)
        )
        (node
          (x 2784)
          (y 1120)
        )
      )
    )
    (path
      (name "gen1738285385109710700886784")
      (path
        (mode "oneshot")
        (adapt_speed #f)
        (node
          (x 3712)
          (y 640)
        )
      )
    )
    (path
      (name "gen1738285388109710697869584")
      (path
        (mode "oneshot")
        (adapt_speed #f)
        (node
          (x 3808)
          (y 640)
        )
      )
    )
    (path
      (name "gen1738285390109710696719200")
      (path
        (mode "oneshot")
        (adapt_speed #f)
        (node
          (x 3760)
          (y 640)
        )
      )
    )
    (path
      (name "gen1738288666109710693409680")
      (path
        (mode "oneshot")
        (adapt_speed #f)
        (node
          (x 16)
          (y 0)
        )
      )
    )
    (platform
      (z-pos -1)
      (handle
        (scale_x 0)
        (scale_y 0)
        (offset_x 0)
        (offset_y 0)
      )
      (running #f)
      (name "block1")
      (path-ref "gen1738266743109710706441632")
      (sprite "/images/objects/platforms/vertical-wood.png")
    )
    (platform
      (z-pos 50)
      (handle
        (scale_x 0)
        (scale_y 0)
        (offset_x 0)
        (offset_y 0)
      )
      (running #f)
      (name "help1")
      (path-ref "gen1738267282109710700440512")
    )
    (platform
      (z-pos 50)
      (handle
        (scale_x 0)
        (scale_y 0)
        (offset_x 0)
        (offset_y 0)
      )
      (running #f)
      (name "block2")
      (path-ref "gen1738267599109710700670400")
      (sprite "/images/objects/platforms/icebridge3.png")
    )
    (platform
      (z-pos -1)
      (handle
        (scale_x 0)
        (scale_y 0)
        (offset_x 0)
        (offset_y 0)
      )
      (running #f)
      (name "block3")
      (path-ref "gen1738268010109710704943552")
      (sprite "/images/objects/platforms/vertical-wood.png")
    )
    (platform
      (z-pos 50)
      (handle
        (scale_x 0)
        (scale_y 0)
        (offset_x 0)
        (offset_y 0)
      )
      (running #f)
      (name "block4")
      (path-ref "gen1738268128109710700670656")
      (sprite "/images/objects/platforms/wood-tiny.sprite")
    )
    (powerup
      (version 2)
      (name "c4")
      (type "flip")
      (z-pos 50)
      (script "block4.start_moving();")
      (disable-physics #t)
      (sprite "/images/objects/crystals/crystal_4.sprite")
      (x 496)
      (y 0)
    )
    (powerup
      (version 2)
      (name "c1")
      (type "flip")
      (z-pos 50)
      (script "block1.start_moving();")
      (disable-physics #t)
      (sprite "/images/objects/crystals/crystal_1.sprite")
      (x 272)
      (y 880)
    )
    (powerup
      (version 2)
      (name "c3")
      (type "flip")
      (z-pos 50)
      (script "block3.start_moving();
Effect.sixteen_to_nine(1);
wait(2);
Tux.deactivate();
Camera.set_mode(\"manual\")
Camera.scroll_to(0,352,0.2);
wait(1);
p.set_alpha(0);
help1.goto_node(1);
wait(2);
Camera.set_mode(\"normal\");
Tux.activate();
Effect.four_to_three(0);")
      (disable-physics #t)
      (sprite "/images/objects/crystals/crystal_3.sprite")
      (x 4176)
      (y 1328)
    )
    (scripttrigger
      (script "Level.spawn(\"chicken\", \"main\");")
      (button #f)
      (width 5.333252)
      (height 87.99994)
      (x 2575.337)
      (y 967.3331)
    )
    (secretarea
      (fade-tilemap "geheiM")
      (width 93.33325)
      (height 32)
      (x 3916.667)
      (y 1374.663)
    )
    (secretarea
      (fade-tilemap "secret1")
      (width 576)
      (height 64)
      (x 256)
      (y 864)
    )
    (skydive
      (z-pos 50)
      (x 4260.664)
      (y 930.3301)
    )
    (skydive
      (z-pos 50)
      (x 4257.329)
      (y 933.664)
    )
    (skydive
      (z-pos 50)
      (x 4257.33)
      (y 933.664)
    )
    (snowball
      (z-pos 50)
      (direction "left")
      (x 400.6664)
      (y 1080)
      (glinting #f)
    )
    (spawnpoint
      (name "main")
      (x 41.33333)
      (y 1053.33)
    )
    (spawnpoint
      (x 3952)
      (y 1456)
    )
    (spawnpoint
      (x 3360)
      (y 928)
    )
    (sspiky
      (z-pos 50)
      (direction "right")
      (x 2851.333)
      (y 1207.667)
      (glinting #f)
    )
    (stalactite
      (glinting #f)
      (z-pos -1)
      (x 2725.337)
      (y 872.6661)
    )
    (stalactite
      (glinting #f)
      (z-pos -3)
      (x 4441.33)
      (y 1472)
    )
    (tilemap
      (solid #f)
      (z-pos -100)
      (width 160)
      (height 50)
      (tiles -1350 0 2185 -18 2199 2186 -140 0 2192 2180 2181 2180 2181 2180 2181 2180 2181 2180 2181 2180 2181 2180 2181 2180 2181 2180 2188 2190 -140 0 2192 2188 2189 2188 2189 2188 2189 2188 2189 2188 2189 2188 2189 2188 2189 2188 2189 -2 2188 2190 -140 0 2192 2195 2196 2195 2196 2195 2181 2195 2196 2195 2196 2195 2196 2195 2196 2195 2196 2195 2188 2190 -140 0 2192 2180 2181 2180 2181 2180 2181 2180 2181 2180 2181 2180 2181 2180 2181 2180 2181 2180 2188 2190 -140 0 2192 2188 2189 -3 2188 2189 2188 2189 2188 2189 2188 2189 2188 2189 2188 2189 2188 2196 2190 -140 0 2192 2195 2196 2195 2196 2195 2196 2195 2196 2195 2196 2195 2196 2195 2196 2195 2196 2195 2188 2190 -141 0 2180 2181 2180 2181 2180 2181 2180 2181 2180 2181 2180 2181 2180 2181 2180 2181 2180 2181 2198 -6 2199 2186 -130 0 -4 2196 2188 2189 2188 2189 2188 2189 2188 2189 2188 2189 2188 2189 2188 2189 2180 2181 2180 2181 2180 2181 2180 2181 2180 2181 2180 2190 -130 0 -2 2179 2060 2061 2060 2196 2195 2196 2195 2196 2195 2196 2195 2196 2195 2196 2195 2196 2188 2189 2188 2189 2188 2189 2188 2189 2188 2189 2188 2190 -63 0 -19 210 125 -47 0 -2 2196 2065 2066 2060 2181 2180 2181 2180 2181 2180 2181 -3 2180 2181 2180 2181 2195 2196 2195 2196 2195 2196 2195 2196 2195 2196 2195 2190 -63 0 -19 210 125 -47 0 -2 2179 2060 2061 2060 2189 2188 2189 2188 2189 2188 2189 2188 2189 2188 2189 2188 -2 2180 2181 2180 2181 2180 2181 2180 2181 2180 2181 2180 2190 -63 0 -19 210 125 -49 0 2065 2066 2060 2196 2195 2196 2195 2196 2195 2196 2195 2196 2195 2196 2195 2196 2188 2189 2188 2189 2188 2189 2188 2189 2188 2189 2188 2190 -63 0 -19 210 125 -49 0 2060 2061 2060 2181 2180 2181 2180 2181 2180 2181 2180 2181 2180 2181 2180 2181 2195 2196 2195 2196 2195 2196 2195 2196 2195 2196 2195 2190 -63 0 -19 210 125 -49 0 2065 2066 2060 2189 2188 2189 2188 2189 2188 2189 2188 2189 2188 2189 2188 2189 2180 2181 2180 2181 2180 2181 2180 2181 2180 2181 2180 2190 -63 0 -19 210 125 -49 0 2060 2061 2060 2196 2195 2196 2195 2196 2195 2196 2195 2196 2195 2196 2195 2196 2188 2189 2188 2189 2188 2189 2188 2189 2188 2189 2188 2198 -4 2199 2186 -58 0 -19 210 125 -31 0 15 -17 0 2065 2066 2060 -13 0 2195 2196 2195 2196 2195 2196 2195 2196 -2 2181 2180 2181 2180 2181 2180 2181 2190 -58 0 -19 1346 1344 -30 0 17 18 -35 0 2180 2181 2180 2181 2180 2181 -2 2189 2188 2189 2188 2189 2188 2189 2190 -145 0 2188 2189 2188 2189 2188 2189 -2 2196 2195 2196 2189 2196 2195 2196 2190 -109 0 8 -14 0 3197 -14 0 2180 2181 2180 2181 2180 2181 2180 2181 2180 2181 2180 -3 2181 2180 2181 2180 2181 2180 2181 2190 -139 0 2188 2189 2188 2189 2188 2189 2188 2189 2180 2181 2180 -3 2189 2188 2189 2188 2189 2188 2189 2190 -84 0 2180 2158 2159 -49 0 2180 2181 2180 2181 2180 2181 2180 2181 -2 2180 2181 2188 2189 2188 2181 -2 2196 2195 2196 2195 2196 2195 2196 2190 -58 0 2060 2061 -2 2060 2061 2060 2061 2060 2061 2060 2061 2060 2061 2060 2061 2060 2059 2181 2180 2181 2180 2181 2180 2181 2180 2181 2188 2160 2161 -49 0 2188 2189 2182 2184 2188 2189 2188 2189 -2 2188 2189 2180 2181 2180 2189 -2 2181 2180 2181 2180 2181 2180 2181 2190 -58 0 2065 2066 -2 2065 2066 2065 2066 2065 2066 2050 -3 2063 2051 2066 2065 2059 2189 2188 2189 2188 2189 2188 2189 2188 2189 2180 2160 2161 -49 0 2180 2181 2190 2192 2180 2181 2180 2181 -2 2180 2181 2180 2181 2180 2181 -2 2189 2188 2189 2188 2189 2188 2189 2190 -58 0 2060 2061 -2 2060 2061 2060 2061 2060 2061 2059 -3 0 2057 2061 2060 2059 2181 2180 2181 2180 2181 2180 2181 2180 2181 2188 2160 2161 -49 0 2188 2189 2190 2192 2188 2189 2188 2189 -2 2188 2189 2188 2189 2188 2189 -2 2196 2195 2196 2195 2196 2195 2189 2190 -43 0 2180 2181 2180 2181 2180 2181 2180 -8 0 2065 2066 -2 2065 2066 2065 2066 2065 2066 2055 -3 2053 2056 2066 2065 2055 2054 2188 2189 2188 2189 2188 2189 2188 2189 2180 -51 0 2180 2181 2180 2181 2180 2181 2180 2181 -2 2180 2181 -3 2180 -3 2181 2180 2181 2180 2181 2180 2181 2198 -5 2199 2186 -37 0 2188 2189 2188 2189 2188 2189 2188 -8 0 2060 2061 -2 2060 2061 2060 2061 2060 2061 2060 2061 2060 2061 2060 2061 2060 2061 2055 2054 2181 0 2181 2180 2181 2180 2181 2188 -60 0 2188 2189 2188 2189 2180 -3 2181 2180 2181 2180 2181 2180 2181 2180 2181 2180 2181 2180 2181 2190 -37 0 2195 2196 2195 2196 2195 2196 2195 -8 0 2065 2066 -2 2065 2066 2065 2066 2065 2066 2065 2066 2065 2066 2065 2066 2065 -72 0 2180 2181 2180 2188 -3 2189 2188 2189 2188 2189 2188 2189 2188 2189 2188 2189 2188 2189 2198 -3 2199 2186 -33 0 2180 2181 2180 2181 2180 2181 2180 -96 0 2188 2189 2188 2195 -3 2196 2195 2196 2195 2196 2195 2196 2195 2196 2195 2196 2195 2180 2181 2180 2181 2180 2190 -33 0 2188 2189 2188 2189 2188 2189 2188 -96 0 2180 2181 -2 2180 -3 2181 2180 2181 2180 2181 2180 2181 2180 2181 2180 2181 2180 2188 2189 2188 2189 2188 2190 -33 0 2195 2196 2195 2196 2195 2196 2195 -96 0 2188 2189 -2 2188 -3 2189 2188 2189 2180 2181 2180 2181 2180 2189 2188 2189 2188 2195 2196 2195 2196 2195 2190 -33 0 2180 2181 2180 2181 2180 2181 2180 -105 0 2188 2189 2188 2189 2181 2180 -2 2181 2180 -2 2181 2180 2181 -35 0 2188 2189 2188 2189 2188 2189 2188 -105 0 2195 2196 2195 2196 2181 2180 -2 2181 2180 -2 2181 2180 -2 2181 2180 -2 2181 2180 2181 -29 0 2195 2196 2195 2196 2195 2196 2195 -105 0 2180 2181 2180 2181 2189 2188 -2 2189 2188 -2 2189 2188 2189 2181 2180 -2 2181 2180 -2 2181 2180 -2 2181 2180 -2 2181 2180 -2 2181 2180 -2 2181 2180 2181 2180 2181 2180 2181 -10 0 2180 2181 2180 2181 2180 2181 2180 -105 0 2188 2189 2188 2189 2181 2180 -2 2181 2180 2181 2196 2181 2180 2189 2188 -2 2189 2188 2189 2181 2180 -2 2181 2180 -2 2181 2180 -2 2181 2180 -2 2181 2180 2181 2180 2181 2180 2181 -10 0 2188 2189 2188 2189 2188 2189 2188 -105 0 2195 2196 2195 2196 2181 2180 -2 2181 2180 -3 2181 2180 2196 2181 2180 2196 2195 2196 2189 2188 -2 2189 2188 -2 2189 2188 -2 2189 2188 -2 2189 2188 2189 2188 2189 2188 2189 -10 0 2195 2196 2195 2196 2195 2196 2195 -105 0 2180 2181 2180 2181 2189 2188 -2 2189 2188 -3 2189 2188 2189 2181 2180 2181 -2 0 2196 2195 -2 2196 2195 -2 2196 2195 -2 2196 2195 -2 2196 2195 2196 2195 2196 2195 2196 0 2060 2061 2060 2061 2059 -4 0 2180 2181 2180 2181 2180 2181 2180 -105 0 2188 2189 2188 2189 2196 2195 -2 2196 2195 -3 2196 2195 2196 2189 2188 2189 2180 2181 2180 2181 2180 2181 2180 2181 2180 2181 2180 2181 2180 2181 2180 2181 2180 2181 2180 2197 2187 2195 2196 2197 2187 2195 2196 -4 0 2188 2189 2188 2189 2188 2189 2188 -105 0 2195 2196 2195 2196 2195 2188 2189 2188 2189 2188 2189 2188 2189 2188 2196 2195 2196 2188 2189 2188 2189 2188 2189 2188 2189 2188 2189 2188 2189 2188 2189 2188 2189 2188 2189 2188 -3 2180 2181 -5 2180 2181 2180 2181 2195 2196 2195 2196 2195 2196 2195 -105 0 2180 2181 2180 2181 2180 2189 2188 2189 2188 2189 2188 2189 2188 2189 2188 2189 2188 2189 2188 2189 2188 2189 2188 2189 2188 2189 2188 2189 2188 2189 2188 2189 2188 2189 2188 2189 2188 0 2188 2180 2181 -2 2180 2181 2188 2189 2188 2189 2180 2181 2180 2181 2180 2181 -106 0 2188 2189 2188 2189 2188 2196 2195 2196 2195 2196 2195 2196 2195 2196 2195 2196 2195 2196 2195 2196 2195 2196 2195 2196 2195 2196 2195 2196 2195 2196 2195 2196 2195 2196 2195 2196 2195 0 2195 2188 2189 -2 2188 2189 2195 2196 2195 2196 2188 2189 2188 2189 2188 2189 -106 0 2195 2196 2195 2196 2195 2181 2180 2181 2180 2181 2180 2181 2180 2181 2180 2181 2180 2181 2180 2181 2180 2181 2180 2181 2180 2181 2180 2181 2180 2181 2180 2181 2180 2181 2180 2181 2180 0 2180 2181 2180 2181 2180 2181 2180 2181 2180 2181 2195 2196 2195 2196 2195 2196 -9 0)
    )
    (tilemap
      (solid #t)
      (z-pos 100)
      (width 160)
      (height 50)
      (tiles -2623 0 16 2925 2926 11 -158 0 2928 31 -1213 0 -4 8 -156 0 -4 14 -156 0 -4 11 -61 0 8 -608 0 3249 -159 0 2126 -43 0 12 -65 0 3249 2124 -5 2132 2125 -4 11 115 116 -2 11 -34 0 2126 -43 0 3250 -65 0 2131 2133 -5 0 2126 -2 11 115 116 117 118 -2 11 3250 -33 0 2126 -43 0 2129 -9 2122 2123 -62 0 2126 115 116 117 118 -4 11 2128 -27 0 2121 -5 2122 2130 -43 0 -10 11 3254 -55 0 2121 2122 2123 -4 0 2126 117 118 -6 11 2129 -27 2122 2130 -72 0 10 -42 0 3253 2124 2133 -4 0 2126 -8 11 -145 0 2128 -5 0 2126 -8 11 -88 0 3251 -8 2122 2123 -47 0 2128 -5 0 2126 -8 11 -88 0 -9 11 2128 -47 0 2128 -5 0 2126 -8 11 -97 0 2128 -47 0 2128 -5 0 2126 -8 11 -97 0 2128 -47 0 2128 -5 0 2126 -8 11 -97 0 2128 -47 0 2128 -5 0 2126 -8 11 -97 0 2128 -47 0 2128 -5 0 2126 -8 11 -97 0 2128 -47 0 2128 -5 0 2126 -8 11 -97 0 2128 -36 0 -11 2132 2133 -5 0 2126 -8 11 -97 0 2128 -53 0 2126 -8 11 -97 0 2128 -53 0 2126 -8 11 -97 0 2128 -53 0 2126 -8 11 -97 0 2019 2140 2141 2142 2019 2140 2141 2142 2019 2140 2141 2142 2019 2140 2141 2142 2019 2140 2141 2142 2019 2140 2141 2142 2019 2140 2141 2142 2019 2140 2141 2142 2019 2140 2141 2142 2019 2140 2141 2142 2019 2140 2141 2142 2019 2140 2141 2142 2019 2140 2141 2142 2019 2140 2141 -8 0)
    )
    (tilemap
      (solid #t)
      (z-pos 0)
      (width 160)
      (height 50)
      (tiles -720 0 2947 -83 0 -4 44 -155 0 44 -4 0 44 -155 0 -4 44 -62 0 7 -18 8 9 -140 0 13 -18 14 15 -74 0 2155 2156 2164 2157 -62 0 10 -10 11 30 -7 17 18 -76 0 2162 -63 0 10 -10 11 12 -84 0 2162 -63 0 16 -4 17 2925 2926 -4 11 12 -5 0 7 -3 8 9 -74 0 2162 -69 0 2928 2925 2926 2929 2930 18 -5 0 13 -3 14 15 -73 0 2155 2164 2157 -70 0 2928 2931 -7 0 10 -3 11 12 -74 0 2162 -56 0 7 -7 8 2913 2914 -14 0 10 11 19 11 12 -2 0 7 8 9 -69 0 2162 -56 0 13 -7 14 2915 2916 1832 1827 -12 0 10 -3 11 12 -2 0 13 14 15 -69 0 2162 -56 0 16 -2 17 31 -5 11 1835 1836 1831 1832 1827 -10 0 16 -2 17 31 12 -2 0 16 17 18 -63 0 -19 209 123 -46 0 10 -2 11 2124 2132 2125 -2 11 1835 1836 1831 1832 1827 -11 0 16 18 -134 0 10 -2 11 2128 0 2126 -4 11 1835 1836 1831 1832 1827 -145 0 10 -2 11 2128 0 2126 -6 11 1835 1836 1831 1832 1827 -143 0 10 -2 11 2128 0 2126 -8 11 1835 1836 1831 1832 1827 -141 0 10 -2 11 2128 0 2126 -10 11 1835 1836 1831 2917 2918 -8 8 2913 2914 -129 0 10 -2 11 2128 0 2126 -12 11 1835 2919 2920 -8 14 2915 2916 2917 2918 -2 8 9 -101 0 2909 2910 -6 8 9 -14 0 10 -2 11 2128 0 2126 -24 11 1835 2919 2920 -2 14 15 -99 0 3141 3142 2911 2912 -6 14 15 -14 0 10 -2 11 2129 2122 2130 -20 11 2929 2930 -4 17 31 -2 11 12 -56 0 2909 2910 -28 8 9 -11 0 3150 3145 3146 1834 30 -5 17 0 7026 -14 0 10 -14 11 115 116 -7 11 2929 2930 2931 -5 0 10 -2 11 12 -42 0 7 -11 8 2921 2922 2911 2912 -28 14 15 -10 0 3153 3154 3158 -2 11 12 -6 0 7026 -14 0 10 -12 11 19 11 117 118 -5 11 2929 2930 2931 -7 0 16 2925 2926 12 -42 0 13 -11 14 2923 2924 1834 2134 -7 11 30 -20 17 18 -5 0 7 -2 8 2921 2922 3157 3158 -3 11 21 -6 8 7026 -13 8 3199 22 -11 11 -2 19 -3 11 2929 2930 -3 17 2931 -11 0 2928 3057 -42 0 10 -22 11 5247 -20 5240 5241 -5 0 13 -2 14 2923 2924 1834 -4 11 20 -19 14 3988 14 23 -14 11 2929 2930 2931 -17 0 206 -42 0 10 -41 11 2929 2930 18 -5 0 10 -43 11 30 -2 17 2931 -19 0 206 -42 0 10 -15 11 30 -25 17 2931 -7 0 10 -43 11 12 -22 0 206 -42 0 10 -15 11 12 -30 0 6978 6979 2385 2961 -41 11 19 11 12 -22 0 206 -42 0 10 -15 11 12 -25 0 6978 6979 2385 6988 6989 6982 6983 2388 2960 -43 11 12 -4 2385 6980 6981 -16 0 3052 -5 8 9 -36 0 2393 -5 2394 2391 2962 -4 11 115 116 -2 11 12 -23 0 2986 2983 6982 6983 2388 6992 6993 2988 -3 2391 -43 11 -5 2388 6984 6985 6986 6987 2385 2386 -12 0 3056 -5 14 15 -43 0 2390 -2 11 115 116 117 118 -2 11 2958 -21 2385 6988 6989 2987 2984 2988 -8 2391 -43 11 -2 2391 -2 2396 -2 2391 2992 6990 6991 2388 2389 -3 0 -2 44 -7 0 10 -5 11 21 -3 8 9 -39 0 2390 115 116 117 118 -4 11 2959 -21 2388 6992 6993 2988 -10 2391 -53 11 2392 -2 0 44 -2 0 44 -6 0 10 -5 11 20 -3 14 15 -32 0 2384 -2 2385 2386 -3 0 2390 117 118 -6 11 -29 2391 -59 11 12 -2 0 44 -2 0 44 -6 0 10 -9 11 12 -21 0 7 8 9 -8 0 2387 -2 2388 2389 -3 0 2390 -79 11 -2 2127 -15 11 12 -3 0 -2 44 -7 0 3053 -8 17 31 12 -11 0 2909 2910 2913 2914 -4 0 2909 2910 114 14 113 2913 2914 -4 0 2909 2910 22 -2 2391 2392 4106 0 4104 2390 -79 11 -2 2127 -15 11 21 -8 8 2386 -3 0 206 -8 0 10 21 -9 8 2921 2922 2911 2912 2915 2916 2917 2918 2921 2922 2911 2912 23 11 20 2915 2916 2917 2918 2921 2922 2911 2912 23 -2 2391 2392 4111 0 4109 2390 -105 11 2389 -3 0 206 -5 0 2948 -2 0 10 20 -9 14 2923 2924 1834 -2 11 1835 2919 2920 2923 2924 1834 -5 11 1835 2919 2920 2923 2924 1834 -2 11 -2 2391 2392 4111 0 4109 2390 -105 11 2392 0 2067 2069 206 2990 -7 0 10 -2 11 19 -31 11 -2 2391 2392 4111 0 4109 2390 -105 11 2392 0 2072 2074 2387 2991 2994 2990 -5 0 16 -22 17 31 -11 11 -2 2391 2392 4111 0 4109 2390 -105 11 2392 2053 2056 2055 2390 2391 2995 2991 2994 2990 -26 0 10 -11 11 -2 2391 2392 4111 0 4109 2390 -105 11 2392 -2 2058 2050 2390 2391 -2 2992 2995 2991 2994 -14 2385 2386 -2 0 2384 -7 2385 10 -11 11 -2 2391 2392 4111 0 4109 2390 -105 11 2392 2075 2076 2059 2393 -5 2394 4076 -2 2954 4042 -11 2388 2389 -2 0 2387 -7 2388 3249 -11 11 -2 2391 2392 4116 0 4109 2390 -105 11 2392 2077 2078 2059 -9 0 2985 2989 -9 2394 2993 2996 -2 0 2985 2989 -19 2394 2993 2996 -2 0 4109 2390 -105 11 2392 2051 2058 2059 -49 0 4114 2390 -47 11 115 116 -56 11 2392 2057 2058 2055 2054 -3 0 -4 44 -42 0 2390 -47 11 117 118 -56 11 2392 2057 2075 -16 2068 2069 -4 0 2067 -10 2068 2069 -4 0 -3 2058 -6 0 2384 -4 2385 2961 -105 11 2392 2057 2077 -16 2073 2074 -4 0 2072 -10 2073 2074 -3 0 2155 2164 -3 2156 2164 2157 -3 0 2387 -4 2388 2960 -8 11)
    )
    (tilemap
      (solid #f)
      (z-pos -101)
      (name "back")
      (width 160)
      (height 50)
      (tiles -2624 0 2192 0 2187 -99 0 2162 -57 0 2192 -2 2187 -157 0 2192 -2 2187 -157 0 2193 2184 2187 -158 0 2193 2183 -464 0 9 -40 0 2180 2181 -117 0 15 -40 0 2188 2189 2190 -109 0 2197 2180 2181 -2 2197 2180 2181 2190 -39 0 2180 2181 2182 2194 -72 0 2185 -20 2199 2198 2186 -14 0 2180 2181 2189 2180 2181 2188 2189 2190 -39 0 2188 2189 2190 -73 0 2192 2189 2188 2196 2187 2197 2187 2197 2195 -2 2179 2195 2197 2195 2181 -2 2189 2180 2195 2179 2180 2179 2198 2186 -3 0 7 -9 0 2188 -2 2197 2188 2189 -2 2197 2190 -39 0 2180 2181 2190 -73 0 2192 2189 2196 2188 2189 2179 2180 2196 2197 2187 -2 2197 2188 2195 2187 2180 2187 2195 2187 2181 2197 2181 2189 2198 2186 0 2185 2199 -56 0 2180 2189 2190 -73 0 2193 -18 2183 2197 2196 2195 2188 2181 2198 2199 2200 2181 -56 0 2188 2181 2190 -66 0 2180 2181 2180 2181 2180 2181 2180 2181 2180 2181 2180 2181 2180 2181 2180 2181 2180 2181 2180 2181 2180 2181 2180 2181 2180 2181 -2 2188 2189 2188 2189 2188 2189 2188 2189 -45 0 -2 2035 -9 0 2180 2189 2190 -66 0 2188 2189 2188 2189 2188 2189 2188 2189 2188 2189 2188 2189 2188 2189 2188 2189 2188 2189 2188 2189 2188 2189 2188 2189 2188 2189 -2 2180 2181 -2 2180 2181 2180 2181 2180 2181 -44 0 -2 2035 -9 0 2180 2181 2190 -66 0 2180 2181 2180 2181 2180 2181 2180 2181 2180 2181 2180 2181 2180 2181 2180 2181 2180 2181 2180 2181 2180 2181 2180 2181 2180 2181 -2 2188 2189 -2 2188 2189 2188 2189 2188 2189 -44 0 -2 2035 -9 0 2188 2189 2190 -66 0 2188 2189 2188 2189 2188 2189 2188 2189 2188 2189 2188 2189 2188 2189 2188 2189 2188 2189 2188 2189 2188 2189 2188 2189 2188 2189 -2 2180 2181 2180 2181 2180 2181 2180 2181 -56 0 2180 2181 2190 -66 0 2180 2181 2180 2181 2180 2181 2180 2181 2180 2181 2180 2181 2180 2181 2180 2181 2180 2181 2180 2181 2180 2181 2180 2181 2180 2181 -2 2188 2189 2188 2189 2188 2189 2188 2189 -56 0 2188 2189 2190 -157 0 2181 2182 2194 -157 0 2189 2190 -158 0 2181 2190 -158 0 2189 2190 -1321 0 2180 2181 2180 2181 2180 2181 2180 -153 0 2188 2189 2188 2189 2188 2189 2188 -153 0 2195 2196 2195 2196 2195 2196 2195 -153 0 2180 2181 2180 2181 2180 2181 2180 -19 0)
    )
    (tilemap
      (solid #f)
      (z-pos 49)
      (name "foreback")
      (width 160)
      (height 50)
      (tiles -3451 0 -3 8 -2714 0 21 -8 8 -484 0 3059 -671 0 2131 -666 0)
    )
    (tilemap
      (solid #f)
      (z-pos -2)
      (width 160)
      (height 50)
      (tiles -1830 0 2057 2059 -7 0 2053 2054 -149 0 2057 2059 -7 0 2065 2055 -7 2053 -142 0 2057 2059 -7 0 2062 -3 2063 2051 2050 -3 2063 -3 0 -3 2053 2054 -135 0 2057 2059 -11 0 2062 2064 -6 0 -3 2060 2055 2054 -155 0 2051 -2 2065 2066 2059 -155 0 2062 -3 2063 2064 -134 0 3176 -159 0 3176 -159 0 3176 -14 0 122 123 -2 0 2052 2054 -139 0 3176 -14 0 124 125 -2 0 2057 2055 2053 2054 -137 0 3176 -14 0 1345 1344 -2 0 2057 -2 2061 2059 -137 0 3176 -159 0 3176 -159 0 3176 -158 0 2019 3176 2141 2142 -175 0 -6 3182 3172 -159 0 3176 -159 0 3176 -159 0 3176 -159 0 3176 -147 0 1628 1629 -10 0 3176 -147 0 1630 1631 -10 0 3176 -159 0 3176 -159 0 3176 -159 0 3176 -159 0 3177 -7 3182 -5 0 3176 -159 0 3176 -39 0 4105 -3 0 4105 -115 0 3176 -39 0 4110 -3 0 4110 -115 0 3176 -39 0 4110 -3 0 4110 -109 0 2384 -5 0 3176 -39 0 4110 -3 0 4110 -115 0 3177 -4 3182 3172 -34 0 4110 -3 0 4110 -105 0 2053 -3 0 2054 -10 0 3176 -34 0 4110 -3 0 4110 -105 0 2058 -3 0 2064 -10 0 3176 -20 0 2385 -13 0 4110 -3 0 4110 -105 0 2061 -35 0 2388 0 2057 -11 0 4115 -3 0 4110 -105 0 2061 -14 0 3176 -22 0 2057 2066 -2 2065 2066 2059 -10 0 4110 -105 0 2063 -14 0 3176 -22 0 2057 2066 -2 2065 2066 2059 -10 0 4115 -120 0 3176 -22 0 2057 2066 -3 2065 2059 -5 0 1628 1629 -112 0 2065 2055 2054 -9 0 3176 -22 0 2057 2066 -2 2065 2066 2059 -5 0 1630 1631 -124 0 3176 -22 0 2057 2066 -2 2065 2066 2059 -19 0)
    )
    (tilemap
      (solid #f)
      (z-pos 101)
      (width 160)
      (height 50)
      (tiles -7937 0 2128 -50 0 2121 -2 2122 2130 -8 0)
    )
    (tilemap
      (solid #f)
      (z-pos 100)
      (name "geheiM")
      (width 160)
      (height 50)
      (tiles -5861 0 10 -9 11 -150 0 10 -9 11 -150 0 10 -9 11 -150 0 10 -9 11 20 -9 14 2923 2924 1834 -2 11 1835 2919 2920 2923 2924 1834 -3 11 -126 0 10 -11 11 19 -21 11 -126 0 3249 -17 11 19 -10 11 2124 2125 2127 -2 11 -126 0 2131 2125 -10 11 19 -3 11 19 -12 11 2129 2130 2127 -2 11 -127 0 2126 -12 11 19 -16 11 2127 -2 11 -127 0 2131 -17 2132 2125 -5 11 2124 -5 2132 2125 -2 11 -145 0 2131 -5 2132 2133 -5 2394 2131 -2 2132 -665 0)
    )
    (tilemap
      (solid #f)
      (z-pos 101)
      (name "secret1")
      (width 160)
      (height 50)
      (tiles -4000 0 -28 8 9 -131 0 -28 14 15 -131 0 -28 11 3250 -131 0 -28 11 3254 -131 0 -26 11 2929 2930 18 -131 0 30 -25 17 2931 -133 0 12 -159 0 12 -159 0 12 -159 0 3250 -2559 0)
    )
    (tilemap
      (solid #t)
      (z-pos 0)
      (name "invisible")
      (width 160)
      (height 50)
      (tiles -4167 0 -22 1311 -138 0 1311 -79 0 211 -79 0 1311 -20 0 2818 -58 0 212 -79 0 -19 1311 -3 2817 -58 0 212 -159 0 212 -159 0 212 -159 0 213 -2792 0)
    )
    (tilemap
      (handle
        (scale_x 0)
        (scale_y 0)
        (offset_x 0)
        (offset_y 0)
      )
      (solid #t)
      (z-pos 0)
      (name "p")
      (path-ref "gen1738288666109710693409680")
      (width 160)
      (height 50)
      (tiles -334 0 47 0 47 -157 0 27 28 29 -7503 0)
    )
    (trampoline
      (z-pos 50)
      (x 1446.663)
      (y 862.6664)
    )
    (trampoline
      (z-pos 50)
      (x 496)
      (y 64)
    )
    (trampoline
      (type "stationary")
      (z-pos 50)
      (x 496)
      (y 512)
    )
    (unstable_tile
      (z-pos 0)
      (x 3072)
      (y 512)
    )
    (unstable_tile
      (z-pos 0)
      (x 3072)
      (y 608)
    )
    (unstable_tile
      (z-pos 0)
      (x 3072)
      (y 560)
    )
  )
  (sector
    (name "chicken")
    (ambient-light
      (color 1 1 1)
    )
    (bonusblock
      (z-pos 51)
      (x 5264)
      (y 224)
    )
    (camera
      (name "Camera")
      (mode "normal")
    )
    (climbable
      (width 140.6667)
      (height 811.9999)
      (x 2890)
      (y 69.9997)
    )
    (coin
      (z-pos 49)
      (x 2889.33)
      (y 800)
    )
    (coin
      (z-pos 49)
      (x 2958.67)
      (y 747.333)
    )
    (coin
      (z-pos 49)
      (x 2986)
      (y 648.6669)
    )
    (coin
      (z-pos 49)
      (x 2882)
      (y 644)
    )
    (coin
      (z-pos 49)
      (x 2929.33)
      (y 556)
    )
    (coin
      (z-pos 49)
      (x 2987.33)
      (y 498.667)
    )
    (coin
      (z-pos 49)
      (x 2900.67)
      (y 408.667)
    )
    (coin
      (z-pos 49)
      (x 2966)
      (y 328)
    )
    (coin
      (z-pos 49)
      (x 2994)
      (y 244)
    )
    (coin
      (z-pos 49)
      (x 2935.33)
      (y 180.667)
    )
    (coin
      (z-pos 49)
      (x 2950.67)
      (y 103.333)
    )
    (crusher
      (z-pos 50)
      (x 2495.997)
      (y 895.3334)
    )
    (decal
      (z-pos -10)
      (sprite "/images/decal/snow/igloo_bg.png")
      (x 5600)
      (y 288)
    )
    (decal
      (z-pos -50)
      (sprite "/images/decal/snow/igloo_fg.png")
      (x 5600)
      (y 288)
    )
    (dispenser
      (z-pos 55)
      (cycle 4)
      (type "cannon")
      (objects
        (kamikazesnowball
          (z-pos 50)
          (glinting #f)
        )
      )
      (direction "left")
      (x 2394.671)
      (y 198.667)
    )
    (dispenser
      (z-pos 55)
      (cycle 4)
      (type "cannon")
      (objects
        (kamikazesnowball
          (z-pos 50)
          (glinting #f)
        )
      )
      (direction "left")
      (x 2398.664)
      (y 167.9996)
    )
    (firefly
      (z-pos 0)
      (x 206.6667)
      (y 492.667)
    )
    (firefly
      (z-pos 0)
      (x 2278)
      (y 458.333)
    )
    (fish-jumping
      (z-pos 50)
      (x 1136)
      (y 832)
      (glinting #f)
    )
    (goldbomb
      (z-pos 50)
      (direction "left")
      (x 3681.33)
      (y 312)
      (glinting #t)
    )
    (gradient
      (top_color 0.3 0.4 0.75)
      (bottom_color 1 1 1)
    )
    (jumpy
      (z-pos 50)
      (x 130)
      (y 109.333)
      (glinting #f)
    )
    (jumpy
      (z-pos 50)
      (x 3377.33)
      (y 164)
      (glinting #f)
    )
    (music
      (file "/music/antarctic/crystalmine_main.music")
    )
    (path
      (name "gen159125817293898826525872")
      (path
        (mode "oneshot")
        (adapt_speed #f)
        (node
          (x 2112)
          (y 511.3333)
          (time 5)
        )
        (node
          (x 2112)
          (y 1054.667)
          (time 5)
        )
      )
    )
    (platform
      (z-pos 50)
      (handle
        (scale_x 0)
        (scale_y 0)
        (offset_x 0)
        (offset_y 0)
      )
      (running #f)
      (name "ball")
      (path-ref "gen159125817293898826525872")
      (sprite "/images/objects/platforms/wood-fivetiles.sprite")
    )
    (rock
      (z-pos 50)
      (x 33.33329)
      (y 184)
    )
    (rock
      (z-pos 50)
      (x 1636)
      (y 926.0002)
    )
    (sequencetrigger
      (sequence "endsequence")
      (width 32)
      (height 288)
      (x 4896)
      (y 128)
    )
    (sequencetrigger
      (sequence "stoptux")
      (width 32)
      (height 384)
      (x 5728)
      (y 96)
    )
    (smartball
      (z-pos 50)
      (direction "left")
      (x 3136)
      (y 928)
      (glinting #f)
    )
    (smartblock
      (z-pos 50)
      (direction "left")
      (x 2611.33)
      (y 186)
      (glinting #f)
    )
    (snowman
      (z-pos 50)
      (direction "left")
      (x 1589.33)
      (y 889.3333)
      (glinting #f)
    )
    (snowman
      (z-pos 50)
      (direction "left")
      (x 1521.337)
      (y 886.6663)
      (glinting #f)
    )
    (snowman
      (z-pos 50)
      (direction "left")
      (x 3172.67)
      (y 1020)
      (glinting #f)
    )
    (spawnpoint
      (name "main")
      (x 207.3334)
      (y 481.3333)
    )
    (stalactite
      (glinting #f)
      (z-pos -1)
      (x 4737.999)
      (y 125.3333)
    )
    (switch
      (z-pos 1)
      (script "ball.goto_node(1);")
      (x 2414)
      (y 386.0003)
    )
    (tilemap
      (solid #f)
      (speed-x 0.8)
      (tint 0.4 0.5 0.6)
      (z-pos -100)
      (width 180)
      (height 35)
      (tiles 2181 2180 2181 2180 2181 2180 2181 2180 2181 2180 2181 2180 2181 2180 2181 2180 2181 2180 2181 2180 2181 2180 2181 2180 2181 2180 2181 2180 2181 2180 2181 2180 2181 2180 2181 2180 2181 2180 2181 2180 2181 2180 2181 2180 2181 2180 2181 2180 2181 2180 2181 2180 2181 2180 2181 2180 2181 2180 2181 2180 2181 2180 2181 2180 2181 2180 2181 2180 2181 2180 2181 2180 2181 2180 2181 2180 2181 2180 2181 2180 2181 2180 2181 2180 2181 2180 2181 2180 2181 2180 2181 2180 2181 2180 2181 2180 2181 2180 2181 2180 2181 2180 2181 2180 2181 2180 -2 2181 2180 2181 -2 2180 2181 2180 2181 2180 2181 2180 2181 2180 2181 2180 2181 2180 2181 2180 2181 2180 2181 2180 2181 2180 2181 2180 2181 2180 2181 2180 2181 2180 2181 2180 2181 2180 2181 2180 2181 2180 2181 2180 2181 2180 2181 2180 2181 2180 2181 2180 2181 2180 2181 2180 2181 2180 2181 -2 2180 2181 2180 2181 2180 2181 -2 2180 2181 2180 2181 2180 2181 2180 2189 2188 2189 2188 2189 2188 2189 2188 2189 2188 2189 2188 2189 2188 2189 2188 2189 2188 2189 2188 2189 2188 2189 2188 2189 2188 2189 2188 2189 2188 2189 2188 2189 2188 2189 2188 2189 2188 2189 2188 2189 2188 2189 2188 2189 2188 2189 2188 2189 2188 2189 2188 2189 2188 2189 2188 2189 2188 2189 2188 2189 2188 2189 2188 2189 2188 2189 2188 2189 2188 2189 2188 2189 2188 2189 2188 2189 2188 2189 2188 2189 2188 2189 2188 2189 2188 2189 2188 2189 2188 2189 2188 2189 2188 2189 2188 2189 2188 2189 2188 2189 2188 2189 2188 2189 2188 -2 2189 2188 2189 -2 2188 2189 2188 2189 2188 2189 2188 2189 2188 2189 2188 2189 2188 2189 2188 2189 2188 2189 2188 2189 2188 2189 2188 2189 2188 2189 2188 2189 2188 2189 2188 2189 2188 2189 2188 2189 2188 2189 2188 2189 2188 2189 2188 2189 2188 2189 2188 2189 2188 2189 2188 2189 2188 2189 -2 2188 2189 2188 2189 2188 2189 -2 2188 2189 2188 2189 2188 2189 2188 2181 2180 2181 2180 2181 2180 2181 2180 2181 2180 2181 2180 2181 2180 2181 2180 2181 2180 2181 2180 2181 2180 2181 2180 2181 2180 2181 2180 2181 2180 2181 2180 2181 2180 2181 2180 2181 2180 2181 2180 2181 2180 2181 2180 2181 2180 2181 2180 2181 2180 2181 2180 2181 2180 2181 2180 2181 2180 2181 2180 2181 2180 2181 2180 2181 2180 2181 2180 2181 2180 2181 2180 2181 2180 2181 2180 2181 2180 2181 2180 2181 2180 2181 2180 2181 2180 2181 2180 2181 2180 2181 2180 2181 2180 2181 2180 2181 2180 2181 2180 2181 2180 2181 2180 2181 -2 2180 2181 2180 2181 2180 2181 -2 2180 2196 2195 2196 2195 2196 2195 2196 2195 2196 2195 2196 2195 2196 2195 2196 2195 2196 2195 2196 2195 2196 2195 2196 2195 2196 2195 2196 2195 2196 2195 2196 2195 2196 2195 2196 2195 2196 2195 2196 2195 2196 2195 2196 2195 2196 2195 2196 2195 2196 2195 2196 -2 2195 2196 2195 2196 2195 2196 -2 2195 2196 2195 2196 2195 2196 2195 2189 2188 2189 2188 2189 2188 2189 2188 2189 2188 2189 2188 2189 2188 2189 2188 2189 2188 2189 2188 2189 2188 2189 2188 2189 2188 2189 2188 2189 2188 2189 2188 2189 2188 2189 2188 2189 2188 2189 2188 2189 2188 2189 2188 2189 2188 2189 2188 2189 2188 2189 2188 2189 2188 2189 2188 2189 2188 2189 2188 2189 2188 2189 2188 2189 2188 2189 2188 2189 2188 2189 2188 2189 2188 2189 2188 2189 2188 2189 2188 2189 2188 2189 2188 2189 2188 2189 2188 2189 2188 2189 2188 2189 2188 2189 2188 2189 2188 2189 2188 2189 2188 2189 2188 2189 -2 2188 2189 2188 2189 2188 2189 -2 2188 2181 2180 2181 2180 2181 2180 2181 2180 2181 2180 2181 2180 2181 2180 2181 2180 2181 2180 2181 2180 2181 2180 2181 2180 2181 2180 2181 2180 2181 2180 2181 2180 2181 2180 2181 2180 2181 2180 2181 2180 2181 2180 2181 2180 2181 2180 2181 2180 2181 2180 2181 -2 2180 2181 2180 2181 2180 2181 -2 2180 2181 2180 2181 2180 2181 2180 2181 2180 2181 2180 2181 2180 2181 2180 2181 2180 2181 2180 2181 2180 2181 2180 2181 2180 2181 2180 2181 2180 2181 2180 2181 2180 2181 2180 2181 2180 2181 2180 2181 2180 2181 2180 2181 2180 2181 2180 2181 2180 2181 2180 2181 2180 2181 2180 2181 2180 2181 2180 2181 2180 2181 2180 2181 2180 2181 2180 2181 2180 2181 2180 2181 2180 2181 2180 2181 2180 2181 2180 2181 2180 2181 2180 2181 2180 2181 2180 2181 2180 2181 2180 2181 2180 2181 2180 2181 2180 2181 2180 2181 2180 2181 2180 2181 2180 2181 2195 2196 2195 2196 2195 2196 -2 2195 2196 2195 2196 2195 2196 -2 2195 2189 2188 2189 2188 2189 2188 2189 2188 2189 2188 2189 2188 2189 2188 2189 2188 2189 2188 2189 2188 2189 2188 2189 2188 2189 2188 2189 2188 2189 2188 2189 2188 2189 2188 2189 2188 2189 2188 2189 2188 2189 2188 2189 2188 2189 2188 2189 2188 2189 2188 2189 -2 2188 2189 2188 2189 2188 2189 -2 2188 2189 2188 2189 2188 2189 2188 2189 2188 2189 -3 2188 2189 2188 2189 2188 2189 2188 2189 2188 2189 2188 2189 2188 2189 2188 2189 2188 2189 2188 2189 2188 2189 2188 2189 2188 2189 2188 2189 2188 2189 2188 2189 2188 2189 2188 2189 2188 2189 2188 2189 2188 2189 2188 2189 2188 2189 2188 2189 2188 2189 2188 2189 2188 2189 2188 2189 2188 2189 2188 2189 2188 2189 2188 2189 2188 2189 2188 2189 2188 2189 2188 2189 2188 2189 2188 2189 2188 2189 2188 2189 2188 2189 2188 2189 2188 2189 2188 2189 2188 2189 2188 2189 2188 2189 2180 2181 2180 2181 2180 2181 -2 2180 2181 2180 2181 2180 2181 -2 2180 2196 2195 2196 2195 2196 2195 2196 2195 2196 2195 2196 2195 2196 2195 2196 2195 2196 2195 2196 2195 2196 2195 2196 2195 2196 2195 2196 2195 2196 2195 2196 2195 2196 2195 2196 2195 2196 2195 2196 2195 2196 2195 2196 2195 2196 2195 2196 2195 2196 2195 2196 -2 2195 2196 2195 2196 2195 2196 -2 2195 2196 2195 2196 2195 2196 2195 2181 2180 2181 -3 2180 2181 2180 2181 2180 2181 2180 2181 2180 2181 2180 2181 2180 2181 2180 2181 2180 2181 2180 2181 2180 2181 2180 2181 2180 2181 2180 2181 2180 2181 2180 2181 2180 2181 2180 2181 2180 2181 2180 2181 2180 2181 2180 2181 2180 2181 2180 2181 2180 2181 2180 2181 2180 2181 2180 2181 2180 2181 2180 2181 2180 2181 2180 2181 2180 2181 2180 2181 2180 2181 2180 2181 2180 2181 2180 2181 2180 2181 2180 2181 2180 2181 2180 2181 2180 2181 2180 2181 2180 2181 2180 2181 2180 2181 2188 2189 2188 2189 2188 2189 -2 2188 2189 2188 2189 2188 2189 -2 2188 2181 2180 2181 2180 2181 2180 2181 2180 2181 2180 2181 2180 2181 2180 2181 2180 2181 2180 2181 2180 2181 2180 2181 2180 2181 2180 2181 2180 2181 2180 2181 2180 2181 2180 2181 2180 2181 2180 2181 2180 2181 2180 2181 2180 2181 2180 2181 2180 2181 2180 2181 -2 2180 2181 2180 2181 2180 2181 -2 2180 2181 2180 2181 2180 2181 2180 2189 2188 2189 2188 2189 2188 2189 2188 2189 2188 2189 2188 2189 2188 2189 2188 2189 2188 2189 2188 2189 2188 2189 2188 2189 2188 2189 2188 2189 2188 2189 2188 2189 2188 2189 2188 2189 2188 2189 2188 2189 2188 2189 2188 2189 2188 2189 2188 2189 2188 2189 2188 2189 2188 2189 2188 2189 2188 2189 2188 2189 2188 2189 2188 2189 2188 2189 2188 2189 2188 2189 2188 2189 2188 2189 2188 2189 2188 2189 2188 2189 2188 2189 2188 2189 2188 2189 2188 2189 2188 2189 2188 2189 2188 2189 2188 2189 2188 2189 2195 2196 2195 2196 2195 2196 -2 2195 2196 2195 2196 2195 2196 -2 2195 2189 2188 2189 2188 2189 2188 2189 2188 2189 2188 2189 2188 2189 2188 2189 2188 2189 2188 2189 2188 2189 2188 2189 2188 2189 2188 2189 2188 2189 2188 2189 2188 2189 2188 2189 2188 2189 2188 2189 2188 2189 2188 2189 2188 2189 2188 2189 2188 2189 2188 2189 -2 2188 2189 2188 2189 2188 2189 -2 2188 2189 2188 2189 2188 2189 2188 2181 2180 2181 2180 2181 2180 2181 2180 2181 2180 2181 2180 2181 2180 2181 2180 2181 2180 2181 2180 2181 2180 2181 2180 2181 2180 2181 2180 2181 2180 2181 2180 2181 2180 2181 2180 2181 2180 2181 2180 2181 2180 2181 2180 2181 2180 2181 2180 2181 2180 2181 2180 2181 2180 2181 2180 2181 2180 2181 2180 2181 2180 2181 2180 2181 2180 2181 2180 2181 2180 2181 2180 2181 2180 2181 2180 2181 2180 2181 2180 2181 2180 2181 2180 2181 2180 2181 2180 2181 2180 2181 2180 2181 2180 2181 2180 2181 2180 2181 2180 2181 2180 2181 2180 2181 -2 2180 2181 2180 2181 2180 2181 -2 2180 2196 2195 2196 2195 2196 2195 2196 2195 2196 2195 2196 2195 2196 2195 2196 2195 2196 2195 2196 2195 2196 2195 2196 2195 2196 2195 2196 2195 2196 2195 2196 2195 2196 2195 2196 2195 2196 2195 2196 2195 2196 2195 2196 2195 2196 2195 2196 2195 2196 2195 2196 2195 2180 2181 2180 2181 2180 2181 -2 2180 2181 2180 2181 2180 2181 2180 2189 2188 2189 2188 2189 2188 2189 2188 2189 2188 2189 2188 2189 2188 2189 2188 2189 2188 2189 2188 2189 2188 2189 2188 2189 2188 2189 2188 2189 2188 2189 2188 2189 2188 2189 2188 2189 2188 2189 2188 2189 2188 2189 2188 2189 2188 2189 2188 2189 2188 2189 2188 2189 2188 2189 2188 2189 2188 2189 2188 2189 2188 2189 2188 2189 2188 2189 2188 2189 2188 2189 2188 2189 2188 2189 2188 2189 2188 2189 2188 2189 2188 2189 2188 2189 2188 2189 2188 2189 2188 2189 2188 2189 2188 2189 2188 2189 2188 2189 2188 2189 2188 2189 2188 2189 -2 2188 2189 2188 2189 2188 2189 -2 2188 2181 2180 2181 2180 2181 2180 2181 2180 2181 2180 2181 2180 2181 2180 2181 2180 2181 2180 2181 2180 2181 2180 2181 2180 2181 2180 2181 2180 2181 2180 2181 2180 2181 2180 2181 2180 2181 2180 2181 2180 2181 2180 2181 2180 2181 2180 2181 2180 2181 2180 2181 2180 2188 2189 2188 2189 2188 2189 -2 2188 2189 2188 2189 2188 2189 2188 2181 2180 2181 2180 2181 2180 2181 2180 2181 2180 2181 2180 2181 2180 2181 2180 2181 2180 2181 2180 2181 2180 2181 2180 2181 2180 2181 2180 2181 2180 2181 2180 2181 2180 2181 2180 2181 2180 2181 2180 2181 2180 2181 2180 2181 2180 2181 2180 2181 2180 2181 2180 2181 2180 2181 2180 2181 2180 2181 2180 2181 2180 2181 2180 2181 2180 2181 2180 2181 2180 2181 2180 2181 2180 2181 2180 2181 2180 2181 2180 2181 2180 2181 2180 2181 2180 2181 2180 2181 2180 2181 2180 2181 2180 2181 2180 2181 2180 2181 2180 2181 2180 2181 2180 2181 -2 2180 2181 2180 2181 2180 2181 -2 2180 2189 2188 2189 2188 2189 2188 2189 2188 2189 2188 2189 2188 2189 2188 2189 2188 2189 2188 2189 2188 2189 2188 2189 2188 2189 2188 2189 2188 2189 2188 2189 2188 2189 2188 2189 2188 2189 2188 2189 2188 2189 2188 2189 2188 2189 2188 2189 2188 2189 2188 2189 2188 2195 2196 2195 2196 2195 2196 -2 2195 2196 2195 2196 2195 2196 2195 2189 2188 2189 2188 2189 2188 2189 2188 2189 2188 2189 2188 2189 2188 2189 2188 2189 2188 2189 2188 2189 2188 2189 2188 2189 2188 2189 2188 2189 2188 2189 2188 2189 2188 2189 2188 2189 2188 2189 2188 2189 2188 2189 2188 2189 2188 2189 2188 2189 2188 2189 2188 2189 2188 2189 2188 2189 2188 2189 2188 2189 2188 2189 2188 2189 2188 2189 2188 2189 2188 2189 2188 2189 2188 2189 2188 2189 2188 2189 2188 2189 2188 2189 2188 2189 2188 2189 2188 2189 2188 2189 2188 2189 2188 2189 2188 2189 2188 2189 2188 2189 2188 2189 2188 2189 -2 2188 2189 2188 2189 2188 2189 -2 2188 2196 2195 2196 2195 2196 2195 2196 2195 2196 2195 2196 2195 2196 2195 2196 2195 2196 2195 2196 2195 2196 2195 2196 2195 2196 2195 2196 2195 2196 2195 2196 2195 2196 2195 2196 2195 2196 2195 2196 2195 2196 2195 2196 2195 2196 2195 2196 2195 2196 2195 2196 2195 2180 2181 2180 2181 2180 2181 -2 2180 2181 2180 2181 2180 2181 2180 2181 2180 2181 2180 2181 2180 2181 2180 2181 2180 2181 2180 2181 2180 2181 2180 2181 2180 2181 2180 2181 2180 2181 2180 2181 2180 2181 2180 2181 2180 2181 2180 2181 2180 2181 2180 2181 2180 2181 2180 2181 2180 2181 2180 2181 2180 2181 2180 2181 2180 2181 2180 2181 2180 2181 2180 2181 2180 2181 2180 2181 2180 2181 2180 2181 2180 2181 2180 2181 2180 2181 2180 2181 2180 2181 2180 2181 2180 2181 2180 2181 2180 2181 2180 2181 2180 2181 2180 2181 2180 2181 2180 2181 2180 2181 2180 2181 2180 2181 2195 2196 2195 2196 2195 2196 -2 2195 2196 2195 2196 2195 2196 -2 2195 2181 2180 2181 2180 2181 2180 2181 2180 2181 2180 2181 2180 2181 2180 2181 2180 2181 2180 2181 2180 2181 2180 2181 2180 2181 2180 2181 2180 2181 2180 2181 2180 2181 2180 2181 2180 2181 2180 2181 2180 2181 2180 2181 2180 2181 2180 2181 2180 2181 2180 2181 2180 2188 2189 2188 2189 2188 2189 -2 2188 2189 2188 2189 2188 2189 2188 2189 2188 2189 2188 2189 2188 2189 2188 2189 2188 2189 2188 2189 2188 2189 2188 2189 2188 2189 2188 2189 2188 2189 2188 2189 2188 2189 2188 2189 2188 2189 2188 2189 2188 2189 2188 2189 2188 2189 2188 2189 2188 2189 2188 2189 2188 2189 2188 2189 2188 2189 2188 2189 2188 2189 2188 2189 2188 2189 2188 2189 2188 2189 2188 2189 2188 2189 2188 2189 2188 2189 2188 2189 2188 2189 2188 2189 2188 2189 2188 2189 2188 2189 2188 2189 2188 2189 2188 2189 2188 2189 2188 2189 2188 2189 2188 2189 2188 2189 2180 2181 2180 2181 2180 2181 -2 2180 2181 2180 2181 2180 2181 -2 2180 2189 2188 2189 2188 2189 2188 2189 2188 2189 2188 2189 2188 2189 2188 2189 2188 2189 2188 2189 2188 2189 2188 2189 2188 2189 2188 2189 2188 2189 2188 2189 2188 2189 2188 2189 2188 2189 2188 2189 2188 2189 2188 2189 2188 2189 2188 2189 2188 2189 2188 2189 2188 2195 2196 2195 2196 2195 2196 -2 2195 2196 2195 2196 2195 2196 2195 2181 2180 2181 2180 2181 2180 2182 2184 2181 2180 2181 2180 2181 2180 2181 2180 2181 2180 2181 2180 2181 2180 2181 2180 2181 2180 2181 2180 2181 2180 2181 2180 2181 2180 2181 2180 2181 2180 2181 2180 2181 2180 2181 2180 2181 2180 2181 2180 2181 2180 2181 2180 2181 2180 2181 2180 2181 2180 2181 2180 2181 2180 2181 2180 2181 2180 2181 2180 2181 2180 2181 2180 2181 2180 2181 2180 2181 2180 2181 2180 2181 2180 2181 2180 2181 2180 2181 2180 2181 2180 2181 2180 2181 2180 2181 2180 2181 2180 2181 2188 2189 2188 2189 2188 2189 -2 2188 2189 2188 2189 2188 2189 -2 2188 2196 2195 2196 2195 2196 2195 2196 2195 2196 2195 2196 2195 2196 2195 2196 2195 2196 2195 2196 2195 2196 2195 2196 2195 2196 2195 2196 2195 2196 2195 2196 2195 2196 2180 2181 2180 2181 2180 2181 -2 2180 2181 2180 2181 2180 2181 -2 2180 2181 2180 2181 -2 2180 2181 2180 2181 2180 2181 -2 2180 2181 2180 2181 2180 2181 2180 2189 2188 2189 2188 2189 2188 2190 2192 2189 2188 2189 2188 2189 2188 2189 2188 2189 2188 2189 2188 2189 2188 2189 2188 2189 2188 2189 2188 2189 2188 2189 2188 2189 2188 2189 2188 2189 2188 2189 2188 2189 2188 2189 2188 2189 2188 2189 2188 2189 2188 2189 2188 2189 2188 2189 2188 2189 2188 2189 2188 2189 2188 2189 2188 2189 2188 2189 2188 2189 2188 2189 2188 2189 2188 2189 2188 2189 2188 2189 2188 2189 2188 2189 2188 2189 2188 2189 2188 2189 2188 2189 2188 2189 2188 2189 2188 2189 2188 2189 2195 2196 2195 2196 2195 2196 -2 2195 2196 2195 2196 2195 2196 -2 2195 2181 2180 2181 2180 2181 2180 2181 2180 2181 2180 2181 2180 2181 2180 2181 2180 2181 2180 2181 2180 2181 2180 2181 2180 2181 2180 2181 2180 2181 2180 2181 2180 2181 2188 2189 2188 2189 2188 2189 -2 2188 2189 2188 2189 2188 2189 -2 2188 2189 2188 2189 -2 2188 2189 2188 2189 2188 2189 -2 2188 2189 2188 2189 2188 2189 2188 2181 2180 2181 2180 2181 2180 2190 2192 2181 2180 2181 2180 2181 2180 2181 2180 2181 2180 2181 2180 2181 2180 2181 2180 2181 2180 2181 2180 2181 2180 2181 2180 2181 2180 2181 2180 2181 2180 2181 2180 2181 2180 2181 2180 2181 2180 2181 2180 2181 2180 2181 2180 2181 2180 2181 2180 2181 2180 2181 2180 2181 2180 2181 2180 2181 2180 2181 2180 2181 2180 2181 2180 2181 2180 2181 2180 2181 2180 2181 2180 2181 2180 2181 2180 2181 2180 2181 2180 2181 2180 2181 2180 2181 2180 2181 2180 2181 2180 2181 2180 2181 2180 2181 2180 2181 -2 2180 2181 2180 2181 2180 2181 -2 2180 2189 2188 2189 2188 2189 2188 2189 2188 2189 2188 2189 2188 2189 2188 2189 2188 2189 2188 2189 2188 2189 2188 2189 2188 2189 2188 2189 2188 2189 2188 2189 2188 2189 2195 2196 2195 2196 2195 2196 -2 2195 2196 2195 2196 2195 2196 -2 2195 2196 2195 2196 2195 2180 2181 2180 2181 2180 2181 -2 2180 2181 2180 2181 2180 2181 2180 2189 2188 2189 2188 2189 2188 2189 2188 2189 2188 2189 2188 2189 2188 2189 2188 2189 2188 2189 2188 2189 2188 2189 2188 2189 2188 2189 2188 2189 2188 2189 2188 2189 2188 2189 2188 2189 2188 2189 2188 2189 2188 2189 2188 2189 2188 2189 2188 2189 2188 2189 2188 2189 2188 2189 2188 2189 2188 2189 2188 2189 2188 2189 2188 2189 2188 2189 2188 2189 2188 2189 2188 2189 2188 2189 2188 2189 2188 2189 2188 2189 2188 2189 2188 2189 2188 2189 2188 2189 2188 2189 2188 2189 2188 2189 2188 2189 2188 2189 2188 2189 2188 2189 2188 2189 -2 2188 2189 2188 2189 2188 2189 -2 2188 2196 2195 2196 2195 2196 2195 2196 2195 2196 2195 2196 2195 2196 2195 2196 2195 2196 2195 2196 2195 2196 2195 2196 2195 2196 2195 2196 2195 2196 2195 2196 2195 2196 2180 2181 2180 2181 2180 2181 -2 2180 2181 2180 2181 2180 2181 -2 2180 2181 2180 2181 2180 2188 2189 2188 2189 2188 2189 -2 2188 2189 2188 2189 2188 2189 2188 2181 2180 2181 2180 2181 2180 2181 2180 2181 2180 2181 2180 2181 2180 2181 2180 2181 2180 2181 2180 2181 2180 2181 2180 2181 2180 2181 2180 2181 2180 2181 2180 2181 2180 2181 2180 2181 2180 2181 2180 2181 2180 2181 2180 2181 2180 2181 2180 2181 2180 2181 2180 2181 2180 2181 2180 2181 2180 2181 2180 2181 2180 2181 2180 2181 2180 2181 2180 2181 2180 2181 2180 2181 2180 2181 2180 2181 2180 2181 2180 2181 2180 2181 2180 2181 2180 2181 2180 2181 2180 2181 2180 2181 2180 2181 2180 2181 2180 2181 2180 2181 2180 2181 2180 2181 -2 2180 2181 2180 2181 2180 2181 -2 2180 2181 2180 2181 2180 2181 2180 2181 2180 2181 2180 2181 2180 2181 2180 2181 2180 2181 2180 2181 2180 2181 2180 2181 2180 2181 2180 2181 2180 2181 2180 2181 2180 2181 2188 2189 2188 2189 2188 2189 -2 2188 2189 2188 2189 2188 2189 -2 2188 2189 2188 2189 2188 2195 2196 2195 2196 2195 2196 -2 2195 2196 2195 2196 2195 2196 2195 2189 2188 2189 2188 2189 2188 2189 2188 2189 2188 2189 2188 2189 2188 2189 2188 2189 2188 2189 2188 2189 2188 2189 2188 2189 2188 2189 2188 2189 2188 2189 2188 2189 2188 2189 2188 2189 2188 2189 2188 2189 2188 2189 2188 2189 2188 2189 2188 2189 2188 2189 2188 2189 2188 2189 2188 2189 2188 2189 2188 2189 2188 2189 2188 2189 2188 2189 2188 2189 2188 2189 2188 2189 2188 2189 2188 2189 2188 2189 2188 2189 2188 2189 2188 2189 2188 2189 2188 2189 2188 2189 2188 2189 2188 2189 2188 2189 2188 2189 2188 2189 2188 2189 2188 2189 -2 2188 2189 2188 2189 2188 2189 -2 2188 2189 2188 2189 2188 2189 2188 2189 2188 2189 2188 2189 2188 2189 2188 2189 2188 2189 2188 2189 2188 2189 2188 2189 2188 2189 2188 2189 2188 2189 2188 2189 2188 2189 2195 2196 2195 2196 2195 2196 -2 2195 2196 2195 2196 2195 2196 -2 2195 2196 2195 2196 2195 2180 2181 2180 2181 2180 2181 -2 2180 2181 2180 2181 2180 2181 2180 2181 2180 2181 2180 2181 2180 2181 2180 2181 2180 2181 2180 2181 2180 2181 2180 2181 2180 2181 2180 2181 2180 2181 2180 2181 2180 2181 2180 2181 2180 2181 2180 2181 2180 2181 2180 2181 2180 2181 2180 2181 2180 2181 2180 2181 2180 2181 2180 2181 2180 2181 2180 2181 2180 2181 2180 2181 2180 2181 2180 2181 2180 2181 2180 2181 2180 2181 2180 2181 2180 2181 2180 2181 2180 2181 2180 2181 2180 2181 2180 2181 2180 2181 2180 2181 2180 2181 2180 2181 2180 2181 2180 2181 2180 2181 2180 2181 2180 2181 2195 2196 2195 2196 2195 2196 -2 2195 2196 2195 2196 2195 2196 -2 2195 2196 2195 2196 2195 2196 2195 2196 2195 2196 2195 2196 2195 2196 2195 2196 2195 2196 2195 2196 2195 2196 2195 2196 2195 2196 2195 2196 2195 2196 2195 2196 2195 2196 2180 2181 2180 2181 2180 2181 -2 2180 2181 2180 2181 2180 2181 -2 2180 2181 2180 2181 2180 2188 2189 2188 2189 2188 2189 -2 2188 2189 2188 2189 2188 2189 2188 2189 2188 2189 2188 2189 2188 2189 2188 2189 2188 2189 2188 2189 2188 2189 2188 2189 2188 2189 2188 2189 2188 2189 2188 2189 2188 2189 2188 2189 2188 2189 2188 2189 2188 2189 2188 2189 2188 2189 2188 2189 2188 2189 2188 2189 2188 2189 2188 2189 2188 2189 2188 2189 2188 2189 2188 2189 2188 2189 2188 2189 2188 2189 2188 2189 2188 2189 2188 2189 2188 2189 2188 2189 2188 2189 2188 2189 2188 2189 2188 2189 2188 2189 2188 2189 2188 2189 2188 2189 2188 2189 2188 2189 2188 2189 2188 2189 2188 2189 2180 2181 2180 2181 2180 2181 -2 2180 2181 2180 2181 2180 2181 -2 2180 2181 2180 2181 2180 2181 2180 2181 2180 2181 2180 2181 2180 2181 2180 2181 2180 2181 2180 2181 2180 2181 2180 2181 2180 2181 2180 2181 2180 2181 2180 2181 2180 2181 2188 2189 2188 2189 2188 2189 -2 2188 2189 2188 2189 2188 2189 -2 2188 2189 2188 2189 2188 2189 -2 2188 2189 2188 2189 2188 2189 -2 2188 2189 2188 2189 0 2181 2180 2181 2180 2181 2180 2181 2180 2181 2180 2181 2180 2181 2180 2181 2180 2181 2180 2181 2180 2181 2180 2181 2180 2181 2180 2181 2180 2181 2180 2181 2180 2181 2180 2181 2180 2181 2180 2181 2180 2181 2180 2181 2180 2181 2180 2181 2180 2181 2180 2181 2180 2181 2180 2181 2180 2181 2180 2181 2180 2181 2180 2181 2180 2181 2180 2181 2180 2181 2180 2181 2180 2181 2180 2181 2180 2181 2180 2181 2180 2181 2180 2181 2180 2181 2180 2181 2180 2181 2180 2181 2180 2181 2180 2181 2180 2181 2180 2181 2188 2189 2188 2189 2188 2189 -2 2188 2189 2188 2189 2188 2189 -2 2188 2189 2188 2189 2188 2189 2188 2189 2188 2180 2181 2180 2181 2180 2181 -2 2180 2181 2180 2181 2180 2181 -2 2180 2181 2180 2181 2180 2181 -2 2180 2181 2180 2181 2180 2181 2180 2181 2180 2181 -2 2180 2181 2180 2181 2180 2181 -2 2180 2181 2180 2181 2180 2181 -2 2180 2181 2180 2181 2180 2181 -2 2180 2181 2180 2181 0 2189 2188 2189 2188 2189 2188 2189 2188 2189 2188 2189 2188 2189 2188 2189 2188 2189 2188 2189 2188 2189 2188 2189 2188 2189 2188 2189 2188 2189 2188 2189 2188 2189 2188 2189 2188 2189 2188 2189 2188 2189 2188 2189 2188 2189 2188 2189 2188 2189 2188 2189 2188 2189 2188 2189 2188 2189 2188 2189 2188 2189 2188 2189 2188 2189 2188 2189 2188 2189 2188 2189 2188 2189 2188 2189 2188 2189 2188 2189 2188 2189 2188 2189 2188 2189 2188 2189 2188 2189 2188 2189 2188 2189 2188 2189 2188 2189 2188 2189 2195 2196 2195 2196 2195 2196 -2 2195 2196 2195 2196 2195 2196 -2 2195 2196 2195 2196 2195 2196 2195 2196 2195 2188 2189 2188 2189 2188 2189 -2 2188 2189 2188 2189 2188 2189 -2 2188 2189 2188 2189 2188 2189 -2 2188 2189 2188 2189 2188 2189 2188 2189 2188 2189 -2 2188 2189 2188 2189 2188 2189 -2 2188 2189 2188 2189 2180 2181 2180 2181 2180 2181 -2 2180 2181 2180 2181 2180 2181 2189 0 2189 2188 2189 2188 2189 2188 2189 2188 2189 2188 2189 2188 2189 2188 2189 2188 2189 2188 2189 2180 2181 2180 2181 2180 2181 2180 2181 2180 2181 2180 2181 2180 2181 2180 2181 2180 2181 2180 2181 2180 2181 2180 2181 2180 2181 2180 2181 2180 2181 2180 2181 2180 2181 2180 2181 2180 2181 2180 2181 2180 2181 2180 2181 2180 2181 2180 2181 2180 2181 2180 2181 2180 2181 2180 2181 2180 2181 2180 2181 2180 2181 2180 2181 2180 2181 2180 2181 2180 2181 2180 2181 2180 2181 2180 2181 2180 2181 2180 2181 2180 2181 2180 2181 2180 2181 -2 2180 2181 2180 2181 2180 2181 -2 2180 2181 2180 2181 2180 2181 2180 2181 2180 2195 2196 2195 2196 2195 2196 -2 2195 2196 2195 2196 2195 2196 -2 2195 2196 2195 2196 2195 2196 -2 2195 2196 2195 2196 2195 2196 2195 2196 2195 2196 -2 2195 2196 2195 2196 2195 2196 -2 2195 2196 2195 2196 2188 2189 2188 2189 2188 2189 -2 2188 2189 2188 2189 2188 2189 2196 0 2181 2180 2181 2180 2181 2180 2181 2180 2181 2180 2181 2180 2181 2180 2181 2180 2181 2180 2181 2188 2189 2188 2189 2188 2189 2188 2189 2188 2189 2188 2189 2188 2189 2188 2189 2188 2189 2188 2189 2188 2189 2188 2189 2188 2189 2188 2189 2188 2189 2188 2189 2188 2189 2188 2189 2188 2189 2188 2189 2188 2189 2188 2189 2188 2189 2188 2189 2188 2189 2188 2189 2188 2189 2188 2189 2188 2189 2188 2189 2188 2189 2188 2189 2188 2189 2188 2189 2188 2189 2188 2189 2188 2189 2188 2189 2188 2189 2188 2189 2188 2189 2188 2189 2188 2189 -2 2188 2189 2188 2189 2188 2189 -2 2188 2189 2188 2189 2188 2189 2188 2189 2188 2180 2181 2180 2181 2180 2181 -2 2180 2181 2180 2181 2180 2181 -2 2180 2181 2180 2181 2180 2181 -2 2180 2181 2180 2181 2180 2181 2180 2181 2180 2181 -2 2180 2181 2180 2181 2180 2181 -2 2180 2181 2180 2181 2195 2196 2195 2196 2195 2196 -2 2195 2196 2195 2196 2195 2196 2181 0 2189 2188 2189 2188 2189 2188 2189 2188 2189 2188 2189 2188 2189 2188 2189 2188 2189 2188 2189 2180 2181 2180 2181 2180 2181 2180 2181 2180 2181 2180 2181 2180 2181 2180 2181 2180 2181 2180 2181 2180 2181 2180 2181 2180 2181 2180 2181 2180 2181 2180 2181 2180 2181 2180 2181 2180 2181 2180 2181 2180 2181 2180 2181 2180 2181 2180 2181 2180 2181 2180 2181 2180 2181 2180 2181 2180 2181 2180 2181 2180 2181 2180 2181 2180 2181 2180 2181 2180 2181 2180 2181 2180 2181 2180 2181 2180 2181 2180 2181 2180 2181 2180 2181 2180 2181 -2 2180 2181 2180 2181 2180 2181 -2 2180 2196 2195 2196 2195 2196 2195 2196 2195 2188 2189 2188 2189 2188 2189 -2 2188 2189 2188 2189 2188 2189 -2 2188 2189 2188 2189 2188 2189 -2 2188 2189 2188 2189 2188 2189 2188 2189 2188 2189 -2 2188 2189 2188 2189 2188 2189 -2 2188 2189 2188 2189 2180 2181 2180 2181 2180 2181 -2 2180 2181 2180 2181 2180 2181 2189 0 2181 2180 2181 2180 2181 2180 2181 2180 2181 2180 2181 2180 2181 2180 2181 2180 2181 2180 2181 2188 2189 2188 2189 2188 2189 2188 2189 2188 2189 2188 2189 2188 2189 2188 2189 2188 2189 2188 2189 2188 2189 2188 2189 2188 2189 2188 2189 2188 2189 2188 2189 2188 2189 2188 2189 2188 2189 2188 2189 2188 2189 2188 2189 2188 2189 2188 2189 2188 2189 2188 2189 2188 2189 2188 2189 2188 2189 2188 2189 2188 2189 2188 2189 2188 2189 2188 2189 2188 2189 2188 2189 2188 2189 2188 2189 2188 2189 2188 2189 2188 2189 2188 2189 2188 2189 -2 2188 2189 2188 2189 2188 2189 -2 2188 2181 2180 2181 2180 2181 2180 2181 2180 2195 2196 2195 2196 2195 2196 -2 2195 2196 2195 2196 2195 2196 -2 2195 2196 2195 2196 2195 2196 -2 2195 2196 2195 2196 2195 2196 2195 2196 2195 2196 -2 2195 2196 2195 2196 2195 2196 -2 2195 2196 2195 2196 2188 2189 2188 2189 2188 2189 -2 2188 2189 2188 2189 2188 2189 2196 0 2189 2188 2189 2188 2189 2188 2189 2188 2189 2188 2189 2188 2189 2188 2189 2188 2189 2188 2189 2180 2181 2180 2181 2180 2181 2180 2181 2180 2181 2180 2181 2180 2181 2180 2181 2180 2181 2180 2181 2180 2181 2180 2181 2180 2181 2180 2181 2180 2181 2180 2181 2180 2181 2180 2181 2180 2181 2180 2181 2180 2181 2180 2181 2180 2181 2180 2181 2180 2181 2180 2181 2180 2181 2180 2181 2180 2181 2180 2181 2180 2181 2180 2181 2180 2181 2180 2181 2180 2181 2180 2181 2180 2181 2180 2181 2180 2181 2180 2181 2195 2196 2195 2196 2195 2196 -2 2195 2196 2195 2196 2195 2196 -2 2195 2189 2188 2189 2188 2189 2188 2189 2188 2180 2181 2180 2181 2180 2181 -2 2180 2181 2180 2181 2180 2181 -2 2180 2181 2180 2181 2180 2181 -2 2180 2181 2180 2181 2180 2181 2180 2181 2180 2181 -2 2180 2181 2180 2181 2180 2181 -2 2180 2181 2180 2181 2195 2196 2195 2196 2195 2196 -2 2195 2196 2195 2196 2195 2196 2181 0 2181 2180 2181 2180 2181 2180 2181 2180 2181 2180 2181 2180 2181 2180 2181 2180 2181 2180 2181 2188 2189 2188 2189 2188 2189 2188 2189 2188 2189 2188 2189 2188 2189 2188 2189 2188 2189 2188 2189 2188 2189 2188 2189 2188 2189 2188 2189 2188 2189 2188 2189 2188 2189 2188 2189 2188 2189 2188 2189 2188 2189 2188 2189 2188 2189 2188 2189 2188 2189 2188 2189 2188 2189 2188 2189 2188 2189 2188 2189 2188 2189 2188 2189 2188 2189 2188 2189 2188 2189 2188 2189 2188 2189 2188 2189 2188 2189 2188 2189 2180 2181 2180 2181 2180 2181 -2 2180 2181 2180 2181 2180 2181 -2 2180 2196 2195 2196 2195 2196 2195 2196 2195 2188 2189 2188 2189 2188 2189 -2 2188 2189 2188 2189 2188 2189 -2 2188 2189 2188 2189 2188 2189 -2 2188 2189 2188 2189 2188 2189 2188 2189 2188 2189 -2 2188 2189 2188 2189 2188 2189 -2 2188 2189 2188 2189 2180 2181 2180 2181 2180 2181 -2 2180 2181 2180 2181 2180 2181 2189 0 2189 2188 2189 2188 2189 2188 2189 2188 2189 2188 2189 2188 2189 2188 2189 2188 2189 2188 2189 2180 2181 2180 2181 2180 2181 2180 2181 2180 2181 2180 2181 2180 2181 2180 2181 2180 2181 2180 2181 2180 2181 2180 2181 2180 2181 2180 2181 2180 2181 2180 2181 2180 2181 2180 2181 2180 2181 2180 2181 2180 2181 2180 2181 2180 2181 2180 2181 2180 2181 2180 2181 2180 2181 2180 2181 2180 2181 2180 2181 2180 2181 2180 2181 2180 2181 2180 2181 2180 2181 2180 2181 2180 2181 2180 2181 2180 2181 2180 2181 2188 2189 2188 2189 2188 2189 -2 2188 2189 2188 2189 2188 2189 -2 2188 2181 2180 2181 2180 2181 2180 2181 -2 2180 2181 2180 2181 2180 2181 -2 2180 2181 2180 2181 2180 2181 -2 2180 2181 2180 2181 2180 2181 -2 2180 2181 2180 2181 2180 2181 2180 2181 2180 2181 -2 2180 2181 2180 2181 2180 2181 -2 2180 2181 2180 2181 2180 2181 -2 2180 2181 2180 2181 2180 2181 -2 2180 2181 2180 2181 0 2181 2180 2181 2180 2181 2180 2181 2180 2181 2180 2181 2180 2181 2180 2181 2180 2181 2180 2181 2188 2189 2188 2189 2188 2189 2188 2189 2188 2189 2188 2189 2188 2189 2188 2189 2188 2189 2188 2189 2188 2189 2188 2189 2188 2189 2188 2189 2188 2189 2188 2189 2188 3183 2188 2189 2188 2189 2188 2189 2188 2189 2188 2189 2188 2189 2188 2189 2188 2189 2188 2189 2188 2189 2188 2189 2188 2189 2188 2189 2188 2189 2188 2189 2188 2189 2188 2189 2188 2189 2188 2189 2188 2189 2188 2189 2188 2189 2188 2189 2195 2196 2195 2196 2195 2196 -2 2195 2196 2195 2196 2195 2196 -2 2195 2189 2188 2189 2188 2189 2188 2189 -2 2188 2189 2188 2189 2188 2189 -2 2188 2189 2188 2189 2188 2189 -2 2188 2189 2188 2189 2188 2189 -2 2188 2189 2188 2189 2188 2189 2188 2189 2188 2189 -2 2188 2189 2188 2189 2188 2189 -2 2188 2189 2188 2189 2188 2189 -2 2188 2189 2188 2189 2188 2189 -2 2188 2189 2188 2189 0 2189 2188 2189 2188 2189 2188 2189 2188 2189 2188 2189 2188 2189 2188 2189 2188 2189 2188 2189 2180 2181 2180 2181 2180 2181 2180 2181 2180 2181 2180 2181 2180 2181 2180 2181 2180 2181 2180 2181 2180 2181 2180 2181 2180 2181 2180 2181 2180 2181 2180 2181 2180 2181 2180 2181 2180 2181 2180 2181 2180 2181 2180 2181 2180 2181 2180 2181 2180 2181 2180 2181 2180 2181 2180 2181 2180 2181 2180 2181 2180 2181 2180 2181 2180 2181 2180 2181 2180 2181 2180 2181 2180 2181 2180 2181 2180 -3 2181 2180 2181 2180 2181 2180 2181 -2 2180 2181 2180 -2 2181 -2 2180 2196 2195 2196 2195 2196 2195 2196 2195 2181 -2 2180 2196 2195 2196 -3 2195 2196 2195 2196 2195 2196 -2 2195 2196 2195 2196 2195 2196 -2 2195 2196 2195 2196 2195 2196 2195 2196 2195 2196 -2 2195 2196 2195 2196 2195 2196 -2 2195 2196 2195 2196 2195 2196 -2 2195 2196 2195 2196 2195 2196 -2 2195 2196 2195 2196 0 2189 2188 2189 2188 2189 2188 2189 2188 2189 2188 2189 2188 2189 2188 2189 2188 2189 2188 2189 2188 2189 0 2189 2188 2189 2188 2189 2188 2189 2188 2189 2188 2189 2188 2189 2188 2189 2188 2189 2188 2189 2188 2189 2188 2189 2188 2189 2188 2189 2188 2189 2188 2189 2188 2189 2188 2189 2188 2189 2188 2189 2188 2189 2188 2189 2188 2189 2188 2189 2188 2189 2188 2189 2188 2189 2188 2189 2188 2189 2188 2189 2188 2189 2188 2189 2188 2189 2188 2189 2188 2189 2188 2189 2188 2189 2188 2189 2188 2189 2188 2189 2188 2189 2188 2189 -2 2188 2189 2188 -2 2189 -2 2188 2181 2180 2181 2180 2181 2180 2181 2180 2189 -2 2188 2181 2180 2181 -3 2180 2181 2180 2181 2180 2181 -2 2180 2181 2180 2181 2180 2181 -2 2180 2181 2180 2181 2180 2181 2180 2181 2180 2181 -2 2180 2181 2180 2181 2180 2181 -2 2180 2181 2180 2181 2180 2181 -2 2180 2181 2180 2181 2180 2181 -2 2180 2181 2180 2181 0 2181 2180 2181 2180 2181 2180 2181 2180 2181 2180 2181 2180 2181 2180 2181 2180 2181 2180 2181 2180 2181 2180 2181 2180 2181 2180 2181 2180 2181 2180 2181 2180 2181 2180 2181 2180 2181 2180 2181 2180 2181 2180 2181 2180 2181 2180 2181 2180 2181 2180 2181 2180 2181 2180 2181 2180 2181 2180 2181 2180 2181 2180 2181 2180 2181 2180 2181 2180 2181 2180 2181 2180 2181 2180 2181 2180 2181 2180 2181 2180 2181 2180 2181 2180 2181 2180 2181 2180 2181 2180 2181 2180 2181 2180 2181 2180 2181 2180 2181 2180 2181 2180 2181 2180 2181 -2 2180 2181 2180 2181 2196 -2 2195 2189 2188 2189 2188 2189 2188 2189 2188 2196 -2 2195 2189 2188 2189 -3 2188 2189 2188 2189 2188 2189 -2 2188 2189 2188 2189 2188 2189 -2 2188 2189 2188 2189 2188 2189 2188 2189 2188 2189 -2 2188 2189 2188 2189 2188 2189 -2 2188 2189 2188 2189 2188 2189 -2 2188 2189 2188 2189 2188 2189 -2 2188 2189 2188 2189 0)
    )
    (tilemap
      (solid #f)
      (z-pos 100)
      (width 180)
      (height 35)
      (tiles -158 0 -22 11 -88 0 2925 2926 -4 11 2929 2930 -62 0 -3 11 30 -9 17 2925 2926 -7 11 -90 0 -4 17 2931 -30 0 2941 -35 0 18 -10 0 2928 31 -6 11 -74 0 -3 11 -96 0 10 -3 11 30 -2 17 -74 0 1549 -2 11 -96 0 16 -3 17 18 -76 0 1543 1544 11 -103 0 -12 2385 2386 -61 0 1547 1548 11 -77 0 130 -25 0 -12 2388 2389 -61 0 10 11 30 18 -76 0 129 -99 0 10 11 12 -77 0 129 -99 0 16 17 18 -77 0 129 -179 0 129 -179 0 129 -179 0 4967 -558 0 4442 4443 -178 0 5358 5359 -179 0 4619 -909 0 2385 -1292 0 2986 -5 2385 2990 -8 0 2390 -149 0 -14 2385 2983 2987 -5 2388 2991 2994 -7 2385 2961 -149 0 -14 2388 2984 2988 -5 2391 2992 2995 -7 2388 2960 -487 0)
    )
    (tilemap
      (solid #t)
      (z-pos 0)
      (width 180)
      (height 35)
      (tiles -31 11 -7 2127 -57 11 -14 2127 -17 11 5358 5359 5358 5359 4619 5358 5359 5358 5359 -2 4619 5358 5359 5358 5359 4619 4442 4443 4619 -35 11 -12 17 2925 2926 -4 11 2929 2930 -5 17 2937 2940 -23 17 2925 2926 -5 11 4619 -13 11 19 11 4619 -3 11 30 -10 17 2925 2926 -4 11 2929 2930 -5 17 2933 -2 2127 4619 -4 2127 -3 11 4619 -3 11 30 -3 17 3055 -3 17 2937 2940 17 4619 -8 0 -2 44 -4 0 5358 5359 2926 -2 2127 11 4442 4443 -3 11 2124 -2 2132 2125 -4 11 -13 0 -6 11 -4 0 2162 -8 0 2928 17 2937 2940 17 2931 0 2160 2161 -2 0 2160 2938 2941 -24 0 2928 31 -18 11 19 -5 11 12 -11 0 2928 17 3064 3063 -2 3066 -6 0 2934 2937 -4 11 4619 -8 11 12 -3 0 3059 -3 0 2938 2941 -18 0 2928 2925 2926 11 5358 5359 -3 11 2129 -2 2122 2130 -2 11 2929 2930 -13 0 -3 11 -4 0 -2 44 0 2162 -10 0 2938 2941 -3 0 2160 2161 -2 0 2160 2939 2942 -25 0 10 11 4619 -2 11 4442 4619 4443 11 4442 4443 11 4442 4619 4443 11 4442 4443 11 4442 4619 4443 -3 11 12 -12 0 3064 -3 3063 3066 -7 0 2938 -13 11 12 -7 0 2939 2942 -9 0 -4 44 -7 0 2928 2925 2926 -8 11 2929 2930 2931 -21 0 -2 44 0 2162 -10 0 2939 2942 -3 0 2160 2161 -2 0 2160 2161 -16 0 4442 4443 -8 0 10 -3 11 4619 5358 4619 5359 4619 5358 5359 4619 5358 4619 5359 4619 5358 5359 4619 5358 4619 5359 4619 -2 11 12 -12 0 3064 -3 3063 3066 -7 0 2939 -7 17 31 -3 11 2929 2930 18 -17 0 4442 4443 4442 4443 4442 4443 -8 0 2928 -4 17 0 -3 17 2931 -26 0 2162 -15 0 2160 2161 -2 0 2160 2161 -16 0 5358 5359 -8 0 10 -2 11 4619 -12 0 2154 -5 0 -2 17 31 12 -12 0 3064 -3 3063 3066 -15 0 10 11 30 17 2931 -17 0 4442 4443 5358 5359 5358 5359 5358 5359 -2 4619 -38 0 2385 -2 0 2385 2162 -7 2385 2386 -7 0 2160 2161 -2 0 2160 2161 -16 0 4619 4443 -5 0 44 -2 0 16 2925 2926 12 -3 0 2986 -5 2385 2386 -2 0 2162 -5 0 2384 2385 10 12 -11 2385 2386 3064 -3 3063 3066 -15 0 10 11 4619 -19 0 5358 5359 4619 4442 4443 4442 4443 4442 4443 4442 4443 -37 0 -12 2388 2389 -7 0 2160 2161 -2 0 2160 2161 -16 0 5358 5359 -3 0 44 -3 0 44 -2 0 2928 18 0 2986 2983 2987 -5 2388 2389 -2 0 2162 -5 0 2387 2388 2960 -12 2388 2389 3064 -3 3063 3066 -15 0 10 11 12 -18 0 4442 4443 4442 4443 5358 5359 5358 5359 5358 5359 5358 5359 -37 0 -2 2391 1549 -2 2391 2396 2391 1549 -4 2391 2973 -7 0 2160 2161 -2 0 2160 2161 -16 0 4442 4619 0 44 -6 0 2384 -3 2385 2983 2987 2984 2988 -5 2391 2392 -2 0 2162 -5 0 2967 -14 2391 2392 3064 -3 3063 3066 2384 -14 2385 10 11 12 -18 0 5358 5359 5358 5359 -2 4619 4442 4443 -2 4619 4442 4443 4619 -36 0 -2 2391 1549 -2 2391 2397 2396 -2 2391 1549 -2 2391 2974 -4 0 2155 2156 2157 2160 2161 -2 0 2160 2161 -7 0 1822 1823 -6 0 2384 5358 4619 2386 -7 0 2387 -3 2388 2984 2988 -7 2391 2392 -2 0 2162 -5 0 2968 2394 2962 -12 2391 2392 3064 -3 3063 3066 2387 -14 2388 16 17 18 -20 0 4442 4443 4442 4443 5358 5359 4442 4443 5358 5359 4442 4443 -35 0 -9 2391 2992 2391 2982 -8 0 2160 2161 -2 0 2160 2161 -7 0 1824 1825 -6 0 2953 -2 2954 2955 -7 0 2390 -5 2391 4442 4443 -5 2391 2392 -2 0 2162 -7 0 2390 -12 2391 2392 3064 -3 3063 3066 2390 -15 2391 2392 -21 0 5358 5359 5358 5359 -2 4619 5358 5359 4442 4443 5358 5359 -35 0 -9 2394 2993 2996 -9 0 2160 2161 -2 0 2160 2161 -5 0 4619 4442 4443 4442 4443 4619 -15 0 2390 -5 2391 5358 4619 -5 2391 2392 -2 0 2162 -7 0 2390 -7 2391 4619 -4 2391 2392 3064 -3 3063 3066 2390 -10 2391 4619 -4 2391 2392 -5 2156 2157 -16 0 4442 4443 4619 4442 4443 4442 4443 5358 5359 -2 4619 -15 0 4094 4095 -22 0 2162 -15 0 2160 2161 -2 0 2160 2161 -6 0 5358 5359 5358 5359 -14 0 2384 2385 2961 -2 2391 4619 -2 2391 -2 4619 4443 -4 2391 2392 0 44 2162 44 -6 0 2390 -3 2391 4442 4443 -7 2391 2392 3064 -3 3063 3066 2390 -3 2391 4442 4443 -10 2391 2392 -22 0 5358 5359 4619 5358 5359 5358 5359 4442 4443 4442 4443 -15 0 4096 4097 -22 0 2162 -15 0 4442 4443 -2 44 4442 4443 -24 0 2387 2388 2960 -6 2391 5358 5359 -4 2391 2392 0 44 2162 44 -5 0 2986 2961 -3 2391 5358 5359 -7 2391 2392 3064 -3 3063 3066 2390 -3 2391 5358 5359 -2 2391 4619 -3 2391 4442 4443 -2 2391 2392 -22 0 4442 4443 4442 4443 -3 4619 5358 5359 5358 5359 4442 4443 -5 0 4442 4443 4442 4443 -4 0 4098 4099 -22 0 2162 -15 0 5358 5359 -2 4619 5358 5359 -24 0 2967 -14 2391 2392 -2 0 2162 -4 0 2986 2983 2987 2960 -8 2391 4442 4443 -2 2391 2392 3064 -3 3063 3066 2390 4619 -7 2391 4619 -2 2391 5358 5359 -2 2391 2392 -2 0 2986 2990 -18 0 5358 5359 5358 5359 4442 4443 4442 4443 4442 4443 4619 5358 5359 4619 4442 4443 4442 4443 5358 5359 5358 5359 4619 4442 4443 4442 4443 4442 4443 4442 4443 4619 -18 0 2162 -45 0 2968 -14 2391 2392 -2 0 2162 -2 0 2384 2983 2987 2984 2988 2391 4619 -7 2391 5358 5359 -2 2391 2392 3064 -3 3063 3066 2390 -15 2391 2958 2385 2983 2987 2991 2994 -3 2385 2386 -13 0 4442 4443 -2 4619 5358 5359 5358 5359 5358 5359 4442 4443 4442 4443 -2 4619 5358 5359 4442 4443 4442 4443 4619 5358 5359 5358 5359 5358 5359 5358 5359 -2 4619 4442 4443 -2 4619 4442 4443 4442 4443 4442 4443 4442 4443 4442 -4 0 2162 -10 0 2386 -35 0 2967 -13 2391 2392 -2 0 2162 -2 0 2387 2984 2988 -7 2391 4619 -7 2391 2392 3064 -3 3063 3066 2390 -15 2391 2959 2388 2984 2391 4619 2995 -3 2388 2389 -13 0 5358 5359 4619 4442 4443 -2 4619 4442 4443 4619 5358 5359 5358 5359 5358 5359 -2 4619 5358 5359 5358 5359 -2 4619 4442 4443 4619 4442 4443 -2 4619 4442 4443 5358 5359 -2 4619 5358 5359 5358 5359 5358 5359 5358 5359 5358 4442 4443 4442 4443 4442 4443 4442 4443 4442 1549 4442 4443 4442 4443 4442 2389 -35 0 2968 -3 2391 2962 -9 2391 2392 -2 0 2162 -2 0 2390 -17 2391 2392 3064 -3 3063 3066 2390 -2 2391 4619 -12 2391 -7 2992 -2 2394 2395 -12 0 -2 4619 4442 4443 5358 5359 4442 4443 5358 5359 -2 4619 4442 4443 -2 4619 4442 4443 -2 4619 4442 4443 -2 4619 4443 5358 5359 4619 5358 5359 4442 4443 5358 5359 4619 4442 4443 4619 4442 4443 4619 0 -3 4619 -2 0 5358 1549 5358 5359 5358 1549 5358 5359 5358 5359 5358 5359 5358 5359 5358 2392 -36 0 2390 -12 2391 2392 -2 0 2162 -2 0 2390 -13 2391 4619 -3 2391 2392 3064 -3 3063 3066 2390 -7 2391 4619 -2 2391 4442 4443 -3 2391 -5 2992 2993 2996 2160 2161 -8 0 -3 4619 4442 4443 -2 4619 5358 5359 -2 4619 5358 5359 4442 4443 -2 4619 5358 5359 -2 4619 5358 5359 -2 4619 5358 5359 4619 5358 5359 -5 4619 5358 5359 -3 4619 5358 5359 4619 5358 5359 4619 -6 0 -4 2391 2988 2992 -5 2391 2988 2992 -2 2391 2392 -3 0 -3 44 -30 0 2390 -12 2391 2392 -2 0 2162 -2 0 2390 -8 2391 4442 4443 -7 2391 2392 3064 -3 3063 3066 2390 -10 2391 5358 5359 -3 2391 -3 2992 2993 2996 -2 0 2160 2161 -2 0 44 -3 0 4442 4443 4442 4443 4619 5358 5359 -4 4619 4442 4443 -2 4619 5358 5359 -6 0 4619 4442 4443 4619 -7 0 -2 4619 4442 4443 4442 4443 4442 4443 -2 4619 -10 0 -7 2391 2988 2992 -3 2391 2397 -2 2391 2392 -3 0 2384 2385 2386 -30 0 2390 -9 2391 4619 -2 2391 2392 -2 0 2162 -2 0 2390 -5 2391 4442 4443 2391 5358 5359 -3 2391 4619 -3 2391 2392 3064 -3 3063 3066 2390 -15 2391 2992 2993 2996 -4 0 2160 2161 -5 0 4619 5358 5359 5358 5359 4442 4443 4619 4442 4443 -2 4619 5358 5359 4442 4443 4619 -8 0 5358 5359 -10 0 5358 5359 5358 5359 5358 5359 -12 0 -12 2391 2398 -2 2391 2392 -3 0 2953 2954 2955 -30 0 2390 -12 2391 2392 -2 0 2162 -2 0 2390 -5 2391 5358 5359 -10 2391 2392 3064 -3 3063 3066 2390 -6 2391 4619 -5 2391 4619 2391 2993 2996 -6 0 2160 2161 -2 0 44 0 4442 4443 -4 4619 5358 5359 4619 5358 5359 4442 4443 -2 4619 5358 5359 4619 2019 2140 2141 2142 2019 2140 2141 2142 2019 2140 2141 2142 2019 2140 2141 2142 2019 2140 2141 2142 2019 2140 2141 2142 2019 2140 2141 2142 2019 2140 2141 2142 2019 2140 2141 2142 2019 2140 -3 2391 2957 2394 2962 -9 2391 2392 -36 0 2390 -12 2391 2392 -2 0 2162 -2 0 2390 -3 2391 4442 4443 4619 -11 2391 2395 3064 -3 3063 3066 2393 2399 -12 2391 2982 -8 0 2160 2161 -4 0 5358 5359 4619 4442 4443 -2 4619 4442 4443 -2 4619 5358 5359 4619 4442 4443 4442 4443 -38 2020 -3 2391 2958 4619 2961 2391 4619 -7 2391 2392 -10 0 2384 2385 2386 -23 0 2390 -12 2391 2392 -2 0 2162 -2 0 2390 -3 2391 5358 5359 -10 2391 2993 2996 0 3064 -3 3063 3066 0 2985 2989 -10 2391 2973 -9 0 2160 2161 -4 0 -3 4619 5358 5359 -2 4619 5358 5359 -5 4619 5358 5359 5358 5359 -38 2020 -3 2391 2959 2388 2960 4619 -3 2391 2397 -2 2391 2399 2391 2392 -10 0 2387 2388 2389 -23 0 2390 -12 2391 2392 -2 0 2162 -2 0 2390 -13 2391 2993 2996 -3 0 3064 -3 3063 3066 -3 0 2978 -9 2391 2974 -9 0 2160 2161 -2 0 44 0 4442 4443 -2 4619 4442 4443 4442 4443 -2 4619 4442 4443 -5 4619 -39 2020 -11 2391 4442 4443 -2 2391 2392 -10 0 2393 4619 2395 -23 0 2390 -6 2391 4442 4619 -4 2391 2392 -2 0 2162 -2 0 2390 -12 2391 2982 -5 0 3064 -3 3063 3066 -4 0 2967 -4 2391 4442 4443 2391 2392 -10 0 2160 2161 -4 0 5358 5359 -2 4619 5358 5359 5358 5359 -2 4619 5358 5359 4442 4443 4442 4443 -40 2020 -11 2391 5358 5359 -2 2391 2392 -6 0 44 -29 0 2390 -6 2391 4619 5359 -4 2391 2392 -2 0 2162 -2 0 2390 -11 2391 2973 -6 0 3064 -3 3063 3066 -4 0 2968 -4 2391 5358 5359 2391 2392 -10 0 2160 2161 -2 0 44 0 4442 4443 4442 4443 4442 4443 4619 4442 4443 4442 4443 4619 5358 5359 5358 5359 -40 2020 -7 2391 1549 -2 2391 2397 -2 2391 2399 2391 2392 -5 0 2155 2164 2157 -28 0 2390 -12 2391 2392 -2 0 2162 -2 0 2390 -5 2391 2957 -2 2394 2962 -2 2391 2974 -6 0 -5 3061 -5 0 2390 -6 2391 2392 -10 0 2160 2161 -4 0 5358 5359 5358 5359 5358 5359 4619 5358 5359 5358 5359 4442 4443 4442 4443 -41 2020 -15 2391 2392 -6 0 2162 -11 0 48 2141 2142 48 -14 0 2390 -12 2391 2392 -2 0 2162 -2 0 2390 -5 2391 2392 -2 0 2390 2391 2392 -17 0 2393 -6 2394 2395 -10 0 2160 2161 -4 0 4442 4443 -5 4619 4442 4443 4442 4443 5358 4619 5358 5359 -41 2020 -15 2391 2392 -6 0 2162 -11 0 4619 -2 2020 4619 -14 0 2390 -12 2391 2392 -2 0 2162 -2 0 2393 -5 2394 2395 -2 0 2393 2394 2395 -19 0 44 0 44 0 44 0 44 -9 0 2160 2161 -4 0 5358 5359 4442 4443 -3 4619 5358 5359 5358 5359 4442 4443 4442 4443 -41 2020 4442 4443 4442 4443 4442 4443 4442 4443 4442 4443 4442 4443 4442 4443 4442 4443 4442 4619 4442 4443 4442 4619 4442 4443 4619 4443 4442 4443 4442 4443 4442 4443 4442 4443 -4 4619 4442 4443 4442 4443 4442 4443 -3 4619 4443 4442 4443 4442 4443 2390 -12 2391 2392 -2 0 2162 -33 0 44 0 44 0 44 0 44 -9 0 2160 2161 -4 0 4442 4443 5358 5359 -3 4619 4442 4443 4442 4443 5358 5359 5358 5359 -41 2020 5358 5359 5358 5359 5358 5359 5358 5359 5358 5359 5358 5359 5358 5359 5358 5359 5358 4619 5358 5359 4619 5359 5358 5359 5358 5359 5358 5359 5358 5359 5358 5359 5358 4619 5358 5359 5358 5359 4736 -2 4738 4737 4739 5359 5358 5359 5358 5359 5358 4619 5358 5359 2390 -12 2391 2392 -2 0 2162 -3 0 -2 44 0 -2 44 -9 0 2155 -3 2156 2164 -4 2156 2164 -3 2156 2157 0 2384 -7 2385 2386 -8 0 2160 2161 -4 0 5358 5359 4442 4443 4442 4443 4619 5358 5359 5358 5359 4442 4443 4619 4443 -41 2020 4737 -3 4738 4737 7227 7222 -2 7223 -3 7222 7228 -2 4738 -4 4737 4738 4737 4738 -3 4737 -2 4738 -2 4737 -2 4738 4737 4738 -3 4737 -2 4738 4727 4750 4764 4763 4753 7227 7223 7222 7228 4738 4739 4619 4736 4737 -3 4738 4739 4442 4619 -7 2391 2392 -2 0 2162 -2 0 2384 -5 2385 2386 -12 0 2162 -4 0 2162 -5 0 2387 -7 2388 2997 -14 2385 2961 4619 5358 5359 5358 5359 -3 4619 4442 4443 5358 5359 5358 5359 -41 2020 -3 4764 4751 4750 4752 -6 4619 4749 4751 4764 4763 4750 4751 4750 4763 4764 4763 4751 4764 4750 4619 4750 4764 4751 4750 4763 4750 4619 4750 4751 4764 4763 4751 -2 4750 4751 4763 4751 4752 4442 4443 4749 4751 4753 4738 4727 4766 4776 4740 4764 4765 5358 5359 -7 2391 2958 -5 2385 2998 -5 2388 2997 -5 2385 2386 -6 0 2162 -4 0 2162 -5 0 2390 2391 4619 -3 2391 4442 4443 2959 -14 2388 2960 4442 4443 4619 4442 4443 4442 4443 4619 5358 5359 4442 4443 4442 4443 -41 2020 -2 4750 4763 4750 4751 4753 -4 4738 -2 4737 4727 4763 4751 4763 4751 -3 4750 4763 -3 4750 4763 4750 4763 -4 4764 4763 4750 4763 -2 4764 4750 4751 4764 4751 -3 4750 4765 5358 5359 4749 -2 4751 -2 4763 4752 4619 4762 4751 4753 4738 4739 -7 2391 2959 -5 2388 2960 4442 4443 2391 4619 2391 2959 -5 2388 2389 4442 4443 4619 4442 4619 4443 4442 4443 4619 4442 4619 4443 4442 4443 4619 4442 4443 2390 -5 2391 5358 5359 -9 2391 4619 -5 2391 4619 5358 5359 4619 5358 5359 5358 5359 4619 4442 4443 5358 5359 5358 5359 -41 2020)
    )
    (tilemap
      (solid #f)
      (speed-x 0.8)
      (z-pos -101)
      (name "hintern")
      (width 180)
      (height 35)
      (tiles -2526 0 -2 2035 -178 0 -2 2035 -178 0 -2 2035 -3412 0)
    )
    (tilemap
      (solid #f)
      (z-pos -50)
      (width 180)
      (height 35)
      (tiles -96 0 2060 2061 2059 -85 0 2154 -15 0 2158 2159 -2 0 2158 2159 -5 0 2158 2159 -2 0 2158 2159 -46 0 2154 -10 0 2057 2060 2065 2066 2059 -37 0 2158 2159 -66 0 2160 2161 -5 0 2160 2161 -2 0 2160 2161 -46 0 2162 -6 0 3064 3063 3060 3063 2057 2050 2051 2066 2059 -37 0 2160 2161 -7 0 2158 2159 -64 0 2160 2161 -2 0 2160 2161 -46 0 2162 -10 0 2057 2059 2057 2066 2059 -37 0 2160 2161 -7 0 2160 2161 -64 0 2160 2161 -2 0 2160 2161 -46 0 2162 -10 0 2057 2059 2057 2050 2064 -4 0 2158 2159 -11 0 2154 -28 0 2160 2161 -64 0 2160 2161 -2 0 2160 2161 -23 0 2154 -4 0 2154 -2 0 2057 2058 2059 -12 0 2162 -10 0 2057 2055 2056 2059 -5 0 2160 2161 -11 0 2162 -28 0 2160 2161 -64 0 2160 2161 -2 0 2160 2161 -15 0 2158 2159 -6 0 2162 -4 0 2162 -2 0 2057 2058 2059 -6 0 2385 -5 0 2162 -10 0 2057 -2 2065 2059 -5 0 2160 2161 -11 0 2162 -28 0 2160 2161 -5 0 130 -58 0 2160 2161 -2 0 2160 2161 -15 0 2160 2161 -14 0 2057 2050 2064 -23 0 2057 2065 2060 2059 -5 0 2160 2161 -11 0 2162 -28 0 2160 2161 -5 0 129 -58 0 2160 2161 -2 0 2160 2161 -15 0 2160 2161 -11 0 -3 2053 2056 2059 -24 0 2057 -2 2065 2059 -5 0 2160 2161 -5 0 -2 2385 -4 0 2162 -28 0 2160 2161 -5 0 129 -58 0 2160 2161 -2 0 2160 2161 -28 0 -4 2063 2064 -24 0 2057 2058 -14 0 2388 2392 -4 0 2162 -14 0 2158 2159 -12 0 2160 2161 -5 0 129 -18 0 2165 -39 0 2160 2161 -2 0 2160 2161 -5 0 2057 2059 -50 0 2057 2058 -20 0 2162 -14 0 2160 2161 -12 0 2160 2161 -5 0 129 -4 0 2155 2164 2157 -11 0 2162 -12 0 2154 -37 0 2057 2059 -50 0 2057 2058 -15 0 -5 2156 2164 2157 -13 0 2160 2161 -12 0 2160 2161 -5 0 129 -5 0 2162 -8 0 2165 -3 0 2162 -50 0 2057 2059 -50 0 2062 2063 -20 0 2162 -14 0 2160 2161 -12 0 2160 2161 -5 0 4967 -5 0 2162 -8 0 2162 -3 0 2162 -50 0 2057 2055 2054 -71 0 2162 -14 0 2160 2161 -25 0 2162 -8 0 2162 -3 0 2162 -50 0 2062 2063 2064 -71 0 2162 -14 0 2160 2161 -34 0 2162 -3 0 2162 -124 0 2162 -14 0 2160 2161 -41 0 4443 -136 0 2160 2161 -41 0 5359 -123 0 2158 2159 -11 0 2160 2161 -221 0 4619 -94 0 -7 2053 -173 0 -3 2063 2051 -3 2058 -176 0 2062 -3 2063 -87 0 -3 1549 -177 0 1549 0 1549 -177 0 -3 1549 -815 0 2154 -152 0 2154 -7 0 2154 -18 0 2162 -130 0 1543 1544 -20 0 2162 -7 0 2162 -18 0 2162 -130 0 1547 1548 -20 0 2162 -7 0 2162 -18 0 2162 -152 0 2162 -7 0 2162 -35 0 2160 2161 -128 0 2162 -13 0 2162 -277 0)
    )
    (tilemap
      (solid #f)
      (speed-x 0.8999998)
      (tint 0.3 0.4 0.6)
      (z-pos -100)
      (name "backdark")
      (width 180)
      (height 35)
      (tiles -376 0 4619 -31 0 4894 4896 -91 0 4894 4896 -51 0 4442 4443 4442 4443 -30 0 4900 4902 -36 0 4619 -41 0 4894 4896 -11 0 4900 4902 -46 0 4894 4896 -2 0 4619 5358 4442 4443 5359 -15 0 4619 -2 0 4894 4896 -42 0 4619 -20 0 4619 -21 0 4619 -4 0 4900 4902 -40 0 4442 4443 -17 0 4900 4902 -3 0 4442 5358 5359 4443 4619 -13 0 4619 -3 0 4900 4902 -5 0 4619 0 5360 5361 -120 0 4894 4896 0 5358 5359 -22 0 5358 5359 5358 5359 -7 0 4619 -19 0 4444 4445 -23 0 4442 4443 -28 0 4619 -6 0 4619 -13 0 4619 -35 0 4442 4443 -8 0 4900 4902 -2 0 4619 -23 0 4619 -10 0 -2 4619 -42 0 5358 5359 4619 -52 0 4442 4443 -30 0 5358 5359 -4 0 4619 -31 0 4619 -12 0 4619 -42 0 4442 4443 -52 0 5358 5359 -19 0 5360 5361 4619 -20 0 4442 4443 -80 0 5358 5359 -41 0 4442 4443 -3 0 4619 -26 0 4444 4445 -21 0 5358 5359 -123 0 5358 5359 -2 0 5360 5361 -47 0 4619 -50 0 5360 5361 -30 0 4619 0 5360 5361 -44 0 4444 4445 -74 0 4894 4896 -22 0 4444 4445 -32 0 4444 4445 -106 0 4619 -13 0 4900 4902 -31 0 4619 -23 0 4894 4896 -178 0 4900 4902 -323 0 -3 4619 -4 0 4894 4896 -3 0 4894 4896 -76 0 4894 4896 -71 0 4894 4896 -8 0 4894 4896 -5 0 -3 4619 -4 0 4900 4902 -3 0 4900 4902 -76 0 4900 4902 -71 0 4900 4902 -2 0 4894 4896 -4 0 4900 4902 -5 0 -3 4619 -164 0 4900 4902 -183 0 4442 4443 -15 0 4442 4443 -161 0 5358 5359 4619 -14 0 5358 5359 -253 0 4442 4443 -48 0 4894 4896 -122 0 4619 -5 0 5358 5359 -27 0 4619 -9 0 4619 4443 -9 0 4900 4902 -25 0 5360 5361 -3 0 4619 -16 0 4894 4896 -78 0 4619 -36 0 4894 4896 0 5358 5359 -36 0 4444 4445 -20 0 4900 4902 -106 0 4442 4443 -7 0 4900 4902 -90 0 4894 4896 -17 0 4894 4896 -7 0 4442 4443 -15 0 4442 4443 -2 0 5360 5361 -28 0 5358 5359 -16 0 4442 4443 -81 0 4900 4902 -17 0 4900 4902 -7 0 5358 5359 -15 0 5358 5359 -2 0 4444 4445 -34 0 4619 -11 0 5358 5359 -3 0 5360 5361 -98 0 4619 -4 0 4619 -54 0 4619 -9 0 -2 4619 -8 0 4444 4445 -130 0 4619 -31 0 4894 4896 -4 0 4619 -161 0 4619 -11 0 4900 4902 -5 0 4619 -88 0 5360 5361 -43 0 4619 -30 0 4442 4443 -11 0 4619 0 4619 -88 0 4444 4445 -9 0 4619 -64 0 5358 5359 -10 0 4442 4443 -178 0 5358 5359 -14 0 4442 4443 -178 0 5358 5359 -4 0)
    )
    (tilemap
      (solid #f)
      (z-pos 101)
      (name "vor")
      (width 180)
      (height 35)
      (tiles -873 0 17 -1999 0 4442 -179 0 5358 -3246 0)
    )
    (tilemap
      (solid #t)
      (z-pos -1)
      (width 180)
      (height 35)
      (tiles -2 4776 4777 -2 4776 -2 4777 4776 -2 4777 -2 4776 4754 4755 -2 4750 4751 4750 4756 4757 4776 4777 4776 -2 4777 -5 4776 4777 -3 4776 4777 -5 4776 -2 4777 4776 -2 4777 4776 -5 4777 4776 4740 -2 4763 4764 -3 4751 4750 4764 4751 4750 4751 4764 4750 4764 -2 4750 4751 4763 4750 -2 4763 4751 4764 4750 4766 4777 4776 4777 4776 -3 4777 -4 4776 4777 -3 4776 -3 4777 4776 4777 4776 4777 4776 4777 4740 -2 4764 4751 4750 4763 4751 -2 4764 -2 4751 4750 -2 4763 4766 4777 -2 4776 7247 4776 4777 -3 4776 -54 0 4790 4789 4790 4789 4790 -4 4789 4790 -2 4789 4767 4768 4776 4777 4776 4777 4769 4770 4789 4790 4789 -2 4790 4789 -2 4790 -3 4789 4790 -3 4789 4790 4789 -10 4790 -2 4789 4790 -2 4789 4749 4764 4751 -2 4764 4751 -2 4764 4751 4750 4751 4750 4751 4750 4751 4750 -2 4751 4750 4751 4750 4764 -3 4750 4765 4789 -5 4790 -2 4789 -6 4790 -3 4789 4790 -2 4789 -2 4790 4789 4790 4775 4740 4763 4764 4763 4764 4763 4764 4763 -2 4764 4763 -2 4764 4765 -3 4789 7219 4790 -4 4789 -68 0 4789 4790 4789 4790 -34 0 4762 4763 4751 4763 4764 4763 4764 4751 4750 4751 4750 4751 4750 4751 4750 -2 4751 4764 4750 4764 4751 4763 4751 4750 4763 4752 -24 0 4788 4749 4750 4751 -2 4764 4751 4763 4750 -2 4751 4764 -2 4750 4765 -3 0 7220 -111 0 4749 4763 4764 -2 4751 4763 -2 4750 -2 4751 4763 -2 4751 4750 4763 4751 -2 4764 4763 -2 4750 4764 4751 -2 4763 4765 -25 0 4775 -2 4776 4777 4776 -2 4777 4776 4777 4776 -3 4777 4778 -115 0 4749 4750 4764 4766 -3 4777 -8 4776 -2 4777 4776 4777 -2 4776 -3 4777 4740 4752 -25 0 4788 -4 4790 4789 4790 -6 4789 4791 -115 0 4775 -2 4777 4778 -2 4790 -2 4789 -6 4790 -2 4789 -3 4790 4789 4790 -2 4789 4790 4762 4752 -102 0 4724 4725 4724 4725 4724 4725 4724 4725 4724 4725 4724 4725 4726 -39 0 4788 4790 4789 4791 -4 0 -5 4725 4726 -8 0 4723 4725 7230 4778 -102 0 4737 4738 4737 4738 4737 4738 4737 4738 4737 4738 4737 4738 4739 -45 0 4728 4729 -4 4738 4737 4739 -8 0 4736 4738 7237 4791 -102 0 4764 4763 -3 4751 4763 4750 4763 4751 4763 4764 4765 5032 -39 0 4723 4725 -2 4724 4728 4729 4741 4742 -3 4751 -2 4763 4752 -8 0 4775 4777 4778 -103 0 -2 4764 -2 4763 4764 4750 4763 -2 4751 4766 4777 4761 4774 -39 0 4736 -2 4737 4738 4741 4742 -6 4751 4764 4752 -8 0 4788 4789 4791 -103 0 4750 -2 4764 4750 4751 4763 4751 4750 4766 4756 4757 4774 -40 0 4749 4764 -2 4751 4763 -2 4751 -2 4764 -2 4751 4763 4764 4765 -114 0 -3 4777 4776 4777 4776 -2 4777 4778 4769 4770 -41 0 4749 -2 4751 -3 4763 -2 4751 -2 4764 4751 4763 4750 4765 -114 0 4789 -2 4790 4789 4790 -3 4789 4791 -41 0 4723 4724 4762 4750 -2 4763 4764 -2 4763 -2 4751 4764 4750 4763 4764 4752 -164 0 4736 4737 4727 -2 4751 4764 4763 4764 4763 4764 4751 4763 -3 4751 4765 -164 0 5035 4750 4751 4764 -2 4763 4764 4763 4764 4763 4764 4763 4764 4763 4750 4752 -164 0 4784 4763 -2 4764 4750 -2 4763 -2 4764 4750 4764 -2 4750 -2 4751 4752 -164 0 4797 4771 4750 4751 -2 4750 -2 4763 4750 4764 4751 4750 -2 4763 4751 4765 -165 0 4784 4763 4751 4763 4750 4751 -2 4763 -2 4750 -2 4763 4751 4763 4765 -165 0 4797 4740 4763 4751 4763 4750 4751 -2 4764 4751 4763 4751 4763 4751 4752 -166 0 4749 4751 4763 4751 4763 -2 4751 4750 4751 4750 4751 4750 4764 4752 -166 0 4762 4763 4751 4764 4763 4764 4763 4764 4763 -2 4764 4751 4763 4765 -166 0 4762 4750 4763 4751 4764 4763 4750 4764 -2 4751 4764 4750 4764 4765 -166 0 4749 -2 4750 -2 4763 4750 4764 4751 4763 4750 -2 4751 4764 4752 -140 0 4723 4725 4726 -23 0 4762 4751 -2 4750 4763 4764 4751 4763 4750 4763 4751 4764 4750 4752 -140 0 4736 4738 4739 -23 0 4749 4750 4751 4750 4751 4750 4751 4750 -2 4751 4764 4750 4764 4765 -140 0 4775 4776 4778 -23 0 4762 4751 4750 4763 4751 -2 4763 -2 4750 4763 4764 4763 4751 4765 -140 0 4788 4790 4791 -23 0 4762 4764 -2 4751 -2 4764 -2 4751 4750 -2 4751 4764 4750 4752 -166 0 4749 4764 4750 4763 4764 4751 4763 4751 -2 4763 4750 -2 4751 4752 -166 0 4762 4751 4750 4751 4750 -2 4751 -2 4763 4751 -2 4763 4751 4765 -166 0 4749 4751 -2 4763 -2 4764 4751 4763 4750 -2 4763 4750 4763 4765 -150 0 7220 0 -2 4725 4724 -2 4725 -9 0 4762 -2 4763 -2 4750 4764 4750 4764 -2 4750 4764 -2 4751 4765 -114 0 -2 4724 -2 4725 4724 4725 4724 4725 4724 4725 -2 4724 -2 4725 4724 4725 4724 -2 4725 4724 -3 4725 4724 -4 4725 -2 4724 4725 4724 -2 4725 4724 4725 4728 4729 -3 4738 4737 4738 4730 4731 4724 -3 4725 -2 4724 4725 4762 4750 4764 4750 4764 -2 4750 -2 4763 4751 -3 4764 4765 -114 0 4737 -3 4738 4737 4738 4737 -2 4738 -4 4737 -2 4738 -4 4737 4738 4737 4738 -2 4737 -3 4738 -2 4737 -4 4738 -3 4737 4741 4742 4727 4750 4764 4763 4753 4743 4744 -2 4737 -3 4738 -2 4737 4727 4751 -2 4763 4750 4764 -3 4763 -3 4750 4763 4752 -114 0 -3 4764 4751 -2 4750 -2 4763 4764 4763 4764 4751 4763 4751 4764 4763 4750 4751 4750 4763 4764 4763 4751 4764 -3 4750 4764 4751 4750 4763 4750 4751 4764 4751 4764 4763 4751 -2 4750 4751 4763 4751 -2 4750 4763 -2 4751 4763 4751 4763 -2 4751 -2 4764 4751 4763 4750 4763 4751 4764 -2 4750 4763 4764 4752 -114 0 -2 4750 4763 4750 4751 4763 4751 4763 -2 4751 -2 4764 4751 4763 4751 4763 4751 -3 4750 4763 -3 4750 4763 4750 4763 -9 4764 4750 4751 4764 4751 -3 4750 4763 -2 4751 4763 -2 4751 -2 4763 4764 4763 4764 4751 -2 4763 -2 4764 4763 4764 4763 4751 4763 4764 4765 -114 0)
    )
    (tilemap
      (solid #t)
      (z-pos 1)
      (width 180)
      (height 35)
      (tiles -1661 0 4723 -2 4725 4726 -176 0 7221 7223 7222 7224 -176 0 4788 -2 4789 4791 -870 0 4726 -177 0 4728 4729 4739 -164 0 -4 4725 4724 -3 4725 4724 4725 4724 4728 4729 4741 4742 7218 -164 0 4737 4738 -2 4737 -3 4738 4737 -3 4738 4741 4742 4763 4750 7237 -164 0 -2 4764 4751 4763 -2 4751 4763 4750 4764 4750 -2 4763 4750 4764 4750 4752 -3 0 4723 4725 4726 -158 0 4764 4750 4763 4751 4750 4751 4764 -2 4763 4750 -2 4764 -2 4763 4750 4752 -3 0 7221 7223 7224 -158 0 4750 4751 4750 4764 4750 4751 4750 4764 4751 -2 4764 -2 4751 4763 4751 4765 -3 0 4788 4790 4791 -158 0 4750 -3 4763 4764 -3 4751 4750 4764 4750 4764 4750 -2 4763 4765 -164 0 -3 4750 4751 4764 -2 4763 4750 -2 4764 -2 4751 4764 4763 4750 4752 -164 0 -2 4751 4763 4764 -2 4763 4750 -2 4763 4750 4764 4750 -2 4764 4763 4752 -164 0 4751 4763 4764 -2 4763 4764 -2 4751 4763 -2 4751 -2 4764 -2 4751 4752 -164 0 4751 4764 4763 4751 4763 4750 4764 4750 -2 4763 4764 4763 4764 4763 4750 4752 -164 0 4763 -3 4750 4763 -2 4751 4764 4763 4764 -2 4763 4750 4751 4764 4752 -164 0 4763 4751 4763 4764 -2 4763 4764 4763 4764 4751 4750 -2 4763 -2 4764 4765 -164 0 4763 4764 4750 4764 4763 4764 -2 4763 4764 4763 4764 4763 4764 4763 4764 4753 4733 -163 0 4764 4750 -2 4763 4764 4751 4750 4751 4750 4751 -2 4764 -2 4751 4750 4763 4746 -163 0 4764 -3 4751 4764 4763 4764 -2 4751 -2 4764 -2 4750 -2 4751 4764 4759 -343 0 -2 4789 4790 4789 -6 4790 -2 4789 -3 4790 4791 -164 0)
    )
    (trampoline
      (z-pos 50)
      (x 2540)
      (y 180)
    )
    (trampoline
      (z-pos 50)
      (x 3454.67)
      (y 230)
    )
  )
)
