(supertux-level
  (version 3)
  (name (_ "Up or Down: It's Your Choice"))
  (author "alex")
  (license "CC-BY-SA 4.0 International")
  (allow-item-pocket "inherit")
  (icon "")
  (icon-locked "")
  (statistics
    (enable-coins #t)
    (enable-secrets #t)
  )
  (sector
    (name "main")
    (ambient-light
      (color 0.5 0.6 0.6)
    )
    (background
      (color 1 1 1)
      (alignment "top")
      (speed 0)
      (fill #t)
      (image "/images/background/misc/skybox_storm.png")
      (z-pos -390)
    )
    (background
      (color 1 1 1)
      (alignment "top")
      (scroll-speed-x -5)
      (speed 0)
      (image "/images/background/misc/clouds_storm.png")
      (z-pos -380)
    )
    (background
      (color 1 1 1)
      (alignment "bottom")
      (speed 0)
      (fill #t)
      (image-top "/images/background/misc/transparent_up.png")
      (image "/images/background/forest/forest_panorama.png")
      (image-bottom "/images/background/misc/transparent_up.png")
      (z-pos -370)
    )
    (background
      (color 1 1 1)
      (speed 0.5)
      (image "images/background/misc/transparent_up.png")
      (z-pos -360)
    )
    (background
      (color 1 1 1)
      (speed 0.5)
      (image "images/background/misc/transparent_up.png")
      (z-pos -350)
    )
    (background
      (color 1 1 1)
      (speed 0.4)
      (image "images/background/misc/transparent_up.png")
      (z-pos -340)
    )
    (background
      (color 1 1 1)
      (speed 0.4)
      (image-top "/images/background/misc/transparent_up.png")
      (image "/images/background/forest/tree_back.png")
      (image-bottom "/images/background/forest/forest_bottom.png")
      (z-pos -330)
    )
    (background
      (color 1 1 1)
      (speed 0.5)
      (image-top "/images/background/misc/transparent_up.png")
      (image "/images/background/forest/tree_front.png")
      (image-bottom "/images/background/forest/forest_bottom.png")
      (z-pos -320)
    )
    (camera
      (name "Camera")
      (mode "normal")
    )
    (coin
      (z-pos 49)
      (handle
        (scale_x 0)
        (scale_y 0)
        (offset_x 0)
        (offset_y 0)
      )
      (path-ref "gen1786316363105241327640208")
    )
    (coin
      (z-pos 49)
      (handle
        (scale_x 0)
        (scale_y 0)
        (offset_x 0)
        (offset_y 0)
      )
      (path-ref "gen1786316415105241306194240")
    )
    (coin
      (z-pos 49)
      (handle
        (scale_x 0)
        (scale_y 0)
        (offset_x 0)
        (offset_y 0)
      )
      (path-ref "gen1786316447105241393008288")
    )
    (coin
      (z-pos 49)
      (handle
        (scale_x 0)
        (scale_y 0)
        (offset_x 0)
        (offset_y 0)
      )
      (path-ref "gen1786316682105241327969664")
    )
    (coin
      (z-pos 49)
      (handle
        (scale_x 0)
        (scale_y 0)
        (offset_x 0)
        (offset_y 0)
      )
      (path-ref "gen1786316764105241391924688")
    )
    (decal
      (z-pos 0)
      (sprite "/images/decal/sign_icons/danger.png")
      (x 2656)
      (y 864)
    )
    (dispenser
      (z-pos 55)
      (cycle 1)
      (type "point")
      (objects
        (haywire
          (z-pos 50)
          (glinting #f)
        )
      )
      (limit-dispensed-badguys #t)
      (max-concurrent-badguys 1)
      (x 5536)
      (y 544)
    )
    (door
      (z-pos -99)
      (sector "main")
      (locked #f)
      (spawnpoint "secretin1")
      (x 4200)
      (y 960)
    )
    (door
      (z-pos -99)
      (sector "main")
      (locked #f)
      (spawnpoint "secretout1")
      (x 2768)
      (y 896)
    )
    (door
      (z-pos -99)
      (lock-color 1 0.9 0.2)
      (locked #t)
      (x 5040)
      (y 960)
    )
    (firefly
      (z-pos 0)
      (x 6560)
      (y 288)
    )
    (firefly
      (z-pos 0)
      (x 6432)
      (y 640)
    )
    (goldbomb
      (z-pos 50)
      (x 9605)
      (y 328)
      (glinting #t)
    )
    (gradient
      (top_color 0.6 0.6 0.9)
      (bottom_color 0.3 0.3 0.8)
      (z-pos -400)
    )
    (haywire
      (z-pos 50)
      (x 8421)
      (y 232)
      (glinting #f)
    )
    (igel
      (z-pos 50)
      (x 8704)
      (y 992)
      (glinting #f)
    )
    (jumpy
      (type "wooden")
      (z-pos 50)
      (x 7424)
      (y 832)
      (glinting #f)
    )
    (jumpy
      (z-pos 50)
      (x 11015)
      (y 296)
      (glinting #f)
    )
    (jumpy
      (type "wooden")
      (z-pos 50)
      (x 9664)
      (y 736)
      (glinting #f)
    )
    (key
      (z-pos 50)
      (color 1 0.9 0.2)
      (x 2144)
      (y 832)
    )
    (mrbomb
      (z-pos 50)
      (x 5509)
      (y 392)
      (glinting #f)
    )
    (mrbomb
      (z-pos 50)
      (x 6213)
      (y 776)
      (glinting #f)
    )
    (mrbomb
      (z-pos 50)
      (x 6373)
      (y 360)
      (glinting #f)
    )
    (mrbomb
      (z-pos 50)
      (x 11877)
      (y 360)
      (glinting #f)
    )
    (mrbomb
      (z-pos 50)
      (x 8992)
      (y 992)
      (glinting #f)
    )
    (mrbomb
      (z-pos 50)
      (x 11045)
      (y 872)
      (glinting #f)
    )
    (mrtree
      (z-pos 50)
      (x 7024)
      (y 816)
      (glinting #f)
    )
    (music
      (file "/music/forest/bright_thunders.music")
    )
    (particles-rain
      (z-pos 200)
      (intensity 2)
    )
    (path
      (name "gen159125863793898816322656")
      (path
        (adapt_speed #f)
        (node
          (x 5056)
          (y 704)
        )
        (node
          (x 5056)
          (y 480)
        )
      )
    )
    (path
      (name "gen1786316363105241327640208")
      (path
        (mode "pingpong")
        (adapt_speed #f)
        (node
          (x 4208)
          (y 816)
          (time 1.5)
          (easing "EaseQuadInOut")
        )
        (node
          (x 4208)
          (y 928)
          (time 1.5)
          (easing "EaseQuadInOut")
        )
      )
    )
    (path
      (name "gen1786316415105241306194240")
      (path
        (mode "pingpong")
        (adapt_speed #f)
        (node
          (x 4112)
          (y 896)
          (time 1.5)
          (easing "EaseQuadInOut")
        )
        (node
          (x 4176)
          (y 960)
          (time 1.5)
          (easing "EaseQuadInOut")
        )
      )
    )
    (path
      (name "gen1786316447105241393008288")
      (path
        (mode "pingpong")
        (adapt_speed #f)
        (node
          (x 4304)
          (y 896)
          (time 1.5)
          (easing "EaseQuadInOut")
        )
        (node
          (x 4240)
          (y 960)
          (time 1.5)
          (easing "EaseQuadInOut")
        )
      )
    )
    (path
      (name "gen1786316682105241327969664")
      (path
        (mode "pingpong")
        (adapt_speed #f)
        (node
          (x 4144)
          (y 1008)
          (time 1.5)
          (easing "EaseQuadInOut")
        )
        (node
          (x 4176)
          (y 1008)
          (time 1.5)
          (easing "EaseQuadInOut")
        )
      )
    )
    (path
      (name "gen1786316764105241391924688")
      (path
        (mode "pingpong")
        (adapt_speed #f)
        (node
          (x 4272)
          (y 1008)
          (time 1.5)
          (easing "EaseQuadInOut")
        )
        (node
          (x 4240)
          (y 1008)
          (time 1.5)
          (easing "EaseQuadInOut")
        )
      )
    )
    (platform
      (z-pos 50)
      (handle
        (scale_x 0)
        (scale_y 0)
        (offset_x 0)
        (offset_y 0)
      )
      (running #f)
      (name "plat")
      (path-ref "gen159125863793898816322656")
      (sprite "images/objects/platforms/big.sprite")
    )
    (powerup
      (version 2)
      (type "oneup")
      (z-pos 50)
      (x 5152)
      (y 928)
    )
    (powerup
      (version 2)
      (type "oneup")
      (z-pos 50)
      (x 1584)
      (y 368)
    )
    (scripttrigger
      (script "secret2.fade(0, 1);")
      (button #f)
      (width 192)
      (height 16)
      (x 4640)
      (y 752)
    )
    (scripttrigger
      (script "Camera.set_scale(1.5, 5);")
      (button #f)
      (width 32)
      (height 192)
      (x 6480)
      (y 544)
    )
    (secretarea
      (fade-tilemap "secret1")
      (width 192)
      (height 16)
      (x 4640)
      (y 736)
    )
    (sequencetrigger
      (sequence "endsequence")
      (width 32)
      (height 352)
      (x 13824)
      (y 544)
    )
    (sequencetrigger
      (sequence "stoptux")
      (width 32)
      (height 320)
      (x 14304)
      (y 544)
    )
    (sequencetrigger
      (sequence "endsequence")
      (width 32)
      (height 288)
      (x 11552)
      (y 672)
    )
    (sequencetrigger
      (sequence "stoptux")
      (width 32)
      (height 256)
      (x 11904)
      (y 736)
    )
    (snail
      (z-pos 50)
      (x 7234)
      (y 355)
      (glinting #f)
    )
    (spawnpoint
      (name "main")
      (x 64)
      (y 192)
    )
    (spawnpoint
      (name "secretout1")
      (x 4208)
      (y 992)
    )
    (spawnpoint
      (name "secretin1")
      (x 2768)
      (y 928)
    )
    (switch
      (z-pos 1)
      (script "plat.goto_node(1)")
      (x 3363)
      (y 452)
    )
    (tilemap
      (solid #f)
      (z-pos -100)
      (name "Background")
      (width 450)
      (height 35)
      (tiles -78 0 1168 1169 1170 -17 0 1073 1074 1075 -427 0 1174 1175 1176 1177 -2 0 1287 1288 -12 0 1081 1082 1083 1084 -421 0 1240 1241 1242 0 1179 1180 1181 1182 1183 -2 0 1289 1290 -11 0 1088 1089 1090 1091 1092 1093 -132 0 1168 1169 1170 -27 0 1287 1288 -189 0 1073 1074 1075 -11 0 1168 1169 1170 -42 0 1073 1074 1075 -4 0 1243 1244 1245 1246 0 1185 1186 1187 1188 1189 1190 0 1291 1292 -10 0 1095 1096 1097 1098 1099 1100 1101 -127 0 1240 1241 1242 -2 0 1174 1175 1176 1177 -4 0 1073 1074 1075 -19 0 1289 1290 -13 0 1287 1288 -174 0 1081 1082 1083 1084 -5 0 1240 1241 1242 -2 0 1174 1175 1176 1177 -41 0 1081 1082 1083 1084 -3 0 1247 1248 1249 1250 0 1191 1192 1193 1194 1195 1196 0 1293 1294 -10 0 1103 1104 1105 1106 1107 1108 1109 1110 -69 0 1168 1169 1170 -53 0 1243 1244 1245 1246 0 1179 1180 1181 1182 1183 -4 0 1081 1082 1083 1084 -18 0 1291 1292 -13 0 1289 1290 -2 0 1287 1288 -16 0 1240 1241 1242 -26 0 1073 1074 1075 -121 0 1088 1089 1090 1091 1092 1093 -3 0 1243 1244 1245 1246 0 1179 1180 1181 1182 1183 -40 0 1088 1089 1090 1091 1092 1093 -2 0 1251 1252 1253 1254 0 1197 1198 1199 1200 1201 1202 0 1295 1296 -10 0 1111 1112 1113 1114 1115 1116 1117 1118 -69 0 1174 1175 1176 1177 -20 0 1073 1074 1075 -29 0 1247 1248 1249 1250 0 1185 1186 1187 1188 1189 1190 -2 0 1088 1089 1090 1091 1092 1093 -17 0 1293 1294 -13 0 1291 1292 -2 0 1289 1290 -3 0 1073 1074 1075 -6 0 1287 1288 0 1243 1244 1245 1246 -26 0 1081 1082 1083 1084 -17 0 1287 1288 -14 0 1073 1074 1075 -83 0 1095 1096 1097 1098 1099 1100 1101 -3 0 1247 1248 1249 1250 0 1185 1186 1187 1188 1189 1190 -38 0 1095 1096 1097 1098 1099 1100 1101 -2 0 1255 1256 1257 1258 0 1203 1204 1205 1206 1207 1208 0 1297 1298 -10 0 1119 1120 1121 1122 1123 1124 1125 1126 -68 0 1179 1180 1181 1182 1183 -11 0 1240 1241 1242 -6 0 1081 1082 1083 1084 -28 0 1251 1252 1253 1254 0 1191 1192 1193 1194 1195 1196 0 1095 1096 1097 1098 1099 1100 1101 -4 0 402 403 404 405 -2 0 402 403 404 405 -3 0 1295 1296 -13 0 1293 1294 -2 0 1291 1292 -3 0 1081 1082 1083 1084 -5 0 1289 1290 0 1247 1248 1249 1250 -25 0 1088 1089 1090 1091 1092 1093 0 1287 1288 -13 0 1289 1290 -2 0 1287 1288 -10 0 1081 1082 1083 1084 -7 0 1168 1169 1170 -72 0 1103 1104 1105 1106 1107 1108 1109 1110 -2 0 1251 1252 1253 1254 0 1191 1192 1193 1194 1195 1196 -38 0 1103 1104 1105 1106 1107 1108 1109 1110 0 1259 1260 1261 1262 0 1209 1210 1211 1212 1213 1214 0 1299 1300 0 317 318 -7 0 1127 1128 1129 1130 1131 1132 1133 1134 -60 0 1073 1074 1075 -5 0 1185 1186 1187 1188 1189 1190 -9 0 1243 1244 1245 1246 -5 0 1088 1089 1090 1091 1092 1093 -14 0 402 403 404 405 -9 0 1255 1256 1257 1258 0 1197 1198 1199 1200 1201 1202 0 1103 1104 1105 1106 1107 1108 1109 1110 -3 0 406 407 408 409 -2 0 406 407 408 409 -3 0 1297 1298 -13 0 1295 1296 -2 0 1293 1294 -2 0 1088 1089 1090 1091 1092 1093 -4 0 1291 1292 0 1251 1252 1253 1254 -16 0 402 403 404 405 -4 0 1095 1096 1097 1098 1099 1100 1101 0 1289 1290 -13 0 1291 1292 -2 0 1289 1290 -9 0 1088 1089 1090 1091 1092 1093 -6 0 1174 1175 1176 1177 -71 0 1111 1112 1113 1114 1115 1116 1117 1118 -2 0 1255 1256 1257 1258 0 1197 1198 1199 1200 1201 1202 -27 0 402 403 404 405 -7 0 1111 1112 1113 1114 1115 1116 1117 1118 0 1263 1264 1265 1266 -2 0 2045 1219 1220 -3 0 1301 1302 0 319 320 -23 0 1240 1241 1242 -49 0 1081 1082 1083 1084 -4 0 1191 1192 1193 1194 1195 1196 -3 0 402 403 404 405 -2 0 1247 1248 1249 1250 -4 0 1095 1096 1097 1098 1099 1100 1101 -2 0 402 403 404 405 -8 0 406 407 408 409 -9 0 1259 1260 1261 1262 0 1203 1204 1205 1206 1207 1208 0 1111 1112 1113 1114 1115 1116 1117 1118 -3 0 410 411 412 413 -2 0 410 411 412 413 -3 0 1299 1300 -2 0 317 318 -9 0 1297 1298 -2 0 1295 1296 0 1095 1096 1097 1098 1099 1100 1101 -4 0 1293 1294 0 1255 1256 1257 1258 -16 0 406 407 408 409 -4 0 1103 1104 1105 1106 1107 1108 1109 1110 1291 1292 -13 0 1293 1294 -2 0 1291 1292 0 402 403 404 405 -3 0 1095 1096 1097 1098 1099 1100 1101 -5 0 1179 1180 1181 1182 1183 -71 0 1119 1120 1121 1122 1123 1124 1125 1126 -2 0 1259 1260 1261 1262 0 1203 1204 1205 1206 1207 1208 -27 0 406 407 408 409 -7 0 1119 1120 1121 1122 1123 1124 1125 1126 0 1267 1268 1269 1270 -2 0 2046 1225 1226 -30 0 1243 1244 1245 1246 -48 0 1088 1089 1090 1091 1092 1093 -3 0 1197 1198 1199 1200 1201 1202 -3 0 406 407 408 409 -2 0 1251 1252 1253 1254 -4 0 1103 1104 1105 1106 1107 1108 1109 1110 0 406 407 408 409 -2 0 402 403 404 405 -2 0 410 411 412 413 -9 0 1263 1264 1265 1266 0 1209 1210 1211 1212 1213 1214 0 1119 1120 1121 1122 1123 1124 1125 1126 -3 0 414 415 416 417 -2 0 414 415 416 417 -3 0 1301 1302 -2 0 319 320 -3 0 322 -5 0 1299 1300 -2 0 1297 1298 0 1103 1104 1105 1106 1107 1108 1109 1110 -3 0 1295 1296 0 1259 1260 1261 1262 402 403 404 405 -12 0 410 411 412 413 -4 0 1111 1112 1113 1114 1115 1116 1117 1118 1293 1294 -13 0 1295 1296 -2 0 1293 1294 0 406 407 408 409 -3 0 1103 1104 1105 1106 1107 1108 1109 1110 -4 0 1185 1186 1187 1188 1189 1190 -70 0 1127 1128 1129 1130 1131 1132 1133 1134 -2 0 1263 1264 1265 1266 0 1209 1210 1211 1212 1213 1214 -27 0 410 411 412 413 -7 0 1127 1128 1129 1130 1131 1132 1133 1134 -40 0 1247 1248 1249 1250 -47 0 1095 1096 1097 1098 1099 1100 1101 -3 0 1203 1204 1205 1206 1207 1208 -3 0 410 411 412 413 -2 0 1255 1256 1257 1258 -4 0 1111 1112 1113 1114 1115 1116 1117 1118 0 410 411 412 413 -2 0 406 407 408 409 -2 0 414 415 416 417 -9 0 1267 1268 1269 1270 -2 0 2045 1219 1220 -3 0 1127 1128 1129 1130 1131 1132 1133 1134 -31 0 1301 1302 -2 0 1299 1300 0 1111 1112 1113 1114 1115 1116 1117 1118 -3 0 1297 1298 0 1263 1264 1265 1266 406 407 408 409 -12 0 414 415 416 417 -4 0 1119 1120 1121 1122 1123 1124 1125 1126 1295 1296 -6 0 322 -6 0 1297 1298 -2 0 1295 1296 0 410 411 412 413 -3 0 1111 1112 1113 1114 1115 1116 1117 1118 -4 0 1191 1192 1193 1194 1195 1196 -80 0 1267 1268 1269 1270 -2 0 2045 1219 1220 -3 0 1287 1288 -24 0 414 415 416 417 -55 0 1251 1252 1253 1254 -47 0 1103 1104 1105 1106 1107 1108 1109 1110 -2 0 1209 1210 1211 1212 1213 1214 -3 0 414 415 416 417 -2 0 1259 1260 1261 1262 -4 0 1119 1120 1121 1122 1123 1124 1125 1126 0 414 415 416 417 -2 0 410 411 412 413 -2 0 410 411 412 413 0 322 -5 0 317 318 -6 0 2046 1225 1226 -5 0 1137 1138 1139 1140 1141 -36 0 1301 1302 0 1119 1120 1121 1122 1123 1124 1125 1126 -3 0 1299 1300 0 1267 1268 1269 1270 410 411 412 413 -7 0 317 318 -3 0 418 419 420 421 -4 0 1127 1128 1129 1130 1131 1132 1133 1134 1297 1298 -13 0 1299 1300 -2 0 1297 1298 0 414 415 416 417 -3 0 1119 1120 1121 1122 1123 1124 1125 1126 -4 0 1197 1198 1199 1200 1201 1202 -86 0 2046 1225 1226 -3 0 1289 1290 -83 0 1255 1256 1257 1258 -47 0 1111 1112 1113 1114 1115 1116 1117 1118 -3 0 2045 1219 1220 -2 0 317 318 -7 0 1263 1264 1265 1266 -4 0 1127 1128 1129 1130 1131 1132 1133 1134 -7 0 414 415 416 417 -2 0 414 415 416 417 -7 0 319 320 -58 0 1127 1128 1129 1130 1131 1132 1133 1134 -3 0 1301 1302 -5 0 414 415 416 417 -3 0 322 0 360 0 319 320 -3 0 422 423 424 425 -6 0 1137 1138 1139 1140 -2 0 1299 1300 0 317 318 -10 0 1301 1302 -2 0 1299 1300 -8 0 1127 1128 1129 1130 1131 1132 1133 1134 -4 0 1203 1204 1205 1206 1207 1208 -92 0 1291 1292 -83 0 1259 1260 1261 1262 -2 0 402 403 404 405 -41 0 1119 1120 1121 1122 1123 1124 1125 1126 -3 0 2046 1225 1226 -2 0 319 320 -7 0 1267 1268 1269 1270 -140 0 1145 1146 1147 1148 -2 0 1301 1302 0 319 320 -14 0 1301 1302 -20 0 1209 1210 1211 1212 1213 1214 -92 0 1293 1294 -83 0 1263 1264 1265 1266 -2 0 406 407 408 409 -15 0 1287 1288 -8 0 1287 1288 -14 0 1127 1128 1129 1130 1131 1132 1133 1134 -209 0 2045 1219 1220 -94 0 1295 1296 -83 0 1267 1268 1269 1270 -2 0 410 411 412 413 -11 0 1287 1288 -2 0 1289 1290 -3 0 1240 1241 1242 -2 0 1289 1290 -2 0 1287 1288 -227 0 2046 1225 1226 -94 0 1297 1298 -89 0 414 415 416 417 0 322 -9 0 1289 1290 -2 0 1291 1292 -2 0 1243 1244 1245 1246 -2 0 1291 1292 -2 0 1289 1290 -233 0 1604 1605 -89 0 1299 1300 -100 0 317 318 -2 0 1291 1292 -2 0 1293 1294 -2 0 1247 1248 1249 1250 -2 0 1293 1294 -2 0 1291 1292 -233 0 1606 1607 -89 0 1301 1302 -57 0 322 -4 0 360 -35 0 360 0 319 320 -2 0 1293 1294 -2 0 1295 1296 -2 0 1251 1252 1253 1254 -2 0 1295 1296 -2 0 1293 1294 -430 0 1295 1296 -2 0 1297 1298 -2 0 1255 1256 1257 1258 -2 0 1297 1298 -2 0 1295 1296 -7 0 402 403 404 405 -419 0 1297 1298 -2 0 1299 1300 -2 0 1259 1260 1261 1262 -2 0 1299 1300 -2 0 1297 1298 -7 0 406 407 408 409 -264 0 1073 1074 1075 -152 0 1299 1300 -2 0 1301 1302 -2 0 1263 1264 1265 1266 -2 0 1301 1302 -2 0 1299 1300 -7 0 410 411 412 413 -250 0 1168 1169 1170 -11 0 1081 1082 1083 1084 -53 0 402 403 404 405 -94 0 1301 1302 -6 0 1267 1268 1269 1270 -6 0 1301 1302 -7 0 414 415 416 417 -250 0 1174 1175 1176 1177 -9 0 1088 1089 1090 1091 1092 1093 -52 0 406 407 408 409 -132 0 322 -37 0 322 -3 0 322 -192 0 1287 1288 -5 0 1179 1180 1181 1182 1183 -8 0 1095 1096 1097 1098 1099 1100 1101 -52 0 410 411 412 413 -156 0 317 318 -201 0 1240 1241 1242 -2 0 1287 1288 0 1289 1290 -5 0 1185 1186 1187 1188 1189 1190 -7 0 1103 1104 1105 1106 1107 1108 1109 1110 -5 0 402 403 404 405 -42 0 414 415 416 417 -156 0 319 320 -200 0 1243 1244 1245 1246 -2 0 1289 1290 0 1291 1292 -5 0 1191 1192 1193 1194 1195 1196 -7 0 1111 1112 1113 1114 1115 1116 1117 1118 -5 0 406 407 408 409 -185 0 322 -5 0 360 -72 0 317 318 -138 0 1247 1248 1249 1250 -2 0 1291 1292 0 1293 1294 -5 0 1197 1198 1199 1200 1201 1202 -7 0 1119 1120 1121 1122 1123 1124 1125 1126 317 318 -3 0 410 411 412 413 -5 0 1002 0 322 -256 0 319 320 -56 0 322 -2 0 322 -78 0 1251 1252 1253 1254 -2 0 1293 1294 0 1295 1296 -5 0 1203 1204 1205 1206 1207 1208 -7 0 1127 1128 1129 1130 1131 1132 1133 1134 319 320 -3 0 414 415 416 417 -350 0 322 -6 0 322 -46 0 1255 1256 1257 1258 -2 0 1295 1296 0 1297 1298 -5 0 1209 1210 1211 1212 1213 1214 -5 0 317 318 -313 0 317 318 -63 0 322 -3 0 360 -3 0 1002 -18 0 402 403 404 405 -2 0 402 403 404 405 402 403 404 405 -2 0 1259 1260 1261 1262 -2 0 1297 1298 0 1299 1300 0 360 -4 0 2045 1219 1220 -5 0 322 0 319 320 -277 0 317 318 -34 0 319 320 -31 0 322 -5 0 360 -44 0 1002 -7 0 406 407 408 409 -2 0 406 407 408 409 406 407 408 409 -2 0 1263 1264 1265 1266 -2 0 1299 1300 0 1301 1302 -6 0 2046 1225 1226 -286 0 319 320 -15 0 322 -13 0 360 -96 0 410 411 412 413 -2 0 410 411 412 413 410 411 412 413 -2 0 1267 1268 1269 1270 -2 0 1301 1302 -426 0 414 415 416 417 -2 0 414 415 416 417 414 415 416 417 -956 0)
    )
    (tilemap
      (solid #t)
      (z-pos 0)
      (name "Interactive")
      (width 450)
      (height 35)
      (tiles -100 0 1012 1009 1013 1011 -446 0 1008 -2 1013 1011 -446 0 1008 -2 1013 1015 -446 0 1012 1013 1009 1011 -446 0 1008 1009 1013 1015 -139 0 83 -306 0 1008 -2 1014 1015 -446 0 1012 1014 1013 1011 -355 0 83 102 83 -88 0 1012 1013 1009 1011 -426 0 6004 6005 1001 -2 1002 1001 1002 6006 6007 -11 0 1008 1009 4317 3469 -78 0 2948 -2 83 -25 0 -2 83 27 -2 28 29 -2 83 -21 0 83 -3 0 83 -3 0 83 -10 0 1000 1001 1002 1001 1002 1001 1002 1001 1002 1003 -8 0 1000 1001 1002 1061 -170 0 6012 6013 1002 6006 6007 -64 0 44 -2 0 1000 -4 1001 1002 6014 6015 6008 6009 -2 1005 1006 1005 1006 6010 6011 6045 -10 0 1016 3464 3465 -126 0 1000 1001 1002 1001 1002 1061 -15 0 1000 1001 1002 1001 1002 -2 1001 1002 1036 -2 1006 1005 -3 1006 1005 1006 1037 1001 1002 1001 1002 1001 1002 1001 1002 1036 1005 1006 1065 1066 1061 -26 0 -2 83 27 -2 28 29 -2 83 27 -2 28 29 -2 83 -28 0 1000 1003 -98 0 6016 6017 1005 6010 6011 6012 6013 1001 -3 1002 1001 1002 6006 6007 0 44 -49 0 44 0 6004 6005 1001 1002 1036 -2 1005 1006 1005 1006 6018 6019 1068 1009 1010 -3 1013 1014 1009 1069 6049 -139 0 1004 1005 1006 1005 1006 1065 1066 1061 -13 0 1004 -3 1005 1006 -2 1005 1006 1042 1014 1009 1013 -5 1009 1043 1005 1006 1005 1006 1005 1006 1005 1006 1042 1009 1010 1069 1070 1065 1066 1061 -60 0 1000 1003 -4 0 1004 1007 -98 0 -4 1009 1069 6016 6017 1005 1006 1005 -2 1006 1005 6010 6011 1066 6006 6007 0 44 -34 0 6004 6005 1003 -6 0 44 -2 0 1045 1063 6008 6009 1005 1006 1040 1009 1013 1014 -4 1009 1014 -2 1013 -2 1009 -3 1014 1009 1015 -90 0 1000 1001 1002 1001 -2 1002 1003 -16 0 1000 1001 1002 1001 1002 1001 1002 1001 1002 1001 1002 1001 1002 1001 1002 1001 1002 1001 1002 1003 -6 0 1008 -4 1009 1069 1070 1065 1066 1001 1002 1001 1002 1001 1002 1001 1002 1001 1002 1001 1002 1034 1009 1014 -2 1013 -4 1009 1010 1013 1009 -3 1014 1013 1014 1013 -3 1014 -2 1013 -2 1009 1013 -2 1014 1013 1014 1009 1069 1070 1065 1066 1001 1003 -8 0 1000 1001 1002 1001 1002 1001 1002 1001 1002 1003 -33 0 1000 1003 -4 0 1004 1007 -4 0 1008 1011 -6 0 1000 1001 1002 1001 1002 1001 1002 1003 -84 0 1009 1010 1013 1014 1010 1009 1014 1009 1010 1009 1014 1009 -2 1014 1069 1070 6010 6011 1066 1061 -32 0 1060 1063 6008 6009 1007 -9 0 6046 1067 1009 4317 -2 1018 1017 1018 4318 1009 -2 1013 1009 1013 1009 1013 -2 1009 4317 1017 -2 1018 1017 1019 -90 0 1004 1005 1006 1005 -2 1006 1007 -8 0 1000 1001 1002 1001 1002 1001 -2 1002 1036 1006 -4 1005 1006 1005 1006 1005 1006 1005 1006 1005 1006 1005 1006 1005 1006 1037 1001 1002 1001 1002 1001 1002 1034 1014 1013 1014 -3 1009 1069 1070 1005 1006 1005 1006 1005 1006 1005 1006 1005 1006 -2 1005 1040 1014 -2 1013 1010 -3 1009 4317 1018 -2 1017 1018 1017 1018 1017 1018 1017 4318 1013 1009 1014 1009 1014 1009 4317 1017 1018 1017 1018 1013 1014 1009 1069 1070 1005 1037 1001 1002 1001 1002 1001 1002 1001 1002 1036 -3 1005 -3 1006 1005 1006 1037 1001 1002 1001 1002 1001 1002 1001 1002 1001 1002 1001 1002 1001 1002 1001 1002 1001 1002 1001 1002 1003 -12 0 1004 1007 -4 0 1008 1011 -4 0 1012 1035 1001 1002 1001 1002 1001 1002 1036 1005 1006 1005 1006 1005 1006 1037 1001 1002 1001 1002 1001 1002 1001 1002 1001 1003 -74 0 1010 1013 1014 1009 1014 -2 1013 1014 1013 1010 1013 -3 1014 -2 1013 1009 1069 1070 1065 1066 1061 44 -27 0 6022 6023 1064 1067 1068 1014 3467 -4 0 44 -4 0 6050 4317 3464 3465 -4 0 3462 3463 1018 1017 1018 -2 1017 -2 1018 3464 3465 -17 0 1060 1003 -16 0 -2 83 102 -45 0 1000 -2 1001 1002 1001 1002 1001 1002 1001 1002 1001 1002 1034 -2 1009 1010 -2 1009 1035 1001 1002 1001 1002 1001 1002 1001 1002 1036 1005 1006 1005 1006 1005 -2 1006 1040 -2 1009 -2 1014 -5 1009 1010 -8 1009 1041 1005 1006 1005 1006 1005 1006 1040 1013 1014 1013 1014 1009 1010 -13 1009 1014 4317 -3 1018 -3 1017 1018 1019 -9 0 1016 1018 1017 1018 1017 1018 1017 1019 -4 0 1016 1018 1013 1014 -2 1009 1043 1005 1006 1005 1006 1005 1006 1005 1006 1040 1010 1014 1009 1014 1013 -3 1009 1043 -2 1005 -4 1006 1005 1006 1005 1006 1005 1006 1005 1006 1005 1006 1005 1006 1005 1006 1037 1001 1002 1001 1002 1001 1002 1001 1002 1001 1002 1001 1002 1034 1035 1972 1976 1980 1984 1034 1035 1972 1976 1980 1984 1034 1041 1005 1006 1005 1006 1005 1006 1042 -6 1009 1043 1005 1006 1005 1006 1005 1006 1005 1006 1005 1007 -74 0 1013 1014 1009 -2 1013 1010 1013 1014 -2 1013 1014 -2 1013 1009 1014 1009 1014 1009 1014 1069 1070 1065 6020 6021 -25 0 1060 6026 6027 1068 1014 1013 4317 3471 -9 0 3468 3469 -32 0 5555 5527 1064 1007 -49 0 1000 1001 -2 1002 1003 -4 0 1000 -2 1001 1002 1001 1002 1036 -2 1005 1006 1005 1006 1005 1006 1005 1006 1005 1006 1040 -5 1009 1041 1005 1006 1005 1006 1005 1006 1005 1006 1042 -5 1009 -3 1013 1010 1014 1013 1009 1014 1013 1014 -2 1013 1014 1013 1014 1013 1010 1013 1014 1013 1014 -4 1009 1010 -2 1009 4317 1017 1018 1017 1018 4318 1009 1013 1014 1013 1014 1013 -2 1014 1013 1014 1013 1014 1010 1014 1009 1011 -31 0 1016 1018 -12 1009 -2 1014 -2 1013 1014 -5 1009 1010 -2 1014 1009 1013 -3 1009 1010 -10 1009 1043 1005 1006 1005 1006 1005 1006 1005 1006 1005 1006 1005 1006 1040 1041 1005 1006 1005 1006 1040 1041 1005 1006 1005 1006 1040 1014 -2 1009 1013 -20 1009 1035 1001 1002 1003 -71 0 1013 1014 1013 -3 1009 1013 1009 1014 1009 -3 1013 1009 1010 -2 1014 -2 1009 -2 1014 1069 6024 6025 1046 44 -22 0 6044 1064 6030 -3 1009 4317 3469 -44 0 6062 1009 1068 1035 -3 1001 1002 -3 1001 1002 1001 1002 1001 1003 -37 0 1004 -3 1005 1007 -4 0 1004 -2 1005 1006 1005 1006 1040 1009 -2 1014 -4 1009 -2 1014 1010 -3 1009 1013 1014 1013 1014 1013 1014 1013 1014 1013 1014 1013 1014 1013 1010 1013 -2 1010 -4 1009 1013 -2 1009 4317 1017 1018 1017 1018 -2 1017 1018 1017 1018 1017 1018 1017 1018 1017 4318 1009 1014 1013 1014 1013 1009 4317 3469 -4 0 3462 3463 1017 1018 1017 1018 1017 -2 1018 1017 1018 1017 1018 1017 1018 1017 1019 -33 0 1012 1014 1013 1014 1013 1014 1013 1014 1009 1013 1014 1013 -2 1014 1010 1014 1010 1013 1014 1013 1014 1009 -2 1014 1010 -41 1009 -2 1014 1009 1014 1009 -2 1013 -4 1009 1014 1009 1014 -2 1009 1013 -2 1009 1014 1013 -2 1014 1010 1009 1041 1005 1006 1037 1001 1002 1003 -68 0 1013 1009 1014 -2 1013 1014 1013 -2 1009 1013 1009 1010 1014 1013 1014 1013 1014 1013 1014 1013 -2 1014 1009 6029 1048 1052 -22 0 6048 1068 1013 -2 1009 1013 3467 -4 0 44 -17 0 -4 44 -19 0 1012 -2 1009 1041 1005 -5 1006 1005 1006 1005 1006 1005 1037 1001 1002 1001 1002 1001 1002 1001 1002 1003 -28 0 1016 1018 -2 1017 1019 -4 0 1016 -2 1017 1018 1017 1018 1017 4318 1009 1014 1013 1014 1013 1014 1009 -3 1014 1010 4317 1017 1018 1017 1018 1017 1018 1017 1018 1017 1018 1017 1018 1017 4318 1009 -2 1014 1013 1014 1009 4317 1017 1018 3464 3465 -14 0 3462 3463 1018 1017 1018 1017 3464 3465 -55 0 1016 1018 1017 1018 1017 1018 1017 1018 -2 1017 1018 1017 1018 1017 1018 1017 1018 1017 1018 1017 1018 1013 1014 1010 1009 1013 1009 1013 1014 1013 1014 1013 1014 1013 1014 1013 1014 1013 1014 1013 1014 -5 1009 1010 -10 1009 1010 -8 1009 1014 1013 1014 -2 1013 -2 1014 -2 1009 1010 1009 -2 1014 1013 1014 1013 1010 -3 1013 1009 -4 1013 1010 -2 1009 1043 1005 1006 1037 1001 1002 1003 -65 0 1013 1010 -2 1009 1010 1014 -2 1010 1013 -3 1009 1014 1009 -2 1013 -2 1014 1010 1013 -3 1009 1013 1050 1054 -22 0 1016 4318 1014 1009 1013 4317 3471 -8 0 5555 5567 -27 0 6004 6005 -3 1001 6006 6007 0 1012 -4 1009 -2 1013 1009 1010 -6 1009 1041 1005 1006 1005 1006 1005 1006 1005 1006 1007 -44 0 5611 -2 1009 -3 0 -3 1009 1013 -2 1009 5612 -13 0 3462 3463 1017 1018 1017 1018 3464 3465 -102 0 1016 -2 1017 -3 1018 1017 1018 1017 1018 1017 1018 1017 1018 1017 1018 1017 1018 1017 1018 1013 1014 1013 1014 1013 1014 1013 1014 1013 1014 1013 1014 1013 1014 -7 1009 1010 -3 1009 1013 1009 1010 -2 1014 1009 1014 -4 1009 -2 1013 1009 1010 1009 1014 -3 1009 1013 1014 -9 1009 1043 1005 1006 1037 1001 1002 1003 -62 0 1014 -3 1013 1009 -3 1013 -3 1014 1010 1009 1013 1009 1013 1009 1013 1009 -2 1013 1014 1009 1014 1013 1056 1052 44 -21 0 3462 3463 4318 4317 3469 -8 0 5563 5557 5573 5524 6013 1001 1002 -3 1001 6006 6007 -11 0 1000 1002 1001 1002 1001 6014 6015 6008 6009 -3 1006 6010 6011 1066 1034 -4 1009 -2 1014 1013 1014 1013 1010 1013 1014 1013 -10 1009 1035 1001 1002 1001 1002 1061 -39 0 5634 -2 5607 5635 0 5634 -6 5607 5635 -143 0 1016 1018 1017 1018 1017 1018 1017 1018 1017 1018 1017 1018 1017 1018 1013 1014 1013 1014 1013 1014 1013 1014 -3 1009 1014 -2 1013 -3 1014 1013 -4 1009 -2 1014 -3 1013 1009 -3 1013 1009 1013 -4 1014 -8 1009 1043 1005 1006 1037 1003 -61 0 -3 1014 1009 1014 -2 1013 1014 -2 1013 1014 -2 1013 -2 1009 -2 1013 -2 1009 -3 1014 1009 1013 1009 1058 1054 -15 0 44 -3 0 44 -4 0 3468 3469 -4 0 44 -4 0 5569 1009 1069 5522 6017 -4 1006 1005 6010 6011 6012 6013 -2 1002 -2 1001 -2 1002 -3 1001 1036 1005 1006 -2 1005 6018 6019 1068 1009 1014 1010 -2 1009 1069 1070 1040 -6 1009 1014 1009 1014 1013 -3 1014 1013 -9 1009 1041 1005 1006 1005 1006 1065 1066 -3 1002 1061 -105 0 104 27 29 104 -95 0 1016 1018 1017 1018 1017 1018 1017 1018 1013 1014 1013 1009 -2 1013 1014 -2 1013 1009 1014 1013 1014 1013 1014 1013 1014 1013 1014 -4 1009 1010 1014 -2 1009 -2 1010 -6 1009 1010 -4 1009 1043 1007 -61 0 1014 1009 1010 1014 -3 1013 -3 1009 -2 1014 1009 1014 1009 1014 1009 1014 -2 1009 1013 1014 1013 -3 1009 1056 1046 -21 0 44 -11 0 5563 5575 -3 1013 -3 1009 1014 1010 1013 1009 1069 6016 6017 -2 1006 1005 1006 1005 1006 1005 -2 1006 1040 1010 1013 1014 -3 1013 1014 1013 1014 1009 1014 1009 1014 -4 1009 1010 1009 -2 1010 1014 -2 1009 1013 -3 1009 1014 -10 1009 1010 1013 1014 -2 1009 1070 1006 1005 1006 1065 1066 1061 -73 0 83 103 83 -134 0 1016 1018 1017 1018 1017 1013 1014 1013 1014 1017 1018 1017 1018 1017 1018 1017 1018 1017 1018 1013 1014 1013 1014 -18 1009 1019 -61 0 -2 1009 1014 1010 1009 1013 1014 -2 1013 1009 1014 1009 1013 1014 -2 1009 -2 1014 -3 1013 1014 1009 1014 1010 1013 1058 1048 1046 44 -9 0 44 1045 6006 6007 -18 0 5569 1010 1009 1014 1013 1014 1013 1009 1013 -2 1014 1013 1009 1014 1009 1013 1014 1009 1013 1014 1009 1013 1014 1013 -3 1009 1010 1014 -2 1013 1014 -2 1013 1014 -2 1013 -2 1009 1013 1014 -3 1009 1010 1009 1014 1009 1014 1013 -3 1009 1014 -3 1009 1010 -6 1009 1013 1014 -3 1009 1013 1014 -2 1009 1069 1070 1065 1066 1061 -4 0 1000 1003 -6 0 1000 1003 -3 0 1060 1003 -4 0 1000 1061 -188 0 1016 1018 1017 1019 -10 0 1016 1018 1017 1018 1013 1014 1013 1014 1013 1014 -10 1009 1014 1015 -62 0 1009 1013 -3 1009 1013 -2 1009 1010 1014 1009 1013 1010 -2 1013 1014 1013 -2 1014 1010 1013 1010 -3 1014 1010 1013 1050 1048 6032 -9 0 1045 1047 6010 6011 1066 1061 -6 0 44 -3 0 44 -4 0 5555 5575 4317 1009 4317 -3 1018 -2 1017 -2 1018 1017 1018 4318 -6 1009 1010 1013 1014 1009 1014 1013 1010 1013 1014 1010 -2 1009 -2 1014 1009 1013 1014 -2 1009 -2 1013 -5 1009 1013 -2 1014 1013 1014 -2 1009 1014 -8 1009 1014 1009 1013 1009 1013 -8 1009 1069 1070 1065 1066 1001 1002 1001 1036 1007 -6 7395 1004 1037 1002 6014 6015 1064 1037 -2 1002 -2 1001 1036 1065 6012 6013 1001 1002 6006 6007 -28 0 6004 6005 1002 1001 1002 1001 1002 6006 6007 -127 0 83 -35 0 1016 1018 1017 1018 1017 1018 -10 1009 1018 1019 -5 0 -2 44 -55 0 1009 1014 -2 1013 1014 1013 1010 1013 1009 1014 1009 1014 1009 1013 1014 1010 1013 1009 1010 1009 1013 1014 1013 1009 1010 1009 1014 1013 1050 6036 6037 44 -5 0 44 6035 1047 1049 1013 1069 1070 1065 6020 6021 -12 0 5555 5557 1014 4317 3464 3465 -9 0 3462 3463 -2 1017 -2 1018 4318 1009 1010 -2 1013 1009 1013 -2 1009 1013 1014 1013 -2 1009 1014 1009 -2 1013 1009 1014 1010 -4 1009 1014 1013 1009 -2 1013 1009 1013 -3 1014 -8 1009 1014 1009 1013 1010 4317 1009 4317 -3 1018 1017 4318 -3 1009 1069 1070 1005 1006 1005 1040 1820 -6 0 1817 1041 1006 6018 6019 1068 1041 -2 1006 1005 1006 1040 1069 6016 6017 -2 1005 6010 6011 6012 6013 1002 1001 1003 -22 0 6044 6008 6009 1006 1005 1006 1005 1006 6010 6011 6012 6013 1002 1001 1002 1001 1002 1003 -25 0 47 -2 83 47 -132 0 1008 -7 1009 1014 1015 -7 0 1000 1003 -55 0 -3 1009 1010 1014 -2 1013 1009 1014 1009 -2 1013 -2 1014 -2 1009 -2 1013 -3 1009 -3 1013 1009 1010 1013 1010 1009 6040 6041 1066 1061 0 44 -2 0 6038 6039 1049 -2 1009 1013 1009 1069 6024 6025 6006 6007 -4 0 44 -4 0 5566 5557 1009 4317 3469 -17 0 3462 3463 -3 1018 4318 1009 -3 1014 1009 1014 -2 1009 -2 1014 1010 1009 -2 1013 -2 1014 -5 1009 1013 -2 1014 1013 1009 -3 1013 -12 1009 4317 3464 3465 -4 0 3462 3463 1017 1009 1014 -5 1009 1820 5564 -4 0 5563 1817 -11 1009 1014 1010 1009 1014 1013 1009 1069 6016 6017 1006 1005 1037 6006 6007 -20 0 6048 1010 1009 1013 1014 1009 1010 1013 1009 1069 6016 6017 1006 1005 1006 1005 1006 1007 -161 0 1012 -7 1009 1018 1019 -7 0 1004 1007 -55 0 -2 1010 1013 1009 -2 1014 1009 -2 1014 1009 1014 1009 1014 1009 1013 1014 1013 -2 1014 1010 1013 1009 1014 1009 1014 1013 1009 -3 1013 1069 1070 1065 6012 6013 6014 6015 6042 6043 1010 -2 1009 1013 1014 1010 1009 6029 6010 6011 6012 6013 -2 1001 1002 1001 1002 4719 5571 5572 -2 1009 3467 -23 0 3462 3463 1017 4318 -2 1009 1013 1009 1014 -2 1010 1014 1013 -2 1014 -5 1009 -2 1010 1014 -3 1009 1013 1014 -13 1009 4317 3469 -9 0 3468 4318 -5 1009 1013 5570 -4 0 5569 -2 1013 -2 1014 1009 4317 1018 1017 -5 1018 4318 -2 1009 1013 1014 1010 1009 -2 1014 1009 1041 6010 6011 6012 6013 1001 1003 -11 0 6004 6005 1002 1001 1002 1034 1013 1014 -2 1009 1010 -11 1009 1011 -91 0 1000 1003 -2 0 1000 1003 -64 0 1008 -5 1009 1014 1015 -5 0 -2 44 -2 0 1016 1019 -55 0 -2 1013 1009 1014 1013 1014 1013 1010 1013 -2 1010 -2 1014 -2 1010 -2 1014 1013 1014 1013 -3 1009 1014 -3 1009 1014 1010 1014 -2 1009 1069 6016 6017 6018 6019 1068 1013 1009 1013 1009 1014 1013 1014 1009 -2 1013 1069 6016 6017 1006 -2 1005 -2 1006 4721 1009 1068 1013 4317 3471 -26 0 3462 3463 4318 -3 1009 -2 1013 -2 1014 1009 1014 -5 1009 -2 1013 1009 1010 1013 1010 1009 1010 1013 -2 1014 1013 1010 1009 1014 1013 -2 1009 1014 -2 1009 3467 -11 0 3462 3463 4318 -4 1009 6065 -4 0 6064 1013 4317 -2 1017 3464 3465 -7 0 3462 3463 1017 -3 1018 -3 1017 1018 4318 1009 1069 6016 6017 1005 1037 1002 1001 1002 1001 1002 1001 1002 1001 1002 6014 6015 6008 6009 1006 1005 1006 1040 -5 1009 1014 1013 -9 1009 1015 -86 0 1000 1002 1003 -2 0 1004 1007 -2 0 1004 1007 -19 0 83 -2 0 83 -2 0 83 -38 0 1012 1009 1010 -3 1009 1018 1019 -5 0 1000 1003 -16 0 -3 83 -28 0 1000 1002 1001 1002 1001 1002 1001 1002 1001 0 1001 1002 1013 1014 -3 1013 1009 1014 1009 -2 1013 -2 1014 1009 1014 1009 1014 -2 1009 1014 1009 1014 -3 1013 1010 1014 1009 1010 -2 1009 1014 1013 1009 1013 1009 1013 1009 1014 1013 -3 1009 1013 1014 1013 1010 1013 -3 1014 -2 1009 1010 -2 1009 -2 1014 -3 1013 1820 5564 -28 0 3468 4318 -2 1009 1014 1013 -4 1014 1009 1014 -10 1009 1013 1014 -5 1009 -2 1014 -3 1013 1010 4317 3471 -13 0 3462 3463 1017 4318 1009 1015 -4 0 3468 3464 3465 -21 0 3462 3463 4318 -2 1014 1009 1041 1005 1006 1005 -2 1006 1005 1006 1005 1006 6018 6019 1068 -5 1009 1010 -2 1009 1014 1010 1014 1010 -8 1009 1013 1035 -2 1002 1001 1002 1001 1002 -2 1001 1003 -15 0 47 83 27 29 83 47 -9 0 1000 -2 1001 1002 1003 -39 0 1060 1001 1002 1036 1006 1037 1972 1984 1034 1035 1972 1984 1034 1035 1001 1002 1001 1002 1001 1002 1003 -57 0 1008 -3 1009 1014 1015 -7 0 1004 1007 -34 0 1000 1002 1001 1002 1001 1002 1001 0 1001 1002 1001 1002 1001 1036 1006 1005 1006 1005 1006 1005 1006 1005 1006 1005 1006 1013 -3 1009 1013 1010 1013 1014 1013 1014 -2 1013 1009 1010 1014 1009 1014 -2 1009 1013 -2 1014 1010 -3 1014 1013 1009 -2 1013 -6 1014 -2 1009 1010 1013 1009 -4 1013 1009 -2 1014 1009 -2 1014 1010 1009 1013 1009 1013 1009 1013 1010 1014 1009 5570 -29 0 1012 -20 1009 1014 1009 1013 -8 1014 -2 1009 1820 5564 -16 0 3462 3463 3469 -30 0 3468 4318 -2 1014 -6 1009 1010 -3 1009 1013 -3 1009 1014 1009 1010 -2 1009 1014 1010 1014 1009 1013 1014 -5 1009 1013 -2 1010 1013 1041 -3 1006 1005 1006 1005 1006 1005 1007 -30 0 1004 -2 1005 1006 1037 1001 1002 1001 1002 1001 1002 1001 1002 1003 -28 0 1060 1063 1064 1005 1006 1042 1009 1043 1005 1006 1040 1041 1005 1006 1040 1041 1005 1006 1005 1006 1005 1006 1007 -21 0 1000 1001 1002 1001 1002 1001 1002 1001 -2 1002 1003 -25 0 1012 -4 1009 1019 -7 0 1016 1019 -34 0 1004 1006 1005 1006 1005 1006 1005 1006 1005 1006 1005 1006 1005 1042 -11 1009 -3 1013 1009 -2 1013 1009 -2 1014 1010 1009 -2 1013 -2 1014 1010 1013 1009 -2 1010 1014 -3 1009 1013 1014 1009 -2 1014 1013 1009 1013 1009 1013 1009 1013 1009 1014 1013 1010 1009 1013 1014 -3 1009 1010 -2 1014 1009 -2 1014 1013 1010 1014 1013 1009 1014 -2 1013 1009 5576 5556 -27 0 5566 1817 -20 1009 1014 1010 1014 -2 1009 -2 1013 -2 1014 1009 1010 1013 -2 1009 5570 -50 0 3466 1013 -2 1014 1010 1009 -2 1013 -2 1014 1013 1014 1013 -3 1009 1014 -3 1009 1014 1013 1014 1009 -2 1013 -2 1014 -5 1009 1013 1010 -2 1009 1013 1009 -2 1014 1009 -2 1014 1013 1010 1035 -2 1002 1003 -4 0 1000 1002 1003 -20 0 1008 -3 1009 1041 -6 1006 -2 1005 1007 -26 0 1060 1063 1064 1067 1068 -19 1009 1011 -10 0 1000 1002 1001 1002 1001 1002 1001 1002 1001 -2 1002 1036 1005 1006 1005 1006 1005 1006 1005 -2 1006 1037 1001 1002 1001 1002 1001 1002 1001 1002 1001 1002 0 1002 1001 1002 1061 -10 0 1008 -2 1009 1014 1015 -23 0 1000 1002 1001 -2 1002 1001 1002 1001 1003 -6 0 1000 1002 1001 1002 1001 1002 1034 -17 1009 1010 -6 1009 -2 1014 1009 -2 1014 1009 -2 1013 -2 1014 1009 -2 1014 1013 -2 1014 -2 1009 1014 -2 1009 1014 1010 -2 1013 1009 1014 1009 -9 1013 -2 1014 1010 1014 -3 1013 1014 1013 1010 1013 1009 1014 1009 1014 1009 -2 1013 -2 1009 1014 1009 1014 -2 1009 5558 5567 -8 0 5566 1724 1725 1724 5567 -7 0 5566 1725 -3 1724 5571 5572 1013 -20 1009 1013 1010 1014 1010 1013 1014 1009 1013 1014 1009 1013 1009 1014 1009 5576 5556 -22 0 5555 1724 5567 -13 0 5566 1724 5567 -8 0 3470 4318 1013 -2 1009 1013 1014 1009 1013 1009 1010 1009 -3 1014 1013 -3 1014 1013 1014 1009 -6 1013 -5 1009 1013 1014 -2 1013 1014 1009 -2 1014 1009 -2 1014 -2 1009 1041 1005 1006 1007 -4 0 1004 1006 1007 -4 0 1000 1001 1002 1001 1002 1001 1002 1003 -8 0 1012 1013 -2 1009 1014 -3 1013 -2 1009 -3 1013 1011 -18 0 1000 1001 1002 1001 1002 1001 1002 1063 1064 1067 1068 -2 1009 1010 1020 1021 1022 -10 1009 1010 -4 1009 1035 1001 1002 1001 1002 1001 1002 1001 1002 1001 1002 1036 1006 1005 1006 1005 1006 1005 1006 1005 -2 1006 1042 -9 1009 1043 1005 1006 -5 1005 -4 1006 -2 1005 1006 1065 1066 1001 1002 1001 1002 -2 1001 -2 1002 1001 1034 -3 1009 1019 -19 0 1000 1002 1001 1002 1036 1006 1005 -2 1006 1005 1006 1005 1037 1001 1002 1001 1002 1001 1002 1036 1006 1005 1006 1005 1006 1040 -6 1009 1020 1022 -16 1009 1014 1009 1014 1013 1014 1010 1009 1013 1009 1010 -2 1014 -2 1013 1009 1010 1009 -2 1013 1009 -3 1013 1009 -4 1013 1009 1014 1010 1014 1010 1014 1009 1014 1010 -2 1014 1013 -2 1014 1010 1009 1014 1009 -3 1013 1009 1014 1010 -2 1009 1014 1009 1014 -2 1009 -2 1013 -2 1014 5573 5574 -2 1725 -2 1724 1725 1724 5571 5572 1013 1014 1009 5573 5574 5556 -3 0 5555 5571 5572 1014 1013 1009 1010 1014 -2 1013 -14 1009 1010 -5 1009 1013 1009 1014 1013 1014 1013 1014 1010 1014 1010 1014 -2 1013 -2 1009 5558 5567 -7 0 5566 -2 1725 1724 5567 -8 0 5566 5557 1010 5573 5574 1725 5567 -6 0 5566 -2 1724 5571 5572 1014 5573 5574 -2 1724 5567 -5 0 1012 1010 1013 1010 1013 1009 1013 1009 -2 1013 1009 1013 1010 1014 1009 1010 1009 1014 1009 -5 1013 -2 1009 1014 -5 1009 1014 1009 1014 1013 1014 1009 -2 1013 1014 1013 1010 1014 1013 1014 -2 1013 1820 -2 1725 -2 1724 1817 1014 1820 1725 -3 1724 5559 1005 -3 1006 1005 1006 1037 1001 1002 1001 1002 1001 1002 1001 1002 1034 -3 1009 1013 1010 1013 1009 1014 1009 -2 1014 1013 1035 1001 1002 1001 1002 1001 1002 1001 1002 1001 1002 1001 1002 1001 1002 1001 1002 1001 1002 1036 1005 1006 1005 1006 1005 1006 1067 1068 -4 1009 1020 1032 1024 1025 -15 1009 1041 1005 1006 1005 1006 1005 1006 1005 1006 1005 1006 1042 -18 1009 1010 1009 1010 -2 1009 1014 1009 1014 -2 1009 -3 1013 1014 -3 1009 1069 1070 -3 1005 1006 1005 1006 1005 -2 1006 1040 1009 1014 1015 -8 0 1000 1002 1001 1002 1001 1002 1001 1002 1001 1002 1001 1002 1036 1006 1005 1006 1042 -7 1009 1043 1005 1006 1005 1006 1005 1006 1042 -12 1009 1023 1031 1022 -15 1009 1014 1013 1010 1013 -3 1014 -2 1013 -2 1014 -2 1009 -2 1013 1014 1009 1014 1009 1010 1009 1013 -3 1014 1010 1014 -2 1009 -4 1010 -3 1009 1010 1013 1014 1009 1014 -2 1013 1014 1013 -2 1009 1014 -2 1013 -2 1009 1013 1010 1014 1013 -2 1009 1013 1014 1009 -3 1014 1009 1014 1013 1014 1013 1009 1013 1014 1009 1010 -2 1013 -2 1014 5558 1725 1724 1725 5557 -2 1014 1009 1013 -2 1010 1014 -2 1013 -21 1009 -2 1014 1013 1009 1014 1010 1009 -2 1013 -3 1009 1013 -2 1014 5573 5574 -2 1725 1724 1725 1724 5571 5572 1014 1009 1014 5573 5574 -5 1725 1724 5571 5572 1009 1013 1014 1009 1014 5573 5574 1724 1725 1724 1725 5571 5572 1014 1013 1009 -3 1014 1009 1014 1013 5573 5574 5556 -3 0 1008 -2 1013 -2 1014 -2 1009 -2 1013 1009 -2 1013 1009 -3 1013 1009 -5 1013 1009 1014 1013 1009 1013 -5 1009 1014 1009 -2 1013 1010 1013 -3 1009 1014 1013 1009 -2 1014 1013 1014 1013 1014 1013 -2 1009 1014 -2 1009 1014 -2 1013 1014 1013 1009 1013 -4 1009 1043 1005 1006 1005 1006 1005 1006 1005 1006 1040 -5 1009 -3 1013 -2 1009 -2 1013 1041 1005 1006 1005 1006 1005 1006 1005 1006 1005 1006 1005 1006 1005 1006 1005 1006 1005 1006 1042 -2 1009 1010 -2 1009 1533 1534 1535 -3 1009 1020 1032 1024 1029 1028 -48 1009 -2 1014 1013 1014 1013 -2 1014 1010 1013 1010 1014 -6 1009 1014 1013 1010 1009 1013 1009 1014 1013 -3 1009 1035 1001 1002 1001 1002 1001 1002 1001 1002 1036 1006 1005 1006 1005 1006 1005 1006 1005 1006 1005 1006 1042 -6 1009 1010 -22 1009 1010 1009 1026 1030 1025 -16 1009 -2 1014 1010 -2 1009 1014 1013 1014 1013 1014 1013 1014 1013 -2 1014 1009 1013 1009 1013 -2 1014 1013 1014 -3 1009 1014 1013 1009 1013 1009 1013 1014 1013 1014 1013 1010 -2 1009 1010 1014 1010 -2 1009 1013 -2 1010 1014 -2 1013 -2 1010 -2 1014 -2 1013 1009 -2 1013 1014 -2 1009 1013 1014 1009 1014 1013 1009 -2 1013 -9 1014 1009 1013 1009 -3 1014 1010 -2 1009 1010 -36 1009 -3 1014 1009 1014 1013 1014 -2 1013 1014 1013 1014 1013 1014 1013 1014 1013 -2 1014 1013 -2 1014 1013 -3 1009 1014 1010 1014 -10 1009 1013 1014 1010 -3 1014 1009 -2 1014 6063 -3 0 1008 1010 -2 1014 -2 1013 -3 1009 -2 1013 1009 -3 1013 1009 1010 -2 1013 1010 1009 1014 1009 1014 1009 1013 -6 1009 1013 1014 1009 1014 1013 1014 1010 -2 1009 1014 1013 -3 1014 1013 1014 1013 -2 1014 -3 1009 -2 1013 1010 1014 1009 1010 -2 1009 1013 1009 1010 -4 1009 1533 1534 1535 -4 1009 1010 -3 1009 1013 1009 -2 1014 1010 1009 1013 1009 1013 -16 1009 1010 -8 1009 1536 1537 1538 -3 1009 1026 -2 1027 1028 1020 1022 -35 1009 1010 -10 1009 1013 1009 1013 1009 1010 1009 1013 1010 1014 -2 1009 1013 1014 -9 1009 1010 -6 1009 1041 1005 1006 1005 1006 1005 1006 1005 1006 1042 -34 1009 1010 -9 1009 1026 1028 -8 1009 1010 -8 1009 1013 1009 1010 1014 -2 1013 -2 1010 -2 1014 -2 1013 1010 -2 1013 -3 1009 1014 -3 1009 1014 1009 1013 -2 1014 -17 1009 1014 -2 1010 1014 1013 1014 1013 1014 1013 1014 1013 -2 1014 1013 -2 1014 1010 -2 1014 1013 1009 1014 -5 1009 1014 -2 1013 -5 1009 1013 1014 -3 1013 1014 -3 1013 -44 1009 1014 -2 1013 -15 1009 -3 1014 1013 1009 1013 1009 1013 1009 1013 1009 1013 1010 1009 1014 -2 1009 1014 1010 1009 1013 1014 1015 -3 0 1012 -2 1013 1010 1013 1010 -2 1013 1014 1009 1014 1009 1010 1009 1014 -3 1009 1014 1013 1009 1013 1014 1009 1013 1014 -6 1009 -2 1014 1009 1014 1013 1014 1009 1014 1009 1013 1010 -3 1013 1010 1013 1010 -2 1013 -2 1009 1014 -3 1013 1009 1013 -3 1014 1013 -6 1009 1536 1537 1538 -9 1009 -2 1014 1010 1009 1010 -2 1014 1013 -6 1009 1010 -28 1009 1026 1028 -46 1009 1014 -2 1013 1009 1013 1010 -2 1014 1010 -2 1013 1009 1013 -87 1009)
    )
    (tilemap
      (solid #f)
      (z-pos -110)
      (name "back2")
      (width 450)
      (height 35)
      (tiles -1176 0 1240 1241 1242 -446 0 1243 1244 1245 1246 -410 0 1287 1288 -20 0 402 403 404 405 -10 0 1247 1248 1249 1250 -216 0 1240 1241 1242 -31 0 402 403 404 405 -101 0 1287 1288 -53 0 1289 1290 1287 1288 -12 0 402 403 404 405 -2 0 406 407 408 409 -10 0 1251 1252 1253 1254 -188 0 402 403 404 405 -23 0 1243 1244 1245 1246 0 1287 1288 -24 0 402 403 404 405 406 407 408 409 -101 0 1289 1290 -53 0 1291 1292 1289 1290 -12 0 406 407 408 409 -2 0 410 411 412 413 -4 0 402 403 404 405 -2 0 1255 1256 1257 1258 -182 0 402 403 404 405 -2 0 406 407 408 409 -23 0 1247 1248 1249 1250 0 1289 1290 -18 0 402 403 404 405 -2 0 406 407 408 409 410 411 412 413 -101 0 1291 1292 -4 0 1287 1288 -15 0 402 403 404 405 -20 0 402 403 404 405 -4 0 1293 1294 1291 1292 -12 0 410 411 412 413 -2 0 414 415 416 417 -4 0 406 407 408 409 -2 0 1259 1260 1261 1262 -182 0 406 407 408 409 -2 0 410 411 412 413 -23 0 1251 1252 1253 1254 0 1291 1292 -18 0 406 407 408 409 -2 0 410 411 412 413 414 415 416 417 -101 0 1293 1294 -4 0 1289 1290 0 1287 1288 -12 0 406 407 408 409 -2 0 402 403 404 405 -14 0 406 407 408 409 402 403 404 405 1295 1296 1293 1294 -12 0 414 415 416 417 -2 0 410 411 412 413 -4 0 410 411 412 413 -2 0 1263 1264 1265 1266 -2 0 402 403 404 405 -23 0 402 403 404 405 -149 0 410 411 412 413 -2 0 414 415 416 417 -23 0 1255 1256 1257 1258 0 1293 1294 -3 0 402 403 404 405 -11 0 410 411 412 413 -2 0 414 415 416 417 410 411 412 413 -84 0 402 403 404 405 -13 0 1295 1296 -4 0 1291 1292 0 1289 1290 -12 0 410 411 412 413 -2 0 406 407 408 409 -14 0 410 411 412 413 406 407 408 409 1297 1298 1295 1296 -12 0 410 411 412 413 -2 0 414 415 416 417 -4 0 414 415 416 417 -2 0 1267 1268 1269 1270 -2 0 406 407 408 409 402 403 404 405 -4 0 402 403 404 405 -11 0 406 407 408 409 -12 0 402 403 404 405 -5 0 402 403 404 405 -16 0 402 403 404 405 -4 0 402 403 404 405 -7 0 402 403 404 405 -85 0 414 415 416 417 -2 0 410 411 412 413 -23 0 1259 1260 1261 1262 0 1295 1296 -3 0 406 407 408 409 -11 0 414 415 416 417 -6 0 414 415 416 417 -84 0 406 407 408 409 402 403 404 405 -9 0 1297 1298 -4 0 1293 1294 0 1291 1292 -12 0 414 415 416 417 -2 0 410 411 412 413 -14 0 414 415 416 417 410 411 412 413 1299 1300 1297 1298 -5 0 317 318 -5 0 414 415 416 417 -22 0 410 411 412 413 406 407 408 409 -4 0 406 407 408 409 -11 0 410 411 412 413 -6 0 402 403 404 405 -2 0 406 407 408 409 0 402 403 404 405 406 407 408 409 -16 0 406 407 408 409 -4 0 406 407 408 409 404 405 -5 0 406 407 408 409 -91 0 414 415 416 417 -23 0 1263 1264 1265 1266 0 1297 1298 -3 0 410 411 412 413 -109 0 410 411 412 413 406 407 408 409 -9 0 1299 1300 -4 0 1295 1296 0 1293 1294 -12 0 410 411 412 413 -2 0 414 415 416 417 -18 0 414 415 416 417 1301 1302 1299 1300 -5 0 319 320 -31 0 414 415 416 417 410 411 412 413 -4 0 410 411 412 413 -11 0 414 415 416 417 -6 0 406 407 408 409 -2 0 410 411 412 413 0 406 407 408 409 410 411 412 413 -16 0 410 411 412 413 -4 0 410 411 412 413 408 409 -5 0 410 411 412 413 -118 0 1267 1268 1269 1270 0 1299 1300 -3 0 414 415 416 417 -56 0 402 403 404 405 -49 0 414 415 416 417 410 411 412 413 -9 0 1301 1302 -4 0 1297 1298 0 1295 1296 -12 0 414 415 416 417 -30 0 1301 1302 -42 0 414 415 416 417 -4 0 414 415 416 417 -11 0 410 411 412 413 -6 0 410 411 412 413 -2 0 414 415 416 417 0 410 411 412 413 414 415 416 417 -16 0 414 415 416 417 -4 0 414 415 416 417 412 413 -5 0 414 415 416 417 402 403 404 405 -119 0 1301 1302 -63 0 406 407 408 409 -49 0 410 411 412 413 414 415 416 417 -15 0 1299 1300 0 1297 1298 -113 0 414 415 416 417 -6 0 414 415 416 417 -2 0 410 411 412 413 0 414 415 416 417 418 419 420 421 -26 0 414 415 416 417 -9 0 406 407 408 409 0 402 403 404 405 -179 0 410 411 412 413 -49 0 414 415 416 417 -19 0 1301 1302 0 1299 1300 -129 0 414 415 416 417 -5 0 422 423 424 425 -39 0 410 411 412 413 0 406 407 408 409 -179 0 414 415 416 417 -75 0 1301 1302 -181 0 414 415 416 417 0 410 411 412 413 -179 0 410 411 412 413 -263 0 414 415 416 417 -179 0 414 415 416 417 -479 0 402 403 404 405 -11 0 402 403 404 405 -431 0 406 407 408 409 402 403 404 405 -7 0 406 407 408 409 -431 0 410 411 412 413 406 407 408 409 -7 0 410 411 412 413 -321 0 402 403 404 405 -106 0 414 415 416 417 410 411 412 413 -7 0 414 415 416 417 -321 0 406 407 408 409 -110 0 414 415 416 417 -7 0 418 419 420 421 -321 0 410 411 412 413 -121 0 422 423 424 425 -244 0 1240 1241 1242 -4 0 1240 1241 1242 -24 0 402 403 404 405 -39 0 414 415 416 417 -368 0 1243 1244 1245 1246 -3 0 1243 1244 1245 1246 -24 0 406 407 408 409 -39 0 410 411 412 413 -368 0 1247 1248 1249 1250 -3 0 1247 1248 1249 1250 -15 0 402 403 404 405 -5 0 410 411 412 413 -39 0 414 415 416 417 -368 0 1251 1252 1253 1254 -3 0 1251 1252 1253 1254 -15 0 406 407 408 409 -5 0 414 415 416 417 -411 0 1255 1256 1257 1258 -3 0 1255 1256 1257 1258 -12 0 1002 -2 0 410 411 412 413 -394 0 402 403 404 405 -6 0 402 403 404 405 -12 0 1259 1260 1261 1262 -3 0 1259 1260 1261 1262 -15 0 414 415 416 417 -394 0 406 407 408 409 -6 0 406 407 408 409 -12 0 1263 1264 1265 1266 -3 0 1263 1264 1265 1266 -413 0 410 411 412 413 -6 0 410 411 412 413 -12 0 1267 1268 1269 1270 -3 0 1267 1268 1269 1270 -413 0 414 415 416 417 -6 0 414 415 416 417 -436 0 410 411 412 413 -446 0 414 415 416 417 -513 0)
    )
    (tilemap
      (solid #f)
      (z-pos -120)
      (name "cave")
      (width 450)
      (height 35)
      (tiles -4863 0 402 403 -173 0 5645 5646 -273 0 406 407 -140 0 5645 5646 -11 0 5645 -19 5689 5690 5677 -273 0 410 411 -140 0 5679 5677 -9 0 5645 5689 5690 5685 5675 5663 5665 5674 5665 5663 5676 5663 5674 5685 5687 5664 5674 5676 5687 5665 5686 5665 5663 5677 -415 0 5679 5677 -9 0 5643 5668 5663 5685 5663 5665 5664 5663 5675 5687 5664 5674 -2 5675 -5 5674 5676 5686 5663 5685 5677 -414 0 5645 5690 5677 -10 0 5679 5687 5664 5665 5663 5685 5663 5674 5675 5666 -4 5667 5668 5663 5686 5676 -2 5675 5685 5663 5688 5646 -73 0 5645 5689 5646 5645 -34 5689 5646 5645 5689 5646 -297 0 5645 5690 5663 5688 5646 -9 0 5679 -2 5664 5663 5675 5686 5687 5686 5676 5677 -4 0 5679 5665 5686 5674 5663 5687 5686 5687 5664 5677 -73 0 5679 5664 5688 5690 5676 5686 5663 5676 5663 5686 5685 5686 5663 5685 5676 5685 5664 -2 5663 -2 5685 -2 5663 5665 5664 -2 5676 5663 5664 5663 5674 5675 5664 5685 -2 5663 5686 5674 5688 5690 5666 5644 -293 0 5645 5689 5646 5645 5690 5675 5663 5664 5688 5646 -7 0 5645 5690 5663 5686 5664 -2 5674 5664 5686 5674 5649 -4 5678 5650 5664 5675 5687 5665 5687 5685 5676 5685 5688 5646 -72 0 5643 5668 5674 5663 5676 5665 5663 -2 5687 5663 5675 5663 5687 5663 5665 -2 5663 5674 5663 5664 -2 5685 5664 5663 -2 5676 5663 5665 5663 5674 5675 5664 5676 5686 5685 5674 5687 5664 -2 5665 5677 -294 0 5643 5668 5688 5690 5676 5665 5675 5663 5664 5688 5689 5646 -4 0 5645 5690 5666 5668 5687 5663 5687 5676 5663 5674 5685 5691 -4 5654 5692 -2 5686 5663 5665 5685 5664 5663 5687 5663 5688 5689 5646 -71 0 5643 5668 5686 5687 5663 5664 5676 5663 5686 5676 5685 5663 5676 5675 5685 5665 5664 5674 5663 5664 -2 5686 -2 5674 5663 5664 5663 -2 5674 5663 5675 5676 5674 5663 5674 -2 5675 5674 5666 5644 -295 0 5679 5685 -2 5665 5666 5667 5668 5664 5674 5663 5688 -3 5689 5646 5643 5667 5644 5679 5676 5674 5687 5665 5675 -2 5676 5674 5664 5663 5685 5674 5664 5663 -2 5686 5687 5663 5666 -5 5667 5644 -72 0 5679 5663 5675 5663 5686 -2 5676 5686 5663 5685 5676 5685 5663 5686 5687 5674 5664 5674 5663 5665 5687 5663 5685 5663 5686 -2 5664 5687 5664 5665 5663 5676 5686 5687 5686 5675 5663 5677 -296 0 5679 5685 5687 5666 5644 0 5643 5668 5674 5685 5675 -2 5686 5665 5677 -3 0 5643 -18 5667 5644 -77 0 5645 5690 -2 5674 5675 5676 5663 5674 -3 5663 5675 -2 5663 5665 -2 5663 5674 5664 5675 5664 5675 5664 5675 5674 -2 5686 5675 -2 5687 5676 5663 -2 5664 5663 5676 5663 5665 5688 5646 -295 0 5679 5664 5687 5677 -2 0 5645 5690 5687 5686 -2 5664 5686 5663 5677 5645 -8 5689 5646 -90 0 5679 5687 5664 5676 5664 5686 -2 5676 5686 5664 5686 5685 5687 5674 5664 5674 -2 5663 5674 5665 5676 5675 -2 5686 5664 5665 5663 -2 5674 5663 5674 5676 5675 5663 5676 5687 -3 5663 5677 -294 0 5645 5690 5663 5664 5677 0 5645 5690 -2 5687 5674 5675 5663 5665 5664 5688 5690 5685 5665 5685 5686 5685 5674 5687 5665 5688 -16 5689 5646 -51 0 5645 -8 5689 5646 -5 0 7486 -2 0 7486 -2 0 5645 5690 5675 5665 -2 5664 5674 5685 5664 -2 5686 5687 5674 5663 5664 5676 5665 5675 -2 5663 -2 5675 -2 5687 5675 5676 5665 -2 5685 5674 5685 5686 5676 5664 5676 -2 5686 5685 5675 5664 5688 5646 -293 0 5679 5685 5664 5663 5688 5689 5690 5676 5685 5665 5674 5663 5674 5665 5686 5663 5687 5674 5685 5686 5676 5664 5676 5687 -3 5663 5687 5685 5675 5674 -3 5664 5665 5675 5687 5674 -2 5663 5665 5686 5677 -33 0 5645 -14 5689 5646 5645 5689 5690 5663 5664 5663 -2 5665 5687 -2 5664 5688 5646 -10 0 5643 -2 5667 5668 5663 5676 5664 -2 5663 5664 5685 -2 5674 5685 -2 5665 5676 5665 5675 5663 5664 5686 5687 5675 5685 5674 -2 5686 5675 -2 5687 5685 5664 5675 -2 5676 5665 5663 5675 5687 5665 5677 -292 0 5645 5690 5685 5686 5664 5663 5665 5663 5665 5663 5664 5663 5665 5664 5686 5663 5686 5674 5666 -2 5667 5668 5665 -2 5674 5665 5663 5686 5675 5663 5685 5665 5663 5685 5676 -2 5675 5686 5664 5686 5676 5685 5663 5677 -33 0 5679 5674 5665 5674 5685 5664 -2 5663 5665 5686 5685 5663 5676 5685 5663 5688 5690 5665 5685 5676 -2 5663 5686 -2 5663 5685 -2 5663 5688 -13 5689 5690 -2 5664 5674 5685 5664 -2 5663 5664 5686 5676 5686 5674 5665 5676 5674 5676 5665 5675 5664 5675 5665 -2 5686 5675 5686 5687 5676 5663 -2 5674 5664 5687 5674 5686 5663 5664 5674 5677 -235 0 402 403 404 405 -51 0 5645 5689 5690 5687 5663 -2 5686 5665 5663 5675 5665 5676 5675 -2 5687 5675 5686 5676 5664 5666 5644 -2 0 5679 5687 5686 5675 5664 5685 5664 5685 5663 5675 5687 5674 5663 5676 5674 -2 5665 5676 5663 5686 5685 5663 5677 -33 0 5679 5676 5685 5663 5675 -2 5664 5674 5687 5685 5687 5674 5665 5676 5665 5675 5663 5665 5663 5664 5663 -2 5674 5663 -2 5674 5663 5675 5686 5685 5675 5664 5676 5663 5664 5674 5675 -2 5676 5685 5687 5663 5665 5685 5664 5687 -2 5686 5663 5676 5674 5675 5663 5685 5687 5674 5665 5685 5675 5687 5685 -2 5663 5674 5675 5665 5676 5685 5674 5687 -2 5663 5686 5665 5685 -2 5663 5666 -2 5667 5644 -235 0 406 407 408 409 -51 0 5643 -13 5667 5668 5665 5664 5686 5663 5677 -3 0 5679 5663 5685 5664 5676 5666 -2 5667 5668 5687 5663 5674 5686 5665 5687 5685 5676 5685 5663 5676 5675 5676 5677 -33 0 5679 5686 5663 5676 5665 5664 5674 5686 -2 5676 5663 5686 5663 -2 5675 -2 5663 -2 5674 -2 5663 5686 -2 5664 5687 5664 5665 5664 5686 5663 5665 5674 5665 5663 5685 5665 5687 5674 5663 5675 5664 5686 5676 -2 5675 5685 5663 5685 5675 5676 5663 5685 5666 -24 5667 5644 -238 0 410 411 412 413 -65 0 5679 5675 5663 5674 5665 5649 -3 5678 5650 5685 5664 5675 5676 5677 -2 0 5679 -2 5687 5663 5665 5676 5663 5685 -2 5675 5685 5664 5687 5663 5677 -33 0 5679 5663 5675 5664 5663 5664 5676 -2 5665 5676 5664 5665 5685 5676 5687 5676 5687 5685 5663 5687 5665 5674 5663 -2 5675 5665 5685 5663 5687 5685 5674 5686 5663 5665 -2 5675 -4 5676 5685 5687 5664 5676 5664 5687 5686 5663 5665 5663 5687 5664 5688 5689 5646 -261 0 414 415 416 417 -65 0 5679 5665 5676 5675 5664 5691 -3 5654 5692 5663 5664 5665 5666 5644 0 5645 5690 5675 5674 5665 5674 5676 5687 5674 5663 5687 5663 5674 -2 5663 5677 -33 0 5679 5664 5687 5686 5687 5664 5687 5686 5663 5676 5675 5686 5675 5685 5665 5674 5687 5663 5685 5687 5685 5663 5664 5687 5665 5675 5665 5687 5665 5675 5676 5675 5664 5687 5675 5663 5675 5663 5675 5663 5676 5665 -3 5663 5674 5687 5676 5675 5685 5664 5663 5665 5686 5677 -330 0 5679 -2 5675 5663 5675 5676 5675 5663 5675 5685 -2 5686 5676 5688 -2 5689 5690 5663 5685 5674 5664 5663 5664 5674 5685 5665 -2 5663 5665 5687 5686 5677 -33 0 5679 5665 5664 5665 5685 5665 5664 5665 5686 5685 5686 -2 5674 5687 5686 5664 5663 -2 5675 5663 5664 5663 5674 5675 5665 5686 -2 5663 5687 5676 5663 5665 5675 -4 5685 -2 5676 5685 5686 5663 5665 5686 5674 -2 5664 5675 5663 5686 5687 5665 5663 5665 5677 -330 0 5679 5663 5686 5664 5665 5664 5686 5663 -2 5665 5664 5687 5675 5663 5676 5663 5675 5663 5675 5663 5685 5675 5674 5675 5685 5664 -2 5686 5687 5674 5664 5677 -33 0 5679 5674 5676 5687 5675 5665 5675 5687 5676 5686 5664 5663 5674 5664 5674 5663 5665 5663 5674 5665 5686 5663 5686 5665 -2 5674 5663 5675 5685 5686 5685 5674 5663 5685 5664 5676 5663 5676 5663 5676 5664 5663 -2 5686 5663 5674 5687 5686 5687 5665 5687 5663 5674 5663 5677 -330 0 5679 5665 5685 5686 5685 5664 5676 -2 5685 5674 5663 5676 5663 5674 5685 5663 5665 5676 5687 5674 5687 5675 -2 5665 5674 5685 5665 5663 5664 5685 5674 5677 -33 0 5679 5676 5687 5675 5665 5674 5686 -2 5675 5687 5685 5686 -2 5675 -2 5663 5676 5685 5674 5685 5676 5663 5665 5664 5686 5663 5664 5663 5685 5664 5675 5685 -3 5687 -5 5686 5663 5664 5676 5664 5687 5686 5663 5674 -2 5663 5674 -2 5663 5674 5677 -330 0 5643 -30 5667 5644 -33 0 5679 5685 5665 5663 5664 5675 5664 5663 5674 5663 5664 -2 5676 5687 5686 5664 5663 5675 5676 5664 5675 5674 5663 -2 5664 5663 5675 5686 5687 5686 5676 5665 5687 5674 5687 5665 5685 5664 5685 5665 5663 5686 5685 5686 5663 5676 -2 5674 5676 5664 5663 5674 -2 5663 5677 -395 0 5643 -10 5667 5668 5685 5674 5676 5674 5676 5674 -2 5686 5675 -2 5686 5674 5687 5663 5687 5666 -9 5667 5668 -2 5663 5665 5685 5664 5686 5685 5686 5663 5685 5676 5685 5665 5664 5674 5663 5677 -406 0 5643 -15 5667 5644 -9 0 5643 -9 5667 5668 5686 5676 5686 5665 5664 5675 5677 -270 0)
    )
    (tilemap
      (solid #t)
      (z-pos -1)
      (width 450)
      (height 35)
      (tiles -3673 0 136 137 -28 0 5582 -352 0 136 137 -65 0 138 139 -25 0 1972 5578 5583 1987 -352 0 138 139 -8 0 1604 1605 -36 0 1972 1984 -44 0 5585 -365 0 1606 1607 -35 0 1972 1978 1982 1984 -446 0 1973 -2 1981 1987 -446 0 1975 1983 1987 -494 0 1972 5583 5579 -53 0 5645 -6 5678 5646 -386 0 5585 -55 0 5679 -6 5654 5677 -332 0 5577 1980 -2 1976 1984 -105 0 5679 5663 5666 -2 5667 5668 5685 5677 -333 0 1975 1978 1977 1985 -12 0 2820 -92 0 5643 5667 5644 -2 0 5643 5667 5644 -334 0 1975 1979 1987 -11 0 1972 1984 -12 0 -6 2817 -429 0 1972 1978 1977 1984 -425 0 141 142 -18 0 1972 -2 1977 1978 1987 -425 0 143 144 -18 0 1974 1978 1979 1987 -415 0 141 142 -28 0 1972 1981 1985 -9 0 5577 1976 -2 1980 1984 -403 0 143 144 -28 0 1974 1977 1986 -10 0 1975 -3 1977 -2 1976 5579 -406 0 1600 1601 -21 0 1972 1977 1978 1986 -11 0 1975 -2 1977 1981 1987 -407 0 1602 1603 -20 0 5577 1983 1979 1977 1981 1984 -11 0 1975 1983 1987 -433 0 1973 1978 1986 -447 0 1974 1981 1977 1984 -19 0 7403 7404 -425 0 1975 1978 1982 1981 1984 -5 2817 -13 0 7405 7406 -426 0 1974 1981 1977 1986 -4 0 1972 1984 -8 0 1972 1980 1984 -429 0 1975 1979 -2 1978 1984 -2 0 1972 -2 1978 1976 1984 -5 0 1972 1977 1982 1981 1984 -430 0 1975 1982 1986 0 1972 1982 1981 1977 1982 1977 1984 -3 0 1972 1977 1981 1977 1981 1978 1984 -143 0 5577 5583 5578 5579 -3 0 5577 -2 5578 5579 -276 0 1975 1987 0 1975 1983 1979 1983 -2 1979 1987 -3 0 1975 1979 1983 1979 1983 1979 1987 -1266 0)
    )
    (tilemap
      (solid #f)
      (z-pos -20)
      (width 450)
      (height 35)
      (tiles -7358 0 1348 -2 0 1348 -446 0 79 -2 0 79 -446 0 79 -2 0 79 -446 0 79 -2 0 79 -446 0 79 -2 0 79 -446 0 79 -2 0 79 -446 0 1349 -2 0 1349 -5688 0)
    )
    (tilemap
      (solid #f)
      (z-pos 101)
      (name "secret1")
      (width 450)
      (height 35)
      (tiles -10044 0 5623 -6 5621 5624 -423 0 1013 1010 -3 1009 1013 -3 1014 1009 -2 1014 1009 -6 0 1013 1010 1009 -2 1013 1009 -2 1010 -423 0 1014 -3 1013 1014 1010 -2 1009 1013 -2 1014 1009 1014 -6 0 1014 -2 1009 1014 -2 1009 1014 1009 -423 0 -3 1014 1009 1013 -2 1010 1013 1009 1014 1009 -2 1013 1014 -2 1013 1009 1013 1009 1010 1009 -2 1013 1009 -2 1013 1009 -423 0 -2 1014 1009 1014 1013 1010 1013 -3 1014 1009 1014 1009 -2 1013 -2 1009 -2 1013 -2 1009 1014 -2 1010 1009 1010 1013 1010 5626 -16 0 5625 1013 1014 1013 1014 1013 -399 0 1014 1009 1013 1010 1009 1010 1014 -2 1013 1014 1010 1013 -2 1014 1009 1014 1009 1014 -2 1009 -2 1013 1009 -3 1013 1014 5606 5635 -16 0 5634 5608 1009 1013 -2 1009 1010 -398 0 1014 1010 1009 1014 1009 1010 1009 1014 1009 1014 1013 1014 1013 1014 -2 1013 -2 1009 1014 1009 1014 1009 1010 1009 -3 1013 5613 -18 0 5615 1014 1013 1014 1010 1009 -2 1013 -396 0 1014 1013 1010 1013 1014 1013 1010 1013 -3 1014 -2 1013 1009 1014 1010 1009 -2 1013 1009 1010 1009 -3 1013 1014 1009 5613 -18 0 5615 1013 1009 1014 1009 1013 1009 1013 -396 0 -2 1013 1014 1009 -3 1013 1009 -2 1014 1010 1009 1013 1010 1013 1009 1013 1009 -2 1013 1014 1009 1014 -3 1013 1009 5620 5621 5628 -15 0 5627 5622 1014 1009 1013 -2 1009 1013 1009 -396 0 1013 1014 1009 -3 1013 1014 -2 1013 1009 -2 1014 -2 1013 -2 1009 -2 1014 1013 -2 1014 1009 1013 1010 1014 1009 1010 1009 1014 5620 5621 5628 -12 0 5627 5622 -2 1013 -2 1009 1013 -2 1009 1013 -399 0 1013 1010 1013 1010 1009 1013 1009 1010 -2 1014 1009 1014 1010 1009 1013 1014 1010 -2 1013 1009 -2 1010 1009 1013 1014 1009 -2 1014 5638 -15 0 1013 1014 1010 1009 1013 -2 1009 -443 0 -3 1014 1013 1010 1013 1009 -443 0 1013 -3 1014 1013 1010 1013 -271 0)
    )
    (tilemap
      (solid #f)
      (z-pos 100)
      (width 450)
      (height 35)
      (tiles -7372 0 1013 1014 1013 -447 0 5606 5607 5608 -7925 0)
    )
    (tilemap
      (solid #f)
      (z-pos 102)
      (name "secret2")
      (width 450)
      (height 35)
      (tiles -9962 0 -3 1014 1009 1014 1013 -3 1014 1013 1009 1013 -2 1014 -5 1009 1010 1013 1014 1009 1014 1013 1010 1013 1014 1010 1009 -420 0 -2 1014 -2 1009 1013 -3 1014 1010 1014 -5 1009 1014 -2 1013 -3 1010 -2 1013 1009 1013 -2 1009 1013 1014 1013 -419 0 -2 1014 1009 1014 1013 -2 1014 1013 1009 -4 1013 1009 1014 1013 1009 1014 1013 1009 -2 1014 -2 1013 1014 1010 -3 1014 1009 1014 -418 0 1010 1013 -2 1014 1010 -2 1013 5606 5607 5608 1009 1014 1013 1010 1014 1010 1014 1009 1013 1009 1013 1009 1014 -3 1013 1014 1009 -2 1014 1009 1013 -59 0 1009 1013 -2 1014 1013 1010 1014 1009 1010 -2 1013 -3 1014 -2 1009 1013 1014 1010 1009 1014 -338 0 1009 1013 1010 1014 -2 1009 5606 5635 5627 5622 1009 1014 1010 1014 1009 1010 1013 1014 -2 1009 1013 1014 1013 1009 -3 1014 1009 1014 1013 1014 1009 -59 0 1013 1010 1014 1009 -3 1013 1009 1014 1013 1009 1013 1009 1013 1010 -2 1014 -2 1013 1014 1009 -338 0 1014 1013 1009 -2 1013 1009 5620 5621 5622 1010 1014 1010 1013 -5 1014 -3 1009 1013 1014 1009 1014 -2 1013 1014 1010 -2 1009 1013 -59 0 1014 -2 1009 1014 1013 1014 1009 -3 1013 -5 1014 1009 1010 1014 1010 1009 1014 -338 0 1014 1013 1014 1013 1010 1013 1014 1013 1010 1014 1009 1010 1013 1010 -2 1009 -2 1014 -4 1013 1014 1009 1013 -3 1009 1013 -2 1009 1013 -59 0 1013 1009 -2 1013 1014 1013 1010 1009 1013 5606 5607 5608 1013 1009 1014 1013 -3 1009 1013 1009 -338 0 1009 -2 1013 1009 1013 1014 1013 1009 1013 -4 1014 1013 1009 1014 1013 1009 1014 1013 1010 1009 1010 1013 1014 1013 -2 1009 1013 1009 1014 1009 -59 0 -3 1009 1014 1009 -2 1013 -2 1014 5613 0 5615 -3 1014 1009 1013 1014 1013 -2 1010 -338 0 -2 1009 1014 1010 1013 1010 1014 1009 -2 1013 1010 1009 1013 1009 1014 1009 1013 1009 1013 1009 1014 -3 1013 1014 1010 -2 1014 1009 1013 1010 1013 -59 0 1009 1013 -3 1014 1013 1009 1014 1010 5620 5621 5622 1009 1014 1010 1009 -2 1014 1009 1013 1009 -338 0 -2 1013 -3 1014 1010 -3 1014 1013 1009 1014 1009 1013 1014 1009 1013 1014 1009 1013 1009 -4 1013 1014 1013 1009 1010 1014 -2 1013 -59 0 1010 1009 1014 1010 1013 1014 -3 1009 -5 1014 1009 1010 1014 1010 1009 1014 1009 -338 0 1013 -3 1009 1013 1014 1009 1014 1013 1009 1013 1014 1009 1010 -2 1013 -2 1014 1009 1013 1014 1010 -3 1014 1009 1013 -2 1010 1014 -2 1013 -59 0 1013 1014 1009 -2 1014 1013 1009 1013 1009 1013 1014 1010 1014 1013 1009 -3 1014 1009 1014 1013 -338 0 1014 -2 1009 1013 1014 1009 1014 1013 1009 -2 1013 -9 1014 1009 1013 1009 -3 1014 1010 -2 1009 1010 -2 1009 -808 0)
    )
    (tilemap
      (solid #t)
      (z-pos -2)
      (width 450)
      (height 35)
      (tiles -5453 0 2819 -10296 0)
    )
    (tilemap
      (solid #f)
      (z-pos -150)
      (width 450)
      (height 35)
      (tiles -5656 0 1900 1901 1902 1903 1900 1901 1902 1903 1900 1901 1902 1903 1900 1901 1902 1903 1900 1901 1902 1903 1900 1901 1902 1903 1900 1901 1902 1903 1900 1901 -411 0 1907 1904 1905 1906 1907 1904 1905 1906 1907 1904 1905 1906 1907 1904 1905 1906 1907 1904 1905 1906 1907 1904 1905 1906 1907 1904 1905 1906 1907 1904 1905 1906 1907 1904 1905 1906 1907 1904 1905 -388 0 1908 1909 1910 1911 1908 1909 1910 1911 1908 1909 -13 0 1911 1908 1909 1910 1911 1908 1909 1910 1911 1908 1909 1910 1911 1908 1909 1910 1911 1908 1909 1910 1911 1908 1909 1910 1911 1908 1909 1910 1911 1908 1909 1910 1911 1908 1909 1910 1911 1908 1909 -365 0 1913 1914 1915 1912 1913 1914 1915 1912 1913 1914 1915 1912 1913 1914 1915 1912 1913 1914 1915 1912 1913 1914 1915 1912 1913 1914 1915 1912 1913 1914 1915 1912 1913 1914 1915 1912 1913 1914 1915 1912 1913 1914 1915 1912 1913 1914 1915 1912 1913 1914 1915 1912 1913 1914 1915 1912 1913 1914 1915 1912 1913 1914 1915 1912 1913 1914 1915 1912 1913 1914 1915 1912 1913 1914 1915 1912 1913 1914 1915 1912 1913 1914 1915 1912 1913 1914 1915 1912 1913 1914 1915 1912 1913 1914 1915 1912 1913 1914 1915 1912 1913 1914 1915 1912 1913 1914 1915 1912 1913 1914 1915 -339 0 1901 1902 1903 1900 1901 1902 1903 1900 1901 1902 1903 1900 1901 1902 1903 1900 1901 1902 1903 1900 1901 1902 1903 1900 1901 1902 1903 1900 1901 1902 1903 1900 1901 1902 1903 1900 1901 1902 1903 1900 1901 1902 1903 1900 1901 1902 1903 1900 1901 1902 1903 1900 1901 1902 1903 1900 1901 1902 1903 1900 1901 1902 1903 1900 1901 1902 1903 1900 1901 1902 1903 1900 1901 1902 1903 1900 1901 1902 1903 1900 1901 1902 1903 1900 1901 1902 1903 1900 1901 1902 1903 1900 1901 1902 1903 1900 1901 1902 1903 1900 1901 1902 1903 1900 1901 1902 1903 1900 1901 1902 1903 1900 1901 1902 1903 1900 1901 1902 1903 1900 1901 1902 1903 1900 1901 1902 1903 1900 1901 1902 1903 1900 1901 1902 1903 1900 1901 1902 1903 1900 1901 1902 1903 1900 1901 1902 1903 1900 1901 1902 1903 1900 1901 1902 1903 1900 -294 0 1905 1906 1907 1904 1905 1906 1907 1904 1905 1906 1907 1904 1905 1906 1907 1904 1905 1906 1907 1904 1905 1906 1907 1904 1905 1906 1907 1904 1905 1906 1907 1904 1905 1906 1907 1904 1905 1906 1907 1904 1905 1906 1907 1904 1905 1906 1907 1904 1905 1906 1907 1904 1905 1906 1907 1904 1905 1906 1907 1904 1905 1906 1907 1904 1905 1906 1907 1904 1905 1906 1907 1904 1905 1906 1907 1904 1905 1906 1907 1904 1905 1906 1907 1904 1905 1906 1907 1904 1905 1906 1907 1904 1905 1906 1907 1904 1905 1906 1907 1904 1905 1906 1907 1904 1905 1906 1907 1904 1905 1906 1907 1904 1905 1906 1907 1904 1905 1906 1907 1904 1905 1906 1907 1904 1905 1906 1907 1904 1905 1906 1907 1904 1905 1906 1907 1904 1905 1906 1907 1904 1905 1906 1907 1904 1905 1906 1907 1904 1905 1906 1907 1904 1905 1906 1907 1904 -294 0 1909 1910 1911 1908 1909 1910 1911 1908 1909 1910 1911 1908 1909 1910 1911 1908 1909 1910 1911 1908 1909 1910 1911 1908 1909 1910 1911 1908 1909 1910 1911 1908 1909 1910 1911 1908 1909 1910 1911 1908 1909 1910 1911 1908 1909 1910 1911 1908 1909 1910 1911 1908 1909 1910 1911 1908 1909 1910 1911 1908 1909 1910 1911 1908 1909 1910 1911 1908 1909 1910 1911 1908 1909 1910 1911 1908 1909 1910 1911 1908 1909 1910 1911 1908 1909 1910 1911 1908 1909 1910 1911 1908 1909 1910 1911 1908 1909 1910 1911 1908 1909 1910 1911 1908 1909 1910 1911 1908 1909 1910 1911 1908 1909 1910 1911 1908 1909 1910 1911 1908 1909 1910 1911 1908 1909 1910 1911 1908 1909 1910 1911 1908 1909 1910 1911 1908 1909 1910 1911 1908 1909 1910 1911 1908 1909 1910 1911 1908 1909 1910 1911 1908 1909 1910 1911 1908 -294 0 1913 1914 1915 1912 1913 1914 1915 1912 1913 1914 1915 1912 1913 1914 1915 1912 1913 1914 1915 1912 1913 1914 1915 1912 1913 1914 1915 1912 1913 1914 1915 1912 1913 1914 1915 1912 1913 1914 1915 1912 1913 1914 1915 1912 1913 1914 1915 1912 1913 1914 1915 1912 1913 1914 1915 1912 1913 1914 1915 1912 1913 1914 1915 1912 1913 1914 1915 1912 1913 1914 1915 1912 1913 1914 1915 1912 1913 1914 1915 1912 1913 1914 1915 1912 1913 1914 1915 1912 1913 1914 1915 1912 1913 1914 1915 1912 1913 1914 1915 1912 1913 1914 1915 1912 1913 1914 1915 1912 1913 1914 1915 1912 1913 1914 1915 1912 1913 1914 1915 1912 1913 1914 1915 1912 1913 1914 1915 1912 1913 1914 1915 1912 1913 1914 1915 1912 1913 1914 1915 1912 1913 1914 1915 1912 1913 1914 1915 1912 1913 1914 1915 1912 1913 1914 1915 1912 1913 1914 1915 1912 1913 1914 1915 1912 1913 1914 1915 1912 1913 1914 1915 1912 1913 1914 1915 1912 1913 -273 0 1901 1902 1903 1900 1901 1902 1903 1900 1901 1902 1903 1900 1901 1902 1903 1900 1901 1902 1903 1900 1901 1902 1903 1900 1901 1902 1903 1900 1901 1902 1903 1900 1901 1902 1903 1900 1901 1902 1903 1900 1901 1902 1903 1900 1901 1902 1903 1900 1901 1902 1903 1900 1901 1902 1903 1900 1901 1902 1903 1900 1901 1902 1903 1900 1901 1902 1903 1900 1901 1902 1903 1900 1901 1902 1903 1900 1901 1902 1903 1900 1901 1902 1903 1900 1901 1902 1903 1900 1901 1902 1903 1900 1901 1902 1903 1900 1901 1902 1903 1900 1901 1902 1903 1900 1901 1902 1903 1900 1901 1902 1903 1900 1901 1902 1903 1900 1901 1902 1903 1900 1901 1902 1903 1900 1901 1902 1903 1900 1901 1902 1903 1900 1901 1902 1903 1900 1901 1902 1903 1900 1901 1902 1903 1900 1901 1902 1903 1900 1901 1902 1903 1900 1901 1902 1903 1900 1901 1902 1903 1900 1901 1902 1903 1900 1901 1902 1903 1900 1901 1902 1903 1900 1901 1902 1903 1900 1901 -273 0 1905 1906 1907 1904 1905 1906 1907 1904 1905 1906 1907 1904 1905 1906 1907 1904 1905 1906 1907 1904 1905 1906 1907 1904 1905 1906 1907 1904 1905 1906 1907 1904 1905 1906 1907 1904 1905 1906 1907 1904 1905 1906 1907 1904 1905 1906 1907 1904 1905 1906 1907 1904 1905 1906 1907 1904 1905 1906 1907 1904 1905 1906 1907 1904 1905 1906 1907 1904 1905 1906 1907 1904 1905 1906 1907 1904 1905 1906 1907 1904 1905 1906 1907 1904 1905 1906 1907 1904 1905 1906 1907 1904 1905 1906 1907 1904 1905 1906 1907 1904 1905 1906 1907 1904 1905 1906 1907 1904 1905 1906 1907 1904 1905 1906 1907 1904 1905 1906 1907 1904 1905 1906 1907 1904 1905 1906 1907 1904 1905 1906 1907 1904 1905 1906 1907 1904 1905 1906 1907 1904 1905 1906 1907 1904 1905 1906 1907 1904 1905 1906 1907 1904 1905 1906 1907 1904 1905 1906 1907 1904 1905 1906 1907 1904 1905 1906 1907 1904 1905 1906 1907 1904 1905 1906 1907 1904 1905 -273 0 1909 1910 1911 1908 1909 1910 1911 1908 1909 1910 1911 1908 1909 1910 1911 1908 1909 1910 1911 1908 1909 1910 1911 1908 1909 1910 1911 1908 1909 1910 1911 1908 1909 1910 1911 1908 1909 1910 1911 1908 1909 1910 1911 1908 1909 1910 1911 1908 1909 1910 1911 1908 1909 1910 1911 1908 1909 1910 1911 1908 1909 1910 1911 1908 1909 1910 1911 1908 1909 1910 1911 1908 1909 1910 1911 1908 1909 1910 1911 1908 1909 1910 1911 1908 1909 1910 1911 1908 1909 1910 1911 1908 1909 1910 1911 1908 1909 1910 1911 1908 1909 1910 1911 1908 1909 1910 1911 1908 1909 1910 1911 1908 1909 1910 1911 1908 1909 1910 1911 1908 1909 1910 1911 1908 1909 1910 1911 1908 1909 1910 1911 1908 1909 1910 1911 1908 1909 1910 1911 1908 1909 1910 1911 1908 1909 1910 1911 1908 1909 1910 1911 1908 1909 1910 1911 1908 1909 1910 1911 1908 1909 1910 1911 1908 1909 1910 1911 1908 1909 1910 1911 1908 1909 1910 1911 1908 1909 -273 0 1913 1914 1915 1912 1913 1914 1915 1912 1913 1914 1915 1912 1913 1914 1915 1912 1913 1914 1915 1912 1913 1914 1915 1912 1913 1914 1915 1912 1913 1914 1915 1912 1913 1914 1915 1912 1913 1914 1915 1912 1913 1914 1915 1912 1913 1914 1915 1912 1913 1914 1915 1912 1913 1914 1915 1912 1913 1914 1915 1912 1913 1914 1915 1912 1913 1914 1915 1912 1913 1914 1915 1912 1913 1914 1915 1912 1913 1914 1915 1912 1913 1914 1915 1912 1913 1914 1915 1912 1913 1914 1915 1912 1913 1914 1915 1912 1913 1914 1915 1912 1913 1914 1915 1912 1913 1914 1915 1912 1913 1914 1915 1912 1913 1914 1915 1912 1913 1914 1915 1912 1913 1914 1915 1912 1913 1914 1915 1912 1913 1914 1915 1912 1913 1914 1915 1912 1913 1914 1915 1912 1913 1914 1915 1912 1913 1914 1915 1912 1913 1914 1915 1912 1913 1914 1915 1912 1913 1914 1915 1912 1913 1914 1915 1912 1913 1914 1915 1912 1913 1914 1915 1912 1913 1914 1915 1912 1913 -273 0 1901 1902 1903 1900 1901 1902 1903 1900 1901 1902 1903 1900 1901 1902 1903 1900 1901 1902 1903 1900 1901 1902 1903 1900 1901 1902 1903 1900 1901 1902 1903 1900 1901 1902 1903 1900 1901 1902 1903 1900 1901 1902 1903 1900 1901 1902 1903 1900 1901 1902 1903 1900 1901 1902 1903 1900 1901 1902 1903 1900 1901 1902 1903 1900 1901 1902 1903 1900 1901 1902 1903 1900 1901 1902 1903 1900 1901 1902 1903 1900 1901 1902 1903 1900 1901 1902 1903 1900 1901 1902 1903 1900 1901 1902 1903 1900 1901 1902 1903 1900 1901 1902 1903 1900 1901 1902 1903 1900 1901 1902 1903 1900 1901 1902 1903 1900 1901 1902 1903 1900 1901 1902 1903 1900 1901 1902 1903 1900 1901 1902 1903 1900 1901 1902 1903 1900 1901 1902 1903 1900 1901 1902 1903 1900 1901 1902 1903 1900 1901 1902 1903 1900 1901 1902 1903 1900 1901 1902 1903 1900 1901 1902 1903 1900 1901 1902 1903 1900 1901 1902 1903 1900 1901 1902 1903 1900 1901 -273 0 1905 1906 1907 1904 1905 1906 1907 1904 1905 1906 1907 1904 1905 1906 1907 1904 1905 1906 1907 1904 1905 1906 1907 1904 1905 1906 1907 1904 1905 1906 1907 1904 1905 1906 1907 1904 1905 1906 1907 1904 1905 1906 1907 1904 1905 1906 1907 1904 1905 1906 1907 1904 1905 1906 1907 1904 1905 1906 1907 1904 1905 1906 1907 1904 1905 1906 1907 1904 1905 1906 1907 1904 1905 1906 1907 1904 1905 1906 1907 1904 1905 1906 1907 1904 1905 1906 1907 1904 1905 1906 1907 1904 1905 1906 1907 1904 1905 1906 1907 1904 1905 1906 1907 1904 1905 1906 1907 1904 1905 1906 1907 1904 1905 1906 1907 1904 1905 1906 1907 1904 1905 1906 1907 1904 1905 1906 1907 1904 1905 1906 1907 1904 1905 1906 1907 1904 1905 1906 1907 1904 1905 1906 1907 1904 1905 1906 1907 1904 1905 1906 1907 1904 1905 1906 1907 1904 1905 1906 1907 1904 1905 1906 1907 1904 1905 1906 1907 1904 1905 1906 1907 1904 1905 1906 1907 1904 1905 -273 0 1909 1910 1911 1908 1909 1910 1911 1908 1909 1910 1911 1908 1909 1910 1911 1908 1909 1910 1911 1908 1909 1910 1911 1908 1909 1910 1911 1908 1909 1910 1911 1908 1909 1910 1911 1908 1909 1910 1911 1908 1909 1910 1911 1908 1909 1910 1911 1908 1909 1910 1911 1908 1909 1910 1911 1908 1909 1910 1911 1908 1909 1910 1911 1908 1909 1910 1911 1908 1909 1910 1911 1908 1909 1910 1911 1908 1909 1910 1911 1908 1909 1910 1911 1908 1909 1910 1911 1908 1909 1910 1911 1908 1909 1910 1911 1908 1909 1910 1911 1908 1909 1910 1911 1908 1909 1910 1911 1908 1909 1910 1911 1908 1909 1910 1911 1908 1909 1910 1911 1908 1909 1910 1911 1908 1909 1910 1911 1908 1909 1910 1911 1908 1909 1910 1911 1908 1909 1910 1911 1908 1909 1910 1911 1908 1909 1910 1911 1908 1909 1910 1911 1908 1909 1910 1911 1908 1909 1910 1911 1908 1909 1910 1911 1908 1909 1910 1911 1908 1909 1910 1911 1908 1909 1910 1911 1908 1909 -273 0 1913 1914 1915 1912 1913 1914 1915 1912 1913 1914 1915 1912 1913 1914 1915 1912 1913 1914 1915 1912 1913 1914 1915 1912 1913 1914 1915 1912 1913 1914 1915 1912 1913 1914 1915 1912 1913 1914 1915 1912 1913 1914 1915 1912 1913 1914 1915 1912 1913 1914 1915 1912 1913 1914 1915 1912 1913 1914 1915 1912 1913 1914 1915 1912 1913 1914 1915 1912 1913 1914 1915 1912 1913 1914 1915 1912 1913 1914 1915 1912 1913 1914 1915 1912 1913 1914 1915 1912 1913 1914 1915 1912 1913 1914 1915 1912 1913 1914 1915 1912 1913 1914 1915 1912 1913 1914 1915 1912 1913 1914 1915 1912 1913 1914 1915 1912 1913 1914 1915 1912 1913 1914 1915 1912 1913 1914 1915 1912 1913 1914 1915 1912 1913 1914 1915 1912 1913 1914 1915 1912 1913 1914 1915 1912 1913 1914 1915 1912 1913 1914 1915 1912 1913 1914 1915 1912 1913 1914 1915 1912 1913 1914 1915 1912 1913 1914 1915 1912 1913 1914 1915 1912 1913 1914 1915 1912 1913 -273 0 1901 1902 1903 1900 1901 1902 1903 1900 1901 1902 1903 1900 1901 1902 1903 1900 1901 1902 1903 1900 1901 1902 1903 1900 1901 1902 1903 1900 1901 1902 1903 1900 1901 1902 1903 1900 1901 1902 1903 1900 1901 1902 1903 1900 1901 1902 1903 1900 1901 1902 1903 1900 1901 1902 1903 1900 1901 1902 1903 1900 1901 1902 1903 1900 1901 1902 1903 1900 1901 1902 1903 1900 1901 1902 1903 1900 1901 1902 1903 1900 1901 1902 1903 1900 1901 1902 1903 1900 1901 1902 1903 1900 1901 1902 1903 1900 1901 1902 1903 1900 1901 1902 1903 1900 1901 1902 1903 1900 1901 1902 1903 1900 1901 1902 1903 1900 1901 1902 1903 1900 1901 1902 1903 1900 1901 1902 1903 1900 1901 1902 1903 1900 1901 1902 1903 1900 1901 1902 1903 1900 1901 1902 1903 1900 1901 1902 1903 1900 1901 1902 1903 1900 1901 1902 1903 1900 1901 1902 1903 1900 1901 1902 1903 1900 1901 1902 1903 1900 1901 1902 1903 1900 1901 1902 1903 1900 1901 -273 0 1905 1906 1907 1904 1905 1906 1907 1904 1905 1906 1907 1904 1905 1906 1907 1904 1905 1906 1907 1904 1905 1906 1907 1904 1905 1906 1907 1904 1905 1906 1907 1904 1905 1906 1907 1904 1905 1906 1907 1904 1905 1906 1907 1904 1905 1906 1907 1904 1905 1906 1907 1904 1905 1906 1907 1904 1905 1906 1907 1904 1905 1906 1907 1904 1905 1906 1907 1904 1905 1906 1907 1904 1905 1906 1907 1904 1905 1906 1907 1904 1905 1906 1907 1904 1905 1906 1907 1904 1905 1906 1907 1904 1905 1906 1907 1904 1905 1906 1907 1904 1905 1906 1907 1904 1905 1906 1907 1904 1905 1906 1907 1904 1905 1906 1907 1904 1905 1906 1907 1904 1905 1906 1907 1904 1905 1906 1907 1904 1905 1906 1907 1904 1905 1906 1907 1904 1905 1906 1907 1904 1905 1906 1907 1904 1905 1906 1907 1904 1905 1906 1907 1904 1905 1906 1907 1904 1905 1906 1907 1904 1905 1906 1907 1904 1905 1906 1907 1904 1905 1906 1907 1904 1905 1906 1907 1904 1905 -273 0 1909 1910 1911 1908 1909 1910 1911 1908 1909 1910 1911 1908 1909 1910 1911 1908 1909 1910 1911 1908 1909 1910 1911 1908 1909 1910 1911 1908 1909 1910 1911 1908 1909 1910 1911 1908 1909 1910 1911 1908 1909 1910 1911 1908 1909 1910 1911 1908 1909 1910 1911 1908 1909 1910 1911 1908 1909 1910 1911 1908 1909 1910 1911 1908 1909 1910 1911 1908 1909 1910 1911 1908 1909 1910 1911 1908 1909 1910 1911 1908 1909 1910 1911 1908 1909 1910 1911 1908 1909 1910 1911 1908 1909 1910 1911 1908 1909 1910 1911 1908 1909 1910 1911 1908 1909 1910 1911 1908 1909 1910 1911 1908 1909 1910 1911 1908 1909 1910 1911 1908 1909 1910 1911 1908 1909 1910 1911 1908 1909 1910 1911 1908 1909 1910 1911 1908 1909 1910 1911 1908 1909 1910 1911 1908 1909 1910 1911 1908 1909 1910 1911 1908 1909 1910 1911 1908 1909 1910 1911 1908 1909 1910 1911 1908 1909 1910 1911 1908 1909 1910 1911 1908 1909 1910 1911 1908 1909 -273 0 1913 1914 1915 1912 1913 1914 1915 1912 1913 1914 1915 1912 1913 1914 1915 1912 1913 1914 1915 1912 1913 1914 1915 1912 1913 1914 1915 1912 1913 1914 1915 1912 1913 1914 1915 1912 1913 1914 1915 1912 1913 1914 1915 1912 1913 1914 1915 1912 1913 1914 1915 1912 1913 1914 1915 1912 1913 1914 1915 1912 1913 1914 1915 1912 1913 1914 1915 1912 1913 1914 1915 1912 1913 1914 1915 1912 1913 1914 1915 1912 1913 1914 1915 1912 1913 -23 0 1913 1914 1915 1912 1913 1914 1915 1912 1913 1914 1915 1912 1913 1914 1915 1912 1913 1914 1915 1912 1913 1914 1915 1912 1913 1914 1915 1912 1913 1914 1915 1912 1913 1914 1915 1912 1913 1914 1915 1912 1913 1914 1915 1912 1913 1914 1915 1912 1913 1914 1915 1912 1913 1914 1915 1912 1913 1914 1915 1912 1913 1914 1915 1912 1913 1914 1915 1912 1913 -273 0 1901 1902 1903 1900 1901 1902 1903 1900 1901 1902 1903 1900 1901 1902 1903 1900 1901 1902 1903 1900 1901 1902 1903 1900 1901 1902 1903 1900 1901 1902 1903 1900 1901 1902 1903 1900 1901 1902 1903 1900 1901 1902 1903 1900 1901 1902 1903 1900 1901 1902 1903 1900 1901 1902 1903 1900 1901 1902 1903 1900 1901 1902 1903 1900 1901 1902 1903 1900 1901 1902 1903 1900 1901 1902 1903 1900 1901 1902 1903 1900 1901 1902 1903 1900 1901 -69 0 1903 1900 1901 1902 1903 1900 1901 1902 1903 1900 1901 1902 1903 1900 1901 1902 1903 1900 1901 1902 1903 1900 1901 -273 0 1905 1906 1907 1904 1905 1906 1907 1904 1905 1906 1907 1904 1905 1906 1907 1904 1905 1906 1907 1904 1905 1906 1907 1904 1905 1906 1907 1904 1905 1906 1907 1904 1905 1906 1907 1904 1905 1906 1907 1904 1905 1906 1907 1904 1905 1906 1907 1904 -12 0 1905 1906 1907 1904 1905 1906 1907 1904 1905 1906 1907 1904 1905 1906 1907 1904 1905 1906 1907 1904 1905 1906 1907 1904 1905 -397 0 1909 1910 1911 1908 1909 1910 1911 1908 1909 1910 1911 1908 1909 1910 1911 1908 -12 0 1909 1910 1911 1908 1909 1910 1911 1908 1909 1910 1911 1908 1909 1910 1911 1908 1909 1910 1911 1908 1909 1910 1911 1908 1909 -164 0)
    )
    (trampoline
      (type "stationary")
      (z-pos 50)
      (x 1744)
      (y 800)
    )
    (trampoline
      (type "stationary")
      (z-pos 50)
      (x 1616)
      (y 800)
    )
    (trampoline
      (type "stationary")
      (z-pos 50)
      (x 1648)
      (y 800)
    )
    (trampoline
      (type "stationary")
      (z-pos 50)
      (x 1680)
      (y 800)
    )
    (trampoline
      (type "stationary")
      (z-pos 50)
      (x 1712)
      (y 800)
    )
    (trampoline
      (type "stationary")
      (z-pos 50)
      (x 1776)
      (y 800)
    )
    (trampoline
      (type "stationary")
      (z-pos 50)
      (x 3040)
      (y 544)
    )
    (trampoline
      (type "stationary")
      (z-pos 50)
      (x 2976)
      (y 544)
    )
    (trampoline
      (type "stationary")
      (z-pos 50)
      (x 3008)
      (y 544)
    )
    (trampoline
      (type "stationary")
      (z-pos 50)
      (x 3072)
      (y 544)
    )
    (trampoline
      (type "stationary")
      (z-pos 50)
      (x 3104)
      (y 544)
    )
    (viciousivy
      (z-pos 50)
      (x 2528)
      (y 608)
      (glinting #f)
    )
    (viciousivy
      (z-pos 50)
      (x 5698)
      (y 804)
      (glinting #f)
    )
    (viciousivy
      (z-pos 50)
      (x 5922)
      (y 804)
      (glinting #f)
    )
    (viciousivy
      (z-pos 50)
      (x 6146)
      (y 388)
      (glinting #f)
    )
    (viciousivy
      (z-pos 50)
      (x 8706)
      (y 260)
      (glinting #f)
    )
    (viciousivy
      (z-pos 50)
      (x 8000)
      (y 992)
      (glinting #f)
    )
    (viciousivy
      (z-pos 50)
      (x 9314)
      (y 356)
      (glinting #f)
    )
    (viciousivy
      (z-pos 50)
      (x 10658)
      (y 388)
      (glinting #f)
    )
    (viciousivy
      (z-pos 50)
      (x 11362)
      (y 356)
      (glinting #f)
    )
    (viciousivy
      (z-pos 50)
      (x 12290)
      (y 996)
      (glinting #f)
    )
    (viciousivy
      (z-pos 50)
      (x 10368)
      (y 960)
      (glinting #f)
    )
    (walkingleaf
      (z-pos 50)
      (x 2208)
      (y 576)
      (glinting #f)
    )
    (walkingleaf
      (z-pos 50)
      (x 2466)
      (y 260)
      (glinting #f)
    )
    (walkingleaf
      (z-pos 50)
      (x 5328)
      (y 704)
      (glinting #f)
    )
    (walkingleaf
      (z-pos 50)
      (x 6882)
      (y 196)
      (glinting #f)
    )
    (walkingleaf
      (z-pos 50)
      (x 8162)
      (y 260)
      (glinting #f)
    )
    (walkingleaf
      (z-pos 50)
      (x 10178)
      (y 228)
      (glinting #f)
    )
    (walkingleaf
      (z-pos 50)
      (x 11586)
      (y 324)
      (glinting #f)
    )
    (walkingleaf
      (z-pos 50)
      (x 13090)
      (y 900)
      (glinting #f)
    )
    (walkingleaf
      (z-pos 50)
      (x 13506)
      (y 900)
      (glinting #f)
    )
    (walkingleaf
      (z-pos 50)
      (x 8432)
      (y 896)
      (glinting #f)
    )
    (walkingleaf
      (z-pos 50)
      (x 10096)
      (y 864)
      (glinting #f)
    )
    (walkingleaf
      (z-pos 50)
      (x 1632)
      (y 384)
      (glinting #f)
    )
    (zeekling
      (z-pos 50)
      (x 4864)
      (y 160)
      (glinting #f)
    )
    (zeekling
      (z-pos 50)
      (x 4192)
      (y 208)
      (glinting #f)
    )
  )
)
