(supertux-level
  (version 3)
  (name (_ "Loot island"))
  (author "Aron")
  (contact "nemethfiuk11@gmail.com")
  (license "CC-BY-SA 4.0 International")
  (sector
    (name "main")
    (ambient-light
      (color 1 1 1)
    )
    (background
      (speed 0.5)
      (image-top "/images/background/BlueRock_Forest/blue-top.jpg")
      (image "/images/background/BlueRock_Forest/blue-middle.jpg")
      (image-bottom "/images/background/BlueRock_Forest/blue-bottom.jpg")
    )
    (bonusblock
      (count 0)
      (contents "firegrow")
      (x 288)
      (y 480)
    )
    (bonusblock
      (count 0)
      (contents "icegrow")
      (x 480)
      (y 480)
    )
    (bonusblock
      (count 0)
      (contents "airgrow")
      (x 640)
      (y 480)
    )
    (bonusblock
      (count 0)
      (contents "earthgrow")
      (x 800)
      (y 480)
    )
    (bonusblock
      (count 0)
      (contents "1up")
      (x 960)
      (y 480)
    )
    (camera
      (name "Camera")
      (mode "normal")
    )
    (decal
      (z-pos 0)
      (sprite "/images/tiles/forest/exit-tree-bg.png")
      (x 1376)
      (y 512)
    )
    (decal
      (z-pos 100)
      (sprite "/images/tiles/forest/exit-tree-fg.png")
      (x 1376)
      (y 384)
    )
    (music
      (file "/music/forest/forest-sprint.music")
    )
    (sequencetrigger
      (sequence "endsequence")
      (width 352)
      (height 608)
      (x 1248)
      (y 0)
    )
    (sequencetrigger
      (sequence "stoptux")
      (width 32)
      (height 608)
      (x 1472)
      (y 0)
    )
    (spawnpoint
      (name "main")
      (x 32)
      (y 480)
    )
    (tilemap
      (solid #t)
      (z-pos 0)
      (width 50)
      (height 30)
      (tiles
      0 0 0 0 0 0 0 0 0 0 0 0 0 0 0 0 0 0 0 0 0 0 0 0 0 0 0 0 0 0 0 0 0 0 0 0 0 0 0 0 0 0 0 0 0 0 0 0 0 0
      0 0 0 0 0 0 0 0 0 0 0 0 0 0 0 0 0 0 0 0 0 0 0 0 0 0 0 0 0 0 0 0 0 0 0 0 0 0 0 0 0 0 0 0 0 0 0 0 0 0
      0 0 0 0 0 0 0 0 0 0 0 0 0 0 0 0 0 0 0 0 0 0 0 0 0 0 0 0 0 0 0 0 0 0 0 0 0 0 0 0 0 0 0 0 0 0 0 0 0 0
      0 0 0 0 0 0 0 0 0 0 0 0 0 0 0 0 0 0 0 0 0 0 0 0 0 0 0 0 0 0 0 0 0 0 0 0 0 0 0 0 0 0 0 0 0 0 0 0 0 0
      0 0 0 0 0 0 0 0 0 0 0 0 0 0 0 0 0 0 0 0 0 0 0 0 0 0 0 0 0 0 0 0 0 0 0 0 0 0 0 0 0 0 0 0 0 0 0 0 0 0
      0 0 0 0 0 0 0 0 0 0 0 0 0 0 0 0 0 0 0 0 0 0 0 0 0 0 0 0 0 0 0 0 0 0 0 0 0 0 0 0 0 0 0 0 0 0 0 0 0 0
      0 0 0 0 0 0 0 0 0 0 0 0 0 0 0 0 0 0 0 0 0 0 0 0 0 0 0 0 0 0 0 0 0 0 0 0 0 0 0 0 0 0 0 0 0 0 0 0 0 0
      0 0 0 0 0 0 0 0 0 0 0 0 0 0 0 0 0 0 0 0 0 0 0 0 0 0 0 0 0 0 0 0 0 0 0 0 0 0 0 0 0 0 0 0 0 0 0 0 0 0
      0 0 0 0 0 0 0 0 0 0 0 0 0 0 0 0 0 0 0 0 0 0 0 0 0 0 0 0 0 0 0 0 0 0 0 0 0 0 0 0 0 0 0 0 0 0 0 0 0 0
      0 0 0 0 0 0 0 0 0 0 0 0 0 0 0 0 0 0 0 0 0 0 0 0 0 0 0 0 0 0 0 0 0 0 0 0 0 0 0 0 0 0 0 0 0 0 0 0 0 0
      0 0 0 0 0 0 0 0 0 0 0 0 0 0 0 0 0 0 0 0 0 0 0 0 0 0 0 0 0 0 0 0 0 0 0 0 0 0 0 0 0 0 0 0 0 0 0 0 0 0
      0 0 0 0 0 0 0 0 0 0 0 0 0 0 0 0 0 0 0 0 0 0 0 0 0 0 0 0 0 0 0 0 0 0 0 0 0 0 0 0 0 0 0 0 0 0 0 0 0 0
      0 0 0 0 0 0 0 0 0 0 0 0 0 0 0 0 0 0 0 0 0 0 0 0 0 0 0 0 0 0 0 0 0 0 0 0 0 0 0 0 0 0 0 0 0 0 0 0 0 0
      0 0 0 0 0 0 0 0 0 0 0 0 0 0 0 0 0 0 0 0 0 0 0 0 0 0 0 0 0 0 0 0 0 0 0 0 0 0 0 0 0 0 0 0 0 0 0 0 0 0
      0 0 0 0 0 0 0 0 0 0 0 0 0 0 0 0 0 0 0 0 0 0 0 0 0 0 0 0 0 0 0 0 0 0 0 0 0 0 0 0 0 0 0 0 0 0 0 0 0 0
      0 0 0 0 0 0 0 0 0 0 0 0 0 0 0 0 0 0 0 0 0 0 0 0 0 0 0 0 0 0 0 0 0 0 0 0 0 0 0 0 0 0 0 0 0 0 0 0 0 0
      0 0 0 0 0 0 0 0 0 0 0 0 0 0 0 0 0 0 0 0 0 0 0 0 0 0 0 0 0 0 0 0 0 0 0 0 0 0 0 0 0 0 0 0 0 0 0 0 0 0
      0 0 0 0 0 0 0 0 0 0 0 0 0 0 0 0 0 0 0 0 0 0 0 0 0 0 0 0 0 0 0 0 0 0 0 0 0 0 0 0 0 0 0 0 0 0 0 0 0 0
      1001 1001 1001 1001 1001 1001 1001 1001 1001 1001 1001 1001 1001 1001 1001 1001 1001 1001 1001 1001 1001 1001 1001 1001 1001 1001 1001 1001 1001 1001 1001 1001 1001 1001 1001 1001 1001 1001 1001 1001 1001 1001 1001 1001 1001 1001 1001 1001 1001 1001
      1005 1005 1005 1005 1005 1005 1005 1005 1005 1005 1005 1005 1005 1005 1005 1005 1005 1005 1005 1005 1005 1005 1005 1005 1005 1005 1005 1005 1005 1005 1005 1005 1005 1005 1005 1005 1005 1005 1005 1005 1005 1005 1005 1005 1005 1005 1005 1005 1005 1005
      1009 1009 1009 1009 1009 1009 1009 1009 1009 1009 1009 1009 1009 1009 1009 1009 1009 1009 1009 1009 1009 1009 1009 1009 1009 1009 1009 1009 1009 1009 1009 1009 1009 1009 1009 1009 1009 1009 1009 1009 1009 1009 1009 1009 1009 1009 1009 1009 1009 1009
      1009 1009 1009 1009 1009 1009 1009 1009 1009 1009 1009 1009 1009 1009 1010 1009 1009 1009 1009 1009 1009 1009 1533 1534 1535 1009 1009 1009 1009 1009 1009 1009 1009 1009 1009 1010 1009 1009 1009 1009 1009 1009 1009 1009 1009 1009 1009 1009 1009 1009
      1009 1009 1009 1009 1009 1009 1009 1009 1009 1009 1009 1009 1009 1009 1009 1009 1009 1009 1009 1009 1009 1009 1536 1537 1538 1009 1009 1009 1009 1009 1009 1009 1009 1009 1009 1009 1009 1009 1009 1009 1009 1009 1009 1009 1009 1009 1009 1009 1009 1009
      1009 1009 1009 1010 1009 1009 1009 1009 1009 1009 1009 1009 1009 1009 1009 1009 1009 1009 1009 1009 1009 1009 1009 1009 1009 1009 1009 1009 1009 1009 1009 1009 1009 1009 1009 1009 1009 1009 1009 1009 1009 1009 1009 1009 1009 1009 1009 1009 1009 1009
      1009 1009 1009 1009 1009 1009 1009 1009 1009 1009 1009 1009 1009 1009 1009 1009 1009 1009 1009 1009 1009 1009 1009 1009 1009 1009 1009 1009 1009 1009 1009 1009 1009 1009 1009 1009 1009 1009 1009 1009 1009 1009 1009 1009 1009 1009 1009 1009 1009 1009
      1009 1009 1009 1009 1009 1009 1009 1009 1009 1009 1009 1009 1009 1009 1009 1009 1009 1009 1009 1009 1009 1009 1009 1009 1009 1009 1009 1009 1009 1009 1009 1010 1009 1009 1009 1009 1009 1009 1533 1534 1535 1009 1009 1009 1009 1009 1009 1009 1009 1009
      1009 1009 1009 1009 1009 1009 1009 1009 1009 1009 1009 1009 1009 1009 1009 1009 1009 1009 1009 1009 1009 1009 1009 1009 1009 1009 1009 1009 1009 1009 1009 1009 1009 1009 1009 1009 1009 1009 1536 1537 1538 1009 1009 1009 1009 1009 1009 1009 1009 1009
      1009 1009 1009 1009 1009 1533 1534 1535 1009 1009 1009 1009 1009 1009 1009 1009 1009 1009 1009 1009 1010 1009 1009 1009 1009 1009 1009 1009 1009 1009 1009 1009 1009 1009 1009 1009 1009 1009 1009 1009 1009 1009 1009 1009 1009 1009 1009 1009 1009 1009
      1009 1009 1009 1009 1009 1536 1537 1538 1009 1009 1009 1009 1009 1009 1009 1009 1009 1009 1009 1009 1009 1009 1009 1009 1009 1009 1009 1009 1009 1009 1009 1009 1009 1009 1009 1009 1009 1009 1009 1009 1009 1009 1009 1009 1009 1009 1009 1009 1009 1009
      1009 1009 1009 1009 1009 1009 1009 1009 1009 1009 1009 1009 1009 1009 1009 1009 1009 1009 1009 1009 1009 1009 1009 1009 1009 1009 1009 1009 1009 1009 1009 1009 1009 1009 1009 1009 1009 1009 1009 1009 1009 1009 1009 1009 1009 1009 1009 1009 1009 1009
      )
    )
    (tilemap
      (solid #f)
      (z-pos -100)
      (width 50)
      (height 30)
      (tiles
      0 0 0 0 0 0 0 0 0 0 0 0 0 0 0 0 0 0 0 0 0 0 0 0 0 0 0 0 0 0 0 0 0 0 0 0 0 0 0 0 0 0 0 0 0 0 0 0 0 0
      0 0 0 0 0 0 0 0 0 0 0 0 0 0 0 0 0 0 0 0 0 0 0 0 0 0 0 0 0 0 0 0 0 0 0 0 0 0 0 0 0 0 0 0 0 0 0 0 0 0
      0 0 0 0 0 0 0 0 0 0 0 0 0 0 0 0 0 0 0 0 0 0 0 0 0 0 0 0 0 0 0 0 0 0 0 0 0 0 0 0 0 0 0 0 0 0 0 0 0 0
      0 0 0 0 0 0 0 0 0 0 0 0 0 0 0 0 0 0 0 0 0 0 0 0 0 0 0 0 0 0 0 0 0 0 0 0 0 0 0 0 0 0 0 0 0 0 0 0 0 0
      0 0 0 0 0 0 0 0 0 0 0 0 0 0 0 0 0 0 0 0 0 0 0 0 0 0 0 0 0 0 0 0 0 0 0 0 0 0 0 0 0 0 0 0 0 0 0 0 0 0
      0 0 0 0 0 0 0 1168 1169 1170 0 0 0 0 0 0 0 0 0 0 0 0 0 0 0 0 0 0 0 0 0 0 0 0 0 0 0 0 0 0 0 0 0 0 0 0 0 0 0 0
      0 0 0 0 0 0 0 1174 1175 1176 1177 0 0 0 0 0 0 0 0 0 0 0 0 0 0 0 0 0 0 0 0 0 0 0 0 0 0 0 0 0 0 0 0 0 0 0 0 0 0 0
      0 0 0 1240 1241 1242 1179 1180 1181 1182 1183 0 0 0 0 0 0 0 0 0 0 0 0 0 0 0 0 0 0 0 0 0 0 1240 1241 1242 0 0 0 0 0 0 0 0 0 0 0 0 0 0
      0 0 1243 1244 1245 1246 1185 1186 1187 1188 1189 1190 0 0 0 0 0 0 0 0 0 0 0 0 0 0 0 0 0 0 0 0 1243 1244 1245 1246 0 0 0 0 0 0 0 0 0 0 0 0 0 0
      0 0 1247 1248 1249 1250 1191 1192 1193 1194 1195 1196 0 0 0 0 0 0 0 0 0 0 0 0 0 0 0 0 0 0 0 0 1247 1248 1249 1250 0 0 0 0 0 0 0 0 0 0 0 0 0 0
      0 0 1251 1252 1253 1254 1197 1198 1199 1200 1201 1202 0 0 0 0 0 0 0 0 0 0 0 0 0 0 0 0 0 0 0 0 1251 1252 1253 1254 0 0 0 0 0 0 0 0 0 0 0 0 0 0
      0 0 1255 1256 1257 1258 1203 1204 1205 1206 1207 1208 0 0 0 0 0 0 0 0 0 0 0 0 0 0 0 0 0 0 0 0 1255 1256 1257 1258 0 0 0 0 0 0 0 0 0 0 0 0 0 0
      0 0 1259 1260 1261 1262 1209 1210 1211 1212 1213 1214 0 0 0 0 0 0 0 0 0 0 0 0 0 0 0 0 0 0 0 0 1259 1260 1261 1262 0 0 0 130 0 0 0 0 0 0 0 0 0 0
      0 0 1263 1264 1265 1266 0 2045 1219 1220 0 0 402 403 434 435 436 437 404 405 0 0 0 0 0 0 0 0 402 403 404 405 1263 1264 1265 1266 0 0 0 129 0 402 403 434 435 436 437 434 435 436
      0 0 1267 1268 1269 1270 0 2046 1225 1226 0 0 406 407 438 439 440 441 408 409 0 0 0 0 0 0 0 0 406 407 408 409 1267 1268 1269 1270 0 0 0 129 0 406 407 438 439 440 441 438 439 440
      0 0 1271 1272 1273 1274 0 0 1217 1218 0 0 410 411 442 443 444 445 412 413 402 403 434 435 436 437 404 405 410 411 412 413 1271 1272 1273 402 403 404 405 129 0 410 411 442 443 444 445 442 443 444
      0 0 1275 1276 1277 1278 0 0 1223 1224 0 0 414 415 446 447 448 449 416 417 406 407 438 439 440 441 408 409 414 415 416 417 1275 1276 1277 406 407 408 409 129 0 414 415 446 447 448 449 446 447 448
      0 0 1279 1280 1281 1282 0 1228 1229 1230 0 0 418 419 450 451 452 453 426 427 428 429 442 443 444 445 426 427 428 429 420 421 1279 1280 1281 410 411 412 413 129 0 418 419 450 451 452 450 451 452 453
      0 0 1283 1284 1285 1286 0 1234 1235 1236 0 0 422 423 454 455 456 457 430 431 432 433 446 447 448 449 430 431 432 433 424 425 1283 1284 1285 414 415 416 417 129 0 422 423 454 455 456 454 455 456 457
      0 0 0 0 0 0 0 0 0 0 0 0 0 0 0 0 0 0 0 0 0 0 0 0 0 0 0 0 0 0 0 0 0 0 0 0 0 0 0 0 0 0 0 0 0 0 0 0 0 0
      0 0 0 0 0 0 0 0 0 0 0 0 0 0 0 0 0 0 0 0 0 0 0 0 0 0 0 0 0 0 0 0 0 0 0 0 0 0 0 0 0 0 0 0 0 0 0 0 0 0
      0 0 0 0 0 0 0 0 0 0 0 0 0 0 0 0 0 0 0 0 0 0 0 0 0 0 0 0 0 0 0 0 0 0 0 0 0 0 0 0 0 0 0 0 0 0 0 0 0 0
      0 0 0 0 0 0 0 0 0 0 0 0 0 0 0 0 0 0 0 0 0 0 0 0 0 0 0 0 0 0 0 0 0 0 0 0 0 0 0 0 0 0 0 0 0 0 0 0 0 0
      0 0 0 0 0 0 0 0 0 0 0 0 0 0 0 0 0 0 0 0 0 0 0 0 0 0 0 0 0 0 0 0 0 0 0 0 0 0 0 0 0 0 0 0 0 0 0 0 0 0
      0 0 0 0 0 0 0 0 0 0 0 0 0 0 0 0 0 0 0 0 0 0 0 0 0 0 0 0 0 0 0 0 0 0 0 0 0 0 0 0 0 0 0 0 0 0 0 0 0 0
      0 0 0 0 0 0 0 0 0 0 0 0 0 0 0 0 0 0 0 0 0 0 0 0 0 0 0 0 0 0 0 0 0 0 0 0 0 0 0 0 0 0 0 0 0 0 0 0 0 0
      0 0 0 0 0 0 0 0 0 0 0 0 0 0 0 0 0 0 0 0 0 0 0 0 0 0 0 0 0 0 0 0 0 0 0 0 0 0 0 0 0 0 0 0 0 0 0 0 0 0
      0 0 0 0 0 0 0 0 0 0 0 0 0 0 0 0 0 0 0 0 0 0 0 0 0 0 0 0 0 0 0 0 0 0 0 0 0 0 0 0 0 0 0 0 0 0 0 0 0 0
      0 0 0 0 0 0 0 0 0 0 0 0 0 0 0 0 0 0 0 0 0 0 0 0 0 0 0 0 0 0 0 0 0 0 0 0 0 0 0 0 0 0 0 0 0 0 0 0 0 0
      0 0 0 0 0 0 0 0 0 0 0 0 0 0 0 0 0 0 0 0 0 0 0 0 0 0 0 0 0 0 0 0 0 0 0 0 0 0 0 0 0 0 0 0 0 0 0 0 0 0
      )
    )
  )
)
