(supertux-level
  (version 3)
  (name (_ "The Ghosttree"))
  (author "Aron")
  (contact "nemethfiuk11@gmail.com")
  (license "CC-BY-SA 4.0 International")
  (sector
    (name "main")
    (ambient-light
      (color 0.5 0.5 0.5)
    )
    (background
      (speed 0.5)
      (image-top "/images/background/black_800px.png")
      (image "/images/background/ghostforest_para.png")
      (image-bottom "/images/background/black_800px.png")
    )
    (camera
      (name "Camera")
      (mode "normal")
    )
    (ghosttree
      (dead-script "Tux.trigger_sequence(\"endsequence\");
Tux.trigger_sequence(\"stoptux\");")
      (direction "left")
      (sprite "/images/creatures/ghosttree/ghosttree.sprite")
      (x 672)
      (y 1312)
    )
    (lantern
      (x 832)
      (y 928)
    )
    (lantern
      (x 960)
      (y 1280)
    )
    (lantern
      (x 224)
      (y 1088)
    )
    (magicblock
      (color 1 0 0)
      (x 1344)
      (y 704)
    )
    (magicblock
      (color 0 1 0)
      (x 1152)
      (y 960)
    )
    (magicblock
      (color 0 0 1)
      (x 1248)
      (y 832)
    )
    (magicblock
      (color 0 1 0)
      (x 1184)
      (y 960)
    )
    (magicblock
      (color 0 1 0)
      (x 1216)
      (y 960)
    )
    (magicblock
      (color 1 0 0)
      (x 1376)
      (y 704)
    )
    (magicblock
      (color 1 0 0)
      (x 1408)
      (y 704)
    )
    (magicblock
      (color 0 0 1)
      (x 1280)
      (y 832)
    )
    (magicblock
      (color 0 0 1)
      (x 1312)
      (y 832)
    )
    (music
      (file "/music/forest/treeboss.music")
    )
    (secretarea
      (message (_ "You found a secret area!"))
      (width 160)
      (height 224)
      (x 1440)
      (y 384)
    )
    (spawnpoint
      (name "main")
      (x 64)
      (y 1152)
    )
    (tilemap
      (solid #t)
      (z-pos 0)
      (width 50)
      (height 50)
      (tiles
      0 0 0 0 0 0 0 0 0 0 0 0 0 0 0 0 0 0 0 0 0 0 0 0 0 0 0 0 0 0 0 0 0 0 0 0 0 0 0 0 0 0 0 0 0 0 0 0 0 0
      0 0 0 0 0 0 0 0 0 0 0 0 0 0 0 0 0 0 0 0 0 0 0 0 0 0 0 0 0 0 0 0 0 0 0 0 0 0 0 0 0 0 0 0 0 0 0 0 0 0
      0 0 0 0 0 0 0 0 0 0 0 0 0 0 0 0 0 0 0 0 0 0 0 0 0 0 0 0 0 0 0 0 0 0 0 0 0 0 0 0 0 0 0 0 0 0 0 0 0 0
      0 0 0 0 0 0 0 0 0 0 0 0 0 0 0 0 0 0 0 0 0 0 0 0 0 0 0 0 0 0 0 0 0 0 0 0 0 0 0 0 0 0 0 0 0 0 0 0 0 0
      0 0 0 0 0 0 0 0 0 0 0 0 0 0 0 0 0 0 0 0 0 0 0 0 0 0 0 0 0 0 0 0 0 0 0 0 0 0 0 0 0 0 0 0 0 0 0 0 0 0
      0 0 0 0 0 0 0 0 0 0 0 0 0 0 0 0 0 0 0 0 0 0 0 0 0 0 0 0 0 0 0 0 0 0 0 0 0 0 0 0 0 0 0 0 0 0 0 0 0 0
      0 0 0 0 0 0 0 0 0 0 0 0 0 0 0 0 0 0 0 0 0 0 0 0 0 0 0 0 0 0 0 0 0 0 0 0 0 0 0 0 0 0 0 0 0 0 0 0 0 0
      0 0 0 0 0 0 0 0 0 0 0 0 0 0 0 0 0 0 0 0 0 0 0 0 0 0 0 0 0 0 0 0 0 0 0 0 0 0 0 0 0 0 0 0 0 0 0 0 0 0
      0 0 0 0 0 0 0 0 0 0 0 0 0 0 0 0 0 0 0 0 0 0 0 0 0 0 0 0 0 0 0 0 0 0 0 0 0 0 0 0 0 0 0 0 0 0 0 0 0 0
      0 0 0 0 0 0 0 0 0 0 0 0 0 0 0 0 0 0 0 0 0 0 0 0 0 0 0 0 0 0 0 0 0 0 0 0 0 0 0 0 0 0 0 0 0 0 0 0 0 0
      0 0 0 0 0 0 0 0 0 0 0 0 0 0 0 0 0 0 0 0 0 0 0 0 0 0 0 0 0 0 0 0 0 0 0 0 0 0 0 0 0 0 0 0 0 0 0 0 0 0
      0 0 0 0 0 0 0 0 0 0 0 0 0 0 0 0 0 0 0 0 0 0 0 0 0 0 0 0 0 0 0 0 0 0 0 0 0 0 0 0 0 0 0 0 0 0 0 0 0 0
      0 0 0 0 0 0 0 0 0 0 0 0 0 0 0 0 0 0 0 0 0 0 0 0 0 0 0 0 0 0 0 0 0 0 0 0 0 0 0 0 0 0 0 0 0 0 0 0 0 0
      0 0 0 0 0 0 0 0 0 0 0 0 0 0 0 0 0 0 0 0 0 0 0 0 0 0 0 0 0 0 0 0 0 0 0 0 0 0 0 0 0 0 0 0 0 0 0 0 0 0
      0 0 0 0 0 0 0 0 0 0 0 0 0 0 0 0 0 0 0 0 0 0 0 0 0 0 0 0 0 0 0 0 0 0 0 0 0 0 0 0 0 0 0 0 0 0 0 0 0 0
      0 0 0 0 0 0 0 0 0 0 0 0 0 0 0 0 0 0 0 0 0 0 0 0 0 0 0 0 0 0 0 0 0 0 0 0 0 0 0 0 0 0 0 0 0 0 0 0 0 0
      0 0 0 0 0 0 0 0 0 0 0 0 0 0 0 0 0 0 0 0 0 0 0 0 0 0 0 0 0 0 0 0 0 0 0 0 0 0 0 0 0 0 0 0 0 0 102 128 102 0
      0 0 0 0 0 0 0 0 0 0 0 0 0 0 0 0 0 0 0 0 0 0 0 0 0 0 0 0 0 0 0 0 0 0 0 0 0 0 0 0 0 0 0 0 0 0 0 0 0 0
      0 0 0 0 0 0 0 0 0 0 0 0 0 0 0 0 0 0 0 0 0 0 0 0 0 0 0 0 0 0 0 0 0 0 0 0 0 0 0 0 0 0 0 0 0 1423 1424 1424 1425 1424
      0 0 0 0 0 0 0 0 0 0 0 0 0 0 0 0 0 0 0 0 0 0 0 0 0 0 0 0 0 0 0 0 0 0 0 0 0 0 0 0 0 0 0 0 0 1427 1428 1428 1429 1428
      0 0 0 0 0 0 0 0 0 0 0 0 0 0 0 0 0 0 0 0 0 0 0 0 0 0 0 0 0 0 0 0 0 0 0 0 0 0 0 0 0 0 0 0 0 1439 3398 3399 1433 1432
      0 0 0 0 0 0 0 0 0 0 0 0 0 0 0 0 0 0 0 0 0 0 0 0 0 0 0 0 0 0 0 0 0 0 0 0 0 0 0 0 0 0 0 0 0 0 3406 3407 3398 3414
      0 0 0 0 0 0 0 0 0 0 0 0 0 0 0 0 0 0 0 0 0 0 0 0 0 0 0 0 0 0 0 0 0 0 0 0 0 0 0 0 0 0 0 0 0 0 0 0 3406 3407
      0 0 0 0 0 0 0 0 0 0 0 0 0 0 0 0 0 0 0 0 0 0 0 0 0 0 0 0 0 0 0 0 0 0 0 0 0 0 0 0 0 0 0 0 0 0 0 0 0 0
      0 0 0 0 0 0 0 0 0 0 0 0 0 0 0 0 0 0 0 0 0 0 0 0 0 0 0 0 0 0 0 0 0 0 0 0 0 0 0 0 0 0 0 0 0 0 0 0 0 0
      0 0 0 0 0 0 0 0 0 0 0 0 0 0 0 0 0 0 0 0 0 0 0 0 0 0 0 0 0 0 0 0 0 0 0 0 0 0 0 0 0 0 0 0 0 0 0 0 0 0
      0 0 0 0 0 0 0 0 0 0 0 0 0 0 0 0 0 0 0 0 0 0 0 0 0 0 0 0 0 0 0 0 0 0 0 0 0 0 0 0 0 0 0 0 0 0 0 0 0 0
      0 0 0 0 0 0 0 0 0 0 0 0 0 0 0 0 0 0 0 0 0 0 0 0 0 0 0 0 0 0 0 0 0 0 0 0 0 0 0 0 0 0 0 0 0 0 0 0 0 0
      0 0 0 0 0 0 0 0 0 0 0 0 0 0 0 0 0 0 0 0 0 0 0 0 0 0 0 0 0 0 0 0 0 0 0 0 0 0 0 0 0 0 0 0 0 0 0 0 0 0
      0 0 0 0 0 0 0 0 0 0 0 0 0 0 0 0 0 0 0 0 0 0 0 0 1423 1424 1425 1426 0 0 0 0 0 0 0 0 0 0 0 0 0 0 0 0 0 0 0 0 0 0
      0 0 0 0 0 0 0 0 0 0 0 0 0 1423 1424 1425 1426 0 0 0 0 0 0 0 1427 1428 1429 1430 0 0 0 0 0 0 0 0 0 0 0 0 0 0 0 0 0 0 0 0 0 0
      0 0 0 0 0 0 0 0 0 0 0 0 0 1427 1428 1429 1430 0 0 0 0 0 0 0 1439 1440 1441 1442 0 0 0 0 0 0 0 0 0 0 0 0 0 0 0 0 0 0 0 0 0 0
      0 0 0 0 0 0 0 0 0 0 0 0 0 1439 1440 1441 1442 0 0 0 0 0 0 0 0 0 0 0 0 0 0 0 0 0 0 0 0 0 0 0 0 0 0 0 0 0 0 0 0 0
      0 0 0 0 0 0 0 0 0 0 0 0 0 0 0 0 0 0 0 0 0 0 0 0 0 0 0 0 0 0 0 0 1423 1424 1425 1426 0 0 0 0 0 0 0 0 0 0 0 0 0 0
      0 0 0 0 0 0 1423 1424 1425 1426 0 0 0 0 0 0 0 0 0 0 0 0 0 0 0 0 0 0 0 0 0 0 1427 1428 1429 1430 0 0 0 0 0 0 0 0 0 0 0 0 0 0
      0 0 0 0 0 0 1427 1428 1429 1430 0 0 0 0 0 0 0 0 0 0 0 0 0 0 0 0 0 0 0 0 0 0 1439 1440 1441 1442 0 0 0 0 0 0 0 0 0 0 0 0 0 0
      0 0 0 0 0 0 1439 1440 1441 1442 0 0 0 0 0 0 0 0 0 0 0 0 0 0 0 0 0 0 0 0 0 0 0 0 0 0 0 0 0 0 0 0 0 0 0 0 0 0 0 0
      0 0 0 0 0 0 0 0 0 0 0 0 0 0 0 0 0 0 0 0 0 0 0 0 0 0 0 0 0 0 0 0 0 0 0 0 0 0 0 0 0 0 0 0 0 0 0 0 0 0
      0 1423 1424 1425 1426 0 0 0 0 0 0 0 0 0 0 0 0 0 0 0 0 0 0 0 0 0 0 0 0 0 0 0 0 0 0 0 0 0 0 0 0 0 0 0 0 0 0 0 0 0
      0 1427 1428 1429 1430 0 0 0 0 0 0 0 0 0 0 0 0 0 0 0 0 0 0 0 0 0 0 0 0 0 0 0 0 0 0 0 0 0 0 0 0 0 0 0 0 0 0 0 0 0
      0 1439 1440 1441 1442 0 0 1423 1424 1425 1426 0 0 0 0 0 0 0 0 0 0 0 0 0 0 0 0 0 0 1423 1424 1425 1426 0 0 0 0 0 0 0 0 0 0 0 0 0 0 0 0 0
      0 0 0 0 0 0 0 1427 1428 1429 1430 0 0 0 0 0 0 0 0 0 0 0 0 0 0 0 0 0 0 1427 1428 1429 1430 0 0 0 0 0 0 0 0 0 0 0 0 0 0 0 0 0
      0 0 0 0 0 0 0 1439 1440 1441 1442 0 0 0 0 0 0 0 0 0 0 0 0 0 0 0 0 0 0 1439 1440 1441 1442 0 0 0 0 0 0 0 0 0 0 0 0 0 0 0 0 0
      0 0 0 0 0 0 0 0 0 0 0 0 0 0 0 0 0 0 0 0 0 0 0 0 0 0 0 0 0 0 0 0 0 0 0 0 0 0 0 0 0 0 0 0 0 0 0 0 0 0
      1424 1425 1424 1425 1424 1425 1424 1425 1424 1425 1425 1425 1424 1425 1424 1425 1424 1425 1424 1425 1424 1425 1424 1425 1424 1425 1424 1425 1424 1425 1424 1425 1424 1425 1424 1425 1424 1425 1424 1425 1424 1425 1424 1425 1424 1425 1424 1425 1424 1425
      1428 1429 1428 1429 1428 1429 1428 1429 1428 1429 1428 1429 1428 1429 1428 1429 1428 1429 1428 1429 1428 1429 1428 1429 1428 1429 1428 1429 1428 1429 1428 1429 1428 1429 1428 1429 1428 1429 1428 1429 1428 1429 1428 1429 1428 1429 1428 1429 1428 1429
      3399 3400 3399 3400 3399 3400 3399 3400 3399 3400 3399 3400 3399 3400 3399 3400 3399 3400 3399 3400 3399 3400 3399 3400 3399 3400 3399 3400 3399 3400 3399 3400 3399 3400 3399 3400 3399 3400 3399 3400 3399 3400 3399 3400 3399 3400 3399 1433 3399 3400
      3399 3400 3399 3400 3399 3400 3399 3400 3399 3400 3399 3400 1433 3400 3399 3400 3399 3400 3399 3400 3399 3400 3399 3400 3399 3400 3399 3400 3399 3400 3399 3400 3399 3400 3399 3400 3399 3400 3399 3400 3399 3400 3399 3400 3399 3400 3399 3400 3399 3400
      3399 3400 3399 3400 3399 3400 3399 3400 3399 3400 3399 3400 3399 3400 3399 3400 3399 3400 3399 3400 3399 3400 3399 3400 3399 3400 3399 3400 3399 3400 3399 3400 3399 3400 3399 1433 3399 3400 3399 3400 3399 3400 3399 3400 3399 3400 3399 3400 3399 3400
      3399 3400 3399 3400 3399 3400 3399 3400 3399 3400 3399 3400 3399 3400 3399 3400 3399 3400 3399 3400 3399 3400 3399 3400 3399 3400 3399 3400 3399 3400 3399 3400 3399 3400 3399 3400 3399 3400 3399 3400 3399 3400 3399 3400 3399 3400 3399 3400 3399 3400
      )
    )
  )
)
