(supertux-level
  (version 2)
  (name (_ "Brazil Coast"))
  (author "Miksy91")
  (license "CC-BY-SA 4.0 International")
  (sector
    (name "main")
    (init-script "spout <- true
	while(spout)
		{
    			spout1.goto_node(1);
			wait(1);
			spout2.goto_node(1);
			wait(2.5);
			spout1.goto_node(0);
			wait(1);
			spout2.goto_node(0);
			wait(2.5);
   		}")
    (ambient-light
      (color 1 1 1)
    )
    (background
      (alignment "bottom")
      (speed 0.5)
      (image-top "images/background/halloween/mountain.png")
      (image "images/background/halloween/mountain.png")
      (image-bottom "images/background/halloween/mountain.png")
      (z-pos -150)
    )
    (bonusblock
      (count 10)
      (sprite "/images/objects/bonus_block/purpleblock.sprite")
      (x 2560)
      (y 352)
    )
    (camera
      (name "Camera")
      (mode "normal")
    )
    (fish
      (direction "left")
      (x 2438.172)
      (y 333.0782)
    )
    (fish
      (direction "left")
      (x 2375.172)
      (y 271.0782)
    )
    (flame
      (direction "left")
      (x 2927.6)
      (y 382.8499)
    )
    (flame
      (direction "left")
      (x 2865.1)
      (y 255.35)
    )
    (goldbomb
      (direction "left")
      (x 1556.6)
      (y 366.1)
    )
    (gradient
      (top_color 0.9976348 0.4332952 0.1463492)
      (bottom_color 0.7952844 0.1749447 0.4695659)
    )
    (haywire
      (direction "left")
      (x 1009.85)
      (y 556.6)
    )
    (haywire
      (direction "left")
      (x 1676.1)
      (y 561.6)
    )
    (haywire
      (direction "left")
      (x 2071.1)
      (y 559.1)
    )
    (jumpy
      (direction "left")
      (sprite "/images/creatures/jumpy/wooden.sprite")
      (x 508.1718)
      (y 367.0782)
    )
    (jumpy
      (direction "left")
      (sprite "/images/creatures/jumpy/wooden.sprite")
      (x 416.1718)
      (y 160.0782)
    )
    (jumpy
      (direction "left")
      (sprite "/images/creatures/jumpy/wooden.sprite")
      (x 506.1718)
      (y 161.0782)
    )
    (jumpy
      (direction "left")
      (sprite "/images/creatures/jumpy/wooden.sprite")
      (x 2626.172)
      (y 362.0782)
    )
    (mrbomb
      (direction "left")
      (x 686.4645)
      (y 312.0818)
    )
    (music
      (file "music/antarctic/voc-daytime.ogg")
    )
    (particles-clouds
      (z-pos -125)
    )
    (path
      (name "gen15456858282070743614208")
      (path
        (node
          (x 3680)
          (y 544)
          (time 1.5)
        )
        (node
          (x 3680)
          (y 320)
          (time 1.5)
        )
      )
    )
    (path
      (name "gen15456858282070743612048")
      (path
        (node
          (x 3680)
          (y 544)
          (time 1.5)
        )
        (node
          (x 3680)
          (y 320)
          (time 1.5)
        )
      )
    )
    (sequencetrigger
      (sequence "stoptux")
      (width 32)
      (height 328.25)
      (x 4863.25)
      (y 175.25)
    )
    (spawnpoint
      (name "main")
      (x 56)
      (y 7.999983)
    )
    (spiky
      (direction "left")
      (x 1382)
      (y 560.25)
    )
    (spiky
      (direction "left")
      (x 1892.5)
      (y 562.75)
    )
    (tilemap
      (solid #f)
      (z-pos -100)
      (name "Background")
      (width 155)
      (height 25)
      (tiles
      0 0 0 0 0 0 0 0 0 0 0 0 0 0 0 0 0 0 0 0 0 0 0 0 0 0 0 0 0 0 0 0 0 0 0 0 0 0 0 0 0 0 0 0 0 0 0 0 0 0 0 0 0 0 0 0 0 0 0 0 0 0 0 0 0 0 0 0 0 0 0 0 0 0 0 0 0 0 0 0 0 0 0 0 0 0 0 0 0 0 0 0 0 0 0 0 0 0 0 0 0 0 0 0 0 0 0 0 0 0 0 0 0 0 0 0 0 0 0 0 0 0 0 0 0 0 0 0 0 0 0 0 0 0 0 0 0 0 0 0 0 0 0 0 0 0 0 0 0 0 0 0 0 0 0
      0 0 0 0 0 0 0 0 0 0 0 0 0 0 0 0 0 0 0 0 0 0 0 0 0 0 0 0 0 0 0 0 0 0 0 0 0 0 0 0 0 0 0 0 0 0 0 0 0 0 0 0 0 0 0 0 0 0 0 0 0 0 0 0 0 0 0 0 0 0 0 0 0 0 0 0 0 0 0 0 0 0 0 0 0 0 0 0 0 0 0 0 0 0 0 0 0 0 0 0 0 0 0 0 0 0 0 0 0 0 0 0 0 0 0 0 0 0 0 0 0 0 0 0 0 0 0 0 0 0 0 0 0 0 0 0 0 0 0 0 0 0 0 0 0 0 0 0 0 0 0 0 0 0 0
      0 0 0 0 0 0 0 0 0 0 0 0 0 0 0 0 0 0 0 0 0 0 0 0 0 0 0 0 0 0 0 0 0 0 0 0 0 0 0 0 0 0 0 0 0 0 0 0 0 0 0 0 0 0 0 0 0 0 0 0 0 0 0 0 0 0 0 0 0 0 0 0 0 0 0 0 0 0 0 0 0 0 0 0 0 0 0 0 0 0 0 0 0 0 0 0 0 0 0 0 0 0 0 1012 1009 1009 1009 1009 1009 1009 1009 1009 1009 1009 1009 1009 1009 0 0 0 0 0 0 0 0 0 0 0 0 0 0 0 0 0 0 0 0 0 0 0 0 0 0 0 0 0 0 0 0 0 0 0 0 0 0
      0 0 0 0 0 0 0 0 0 0 0 0 0 0 0 0 0 0 0 0 0 0 0 0 0 0 0 0 0 0 0 0 0 0 0 0 0 0 0 0 0 0 0 0 0 0 0 0 0 0 0 0 0 0 0 0 0 0 0 0 0 0 0 0 0 0 0 0 0 0 0 0 0 0 0 0 0 0 0 0 0 0 0 0 0 0 0 0 0 0 0 0 0 0 0 0 0 0 0 0 0 0 0 217 218 219 220 0 0 0 0 0 1872 1869 1869 1869 1009 1009 1009 1009 1009 1009 1009 1009 1009 1009 1009 1009 1009 1009 1009 1009 1009 1009 1009 1009 1009 1009 1009 1009 1009 1009 1009 1009 1009 1009 1009 1009 1009 1009 1009 1009 1009 1009 1015
      0 0 0 0 0 0 0 0 0 0 0 0 0 0 0 0 0 0 0 0 0 0 0 0 0 0 0 0 0 0 0 0 0 0 0 0 0 0 0 0 0 0 0 0 0 0 0 0 0 0 0 0 0 0 0 0 0 0 0 0 0 0 0 0 0 0 0 0 0 0 0 0 0 0 0 0 0 0 0 0 0 0 0 0 0 0 0 0 0 0 0 0 0 0 0 0 0 0 0 0 0 0 0 0 0 0 0 27 28 28 28 28 28 28 28 28 28 28 28 28 28 28 28 28 28 28 28 28 28 28 28 28 28 28 28 28 28 28 28 28 28 28 28 28 28 28 28 28 28 28 28 28 28 28 28
      0 0 0 0 0 0 0 0 0 0 0 0 0 0 0 0 0 0 0 0 0 0 0 0 0 0 0 0 0 0 0 0 0 0 0 0 0 0 0 0 0 0 0 0 0 0 0 0 0 0 0 0 0 0 0 0 0 0 0 0 0 0 0 0 0 0 0 0 0 0 0 0 0 0 0 0 0 0 0 0 0 0 0 0 0 0 0 0 0 0 0 0 0 0 0 0 0 0 0 0 0 0 0 0 0 0 0 0 0 0 0 0 1872 1869 1869 1869 1869 1869 1869 1869 1869 1869 1869 1869 1869 1869 1869 1869 1869 1869 1869 1869 1869 1869 1869 1869 1869 1869 1869 1869 1869 1869 1869 1869 1869 1869 1869 1869 1869 1869 1869 1869 1869 1869 1869
      0 0 0 0 0 0 0 0 0 0 0 0 0 0 0 0 0 0 0 0 0 0 0 0 0 0 0 0 0 0 0 0 0 0 0 0 0 0 0 0 0 0 0 0 0 0 0 0 0 0 0 0 0 0 0 0 0 0 0 0 0 0 0 0 0 0 0 0 0 0 0 0 0 0 0 0 0 0 0 0 0 0 0 0 0 0 0 0 0 0 0 0 0 0 0 0 0 0 0 0 0 0 0 0 0 0 0 0 0 0 0 0 1868 1869 1869 1869 1869 1869 1869 1869 1869 1869 1869 1869 1869 1869 1869 1869 1869 1869 1869 1869 1869 1869 1869 1869 1869 1869 1869 1869 1869 1869 1869 1869 1869 1869 1869 1869 1869 1869 1869 1869 1869 1869 1869
      0 0 0 0 0 0 0 0 0 0 0 0 0 0 0 0 0 0 0 0 0 0 0 0 0 0 0 0 0 0 0 0 0 0 0 0 0 0 0 0 0 0 0 0 0 0 0 0 0 0 0 0 0 0 0 0 0 0 0 0 0 0 0 0 0 0 0 0 0 0 0 0 0 0 0 0 0 0 0 0 0 0 0 0 0 0 0 0 0 0 0 0 402 403 404 405 0 0 0 0 0 0 0 0 0 0 0 0 0 0 322 0 1868 1869 1869 1869 1869 1869 1869 1869 1869 1869 1869 1869 1869 1869 1869 1869 1869 1869 1869 1869 1869 1869 1869 1869 1869 1869 1869 1869 1869 1869 1869 1869 1869 1869 1869 1869 1869 1869 1869 1869 1869 1869 1869
      0 0 0 0 0 0 0 0 0 0 0 0 0 1348 0 0 1348 0 0 0 0 0 0 0 0 0 0 0 0 0 0 0 0 0 0 0 0 0 0 0 0 0 0 0 0 0 0 0 0 0 0 0 0 0 0 0 0 0 0 0 0 0 0 0 0 0 0 0 0 0 0 0 0 0 0 0 0 0 0 0 0 0 0 0 0 0 0 0 0 0 0 0 406 407 408 409 0 0 0 0 0 0 0 0 0 0 0 0 0 0 0 0 0 1869 1869 1869 1869 1869 1869 1869 1869 1869 1869 1869 1869 1869 1869 1869 1869 1869 1869 1869 1869 1869 1869 1869 1869 1869 1869 1869 1869 1869 1869 1869 1869 1869 1869 1869 1869 1869 1869 1869 1869 1869 1869
      0 0 0 0 0 0 0 0 0 0 0 0 0 79 0 0 79 0 0 0 141 142 1604 1605 0 0 0 0 0 0 0 0 0 0 0 0 0 0 0 0 0 0 0 0 0 0 0 0 0 0 0 0 0 0 0 0 0 0 0 0 0 0 0 0 0 0 0 0 0 0 0 0 0 0 0 0 0 0 0 0 0 0 0 0 0 0 0 0 0 0 0 0 418 419 420 421 0 0 0 0 0 0 0 0 0 0 0 0 0 0 0 0 0 1869 1869 1869 1869 1869 1869 1869 1869 1869 1869 1869 1869 1869 1869 1869 1869 1869 1869 1869 1869 1869 1869 1869 1869 1869 1869 1869 1869 1869 1869 1869 1869 1869 1869 1869 1869 1869 1869 1869 1869 1869 1869
      1348 0 0 1348 0 0 0 0 0 0 0 0 0 79 0 0 79 0 0 0 143 144 1606 1607 0 0 0 0 0 0 0 0 0 0 0 0 0 0 0 0 0 0 0 0 0 0 0 0 0 0 0 0 0 0 0 0 0 0 0 0 0 0 0 0 0 0 0 0 0 0 0 0 0 0 0 0 0 0 0 0 0 0 0 0 0 0 0 0 0 0 0 0 422 423 424 425 0 0 0 0 0 0 0 0 402 403 404 405 0 0 0 0 0 1869 1869 1869 1869 1869 1869 1869 1869 1869 1869 1869 1869 1869 1869 1869 1869 1869 1869 1869 1869 1869 1869 1869 1869 1869 1869 1869 1869 1869 1869 1869 1869 1869 1869 1869 1869 1869 1869 1869 1869 1869 1869
      79 0 0 79 0 0 0 0 0 0 0 0 0 79 0 0 79 0 0 0 0 0 0 0 0 0 0 0 0 0 0 0 0 0 0 0 0 0 0 0 0 0 0 0 0 0 0 0 0 0 0 0 0 0 0 0 0 0 0 0 0 0 0 0 0 0 0 0 0 0 0 0 0 0 0 0 0 0 0 0 0 0 0 0 0 0 0 0 0 0 0 0 0 0 0 0 0 0 0 0 0 0 0 0 0 0 0 0 0 0 0 0 0 1869 1869 1869 1869 1869 1869 1869 1869 1869 1869 1869 1869 1869 1869 1869 1869 1869 1869 1869 1869 1869 1869 1869 1869 1869 1869 1869 1869 1869 1869 1869 1869 1869 1869 1869 1869 1869 1869 1869 1869 1869 1869
      79 0 0 79 0 0 0 0 0 0 0 0 0 79 0 0 79 0 0 1348 0 0 0 1348 0 0 0 0 0 0 0 0 0 0 0 0 0 0 0 0 0 0 0 0 0 0 0 0 0 0 0 0 0 0 0 0 0 0 0 0 0 0 0 0 0 0 0 0 0 0 0 0 0 0 0 0 0 0 0 0 0 0 0 0 0 0 0 0 0 0 0 0 0 0 0 0 0 0 0 0 0 0 0 0 0 0 0 0 0 0 0 0 0 1869 1869 1869 1869 1869 1869 1869 1869 1869 1869 1869 1869 1869 1869 1869 1869 1869 1869 1869 1869 1869 1869 1869 1869 1869 1869 1869 1869 1869 1869 1869 1869 1869 1869 1869 1869 1869 1869 1869 1869 1869 1869
      79 0 0 79 0 0 0 0 0 0 0 0 0 79 0 0 79 0 0 79 0 0 0 79 0 0 0 0 0 0 0 0 0 0 0 0 0 0 0 0 0 0 0 0 0 0 0 0 0 0 0 0 0 0 0 0 0 0 0 0 0 0 0 0 0 0 0 0 0 0 0 0 0 0 0 0 0 0 0 0 0 0 0 0 0 0 0 0 0 0 0 0 322 0 0 0 0 0 0 0 0 0 0 0 0 0 0 0 0 0 0 0 0 1869 1869 1869 1869 1869 1869 1869 1869 1869 1869 1869 1869 1869 1869 1869 1869 1869 1869 1869 1869 1869 1869 1869 1869 1869 1869 1869 1869 1869 1869 1869 1869 1869 1869 1869 1869 1869 1869 1869 1869 1869 1869
      79 0 0 79 0 0 0 0 0 0 0 0 0 79 0 0 79 0 0 79 0 0 0 79 0 0 0 0 0 0 0 1348 0 0 0 0 0 1348 0 0 402 403 404 405 0 1348 0 0 0 0 0 0 1348 0 0 0 0 0 0 1348 0 0 0 0 0 0 1348 0 0 0 0 0 0 0 0 0 0 0 0 0 0 0 0 0 0 0 0 0 0 0 0 0 0 0 0 0 0 0 0 0 0 0 0 0 0 0 0 0 0 0 0 0 0 1869 1869 1869 1869 1869 1869 1869 1869 1869 1869 1869 1869 1869 1869 1869 1869 1869 1869 1869 1869 1869 1869 1869 1869 1869 1869 1869 1869 1869 1869 1869 1869 1869 1869 1869 1869 1869 1869 1869 1869 1869 1869
      1349 0 0 1349 0 0 0 0 0 0 0 0 0 1349 0 0 1349 0 0 79 0 0 0 79 0 0 0 0 0 0 0 79 0 0 0 0 0 79 0 0 406 407 408 409 0 79 0 0 0 0 0 0 79 0 0 0 0 0 0 79 0 0 0 0 0 0 79 0 0 0 0 0 0 0 0 0 0 0 0 0 0 0 0 0 0 0 0 0 0 0 0 0 0 0 0 0 0 0 0 0 0 0 0 0 0 0 0 0 0 0 0 0 0 3920 1869 1869 1869 1869 1869 1869 1869 1869 1869 1869 1869 1869 1869 1869 1869 1869 1869 1869 1869 1869 1869 1869 1869 1869 1869 1869 1869 1869 1869 1869 1869 1869 1869 1869 1869 1869 1869 1869 1869 1869 1869
      0 0 0 0 0 0 0 0 0 0 0 0 0 79 0 0 79 0 0 79 0 0 0 79 0 0 0 0 0 0 0 79 0 0 0 0 0 79 402 403 428 429 420 421 0 79 0 0 0 0 0 0 79 0 0 0 0 0 0 79 0 0 0 0 0 0 79 0 0 0 0 0 0 0 0 0 0 0 0 0 0 0 0 0 0 0 0 0 0 0 0 0 0 0 0 0 0 0 0 0 0 0 0 0 0 0 0 322 0 0 0 0 0 3920 1869 1869 1869 1869 1869 1869 1869 1869 1869 1869 1869 1869 1869 1869 1869 1869 1869 1869 1869 1869 1869 1869 1869 1869 1869 1869 1869 1869 1869 1869 1869 1869 1869 1869 1869 1869 1869 1869 1869 1869 1869
      1348 0 0 0 0 1348 0 0 0 0 0 0 0 1348 0 0 1348 0 0 79 0 0 0 79 0 0 0 0 0 0 0 79 0 0 0 0 0 79 406 407 432 433 416 421 0 79 0 0 0 0 0 0 79 0 0 0 0 0 0 79 0 0 0 0 0 0 79 0 0 0 0 0 0 0 0 0 0 0 0 0 0 0 0 0 0 0 0 0 0 0 0 0 0 0 0 0 0 0 0 0 0 0 0 0 0 0 0 0 0 0 0 0 0 3920 1869 1869 1869 1869 1869 1869 1869 1869 1869 1869 1869 1869 1869 1869 1869 1869 1869 1869 1869 1869 1869 1869 1869 1869 1869 1869 1869 1869 1869 1869 1869 1869 1869 1869 1869 1869 1869 1869 1869 1869 1869
      79 0 0 0 0 79 0 0 0 0 0 0 0 79 0 0 79 0 0 79 0 0 0 79 0 0 0 0 0 0 0 1349 0 0 0 0 0 1349 410 411 412 453 412 425 0 1349 0 0 0 0 0 0 1349 0 0 0 0 0 0 1349 0 0 0 0 0 0 1349 0 0 0 0 0 0 0 0 0 0 0 0 0 0 0 0 0 0 0 0 0 0 0 0 0 0 0 0 0 0 0 0 0 0 0 0 0 0 0 0 0 0 0 0 0 0 3920 0 0 0 0 0 0 0 0 0 0 0 0 0 0 0 0 0 0 0 0 0 0 0 0 0 0 0 0 0 0 0 0 0 0 0 0 0 0 0 0 0
      79 0 0 0 0 79 0 0 0 0 0 0 0 79 0 0 79 0 0 79 0 0 0 79 0 0 0 0 0 0 0 0 0 0 0 0 0 0 0 0 0 0 0 0 0 0 0 0 0 0 0 0 0 0 0 0 0 0 0 0 0 0 0 0 0 0 0 0 0 0 0 0 2020 0 0 0 0 0 0 2020 0 0 0 0 0 0 0 0 0 0 0 0 0 0 0 0 0 0 0 0 0 0 0 0 0 0 0 0 0 0 0 0 0 3920 0 0 0 0 0 0 0 0 0 0 0 0 0 0 0 0 0 0 0 0 0 0 0 0 0 0 0 0 0 0 0 0 0 0 0 0 0 0 0 0 0
      79 0 0 0 0 79 0 0 0 0 0 0 0 79 0 0 79 0 0 79 0 0 0 79 0 0 0 0 0 0 0 0 0 0 0 0 0 0 0 0 0 0 0 0 0 0 0 0 0 0 0 0 0 0 0 0 0 0 0 0 0 0 0 0 0 0 0 0 0 0 0 0 0 0 0 0 0 0 0 0 0 0 0 0 0 0 0 0 0 0 0 0 0 0 0 0 0 0 0 0 0 0 0 0 0 0 0 0 0 0 0 0 0 3920 0 0 0 0 0 0 0 0 0 0 0 0 0 0 0 0 0 0 0 0 0 0 0 0 0 0 0 0 0 0 0 0 0 0 0 0 0 0 0 0 0
      79 0 0 0 0 79 0 0 0 0 0 0 0 79 0 0 79 0 0 79 0 0 0 79 0 0 0 0 0 0 0 0 0 0 0 0 0 0 0 0 0 0 0 0 0 0 0 0 2020 0 0 0 0 0 0 0 0 0 0 0 0 0 0 0 0 0 0 0 0 0 0 0 0 0 0 0 0 0 0 0 0 0 0 0 0 0 0 0 0 0 0 0 0 0 0 0 0 0 0 0 0 0 0 0 0 0 0 0 0 0 0 0 0 3920 0 0 0 0 0 0 0 0 0 0 0 0 0 0 0 0 0 0 0 0 0 0 0 0 0 0 0 0 0 0 0 0 0 0 0 0 0 0 0 0 0
      79 0 0 0 0 79 0 0 0 0 0 0 0 79 0 0 79 0 0 79 0 0 0 79 0 0 0 0 0 0 0 2020 0 0 0 0 0 0 0 0 0 0 0 0 0 0 0 0 0 0 0 0 0 0 0 0 0 0 0 0 0 0 0 0 0 0 0 0 0 0 0 0 0 0 0 0 0 0 0 0 0 0 0 0 0 0 0 0 0 0 0 0 0 0 0 0 0 0 0 0 0 0 0 0 0 0 0 0 0 0 0 0 0 3920 0 0 0 0 0 0 0 0 0 0 0 0 0 0 0 0 0 0 0 0 0 0 0 0 0 0 0 0 0 0 0 0 0 0 0 0 0 0 0 0 0
      79 0 0 0 0 79 0 0 0 0 0 0 0 79 0 0 79 0 0 79 0 0 0 79 0 0 0 0 0 0 0 0 0 0 0 0 0 0 0 0 0 0 0 0 0 0 0 0 0 0 0 0 0 0 0 0 0 0 0 0 0 0 0 0 0 0 0 0 0 0 0 0 0 0 0 0 0 0 0 0 0 0 0 0 0 0 0 0 0 0 0 0 0 0 0 0 0 0 0 0 0 0 0 0 0 0 0 0 0 0 0 0 0 3920 0 0 0 0 0 0 0 0 0 0 0 0 0 0 0 0 0 0 0 0 0 0 0 0 0 0 0 0 0 0 0 0 0 0 0 0 0 0 0 0 0
      79 0 0 0 0 79 0 0 0 0 0 0 0 79 0 0 79 0 0 79 0 0 0 79 0 0 0 0 0 0 0 0 0 0 0 0 0 0 0 0 0 0 0 0 0 0 0 0 0 0 0 0 0 0 0 0 0 0 0 0 0 0 0 0 0 2020 0 0 0 0 0 0 0 0 0 0 0 0 0 0 0 0 0 0 0 0 0 0 0 0 0 0 0 0 0 0 0 0 0 0 0 0 0 0 0 0 0 0 0 0 0 0 0 3920 0 0 0 0 0 0 0 0 0 0 0 0 0 0 0 0 0 0 0 0 0 0 0 0 0 0 0 0 0 0 0 0 0 0 0 0 0 0 0 0 0
      )
    )
    (tilemap
      (solid #t)
      (z-pos 0)
      (name "Interactive")
      (width 155)
      (height 25)
      (tiles
      0 0 0 0 0 0 0 0 0 0 0 0 0 0 0 0 0 0 0 0 0 0 0 0 0 0 0 0 0 0 0 0 0 0 0 0 0 0 0 0 0 0 0 0 0 0 0 0 0 0 0 0 0 0 0 0 0 0 0 0 0 0 0 0 0 0 0 0 0 0 0 0 0 0 0 0 0 0 0 0 0 0 0 0 0 0 0 0 0 0 0 0 0 0 0 0 0 0 0 0 0 5620 5300 3910 3910 3910 3910 3910 3910 3910 3910 3910 3910 3910 3910 3910 3910 3910 3910 3910 3910 3910 3910 3910 3910 3910 3910 3910 3910 3910 3910 3910 3910 3910 3910 3910 3910 3910 3910 3910 3910 3910 3910 3910 3910 3910 3910 3910 3910 3910 3910 3910 3910 3910 3910
      0 0 0 0 0 0 0 0 0 0 0 0 0 0 0 0 0 0 0 0 0 0 0 0 0 0 0 0 0 0 0 0 0 0 0 0 0 0 0 0 0 0 0 0 0 0 0 0 0 0 0 0 0 0 0 0 0 0 0 0 0 0 0 0 0 0 0 0 0 0 0 0 0 0 0 0 0 0 0 0 0 0 0 0 0 0 0 0 0 0 0 0 0 0 0 0 0 0 0 0 0 0 5460 3910 3910 3910 3910 3910 3910 3910 3910 3910 3910 3910 3910 3910 3910 3910 3910 3910 3910 3910 3910 3910 3910 3910 3910 3910 3910 3910 3910 3910 3910 3910 3910 3910 3910 3910 3910 3910 3910 3910 3910 3910 3910 3910 3910 3910 3910 3910 3910 3910 3910 3910 3910
      0 0 0 0 0 0 0 0 0 0 0 0 0 0 0 0 0 0 0 0 0 0 0 0 0 0 0 0 0 0 0 0 0 0 0 0 0 0 0 0 0 0 0 0 0 0 0 0 0 0 0 0 0 0 0 0 0 0 0 0 0 0 0 0 0 0 0 0 0 0 0 0 0 0 0 0 0 0 0 0 0 0 0 0 0 0 0 0 0 0 0 0 0 0 0 0 0 0 0 0 0 0 5620 4620 4620 4620 4620 4620 4620 4620 4620 4620 4620 4620 4620 4620 3620 3910 3910 3910 3910 3910 3910 3910 3910 3910 3910 3910 3910 3910 3910 3910 3910 3910 3910 3910 3910 3910 3910 3910 3910 3910 3910 3910 3910 3910 3910 3910 3910 3910 3910 3910 3910 3910 3910
      0 0 0 0 0 0 0 0 0 0 0 0 0 0 0 0 0 0 0 0 0 0 0 0 0 0 0 0 0 0 0 0 0 0 0 0 0 0 0 0 0 0 0 0 0 0 0 0 0 0 0 0 0 0 0 0 0 0 0 0 0 0 0 0 0 0 0 0 0 0 0 0 0 0 0 0 0 0 0 0 0 0 0 0 0 0 0 0 0 0 0 0 0 0 0 0 0 0 0 0 0 0 0 1016 1017 1017 1017 1013 1013 1013 1013 1013 1013 1013 1013 1009 4610 4620 4620 4620 4620 4620 4620 4620 4620 4620 4620 4620 4620 4620 4620 4620 4620 4620 4620 4620 4620 4620 4620 4620 4620 4620 4620 4620 4620 4620 4620 4620 4620 4620 4620 4620 4620 4620 4620
      0 0 0 0 0 0 0 0 0 0 0 0 0 0 0 0 0 0 0 0 0 0 0 0 0 0 0 0 0 0 0 0 0 0 0 0 0 0 0 0 0 0 0 0 0 0 0 0 0 0 0 0 0 0 0 0 0 0 0 0 0 0 0 0 0 0 0 0 0 0 0 0 0 0 0 0 0 0 0 0 0 0 0 0 0 0 0 0 0 0 0 0 0 0 0 0 0 0 0 0 0 0 0 234 235 236 237 1016 1017 1017 1017 1017 1017 1018 1018 1018 1018 1018 1018 1018 1018 1018 1018 1018 1018 1018 1018 1018 1018 1018 1018 1018 1018 1018 1018 1018 1018 1018 1018 1018 1018 1018 1018 1018 1018 1018 1018 1018 1018 1018 1018 1018 1018 1018 1019
      0 0 0 0 0 0 0 0 0 0 0 0 0 0 0 0 0 0 0 0 0 0 0 0 0 0 0 0 0 0 0 0 0 0 0 0 0 0 0 0 0 0 0 0 0 0 0 0 0 0 0 0 0 0 0 0 0 0 0 0 0 0 0 0 0 0 0 0 0 0 0 0 0 0 0 0 0 0 0 0 0 0 0 0 0 0 0 0 0 0 0 0 0 0 0 0 0 0 0 0 0 0 0 0 0 0 0 27 28 28 28 28 28 28 28 28 28 28 28 28 28 28 28 28 28 28 28 28 28 28 28 28 28 28 28 28 28 28 28 28 28 28 28 28 28 28 28 28 28 28 28 28 28 28 28
      0 1809 1812 0 0 0 0 0 0 0 0 0 0 0 0 0 0 0 0 0 0 0 0 0 0 0 0 0 0 0 0 0 0 0 0 0 0 0 0 0 0 0 0 0 0 0 0 0 0 0 0 0 0 0 0 0 0 0 0 0 0 0 0 0 0 0 0 0 0 0 0 0 0 0 0 0 0 0 0 0 0 0 0 0 0 0 0 0 0 0 0 0 0 0 0 0 0 0 0 0 0 0 0 0 0 0 0 0 0 0 0 0 0 0 0 0 0 0 0 0 2811 0 0 0 0 0 2811 0 0 0 0 0 0 2811 0 0 0 2811 0 0 0 0 0 0 0 0 0 2811 0 133 0 0 2811 0 0
      0 1810 1813 0 0 0 0 0 0 0 0 0 0 27 28 28 29 0 0 0 0 0 0 0 0 0 0 0 0 0 0 0 0 27 28 29 0 0 0 0 0 0 0 0 0 0 0 27 28 28 29 0 0 0 0 0 0 0 0 0 0 27 28 28 29 0 0 0 0 0 0 0 0 0 0 0 0 0 0 0 0 0 0 0 0 0 0 0 0 0 0 0 0 0 0 0 0 0 0 0 0 0 0 0 0 0 0 0 0 3560 3570 3570 3570 3580 0 0 0 0 0 0 2807 0 0 0 0 0 2807 0 0 0 0 0 0 2807 0 0 0 2807 0 0 0 0 0 0 0 0 0 2807 0 133 0 0 2807 0 0
      0 1811 1814 0 0 0 0 0 0 0 0 0 0 0 0 0 0 0 0 0 102 0 0 0 0 0 0 0 0 0 0 27 28 28 28 28 28 29 0 0 0 0 0 0 0 27 28 28 28 28 28 28 29 0 0 0 0 0 0 27 28 28 28 28 28 28 29 0 0 0 0 0 0 0 0 0 0 0 0 0 0 0 0 0 0 0 0 0 0 0 0 0 0 0 0 0 0 0 0 0 0 0 0 0 0 0 0 0 102 5270 5280 5280 4800 3760 0 0 0 0 0 0 2809 0 0 0 0 0 2809 0 0 0 0 0 0 2809 0 0 0 2809 0 0 0 0 0 0 0 0 0 2809 130 133 0 0 2809 0 0
      27 28 28 29 0 0 0 0 0 0 0 0 0 0 0 0 0 0 0 0 0 0 0 0 0 0 0 0 0 0 0 0 0 0 0 0 0 0 0 0 0 0 0 0 0 0 0 0 0 0 0 0 0 0 0 0 0 0 0 0 0 0 0 0 0 0 0 0 0 0 0 0 0 0 0 0 0 0 0 0 0 0 0 0 0 0 0 0 0 0 0 0 0 0 0 0 0 0 0 0 0 0 0 0 0 0 0 0 0 0 0 0 3900 3920 0 0 0 0 0 0 2811 0 0 0 0 0 2811 0 0 0 0 0 0 2811 0 0 0 2811 0 0 0 0 0 0 0 0 0 2811 129 133 0 0 2811 0 0
      0 0 0 0 0 0 0 0 0 0 0 0 0 0 0 0 0 0 0 0 0 0 0 0 0 0 0 0 0 0 0 0 0 0 0 0 0 0 0 0 0 0 0 0 0 0 0 0 0 0 0 0 0 0 0 0 0 0 0 0 0 44 44 44 44 0 0 0 0 0 0 0 0 0 0 0 0 0 0 0 0 0 0 0 0 0 0 0 0 0 0 3560 3570 3570 3570 3580 0 0 0 0 0 0 0 0 3560 3570 3570 3570 4790 0 0 0 3900 3920 0 0 0 0 0 0 2807 0 0 0 0 0 2807 0 0 0 0 0 0 2807 0 0 0 2807 0 0 0 0 0 0 0 0 0 2807 129 133 0 0 2807 0 0
      0 0 0 0 0 0 0 0 0 0 0 0 0 0 0 0 0 0 0 27 28 28 28 29 0 0 0 0 0 0 0 0 0 0 0 0 0 0 0 0 0 0 0 0 0 0 0 0 0 0 0 0 0 0 0 0 0 0 0 0 0 44 44 44 44 0 0 0 0 0 0 0 0 0 0 0 0 0 0 0 0 0 0 0 0 0 0 0 0 0 0 3740 3750 3750 3750 3760 0 0 0 0 0 0 0 0 3740 3750 3750 3750 4950 5040 0 0 3900 3920 0 0 0 0 0 0 2809 0 0 0 0 0 2809 0 0 0 0 0 0 2809 0 0 0 2809 0 0 0 0 0 0 0 0 0 2809 129 133 0 0 2809 0 0
      0 0 0 0 0 0 0 0 0 0 0 0 0 0 0 0 0 0 0 0 0 0 0 0 0 0 0 0 0 0 0 0 0 0 0 0 0 0 0 0 0 0 0 0 0 0 0 0 0 0 0 0 0 0 0 0 0 0 0 0 0 0 0 0 0 0 0 0 0 0 0 0 0 0 0 0 0 0 0 0 0 0 0 0 0 0 0 0 0 0 0 3900 3910 3910 3910 3920 0 0 0 0 0 0 0 0 3900 3910 3910 3910 3910 5200 0 0 3900 3920 0 0 0 0 0 0 2811 0 0 0 0 0 2811 0 0 0 0 0 0 27 28 28 28 29 0 0 0 0 0 0 0 0 0 2811 129 133 0 0 2811 0 0
      0 1809 1812 0 0 0 0 0 0 0 0 0 0 0 0 0 0 0 0 0 0 0 0 0 0 0 0 0 0 0 0 27 28 28 28 28 28 29 0 0 0 0 0 0 0 27 28 28 28 28 28 28 29 0 0 0 0 0 0 27 28 28 28 28 28 28 29 0 0 0 0 3560 3580 0 0 0 0 0 0 3560 3580 0 0 0 0 0 0 0 0 0 0 3900 3890 3910 3910 3920 0 0 0 0 0 0 0 0 3900 3910 3910 3910 3910 3920 0 0 3900 3920 0 0 0 0 0 0 2807 0 0 0 0 0 2807 0 0 0 0 0 0 0 0 0 0 0 0 0 0 0 0 0 0 0 0 2807 129 133 0 0 2807 0 0
      0 1810 1813 0 0 0 0 0 0 0 0 0 0 0 0 0 0 0 0 0 0 0 0 0 0 0 0 0 0 0 0 0 0 0 0 0 0 0 0 0 0 0 0 0 0 0 0 0 0 0 0 0 0 0 0 0 0 0 0 0 0 0 0 0 0 0 0 0 0 0 3560 4650 3760 0 0 0 0 0 0 3740 4640 3580 0 0 0 0 0 3560 3570 3570 3570 3780 3910 3910 3910 3920 0 0 0 0 0 0 0 0 3900 3910 3910 3910 3910 3920 0 0 3900 1724 1726 0 0 0 0 0 2809 0 0 0 0 0 2809 0 0 0 0 0 0 0 0 0 0 0 0 0 0 0 0 0 0 0 0 2809 129 133 0 0 2809 0 0
      0 1811 1814 0 0 0 0 0 0 0 0 0 0 0 0 0 0 0 0 0 0 0 0 0 0 0 0 0 0 0 0 0 0 0 0 0 0 0 0 0 0 0 0 0 0 0 0 0 0 0 0 0 0 0 0 0 0 0 0 0 0 0 0 0 0 0 0 0 0 3560 4650 3940 3920 0 0 0 0 0 0 3900 3930 4640 3580 0 0 0 0 3740 3750 3750 3750 3940 3910 3910 3910 3920 0 0 0 0 0 0 0 0 3900 3910 3910 3910 3910 3920 0 0 3900 1009 1015 0 0 0 0 0 27 28 28 28 28 28 29 0 0 0 0 0 0 0 0 0 0 0 0 0 0 0 0 0 0 0 0 27 28 28 28 28 29 0 0
      27 28 28 28 28 29 0 0 0 0 0 0 0 27 28 28 29 0 0 0 0 0 0 0 0 0 0 0 0 0 0 0 0 0 0 0 0 0 0 0 0 0 0 0 0 0 0 0 0 0 0 0 0 0 0 0 0 0 0 0 0 0 0 0 0 0 0 0 0 3740 3940 3910 3920 0 0 0 0 0 0 3900 3910 3930 3760 0 0 0 0 3900 3910 3910 3910 3910 3910 3910 3910 3920 0 0 0 0 0 0 0 0 3900 3910 3910 3890 3910 3920 0 0 3900 1009 1015 0 0 0 0 0 0 0 0 0 0 0 0 0 0 0 0 0 0 0 0 0 0 0 0 0 0 0 0 0 0 0 0 0 0 0 0 0 0 0 0
      0 0 0 0 0 0 0 0 0 0 0 0 0 0 0 0 0 0 0 0 0 0 0 0 0 0 0 0 0 0 0 0 0 0 0 0 0 0 0 0 0 0 0 0 0 0 0 0 0 0 0 0 0 0 0 0 0 0 0 0 0 0 0 0 0 0 0 0 0 3900 3910 3910 3920 0 0 0 0 0 0 3900 3910 3910 3920 0 0 0 0 3900 3910 3910 3910 3910 3910 3910 3910 3920 0 0 0 0 0 0 0 0 3900 3910 3910 3910 3910 3920 0 0 3900 1009 1015 0 0 0 0 0 0 0 0 0 0 0 0 0 0 0 0 0 0 0 0 0 0 0 0 0 0 0 0 0 0 0 0 0 0 0 0 0 0 0 0
      0 0 0 0 0 0 0 0 0 0 0 0 0 0 0 0 0 0 0 0 0 0 0 0 0 0 0 0 3560 3570 3570 3570 3570 3570 3570 3570 3570 3570 3570 3570 3570 3570 3570 3570 3570 3570 3570 3570 3570 3570 3570 3570 3570 3570 3570 3570 3570 3570 3570 3570 3570 3570 3570 3570 3570 3570 3570 3570 3570 3780 3910 3910 3920 0 0 0 0 0 0 3900 3910 3910 3920 0 0 0 0 3900 3910 3910 3910 3910 3910 3910 3910 3920 0 0 0 0 0 0 0 0 3900 3910 3910 3910 3910 3920 0 0 3900 1009 1015 0 0 0 0 0 0 0 0 0 0 0 0 0 0 0 0 0 0 0 0 0 0 0 0 0 0 0 0 0 0 0 0 0 0 0 0 0 0 0 0
      0 0 0 0 0 0 0 0 0 0 0 0 0 0 0 0 0 0 0 0 0 0 0 0 0 0 0 0 3740 3750 3750 3750 3750 3750 3750 3750 3750 3750 3750 3750 3750 3750 3750 3750 3750 3750 3750 3750 3750 3750 3750 3750 3750 3750 3750 3750 3750 3750 3750 3750 3750 3750 3750 3750 3750 3750 3750 3750 3750 3940 3910 3910 3920 0 0 0 0 0 0 3900 3910 3910 3920 0 0 0 0 3900 3910 3910 3910 3910 3910 3910 3910 3920 0 0 0 0 0 0 0 0 3900 3910 3910 3910 3910 3920 0 0 3900 1009 1015 0 0 0 0 0 0 0 0 0 0 0 0 0 0 0 0 0 0 0 0 0 0 0 0 0 0 0 0 0 0 0 0 0 0 0 0 0 0 0 0
      0 0 0 0 0 0 0 0 0 0 0 0 0 0 0 0 0 0 0 0 0 0 0 0 0 0 0 0 3900 3910 3910 3910 3910 3910 3910 3910 3910 3910 3910 3910 3910 3910 3910 3910 3910 3910 3910 3910 3910 3910 3910 3910 3910 3910 3910 3910 3910 3910 3910 3910 3910 3910 3910 3910 3910 3910 3910 3910 3910 3910 3910 3910 3920 0 0 0 0 0 0 3900 3910 3910 3920 0 0 0 0 3900 3910 3910 3910 3910 3910 3910 3910 3920 0 0 0 0 0 0 0 0 3900 3910 3910 3910 3910 3920 0 0 3900 1009 1015 0 0 0 0 0 0 0 0 0 0 0 0 0 0 0 0 0 0 0 0 0 0 0 0 0 0 0 0 0 0 0 0 0 0 0 0 0 0 0 0
      0 0 0 0 0 0 0 0 0 0 0 0 0 0 0 0 0 0 0 0 0 0 0 0 0 0 0 0 3900 3910 3910 3910 3910 3910 3910 3910 3910 3910 3910 3910 3910 3910 3910 3910 3910 3910 3910 3910 3890 3910 3910 3910 3910 3910 3910 3910 3910 3910 3910 3910 3910 3910 3910 3910 3910 3910 3910 3910 3910 3910 3910 3910 3920 0 0 0 0 0 0 3900 3910 3910 3920 0 0 0 0 3900 3910 3910 3910 3910 3910 3910 3910 3920 0 0 0 0 0 0 0 0 3900 3910 3910 3910 3910 3920 0 0 3900 1009 1015 0 0 0 0 0 0 0 0 0 0 0 0 0 0 0 0 0 0 0 0 0 0 0 0 0 0 0 0 0 0 0 0 0 0 0 0 0 0 0 0
      0 0 0 0 0 0 0 0 0 0 0 0 0 0 0 0 0 0 0 0 0 0 0 0 0 0 0 0 3900 3910 3910 3890 3910 3910 3910 3910 3910 3910 3910 3910 3910 3910 3910 3910 3910 3910 3910 3910 3910 3910 3910 3910 3910 3910 3910 3910 3910 3910 3910 3910 3910 3910 3910 3910 3910 3910 3910 3910 3910 3910 3910 3910 3920 0 0 0 0 0 0 3900 3910 3910 3920 0 0 0 0 3900 3910 3910 3910 3910 3910 3910 3910 3920 0 0 0 0 0 0 0 0 3900 3910 3910 3910 3910 3920 0 0 3900 1009 1015 0 0 0 0 0 0 0 0 0 0 0 0 0 0 0 0 0 0 0 0 0 0 0 0 0 0 0 0 0 0 0 0 0 0 0 0 0 0 0 0
      0 0 0 0 0 0 0 0 0 0 0 0 0 0 0 0 0 0 0 0 0 0 0 0 0 0 0 0 3900 3910 3910 3910 3910 3910 3910 3910 3910 3910 3910 3910 3910 3910 3910 3910 3910 3910 3910 3910 3910 3910 3910 3910 3910 3910 3910 3910 3910 3910 3910 3910 3910 3910 3910 3910 3910 3910 3910 3910 3910 3910 3910 3910 3920 0 0 0 0 0 0 3900 3910 3910 3920 0 0 0 0 3900 3910 3910 3910 3910 3910 3910 3910 3920 0 0 0 0 0 0 0 0 3900 3910 3910 3910 3910 3920 0 0 3900 1009 1015 0 0 0 0 0 0 0 0 0 0 0 0 0 0 0 0 0 0 0 0 0 0 0 0 0 0 0 0 0 0 0 0 0 0 0 0 0 0 0 0
      0 0 0 0 0 0 0 0 0 0 0 0 0 0 0 0 0 0 0 0 0 0 0 0 0 0 0 0 3900 3910 3910 3910 3910 3910 3910 3910 3910 3910 3910 3910 3910 3910 3910 3910 3910 3910 3910 3910 3910 3910 3910 3910 3910 3910 3910 3910 3910 3910 3910 3910 3910 3910 3910 3910 3910 3890 3910 3910 3910 3910 3910 3910 3920 0 0 0 0 0 0 3900 3910 3910 3920 0 0 0 0 3900 3910 3910 3910 3910 3910 3910 3910 3920 0 0 0 0 0 0 0 0 3900 3910 3910 3910 3910 3920 0 0 3900 1009 1015 0 0 0 0 0 0 0 0 0 0 0 0 0 0 0 0 0 0 0 0 0 0 0 0 0 0 0 0 0 0 0 0 0 0 0 0 0 0 0 0
      )
    )
    (tilemap
      (solid #f)
      (z-pos 100)
      (name "Foreground")
      (width 155)
      (height 25)
      (tiles
      0 0 0 0 0 0 0 0 0 0 0 0 0 0 0 0 0 0 0 0 0 0 0 0 0 0 0 0 0 0 0 0 0 0 0 0 0 0 0 0 0 0 0 0 0 0 0 0 0 0 0 0 0 0 0 0 0 0 0 0 0 0 0 0 0 0 0 0 0 0 0 0 0 0 0 0 0 0 0 0 0 0 0 0 0 0 0 0 0 0 0 0 0 0 0 0 0 0 0 0 0 0 0 0 0 0 0 0 0 0 0 0 0 0 0 0 0 0 0 0 0 0 0 0 0 0 0 0 0 0 0 0 0 0 0 0 0 0 0 0 0 0 0 0 0 0 0 0 0 0 0 0 0 0 0
      0 0 0 0 0 0 0 0 0 0 0 0 0 0 0 0 0 0 0 0 0 0 0 0 0 0 0 0 0 0 0 0 0 0 0 0 0 0 0 0 0 0 0 0 0 0 0 0 0 0 0 0 0 0 0 0 0 0 0 0 0 0 0 0 0 0 0 0 0 0 0 0 0 0 0 0 0 0 0 0 0 0 0 0 0 0 0 0 0 0 0 0 0 0 0 0 0 0 0 0 0 0 0 0 0 0 0 0 0 0 0 0 0 0 0 0 0 0 0 0 0 0 0 0 0 0 0 0 0 0 0 0 0 0 0 0 0 0 0 0 0 0 0 0 0 0 0 0 0 0 0 0 0 0 0
      0 0 0 0 0 0 0 0 0 0 0 0 0 0 0 0 0 0 0 0 0 0 0 0 0 0 0 0 0 0 0 0 0 0 0 0 0 0 0 0 0 0 0 0 0 0 0 0 0 0 0 0 0 0 0 0 0 0 0 0 0 0 0 0 0 0 0 0 0 0 0 0 0 0 0 0 0 0 0 0 0 0 0 0 0 0 0 0 0 0 0 0 0 0 0 0 0 0 0 0 0 0 0 0 0 0 0 0 0 0 0 0 0 0 0 0 0 0 0 0 0 0 0 0 0 0 0 0 0 0 0 0 0 0 0 0 0 0 0 0 0 0 0 0 0 0 0 0 0 0 0 0 0 0 0
      0 0 0 0 0 0 0 0 0 0 0 0 0 0 0 0 0 0 0 0 0 0 0 0 0 0 0 0 0 0 0 0 0 0 0 0 0 0 0 0 0 0 0 0 0 0 0 0 0 0 0 0 0 0 0 0 0 0 0 0 0 0 0 0 0 0 0 0 0 0 0 0 0 0 0 0 0 0 0 0 0 0 0 0 0 0 0 0 0 0 0 0 0 0 0 0 0 0 0 0 0 0 0 0 0 0 0 0 0 0 0 0 0 0 0 0 0 0 0 0 0 0 0 0 0 0 0 0 0 0 0 0 0 0 0 0 0 0 0 0 0 0 0 0 0 0 0 0 0 0 0 0 0 0 0
      0 0 0 0 0 0 0 0 0 0 0 0 0 0 0 0 0 0 0 0 0 0 0 0 0 0 0 0 0 0 0 0 0 0 0 0 0 0 0 0 0 0 0 0 0 0 0 0 0 0 0 0 0 0 0 0 0 0 0 0 0 0 0 0 0 0 0 0 0 0 0 0 0 0 0 0 0 0 0 0 0 0 0 0 0 0 0 0 0 0 0 0 0 0 0 0 0 0 0 0 0 0 0 0 0 0 0 0 0 0 0 0 0 0 0 0 0 0 0 0 0 0 0 0 0 0 0 0 0 0 0 0 0 0 0 0 0 0 0 0 0 0 0 0 0 0 0 0 0 0 0 0 0 0 0
      0 0 0 0 0 0 0 0 0 0 0 0 0 0 0 0 0 0 0 0 0 0 0 0 0 0 0 0 0 0 0 0 0 0 0 0 0 0 0 0 0 0 0 0 0 0 0 0 0 0 0 0 0 0 0 0 0 0 0 0 0 0 0 0 0 0 0 0 0 0 0 0 0 0 0 0 0 0 0 0 0 0 0 0 0 0 0 0 0 0 0 0 0 0 0 0 0 0 0 0 0 0 0 0 0 0 0 0 0 0 0 0 0 0 0 0 0 0 0 0 0 0 0 0 0 0 0 0 0 0 0 0 0 0 0 0 0 0 0 0 0 0 0 0 0 0 0 0 0 0 0 0 0 0 0
      0 0 0 0 0 0 0 0 0 0 0 0 0 0 0 0 0 0 0 0 0 0 0 0 0 0 0 0 0 0 0 0 0 0 0 0 0 0 0 0 0 0 0 0 0 0 0 0 0 0 0 0 0 0 0 0 0 0 0 0 0 0 0 0 0 0 0 0 0 0 0 0 0 0 0 0 0 0 0 0 0 0 0 0 0 0 0 0 0 0 0 0 0 0 0 0 0 0 0 0 0 0 0 0 0 0 0 0 0 0 0 0 0 0 0 0 0 0 0 0 0 0 0 0 0 0 0 0 0 0 0 0 0 0 0 0 0 0 0 0 0 0 0 0 0 0 0 0 0 0 0 0 0 0 0
      0 0 0 0 0 0 0 0 0 0 0 0 0 0 0 0 0 0 0 0 0 0 0 0 0 0 0 0 0 0 0 0 0 27 28 29 0 0 0 0 0 0 0 0 0 0 0 27 28 28 29 0 0 0 0 0 0 0 0 0 0 27 28 28 29 0 0 0 0 0 0 0 0 0 0 0 0 0 0 0 0 0 0 0 0 0 0 0 0 0 0 0 0 0 0 0 0 0 0 0 0 0 0 0 0 0 0 0 0 0 0 0 0 0 0 0 0 0 0 0 0 0 0 0 0 0 0 0 0 0 0 0 0 0 0 0 0 0 0 0 0 0 0 0 0 0 0 0 0 0 0 0 0 0 0
      0 0 0 0 0 0 0 0 0 0 0 0 0 0 0 0 0 0 0 0 0 0 0 0 0 0 0 0 0 0 0 27 28 28 28 28 28 29 0 0 0 0 0 0 0 27 28 28 28 28 28 28 29 0 0 0 0 0 0 27 28 28 28 28 28 28 29 0 0 0 0 0 0 0 0 0 0 0 0 0 0 0 0 0 0 0 0 0 0 0 0 0 0 0 0 0 0 0 0 0 0 0 0 0 0 0 0 0 0 0 3063 3063 0 0 0 0 0 0 0 0 0 0 0 0 0 0 0 0 0 0 0 0 0 0 0 0 0 0 0 0 0 0 0 0 0 0 0 0 0 0 130 0 0 0 0
      0 0 0 0 0 0 0 0 0 0 0 0 0 0 0 0 0 0 0 0 0 0 0 0 0 0 0 0 0 0 0 0 27 28 28 28 29 0 0 0 0 0 0 0 0 0 27 28 28 28 28 29 0 0 0 0 0 0 0 0 27 28 28 28 28 29 0 0 0 0 0 0 0 0 0 0 0 0 0 0 0 0 0 0 0 0 0 0 0 0 0 0 0 0 0 0 0 0 0 0 0 0 0 0 0 0 0 0 0 0 0 0 3063 0 0 0 0 0 0 0 0 0 0 0 0 0 0 0 0 0 0 0 0 0 0 0 0 0 0 0 0 0 0 0 0 0 0 0 0 0 129 0 0 0 0
      0 0 0 0 0 0 0 0 0 0 0 0 0 0 0 0 0 0 0 0 0 0 0 0 0 0 0 0 0 0 0 0 47 3063 3062 3063 47 0 0 0 0 0 0 0 0 0 47 212 3063 3063 212 47 0 0 0 0 0 0 0 0 47 212 3063 3063 212 47 0 0 0 0 0 0 0 0 0 0 0 0 0 0 0 0 0 0 0 0 0 0 0 0 0 0 0 0 0 0 0 0 0 0 0 0 0 0 3560 3570 3570 3570 4790 0 0 0 3063 0 0 0 0 0 0 0 0 0 0 0 0 0 0 0 0 0 0 0 0 0 0 0 0 0 0 0 0 0 0 0 0 0 0 0 0 0 129 0 0 0 0
      0 0 0 0 0 0 0 0 0 0 0 0 0 0 0 0 0 0 0 0 0 0 0 0 0 0 0 0 0 0 0 0 47 3063 3062 3063 47 0 0 0 0 0 0 0 0 0 47 212 3063 3063 212 47 0 0 0 0 0 0 0 0 47 212 3063 3063 212 47 0 0 0 0 0 0 0 0 0 0 0 0 0 0 0 0 0 0 0 0 0 0 0 0 0 0 0 0 0 0 0 0 0 0 0 0 0 0 3740 3750 3750 3750 4950 3063 0 0 3063 0 0 0 0 0 0 0 0 0 0 0 0 0 0 0 0 0 0 0 0 0 0 0 0 0 0 0 0 0 0 0 0 0 0 0 0 0 129 0 0 0 0
      0 0 0 0 0 0 0 0 0 0 0 0 0 0 0 0 0 0 0 0 0 0 0 0 0 0 0 0 0 0 0 0 27 28 28 28 29 0 0 0 0 0 0 0 0 0 27 28 28 28 28 29 0 0 0 0 0 0 0 0 27 28 28 28 28 29 0 0 0 0 0 0 0 0 0 0 0 0 0 0 0 0 0 0 0 0 0 0 0 0 0 0 0 0 0 0 0 0 0 0 0 0 0 0 0 0 0 0 0 3063 0 0 3063 0 0 0 0 0 0 0 0 0 0 0 0 0 0 0 0 0 0 0 0 0 0 0 0 0 0 0 0 0 0 0 0 0 0 0 0 0 129 0 0 0 0
      0 0 0 0 0 0 0 0 0 0 0 0 0 0 0 0 0 0 0 0 0 0 0 0 0 0 0 0 0 0 0 27 28 28 28 28 28 29 0 0 0 0 0 0 0 27 28 28 28 28 28 28 29 0 0 0 0 0 0 27 28 28 28 28 28 28 29 0 0 0 0 0 0 0 0 0 0 0 0 0 0 0 0 0 0 0 0 0 0 0 0 0 0 0 0 0 0 0 0 0 0 0 0 0 0 0 0 0 0 3063 0 0 3063 0 0 0 0 0 0 0 0 0 0 0 0 0 0 0 0 0 0 0 0 0 0 0 0 0 0 0 0 0 0 0 0 0 0 0 0 0 129 0 0 0 0
      0 0 0 0 0 0 0 0 0 0 0 0 0 0 0 0 0 0 0 0 0 0 0 0 0 0 0 0 0 0 0 0 0 0 0 0 0 0 0 0 0 0 0 0 0 0 0 0 0 0 0 0 0 0 0 0 0 0 0 0 0 0 0 0 0 0 0 0 0 0 0 0 2019 0 0 0 0 0 0 2142 0 0 0 0 0 0 0 0 0 0 0 0 0 0 0 0 0 0 0 0 0 0 0 0 0 0 0 0 0 3063 0 0 3063 0 0 0 0 0 0 0 0 0 0 0 0 0 0 0 0 0 0 0 0 0 0 0 0 0 0 0 0 0 0 0 0 0 0 0 0 0 129 0 0 0 0
      0 0 0 0 0 0 0 0 0 0 0 0 0 0 0 0 0 0 0 0 0 0 0 0 0 0 0 0 0 0 0 0 0 0 0 0 0 0 0 0 0 0 0 0 0 0 0 0 0 0 0 0 0 0 0 0 0 0 0 0 0 0 0 0 0 0 0 0 0 0 0 0 2020 0 0 0 0 0 0 2020 0 0 0 0 0 0 0 0 0 0 0 0 0 0 0 0 0 0 0 0 0 0 0 0 0 0 0 0 0 3063 0 0 3063 3920 0 0 0 0 0 0 0 0 0 0 0 0 0 0 0 0 0 0 0 0 0 0 0 0 0 0 0 0 0 0 0 0 0 0 0 0 28 0 0 0 0
      0 0 0 0 0 0 0 0 0 0 0 0 0 0 0 0 0 0 0 0 0 0 0 0 0 0 0 0 0 0 0 0 0 0 0 0 0 0 0 0 0 0 0 0 0 0 0 0 0 0 0 0 0 0 0 0 0 0 0 0 0 0 0 0 0 0 0 0 0 0 0 0 2020 0 0 0 0 0 0 2020 0 0 0 0 0 0 0 0 0 0 0 0 0 0 0 0 0 0 0 0 0 0 0 0 0 0 0 0 0 3063 0 0 3063 3920 0 0 0 0 0 0 0 0 0 0 0 0 0 0 0 0 0 0 0 0 0 0 0 0 0 0 0 0 0 0 0 0 0 0 0 0 0 0 0 0 0
      0 0 0 0 0 0 0 0 0 0 0 0 0 0 0 0 0 0 0 0 0 0 0 0 0 0 0 0 0 0 0 0 0 0 0 0 0 0 0 0 0 0 0 0 0 0 0 0 0 0 0 0 0 0 0 0 0 0 0 0 0 0 0 0 0 0 0 0 0 0 0 0 2020 0 0 0 0 0 0 2020 0 0 0 0 0 0 0 0 0 0 0 0 0 0 0 0 0 0 0 0 0 0 0 0 0 0 0 0 0 3067 0 0 3067 3920 1708 0 0 0 0 0 0 0 0 0 0 0 0 0 0 0 0 0 0 0 0 0 0 0 0 0 0 0 0 0 0 0 0 0 0 0 0 0 0 0 0
      0 0 0 0 0 0 0 0 0 0 0 0 0 0 0 0 0 0 0 0 0 0 0 0 0 0 0 0 0 0 0 0 0 0 0 0 0 0 0 0 0 0 0 0 0 0 0 0 0 0 0 0 0 0 0 0 0 0 0 0 0 0 0 0 0 0 0 0 0 0 0 0 2020 0 0 0 0 0 0 2020 0 0 0 0 0 0 0 0 0 0 0 0 0 0 0 0 0 0 0 0 0 0 0 0 0 0 0 0 0 0 0 0 0 3920 1705 0 0 0 0 0 0 0 0 0 0 0 0 0 0 0 0 0 0 0 0 0 0 0 0 0 0 0 0 0 0 0 0 0 0 0 0 0 0 0 0
      0 0 0 0 0 0 0 0 0 0 0 0 0 0 0 0 0 0 0 0 0 0 0 0 0 0 0 0 0 0 0 0 0 0 0 0 0 0 0 0 0 0 0 0 0 0 0 0 0 0 0 0 0 0 0 0 0 0 0 0 0 0 0 0 0 0 0 0 0 0 0 0 3920 2020 2020 2020 2020 2020 2020 3900 0 0 0 0 0 0 0 0 0 0 0 0 0 0 0 0 0 0 0 0 0 0 0 0 0 0 0 0 0 0 0 0 2019 3920 1705 0 0 0 0 0 0 0 0 0 0 0 0 0 0 0 0 0 0 0 0 0 0 0 0 0 0 0 0 0 0 0 0 0 0 0 0 0 0 0 0
      0 0 0 0 0 0 0 0 0 0 0 0 0 0 0 0 0 0 0 0 0 0 0 0 0 0 0 0 0 0 0 0 0 0 0 0 0 0 0 0 0 0 0 0 0 0 0 0 0 0 0 0 0 0 0 0 0 0 0 0 0 0 0 0 0 0 0 0 0 0 0 0 0 0 0 0 0 0 0 0 0 0 0 0 0 0 0 0 0 0 0 0 0 0 0 0 0 0 0 0 0 0 0 0 0 0 0 0 0 0 0 0 2020 3920 1705 0 0 0 0 0 0 0 0 0 0 0 0 0 0 0 0 0 0 0 0 0 0 0 0 0 0 0 0 0 0 0 0 0 0 0 0 0 0 0 0
      0 0 0 0 0 0 0 0 0 0 0 0 0 0 0 0 0 0 0 0 0 0 0 0 0 0 0 0 0 0 0 0 0 0 0 0 0 0 0 0 0 0 0 0 0 0 0 0 0 0 0 0 0 0 0 0 0 0 0 0 0 0 0 0 0 0 0 0 0 0 0 0 0 0 0 0 0 0 0 0 0 0 0 0 0 0 0 0 0 0 0 0 0 0 0 0 0 0 0 0 0 0 0 0 0 0 0 0 0 0 0 0 2020 3920 1705 0 0 0 0 0 0 0 0 0 0 0 0 0 0 0 0 0 0 0 0 0 0 0 0 0 0 0 0 0 0 0 0 0 0 0 0 0 0 0 0
      0 0 0 0 0 0 0 0 0 0 0 0 0 0 0 0 0 0 0 0 0 0 0 0 0 0 0 0 0 0 0 0 0 0 0 0 0 0 0 0 0 0 0 0 0 0 0 0 0 0 0 0 0 0 0 0 0 0 0 0 0 0 0 0 0 0 0 0 0 0 0 0 0 0 0 0 0 0 0 0 0 0 0 0 0 0 0 0 0 0 0 0 0 0 0 0 0 0 0 0 0 0 0 0 0 0 0 0 0 0 0 0 2020 3920 1705 0 0 0 0 0 0 0 0 0 0 0 0 0 0 0 0 0 0 0 0 0 0 0 0 0 0 0 0 0 0 0 0 0 0 0 0 0 0 0 0
      0 0 0 0 0 0 0 0 0 0 0 0 0 0 0 0 0 0 0 0 0 0 0 0 0 0 0 0 0 0 0 0 0 0 0 0 0 0 0 0 0 0 0 0 0 0 0 0 0 0 0 0 0 0 0 0 0 0 0 0 0 0 0 0 0 0 0 0 0 0 0 0 0 0 0 0 0 0 0 0 0 0 0 0 0 0 0 0 0 0 0 0 0 0 0 0 0 0 0 0 0 0 0 0 0 0 0 0 0 0 0 0 2020 3920 1705 0 0 0 0 0 0 0 0 0 0 0 0 0 0 0 0 0 0 0 0 0 0 0 0 0 0 0 0 0 0 0 0 0 0 0 0 0 0 0 0
      0 0 0 0 0 0 0 0 0 0 0 0 0 0 0 0 0 0 0 0 0 0 0 0 0 0 0 0 0 0 0 0 0 0 0 0 0 0 0 0 0 0 0 0 0 0 0 0 0 0 0 0 0 0 0 0 0 0 0 0 0 0 0 0 0 0 0 0 0 0 0 0 0 0 0 0 0 0 0 0 0 0 0 0 0 0 0 0 0 0 0 0 0 0 0 0 0 0 0 0 0 0 0 0 0 0 0 0 0 0 0 0 2020 3920 1706 0 0 0 0 0 0 0 0 0 0 0 0 0 0 0 0 0 0 0 0 0 0 0 0 0 0 0 0 0 0 0 0 0 0 0 0 0 0 0 0
      )
    )
    (tilemap
      (solid #t)
      (z-pos 110)
      (name "water")
      (width 155)
      (height 25)
      (tiles
      0 0 0 0 0 0 0 0 0 0 0 0 0 0 0 0 0 0 0 0 0 0 0 0 0 0 0 0 0 0 0 0 0 0 0 0 0 0 0 0 0 0 0 0 0 0 0 0 0 0 0 0 0 0 0 0 0 0 0 0 0 0 0 0 0 0 0 0 0 0 0 0 0 0 0 0 0 0 0 0 0 0 0 0 0 0 0 0 0 0 0 0 0 0 0 0 0 0 0 0 0 0 0 0 0 0 0 0 0 0 0 0 0 0 0 0 0 0 0 0 0 0 0 0 0 0 0 0 0 0 0 0 0 0 0 0 0 0 0 0 0 0 0 0 0 0 0 0 0 0 0 0 0 0 0
      0 0 0 0 0 0 0 0 0 0 0 0 0 0 0 0 0 0 0 0 0 0 0 0 0 0 0 0 0 0 0 0 0 0 0 0 0 0 0 0 0 0 0 0 0 0 0 0 0 0 0 0 0 0 0 0 0 0 0 0 0 0 0 0 0 0 0 0 0 0 0 0 0 0 0 0 0 0 0 0 0 0 0 0 0 0 0 0 0 0 0 0 0 0 0 0 0 0 0 0 0 0 0 0 0 0 0 0 0 0 0 0 0 0 0 0 0 0 0 0 0 0 0 0 0 0 0 0 0 0 0 0 0 0 0 0 0 0 0 0 0 0 0 0 0 0 0 0 0 0 0 0 0 0 0
      0 0 0 0 0 0 0 0 0 0 0 0 0 0 0 0 0 0 0 0 0 0 0 0 0 0 0 0 0 0 0 0 0 0 0 0 0 0 0 0 0 0 0 0 0 0 0 0 0 0 0 0 0 0 0 0 0 0 0 0 0 0 0 0 0 0 0 0 0 0 0 0 0 0 0 0 0 0 0 0 0 0 0 0 0 0 0 0 0 0 0 0 0 0 0 0 0 0 0 0 0 0 0 0 0 0 0 0 0 0 0 0 0 0 0 0 0 0 0 0 0 0 0 0 0 0 0 0 0 0 0 0 0 0 0 0 0 0 0 0 0 0 0 0 0 0 0 0 0 0 0 0 0 0 0
      0 0 0 0 0 0 0 0 0 0 0 0 0 0 0 0 0 0 0 0 0 0 0 0 0 0 0 0 0 0 0 0 0 0 0 0 0 0 0 0 0 0 0 0 0 0 0 0 0 0 0 0 0 0 0 0 0 0 0 0 0 0 0 0 0 0 0 0 0 0 0 0 0 0 0 0 0 0 0 0 0 0 0 0 0 0 0 0 0 0 0 0 0 0 0 0 0 0 0 0 0 0 0 0 0 0 0 0 0 0 0 0 0 0 0 0 0 0 0 0 0 0 0 0 0 0 0 0 0 0 0 0 0 0 0 0 0 0 0 0 0 0 0 0 0 0 0 0 0 0 0 0 0 0 0
      0 0 0 0 0 0 0 0 0 0 0 0 0 0 0 0 0 0 0 0 0 0 0 0 0 0 0 0 0 0 0 0 0 0 0 0 0 0 0 0 0 0 0 0 0 0 0 0 0 0 0 0 0 0 0 0 0 0 0 0 0 0 0 0 0 0 0 0 0 0 0 0 0 0 0 0 0 0 0 0 0 0 0 0 0 0 0 0 0 0 0 0 0 0 0 0 0 0 0 0 0 0 0 0 0 0 0 0 0 0 0 0 0 0 0 0 0 0 0 0 0 0 0 0 0 0 0 0 0 0 0 0 0 0 0 0 0 0 0 0 0 0 0 0 0 0 0 0 0 0 0 0 0 0 0
      0 0 0 0 0 0 0 0 0 0 0 0 0 0 0 0 0 0 0 0 0 0 0 0 0 0 0 0 0 0 0 0 0 0 0 0 0 0 0 0 0 0 0 0 0 0 0 0 0 0 0 0 0 0 0 0 0 0 0 0 0 0 0 0 0 0 0 0 0 0 0 0 0 0 0 0 0 0 0 0 0 0 0 0 0 0 0 0 0 0 0 0 0 0 0 0 0 0 0 0 0 0 0 0 0 0 0 0 0 0 0 0 0 0 0 0 0 0 0 0 0 0 0 0 0 0 0 0 0 0 0 0 0 0 0 0 0 0 0 0 0 0 0 0 0 0 0 0 0 0 0 0 0 0 0
      0 0 0 0 0 0 0 0 0 0 0 0 0 0 0 0 0 0 0 0 0 0 0 0 0 0 0 0 0 0 0 0 0 0 0 0 0 0 0 0 0 0 0 0 0 0 0 0 0 0 0 0 0 0 0 0 0 0 0 0 0 0 0 0 0 0 0 0 0 0 0 0 0 0 0 0 0 0 0 0 0 0 0 0 0 0 0 0 0 0 0 0 0 0 0 0 0 0 0 0 0 0 0 0 0 0 0 0 0 0 0 0 0 0 0 0 0 0 0 0 0 0 0 0 0 0 0 0 0 0 0 0 0 0 0 0 0 0 0 0 0 0 0 0 0 0 0 0 0 0 0 0 0 0 0
      0 0 0 0 0 0 0 0 0 0 0 0 0 0 0 0 0 0 0 0 0 0 0 0 0 0 0 0 0 0 0 0 0 0 0 0 0 0 0 0 0 0 0 0 0 0 0 0 0 0 0 0 0 0 0 0 0 0 0 0 0 0 0 0 0 0 0 0 0 0 0 0 0 0 0 0 0 0 0 0 0 0 0 0 0 0 0 0 0 0 0 0 0 0 0 0 0 0 0 0 0 0 0 0 0 0 0 0 0 0 0 0 0 0 0 0 0 0 0 0 0 0 0 0 0 0 0 0 0 0 0 0 0 0 0 0 0 0 0 0 0 0 0 0 0 0 0 0 0 0 0 0 0 0 0
      0 0 0 0 0 0 0 0 0 0 0 0 0 0 0 0 0 0 0 0 0 0 0 0 0 0 0 0 0 0 0 0 0 0 0 0 0 0 0 0 0 0 0 0 0 0 0 0 0 0 0 0 0 0 0 0 0 0 0 0 0 0 0 0 0 0 0 0 0 0 0 0 0 0 0 0 0 0 0 0 0 0 0 0 0 0 0 0 0 0 0 0 0 0 0 0 0 0 0 0 0 0 0 0 0 0 0 0 0 5270 5280 5280 4800 0 0 0 0 0 0 0 0 0 0 0 0 0 0 0 0 0 0 0 0 0 0 0 0 0 0 0 0 0 0 0 0 0 0 0 0 0 0 0 0 0 0
      0 0 0 0 0 0 0 0 0 0 0 0 0 0 0 0 0 0 0 0 0 0 0 0 0 0 0 0 0 0 0 0 0 0 0 0 0 0 0 0 0 0 0 0 0 0 0 0 0 0 0 0 0 0 0 0 0 0 0 0 0 0 0 0 0 0 0 0 0 0 0 0 0 0 0 0 0 0 0 0 0 0 0 0 0 0 0 0 0 0 0 0 0 0 0 0 0 0 0 0 0 0 0 0 0 0 0 0 0 3064 3063 3063 3900 0 0 0 0 0 0 0 0 0 0 0 0 0 0 0 0 0 0 0 0 0 0 0 0 0 0 0 0 0 0 0 0 0 0 0 0 0 0 0 0 0 0
      0 0 0 0 0 0 0 0 0 0 0 0 0 0 0 0 0 0 0 0 0 0 0 0 0 0 0 0 0 0 0 0 0 0 0 0 0 0 0 0 0 0 0 0 0 0 0 0 0 0 0 0 0 0 0 0 0 0 0 0 0 0 0 0 0 0 0 0 0 0 0 0 0 0 0 0 0 0 0 0 0 0 0 0 0 0 0 0 0 0 0 0 0 0 0 0 0 0 0 0 0 0 0 0 0 0 0 0 0 3064 3063 3063 3900 0 0 0 0 0 0 0 0 0 0 0 0 0 0 0 0 0 0 0 0 0 0 0 0 0 0 0 0 0 0 0 0 0 0 0 0 0 0 0 0 0 0
      0 0 0 0 0 0 0 0 0 0 0 0 0 0 0 0 0 0 0 0 0 0 0 0 0 0 0 0 0 0 0 0 0 0 0 0 0 0 0 0 0 0 0 0 0 0 0 0 0 0 0 0 0 0 0 0 0 0 0 0 0 0 0 0 0 0 0 0 0 0 0 0 0 0 0 0 0 0 0 0 0 0 0 0 0 0 0 0 0 0 0 0 0 0 0 0 0 0 0 0 0 0 0 0 0 0 0 0 0 5040 3063 3063 3900 0 0 0 0 0 0 0 0 0 0 0 0 0 0 0 0 0 0 0 0 0 0 0 0 0 0 0 0 0 0 0 0 0 0 0 0 0 0 0 0 0 0
      0 0 0 0 0 0 0 0 0 0 0 0 0 0 0 0 0 0 0 0 0 0 0 0 0 0 0 0 0 0 0 0 3065 3062 3065 3062 3065 0 0 0 0 0 0 0 0 0 3065 3062 3065 3065 3062 3065 0 0 0 0 0 0 0 0 3065 3062 3065 3065 3062 3065 0 0 0 0 0 0 0 0 0 0 0 0 0 0 0 0 0 0 0 0 0 0 0 0 0 0 0 0 0 0 0 0 0 0 0 0 0 0 0 0 0 0 0 5200 3063 3063 3900 0 0 0 0 0 0 0 0 0 0 0 0 0 0 0 0 0 0 0 0 0 0 0 0 0 0 0 0 0 0 0 0 0 0 0 0 0 0 0 0 0 0
      0 0 0 0 0 0 0 0 0 0 0 0 0 0 0 0 0 0 0 0 0 0 0 0 0 0 0 0 0 0 0 0 0 0 0 0 0 0 0 0 0 0 0 0 0 0 0 0 0 0 0 0 0 0 0 0 0 0 0 0 0 0 0 0 0 0 0 0 0 0 0 0 0 0 0 0 0 0 0 0 0 0 0 0 0 0 0 0 0 0 0 0 0 0 0 0 0 0 0 0 0 0 0 0 0 0 0 0 0 3920 3063 3063 3900 0 0 0 0 0 0 0 0 0 0 0 0 0 0 0 0 0 0 0 0 0 0 0 0 0 0 0 0 0 0 0 0 0 0 0 0 0 0 0 0 0 0
      0 0 0 0 0 0 0 0 0 0 0 0 0 0 0 0 0 0 0 0 0 0 0 0 0 0 0 0 0 0 0 0 0 0 0 0 0 0 0 0 0 0 0 0 0 0 0 0 0 0 0 0 0 0 0 0 0 0 0 0 0 0 0 0 0 0 0 0 0 0 0 0 3760 2140 2141 2142 2019 2140 2141 3740 0 0 0 0 0 0 0 0 0 0 0 0 0 0 0 0 0 0 0 0 0 0 0 0 0 0 0 0 0 3920 3063 3063 3900 3920 0 0 0 0 0 0 0 0 0 0 0 0 0 0 0 0 0 0 0 0 0 0 0 0 0 0 0 0 0 0 0 0 0 0 0 0 0 0 0 0 0
      0 0 0 0 0 0 0 0 0 0 0 0 0 0 0 0 0 0 0 0 0 0 0 0 0 0 0 0 0 0 0 0 0 0 0 0 0 0 0 0 0 0 0 0 0 0 0 0 0 0 0 0 0 0 0 0 0 0 0 0 0 0 0 0 0 0 0 0 0 0 0 0 3920 2020 2020 2020 2020 2020 2020 3900 0 0 0 0 0 0 0 0 0 0 0 0 0 0 0 0 0 0 0 0 0 0 0 0 0 0 0 0 0 3920 3063 3063 3900 0 0 0 0 0 0 0 0 0 0 0 0 0 0 0 0 0 0 0 0 0 0 0 0 0 0 0 0 0 0 0 0 0 0 0 0 0 0 0 0 0 0
      0 0 0 0 0 0 0 0 0 0 0 0 0 0 0 0 0 0 0 0 0 0 0 0 0 0 0 0 0 0 0 0 0 0 0 0 0 0 0 0 0 0 0 0 0 0 0 0 0 0 0 0 0 0 0 0 0 0 0 0 0 0 0 0 0 0 0 0 0 0 0 0 3920 2020 2020 2020 2020 2020 2020 3900 0 0 0 0 0 0 0 0 0 0 0 0 0 0 0 0 0 0 0 0 0 0 0 0 0 0 0 0 0 3920 3063 3063 3900 0 0 0 0 0 0 0 0 0 0 0 0 0 0 0 0 0 0 0 0 0 0 0 0 0 0 0 0 0 0 0 0 0 0 0 0 0 0 0 0 0 0
      0 0 0 0 0 0 0 0 0 0 0 0 0 0 0 0 0 0 0 0 0 0 0 0 0 0 0 0 0 0 0 0 0 0 0 0 0 0 0 0 0 0 0 0 0 0 0 0 0 0 0 0 0 0 0 0 0 0 0 0 0 0 0 0 0 0 0 0 0 0 0 0 3920 2020 2020 2020 2020 2020 2020 3900 0 0 0 0 0 0 0 0 0 0 0 0 0 0 0 0 0 0 0 0 0 0 0 0 0 0 0 0 0 3920 3063 3063 3900 0 1015 1708 1708 1708 1708 1708 1708 1708 1708 1708 1708 1708 1708 1708 1708 1708 1708 1708 1708 1708 1708 1708 1708 1708 1708 1708 1708 1708 1708 1708 1708 1708 1708 1708 1708 1708 1708 1708 1708 1708 1708
      0 0 0 0 0 0 0 0 0 0 0 0 0 0 0 0 0 0 0 0 0 0 0 0 0 0 0 0 0 0 0 0 0 0 0 0 0 0 0 0 0 0 0 0 0 0 0 0 0 0 0 0 0 0 0 0 0 0 0 0 0 0 0 0 0 0 0 0 0 0 0 0 3920 2020 2020 2020 2020 2020 2020 3900 0 0 0 0 0 0 0 0 0 0 0 0 0 0 0 0 0 0 0 0 0 0 0 0 0 0 0 0 0 0 3061 3061 0 0 1015 1705 1705 1705 1705 1705 1705 1705 1705 1705 1705 1705 1705 1705 1705 1705 1705 1705 1705 1705 1705 1705 1705 1705 1705 1705 1705 1705 1705 1705 1705 1705 1705 1705 1705 1705 1705 1705 1705 1705 1705
      2019 2140 2141 2142 2019 2140 2141 2142 2019 2140 2141 2142 2019 2140 2141 2142 2019 2140 2141 2142 2019 2140 2141 2142 2019 2140 2141 2142 2019 2140 2141 2142 2019 2140 2141 2142 2019 2140 2141 2142 2019 2140 2141 2142 2019 2140 2141 2142 2019 2140 2141 2142 2019 2140 2141 2142 2019 2140 2141 2142 2019 2140 2141 2142 2019 2140 2141 2142 2019 2140 2141 2142 2019 2140 2141 2142 2019 2140 2141 2142 2019 2140 2141 2142 2019 2140 2141 2142 2019 2140 2141 2142 2019 2140 2141 2142 2019 2140 2141 2142 2019 2140 2141 2142 2019 2140 2141 2142 2019 2140 2141 2142 3900 0 1015 1705 1705 1705 1705 1705 1705 1705 1705 1705 1705 1705 1705 1705 1705 1705 1705 1705 1705 1705 1705 1705 1705 1705 1705 1705 1705 1705 1705 1705 1705 1705 1705 1705 1705 1705 1705 1705 1705 1705 1705
      2020 2020 2020 2020 2020 2020 2020 2020 2020 2020 2020 2020 2020 2020 2020 2020 2020 2020 2020 2020 2020 2020 2020 2020 2020 2020 2020 2020 2020 2020 2020 2020 2020 2020 2020 2020 2020 2020 2020 2020 2020 2020 2020 2020 2020 2020 2020 2020 2020 2020 2020 2020 2020 2020 2020 2020 2020 2020 2020 2020 2020 2020 2020 2020 2020 2020 2020 2020 2020 2020 2020 2020 2020 2020 2020 2020 2020 2020 2020 2020 2020 2020 2020 2020 2020 2020 2020 2020 2020 2020 2020 2020 2020 2020 2020 2020 2020 2020 2020 2020 2020 2020 2020 2020 2020 2020 2020 2020 2020 2020 2020 2020 3900 0 1015 1705 1705 1705 1705 1705 1705 1705 1705 1705 1705 1705 1705 1705 1705 1705 1705 1705 1705 1705 1705 1705 1705 1705 1705 1705 1705 1705 1705 1705 1705 1705 1705 1705 1705 1705 1705 1705 1705 1705 1705
      2020 2020 2020 2020 2020 2020 2020 2020 2020 2020 2020 2020 2020 2020 2020 2020 2020 2020 2020 2020 2020 2020 2020 2020 2020 2020 2020 2020 2020 2020 2020 2020 2020 2020 2020 2020 2020 2020 2020 2020 2020 2020 2020 2020 2020 2020 2020 2020 2020 2020 2020 2020 2020 2020 2020 2020 2020 2020 2020 2020 2020 2020 2020 2020 2020 2020 2020 2020 2020 2020 2020 2020 2020 2020 2020 2020 2020 2020 2020 2020 2020 2020 2020 2020 2020 2020 2020 2020 2020 2020 2020 2020 2020 2020 2020 2020 2020 2020 2020 2020 2020 2020 2020 2020 2020 2020 2020 2020 2020 2020 2020 2020 3900 0 1015 1705 1705 1705 1705 1705 1705 1705 1705 1705 1705 1705 1705 1705 1705 1705 1705 1705 1705 1705 1705 1705 1705 1705 1705 1705 1705 1705 1705 1705 1705 1705 1705 1705 1705 1705 1705 1705 1705 1705 1705
      2020 2020 2020 2020 2020 2020 2020 2020 2020 2020 2020 2020 2020 2020 2020 2020 2020 2020 2020 2020 2020 2020 2020 2020 2020 2020 2020 2020 2020 2020 2020 2020 2020 2020 2020 2020 2020 2020 2020 2020 2020 2020 2020 2020 2020 2020 2020 2020 2020 2020 2020 2020 2020 2020 2020 2020 2020 2020 2020 2020 2020 2020 2020 2020 2020 2020 2020 2020 2020 2020 2020 2020 2020 2020 2020 2020 2020 2020 2020 2020 2020 2020 2020 2020 2020 2020 2020 2020 2020 2020 2020 2020 2020 2020 2020 2020 2020 2020 2020 2020 2020 2020 2020 2020 2020 2020 2020 2020 2020 2020 2020 2020 3900 0 1015 1705 1705 1705 1705 1705 1705 1705 1705 1705 1705 1705 1705 1705 1705 1705 1705 1705 1705 1705 1705 1705 1705 1705 1705 1705 1705 1705 1705 1705 1705 1705 1705 1705 1705 1705 1705 1705 1705 1705 1705
      2020 2020 2020 2020 2020 2020 2020 2020 2020 2020 2020 2020 2020 2020 2020 2020 2020 2020 2020 2020 2020 2020 2020 2020 2020 2020 2020 2020 2020 2020 2020 2020 2020 2020 2020 2020 2020 2020 2020 2020 2020 2020 2020 2020 2020 2020 2020 2020 2020 2020 2020 2020 2020 2020 2020 2020 2020 2020 2020 2020 2020 2020 2020 2020 2020 2020 2020 2020 2020 2020 2020 2020 2020 2020 2020 2020 2020 2020 2020 2020 2020 2020 2020 2020 2020 2020 2020 2020 2020 2020 2020 2020 2020 2020 2020 2020 2020 2020 2020 2020 2020 2020 2020 2020 2020 2020 2020 2020 2020 2020 2020 2020 3900 0 1015 1705 1705 1705 1705 1705 1705 1705 1705 1705 1705 1705 1705 1705 1705 1705 1705 1705 1705 1705 1705 1705 1705 1705 1705 1705 1705 1705 1705 1705 1705 1705 1705 1705 1705 1705 1705 1705 1705 1705 1705
      2020 2020 2020 2020 2020 2020 2020 2020 2020 2020 2020 2020 2020 2020 2020 2020 2020 2020 2020 2020 2020 2020 2020 2020 2020 2020 2020 2020 2020 2020 2020 2020 2020 2020 2020 2020 2020 2020 2020 2020 2020 2020 2020 2020 2020 2020 2020 2020 2020 2020 2020 2020 2020 2020 2020 2020 2020 2020 2020 2020 2020 2020 2020 2020 2020 2020 2020 2020 2020 2020 2020 2020 2020 2020 2020 2020 2020 2020 2020 2020 2020 2020 2020 2020 2020 2020 2020 2020 2020 2020 2020 2020 2020 2020 2020 2020 2020 2020 2020 2020 2020 2020 2020 2020 2020 2020 2020 2020 2020 2020 2020 2020 3900 0 1015 1706 1706 1706 1706 1706 1706 1706 1706 1706 1706 1706 1706 1706 1706 1706 1706 1706 1706 1706 1706 1706 1706 1706 1706 1706 1706 1706 1706 1706 1706 1706 1706 1706 1706 1706 1706 1706 1706 1706 1706
      )
    )
    (tilemap
      (solid #t)
      (z-pos 0)
      (name "spout2")
      (path-ref "gen15456858282070743614208")
      (width 40)
      (height 8)
      (tiles
      0 0 0 0 0 0 0 0 0 0 0 0 0 0 0 0 0 0 0 0 0 0 0 0 0 0 0 0 1708 0 0 0 0 0 0 0 0 0 1708 0
      0 0 0 1708 0 0 0 0 0 0 0 0 0 0 0 0 0 0 0 0 0 0 0 0 0 0 0 1707 1705 1711 0 0 0 0 0 0 0 1707 1705 1711
      0 0 1710 1705 1711 0 0 0 0 0 0 0 0 0 0 0 0 0 0 0 0 0 0 0 0 0 0 1710 1705 1709 0 0 0 0 0 0 0 1710 1705 1711
      0 0 1710 1705 1711 0 0 0 0 0 0 0 0 0 0 0 0 0 0 0 0 0 0 0 0 0 0 1707 1705 1711 0 0 0 0 0 0 0 1707 1705 1709
      0 0 1707 1700 1709 0 0 0 0 0 0 0 0 0 0 0 0 0 0 0 0 0 0 0 0 0 0 1710 1705 1709 0 0 0 0 0 0 0 1710 1705 1711
      0 0 1707 1705 1711 0 0 0 0 0 0 0 0 0 0 0 0 0 0 0 0 0 0 0 0 0 0 1707 1705 1711 0 0 0 0 0 0 0 1707 1705 1709
      0 0 1710 1705 1709 0 0 0 0 0 0 0 0 0 0 0 0 0 0 0 0 0 0 0 0 0 0 1710 1705 1709 0 0 0 0 0 0 0 1710 1705 1711
      0 0 1710 1705 1709 0 0 0 0 0 0 0 0 0 0 0 0 0 0 0 0 0 0 0 0 0 0 1707 1705 1711 0 0 0 0 0 0 0 1710 1705 1709
      )
    )
    (tilemap
      (solid #t)
      (z-pos 0)
      (name "spout1")
      (path-ref "gen15456858282070743612048")
      (width 40)
      (height 8)
      (tiles
      0 1708 0 0 0 0 0 0 0 0 0 0 0 0 1708 1708 0 0 0 0 0 0 0 0 0 0 0 0 0 0 0 0 0 0 0 0 0 0 0 0
      1707 1705 1711 0 0 0 0 0 0 0 0 0 0 1707 1705 1705 1711 0 0 0 0 0 0 0 0 0 0 0 0 0 1708 1708 0 0 0 0 0 0 0 0
      1707 1705 1711 0 0 0 0 0 0 0 0 0 0 1707 1705 1705 1711 0 0 0 0 0 0 0 0 0 0 0 0 1707 1705 1705 1711 0 0 0 0 0 0 0
      1707 1705 1711 0 0 0 0 0 0 0 0 0 0 1707 1705 1705 1711 0 0 0 0 0 0 0 0 0 0 0 0 1710 1705 1705 1711 0 0 0 0 0 0 0
      1707 1705 1711 0 0 0 0 0 0 0 0 0 0 1707 1700 1705 1711 0 0 0 0 0 0 0 0 0 0 0 0 1710 1705 1705 1711 0 0 0 0 0 0 0
      1707 1705 1711 0 0 0 0 0 0 0 0 0 0 1707 1705 1705 1711 0 0 0 0 0 0 0 0 0 0 0 0 1710 1705 1700 1711 0 0 0 0 0 0 0
      1707 1705 1711 0 0 0 0 0 0 0 0 0 0 1707 1705 1700 1711 0 0 0 0 0 0 0 0 0 0 0 0 1710 1705 1705 1711 0 0 0 0 0 0 0
      1707 1705 1711 0 0 0 0 0 0 0 0 0 0 1707 1705 1705 1711 0 0 0 0 0 0 0 0 0 0 0 0 1710 1705 1705 1711 0 0 0 0 0 0 0
      )
    )
    (weak_block
      (x 1889.533)
      (y 236.0013)
    )
    (weak_block
      (x 1921.179)
      (y 223.6269)
    )
    (weak_block
      (x 1952.429)
      (y 212.3769)
    )
    (weak_block
      (x 1984.679)
      (y 202.3769)
    )
    (weak_block
      (x 2016.679)
      (y 202.3769)
    )
    (weak_block
      (x 2048.43)
      (y 212.3769)
    )
    (weak_block
      (x 2081.18)
      (y 223.6269)
    )
    (weak_block
      (x 2113.533)
      (y 236.0013)
    )
    (weak_block
      (x 1442.25)
      (y 232.4038)
    )
    (weak_block
      (x 993.8962)
      (y 237.5294)
    )
    (weak_block
      (x 1025.146)
      (y 226.2794)
    )
    (weak_block
      (x 1058.646)
      (y 206.2794)
    )
    (weak_block
      (x 1088.146)
      (y 195.0294)
    )
    (weak_block
      (x 1117.396)
      (y 206.2794)
    )
    (weak_block
      (x 1150.146)
      (y 225.0294)
    )
    (weak_block
      (x 1182.5)
      (y 236.1538)
    )
    (weak_block
      (x 1473.5)
      (y 222.5698)
    )
    (weak_block
      (x 1507)
      (y 206)
    )
    (weak_block
      (x 1538.03)
      (y 195.9884)
    )
    (weak_block
      (x 1568.53)
      (y 196.4884)
    )
    (weak_block
      (x 1600.78)
      (y 209.7384)
    )
    (weak_block
      (x 1631.25)
      (y 222.25)
    )
    (weak_block
      (x 1661.75)
      (y 237.5698)
    )
  )
  (tileset "images/desert_tiles.strf")
)
