(supertux-level
  (version 2)
  (name (_ "Treetop Route to Mexico"))
  (author "Miksy91")
  (license "CC-BY-SA 4.0 International")
  (sector
    (name "main")
    (ambient-light
      (color 1 1 1)
    )
    (background
      (speed 0.5)
      (image-top "images/background/transparent_up.png")
      (image "images/background/forest_para3.png")
      (image-bottom "images/background/forest_para3_bottom.png")
    )
    (background
      (alignment "bottom")
      (speed 0.9500002)
      (image-top "images/background/forest_para3.png")
      (image "images/background/forest_para3.png")
      (image-bottom "images/background/forest_para3.png")
      (z-pos -101)
    )
    (camera
      (name "Camera")
      (mode "normal")
    )
    (fish
      (direction "left")
      (x 2126)
      (y 340.9777)
    )
    (fish
      (direction "left")
      (x 2124)
      (y 406.9777)
    )
    (fish
      (direction "left")
      (x 2122)
      (y 489.9777)
    )
    (fish
      (direction "left")
      (x 1958)
      (y 348.9777)
    )
    (fish
      (direction "left")
      (x 1957)
      (y 450.9777)
    )
    (flame
      (direction "left")
      (x 319.1)
      (y 480.3499)
    )
    (flame
      (direction "left")
      (x 1344.6)
      (y 254.1)
    )
    (flame
      (direction "left")
      (x 1407.1)
      (y 254.1)
    )
    (flame
      (direction "left")
      (x 2560.6)
      (y 316.6)
    )
    (gradient
      (top_color 0.9159991 0.4605936 0.170062)
      (bottom_color 0.8222772 0.06047147 0.2675973)
      (z-pos -700)
    )
    (jumpy
      (direction "left")
      (sprite "/images/creatures/jumpy/wooden.sprite")
      (x 428)
      (y 329)
    )
    (jumpy
      (direction "left")
      (sprite "/images/creatures/jumpy/wooden.sprite")
      (x 658.6672)
      (y 262.9393)
    )
    (jumpy
      (direction "left")
      (sprite "/images/creatures/jumpy/wooden.sprite")
      (x 658.6672)
      (y 326.9393)
    )
    (jumpy
      (direction "left")
      (sprite "/images/creatures/jumpy/wooden.sprite")
      (x 2271.222)
      (y 268.2429)
    )
    (jumpy
      (direction "left")
      (sprite "/images/creatures/jumpy/wooden.sprite")
      (x 2271.222)
      (y 204.2426)
    )
    (jumpy
      (direction "left")
      (sprite "/images/creatures/jumpy/wooden.sprite")
      (x 3143)
      (y 392)
    )
    (jumpy
      (direction "left")
      (sprite "/images/creatures/jumpy/wooden.sprite")
      (x 3239)
      (y 392)
    )
    (mrbomb
      (direction "left")
      (x 2741.586)
      (y 187.5635)
    )
    (mrbomb
      (direction "left")
      (x 1510)
      (y 308)
    )
    (mrbomb
      (direction "left")
      (x 1381)
      (y 168)
    )
    (mrbomb
      (direction "left")
      (x 1219)
      (y 307)
    )
    (music
      (file "music/forest/forest2.ogg")
    )
    (poisonivy
      (direction "left")
      (x 2405)
      (y 378.2569)
    )
    (poisonivy
      (direction "left")
      (x 2547.835)
      (y 262.2914)
    )
    (spawnpoint
      (name "main")
      (x 76.5391)
      (y 419.5786)
    )
    (spidermite
      (direction "left")
      (x 1675)
      (y 315)
    )
    (spidermite
      (direction "left")
      (x 1730)
      (y 298.75)
    )
    (spidermite
      (direction "left")
      (x 1782.5)
      (y 307.5)
    )
    (spidermite
      (direction "left")
      (x 573.75)
      (y 203.75)
    )
    (spidermite
      (direction "left")
      (x 891.5)
      (y 275)
    )
    (spidermite
      (direction "left")
      (x 1084)
      (y 228.75)
    )
    (spiky
      (direction "left")
      (x 328)
      (y 380)
    )
    (spiky
      (direction "left")
      (x 547)
      (y 376)
    )
    (stalactite
      (direction "left")
      (sprite "/images/creatures/stalactite/stalactite.sprite")
      (x 1676)
      (y 3)
    )
    (stalactite
      (direction "left")
      (sprite "/images/creatures/stalactite/stalactite.sprite")
      (x 1731)
      (y 4)
    )
    (stalactite
      (direction "left")
      (sprite "/images/creatures/stalactite/stalactite.sprite")
      (x 1781)
      (y 6)
    )
    (tilemap
      (solid #f)
      (z-pos -100)
      (name "Background")
      (width 120)
      (height 25)
      (tiles
      0 3060 0 0 3060 0 0 0 0 0 0 0 0 0 0 0 0 0 1357 0 0 0 0 0 0 0 0 0 1357 0 0 0 0 0 1357 0 0 0 0 0 0 0 0 0 0 0 0 0 0 0 0 0 0 0 0 0 0 0 0 0 0 3060 0 0 0 3060 0 0 0 0 0 0 0 0 0 0 0 0 0 0 0 0 0 0 0 0 0 0 0 0 0 0 0 0 0 0 0 0 0 0 0 0 0 0 0 0 0 0 0 0 0 0 0 0 0 0 0 0 0 0
      0 3060 0 0 3060 0 0 0 0 0 0 0 0 0 0 0 0 0 1357 0 0 0 0 0 0 0 0 0 1357 0 0 0 0 0 1357 0 0 0 0 0 0 0 0 0 0 0 0 0 0 0 0 0 0 0 0 0 0 0 0 0 0 3060 0 0 0 3060 0 0 0 0 0 0 0 0 0 0 0 0 0 0 0 0 0 0 0 0 0 0 0 0 0 0 0 0 0 0 0 0 0 0 0 0 0 0 0 0 0 0 0 0 0 0 0 0 0 0 0 0 0 0
      0 3060 0 0 3060 0 0 0 0 0 0 0 0 0 0 0 0 0 1357 0 0 0 0 0 0 0 0 0 1357 0 0 0 0 0 1357 0 0 0 0 0 0 0 0 0 0 0 0 0 0 0 0 0 0 0 0 0 0 0 0 0 0 3060 0 0 0 3060 0 0 0 0 0 0 0 0 0 0 0 0 0 0 0 0 0 0 0 0 0 0 0 0 0 0 0 0 0 0 0 0 0 0 0 0 0 0 0 0 0 0 0 0 0 0 0 0 0 0 0 0 0 0
      0 3060 0 0 3060 0 0 0 0 0 0 0 0 0 0 0 0 0 1357 0 0 0 0 0 0 0 0 0 1357 0 0 0 0 0 1357 0 0 0 0 0 0 0 0 0 0 0 0 0 0 0 0 0 0 0 0 0 0 0 0 0 0 3060 0 0 0 3060 0 0 0 0 0 0 0 0 0 0 0 0 0 0 0 0 0 0 0 0 0 0 0 0 0 0 0 0 0 0 0 0 0 0 0 0 0 0 0 0 0 0 0 0 0 0 0 0 0 0 0 0 0 0
      0 3060 0 0 3060 0 0 0 0 0 0 0 0 0 0 0 0 0 1357 0 0 0 0 0 0 0 0 0 1357 0 0 0 0 0 1357 0 0 0 0 0 0 0 0 0 0 0 0 0 0 0 0 0 0 0 0 0 0 0 0 0 0 3060 0 0 0 3060 0 0 0 0 0 0 0 0 0 0 0 1762 1763 0 0 0 0 0 0 0 0 0 0 0 0 0 0 0 1762 1763 0 0 0 0 1762 1763 0 0 0 0 0 0 0 0 0 0 0 0 0 0 0 0 0 0
      0 3060 0 0 3060 0 0 0 0 0 0 0 0 0 0 0 0 0 1357 0 0 0 0 0 0 0 0 0 1357 0 0 0 0 0 1357 0 0 0 0 0 0 0 0 0 0 0 0 0 0 0 0 0 1358 1359 1360 0 0 0 0 0 0 3060 0 0 0 3060 0 0 0 0 0 0 0 0 0 0 0 1762 1763 0 0 0 0 0 0 1762 1763 129 0 129 0 0 0 0 1762 1763 0 0 0 0 1762 1763 0 0 0 0 0 0 0 0 0 0 0 0 0 0 0 0 0 0
      0 3060 0 0 3060 0 0 0 0 0 0 0 0 0 0 0 0 0 1357 0 0 0 0 0 0 0 0 0 1357 0 0 0 0 0 1357 0 0 0 0 0 0 0 0 0 0 0 0 0 0 0 0 0 1361 1362 461 1360 0 0 0 0 0 3060 0 0 0 3060 0 0 0 0 0 0 0 0 0 0 0 1766 1767 0 0 0 0 0 0 1772 1773 129 0 129 0 0 0 0 1764 1765 0 0 0 0 1766 1767 0 0 0 0 0 0 0 0 0 0 0 0 0 0 0 0 0 0
      0 3060 0 0 3060 0 0 0 0 0 0 0 0 0 0 0 0 0 1357 0 0 0 0 0 0 0 0 0 1357 0 0 0 0 0 1357 0 0 0 0 0 0 0 0 0 0 0 0 0 0 0 0 0 1361 1362 1362 1363 0 0 0 0 0 3060 0 0 0 3060 0 0 0 0 0 0 0 0 0 0 0 1768 1769 0 0 0 0 0 0 0 0 0 0 0 0 0 0 0 1772 1773 0 0 0 0 1768 1769 0 0 0 0 0 0 0 0 0 0 0 0 0 0 0 0 0 0
      0 3060 0 0 3060 0 0 0 0 0 0 0 0 0 0 0 0 0 1357 0 0 0 0 0 0 0 0 0 1357 0 0 0 0 0 1357 0 0 0 0 0 0 0 323 324 0 0 0 0 0 0 0 0 1361 1362 458 461 1360 0 0 0 0 3060 0 0 0 3060 0 0 0 0 0 0 0 0 0 0 0 1770 1771 0 0 0 0 0 0 0 0 0 0 0 0 0 0 0 1762 1763 0 0 0 0 1770 1771 0 0 0 0 0 0 0 0 0 0 0 0 0 0 0 0 0 0
      0 3060 0 0 3060 0 0 0 0 0 0 0 0 0 0 0 0 0 1357 0 0 0 0 0 0 0 0 0 1357 0 0 0 0 0 1357 0 0 0 0 0 0 0 325 326 0 0 0 0 0 0 0 0 1361 1362 461 462 467 0 0 0 0 0 0 0 0 0 0 0 0 0 0 0 0 0 0 0 0 1772 1773 0 0 0 0 0 0 0 0 0 0 0 0 0 0 0 1764 1765 0 0 0 0 1772 1773 0 0 0 0 0 0 0 0 0 0 0 0 0 0 0 0 0 0
      0 3060 0 0 3060 0 0 0 0 0 0 0 0 0 0 0 0 0 0 0 0 0 0 0 0 0 0 0 1357 0 0 0 0 0 0 0 0 0 0 0 0 0 327 328 0 0 0 0 0 0 0 0 1361 1362 1362 1362 1363 0 0 0 0 0 0 0 0 0 0 0 0 0 0 0 0 0 0 0 0 1762 1763 0 0 0 0 0 0 0 0 0 0 0 0 0 0 0 1770 1771 0 0 0 0 1762 1763 0 0 0 0 0 0 0 0 0 0 0 0 0 0 0 0 0 0
      0 3060 0 0 3060 0 0 0 0 0 0 0 0 0 0 0 0 0 0 0 0 0 0 0 0 0 0 0 1357 0 0 0 0 0 0 0 0 0 0 0 0 0 329 330 0 0 0 0 0 0 0 0 1361 458 459 1362 1363 0 0 0 0 0 0 0 0 0 0 0 0 0 0 0 0 0 0 0 0 1764 1765 0 0 0 0 0 0 0 0 0 0 0 0 0 0 0 1772 1773 0 0 0 0 1764 1765 0 0 0 0 0 0 0 0 0 0 0 0 0 0 0 0 0 0
      0 3060 0 0 3060 0 0 0 0 0 0 0 0 0 0 0 0 0 0 0 0 0 0 0 0 0 0 0 0 0 0 0 0 0 0 0 0 1521 0 0 1521 0 0 0 0 0 1521 1521 0 0 0 0 1361 461 462 1362 461 1360 0 0 0 0 0 0 0 0 0 0 0 0 0 0 0 0 0 0 0 1766 1767 0 0 0 0 0 0 0 0 0 0 0 0 0 0 0 0 0 0 0 0 0 1766 1767 0 0 0 0 0 0 0 0 0 0 0 0 0 0 0 0 0 0
      0 3060 0 0 3060 0 0 0 0 0 0 0 0 0 0 0 0 0 0 0 0 0 0 0 0 0 0 0 0 0 0 0 0 0 0 0 0 1521 0 0 1521 0 0 0 0 0 1521 1521 0 0 0 0 1364 1365 1365 1365 1365 1366 0 0 0 0 0 0 0 0 0 0 0 0 0 0 0 0 0 0 0 1768 1769 0 0 0 0 0 0 0 0 0 0 0 0 0 0 0 0 0 0 0 0 0 1768 1769 0 0 0 0 0 0 0 0 0 0 0 0 0 0 0 0 0 0
      0 3060 0 0 3060 1521 0 0 0 0 0 0 0 0 0 0 0 0 0 0 0 0 0 0 1521 0 0 0 0 0 0 0 0 0 0 0 0 1521 0 0 1521 0 0 0 0 0 1521 1521 0 0 0 0 0 0 0 0 0 0 0 0 0 0 0 0 0 0 0 0 0 0 0 0 0 0 0 0 0 1770 1771 0 0 0 0 0 0 0 0 0 0 0 0 0 0 0 0 0 0 0 0 0 1770 1771 0 0 0 0 0 0 0 0 0 0 0 0 0 0 0 0 0 0
      0 0 0 0 0 1521 0 0 0 0 0 0 0 0 0 0 0 0 0 0 0 0 0 0 1521 0 0 0 0 0 0 0 0 0 0 0 0 1521 0 0 1521 0 0 0 0 0 1521 1521 0 0 0 0 0 1521 0 0 0 1521 0 0 0 0 0 0 0 0 0 0 0 0 0 0 0 0 0 0 0 1772 1773 0 0 0 0 0 0 0 0 0 0 0 0 0 0 0 0 0 0 0 0 0 1772 1773 0 0 0 0 0 0 0 0 0 0 0 0 0 0 0 0 0 0
      0 0 0 0 0 1521 0 0 0 0 0 0 0 0 0 0 0 0 0 0 0 0 0 0 1521 0 0 0 0 0 0 0 0 0 0 0 0 1521 0 0 1521 0 0 0 0 0 1521 1521 0 0 0 0 0 1521 0 0 0 1521 0 0 0 0 0 0 0 0 0 0 0 0 0 0 0 0 0 0 0 0 0 0 0 0 0 0 0 0 0 0 0 0 0 0 0 0 0 0 0 0 0 0 0 0 0 0 0 0 0 0 0 0 0 0 0 0 0 0 0 0 0 0
      0 0 0 0 0 1521 0 0 0 0 0 0 0 0 0 0 0 0 0 0 0 0 0 0 1521 0 0 0 0 0 0 0 0 0 0 0 0 1521 0 0 1521 0 0 0 0 0 1521 1521 0 1521 0 1521 0 1521 0 0 0 1521 0 0 0 0 0 0 0 0 0 0 0 0 0 0 0 0 0 0 0 0 0 0 0 0 0 0 0 0 0 0 0 0 0 0 0 0 0 0 0 0 0 0 0 0 0 0 0 0 0 0 0 0 0 0 0 0 0 0 0 0 0 0
      0 0 0 0 0 1521 0 0 0 0 0 0 0 0 0 0 0 0 0 0 0 0 0 0 1521 0 0 0 0 0 0 0 0 0 0 0 0 1521 0 0 1521 0 0 0 0 0 1521 1521 0 1521 0 1521 0 1521 0 0 0 1521 0 0 0 0 0 0 0 0 0 0 0 0 0 0 0 0 0 0 0 0 0 0 0 0 0 0 0 0 0 0 0 0 0 0 0 0 0 0 0 0 0 0 0 0 0 0 0 0 0 0 0 0 0 0 0 0 0 0 0 0 0 0
      0 0 0 0 0 1521 0 0 0 0 0 0 0 0 0 0 0 0 0 0 0 0 0 0 1521 0 0 0 0 0 0 0 0 0 0 0 0 1521 0 0 1521 0 0 0 0 0 1521 1521 0 1521 0 1521 0 1521 0 0 0 1521 0 0 0 0 0 0 0 0 0 0 0 0 0 0 0 0 0 0 0 0 0 0 0 0 0 0 0 0 0 0 0 0 0 0 0 0 0 0 0 0 0 0 0 0 0 0 0 0 0 0 0 0 0 0 0 0 0 0 0 0 0 0
      0 0 0 0 0 1521 0 0 0 0 0 0 0 0 0 0 0 0 0 0 0 0 0 0 1521 0 0 0 0 0 0 0 0 0 0 0 0 1521 0 0 1521 0 0 0 0 0 1521 1521 0 1521 0 1521 0 1521 0 0 0 1521 0 0 0 0 0 0 0 0 0 0 0 0 0 0 0 0 0 0 0 0 0 0 0 0 0 0 0 0 0 0 0 0 0 0 0 0 0 0 0 0 0 0 0 0 0 0 0 0 0 0 0 0 0 0 0 0 0 0 0 0 0 0
      0 0 0 0 0 1521 0 0 0 0 0 0 0 0 0 0 0 0 0 0 0 0 0 0 1521 0 0 0 0 0 0 0 0 0 0 0 0 1521 0 0 1521 0 0 0 0 0 1521 1521 0 1521 0 1521 0 1521 0 0 0 1521 0 0 0 0 0 0 0 0 0 0 0 0 0 0 0 0 0 0 0 0 0 0 0 0 0 0 0 0 0 0 0 0 0 0 0 0 0 0 0 0 0 0 0 0 0 0 0 0 0 0 0 0 0 0 0 0 0 0 0 0 0 0
      0 0 0 0 0 1521 0 0 0 0 0 0 0 0 0 0 0 0 0 0 0 0 0 0 1521 0 0 0 0 0 0 0 0 0 0 0 0 1521 0 0 1521 0 0 0 0 0 1521 1521 0 1521 0 1521 0 1521 0 0 0 1521 0 0 0 0 0 0 0 0 0 0 0 0 0 0 0 0 0 0 0 0 0 0 0 0 0 0 0 0 0 0 0 0 0 0 0 0 0 0 0 0 0 0 0 0 0 0 0 0 0 0 0 0 0 0 0 0 0 0 0 0 0 0
      0 0 0 0 0 1521 0 0 0 0 0 0 0 0 0 0 0 0 0 0 0 0 0 0 1521 0 0 0 0 0 0 0 0 0 0 0 0 1521 0 0 1521 0 0 0 0 0 1521 1521 0 1521 0 1521 0 1521 0 0 0 1521 0 0 0 0 0 0 0 0 0 0 0 0 0 0 0 0 0 0 0 0 0 0 0 0 0 0 0 0 0 0 0 0 0 0 0 0 0 0 0 0 0 0 0 0 0 0 0 0 0 0 0 0 0 0 0 0 0 0 0 0 0 0
      0 0 0 0 0 1521 0 0 0 0 0 0 0 0 0 0 0 0 0 0 0 0 0 0 1521 0 0 0 0 0 0 0 0 0 0 0 0 1521 0 0 1521 0 0 0 0 0 1521 1521 0 1521 0 1521 0 1521 0 0 0 1521 0 0 0 0 0 0 0 0 0 0 0 0 0 0 0 0 0 0 0 0 0 0 0 0 0 0 0 0 0 0 0 0 0 0 0 0 0 0 0 0 0 0 0 0 0 0 0 0 0 0 0 0 0 0 0 0 0 0 0 0 0 0
      )
    )
    (tilemap
      (solid #t)
      (z-pos 0)
      (name "Interactive")
      (width 120)
      (height 25)
      (tiles
      0 0 0 0 0 0 0 0 0 0 0 0 0 0 0 0 0 0 0 0 0 0 0 0 0 0 0 0 0 0 0 0 0 0 0 0 0 0 0 0 0 0 0 0 0 0 0 0 0 0 0 212 0 0 0 0 0 212 0 0 0 0 0 0 0 0 0 0 0 0 0 0 0 0 1790 1787 1795 1795 1795 1787 1795 1795 1795 1787 1795 1795 1795 1787 1795 1795 1795 1787 1795 1795 1795 1787 1795 1795 1795 1787 1795 1795 1795 1787 1795 1795 1795 1787 1795 1795 1795 1787 1795 1795 1795 1787 1795 1795 1795 1787
      0 0 0 0 0 0 0 0 0 0 0 0 0 0 0 0 0 0 0 0 0 0 0 0 0 0 0 0 0 0 0 0 0 0 0 0 0 0 0 0 0 0 0 0 0 0 0 0 0 0 0 212 0 0 0 0 0 212 0 0 0 0 0 0 0 0 0 0 0 0 0 0 0 0 1790 1795 1795 1785 1795 1795 1795 1787 1795 1795 1795 1785 1795 1795 1795 1787 1795 1795 1795 1787 1795 1795 1795 1785 1795 1795 1795 1787 1795 1795 1795 1785 1795 1795 1795 1787 1795 1795 1795 1785 1795 1795 1795 1787 1795 1795
      0 0 0 0 0 0 0 0 0 0 0 0 0 0 0 0 0 0 0 0 0 0 0 0 0 0 0 0 0 0 0 0 0 0 0 0 0 0 0 0 0 0 0 0 0 0 0 0 0 0 0 212 0 0 0 0 0 212 0 0 0 0 0 0 0 0 0 0 0 0 0 0 0 0 1790 1785 1795 1795 1795 1785 1795 1795 1795 1785 1795 1795 1795 1785 1795 1795 1795 1785 1795 1795 1795 1785 1795 1795 1795 1785 1795 1795 1795 1785 1795 1795 1795 1785 1795 1795 1795 1785 1795 1795 1795 1785 1795 1795 1795 1787
      0 0 0 0 0 0 0 0 0 0 0 0 0 0 0 0 0 0 0 0 0 0 0 0 0 0 0 0 0 0 0 0 0 0 0 0 0 0 0 0 0 0 0 0 0 0 0 0 0 0 0 212 0 0 0 0 0 212 0 0 0 0 0 0 0 0 0 0 0 0 0 0 0 0 1790 1795 1795 1785 1795 1795 1795 1785 1795 1795 1795 1785 1795 1795 1795 1785 1795 1795 1795 1785 1795 1795 1795 1785 1795 1795 1795 1785 1795 1795 1795 1785 1795 1795 1795 1785 1795 1795 1795 1785 1795 1795 1795 1785 1795 1795
      0 0 0 0 0 0 0 0 0 0 0 0 0 0 0 0 0 0 0 0 0 0 0 0 0 0 0 0 0 0 0 0 0 0 0 0 0 0 0 0 0 0 0 0 0 0 0 0 0 0 0 212 0 0 0 0 0 212 0 0 0 0 0 0 0 0 0 0 0 0 0 0 0 0 1790 1785 1795 1795 1795 1785 1795 1795 1795 1785 1795 1795 1795 1785 1795 1795 1795 1785 1795 1795 1795 1785 1795 1795 1795 1785 1795 1795 1795 1785 1795 1795 1795 1785 1795 1795 1795 1785 1795 1795 1795 1785 1795 1795 1795 1787
      0 0 0 0 0 0 0 0 0 0 0 0 0 0 0 0 0 0 0 0 0 0 0 0 0 0 0 0 0 0 0 0 0 0 0 0 0 0 0 0 0 0 0 0 0 0 0 0 0 0 0 212 0 0 0 0 0 212 0 0 0 0 0 0 0 0 0 0 0 0 0 0 0 0 1789 0 0 0 0 0 0 0 0 0 0 0 0 0 133 0 0 0 0 0 0 0 0 0 0 0 0 0 0 1790 1795 1785 1795 1795 1795 1785 1795 1795 1795 1785 1795 1795 1795 1785 1795 1795
      0 0 0 0 0 0 0 0 0 0 0 0 0 0 0 0 0 0 0 0 0 0 0 0 0 0 0 0 0 0 0 0 0 0 0 0 0 0 0 0 0 0 0 0 0 0 0 0 0 0 0 212 0 0 0 0 0 212 0 0 0 0 0 0 0 0 0 0 0 0 0 0 0 0 1789 0 0 0 0 0 0 0 0 0 0 0 0 0 133 0 0 0 0 0 0 0 0 0 0 0 0 0 0 1794 1795 1795 1795 1787 1795 1795 1795 1787 1795 1795 1795 1787 1795 1795 1795 1787
      0 0 0 0 0 0 0 0 0 0 0 0 0 0 0 0 0 0 0 0 0 0 0 0 0 0 0 0 0 0 0 0 0 0 0 0 0 0 0 0 0 3435 3436 3436 3436 3437 0 0 0 0 0 212 0 0 0 0 0 212 0 0 0 0 0 0 0 0 0 0 0 0 0 0 0 0 1789 0 0 0 0 0 1779 1781 1782 1782 1782 1780 1782 1782 1782 1781 1782 1802 0 0 0 0 0 0 0 0 0 0 0 1790 1795 1785 1795 1795 1795 1787 1795 1795 1795 1785 1795 1795 1795 1787 1795 1795
      0 0 0 0 0 0 0 0 0 0 0 0 0 0 0 0 0 0 0 0 0 0 0 0 0 0 0 0 0 0 0 0 0 0 0 0 0 0 0 0 0 211 0 0 0 211 0 0 0 0 0 212 0 0 0 0 0 212 0 0 0 0 0 0 0 0 0 0 0 0 0 0 0 0 1789 0 0 0 0 0 0 1790 1795 1787 1795 1795 1795 1787 1795 1795 1795 1798 0 0 0 0 0 0 0 0 0 0 0 1794 1795 1795 1795 1785 1795 1795 1795 1785 1795 1795 1795 1785 1795 1795 1795 1787
      0 0 0 0 0 0 0 0 0 0 0 0 0 0 0 0 0 0 0 0 0 0 0 0 0 0 0 0 0 0 0 0 0 0 0 0 0 0 0 0 0 212 0 0 0 212 0 0 0 0 0 212 0 0 0 0 0 212 0 0 0 3435 3436 3436 3436 3437 0 0 0 0 0 0 0 0 1789 0 0 0 0 0 0 1794 1795 1795 1795 1787 1795 1795 1795 1787 1795 1798 0 0 0 0 0 0 0 0 0 0 0 1790 1795 1785 1795 1795 1795 1785 1795 1795 1795 1785 1795 1795 1795 1785 1795 1795
      0 0 0 0 0 0 0 0 0 102 0 0 0 0 0 0 0 0 0 0 0 0 0 0 0 0 0 0 0 0 0 0 0 0 0 0 0 0 0 0 0 213 0 0 0 213 0 0 0 0 0 213 0 0 0 0 0 213 0 0 0 0 0 0 0 0 0 0 0 0 0 102 0 0 1789 0 0 0 1779 1781 1782 1804 1795 1787 1795 1795 1795 1787 1795 1795 1795 1807 1782 1802 0 0 0 0 0 0 0 0 0 1794 1795 1795 1795 1785 1795 1795 1795 1785 1795 1795 1795 1785 1795 1795 1795 1787
      0 0 0 0 313 314 0 0 0 0 0 0 0 313 314 0 0 0 0 0 317 318 0 0 0 0 0 0 0 0 0 0 0 0 0 0 3435 3436 3436 3436 3436 3437 0 0 0 3435 3436 3436 3437 0 0 0 1628 1629 0 0 0 0 0 0 0 0 0 0 0 0 0 0 0 0 0 0 0 0 1789 0 0 0 0 0 0 1794 1795 1795 1795 1787 1795 1795 1795 1787 1795 1795 1795 1798 0 0 0 0 0 0 0 0 0 1790 1795 1785 1795 1795 1795 1785 1795 1795 1795 1785 1795 1795 1795 1785 1795 1795
      0 0 0 0 315 316 0 0 0 0 0 0 0 315 316 0 0 0 0 0 319 320 0 0 0 0 0 0 0 0 0 0 0 0 0 0 0 0 0 0 0 0 0 0 0 0 0 0 0 0 0 0 1630 1631 0 0 0 0 0 0 0 0 0 0 0 0 0 0 0 0 0 0 0 0 1789 0 0 0 0 0 0 1790 1795 1787 1795 1795 1795 1787 1795 1795 1795 1785 1795 1805 1782 1783 0 0 0 0 0 0 0 0 0 0 0 132 1795 1795 1795 1787 1795 1795 1795 1787 1795 1795 1795 1787
      0 0 0 0 3435 3436 3436 3436 3436 3436 3436 3436 3436 3436 3436 3436 3436 3436 3436 3436 3436 3436 3436 3436 3436 3437 0 0 0 0 0 0 0 0 0 0 0 0 0 0 0 0 0 0 0 0 0 0 0 0 0 0 27 28 28 28 28 28 29 0 0 0 0 0 0 0 0 0 0 0 0 0 0 0 1779 1782 1782 1802 0 0 0 1794 1795 1795 1795 1787 1795 1795 1795 1787 1795 1795 1795 1785 1795 1798 0 0 0 0 0 0 0 0 0 0 0 132 1795 1787 1795 1795 1795 1785 1795 1795 1795 1787 1795 1795
      0 0 0 0 0 323 324 0 0 0 0 0 0 0 0 0 0 0 0 0 0 0 0 0 0 0 0 0 0 0 0 0 0 0 0 0 0 0 0 0 0 0 0 0 0 0 0 0 0 0 0 0 27 28 28 28 28 28 29 0 0 0 0 0 0 0 0 0 0 0 0 0 0 0 1789 0 0 0 0 0 0 1790 1795 1787 1795 1795 1795 1787 1795 1795 1795 1785 1795 1795 1795 1807 1782 1802 0 0 0 0 0 0 0 0 0 132 1795 1795 1795 1785 1795 1795 1795 1785 1795 1795 1795 1787
      0 3435 3436 3436 3437 325 326 0 0 0 0 0 0 0 0 0 0 0 0 0 0 0 0 0 0 0 0 0 0 0 0 0 0 0 0 0 0 0 0 0 0 0 0 0 0 0 0 0 0 0 0 0 0 0 0 0 0 0 1789 0 0 0 0 0 0 0 0 0 0 1793 0 0 0 0 1789 0 0 0 0 0 0 1794 1795 1795 1795 1787 1795 1795 1795 1787 1795 1795 1795 1785 1795 1795 1795 1798 0 0 0 0 0 0 0 0 0 132 1795 1785 1795 1795 1795 1785 1795 1795 1795 1785 1795 1795
      0 0 0 0 0 327 328 0 0 0 0 0 0 0 0 0 0 0 0 0 0 0 0 0 0 0 0 0 0 0 0 0 0 0 0 0 0 0 0 0 0 0 0 0 0 0 0 0 3435 3436 3436 3436 3437 0 0 0 0 0 1789 1708 1708 1708 1708 1708 1708 1708 1708 1708 1708 1793 0 0 0 0 0 0 1779 1782 1782 1781 1782 1804 1795 1787 1795 1795 1795 1787 1795 1795 1795 1785 1795 1795 1795 1785 1795 1805 1782 1781 1782 1782 1782 1780 1804 1795 1795 1785 1795 1795 1795 1785 1795 1795 1795 1785 1795 1795 1795 1787
      0 0 0 0 0 329 330 0 0 0 0 0 0 0 0 0 0 0 0 0 0 0 0 0 0 0 0 0 0 0 0 0 0 0 0 0 0 0 0 0 0 0 0 0 0 0 0 0 0 0 0 0 0 0 0 0 0 0 1789 1705 1705 1705 1700 1705 1705 1705 1705 1705 1705 1793 0 0 0 0 0 0 1784 1787 1795 1795 1795 1787 1795 1795 1795 1787 1795 1795 1795 1787 1795 1795 1795 1787 1795 1795 1795 1787 1795 1795 1795 1785 1795 1795 1795 1785 1795 1795 1795 1785 1795 1795 1795 1785 1795 1795 1795 1785 1795 1795
      0 0 0 0 0 0 0 0 0 0 0 0 0 0 0 0 0 0 0 0 0 0 0 0 0 0 0 0 0 0 0 0 0 0 0 0 0 0 0 0 0 0 0 0 0 0 0 0 0 0 0 0 0 0 0 0 0 0 1789 1706 1706 1706 1706 1706 1706 1706 1706 1706 1706 1793 0 0 0 0 0 0 1790 1795 1795 1787 1795 1795 1795 1787 1795 1795 1795 1787 1796 1795 1795 1787 1795 1795 1795 1787 1796 1795 1795 1787 1795 1795 1795 1787 1795 1795 1795 1787 1795 1795 1795 1787 1795 1795 1795 1787 1795 1795 1795 1787
      0 0 0 0 0 0 0 0 0 0 0 0 0 0 0 0 0 0 0 0 0 0 0 0 0 0 0 0 0 0 0 0 0 0 0 0 0 0 0 0 0 0 0 0 0 0 0 0 0 0 0 0 0 0 0 0 0 0 1790 1795 1795 1787 1795 1795 1795 1785 1795 1795 1791 1805 1782 1782 1782 1781 1782 1782 1804 1787 1791 1795 1795 1787 1795 1795 1795 1787 1795 1795 1795 1785 1795 1795 1795 1787 1795 1795 1795 1785 1795 1795 1795 1787 1795 1795 1795 1785 1795 1795 1795 1787 1795 1795 1795 1785 1795 1795 1795 1787 1795 1795
      0 0 0 0 0 0 0 0 0 0 0 0 0 0 0 0 0 0 0 0 0 0 0 0 0 0 0 0 0 0 0 0 0 0 0 0 0 0 0 0 0 0 0 0 0 0 0 0 0 0 0 0 0 0 0 0 0 0 1790 1785 1795 1795 1795 1785 1795 1795 1795 1785 1795 1795 1795 1785 1795 1795 1795 1785 1795 1795 1795 1785 1795 1795 1795 1785 1795 1795 1795 1785 1795 1795 1795 1785 1795 1795 1795 1785 1795 1795 1795 1785 1795 1795 1795 1785 1795 1795 1795 1785 1795 1795 1795 1785 1795 1795 1795 1785 1795 1795 1795 1787
      0 0 0 0 0 0 0 0 0 0 0 0 0 0 0 0 0 0 0 0 0 0 0 0 0 0 0 0 0 0 0 0 0 0 0 0 0 0 0 0 0 0 0 0 0 0 0 0 0 0 0 0 0 0 0 0 0 0 1790 1795 1795 1785 1795 1795 1795 1785 1795 1795 1795 1787 1795 1795 1795 1785 1795 1795 1795 1785 1795 1795 1795 1785 1795 1795 1795 1785 1795 1795 1795 1785 1795 1795 1795 1785 1795 1795 1795 1785 1795 1795 1795 1785 1795 1795 1795 1785 1795 1795 1795 1785 1795 1795 1795 1785 1795 1795 1795 1785 1795 1795
      0 0 0 0 0 0 0 0 0 0 0 0 0 0 0 0 0 0 0 0 0 0 0 0 0 0 0 0 0 0 0 0 0 0 0 0 0 0 0 0 0 0 0 0 0 0 0 0 0 0 0 0 0 0 0 0 0 0 1790 1785 1795 1795 1795 1785 1795 1795 1795 1785 1795 1795 1795 1785 1795 1795 1795 1787 1795 1795 1795 1785 1795 1796 1795 1785 1795 1795 1795 1785 1795 1795 1795 1785 1795 1795 1795 1785 1795 1795 1795 1785 1795 1795 1795 1785 1795 1795 1795 1785 1795 1795 1795 1785 1795 1795 1795 1785 1795 1795 1795 1787
      0 0 0 0 0 0 0 0 0 0 0 0 0 0 0 0 0 0 0 0 0 0 0 0 0 0 0 0 0 0 0 0 0 0 0 0 0 0 0 0 0 0 0 0 0 0 0 0 0 0 0 0 0 0 0 0 0 0 1790 1795 1795 1787 1795 1795 1795 1785 1795 1795 1795 1785 1795 1791 1795 1785 1795 1795 1795 1785 1795 1795 1795 1785 1795 1795 1795 1785 1795 1795 1795 1785 1795 1795 1795 1785 1795 1795 1795 1785 1795 1795 1795 1785 1795 1795 1795 1785 1795 1795 1795 1785 1795 1795 1795 1785 1795 1795 1795 1785 1795 1795
      0 0 0 0 0 0 0 0 0 0 0 0 0 0 0 0 0 0 0 0 0 0 0 0 0 0 0 0 0 0 0 0 0 0 0 0 0 0 0 0 0 0 0 0 0 0 0 0 0 0 0 0 0 0 0 0 0 0 1790 1785 1795 1795 1795 1785 1795 1795 1795 1785 1795 1795 1795 1785 1795 1795 1795 1785 1795 1795 1795 1787 1795 1795 1795 1787 1795 1795 1795 1787 1795 1795 1795 1787 1795 1795 1795 1787 1795 1795 1795 1787 1795 1795 1795 1787 1795 1795 1795 1787 1795 1795 1795 1787 1795 1795 1795 1787 1795 1795 1795 1787
      )
    )
    (tilemap
      (solid #f)
      (z-pos 100)
      (name "Foreground")
      (width 120)
      (height 25)
      (tiles
      0 0 0 0 0 0 0 0 0 0 0 0 0 0 0 0 0 0 0 0 0 0 0 0 0 0 0 0 0 0 0 0 0 0 0 0 0 0 0 0 0 0 0 0 0 0 0 0 0 0 0 1361 1363 0 0 0 1361 1363 0 0 0 0 0 0 0 0 0 0 0 0 0 0 0 0 0 0 0 0 0 0 0 0 0 0 0 0 0 0 0 0 0 0 0 0 0 0 0 0 0 0 0 0 0 0 0 0 0 0 0 0 1361 458 459 1362 1362 1362 1363 0 0 0
      0 0 0 0 0 0 0 0 0 0 0 0 0 0 0 0 0 0 0 0 0 0 0 0 0 0 0 0 0 0 0 0 0 0 0 0 0 0 0 0 0 0 0 0 0 0 0 0 0 0 0 1361 461 1359 1359 1359 462 1363 0 0 0 0 0 0 0 0 0 0 0 0 0 0 0 0 0 0 0 0 0 0 0 0 0 0 1358 1359 1359 1359 1359 1359 1359 1359 1359 1359 1360 0 0 0 0 0 0 0 0 0 0 0 0 0 0 0 1361 1363 1364 459 1362 1362 1363 0 0 0
      0 0 0 0 0 0 0 0 0 0 0 0 0 0 0 0 0 0 0 0 0 0 0 0 0 0 0 0 0 0 0 0 0 0 0 0 0 0 0 0 0 0 0 0 0 0 0 0 0 0 0 1361 1362 1362 1362 1362 1362 1363 0 0 0 0 0 0 0 0 0 0 0 0 0 0 0 0 0 0 0 0 0 0 0 0 1358 1359 462 1362 1362 1362 1362 1362 1362 1362 1362 1362 461 1360 0 0 0 0 0 0 0 0 0 469 0 0 0 0 1361 461 1359 462 1362 1362 1363 0 0 0
      0 0 0 0 0 0 0 0 0 0 0 0 0 0 0 0 0 0 0 0 0 0 0 0 0 0 0 0 0 0 0 0 0 0 0 0 0 0 0 0 0 0 0 0 0 0 0 0 0 0 0 1361 1362 1362 458 1365 459 1363 0 0 0 0 0 0 0 0 0 0 0 0 0 0 0 0 0 0 0 0 0 0 1358 1359 462 1362 1362 1362 1362 1362 1362 1362 1362 1362 1362 1362 1362 1363 0 0 0 0 0 0 0 0 0 0 0 0 0 0 1364 1365 459 1362 1362 1362 1363 0 0 0
      0 0 0 0 0 0 0 0 0 0 0 0 0 0 0 0 0 0 0 0 0 0 0 0 0 0 0 0 0 0 0 0 0 0 0 0 0 0 0 0 0 0 0 0 0 0 0 0 0 0 0 1361 1365 1365 1366 0 1364 1366 0 0 0 0 0 0 0 0 0 0 0 0 0 0 0 0 469 0 0 0 0 0 1364 1365 1365 1365 459 1362 1362 1362 1362 1362 1362 1362 1362 1362 1362 461 1359 1360 0 0 0 0 0 0 0 0 0 0 0 0 0 0 1364 1365 459 1362 1363 0 0 0
      0 0 0 0 0 0 0 0 0 0 0 0 0 0 0 0 0 0 0 0 0 0 0 0 0 0 0 0 0 0 0 0 0 0 0 0 0 0 0 0 0 0 0 0 0 0 0 0 0 0 0 466 0 0 0 0 0 0 0 0 0 0 0 0 0 0 0 0 0 0 0 0 0 0 0 0 0 0 0 0 0 0 0 0 1364 1365 1365 1365 1365 1365 1365 1365 468 1365 1365 1365 1365 1366 0 0 0 0 0 0 0 0 0 0 0 0 0 0 0 0 1361 1362 461 1360 0 0
      0 0 0 0 0 0 0 0 0 0 0 0 0 0 0 0 0 0 0 0 0 0 0 0 0 0 0 0 0 0 0 0 0 0 0 0 0 0 0 0 0 0 0 0 0 0 0 0 0 0 0 0 0 0 0 0 0 0 0 0 0 0 0 0 0 0 0 0 0 0 0 0 0 0 0 0 0 0 0 0 0 0 0 0 0 0 0 0 0 0 0 0 466 0 0 0 0 0 0 0 0 0 0 0 0 0 0 0 0 0 0 0 0 0 1361 1362 1362 1363 0 0
      0 0 0 0 0 0 0 0 0 0 0 0 0 0 0 0 0 0 0 0 0 0 0 0 0 0 0 0 0 0 0 0 0 0 0 0 0 0 0 0 0 0 0 0 0 0 0 0 0 0 0 0 0 0 0 0 0 0 0 0 0 0 0 0 0 0 0 0 0 0 0 0 0 0 0 0 0 0 0 0 0 0 0 0 0 0 0 0 0 0 0 0 0 0 0 0 0 0 0 0 0 0 1358 1360 0 0 0 0 0 0 0 0 0 0 1361 1362 1362 1363 0 0
      0 0 0 0 0 0 0 0 0 0 0 0 0 0 0 0 0 0 0 0 0 0 0 0 0 0 0 0 0 0 0 0 0 0 0 0 0 0 0 0 0 0 0 0 0 0 0 0 0 0 0 0 0 0 0 0 0 0 0 0 0 0 0 0 0 0 0 0 0 0 0 0 0 0 0 0 0 0 0 0 0 0 0 0 0 0 0 0 0 0 0 0 0 0 0 0 0 0 0 0 1358 1359 462 467 472 0 0 0 0 0 0 0 0 0 1364 1365 1365 1366 0 0
      0 0 0 0 0 0 0 0 0 0 0 0 0 0 0 0 0 0 0 0 0 0 0 0 0 0 0 0 0 0 0 0 0 0 0 0 0 0 0 0 0 0 0 0 0 0 0 0 0 0 0 0 0 0 0 0 0 0 0 0 0 0 0 0 0 0 0 0 0 0 0 0 0 0 0 0 0 0 0 0 0 0 0 0 0 0 0 0 0 0 0 0 0 0 0 0 0 0 1358 1359 462 1362 458 1366 0 0 0 0 0 0 0 0 0 0 0 0 0 0 0 0
      0 0 0 0 0 0 0 0 0 0 0 0 0 0 0 0 0 0 0 0 0 0 0 0 0 0 0 0 0 0 0 0 0 0 0 0 0 0 0 0 0 0 0 0 0 0 0 0 0 0 0 0 0 0 0 0 0 0 0 0 0 0 0 0 0 0 0 0 0 0 0 0 0 0 0 0 0 0 0 0 0 0 0 0 0 0 0 0 0 0 0 0 0 0 0 0 1358 1359 462 458 1365 1365 1366 0 0 0 0 0 0 0 0 0 0 0 0 0 0 0 0 0
      0 0 0 0 0 0 0 0 0 0 0 0 0 0 0 0 0 0 0 0 0 0 0 0 0 0 0 0 0 0 0 0 0 0 0 0 0 0 0 0 0 0 0 0 0 0 0 0 0 0 0 0 0 0 0 0 0 0 0 0 0 0 0 0 0 0 0 0 0 0 0 0 0 0 0 0 0 0 0 0 0 0 0 0 0 0 0 0 0 0 0 0 0 0 1358 1359 462 1362 458 1366 0 0 0 0 1795 1785 1795 1795 1795 0 0 0 0 0 0 0 0 0 0 0
      0 0 0 0 0 0 0 0 0 0 0 0 0 0 0 0 0 0 0 0 0 0 0 0 0 0 0 0 0 0 0 0 0 0 0 0 0 0 0 0 0 0 0 0 0 0 0 0 0 0 0 0 0 0 0 0 0 0 0 0 0 0 0 0 0 0 0 0 0 0 0 0 0 0 0 0 0 0 0 0 0 0 0 0 0 0 0 0 0 0 0 0 0 1358 462 458 1365 1365 1366 0 0 0 0 0 1790 1795 1795 1787 1795 0 0 0 0 0 0 0 0 0 0 0
      0 0 0 0 0 0 0 0 0 0 0 0 0 0 0 0 0 0 0 0 0 0 0 0 0 0 0 0 0 0 0 0 0 0 0 0 0 0 0 0 0 0 0 0 0 0 0 0 0 0 0 0 0 0 0 0 0 0 0 0 0 0 0 0 0 0 0 0 0 0 0 0 0 0 0 0 0 0 0 0 0 0 0 0 0 0 0 0 0 0 0 0 1358 462 1362 1363 0 0 0 0 0 0 0 0 1790 1792 1790 1795 1795 0 0 0 0 0 0 0 0 0 0 0
      0 0 0 0 0 0 0 0 0 0 0 0 0 0 0 0 0 0 0 0 0 0 0 0 0 0 0 0 0 0 0 0 0 0 0 0 0 0 0 0 0 0 0 0 0 0 0 0 0 0 0 0 0 0 0 0 0 0 0 0 0 0 0 0 0 0 0 0 0 0 0 0 0 0 0 0 0 0 0 0 0 0 0 0 0 0 0 0 0 0 0 0 1364 1365 459 1363 0 0 0 0 0 0 0 0 1790 1795 1795 1787 1795 1358 1359 1360 0 0 0 0 0 0 0 0
      0 0 0 0 0 0 0 0 0 0 0 0 0 0 0 0 0 0 0 0 0 0 0 0 0 0 0 0 0 0 0 0 0 0 0 0 0 0 0 0 0 0 0 0 0 0 0 0 0 0 0 0 0 0 0 0 0 0 0 0 0 0 0 0 0 0 0 0 0 0 0 0 0 0 0 0 0 0 0 0 0 0 0 0 0 0 0 0 0 0 0 0 0 0 1364 1366 0 0 0 0 0 0 0 0 1790 1787 1795 1795 1795 1361 1362 461 1360 0 0 0 0 0 469 0
      0 0 0 0 0 0 0 0 0 0 0 0 0 0 0 0 0 0 0 0 0 0 0 0 0 0 0 0 0 0 0 0 0 0 0 0 0 0 0 0 0 0 0 0 0 0 0 0 0 0 0 0 0 0 0 0 0 0 0 0 0 0 0 0 0 0 0 0 0 0 0 0 0 0 0 0 0 0 0 0 0 0 0 0 460 0 0 0 469 0 0 0 0 0 0 0 0 0 0 0 0 0 0 0 1804 1795 1795 1785 1795 1364 459 1362 461 1360 0 0 0 0 0 0
      0 0 0 0 0 0 0 0 0 0 0 0 0 0 0 0 0 0 0 0 0 0 0 0 0 0 0 0 0 0 0 0 0 0 0 0 0 0 0 0 0 0 0 0 0 0 0 0 0 0 0 0 0 0 0 0 0 0 0 1711 0 0 0 0 0 0 0 0 1707 0 0 0 0 0 0 0 0 0 0 0 0 0 0 0 463 0 0 0 0 0 0 0 0 0 0 0 0 0 0 0 0 0 0 0 0 0 0 0 0 0 1361 1362 1362 461 1360 0 0 0 0 0
      0 0 0 0 0 0 0 0 0 0 0 0 0 0 0 0 0 0 0 0 0 0 0 0 0 0 0 0 0 0 0 0 0 0 0 0 0 0 0 0 0 0 0 0 0 0 0 0 0 0 0 0 0 0 0 0 0 0 0 1709 0 0 0 0 0 0 0 0 1707 0 0 0 0 0 0 0 0 0 0 0 0 0 0 1358 464 1360 0 0 0 0 0 0 0 0 0 0 0 0 0 0 0 0 0 0 0 0 0 0 0 0 1364 459 1362 1362 1363 0 0 0 0 0
      0 0 0 0 0 0 0 0 0 0 0 0 0 0 0 0 0 0 0 0 0 0 0 0 0 0 0 0 0 0 0 0 0 0 0 0 0 0 0 0 0 0 0 0 0 0 0 0 0 0 0 0 0 0 0 0 0 0 0 0 0 0 0 0 0 0 0 0 0 0 0 0 0 0 0 0 0 0 0 0 0 0 0 1361 1362 1363 0 0 0 0 0 0 0 0 0 0 0 0 0 0 0 0 1358 1359 1359 1360 0 0 0 0 0 1361 1362 1362 461 1359 1360 0 0 0
      0 0 0 0 0 0 0 0 0 0 0 0 0 0 0 0 0 0 0 0 0 0 0 0 0 0 0 0 0 0 0 0 0 0 0 0 0 0 0 0 0 0 0 0 0 0 0 0 0 0 0 0 0 0 0 0 0 0 0 0 0 0 0 0 0 0 0 0 0 0 0 0 0 0 0 0 0 0 0 0 0 0 1358 462 1362 1363 0 0 0 0 0 0 0 0 0 0 0 0 0 0 0 470 468 459 1362 467 471 471 471 471 471 465 1362 1362 1362 1362 1363 0 0 0
      0 0 0 0 0 0 0 0 0 0 0 0 0 0 0 0 0 0 0 0 0 0 0 0 0 0 0 0 0 0 0 0 0 0 0 0 0 0 0 0 0 0 0 0 0 0 0 0 0 0 0 0 0 0 0 0 0 0 0 0 0 0 0 0 0 0 0 1358 1359 1359 1359 1360 0 0 0 0 0 0 0 0 1358 1359 462 1362 1362 1363 0 0 0 0 0 0 0 0 0 0 0 0 0 0 0 0 466 1364 1365 1366 0 0 0 0 0 1364 1365 1365 1365 459 1363 0 0 0
      0 0 0 0 0 0 0 0 0 0 0 0 0 0 0 0 0 0 0 0 0 0 0 0 0 0 0 0 0 0 0 0 0 0 0 0 0 0 0 0 0 0 0 0 0 0 0 0 0 0 0 0 0 0 0 0 0 0 0 0 0 0 0 0 0 0 0 1361 1362 1362 1362 461 1359 1359 472 0 0 0 1358 1359 462 1362 1362 1362 458 1366 0 0 0 0 0 0 0 0 0 0 0 0 0 0 0 0 0 0 0 0 0 0 0 0 0 0 0 0 0 1364 1366 0 0 0
      0 0 0 0 0 0 0 0 0 0 0 0 0 0 0 0 0 0 0 0 0 0 0 0 0 0 0 0 0 0 0 0 0 0 0 0 0 0 0 0 0 0 0 0 0 0 0 0 0 0 0 0 0 0 0 0 0 0 0 0 0 0 0 0 470 471 471 1365 1365 1365 1365 1365 1365 1366 0 0 0 0 1364 1365 1365 1365 1365 1365 1366 0 0 0 0 0 0 0 0 0 0 0 0 0 0 0 0 0 0 0 0 0 0 0 0 0 0 0 0 0 0 0 0 0 0 0
      0 0 0 0 0 0 0 0 0 0 0 0 0 0 0 0 0 0 0 0 0 0 0 0 0 0 0 0 0 0 0 0 0 0 0 0 0 0 0 0 0 0 0 0 0 0 0 0 0 0 0 0 0 0 0 0 0 0 0 0 0 0 0 0 0 0 0 0 0 0 0 0 0 0 0 0 0 0 0 0 0 0 0 0 0 0 0 0 0 0 0 0 0 0 0 0 0 0 0 0 0 0 0 0 0 0 0 0 0 0 0 0 0 0 0 0 0 0 0 0
      )
    )
    (tilemap
      (solid #f)
      (speed-x 1.4)
      (speed-y 0)
      (z-pos 150)
      (name "leaves")
      (width 160)
      (height 25)
      (tiles
      1362 1362 1362 1363 0 0 0 1361 1362 1362 1362 1362 1362 1362 1362 458 1365 1365 1365 1365 459 1362 1362 1362 1362 1362 1362 1362 1362 1362 1362 1362 1362 1362 1362 1362 1362 1362 1362 1362 458 1365 459 1362 1362 1362 1362 1362 1362 1362 1362 1362 458 468 459 1362 1362 1362 1362 1362 1362 1362 1362 1362 1362 1362 1362 1362 1362 1362 1362 1362 1362 1362 1362 1362 1362 1362 458 1365 459 1362 1362 1362 1362 1362 1362 1362 1362 1362 1362 1362 1362 1362 1362 1362 1362 1362 1362 1362 1362 1362 1362 1362 458 1365 459 1362 1362 1362 1362 1362 1362 1362 1362 1362 1362 1362 1362 1362 461 1359 1359 1359 1359 462 1362 1362 1362 1362 1362 1362 1362 1362 1362 1362 1362 1362 1362 1362 1362 1362 1362 1362 1362 1362 1362 1362 1362 1362 1362 1362 1362 1362 1362 0 0 0 0 0
      1362 1362 1362 461 1359 1359 1359 462 1362 1362 1362 1362 1362 1362 458 1366 0 0 0 0 1364 1365 1365 1365 459 1362 1362 1362 1362 1362 1362 1362 1362 1362 1362 1362 1362 1362 458 1365 1366 0 1364 1365 459 1362 1362 1362 1362 1362 1362 1362 1363 463 1361 1362 458 1365 1365 1365 1365 468 459 1362 1362 1362 1362 458 1365 1365 459 1362 1362 1362 1362 1362 458 1365 1366 0 1364 459 1362 1362 1362 1362 458 1362 459 1362 458 1365 1365 1365 1365 1365 1365 1365 1365 1365 1365 459 1362 1362 1363 0 1364 459 1362 1362 1362 1362 1362 1362 1362 1362 1362 1362 1362 1362 1362 1362 1362 1362 1362 1362 1362 1362 1362 1362 1362 1362 1362 1362 1362 1362 1362 1362 1362 1362 1362 1362 1362 1362 1362 1362 1362 1362 1362 458 1365 459 1362 458 459 0 0 0 0 0
      1362 458 1365 1365 1365 1365 1365 1365 459 1362 1362 1362 458 1365 1366 0 0 0 0 0 0 0 0 0 1364 1365 1365 459 1362 1362 1362 1362 1362 1362 1362 1362 1362 458 1366 0 0 0 0 0 1364 459 1362 1362 1362 458 1365 1365 1366 466 1364 1365 1366 0 0 0 0 463 1364 459 1362 1362 1362 461 1359 1359 462 1362 1362 1362 458 1365 1366 0 0 0 0 1364 1365 1365 1365 1365 1366 0 1364 1365 1366 0 0 0 0 0 0 0 0 0 0 1364 459 1362 1363 0 0 1361 1362 1362 1362 1362 458 1365 1365 1365 1365 459 1362 1362 1362 1362 1362 1362 1362 458 1365 1365 1365 1365 1365 1365 459 1362 1362 1362 1362 1362 458 1365 468 459 1362 1362 1362 1362 1362 1362 458 1366 0 1364 459 461 462 0 0 0 0 0
      1365 1366 0 0 0 0 0 0 1364 1365 1365 1365 1366 0 0 0 0 0 0 0 0 0 0 0 0 0 0 1364 1365 1365 1365 1365 468 1365 1365 1365 1365 1366 0 0 0 0 0 0 0 1364 1365 1365 1365 1366 0 0 0 0 0 0 0 0 0 0 0 466 0 1364 1365 1365 459 1362 1362 1362 458 1365 1365 1365 1366 0 0 0 0 0 0 0 0 0 0 0 0 0 0 0 0 0 0 0 0 0 0 0 0 0 0 0 1364 459 461 1359 1359 462 458 1365 1365 1365 1366 0 0 0 0 1364 459 1362 458 1365 1365 1365 1365 1366 0 0 0 0 0 0 1364 1365 1365 1365 1365 1365 1366 0 463 1364 459 1362 1362 1362 1362 458 1366 0 0 0 1361 1362 1362 0 0 0 0 0
      0 0 0 0 0 0 0 0 0 0 0 0 0 0 0 0 0 0 0 0 0 0 0 0 0 0 0 0 0 0 0 0 466 0 0 0 0 0 0 0 0 0 0 0 0 0 0 0 0 0 0 0 0 0 0 0 0 0 0 0 0 0 0 0 0 0 1364 1365 1365 1365 1366 0 0 0 0 0 0 0 0 0 0 0 0 0 0 0 0 0 0 0 0 0 0 0 0 0 0 0 0 0 0 0 0 1361 1362 1362 1362 1362 1363 0 0 0 0 0 0 0 0 0 1364 1365 1366 0 0 0 0 0 0 0 0 0 0 0 0 0 0 0 0 0 0 0 466 0 1361 1362 1362 458 1365 1366 0 0 0 0 1364 1365 1365 0 0 0 0 0
      0 0 0 0 0 0 0 0 0 0 0 0 0 0 0 0 0 0 0 0 0 0 0 0 0 0 0 0 0 0 0 0 0 0 0 0 0 0 0 0 0 0 0 0 0 0 0 0 0 0 0 0 0 0 0 0 0 0 0 0 0 0 0 0 0 0 0 0 0 0 0 0 0 0 0 0 0 0 0 0 0 0 0 0 0 0 0 0 0 0 0 0 0 0 0 0 0 0 0 0 0 0 0 1364 1365 1365 1365 1365 1365 472 0 0 0 0 0 0 0 0 0 0 0 0 0 0 0 0 0 0 0 0 0 0 0 0 0 0 0 0 0 0 0 0 1364 1365 1365 1366 0 0 0 0 0 0 0 0 0 0 0 0 0 0
      0 0 0 0 0 0 0 0 0 0 0 0 0 0 0 0 0 0 0 0 0 0 0 0 0 0 0 0 0 0 0 0 0 0 0 0 0 0 0 0 0 0 0 0 0 0 0 0 0 0 0 0 0 0 0 0 0 0 0 0 0 0 0 0 0 0 0 0 0 0 0 0 0 0 0 0 0 0 0 0 0 0 0 0 0 0 0 0 0 0 0 0 0 0 0 0 0 0 0 0 0 0 0 0 0 0 0 0 0 0 0 0 0 0 0 0 0 0 0 0 0 0 0 0 0 0 0 0 0 0 0 0 0 0 0 0 0 0 0 0 0 0 0 0 0 0 0 0 0 0 0 0 0 0 0 0 0 0 0 0
      0 0 0 0 0 0 0 0 0 0 0 0 0 0 0 0 0 0 0 0 0 0 0 0 0 0 0 0 0 0 0 0 0 0 0 0 0 0 0 0 0 0 0 0 0 0 0 0 0 0 0 0 0 0 0 0 0 0 0 0 0 0 0 0 0 0 0 0 0 0 0 0 0 0 0 0 0 0 0 0 0 0 0 0 0 0 0 0 0 0 0 0 0 0 0 0 0 0 0 0 0 0 0 0 0 0 0 0 0 0 0 0 0 0 0 0 0 0 0 0 0 0 0 0 0 0 0 0 0 0 0 0 0 0 0 0 0 0 0 0 0 0 0 0 0 0 0 0 0 0 0 0 0 0 0 0 0 0 0 0
      0 0 0 0 0 0 0 0 0 0 0 0 0 0 0 0 0 0 0 0 0 0 0 0 0 0 0 0 0 0 0 0 0 0 0 0 0 0 0 0 0 0 0 0 0 0 0 0 0 0 0 0 0 0 0 0 0 0 0 0 0 0 0 0 0 0 0 0 0 0 0 0 0 0 0 0 0 0 0 0 0 0 0 0 0 0 0 0 0 0 0 0 0 0 0 0 0 0 0 0 0 0 0 0 0 0 0 0 0 0 0 0 0 0 0 0 0 0 0 0 0 0 0 0 0 0 0 0 0 0 0 0 0 0 0 0 0 0 0 0 0 0 0 0 0 0 0 0 0 0 0 0 0 0 0 0 0 0 0 0
      0 0 0 0 0 0 0 0 0 0 0 0 0 0 0 0 0 0 0 0 0 0 0 0 0 0 0 0 0 0 0 0 0 0 0 0 0 0 0 0 0 0 0 0 0 0 0 0 0 0 0 0 0 0 0 0 0 0 0 0 0 0 0 0 0 0 0 0 0 0 0 0 0 0 0 0 0 0 0 0 0 0 0 0 0 0 0 0 0 0 0 0 0 0 0 0 0 0 0 0 0 0 0 0 0 0 0 0 0 0 0 0 0 0 0 0 0 0 0 0 0 0 0 0 0 0 0 0 0 0 0 0 0 0 0 0 0 0 0 0 0 0 0 0 0 0 0 0 0 0 0 0 0 0 0 0 0 0 0 0
      0 0 0 0 0 0 0 0 0 0 0 0 0 0 0 0 0 0 0 0 0 0 0 0 0 0 0 0 0 0 0 0 0 0 0 0 0 0 0 0 0 0 0 0 0 0 0 0 0 0 0 0 0 0 0 0 0 0 0 0 0 0 0 0 0 0 0 0 0 0 0 0 0 0 0 0 0 0 0 0 0 0 0 0 0 0 0 0 0 0 0 0 0 0 0 0 0 0 0 0 0 0 0 0 0 0 0 0 0 0 0 0 0 0 0 0 0 0 0 0 0 0 0 0 0 0 0 0 0 0 0 0 0 0 0 0 0 0 0 0 0 0 0 0 0 0 0 0 0 0 0 0 0 0 0 0 0 0 0 0
      0 0 0 0 0 0 0 0 0 0 0 0 0 0 0 0 0 0 0 0 0 0 0 0 0 0 0 0 0 0 0 0 0 0 0 0 0 0 0 0 0 0 0 0 0 0 0 0 0 0 0 0 0 0 0 0 0 0 0 0 0 0 0 0 0 0 0 0 0 0 0 0 0 0 0 0 0 0 0 0 0 0 0 0 0 0 0 0 0 0 0 0 0 0 0 0 0 0 0 0 0 0 0 0 0 0 0 0 0 0 0 0 0 0 0 0 0 0 0 0 0 0 0 0 0 0 0 0 0 0 0 0 0 0 0 0 0 0 0 0 0 0 0 0 0 0 0 0 0 0 0 0 0 0 0 0 0 0 0 0
      0 0 0 0 0 0 0 0 0 0 0 0 0 0 0 0 0 0 0 0 0 0 0 0 0 0 0 0 0 0 0 0 0 0 0 0 0 0 0 0 0 0 0 0 0 0 0 0 0 0 0 0 0 0 0 0 0 0 0 0 0 0 0 0 0 0 0 0 0 0 0 0 0 0 0 0 0 0 0 0 0 0 0 0 0 0 0 0 0 0 0 0 0 0 0 0 0 0 0 0 0 0 0 0 0 0 0 0 0 0 0 0 0 0 0 0 0 0 0 0 0 0 0 0 0 0 0 0 0 0 0 0 0 0 0 0 0 0 0 0 0 0 0 0 0 0 0 0 0 0 0 0 0 0 0 0 0 0 0 0
      0 0 0 0 0 0 0 0 0 0 0 0 0 0 0 0 0 0 0 0 0 0 0 0 0 0 0 0 0 0 0 0 0 0 0 0 0 0 0 0 0 0 0 0 0 0 0 0 0 0 0 0 0 0 0 0 0 0 0 0 0 0 0 0 0 0 0 0 0 0 0 0 0 0 0 0 0 0 0 0 0 0 0 0 0 0 0 0 0 0 0 0 0 0 0 0 0 0 0 0 0 0 0 0 0 0 0 0 0 0 0 0 0 0 0 0 0 0 0 0 0 0 0 0 0 0 0 0 0 0 0 0 0 0 0 0 0 0 0 0 0 0 0 0 0 0 0 0 0 0 0 0 0 0 0 0 0 0 0 0
      0 0 0 0 0 0 0 0 0 0 0 0 0 0 0 0 0 0 0 0 0 0 0 0 0 0 0 0 0 0 0 0 0 0 0 0 0 0 0 0 0 0 0 0 0 0 0 0 0 0 0 0 0 0 0 0 0 0 0 0 0 0 0 0 0 0 0 0 0 0 0 0 0 0 0 0 0 0 0 0 0 0 0 0 0 0 0 0 0 0 0 0 0 0 0 0 0 0 0 0 0 0 0 0 0 0 0 0 0 0 0 0 0 0 0 0 0 0 0 0 0 0 0 0 0 0 0 0 0 0 0 0 0 0 0 0 0 0 0 0 0 0 0 0 0 0 0 0 0 0 0 0 0 0 0 0 0 0 0 0
      0 0 0 0 0 0 0 0 0 0 0 0 0 0 0 0 0 0 0 0 0 0 0 0 0 0 0 0 0 0 0 0 0 0 0 0 0 0 0 0 0 0 0 0 0 0 0 0 0 0 0 0 0 0 0 0 0 0 0 0 0 0 0 0 0 0 0 0 0 0 0 0 0 0 0 0 0 0 0 0 0 0 0 0 0 0 0 0 0 0 0 0 0 0 0 0 0 0 0 0 0 0 0 0 0 0 0 0 0 0 0 0 0 0 0 0 0 0 0 0 0 0 0 0 0 0 0 0 0 0 0 0 0 0 0 0 0 0 0 0 0 0 0 0 0 0 0 0 0 0 0 0 0 0 0 0 0 0 0 0
      0 0 0 0 0 0 0 0 0 0 0 0 0 0 0 0 0 0 0 0 0 0 0 0 0 0 0 0 0 0 0 0 0 0 0 0 0 0 0 0 0 0 0 0 0 0 0 0 0 0 0 0 0 0 0 0 0 0 0 0 0 0 0 0 0 0 0 0 0 0 0 0 0 0 0 0 0 0 0 0 0 0 0 0 0 0 0 0 0 0 0 0 0 0 0 0 0 0 0 0 0 0 0 0 0 0 0 0 0 0 0 0 0 0 0 0 0 0 0 0 0 0 0 0 0 0 0 0 0 0 0 0 0 0 0 0 0 0 0 0 0 0 0 0 0 0 0 0 0 0 0 0 0 0 0 0 0 0 0 0
      0 0 0 0 0 0 0 0 0 0 0 0 0 0 0 0 0 0 0 0 0 0 0 0 0 0 0 0 0 0 0 0 0 0 0 0 0 0 0 0 0 0 0 0 0 0 0 0 0 0 0 0 0 0 0 0 0 0 0 0 0 0 0 0 0 0 0 0 0 0 0 0 0 0 0 0 0 0 0 0 0 0 0 0 0 0 0 0 0 0 0 0 0 0 0 0 0 0 0 0 0 0 0 0 0 0 0 0 0 0 0 0 0 0 0 0 0 0 0 0 0 0 0 0 0 0 0 0 0 0 0 0 0 0 0 0 0 0 0 0 0 0 0 0 0 0 0 0 0 0 0 0 0 0 0 0 0 0 0 0
      0 0 0 0 0 0 0 0 0 0 0 0 0 0 0 0 0 0 0 0 0 0 0 0 0 0 0 0 0 0 0 0 0 0 0 0 0 0 0 0 0 0 0 0 0 0 0 0 0 0 0 0 0 0 0 0 0 0 0 0 0 0 0 0 0 0 0 0 0 0 0 0 0 0 0 0 0 0 0 0 0 0 0 0 0 0 0 0 0 0 0 0 0 0 0 0 0 0 0 0 0 0 0 0 0 0 0 0 0 0 0 0 0 0 0 0 0 0 0 0 0 0 0 0 0 0 0 0 0 0 0 0 0 0 0 0 0 0 0 0 0 0 0 0 0 0 0 0 0 0 0 0 0 0 0 0 0 0 0 0
      0 0 0 0 0 0 0 0 0 0 0 0 0 0 0 0 0 0 0 0 0 0 0 0 0 0 0 0 0 0 0 0 0 0 0 0 0 0 0 0 0 0 0 0 0 0 0 0 0 0 0 0 0 0 0 0 0 0 0 0 0 0 0 0 0 0 0 0 0 0 0 0 0 0 0 0 0 0 0 0 0 0 0 0 0 0 0 0 0 0 0 0 0 0 0 0 0 0 0 0 0 0 0 0 0 0 0 0 0 0 0 0 0 0 0 0 0 0 0 0 0 0 0 0 0 0 0 0 0 0 0 0 0 0 0 0 0 0 0 0 0 0 0 0 0 0 0 0 0 0 0 0 0 0 0 0 0 0 0 0
      0 0 0 0 0 0 0 0 0 0 0 0 0 0 0 0 0 0 0 0 0 0 0 0 0 0 0 0 0 0 0 0 0 0 0 0 0 0 0 0 0 0 0 0 0 0 0 0 0 0 0 0 0 0 0 0 0 0 0 0 0 0 0 0 0 0 0 0 0 0 0 0 0 0 0 0 0 0 0 0 0 0 0 0 0 0 0 0 0 0 0 0 0 0 0 0 0 0 0 0 0 0 0 0 0 0 0 0 0 0 0 0 0 0 0 0 0 0 0 0 0 0 0 0 0 0 0 0 0 0 0 0 0 0 0 0 0 0 0 0 0 0 0 0 0 0 0 0 0 0 0 0 0 0 0 0 0 0 0 0
      0 0 0 0 0 0 0 0 0 0 0 0 0 0 0 0 0 0 0 0 0 0 0 0 0 0 0 0 0 0 0 0 0 0 0 0 0 0 0 0 0 0 0 0 0 0 0 0 0 0 0 0 0 0 0 0 0 0 0 0 0 0 0 0 0 0 0 0 0 0 0 0 0 0 0 0 0 0 0 0 0 0 0 0 0 0 0 0 0 0 0 0 0 0 0 0 0 0 0 0 0 0 0 0 0 0 0 0 0 0 0 0 0 0 0 0 0 0 0 0 0 0 0 0 0 0 0 0 0 0 0 0 0 0 0 0 0 0 0 0 0 0 0 0 0 0 0 0 0 0 0 0 0 0 0 0 0 0 0 0
      0 0 0 0 0 0 0 0 0 0 0 0 0 0 0 0 0 0 0 0 0 0 0 0 0 0 0 0 0 0 0 0 0 0 0 0 0 0 0 0 0 0 0 0 0 0 0 0 0 0 0 0 0 0 0 0 0 0 0 0 0 0 0 0 0 0 0 0 0 0 0 0 0 0 0 0 0 0 0 0 0 0 0 0 0 0 0 0 0 0 0 0 0 0 0 0 0 0 0 0 0 0 0 0 0 0 0 0 0 0 0 0 0 0 0 0 0 0 0 0 0 0 0 0 0 0 0 0 0 0 0 0 0 0 0 0 0 0 0 0 0 0 0 0 0 0 0 0 0 0 0 0 0 0 0 0 0 0 0 0
      0 0 0 0 0 0 0 0 0 0 0 0 0 0 0 0 0 0 0 0 0 0 0 0 0 0 0 0 0 0 0 0 0 0 0 0 0 0 0 0 0 0 0 0 0 0 0 0 0 0 0 0 0 0 0 0 0 0 0 0 0 0 0 0 0 0 0 0 0 0 0 0 0 0 0 0 0 0 0 0 0 0 0 0 0 0 0 0 0 0 0 0 0 0 0 0 0 0 0 0 0 0 0 0 0 0 0 0 0 0 0 0 0 0 0 0 0 0 0 0 0 0 0 0 0 0 0 0 0 0 0 0 0 0 0 0 0 0 0 0 0 0 0 0 0 0 0 0 0 0 0 0 0 0 0 0 0 0 0 0
      0 0 0 0 0 0 0 0 0 0 0 0 0 0 0 0 0 0 0 0 0 0 0 0 0 0 0 0 0 0 0 0 0 0 0 0 0 0 0 0 0 0 0 0 0 0 0 0 0 0 0 0 0 0 0 0 0 0 0 0 0 0 0 0 0 0 0 0 0 0 0 0 0 0 0 0 0 0 0 0 0 0 0 0 0 0 0 0 0 0 0 0 0 0 0 0 0 0 0 0 0 0 0 0 0 0 0 0 0 0 0 0 0 0 0 0 0 0 0 0 0 0 0 0 0 0 0 0 0 0 0 0 0 0 0 0 0 0 0 0 0 0 0 0 0 0 0 0 0 0 0 0 0 0 0 0 0 0 0 0
      )
    )
    (walkingleaf
      (direction "left")
      (x 1983.781)
      (y 246.8939)
    )
    (walkingleaf
      (direction "left")
      (x 2034.781)
      (y 246.8939)
    )
  )
  (tileset "/images/tiles.strf")
)
