(supertux-level
  (version 2)
  (name (_ "Sewer Tunnel into Spacestation"))
  (author "Miksy91")
  (license "CC-BY-SA 4.0 International")
  (sector
    (name "main")
    (ambient-light
      (color 1 1 1)
    )
    (bonusblock
      (count 10)
      (sprite "/images/objects/bonus_block/purpleblock.sprite")
      (x 2688)
      (y 288)
    )
    (bonusblock
      (contents "1up")
      (sprite "/images/objects/bonus_block/hiddenbonus.sprite")
      (x 32)
      (y 192)
    )
    (bouncingsnowball
      (direction "left")
      (x 306)
      (y 115)
    )
    (bouncingsnowball
      (direction "left")
      (x 432)
      (y 166)
    )
    (camera
      (name "Camera")
      (mode "normal")
    )
    (fish
      (direction "left")
      (x 3246)
      (y 183)
    )
    (fish
      (direction "left")
      (x 3247)
      (y 213)
    )
    (fish
      (direction "left")
      (x 1122)
      (y 259)
    )
    (fish
      (direction "left")
      (x 1199)
      (y 261)
    )
    (fish
      (direction "left")
      (x 2569.383)
      (y 388.3205)
    )
    (fish
      (direction "left")
      (x 2571.383)
      (y 320.3205)
    )
    (flyingsnowball
      (direction "left")
      (x 800)
      (y 416)
    )
    (flyingsnowball
      (direction "left")
      (x 861)
      (y 321)
    )
    (flyingsnowball
      (direction "left")
      (x 955)
      (y 318)
    )
    (flyingsnowball
      (direction "left")
      (x 1044)
      (y 317)
    )
    (flyingsnowball
      (direction "left")
      (x 1125)
      (y 321)
    )
    (flyingsnowball
      (direction "left")
      (x 1203)
      (y 320)
    )
    (flyingsnowball
      (direction "left")
      (x 1301)
      (y 318)
    )
    (flyingsnowball
      (direction "left")
      (x 3744)
      (y 384)
    )
    (flyingsnowball
      (direction "left")
      (x 3843)
      (y 383)
    )
    (flyingsnowball
      (direction "left")
      (x 3936)
      (y 385)
    )
    (flyingsnowball
      (direction "left")
      (x 4129)
      (y 384)
    )
    (flyingsnowball
      (direction "left")
      (x 4032)
      (y 384)
    )
    (flyingsnowball
      (direction "left")
      (x 4223)
      (y 383)
    )
    (gradient
      (top_color 0.3 0.4 0.75)
      (bottom_color 1 1 1)
    )
    (iceflame
      (direction "left")
      (x 2884)
      (y 288)
    )
    (iceflame
      (direction "left")
      (x 2910)
      (y 256)
    )
    (iceflame
      (direction "left")
      (x 2932)
      (y 226)
    )
    (iceflame
      (direction "left")
      (x 356.6)
      (y 415.3499)
    )
    (jumpy
      (direction "left")
      (x 1533)
      (y 343)
    )
    (jumpy
      (direction "left")
      (x 2319)
      (y 173)
    )
    (jumpy
      (direction "left")
      (x 3797)
      (y 252)
    )
    (mrbomb
      (direction "left")
      (x 1869)
      (y 460)
    )
    (music
      (file "music/antarctic/cave.ogg")
    )
    (sequencetrigger
      (sequence "stoptux")
      (width 32)
      (height 162.1077)
      (x 4317.876)
      (y 339.1057)
    )
    (spawnpoint
      (name "main")
      (x 105.5391)
      (y 338.5786)
    )
    (stalactite
      (direction "left")
      (x 3680)
      (y 196)
    )
    (stalactite
      (direction "left")
      (x 3744)
      (y 196)
    )
    (stalactite
      (direction "left")
      (x 3872)
      (y 196)
    )
    (stalactite
      (direction "left")
      (x 3936)
      (y 196)
    )
    (stalactite
      (direction "left")
      (x 4064)
      (y 196)
    )
    (stalactite
      (direction "left")
      (x 4128)
      (y 196)
    )
    (stalactite
      (direction "left")
      (x 4192)
      (y 196)
    )
    (stalactite
      (direction "left")
      (x 4000)
      (y 196)
    )
    (tilemap
      (solid #f)
      (z-pos -100)
      (name "Background")
      (width 135)
      (height 25)
      (tiles
      0 0 3170 3170 3170 3170 0 0 0 0 0 0 0 0 0 0 0 0 0 0 0 0 0 0 0 0 0 0 0 0 0 0 3170 3170 0 0 0 0 0 0 0 0 0 0 0 0 0 0 0 0 0 3170 3170 3170 0 0 0 0 0 0 0 0 0 0 0 0 0 0 0 0 0 0 0 0 0 0 0 0 0 0 0 0 0 0 0 0 0 0 0 0 0 0 0 0 0 0 3170 0 0 0 0 0 0 0 0 0 0 0 0 0 0 0 0 0 0 0 0 0 0 0 0 0 0 0 0 0 0 0 0 0 0 0 0 0 0
      0 3170 0 0 0 0 3170 0 0 0 0 0 0 0 0 0 0 3170 3170 0 0 0 0 0 0 0 0 0 0 0 0 3170 0 0 3170 0 0 0 0 0 0 0 0 0 0 0 0 0 0 0 3170 0 0 0 3170 0 0 0 0 0 0 0 0 0 0 0 0 0 0 0 0 3170 3170 3170 3170 0 0 0 0 0 0 0 0 0 0 0 0 0 0 0 0 0 0 0 0 3170 0 3170 0 0 0 0 0 0 0 0 0 0 0 0 0 0 0 0 0 0 0 0 0 0 0 0 0 0 0 0 0 0 0 0 0 0 0 0 0
      3170 3170 0 0 0 0 3170 3170 3170 3170 3170 3170 3170 3170 3170 3170 3170 3170 3170 3170 3170 3170 3170 3170 3170 3170 3170 3170 3170 3170 3170 3170 3170 3170 3170 3170 3170 3170 3170 3170 3170 3170 3170 3170 3170 3170 3170 3170 3170 3170 3170 3170 3170 3170 3170 3170 3170 3170 3170 3170 3170 3170 3170 3170 3170 3170 3170 3170 3170 3170 3170 3170 0 0 3170 3170 3170 3170 3170 3170 3170 3170 3170 3170 3170 3170 3170 3170 3170 3170 3170 3170 3170 3170 3170 3170 3170 3170 3170 3170 3170 3170 3170 3170 3170 3170 3170 3170 3170 3170 3170 3170 0 0 0 0 0 0 0 0 3170 3170 3170 3170 3170 3170 3170 0 0 0 0 0 0 0 0
      0 0 0 0 0 0 0 0 0 0 0 0 0 0 0 0 0 0 0 0 0 0 0 0 0 0 0 0 0 0 0 0 0 0 0 0 0 0 0 0 0 0 0 0 0 0 0 0 0 0 0 0 0 0 0 0 0 0 0 0 0 0 0 0 0 0 0 0 0 0 0 0 0 0 0 0 0 0 0 0 0 0 0 0 0 0 0 0 0 0 0 0 0 0 0 0 0 0 0 0 0 0 0 0 0 0 0 0 0 0 0 0 0 0 0 0 0 3170 3170 3170 0 0 0 0 0 0 0 3170 0 0 0 0 0 0 0
      0 0 0 0 0 0 0 0 0 0 0 0 0 0 0 0 0 0 0 0 0 0 0 0 0 0 0 0 0 0 0 0 0 0 0 0 0 0 0 0 0 0 0 0 0 0 0 0 0 0 0 0 0 0 0 0 0 0 0 0 0 0 0 0 0 0 0 0 0 0 0 0 0 0 0 0 0 0 0 0 0 0 0 0 0 0 0 0 0 0 0 0 0 0 0 0 0 0 0 0 0 0 0 0 0 0 0 0 0 0 0 0 3170 3170 3170 3170 3170 0 0 0 0 0 0 0 0 0 0 0 3170 3170 3170 3170 3170 3170 0
      0 0 0 0 0 0 0 0 0 0 0 0 0 0 0 0 0 0 0 0 0 0 0 0 0 0 0 0 0 0 0 0 0 0 0 0 0 0 0 0 0 0 0 0 0 0 0 0 0 0 0 0 0 0 0 0 0 0 0 0 0 0 0 0 0 0 0 0 0 0 0 0 0 0 0 0 0 0 0 0 0 0 0 0 0 0 0 0 0 0 0 0 0 0 0 0 0 0 0 0 0 0 0 0 0 0 0 0 0 0 0 0 0 0 0 0 0 0 0 0 0 0 0 0 0 0 0 0 0 0 0 0 0 0 3170
      0 0 0 0 0 0 0 0 0 0 0 0 0 0 0 0 0 0 0 0 0 0 0 0 0 0 0 0 0 0 0 0 0 0 0 0 0 0 0 0 0 0 0 0 0 0 0 0 0 0 0 0 0 0 0 0 0 0 0 0 0 0 0 0 0 0 0 0 0 0 0 0 0 0 0 0 0 0 0 0 0 0 0 0 0 0 0 0 0 0 0 0 0 0 0 0 0 0 0 0 0 0 0 0 0 0 0 0 0 0 0 0 0 0 0 0 0 0 0 0 0 0 0 0 0 0 0 0 0 0 0 0 0 0 3170
      0 0 0 0 0 0 0 0 0 0 0 0 0 0 0 0 0 0 0 0 0 0 0 0 0 0 0 0 0 0 0 0 0 0 0 0 0 0 0 0 0 0 0 0 0 0 0 0 0 0 0 0 0 0 0 0 0 0 0 0 0 0 0 0 0 0 0 0 0 0 0 0 0 0 0 0 0 0 0 0 0 0 0 0 0 0 0 0 0 0 0 0 0 0 0 0 0 0 0 0 0 0 0 0 0 0 0 0 0 0 0 0 0 0 0 0 0 0 0 0 0 0 0 0 0 0 0 0 0 0 0 0 0 0 3170
      0 0 0 0 0 0 0 0 0 0 0 0 0 0 0 0 0 0 0 0 0 0 0 0 0 0 0 0 0 0 0 0 0 0 0 0 0 0 0 0 0 0 0 0 0 0 0 0 0 0 0 0 0 0 0 0 0 0 0 0 0 0 0 0 0 0 0 0 0 0 0 0 0 0 0 0 0 0 0 0 0 0 0 0 0 0 0 0 0 0 0 0 0 0 0 0 0 0 0 0 0 0 0 0 0 0 0 0 0 0 0 0 0 0 0 0 0 0 0 0 0 0 0 0 0 0 0 0 0 0 0 0 0 0 3170
      0 0 0 0 0 0 0 0 0 0 0 0 0 0 0 0 0 0 0 0 0 0 0 0 0 0 0 0 0 0 0 0 0 0 0 0 0 0 0 0 0 0 0 0 0 0 0 0 0 0 0 0 0 0 0 0 0 0 0 0 0 0 0 0 0 0 0 0 0 0 0 0 0 0 0 0 0 0 0 0 0 0 0 0 0 0 0 0 0 0 0 0 0 0 0 0 0 0 0 0 0 0 0 0 0 0 0 0 0 0 0 0 0 0 0 0 0 0 0 0 0 0 0 0 0 130 0 0 0 0 0 0 0 0 3170
      0 0 0 0 0 0 0 0 0 0 0 0 0 0 0 0 0 0 0 0 0 0 0 0 0 0 0 0 0 0 0 0 0 0 0 0 0 0 0 0 0 0 0 0 0 0 0 0 0 0 0 0 0 0 0 0 0 0 0 0 0 0 0 0 0 0 0 0 0 0 0 0 0 0 0 0 0 0 0 0 0 0 0 0 0 0 0 0 0 0 0 0 0 0 0 0 0 0 0 0 0 0 0 0 0 0 0 0 0 0 0 0 0 0 0 0 0 0 0 0 0 0 0 0 0 129 0 0 0 0 0 0 0 0 0
      3170 0 0 0 0 0 0 0 0 0 0 0 0 0 0 0 0 0 0 0 0 0 0 0 0 0 0 0 0 0 0 0 0 0 0 0 0 0 0 0 0 0 0 0 0 0 0 0 0 0 0 0 0 0 0 0 0 0 0 0 0 0 0 0 0 0 0 0 0 0 0 0 0 0 0 0 0 0 0 0 0 0 0 0 0 0 0 0 0 0 0 0 0 0 0 0 0 0 0 0 0 0 0 0 0 0 0 0 0 0 0 0 0 0 0 0 0 0 0 0 0 0 0 0 0 129 0 0 0 0 0 0 0 0 0
      3170 0 0 0 0 0 0 0 0 0 0 0 0 0 0 0 0 0 0 0 0 0 0 0 0 0 0 0 0 0 0 0 0 0 0 0 0 0 0 0 0 0 0 0 0 0 0 0 0 0 0 0 0 0 0 0 0 0 0 0 0 0 0 0 0 0 0 0 0 0 0 0 0 0 0 0 0 0 0 0 0 0 0 0 0 0 0 0 0 0 0 0 0 0 0 0 0 0 0 0 0 0 0 0 0 0 0 0 0 0 0 0 0 0 0 0 0 0 0 0 0 0 0 0 0 129 0 0 0 0 0 0 0 0 0
      3170 0 0 0 0 0 0 0 0 0 0 0 0 0 0 0 0 0 0 0 0 0 0 0 0 0 0 0 0 0 0 0 0 0 0 0 0 0 0 0 0 0 0 0 0 0 0 0 0 0 0 0 0 0 0 0 0 0 0 0 0 0 1348 0 0 0 0 0 0 0 0 0 0 0 0 0 0 0 0 0 0 0 0 0 0 0 0 0 0 0 0 0 0 0 0 0 0 0 0 0 0 0 0 0 0 0 0 0 0 0 0 0 0 0 0 0 0 0 0 0 0 0 0 0 0 129 0 0 0 0 0 0 0 0 0
      0 0 0 0 0 0 0 0 0 0 0 0 3170 0 0 0 0 0 0 0 0 0 0 0 0 0 0 0 0 0 0 0 0 0 0 0 0 0 0 0 0 0 0 0 0 0 0 0 0 0 0 0 0 0 0 0 0 0 0 0 0 0 79 0 0 0 0 0 0 0 0 0 0 0 0 0 3170 2142 0 0 0 0 2019 0 0 0 2019 0 0 0 0 0 0 2142 0 0 0 0 0 0 0 0 0 0 0 0 0 0 0 0 0 0 0 0 0 0 0 0 0 0 0 0 0 0 0 129 0 0 0 0 0 0 0 0 0
      0 0 0 0 0 0 0 0 0 0 0 3192 0 0 0 0 0 0 0 0 0 0 0 0 0 0 0 0 0 0 0 0 0 0 0 0 0 0 0 0 0 0 0 0 0 0 0 0 0 0 0 0 0 0 0 0 0 0 0 0 0 0 79 0 0 0 0 0 0 0 0 0 0 3170 3170 3170 3170 2020 0 0 0 0 2020 0 0 0 2020 0 0 0 0 0 0 2020 0 0 0 0 0 0 0 0 0 0 0 0 0 0 0 0 0 0 0 0 0 0 0 0 0 0 0 0 0 0 0 0 0 0 0 0 0 0 0 0 0
      0 0 0 0 0 0 0 0 0 0 3170 0 0 0 0 0 0 0 0 0 0 0 0 0 0 0 0 0 0 0 0 0 0 0 0 0 0 0 0 0 0 0 0 0 0 0 0 0 0 0 0 0 0 0 0 0 0 0 0 0 0 0 0 0 0 0 0 0 0 0 0 3170 3170 3170 3170 3170 3170 2020 0 0 0 0 2020 0 0 0 2020 0 0 0 0 0 0 2020 0 0 0 0 0 0 0 0 0 0 0 0 0 0 0 0 0 0 0 0 0 0 3170 0 0 0 0 0 3170 0 0 0 3170 0 0 3170 0 0 0 0 0
      0 0 0 0 0 0 0 0 0 3170 0 0 0 0 0 0 0 0 0 0 0 0 0 0 0 0 0 0 0 0 0 0 0 0 0 0 0 0 0 0 0 0 0 0 0 0 0 0 0 0 0 0 0 0 0 0 0 0 0 0 0 0 0 2020 0 0 0 0 2140 3170 3170 3170 3170 3170 3170 3170 3170 2020 2020 2020 0 0 2020 0 0 0 2020 0 0 0 0 0 0 2020 0 0 0 0 0 0 0 0 0 0 0 0 0 0 0 0 0 0 0 0 0 0 3170 0 0 0 0 0 3170 0 0 0 3170 0 3170 0 0 0 0 0 0
      0 0 0 0 0 0 3170 0 0 0 0 0 0 0 0 0 0 0 0 0 0 0 0 0 0 0 0 0 0 0 0 0 0 0 0 0 0 0 0 0 0 0 0 0 0 0 0 0 0 0 0 0 0 0 0 0 0 0 0 0 0 0 0 2020 0 0 2020 2020 2020 3170 3170 3170 3170 3170 3170 3170 3170 2020 2020 2020 0 0 2020 0 0 0 2020 0 0 0 0 0 0 2020 0 0 0 0 0 0 0 0 0 0 0 0 0 0 0 0 0 0 0 0 0 0 0 0 0 0 0 0 0 0 0 0 0 0 0 0 0 0 0 0 0
      0 0 3170 0 0 3170 0 0 0 0 0 0 0 0 0 0 0 0 0 0 0 0 0 0 0 0 0 0 0 0 0 0 0 0 0 0 0 0 0 0 0 0 0 0 0 0 0 0 0 0 0 0 0 0 0 0 0 0 0 0 0 0 0 2020 0 0 2020 2020 2020 3170 3170 3170 3170 3170 3170 3170 3170 2020 2020 2020 0 0 2020 0 0 0 2020 0 0 0 0 0 0 2020 0 0 0 0 0 0 0 0 0 0 0 0 0 0 0 0 0 0 0 0 0 0 0 0 0 0 0 0 0 0 0 0 0 0 0 0 0 0 0 0 0
      0 0 3170 0 0 3170 0 0 0 0 0 0 0 0 0 0 0 0 0 0 0 0 0 0 0 0 0 0 3170 0 0 0 3170 0 0 0 0 0 0 0 0 0 0 0 0 0 0 0 0 0 0 0 0 0 0 0 0 0 0 0 0 0 0 2020 0 0 2020 2020 2020 3170 3170 3170 3170 3170 3170 3170 3170 2020 2020 2020 0 0 2020 0 0 0 2020 0 0 0 0 0 0 2020 0 0 0 0 0 0 0 0 0 0 0 0 0 0 0 0 0 0 0 0 0 0 0 0 0 0 0 0 0 0 0 0 0 0 0 0 0 0 0 0 0
      0 0 3170 0 3170 0 0 0 0 0 0 0 0 0 0 0 0 0 0 0 0 0 0 0 0 0 0 0 0 3170 0 3170 0 0 0 0 0 0 0 0 0 0 0 0 0 0 0 0 0 0 0 0 0 0 0 0 0 0 0 0 0 0 0 2020 0 0 2020 2020 2020 3170 3170 3170 3170 3170 3170 3170 3170 2020 2020 2020 0 0 2020 0 0 0 2020 0 0 0 0 0 0 2020 0 0 0 0 0 0 0 0 0 0 0 0 0 0 0 0 0 0 0 0 0 0 0 0 0 0 0 0 0 0 0 0 0 0 0 0 0 0 0 0 0
      0 0 0 0 0 0 0 0 0 0 0 0 0 0 0 0 0 0 0 0 0 0 0 0 0 0 0 0 0 0 0 0 0 0 0 0 0 0 0 0 0 0 0 0 0 0 0 0 0 0 0 0 0 0 0 0 0 0 0 0 0 0 0 2020 0 0 2020 2020 2020 3170 3170 3170 3170 3170 3170 3170 3170 2020 2020 2020 0 0 2020 0 0 0 2020 0 0 0 0 0 0 2020 0 0 0 0 0 0 0 0 0 0 0 0 0 0 0 0 0 0 0 0 0 0 0 0 0 0 0 0 0 0 0 0 0 0 0 0 0 0 0 0 0
      0 0 0 0 0 0 0 0 0 0 0 0 0 0 0 0 0 0 0 0 0 0 0 0 0 0 0 0 0 0 0 0 0 0 0 0 0 0 0 0 0 0 0 0 0 0 0 0 0 0 0 0 0 0 0 0 0 0 0 0 0 0 0 2020 0 0 2020 2020 2020 3170 3170 3170 3170 3170 3170 3170 3170 2020 2020 2020 0 0 2020 0 0 0 2020 0 0 0 0 0 0 2020 0 0 0 0 0 0 0 0 0 0 0 0 0 0 0 0 0 0 0 0 0 0 0 0 0 0 0 0 0 0 0 0 0 0 0 0 0 0 0 0 0
      0 0 0 0 0 0 0 0 0 0 0 0 0 0 0 0 0 0 0 0 0 0 0 0 0 0 0 0 0 0 0 0 0 0 0 0 0 0 0 0 0 0 0 0 0 0 0 0 0 0 0 0 0 0 0 0 0 0 0 0 0 0 0 2020 0 0 2020 2020 2020 3170 3170 3170 3170 3170 3170 3170 3170 2020 2020 2020 0 0 2020 0 0 0 2020 0 0 0 0 0 0 2020 0 0 0 0 0 0 0 0 0 0 0 0 0 0 0 0 0 0 0 0 0 0 0 0 0 0 0 0 0 0 0 0 0 0 0 0 0 0 0 0 0
      )
    )
    (tilemap
      (solid #t)
      (z-pos 0)
      (name "Interactive")
      (width 135)
      (height 25)
      (tiles
      1009 1009 1017 1018 1017 1017 1009 1009 1009 1009 1009 1009 1009 1009 1009 1009 1009 1009 1009 1009 1009 1009 1009 1009 1009 1009 1009 1009 1009 1009 1009 1009 1017 1018 1009 1009 1009 1009 1009 1009 1009 1009 1009 1009 1009 1009 1009 1009 1009 1009 1009 1017 1017 1017 1009 1009 1009 1009 1009 1009 1009 1009 1009 1009 1009 1009 1009 1009 1009 1009 1009 1009 1009 1009 1009 1009 1009 1009 1009 1009 1009 1009 1009 1009 1009 1009 1009 1009 1009 1009 1009 1009 1009 1009 1009 1009 1017 1009 1009 1009 1009 1009 1009 1009 1009 1009 1009 1009 1009 1009 1009 1009 1009 1009 1009 1009 1009 1009 1009 1009 1009 1009 1009 1009 1009 1009 1009 1009 1009 1009 1009 1009 1009 1009 1009
      1009 1015 3170 3170 3170 3170 1012 1009 1009 1009 1009 1009 1009 1009 1009 1009 1009 1017 1017 1009 1009 1009 1009 1009 1009 1009 1009 1009 1009 1009 1009 1019 3170 3170 1012 1009 1009 1009 1009 1009 1009 1009 1009 1009 1009 1009 1009 1009 1009 1009 1019 3185 3186 3170 1012 1009 1009 1009 1009 1009 1009 1009 1009 1009 1009 1009 1009 1009 1009 1009 1009 1017 1018 1017 1018 1009 1009 1009 1009 1009 1009 1009 1009 1009 1009 1009 1009 1009 1009 1009 1009 1009 1009 1009 1009 1019 3170 1012 1009 1009 1009 1009 1009 1009 1009 1009 1009 1009 1009 1009 1009 1009 1009 1009 1009 1009 1009 1009 1009 1009 1009 1009 1009 1009 1009 1009 1009 1009 1009 1009 1009 1009 1009 1009 1009
      1017 1019 3170 0 0 3170 1016 1017 1017 1017 1017 1017 1017 1017 1017 1017 1019 3185 3186 1016 1017 1017 1017 1017 1017 1017 1017 1017 1017 1017 1019 3170 3170 3170 1016 1017 1017 1017 1017 1017 1017 1017 1017 1017 1017 1017 1017 1017 1017 1019 3170 3191 3192 3170 1016 1017 1017 1017 1017 1017 1017 1017 1017 1017 1017 1017 1017 1017 1017 1017 1019 3170 3170 3170 3170 1016 1017 1017 1017 1017 1017 1017 1017 1017 1017 1017 1017 1017 1017 1017 1017 1017 1017 1017 1019 3170 3170 1016 1017 1017 1017 1017 1017 1017 1017 1017 1017 1017 1017 1017 1017 1017 1009 1009 1009 1009 1009 1009 1009 1009 1017 1017 1017 1017 1017 1017 1017 1009 1009 1009 1009 1009 1009 1009 1009
      3170 3170 3170 0 0 3170 3170 3170 3170 3170 3170 3170 3170 3170 3170 3170 3170 3191 3192 3170 3170 3170 3170 3170 3170 3170 3170 3170 3170 3170 3170 3170 3170 3170 3170 3170 3170 3170 3170 3170 3170 3170 3170 3170 3170 3170 3170 3170 3170 3170 3170 3170 3170 3170 3170 3170 3170 3170 3170 3170 3170 3170 3170 3170 3170 3170 3170 3170 3170 3170 3170 3170 0 0 3170 3170 3170 3170 3170 3170 3170 3170 3170 3170 3170 3170 3170 3170 3170 3170 3170 3170 3170 3170 3170 3170 3170 3170 3170 3170 3170 3170 3170 3170 3170 3170 3170 3170 3170 3170 3170 3170 1008 1009 1009 1009 1009 1017 1018 1019 3170 3170 3170 3170 3170 3185 3186 1016 1009 1009 1009 1009 1009 1009 1009
      3170 0 2820 2819 2820 2819 0 0 0 0 0 0 0 0 0 0 0 0 0 0 0 0 0 0 0 0 0 0 0 0 0 0 0 0 0 0 0 0 0 0 0 0 0 0 0 0 0 0 0 0 0 0 0 0 0 0 0 0 0 0 0 0 0 0 0 0 0 0 0 0 0 0 0 0 0 0 0 0 0 0 0 0 0 0 0 0 0 0 0 0 0 0 0 0 0 0 0 0 0 0 0 0 0 0 0 0 0 0 0 0 0 3170 1016 1017 1017 1017 1019 3170 3170 3170 3170 3185 3186 3170 3170 3191 3192 3170 1016 1017 1018 1017 1017 1017 1009
      3170 0 2820 2819 2820 2819 0 0 0 0 0 0 0 0 0 0 0 0 0 0 0 0 0 0 0 0 0 0 0 0 0 0 0 0 0 0 0 0 0 0 0 0 0 0 0 0 0 0 0 0 0 0 0 0 0 0 0 0 0 0 0 0 0 0 0 0 0 0 0 0 0 0 0 0 0 0 0 0 0 0 0 0 0 0 0 0 0 0 0 0 0 0 0 0 0 0 0 0 0 0 0 0 0 0 0 0 0 0 0 0 0 3170 3170 3170 3170 3170 3170 3170 3170 3170 3170 3191 3192 3170 3170 3170 3170 3170 3170 3170 3170 3170 3170 3170 1012
      3170 0 2820 2819 2820 2819 0 0 0 0 0 0 0 0 0 0 0 0 0 0 0 0 0 0 0 0 0 0 0 0 0 0 0 0 0 0 0 0 0 0 0 0 0 0 0 0 0 0 0 0 0 0 0 0 0 0 0 0 0 0 0 0 0 0 0 0 0 0 0 0 0 0 0 0 0 0 0 0 0 0 0 0 0 0 0 0 0 0 0 0 0 0 0 0 0 0 0 0 0 0 0 0 0 0 0 0 0 0 0 0 0 0 0 0 0 0 0 0 0 0 0 0 0 0 0 0 133 0 0 0 0 0 0 3170 1012
      3170 0 2820 2819 2820 2819 0 0 0 0 0 0 0 0 0 0 0 0 0 0 0 0 0 0 0 0 0 0 0 0 0 0 0 0 0 0 0 0 0 0 0 0 0 0 0 0 0 0 0 0 0 0 0 0 0 0 0 0 0 0 0 0 0 0 0 0 0 0 0 0 0 0 0 0 0 0 0 0 0 0 0 0 0 0 0 0 0 0 0 0 0 0 0 0 0 0 0 0 0 0 0 0 0 0 0 0 0 0 0 0 0 0 0 0 0 0 0 0 0 0 0 0 0 0 0 0 133 0 0 0 0 0 0 3170 1012
      3170 0 2820 2819 2820 2819 0 0 0 0 0 0 0 0 0 0 0 0 0 0 0 0 0 0 0 0 0 0 0 0 0 0 0 0 0 0 0 0 0 0 0 0 0 0 0 0 0 0 0 0 0 0 0 0 0 0 0 0 0 0 0 0 102 0 0 0 0 0 0 0 0 0 0 0 0 0 0 0 0 0 0 0 0 0 0 0 0 0 0 0 0 0 0 0 0 0 0 0 0 0 0 0 0 0 0 0 0 0 0 0 0 0 0 0 0 0 0 0 0 0 0 0 0 0 0 0 133 0 0 0 0 0 0 3170 1012
      3170 0 2820 2819 2820 2819 0 0 0 0 0 0 0 0 0 0 0 0 0 0 0 0 0 0 0 0 0 0 0 0 0 0 0 0 0 0 0 0 0 0 0 0 0 0 0 0 0 0 0 0 0 0 0 0 0 0 0 0 0 0 0 0 0 0 0 0 0 0 0 0 0 0 0 0 0 0 0 0 0 0 0 0 0 0 0 0 0 0 0 0 0 0 0 0 0 0 0 0 0 0 0 0 0 0 0 0 0 0 0 0 0 0 0 0 0 0 0 0 0 0 0 0 0 0 0 0 133 0 0 0 0 0 0 3170 1016
      3170 3170 2820 2819 2820 2819 0 0 0 0 0 0 0 0 0 0 0 0 0 0 0 0 0 0 0 0 0 0 0 0 0 0 0 0 0 0 0 0 0 0 0 0 0 0 0 0 0 0 0 0 0 0 0 0 0 0 0 0 0 0 0 0 0 0 0 0 0 0 0 0 0 0 57 58 0 0 0 0 0 0 0 0 0 0 0 0 0 0 0 0 0 0 0 0 0 0 0 0 0 0 0 0 0 0 0 0 0 0 0 0 0 0 0 0 0 0 0 0 0 0 0 0 0 0 0 0 133 0 0 0 0 0 0 3170 3170
      1011 3170 0 0 0 0 0 0 0 0 0 0 0 0 0 0 0 0 0 0 0 0 0 0 0 0 0 0 0 0 0 0 0 0 0 0 0 0 0 0 0 0 0 0 0 0 0 0 0 0 0 0 0 0 0 0 0 0 0 0 0 0 0 0 0 0 0 0 0 0 0 0 59 60 0 0 0 0 0 0 0 0 0 0 0 0 0 0 0 0 0 0 0 0 0 0 0 0 0 0 0 0 0 0 0 0 0 0 0 0 0 0 0 0 0 0 0 0 0 0 0 0 0 0 0 0 133 0 0 0 0 0 0 0 0
      1015 3170 0 0 0 0 0 0 0 0 0 0 0 0 0 0 0 0 0 0 0 0 0 0 0 0 0 0 0 0 0 0 0 0 0 0 0 0 0 0 0 0 0 0 0 0 0 0 0 0 0 0 0 0 0 0 0 0 0 0 0 0 47 0 0 0 0 0 0 0 57 58 59 60 57 58 0 0 0 0 0 0 0 0 0 0 0 0 0 0 0 0 0 0 0 0 0 0 0 0 0 0 0 0 0 0 0 0 0 0 0 0 0 0 0 0 0 0 0 0 0 0 0 0 0 0 133 0 0 0 0 0 0 0 0
      1019 3170 0 0 0 0 0 0 3170 3170 3170 3170 3170 3170 3170 0 0 0 0 0 0 0 0 0 0 0 0 0 0 0 0 0 0 0 0 0 0 0 0 0 0 0 0 0 0 0 0 0 0 0 0 0 0 0 0 0 0 0 0 0 0 0 0 0 0 0 0 0 57 58 59 60 59 60 59 60 57 58 0 0 0 0 27 28 28 28 29 0 0 0 0 0 0 57 58 0 0 0 0 0 0 0 0 0 0 0 0 0 0 0 0 0 0 0 0 0 0 0 0 0 0 0 0 0 0 0 133 0 0 0 0 0 0 0 0
      3170 3170 0 0 0 0 0 0 3170 3170 3185 3186 1008 1011 3170 0 0 0 0 0 0 0 0 0 0 0 0 0 0 0 0 0 0 0 0 0 0 0 0 0 0 0 0 0 0 0 0 0 0 0 0 0 0 0 0 0 0 0 0 0 0 0 0 0 0 0 0 0 59 60 59 60 59 60 59 60 59 60 2019 2140 2141 2142 1348 2140 2141 2142 1348 2140 2141 2142 2019 2140 2141 59 60 0 0 3189 0 0 0 0 0 0 0 0 3189 0 0 0 0 0 0 0 0 0 0 0 0 0 0 0 0 0 0 0 133 0 0 0 0 0 0 0 0
      44 44 0 0 0 0 0 0 3170 3170 3191 1008 1009 1011 3170 0 0 0 0 0 0 0 0 0 0 0 0 0 0 0 0 0 0 0 0 0 0 0 0 0 0 0 0 0 0 0 0 0 0 0 0 0 0 0 0 0 0 0 0 0 0 0 0 0 0 0 0 0 59 60 59 60 59 60 59 60 59 60 2020 2020 2020 2020 79 2020 2020 2020 79 2020 2020 2020 2020 2020 2020 59 60 0 0 3190 2019 2140 2141 2142 2019 2140 2141 2142 3190 0 0 0 0 3170 3170 3170 3170 3170 3170 3170 0 0 3185 3186 3170 3170 3170 3170 3170 3170 3170 3170 3170 3170 3170 3170 3170
      44 44 0 0 0 0 0 0 3170 3170 1008 1009 1009 1011 3170 0 0 0 0 0 0 0 0 0 0 0 0 0 0 0 0 0 0 0 0 0 0 0 0 0 0 0 0 3170 3170 3185 3186 3170 3170 3170 0 0 0 0 0 0 0 0 3170 3170 3170 3170 3170 3170 0 0 0 0 59 60 59 60 59 60 59 60 59 60 2020 2020 2020 2020 79 2020 2020 2020 79 2020 2020 2020 2020 2020 2020 59 60 0 0 3170 2020 2020 2020 2020 2020 2020 2020 2020 3170 0 0 0 0 3170 1008 1009 1009 1009 1011 3170 0 0 3191 3192 1012 1009 1009 1009 1011 3170 3170 1012 1009 1009 1009 1011 3170
      3170 3170 3170 3170 3170 3170 3170 3170 3170 1008 1009 1009 1009 1011 3170 0 0 0 0 0 0 0 0 0 0 0 0 0 0 0 0 0 0 0 0 0 0 0 0 0 0 0 0 3170 1818 3191 3192 1009 1015 3170 0 0 0 0 0 0 0 0 3170 1012 1009 1009 1015 3170 2140 2141 2142 2019 59 60 59 60 59 60 59 60 59 60 44 44 2020 2020 79 2020 2020 2020 79 2020 2020 2020 2020 2020 2020 59 60 0 0 3189 2020 2020 2020 2020 2020 2020 2020 2020 3189 0 0 0 0 3170 1008 1009 1009 1009 1011 3170 3170 3170 3170 3170 1012 1009 1009 1009 1011 3170 1012 1009 1009 1009 1009 1011 3170
      3191 3192 3170 3170 3170 3170 1012 1009 1009 1009 1009 1009 1009 1011 3170 0 0 0 0 0 0 0 0 0 0 0 0 0 0 0 0 0 0 0 0 0 0 0 0 0 0 0 0 3170 1012 1009 1009 1009 1015 3170 0 0 0 0 0 0 0 0 3170 1008 1009 1009 1015 3170 2020 2020 57 58 59 60 59 60 59 60 59 60 59 60 57 58 2020 2020 79 2020 2020 2020 79 2020 2020 2020 2020 2020 2020 59 60 0 0 3190 2020 2020 2020 2020 2020 2020 2020 2020 3190 0 0 0 0 3170 1008 1009 1009 1009 1009 1009 1009 1009 1009 1009 1009 1009 1009 1009 1009 1009 1009 1009 1009 1009 1009 1011 3170
      1009 1009 1011 3170 3170 1012 1009 1009 1009 1009 1009 1009 1009 1011 3170 0 0 0 0 0 0 0 0 0 0 3170 3170 3170 3170 3170 3185 3186 3170 3170 3170 3170 0 0 0 0 0 0 0 3170 1012 1009 1009 1009 1011 3170 0 0 0 0 0 0 0 0 3170 1008 1009 1009 1015 3170 2020 2020 59 60 59 60 59 60 59 60 59 60 59 60 59 60 2020 2020 79 2020 2020 2020 79 2020 2020 2020 2020 2020 2020 59 60 0 0 3170 2020 2020 2020 2020 2020 2020 2020 2020 3170 0 0 0 0 3170 1008 1009 1009 1009 1009 1009 1009 1009 1009 1009 1009 1009 1009 1009 1009 1009 1009 1009 1009 1009 1009 1011 3170
      1009 1009 1011 3170 3170 1012 1009 1009 1009 1009 1009 1009 1009 1011 3170 0 0 0 0 0 0 0 0 0 0 3170 1008 1009 1011 3170 3191 3192 1008 1009 1015 3170 0 0 0 0 0 0 0 3170 1008 1009 1009 1009 1015 3170 0 0 0 0 0 0 0 0 3170 1012 1009 1009 1015 3170 2020 2020 59 60 59 60 59 60 59 60 59 60 59 60 59 60 2020 2020 79 2020 2020 2020 79 2020 2020 2020 2020 2020 2020 59 60 0 0 3189 2020 2020 2020 2020 2020 2020 2020 2020 3189 0 0 0 0 3170 1008 1009 1009 1009 1009 1009 1009 1009 1009 1009 1009 1009 1009 1009 1009 1009 1009 1009 1009 1009 1009 1011 3170
      1009 1009 1011 3170 1012 1009 1009 1009 1009 1009 1009 1009 1009 1011 3170 0 0 0 0 0 0 0 0 0 0 3170 1008 1009 1009 1011 3170 1008 1009 1009 1015 3170 0 0 0 0 0 0 0 3170 1008 1009 1009 1009 1015 3170 0 0 0 0 0 0 0 0 3170 1012 1009 1009 1015 3170 2020 2020 59 60 59 60 59 60 59 60 59 60 59 60 59 60 2020 2020 79 2020 2020 2020 79 2020 2020 2020 2020 2020 2020 59 60 0 0 3190 2020 2020 2020 2020 2020 2020 2020 2020 3190 0 0 0 0 3170 1008 1009 1009 1009 1009 1009 1009 1009 1009 1009 1009 1009 1009 1009 1009 1009 1009 1009 1009 1009 1009 1011 3170
      1009 1009 1009 1009 1009 1009 1009 1009 1009 1009 1009 1009 1009 1011 3170 0 0 0 0 0 0 0 0 0 0 3170 1008 1009 1009 1009 1009 1009 1009 1009 1015 3170 0 0 0 0 0 0 0 3170 1008 1009 1009 1009 1011 3170 0 0 0 0 0 0 0 0 3170 1008 1009 1009 1015 3170 2020 2020 59 60 59 60 59 60 59 60 59 60 59 60 59 60 2020 2020 79 2020 2020 2020 79 2020 2020 2020 2020 2020 2020 59 60 0 0 3170 2020 2020 2020 2020 2020 2020 2020 2020 3170 0 0 0 0 3170 1008 1009 1009 1009 1009 1009 1009 1009 1009 1009 1009 1009 1009 1009 1009 1009 1009 1009 1009 1009 1009 1011 3170
      1009 1009 1009 1009 1009 1009 1009 1009 1009 1009 1009 1009 1009 1011 3170 0 0 0 0 0 0 0 0 0 0 3170 1008 1009 1009 1009 1009 1009 1009 1009 1015 3170 0 0 0 0 0 0 0 3170 1012 1009 1009 1009 1015 3170 0 0 0 0 0 0 0 0 3170 1012 1009 1009 1015 3170 2020 2020 59 60 59 60 59 60 59 60 59 60 59 60 59 60 2020 2020 79 2020 2020 2020 79 2020 2020 2020 2020 2020 2020 59 60 0 0 3189 2020 2020 2020 2020 2020 2020 2020 2020 3189 0 0 0 0 3170 1008 1009 1009 1009 1009 1009 1009 1009 1009 1009 1009 1009 1009 1009 1009 1009 1009 1009 1009 1009 1009 1011 3170
      1009 1009 1009 1009 1009 1009 1009 1009 1009 1009 1009 1009 1009 1011 3170 0 0 0 0 0 0 0 0 0 0 3170 1008 1009 1009 1009 1009 1009 1009 1009 1015 3170 0 0 0 0 0 0 0 3170 1008 1009 1009 1009 1015 3170 0 0 0 0 0 0 0 0 3170 1012 1009 1009 1015 3170 2020 2020 59 60 59 60 59 60 59 60 59 60 59 60 59 60 2020 2020 79 2020 2020 2020 79 2020 2020 2020 2020 2020 2020 59 60 0 0 3190 2020 2020 2020 2020 2020 2020 2020 2020 3190 0 0 0 0 3170 1008 1009 1009 1009 1009 1009 1009 1009 1009 1009 1009 1009 1009 1009 1009 1009 1009 1009 1009 1009 1009 1011 3170
      )
    )
    (tilemap
      (solid #f)
      (z-pos 100)
      (name "Foreground")
      (width 135)
      (height 25)
      (tiles
      0 0 0 0 0 0 0 0 0 0 0 0 0 0 0 0 0 0 0 0 0 0 0 0 0 0 0 0 0 0 0 0 0 0 0 0 0 0 0 0 0 0 0 0 0 0 0 0 0 0 0 0 0 0 0 0 0 0 0 0 0 0 0 0 0 0 0 0 0 0 0 0 0 0 0 0 0 0 0 0 0 0 0 0 0 0 0 0 0 0 0 0 0 0 0 0 0 0 0 0 0 0 0 0 0 0 0 0 0 0 0 0 0 0 0 0 0 0 0 0 0 0 0 0 0 0 0 0 0 0 0 0 0 0 0
      0 0 0 0 0 0 0 0 0 0 0 0 0 0 0 0 0 0 0 0 0 0 0 0 0 0 0 0 0 0 0 0 0 0 0 0 0 0 0 0 0 0 0 0 0 0 0 0 0 0 0 0 0 0 0 0 0 0 0 0 0 0 0 0 0 0 0 0 0 0 0 0 0 0 0 0 0 0 0 0 0 0 0 0 0 0 0 0 0 0 0 0 0 0 0 0 0 0 0 0 0 0 0 0 0 0 0 0 0 0 0 0 0 0 0 0 0 0 0 0 0 0 0 0 0 0 0 0 0 0 0 0 0 0 0
      0 0 0 2841 2842 0 0 0 0 0 0 0 0 0 0 0 0 0 0 0 0 0 0 0 0 0 0 0 0 0 0 0 0 0 0 0 0 0 0 0 0 0 0 0 0 0 0 0 0 0 0 0 0 0 0 0 0 0 0 0 0 0 0 0 0 0 0 0 0 0 0 0 0 0 0 0 0 0 0 0 0 0 0 0 0 0 0 0 0 0 0 0 0 0 0 0 0 0 0 0 0 0 0 0 0 0 0 0 0 0 0 0 0 0 0 0 0 0 0 0 0 0 0 0 0 0 0 0 0 0 0 0 0 0 0
      0 0 0 2843 2844 0 0 0 0 0 0 0 0 0 0 0 0 0 0 0 0 0 0 0 0 0 0 0 0 0 0 0 0 0 0 0 0 0 0 0 0 0 0 0 0 0 0 0 0 0 0 0 0 0 0 0 0 0 0 0 0 0 0 0 0 0 0 0 0 0 0 0 0 0 0 0 0 0 0 0 0 0 0 0 0 0 0 0 0 0 0 0 0 0 0 0 0 0 0 0 0 0 0 0 0 0 0 0 0 0 0 0 0 0 0 0 0 0 0 0 0 0 0 0 0 0 0 0 0 0 0 0 0 0 0
      0 0 0 2843 2844 0 0 0 0 0 0 0 0 0 0 0 0 0 0 0 0 0 0 0 0 0 0 0 0 0 0 0 0 0 0 0 0 0 0 0 0 0 0 0 0 0 0 0 0 0 0 0 0 0 0 0 0 0 0 0 0 0 0 0 0 0 0 0 0 0 0 0 0 0 0 0 0 0 0 0 0 0 0 0 0 0 0 0 0 0 0 0 0 0 0 0 0 0 0 0 0 0 0 0 0 0 0 0 0 0 0 0 0 0 0 0 0 0 0 0 0 0 0 0 0 0 0 0 0 0 0 0 0 0 0
      0 0 0 2843 2844 0 0 0 0 0 0 0 0 0 0 0 0 0 0 0 0 0 0 0 0 0 0 0 0 0 0 0 0 0 0 0 0 0 0 0 0 0 0 0 0 0 0 0 0 0 0 0 0 0 0 0 0 0 0 0 0 0 0 0 0 0 0 0 0 0 0 0 0 0 0 0 0 0 0 0 0 0 0 0 0 0 0 0 0 0 0 0 0 0 0 0 0 0 0 0 0 0 0 0 0 0 0 0 0 0 0 0 0 0 0 0 0 0 0 0 0 0 0 0 0 0 0 0 0 0 0 0 0 0 0
      0 0 0 2843 2844 0 0 0 0 0 0 0 0 0 0 0 0 0 0 0 0 0 0 0 0 0 0 0 0 0 0 0 0 0 0 0 0 0 0 0 0 0 0 0 0 0 0 0 0 0 0 0 0 0 0 0 0 0 0 0 0 0 0 0 0 0 0 0 0 0 0 0 0 0 0 0 0 0 0 0 0 0 0 0 0 0 0 0 0 0 0 0 0 0 0 0 0 0 0 0 0 0 0 0 0 0 0 0 0 0 0 0 0 0 0 0 0 0 0 0 0 0 0 0 0 0 0 0 0 0 0 0 0 0 0
      0 0 0 2845 2846 0 0 0 0 0 0 0 0 0 0 0 0 0 0 0 0 0 0 0 0 0 0 0 0 0 0 0 0 0 0 0 0 0 0 0 0 0 0 0 0 0 0 0 0 0 0 0 0 0 0 0 0 0 0 0 0 0 0 0 0 0 0 0 0 0 0 0 0 0 0 0 0 0 0 0 0 0 0 0 0 0 0 0 0 0 0 0 0 0 0 0 0 0 0 0 0 0 0 0 0 0 0 0 0 0 0 0 0 0 0 0 0 0 0 0 0 0 0 0 0 0 0 0 0 0 0 0 0 0 0
      0 0 0 59 60 0 0 0 0 0 0 0 0 0 0 0 0 0 0 0 0 0 0 0 0 0 0 0 0 0 0 0 0 0 0 0 0 0 0 0 0 0 0 0 0 0 0 0 0 0 0 0 0 0 0 0 0 0 0 0 0 0 0 0 0 0 0 0 0 0 0 0 0 0 0 0 0 0 0 0 0 0 0 0 0 0 0 0 0 0 0 0 0 0 0 0 0 0 0 0 0 0 0 0 0 0 0 0 0 0 0 0 0 0 0 0 0 0 0 0 0 0 0 0 0 0 0 0 0 0 0 0 0 0 0
      0 0 0 59 60 0 0 0 0 0 0 0 0 0 0 0 0 0 0 0 0 0 0 0 0 0 0 0 0 0 0 0 0 0 0 0 0 0 0 0 0 0 0 0 0 0 0 0 0 0 0 0 0 0 0 0 0 0 0 0 0 0 0 0 0 0 0 0 0 0 0 0 0 0 0 0 0 0 0 0 0 0 0 0 0 0 0 0 0 0 0 0 0 0 0 0 0 0 0 0 0 0 0 0 0 0 0 0 0 0 0 0 0 0 0 0 0 0 0 0 0 0 0 0 0 0 0 130 0 0 0 0 0 0 0
      1726 0 0 1742 1743 0 0 0 0 0 0 0 0 0 0 0 0 0 0 0 0 0 0 0 0 0 0 0 0 0 0 0 0 0 0 0 0 0 0 0 0 0 0 0 0 0 0 0 0 0 0 0 0 0 0 0 0 0 0 0 0 0 0 0 0 0 0 0 0 0 0 0 0 0 0 0 0 0 0 0 0 0 0 0 0 0 0 0 0 0 0 0 0 0 0 0 0 0 0 0 0 0 0 0 0 0 0 0 0 0 0 0 0 0 0 0 0 0 0 0 0 0 0 0 0 0 0 129 0 0 0 0 0 0 0
      0 0 0 0 0 0 0 0 0 0 0 0 0 0 0 0 0 0 0 0 0 0 0 0 0 0 0 0 0 0 0 0 0 0 0 0 0 0 0 0 0 0 0 0 0 0 0 0 0 0 0 0 0 0 0 0 0 0 0 0 0 0 0 0 0 0 0 0 0 0 0 0 0 0 0 0 0 0 0 0 0 0 0 0 0 0 0 0 0 0 0 0 0 0 0 0 0 0 0 0 0 0 0 0 0 0 0 0 0 0 0 0 0 0 0 0 0 0 0 0 0 0 0 0 0 0 0 129 0 0 0 0 0 0 0
      1015 3170 0 0 0 0 0 0 0 0 0 0 0 0 0 0 0 0 0 0 0 0 0 0 0 0 0 0 0 0 0 0 0 0 0 0 0 0 0 0 0 0 0 0 0 0 0 0 0 0 0 0 0 0 0 0 0 0 0 0 0 0 0 0 0 0 0 0 0 0 0 0 0 0 0 0 0 0 0 0 0 0 0 0 0 0 0 0 0 0 0 0 0 0 0 0 0 0 0 0 0 0 0 0 0 0 0 0 0 0 0 0 0 0 0 0 0 0 0 0 0 0 0 0 0 0 0 129 0 0 0 0 0 0 0
      1019 3170 0 0 0 0 0 0 0 0 0 0 1723 1726 0 0 0 0 0 0 0 0 0 0 0 0 0 0 0 0 0 0 0 0 0 0 0 0 0 0 0 0 0 0 0 0 0 0 0 0 0 0 0 0 0 0 0 0 0 0 0 0 0 0 0 0 0 0 0 0 0 0 0 0 0 0 0 0 0 0 0 0 0 0 0 0 0 0 0 0 0 0 0 0 0 0 0 0 0 0 0 0 0 0 0 0 0 0 0 0 0 0 0 0 0 0 0 0 0 0 0 0 0 0 0 0 0 129 0 0 0 0 0 0 0
      3170 3170 0 0 0 0 0 0 0 0 0 1723 0 0 0 0 0 0 0 0 0 0 0 0 0 0 0 0 0 0 0 0 0 0 0 0 0 0 0 0 0 0 0 0 0 0 0 0 0 0 0 0 0 0 0 0 0 0 0 0 0 0 0 0 0 0 0 0 0 0 0 0 0 0 0 0 0 0 0 0 0 0 0 0 0 0 0 0 0 0 0 0 0 0 0 0 0 3189 3167 3168 3168 3168 3168 3168 3168 3169 3189 0 0 0 0 0 0 0 0 0 0 0 0 0 0 0 0 0 0 0 0 129 0 0 0 0 0 0 0
      3167 3169 0 0 0 0 0 0 0 0 1723 0 0 0 0 0 0 0 0 0 0 0 0 0 0 0 0 0 0 0 0 0 0 0 0 0 0 0 0 0 0 0 0 0 0 0 0 0 0 0 0 0 0 0 0 0 0 0 0 0 0 0 0 0 0 0 0 0 0 0 0 0 0 0 0 0 0 0 0 0 0 0 0 0 0 0 0 0 0 0 0 0 0 0 0 0 0 3190 3173 3174 3174 3174 3174 3174 3174 3175 3190 0 0 0 0 0 1723 1725 1724 1724 1726 3170 3167 3169 3185 0 1723 1724 1724 1725 1726 3170 0 1723 1724 1725 1725 1726 0
      3179 3181 0 0 0 0 0 0 0 1723 0 0 0 0 0 0 0 0 0 0 0 0 0 0 0 0 0 0 0 0 0 0 0 0 0 0 0 0 0 0 0 0 0 0 1819 0 1723 1725 1726 0 0 0 0 0 0 0 0 0 0 1723 1724 1724 1726 0 0 0 0 0 0 0 0 0 0 0 0 0 0 0 0 0 0 0 0 0 0 0 0 0 0 0 0 0 0 0 0 0 0 3170 3173 3174 3174 3174 3174 3174 3174 3175 3170 0 0 0 0 0 0 0 0 0 0 3170 3179 3181 3191 0 0 0 0 0 0 0 1723 0 0 0 0 0 0
      3185 3186 0 0 0 0 1723 1724 1724 0 0 0 0 0 0 0 0 0 0 0 0 0 0 0 0 0 0 0 0 0 0 0 0 0 0 0 0 0 0 0 0 0 0 0 0 1724 1817 0 0 0 0 0 0 0 0 0 0 0 0 0 0 0 0 0 0 0 0 0 0 0 0 0 0 0 0 0 0 0 0 0 0 0 0 0 0 0 0 0 0 0 0 0 0 0 0 0 0 3189 3173 3174 3174 3174 3174 3174 3174 3175 3189 0 0 0 0 0 0 0 0 0 0 1724 1725 1724 1725 1724 0 0 0 0 0 1725 0 0 0 0 0 0 0
      1725 1724 1726 0 0 1723 0 0 0 0 0 0 0 0 0 0 0 0 0 0 0 0 0 0 0 0 0 0 0 0 0 0 0 0 0 0 0 0 0 0 0 0 0 0 0 0 0 0 0 0 0 0 0 0 0 0 0 0 0 0 0 0 0 0 0 0 0 0 0 0 0 0 0 0 0 0 0 0 0 0 0 0 0 0 0 0 0 0 0 0 0 0 0 0 0 0 0 3190 3173 3174 3174 3174 3174 3174 3174 3175 3190 0 0 0 0 0 0 0 0 0 0 0 0 0 0 0 0 0 0 0 0 0 0 0 0 0 0 0 0
      0 0 0 0 0 0 0 0 0 0 0 0 0 0 0 0 0 0 0 0 0 0 0 0 0 0 1723 1725 1726 0 0 0 1723 1724 1726 0 0 0 0 0 0 0 0 0 0 0 0 0 0 0 0 0 0 0 0 0 0 0 0 0 0 0 0 0 0 0 0 0 0 0 0 0 0 0 0 0 0 0 0 0 0 0 0 0 0 0 0 0 0 0 0 0 0 0 0 0 0 3170 3173 3174 3174 3174 3174 3174 3174 3175 3170 0 0 0 0 0 0 0 0 0 0 0 0 0 0 0 0 0 0 0 0 0 0 0 0 0 0 0 0
      0 0 0 0 1723 0 0 0 0 0 0 0 0 0 0 0 0 0 0 0 0 0 0 0 0 0 0 0 0 1726 0 1723 0 0 0 0 0 0 0 0 0 0 0 0 0 0 0 0 0 0 0 0 0 0 0 0 0 0 0 0 0 0 0 0 0 0 0 0 0 0 0 0 0 0 0 0 0 0 0 0 0 0 0 0 0 0 0 0 0 0 0 0 0 0 0 0 0 3189 3173 3174 3174 3174 3174 3174 3174 3175 3189 0 0 0 0 0 0 0 0 0 0 0 0 0 0 0 0 0 0 0 0 0 0 0 0 0 0 0 0
      0 0 0 1725 0 0 0 0 0 0 0 0 0 0 0 0 0 0 0 0 0 0 0 0 0 0 0 0 0 0 1724 0 0 0 0 0 0 0 0 0 0 0 0 0 0 0 0 0 0 0 0 0 0 0 0 0 0 0 0 0 0 0 0 0 0 0 0 0 0 0 0 0 0 0 0 0 0 0 0 0 0 0 0 0 0 0 0 0 0 0 0 0 0 0 0 0 0 3190 3173 3174 3174 3174 3174 3174 3174 3175 3190 0 0 0 0 0 0 0 0 0 0 0 0 0 0 0 0 0 0 0 0 0 0 0 0 0 0 0 0
      0 0 0 0 0 0 0 0 0 0 0 0 0 0 0 0 0 0 0 0 0 0 0 0 0 0 0 0 0 0 0 0 0 0 0 0 0 0 0 0 0 0 0 0 0 0 0 0 0 0 0 0 0 0 0 0 0 0 0 0 0 0 0 0 0 0 0 0 0 0 0 0 0 0 0 0 0 0 0 0 0 0 0 0 0 0 0 0 0 0 0 0 0 0 0 0 0 3170 3173 3174 3174 3174 3174 3174 3174 3175 3170 0 0 0 0 0 0 0 0 0 0 0 0 0 0 0 0 0 0 0 0 0 0 0 0 0 0 0 0
      0 0 0 0 0 0 0 0 0 0 0 0 0 0 0 0 0 0 0 0 0 0 0 0 0 0 0 0 0 0 0 0 0 0 0 0 0 0 0 0 0 0 0 0 0 0 0 0 0 0 0 0 0 0 0 0 0 0 0 0 0 0 0 0 0 0 0 0 0 0 0 0 0 0 0 0 0 0 0 0 0 0 0 0 0 0 0 0 0 0 0 0 0 0 0 0 0 3189 3173 3174 3174 3174 3174 3174 3174 3175 3189 0 0 0 0 0 0 0 0 0 0 0 0 0 0 0 0 0 0 0 0 0 0 0 0 0 0 0 0
      0 0 0 0 0 0 0 0 0 0 0 0 0 0 0 0 0 0 0 0 0 0 0 0 0 0 0 0 0 0 0 0 0 0 0 0 0 0 0 0 0 0 0 0 0 0 0 0 0 0 0 0 0 0 0 0 0 0 0 0 0 0 0 0 0 0 0 0 0 0 0 0 0 0 0 0 0 0 0 0 0 0 0 0 0 0 0 0 0 0 0 0 0 0 0 0 0 3190 3179 3180 3180 3180 3180 3180 3180 3181 3190 0 0 0 0 0 0 0 0 0 0 0 0 0 0 0 0 0 0 0 0 0 0 0 0 0 0 0 0
      )
    )
    (tilemap
      (solid #f)
      (speed-x 0.5)
      (speed-y 0.5)
      (tint 0.5 0.5 0.5)
      (z-pos -150)
      (name "back-wall")
      (width 135)
      (height 25)
      (tiles
      61 61 61 61 61 61 61 61 61 61 61 61 61 61 61 61 61 61 61 61 61 61 61 61 61 61 61 61 61 61 61 61 61 61 61 61 61 61 61 61 61 61 61 61 61 61 61 61 61 61 61 61 61 61 61 61 61 61 61 61 61 61 61 61 61 61 61 61 61 61 61 61 61 61 61 61 61 61 61 61 61 61 61 61 61 61 61 61 61 61 61 61 61 61 61 61 61 61 61 61 61 61 61 61 61 61 61 61 61 61 61 61 61 61 61 61 61 61 61 61 61 61 61 61 61 61 61 61 61 61 61 61 61 61 61
      61 61 61 61 61 61 61 61 61 61 61 61 61 61 61 61 61 61 61 61 61 61 61 61 61 61 61 61 61 61 61 61 61 61 61 61 61 61 61 61 61 61 61 61 61 61 61 61 61 61 61 61 61 61 61 61 61 61 61 61 61 61 61 61 61 61 61 61 61 61 61 61 61 61 61 61 61 61 61 61 61 61 61 61 61 61 61 61 61 61 61 61 61 61 61 61 61 61 61 61 61 61 61 61 61 61 61 61 61 61 61 61 61 61 61 61 61 61 61 61 61 61 61 61 61 61 61 61 61 61 61 61 61 61 61
      61 61 61 61 61 61 61 61 61 61 61 61 61 61 61 61 61 61 61 61 61 61 61 61 61 61 61 61 61 61 61 61 61 61 61 61 61 61 61 61 61 61 61 61 61 61 61 61 61 61 61 61 61 61 61 61 61 61 61 61 61 61 61 61 61 61 61 61 61 61 61 61 61 61 61 61 61 61 61 61 61 61 61 61 61 61 61 61 61 61 61 61 61 61 61 61 61 61 61 61 61 61 61 61 61 61 61 61 61 61 61 61 61 61 61 61 61 61 61 61 61 61 61 61 61 61 61 61 61 61 61 61 61 61 61
      61 61 61 61 61 61 61 61 61 61 61 61 61 61 61 61 61 61 61 61 61 61 61 61 61 61 61 61 61 61 61 61 61 61 61 61 61 61 61 61 61 61 61 61 61 61 61 61 61 61 61 61 61 61 61 61 61 61 61 61 61 61 61 61 61 61 61 61 61 61 61 61 61 61 61 61 61 61 61 61 61 61 61 61 61 61 61 61 61 61 61 61 61 61 61 61 61 61 61 61 61 61 61 61 61 61 61 61 61 61 61 61 61 61 61 61 61 61 61 61 61 61 61 61 61 61 61 61 61 61 61 61 61 61 61
      61 61 61 61 61 61 61 61 61 61 61 61 61 61 61 61 61 61 61 61 61 61 61 61 61 61 61 61 61 61 61 61 61 61 61 61 61 61 61 61 61 61 61 61 61 61 61 61 61 61 61 61 61 61 61 61 61 61 61 61 61 61 61 61 61 61 61 61 61 61 61 61 61 61 61 61 61 61 61 61 61 61 61 61 61 61 61 61 61 61 61 61 61 61 61 61 61 61 61 61 61 61 61 61 61 61 61 61 61 61 61 61 61 61 61 61 61 61 61 61 61 61 61 61 61 61 61 61 61 61 61 61 61 61 61
      61 61 61 61 61 61 61 61 61 61 61 61 61 61 61 61 61 61 61 61 61 61 61 61 61 61 61 61 61 61 61 61 61 61 61 61 61 61 61 61 61 61 61 61 61 61 61 61 61 61 61 61 61 61 61 61 61 61 61 61 61 61 61 61 61 61 61 61 61 61 61 61 61 61 61 61 61 61 61 61 61 61 61 61 61 61 61 61 61 61 61 61 61 61 61 61 61 61 61 61 61 61 61 61 61 61 61 61 61 61 61 61 61 61 61 61 61 61 61 61 61 61 61 61 61 61 61 61 61 61 61 61 61 61 61
      61 61 61 61 61 61 61 61 61 61 61 61 61 61 61 61 61 61 61 61 61 61 61 61 61 61 61 61 61 61 61 61 61 61 61 61 61 61 61 61 61 61 61 61 61 61 61 61 61 61 61 61 61 61 61 61 61 61 61 61 61 61 61 61 61 61 61 61 61 61 61 61 61 61 61 61 61 61 61 61 61 61 61 61 61 61 61 61 61 61 61 61 61 61 61 61 61 61 61 61 61 61 61 61 61 61 61 61 61 61 61 61 61 61 61 61 61 61 61 61 61 61 61 61 61 61 61 61 61 61 61 61 61 61 61
      61 61 61 61 61 61 61 61 61 61 61 61 61 61 61 61 61 61 61 61 61 61 61 61 61 61 61 61 61 61 61 61 61 61 61 61 61 61 61 61 61 61 61 61 61 61 61 61 61 61 61 61 61 61 61 61 61 61 61 61 61 61 61 61 61 61 61 61 61 61 61 61 61 61 61 61 61 61 61 61 61 61 61 61 61 61 61 61 61 61 61 61 61 61 61 61 61 61 61 61 61 61 61 61 61 61 61 61 61 61 61 61 61 61 61 61 61 61 61 61 61 61 61 61 61 61 61 61 61 61 61 61 61 61 61
      61 61 61 61 61 61 61 61 61 61 61 61 61 61 61 61 61 61 61 61 61 61 61 61 61 61 61 61 61 61 61 61 61 61 61 61 61 61 61 61 61 61 61 61 61 61 61 61 61 61 61 61 61 61 61 61 61 61 61 61 61 61 61 61 61 61 61 61 61 61 61 61 61 61 61 61 61 61 61 61 61 61 61 61 61 61 61 61 61 61 61 61 61 61 61 61 61 61 61 61 61 61 61 61 61 61 61 61 61 61 61 61 61 61 61 61 61 61 61 61 61 61 61 61 61 61 61 61 61 61 61 61 61 61 61
      61 61 61 61 61 61 61 61 61 61 61 61 61 61 61 61 61 61 61 61 61 61 61 61 61 61 61 61 61 61 61 61 61 61 61 61 61 61 61 61 61 61 61 61 61 61 61 61 61 61 61 61 61 61 61 61 61 61 61 61 61 61 61 61 61 61 61 61 61 61 61 61 61 61 61 61 61 61 61 61 61 61 61 61 61 61 61 61 61 61 61 61 61 61 61 61 61 61 61 61 61 61 61 61 61 61 61 61 61 61 61 61 61 61 61 61 61 61 61 61 61 61 61 61 61 61 61 61 61 61 61 61 61 61 61
      61 61 61 61 1348 1348 1348 61 61 61 61 61 61 61 61 61 61 61 1348 1348 1348 1348 1348 1348 1348 61 61 61 61 61 61 61 61 61 61 61 1348 1348 1348 61 61 61 61 61 61 61 61 61 61 61 61 61 1348 1348 1348 61 61 61 61 61 61 61 61 61 61 61 61 61 1348 1348 1348 61 61 61 61 61 61 61 61 61 61 61 1348 1348 1348 1348 1348 1348 1348 61 61 61 61 61 61 61 61 61 61 61 1348 1348 1348 61 61 61 61 61 61 61 61 61 61 61 61 61 1348 1348 1348 61 61 61 61 61 61 61 61 61 61 61 61 61 1348 1348 1348
      61 61 61 61 79 79 79 61 61 61 61 61 61 61 61 61 61 61 79 79 79 79 79 79 79 61 61 61 61 61 61 61 61 61 61 61 79 79 79 61 61 61 61 61 61 61 61 61 61 61 61 61 79 79 79 61 61 61 61 61 61 61 61 61 61 61 61 61 79 79 79 61 61 61 61 61 61 61 61 61 61 61 79 79 79 79 79 79 79 61 61 61 61 61 61 61 61 61 61 61 79 79 79 61 61 61 61 61 61 61 61 61 61 61 61 61 79 79 79 61 61 61 61 61 61 61 61 61 61 61 61 61 79 79 79
      61 61 61 61 1349 1349 1349 61 61 61 61 61 61 61 61 61 61 61 1349 1349 1349 1349 1349 1349 1349 61 61 61 61 61 61 61 61 61 61 61 1349 1349 1349 61 61 61 61 61 61 61 61 61 61 61 61 61 1349 1349 1349 61 61 61 61 61 61 61 61 61 61 61 61 61 1349 1349 1349 61 61 61 61 61 61 61 61 61 61 61 1349 1349 1349 1349 1349 1349 1349 61 61 61 61 61 61 61 61 61 61 61 1349 1349 1349 61 61 61 61 61 61 61 61 61 61 61 61 61 1349 1349 1349 61 61 61 61 61 61 61 61 61 61 61 61 61 1349 1349 1349
      61 61 61 61 61 61 61 61 61 61 61 61 61 61 61 61 61 61 61 61 61 61 61 61 61 61 61 61 61 61 61 61 61 61 61 61 61 61 61 61 61 61 61 61 61 61 61 61 61 61 61 61 61 61 61 61 61 61 61 61 61 61 61 61 61 61 61 61 61 61 61 61 61 61 61 61 61 61 61 61 61 61 61 61 61 61 61 61 61 61 61 61 61 61 61 61 61 61 61 61 61 61 61 61 61 61 61 61 61 61 61 61 61 61 61 61 61 61 61 61 61 61 61 61 61 61 61 61 61 61 61 61 61 61 61
      61 61 61 61 61 61 61 61 61 61 61 61 61 61 61 61 61 61 61 61 61 61 61 61 61 61 61 61 61 61 61 61 61 61 61 61 61 61 61 61 61 61 61 61 61 61 61 61 61 61 61 61 61 61 61 61 61 61 61 61 61 61 61 61 61 61 61 61 61 61 61 61 61 61 61 61 61 61 61 61 61 61 61 61 61 61 61 61 61 61 61 61 61 61 61 61 61 61 61 61 61 61 61 61 61 61 61 61 61 61 61 61 61 61 61 61 61 61 61 61 61 61 61 61 61 61 61 61 61 61 61 61 61 61 61
      61 61 61 61 61 61 61 61 61 61 61 61 61 61 61 61 61 61 61 61 61 61 61 61 61 61 61 61 61 61 61 61 61 61 61 61 61 61 61 61 61 61 61 61 61 61 61 61 61 61 61 61 61 61 61 61 61 61 61 61 61 61 61 61 61 61 61 61 61 61 61 61 61 61 61 61 61 61 61 61 61 61 61 61 61 61 61 61 61 61 61 61 61 61 61 61 61 61 61 61 61 61 61 61 61 61 61 61 61 61 61 61 61 61 61 61 61 61 61 61 61 61 61 61 61 61 61 61 61 61 61 61 61 61 61
      61 61 61 61 61 61 61 61 61 61 61 61 61 61 61 61 61 61 61 61 61 61 61 61 61 61 61 61 61 61 61 61 61 61 61 61 61 61 61 61 61 61 61 61 61 61 61 61 61 61 61 61 61 61 61 61 61 61 61 61 61 61 61 61 61 61 61 61 61 61 61 61 61 61 61 61 61 61 61 61 61 61 61 61 61 61 61 61 61 61 61 61 61 61 61 61 61 61 61 61 61 61 61 61 61 61 61 61 61 61 61 61 61 61 61 61 61 61 61 61 61 61 61 61 61 61 61 61 61 61 61 61 61 61 61
      61 61 61 61 61 61 61 61 61 61 61 61 61 61 61 61 61 61 61 61 61 61 61 61 61 61 61 61 61 61 61 61 61 61 61 61 61 61 61 61 61 61 61 61 61 61 61 61 61 61 61 61 61 61 61 61 61 61 61 61 61 61 61 61 61 61 61 61 61 61 61 61 61 61 61 61 61 61 61 61 61 61 61 61 61 61 61 61 61 61 61 61 61 61 61 61 61 61 61 61 61 61 61 61 61 61 61 61 61 61 61 61 61 61 61 61 61 61 61 61 61 61 61 61 61 61 61 61 61 61 61 61 61 61 61
      61 61 61 61 61 61 61 61 61 61 61 61 61 61 61 61 61 61 61 61 61 61 61 61 61 61 61 61 61 61 61 61 61 61 61 61 61 61 61 61 61 61 61 61 61 61 61 61 61 61 61 61 61 61 61 61 61 61 61 61 61 61 61 61 61 61 61 61 61 61 61 61 61 61 61 61 61 61 61 61 61 61 61 61 61 61 61 61 61 61 61 61 61 61 61 61 61 61 61 61 61 61 61 61 61 61 61 61 61 61 61 61 61 61 61 61 61 61 61 61 61 61 61 61 61 61 61 61 61 61 61 61 61 61 61
      61 61 61 61 61 61 61 61 61 61 61 61 61 61 61 61 61 61 61 61 61 61 61 61 61 61 61 61 61 61 61 61 61 61 61 61 61 61 61 61 61 61 61 61 61 61 61 61 61 61 61 61 61 61 61 61 61 61 61 61 61 61 61 61 61 61 61 61 61 61 61 61 61 61 61 61 61 61 61 61 61 61 61 61 61 61 61 61 61 61 61 61 61 61 61 61 61 61 61 61 61 61 61 61 61 61 61 61 61 61 61 61 61 61 61 61 61 61 61 61 61 61 61 61 61 61 61 61 61 61 61 61 61 61 61
      61 61 61 61 61 61 61 61 61 61 61 61 61 61 61 61 61 61 61 61 61 61 61 61 61 61 61 61 61 61 61 61 61 61 61 61 61 61 61 61 61 61 61 61 61 61 61 61 61 61 61 61 61 61 61 61 61 61 61 61 61 61 61 61 61 61 61 61 61 61 61 61 61 61 61 61 61 61 61 61 61 61 61 61 61 61 61 61 61 61 61 61 61 61 61 61 61 61 61 61 61 61 61 61 61 61 61 61 61 61 61 61 61 61 61 61 61 61 61 61 61 61 61 61 61 61 61 61 61 61 61 61 61 61 61
      61 61 61 61 61 61 61 61 61 61 61 61 61 61 61 61 61 61 61 61 61 61 61 61 61 61 61 61 61 61 61 61 61 61 61 61 61 61 61 61 61 61 61 61 61 61 61 61 61 61 61 61 61 61 61 61 61 61 61 61 61 61 61 61 61 61 61 61 61 61 61 61 61 61 61 61 61 61 61 61 61 61 61 61 61 61 61 61 61 61 61 61 61 61 61 61 61 61 61 61 61 61 61 61 61 61 61 61 61 61 61 61 61 61 61 61 61 61 61 61 61 61 61 61 61 61 61 61 61 61 61 61 61 61 61
      61 61 61 61 61 61 61 61 61 61 61 61 61 61 61 61 61 61 61 61 61 61 61 61 61 61 61 61 61 61 61 61 61 61 61 61 61 61 61 61 61 61 61 61 61 61 61 61 61 61 61 61 61 61 61 61 61 61 61 61 61 61 61 61 61 61 61 61 61 61 61 61 61 61 61 61 61 61 61 61 61 61 61 61 61 61 61 61 61 61 61 61 61 61 61 61 61 61 61 61 61 61 61 61 61 61 61 61 61 61 61 61 61 61 61 61 61 61 61 61 61 61 61 61 61 61 61 61 61 61 61 61 61 61 61
      61 61 61 61 61 61 61 61 61 61 61 61 61 61 61 61 61 61 61 61 61 61 61 61 61 61 61 61 61 61 61 61 61 61 61 61 61 61 61 61 61 61 61 61 61 61 61 61 61 61 61 61 61 61 61 61 61 61 61 61 61 61 61 61 61 61 61 61 61 61 61 61 61 61 61 61 61 61 61 61 61 61 61 61 61 61 61 61 61 61 61 61 61 61 61 61 61 61 61 61 61 61 61 61 61 61 61 61 61 61 61 61 61 61 61 61 61 61 61 61 61 61 61 61 61 61 61 61 61 61 61 61 61 61 61
      61 61 61 61 61 61 61 61 61 61 61 61 61 61 61 61 61 61 61 61 61 61 61 61 61 61 61 61 61 61 61 61 61 61 61 61 61 61 61 61 61 61 61 61 61 61 61 61 61 61 61 61 61 61 61 61 61 61 61 61 61 61 61 61 61 61 61 61 61 61 61 61 61 61 61 61 61 61 61 61 61 61 61 61 61 61 61 61 61 61 61 61 61 61 61 61 61 61 61 61 61 61 61 61 61 61 61 61 61 61 61 61 61 61 61 61 61 61 61 61 61 61 61 61 61 61 61 61 61 61 61 61 61 61 61
      )
    )
    (tilemap
      (solid #f)
      (speed-x 0.25)
      (speed-y 0.5)
      (tint 0.35 0.35 0.35)
      (z-pos -175)
      (name "further-back")
      (width 135)
      (height 25)
      (tiles
      1869 1869 1869 1869 1869 1869 1869 1869 1869 1869 1869 1869 1869 1869 1869 1869 1869 1869 1869 1869 1869 1869 1869 1869 1869 1869 1869 1869 1869 1869 1869 1869 1869 1869 1869 1869 1869 1869 1869 1869 1869 1869 1869 1869 1869 1869 1869 1869 1869 1869 1869 1869 1869 1869 1869 1869 1869 1869 1869 1869 1869 1869 1869 1869 1869 1869 1869 1869 1869 1869 1869 1869 1869 1869 1869 1869 1869 1869 1869 1869 1869 1869 1869 1869 1869 1869 1869 1869 1869 1869 1869 1869 1869 1869 1869 1869 1869 1869 1869 1869 1869 1869 1869 1869 1869 1869 1869 1869 1869 1869 1869 1869 1869 1869 1869 1869 1869 1869 1869 1869 1869 1869 1869 1869 1869 1869 1869 1869 1869 1869 1869 1869 1869 1869 1869
      1869 1869 1869 1869 1869 1869 1869 1869 1869 1869 1869 1869 1869 1869 1869 1869 1869 1869 1869 1869 1869 1869 1869 1869 1869 1869 1869 1869 1869 1869 1869 1869 1869 1869 1869 1869 1869 1869 1869 1869 1869 1869 1869 1869 1869 1869 1869 1869 1869 1869 1869 1869 1869 1869 1869 1869 1869 1869 1869 1869 1869 1869 1869 1869 1869 1869 1869 1869 1869 1869 1869 1869 1869 1869 1869 1869 1869 1869 1869 1869 1869 1869 1869 1869 1869 1869 1869 1869 1869 1869 1869 1869 1869 1869 1869 1869 1869 1869 1869 1869 1869 1869 1869 1869 1869 1869 1869 1869 1869 1869 1869 1869 1869 1869 1869 1869 1869 1869 1869 1869 1869 1869 1869 1869 1869 1869 1869 1869 1869 1869 1869 1869 1869 1869 1869
      1869 1869 1869 1869 1869 1869 1869 1869 1869 1869 1869 1869 1869 1869 1869 1869 1869 1869 1869 1869 1869 1869 1869 1869 1869 1869 1869 1869 1869 1869 1869 1869 1869 1869 1869 1869 1869 1869 1869 1869 1869 1869 1869 1869 1869 1869 1869 1869 1869 1869 1869 1869 1869 1869 1869 1869 1869 1869 1869 1869 1869 1869 1869 1869 1869 1869 1869 1869 1869 1869 1869 1869 1869 1869 1869 1869 1869 1869 1869 1869 1869 1869 1869 1869 1869 1869 1869 1869 1869 1869 1869 1869 1869 1869 1869 1869 1869 1869 1869 1869 1869 1869 1869 1869 1869 1869 1869 1869 1869 1869 1869 1869 1869 1869 1869 1869 1869 1869 1869 1869 1869 1869 1869 1869 1869 1869 1869 1869 1869 1869 1869 1869 1869 1869 1869
      1869 1869 1869 1869 1869 1869 1869 1869 1869 1869 1869 1869 1869 1869 1869 1869 1869 1869 1869 1869 1869 1869 1869 1869 1869 1869 1869 1869 1869 1869 1869 1869 1869 1869 1869 1869 1869 1869 1869 1869 1869 1869 1869 1869 1869 1869 1869 1869 1869 1869 1869 1869 1869 1869 1869 1869 1869 1869 1869 1869 1869 1869 1869 1869 1869 1869 1869 1869 1869 1869 1869 1869 1869 1869 1869 1869 1869 1869 1869 1869 1869 1869 1869 1869 1869 1869 1869 1869 1869 1869 1869 1869 1869 1869 1869 1869 1869 1869 1869 1869 1869 1869 1869 1869 1869 1869 1869 1869 1869 1869 1869 1869 1869 1869 1869 1869 1869 1869 1869 1869 1869 1869 1869 1869 1869 1869 1869 1869 1869 1869 1869 1869 1869 1869 1869
      1869 1869 1869 1869 1869 1869 1869 1869 1869 1869 1869 1869 1869 1869 1869 1869 1869 1869 1869 1869 1869 1869 1869 1869 1869 1869 1869 1869 1869 1869 1869 1869 1869 1869 1869 1869 1869 1869 1869 1869 1869 1869 1869 1869 1869 1869 1869 1869 1869 1869 1869 1869 1869 1869 1869 1869 1869 1869 1869 1869 1869 1869 1869 1869 1869 1869 1869 1869 1869 1869 1869 1869 1869 1869 1869 1869 1869 1869 1869 1869 1869 1869 1869 1869 1869 1869 1869 1869 1869 1869 1869 1869 1869 1869 1869 1869 1869 1869 1869 1869 1869 1869 1869 1869 1869 1869 1869 1869 1869 1869 1869 1869 1869 1869 1869 1869 1869 1869 1869 1869 1869 1869 1869 1869 1869 1869 1869 1869 1869 1869 1869 1869 1869 1869 1869
      1869 1869 1869 1869 1869 1869 1869 1869 1869 1869 1869 1869 1869 1869 1869 1869 1869 1869 1869 1869 1869 1869 1869 1869 1869 1869 1869 1869 1869 1869 1869 1869 1869 1869 1869 1869 1869 1869 1869 1869 1869 1869 1869 1869 1869 1869 1869 1869 1869 1869 1869 1869 1869 1869 1869 1869 1869 1869 1869 1869 1869 1869 1869 1869 1869 1869 1869 1869 1869 1869 1869 1869 1869 1869 1869 1869 1869 1869 1869 1869 1869 1869 1869 1869 1869 1869 1869 1869 1869 1869 1869 1869 1869 1869 1869 1869 1869 1869 1869 1869 1869 1869 1869 1869 1869 1869 1869 1869 1869 1869 1869 1869 1869 1869 1869 1869 1869 1869 1869 1869 1869 1869 1869 1869 1869 1869 1869 1869 1869 1869 1869 1869 1869 1869 1869
      1869 1869 1869 1869 1869 1869 1869 1869 1869 1869 1869 1869 1869 1869 1869 1869 1869 1869 1869 1869 1869 1869 1869 1869 1869 1869 1869 1869 1869 1869 1869 1869 1869 1869 1869 1869 1869 1869 1869 1869 1869 1869 1869 1869 1869 1869 1869 1869 1869 1869 1869 1869 1869 1869 1869 1869 1869 1869 1869 1869 1869 1869 1869 1869 1869 1869 1869 1869 1869 1869 1869 1869 1869 1869 1869 1869 1869 1869 1869 1869 1869 1869 1869 1869 1869 1869 1869 1869 1869 1869 1869 1869 1869 1869 1869 1869 1869 1869 1869 1869 1869 1869 1869 1869 1869 1869 1869 1869 1869 1869 1869 1869 1869 1869 1869 1869 1869 1869 1869 1869 1869 1869 1869 1869 1869 1869 1869 1869 1869 1869 1869 1869 1869 1869 1869
      1869 1869 1869 1869 1869 1869 1869 1869 1869 1869 1869 1869 1869 1869 1869 1869 1869 1869 1869 1869 1869 1869 1869 1869 1869 1869 1869 1869 1869 1869 1869 1869 1869 1869 1869 1869 1869 1869 1869 1869 1869 1869 1869 1869 1869 1869 1869 1869 1869 1869 1869 1869 1869 1869 1869 1869 1869 1869 1869 1869 1869 1869 1869 1869 1869 1869 1869 1869 1869 1869 1869 1869 1869 1869 1869 1869 1869 1869 1869 1869 1869 1869 1869 1869 1869 1869 1869 1869 1869 1869 1869 1869 1869 1869 1869 1869 1869 1869 1869 1869 1869 1869 1869 1869 1869 1869 1869 1869 1869 1869 1869 1869 1869 1869 1869 1869 1869 1869 1869 1869 1869 1869 1869 1869 1869 1869 1869 1869 1869 1869 1869 1869 1869 1869 1869
      1869 1869 1869 1869 1869 1869 1869 1869 1869 1869 1869 1869 1869 1869 1869 1869 1869 1869 1869 1869 1869 1869 1869 1869 1869 1869 1869 1869 1869 1869 1869 1869 1869 1869 1869 1869 1869 1869 1869 1869 1869 1869 1869 1869 1869 1869 1869 1869 1869 1869 1869 1869 1869 1869 1869 1869 1869 1869 1869 1869 1869 1869 1869 1869 1869 1869 1869 1869 1869 1869 1869 1869 1869 1869 1869 1869 1869 1869 1869 1869 1869 1869 1869 1869 1869 1869 1869 1869 1869 1869 1869 1869 1869 1869 1869 1869 1869 1869 1869 1869 1869 1869 1869 1869 1869 1869 1869 1869 1869 1869 1869 1869 1869 1869 1869 1869 1869 1869 1869 1869 1869 1869 1869 1869 1869 1869 1869 1869 1869 1869 1869 1869 1869 1869 1869
      1869 1869 1869 1869 1869 1869 1869 1869 1869 1869 1869 1869 1869 1869 1869 1869 1869 1869 1869 1869 1869 1869 1869 1869 1869 1869 1869 1869 1869 1869 1869 1869 1869 1869 1869 1869 1869 1869 1869 1869 1869 1869 1869 1869 1869 1869 1869 1869 1869 1869 1869 1869 1869 1869 1869 1869 1869 1869 1869 1869 1869 1869 1869 1869 1869 1869 1869 1869 1869 1869 1869 1869 1869 1869 1869 1869 1869 1869 1869 1869 1869 1869 1869 1869 1869 1869 1869 1869 1869 1869 1869 1869 1869 1869 1869 1869 1869 1869 1869 1869 1869 1869 1869 1869 1869 1869 1869 1869 1869 1869 1869 1869 1869 1869 1869 1869 1869 1869 1869 1869 1869 1869 1869 1869 1869 1869 1869 1869 1869 1869 1869 1869 1869 1869 1869
      1869 1869 1869 1869 1869 1869 1869 1869 1869 1869 1869 1869 1869 1869 1869 1869 1869 1869 1869 1869 1869 1869 1869 1869 1869 1869 1869 1869 1869 1869 1869 1869 1869 1869 1869 1869 1869 1869 1869 1869 1869 1869 1869 1869 1869 1869 1869 1869 1869 1869 1869 1869 1869 1869 1869 1869 1869 1869 1869 1869 1869 1869 1869 1869 1869 1869 1869 1869 1869 1869 1869 1869 1869 1869 1869 1869 1869 1869 1869 1869 1869 1869 1869 1869 1869 1869 1869 1869 1869 1869 1869 1869 1869 1869 1869 1869 1869 1869 1869 1869 1869 1869 1869 1869 1869 1869 1869 1869 1869 1869 1869 1869 1869 1869 1869 1869 1869 1869 1869 1869 1869 1869 1869 1869 1869 1869 1869 1869 1869 1869 1869 1869 1869 1869 1869
      1869 1869 1869 1869 1869 1869 1869 1869 1869 1869 1869 1869 1869 1869 1869 1869 1869 1869 1869 1869 1869 1869 1869 1869 1869 1869 1869 1869 1869 1869 1869 1869 1869 1869 1869 1869 1869 1869 1869 1869 1869 1869 1869 1869 1869 1869 1869 1869 1869 1869 1869 1869 1869 1869 1869 1869 1869 1869 1869 1869 1869 1869 1869 1869 1869 1869 1869 1869 1869 1869 1869 1869 1869 1869 1869 1869 1869 1869 1869 1869 1869 1869 1869 1869 1869 1869 1869 1869 1869 1869 1869 1869 1869 1869 1869 1869 1869 1869 1869 1869 1869 1869 1869 1869 1869 1869 1869 1869 1869 1869 1869 1869 1869 1869 1869 1869 1869 1869 1869 1869 1869 1869 1869 1869 1869 1869 1869 1869 1869 1869 1869 1869 1869 1869 1869
      1869 1869 1869 1869 1869 1869 1869 1869 1869 1869 1869 1869 1869 1869 1869 1869 1869 1869 1869 1869 1869 1869 1869 1869 1869 1869 1869 1869 1869 1869 1869 1869 1869 1869 1869 1869 1869 1869 1869 1869 1869 1869 1869 1869 1869 1869 1869 1869 1869 1869 1869 1869 1869 1869 1869 1869 1869 1869 1869 1869 1869 1869 1869 1869 1869 1869 1869 1869 1869 1869 1869 1869 1869 1869 1869 1869 1869 1869 1869 1869 1869 1869 1869 1869 1869 1869 1869 1869 1869 1869 1869 1869 1869 1869 1869 1869 1869 1869 1869 1869 1869 1869 1869 1869 1869 1869 1869 1869 1869 1869 1869 1869 1869 1869 1869 1869 1869 1869 1869 1869 1869 1869 1869 1869 1869 1869 1869 1869 1869 1869 1869 1869 1869 1869 1869
      1869 1869 1869 1869 1869 1869 1869 1869 1869 1869 1869 1869 1869 1869 1869 1869 1869 1869 1869 1869 1869 1869 1869 1869 1869 1869 1869 1869 1869 1869 1869 1869 1869 1869 1869 1869 1869 1869 1869 1869 1869 1869 1869 1869 1869 1869 1869 1869 1869 1869 1869 1869 1869 1869 1869 1869 1869 1869 1869 1869 1869 1869 1869 1869 1869 1869 1869 1869 1869 1869 1869 1869 1869 1869 1869 1869 1869 1869 1869 1869 1869 1869 1869 1869 1869 1869 1869 1869 1869 1869 1869 1869 1869 1869 1869 1869 1869 1869 1869 1869 1869 1869 1869 1869 1869 1869 1869 1869 1869 1869 1869 1869 1869 1869 1869 1869 1869 1869 1869 1869 1869 1869 1869 1869 1869 1869 1869 1869 1869 1869 1869 1869 1869 1869 1869
      1869 1869 1869 1869 1869 1869 1869 1869 1869 1869 1869 1869 1869 1869 1869 1869 1869 1869 1869 1869 1869 1869 1869 1869 1869 1869 1869 1869 1869 1869 1869 1869 1869 1869 1869 1869 1869 1869 1869 1869 1869 1869 1869 1869 1869 1869 1869 1869 1869 1869 1869 1869 1869 1869 1869 1869 1869 1869 1869 1869 1869 1869 1869 1869 1869 1869 1869 1869 1869 1869 1869 1869 1869 1869 1869 1869 1869 1869 1869 1869 1869 1869 1869 1869 1869 1869 1869 1869 1869 1869 1869 1869 1869 1869 1869 1869 1869 1869 1869 1869 1869 1869 1869 1869 1869 1869 1869 1869 1869 1869 1869 1869 1869 1869 1869 1869 1869 1869 1869 1869 1869 1869 1869 1869 1869 1869 1869 1869 1869 1869 1869 1869 1869 1869 1869
      1869 1869 1869 1869 1869 1869 1869 1869 1869 1869 1869 1869 1869 1869 1869 1869 1869 1869 1869 1869 1869 1869 1869 1869 1869 1869 1869 1869 1869 1869 1869 1869 1869 1869 1869 1869 1869 1869 1869 1869 1869 1869 1869 1869 1869 1869 1869 1869 1869 1869 1869 1869 1869 1869 1869 1869 1869 1869 1869 1869 1869 1869 1869 1869 1869 1869 1869 1869 1869 1869 1869 1869 1869 1869 1869 1869 1869 1869 1869 1869 1869 1869 1869 1869 1869 1869 1869 1869 1869 1869 1869 1869 1869 1869 1869 1869 1869 1869 1869 1869 1869 1869 1869 1869 1869 1869 1869 1869 1869 1869 1869 1869 1869 1869 1869 1869 1869 1869 1869 1869 1869 1869 1869 1869 1869 1869 1869 1869 1869 1869 1869 1869 1869 1869 1869
      1869 1869 1869 1869 1869 1869 1869 1869 1869 1869 1869 1869 1869 1869 1869 1869 1869 1869 1869 1869 1869 1869 1869 1869 1869 1869 1869 1869 1869 1869 1869 1869 1869 1869 1869 1869 1869 1869 1869 1869 1869 1869 1869 1869 1869 1869 1869 1869 1869 1869 1869 1869 1869 1869 1869 1869 1869 1869 1869 1869 1869 1869 1869 1869 1869 1869 1869 1869 1869 1869 1869 1869 1869 1869 1869 1869 1869 1869 1869 1869 1869 1869 1869 1869 1869 1869 1869 1869 1869 1869 1869 1869 1869 1869 1869 1869 1869 1869 1869 1869 1869 1869 1869 1869 1869 1869 1869 1869 1869 1869 1869 1869 1869 1869 1869 1869 1869 1869 1869 1869 1869 1869 1869 1869 1869 1869 1869 1869 1869 1869 1869 1869 1869 1869 1869
      1869 1869 1869 1869 1869 1869 1869 1869 1869 1869 1869 1869 1869 1869 1869 1869 1869 1869 1869 1869 1869 1869 1869 1869 1869 1869 1869 1869 1869 1869 1869 1869 1869 1869 1869 1869 1869 1869 1869 1869 1869 1869 1869 1869 1869 1869 1869 1869 1869 1869 1869 1869 1869 1869 1869 1869 1869 1869 1869 1869 1869 1869 1869 1869 1869 1869 1869 1869 1869 1869 1869 1869 1869 1869 1869 1869 1869 1869 1869 1869 1869 1869 1869 1869 1869 1869 1869 1869 1869 1869 1869 1869 1869 1869 1869 1869 1869 1869 1869 1869 1869 1869 1869 1869 1869 1869 1869 1869 1869 1869 1869 1869 1869 1869 1869 1869 1869 1869 1869 1869 1869 1869 1869 1869 1869 1869 1869 1869 1869 1869 1869 1869 1869 1869 1869
      1869 1869 1869 1869 1869 1869 1869 1869 1869 1869 1869 1869 1869 1869 1869 1869 1869 1869 1869 1869 1869 1869 1869 1869 1869 1869 1869 1869 1869 1869 1869 1869 1869 1869 1869 1869 1869 1869 1869 1869 1869 1869 1869 1869 1869 1869 1869 1869 1869 1869 1869 1869 1869 1869 1869 1869 1869 1869 1869 1869 1869 1869 1869 1869 1869 1869 1869 1869 1869 1869 1869 1869 1869 1869 1869 1869 1869 1869 1869 1869 1869 1869 1869 1869 1869 1869 1869 1869 1869 1869 1869 1869 1869 1869 1869 1869 1869 1869 1869 1869 1869 1869 1869 1869 1869 1869 1869 1869 1869 1869 1869 1869 1869 1869 1869 1869 1869 1869 1869 1869 1869 1869 1869 1869 1869 1869 1869 1869 1869 1869 1869 1869 1869 1869 1869
      1869 1869 1869 1869 1869 1869 1869 1869 1869 1869 1869 1869 1869 1869 1869 1869 1869 1869 1869 1869 1869 1869 1869 1869 1869 1869 1869 1869 1869 1869 1869 1869 1869 1869 1869 1869 1869 1869 1869 1869 1869 1869 1869 1869 1869 1869 1869 1869 1869 1869 1869 1869 1869 1869 1869 1869 1869 1869 1869 1869 1869 1869 1869 1869 1869 1869 1869 1869 1869 1869 1869 1869 1869 1869 1869 1869 1869 1869 1869 1869 1869 1869 1869 1869 1869 1869 1869 1869 1869 1869 1869 1869 1869 1869 1869 1869 1869 1869 1869 1869 1869 1869 1869 1869 1869 1869 1869 1869 1869 1869 1869 1869 1869 1869 1869 1869 1869 1869 1869 1869 1869 1869 1869 1869 1869 1869 1869 1869 1869 1869 1869 1869 1869 1869 1869
      1869 1869 1869 1869 1869 1869 1869 1869 1869 1869 1869 1869 1869 1869 1869 1869 1869 1869 1869 1869 1869 1869 1869 1869 1869 1869 1869 1869 1869 1869 1869 1869 1869 1869 1869 1869 1869 1869 1869 1869 1869 1869 1869 1869 1869 1869 1869 1869 1869 1869 1869 1869 1869 1869 1869 1869 1869 1869 1869 1869 1869 1869 1869 1869 1869 1869 1869 1869 1869 1869 1869 1869 1869 1869 1869 1869 1869 1869 1869 1869 1869 1869 1869 1869 1869 1869 1869 1869 1869 1869 1869 1869 1869 1869 1869 1869 1869 1869 1869 1869 1869 1869 1869 1869 1869 1869 1869 1869 1869 1869 1869 1869 1869 1869 1869 1869 1869 1869 1869 1869 1869 1869 1869 1869 1869 1869 1869 1869 1869 1869 1869 1869 1869 1869 1869
      1869 1869 1869 1869 1869 1869 1869 1869 1869 1869 1869 1869 1869 1869 1869 1869 1869 1869 1869 1869 1869 1869 1869 1869 1869 1869 1869 1869 1869 1869 1869 1869 1869 1869 1869 1869 1869 1869 1869 1869 1869 1869 1869 1869 1869 1869 1869 1869 1869 1869 1869 1869 1869 1869 1869 1869 1869 1869 1869 1869 1869 1869 1869 1869 1869 1869 1869 1869 1869 1869 1869 1869 1869 1869 1869 1869 1869 1869 1869 1869 1869 1869 1869 1869 1869 1869 1869 1869 1869 1869 1869 1869 1869 1869 1869 1869 1869 1869 1869 1869 1869 1869 1869 1869 1869 1869 1869 1869 1869 1869 1869 1869 1869 1869 1869 1869 1869 1869 1869 1869 1869 1869 1869 1869 1869 1869 1869 1869 1869 1869 1869 1869 1869 1869 1869
      1869 1869 1869 1869 1869 1869 1869 1869 1869 1869 1869 1869 1869 1869 1869 1869 1869 1869 1869 1869 1869 1869 1869 1869 1869 1869 1869 1869 1869 1869 1869 1869 1869 1869 1869 1869 1869 1869 1869 1869 1869 1869 1869 1869 1869 1869 1869 1869 1869 1869 1869 1869 1869 1869 1869 1869 1869 1869 1869 1869 1869 1869 1869 1869 1869 1869 1869 1869 1869 1869 1869 1869 1869 1869 1869 1869 1869 1869 1869 1869 1869 1869 1869 1869 1869 1869 1869 1869 1869 1869 1869 1869 1869 1869 1869 1869 1869 1869 1869 1869 1869 1869 1869 1869 1869 1869 1869 1869 1869 1869 1869 1869 1869 1869 1869 1869 1869 1869 1869 1869 1869 1869 1869 1869 1869 1869 1869 1869 1869 1869 1869 1869 1869 1869 1869
      1869 1869 1869 1869 1869 1869 1869 1869 1869 1869 1869 1869 1869 1869 1869 1869 1869 1869 1869 1869 1869 1869 1869 1869 1869 1869 1869 1869 1869 1869 1869 1869 1869 1869 1869 1869 1869 1869 1869 1869 1869 1869 1869 1869 1869 1869 1869 1869 1869 1869 1869 1869 1869 1869 1869 1869 1869 1869 1869 1869 1869 1869 1869 1869 1869 1869 1869 1869 1869 1869 1869 1869 1869 1869 1869 1869 1869 1869 1869 1869 1869 1869 1869 1869 1869 1869 1869 1869 1869 1869 1869 1869 1869 1869 1869 1869 1869 1869 1869 1869 1869 1869 1869 1869 1869 1869 1869 1869 1869 1869 1869 1869 1869 1869 1869 1869 1869 1869 1869 1869 1869 1869 1869 1869 1869 1869 1869 1869 1869 1869 1869 1869 1869 1869 1869
      1869 1869 1869 1869 1869 1869 1869 1869 1869 1869 1869 1869 1869 1869 1869 1869 1869 1869 1869 1869 1869 1869 1869 1869 1869 1869 1869 1869 1869 1869 1869 1869 1869 1869 1869 1869 1869 1869 1869 1869 1869 1869 1869 1869 1869 1869 1869 1869 1869 1869 1869 1869 1869 1869 1869 1869 1869 1869 1869 1869 1869 1869 1869 1869 1869 1869 1869 1869 1869 1869 1869 1869 1869 1869 1869 1869 1869 1869 1869 1869 1869 1869 1869 1869 1869 1869 1869 1869 1869 1869 1869 1869 1869 1869 1869 1869 1869 1869 1869 1869 1869 1869 1869 1869 1869 1869 1869 1869 1869 1869 1869 1869 1869 1869 1869 1869 1869 1869 1869 1869 1869 1869 1869 1869 1869 1869 1869 1869 1869 1869 1869 1869 1869 1869 1869
      )
    )
  )
)
