(supertux-level
  (version 2)
  (name (_ "In the Rocket"))
  (author "Miksy91")
  (license "CC-BY-SA 4.0 International")
  (sector
    (name "main")
    (gravity 5)
    (ambient-light
      (color 1 1 1)
    )
    (background
      (scroll-speed-x 0)
      (scroll-speed-y 0)
      (speed 0.5)
      (image-top "/images/background/black_800px.png")
      (image "/images/background/black_800px.png")
      (image-bottom "/images/background/black_800px.png")
    )
    (bonusblock
      (count 10)
      (sprite "/images/objects/bonus_block/purpleblock.sprite")
      (x 448)
      (y 2144)
    )
    (camera
      (name "Camera")
      (mode "normal")
    )
    (climbable
      (width 34.5)
      (height 234.5)
      (x 191.5)
      (y 95.25)
    )
    (dispenser
      (cycle 3)
      (type "cannon")
      (badguy "short_fuse")
      (direction "right")
      (x 0)
      (y 2181)
    )
    (flame
      (direction "left")
      (x 191.6)
      (y 3327.85)
    )
    (flame
      (direction "left")
      (x 352.8499)
      (y 3230.35)
    )
    (flyingsnowball
      (direction "left")
      (x 80)
      (y 719.25)
    )
    (jumpy
      (direction "left")
      (x 95)
      (y 1974)
    )
    (jumpy
      (direction "left")
      (x 77.5)
      (y 940)
    )
    (mrbomb
      (direction "left")
      (x 403.75)
      (y 1801.5)
    )
    (music
      (file "/music/antarctic/chipdisko.ogg")
    )
    (spawnpoint
      (name "main")
      (x 15)
      (y 3371.25)
    )
    (spiky
      (direction "left")
      (x 446.25)
      (y 570.5)
    )
    (spiky
      (direction "left")
      (x 378.75)
      (y 570.5)
    )
    (spiky
      (direction "left")
      (x 320)
      (y 635.5)
    )
    (tilemap
      (solid #f)
      (alpha 0.5)
      (z-pos -100)
      (name "Background")
      (width 15)
      (height 110)
      (tiles
      3170 3170 3170 3170 3170 3170 3170 3170 3170 3170 3170 3170 3170 3170 3170
      3170 3170 3170 3170 3170 3170 3170 3170 3170 3170 3170 3170 3170 3170 3170
      3170 3170 3170 3170 3170 3170 3170 3170 3170 3170 3170 3170 3170 3170 3170
      3170 3170 3170 3170 3170 3170 3170 3170 3170 3170 3170 3170 3170 3170 3170
      3170 3170 3170 3170 3170 3170 3170 3170 3170 3170 3170 3170 3170 3170 3170
      3170 3170 3170 3170 3170 3170 3170 3170 3170 3170 3170 3170 3170 3170 3170
      3170 3170 3170 3170 3170 3170 3170 3170 3170 3170 3170 3170 3170 3170 3170
      3170 3170 3170 3170 3170 3170 3170 3170 3170 3170 3170 3170 3170 3170 3170
      3170 3170 3170 3170 3170 3170 3170 3170 3170 3170 3170 3170 3170 3170 3170
      3170 3170 3170 3170 3170 3170 3170 3170 3170 3170 3170 3170 3170 3170 3170
      3170 3170 3170 3170 3170 3170 3170 3170 3170 3170 3170 3170 3170 3170 3170
      3170 3170 3170 3170 3170 3170 3170 3170 3170 3170 3170 3170 3170 3170 3170
      3170 3170 3170 3170 3170 3170 3170 3170 3170 3170 3170 3170 3170 3170 3170
      3170 3170 3170 3170 3170 3170 3170 3170 3170 3170 3170 3170 3170 3170 3170
      3170 3170 3170 3170 3170 3170 3170 3170 3170 3170 3170 3170 3170 3170 3170
      3170 3170 3170 3170 3170 3170 3170 3170 3170 3170 3170 3170 3170 3170 3170
      3170 3170 3170 3170 3170 3170 3170 3170 3170 3170 3170 3170 3170 3170 3170
      3170 3170 3170 3170 3170 3170 3170 3170 3170 3170 3170 3170 3170 3170 3170
      3170 3170 3170 3170 3170 3170 3170 3170 3170 3170 3170 3170 3170 3170 3170
      3170 3170 3170 3170 3170 3170 3170 3170 3170 3170 3170 3170 3170 3170 3170
      3170 3170 3170 3170 3170 3170 3170 3170 3170 3170 3170 3170 3170 3170 3170
      3170 3170 3170 3170 3170 3170 3170 3170 3170 3170 3170 3170 3170 3170 3170
      3170 3170 3170 3170 3170 3170 3170 3170 3170 3170 3170 3170 3170 3170 3170
      3170 3170 3170 3170 3170 3170 3170 3170 3170 3170 3170 3170 3170 3170 3170
      3170 3170 3170 3170 3170 3170 3170 3170 3170 3170 3170 3170 3170 3170 3170
      3170 3170 3170 3170 3170 3170 3170 3170 3170 3170 3170 3170 3170 3170 3170
      3170 3170 3170 3170 3170 3170 3170 3170 3170 3170 3170 3170 3170 3170 3170
      3170 3170 3170 3170 3170 3170 3170 3170 3170 3170 3170 3170 3170 3170 3170
      3170 3170 3170 3170 3170 3170 3170 3170 3170 3170 3170 3170 3170 3170 3170
      3170 3170 3170 3170 3170 3170 3170 3170 3170 3170 3170 3170 3170 3170 3170
      3170 3170 3170 3170 3170 3170 3170 3170 3170 3170 3170 3170 3170 3170 3170
      3170 3170 3170 3170 3170 3170 3170 3170 3170 3170 3170 3170 3170 3170 3170
      3170 3170 3170 3170 3170 3170 3170 3170 3170 3170 3170 3170 3170 3170 3170
      3170 3170 3170 3170 3170 3170 3170 3170 3170 3170 3170 3170 3170 3170 3170
      3170 3170 3170 3170 3170 3170 3170 3170 3170 3170 3170 3170 3170 3170 3170
      3170 3170 3170 3170 3170 3170 3170 3170 3170 3170 3170 3170 3170 3170 3170
      3170 3170 3170 3170 3170 3170 3170 3170 3170 3170 3170 3170 3170 3170 3170
      3170 3170 3170 3170 3170 3170 3170 3170 3170 3170 3170 3170 3170 3170 3170
      3170 3170 3170 3170 3170 3170 3170 3170 3170 3170 3170 3170 3170 3170 3170
      3170 3170 3170 3170 3170 3170 3170 3170 3170 3170 3170 3170 3170 3170 3170
      3170 3170 3170 3170 3170 3170 3170 3170 3170 3170 3170 3170 3170 3170 3170
      3170 3170 3170 3170 3170 3170 3170 3170 3170 3170 3170 3170 3170 3170 3170
      3170 3170 3170 3170 3170 3170 3170 3170 3170 3170 3170 3170 3170 3170 3170
      3170 3170 3170 3170 3170 3170 3170 3170 3170 3170 3170 3170 3170 3170 3170
      3170 3170 3170 3170 3170 3170 3170 3170 3170 3170 3170 3170 3170 3170 3170
      3170 3170 3170 3170 3170 3170 3170 3170 3170 3170 3170 3170 3170 3170 3170
      3170 3170 3170 3170 3170 3170 3170 3170 3170 3170 3170 3170 3170 3170 3170
      3170 3170 3170 3170 3170 3170 3170 3170 3170 3170 3170 3170 3170 3170 3170
      3170 3170 3170 3170 3170 3170 3170 3170 3170 3170 3170 3170 3170 3170 3170
      3170 3170 3170 3170 3170 3170 3170 3170 3170 3170 3170 3170 3170 3170 3170
      3170 3170 3170 3170 3170 3170 3170 3170 3170 3170 3170 3170 3170 3170 3170
      3170 3170 3170 3170 3170 3170 3170 3170 3170 3170 3170 3170 3170 3170 3170
      3170 3170 3170 3170 3170 3170 3170 3170 3170 3170 3170 3170 3170 3170 3170
      3170 3170 3170 3170 3170 3170 3170 3170 3170 3170 3170 3170 3170 3170 3170
      3170 3170 3170 3170 3170 3170 3170 3170 3170 3170 3170 3170 3170 3170 3170
      3170 3170 3170 3170 3170 3170 3170 3170 3170 3170 3170 3170 3170 3170 3170
      3170 3170 3170 3170 3170 3170 3170 3170 3170 3170 3170 3170 3170 3170 3170
      3170 3170 3170 3170 3170 3170 3170 3170 3170 3170 3170 3170 3170 3170 3170
      3170 3170 3170 3170 3170 3170 3170 3170 3170 3170 3170 3170 3170 3170 3170
      3170 3170 3170 3170 3170 3170 3170 3170 3170 3170 3170 3170 3170 3170 3170
      3170 3170 3170 3170 3170 3170 3170 3170 3170 3170 3170 3170 3170 3170 3170
      3170 3170 3170 3170 3170 3170 3170 3170 3170 3170 3170 3170 3170 3170 3170
      3170 3170 3170 3170 3170 3170 3170 3170 3170 3170 3170 3170 3170 3170 3170
      3170 3170 3170 3170 3170 3170 3170 3170 3170 3170 3170 3170 3170 3170 3170
      3170 3170 3170 3170 3170 3170 3170 3170 3170 3170 3170 3170 3170 3170 3170
      3170 3170 3170 3170 3170 3170 3170 3170 3170 3170 3170 3170 3170 3170 3170
      3170 3170 3170 3170 3170 3170 3170 3170 3170 3170 3170 3170 3170 3170 3170
      3170 3170 3170 3170 3170 3170 3170 3170 3170 3170 3170 3170 3170 3170 3170
      3170 3170 3170 3170 3170 3170 3170 3170 3170 3170 3170 3170 3170 3170 3170
      3170 3170 3170 3170 3170 3170 3170 3170 3170 3170 3170 3170 3170 3170 3170
      3170 3170 3170 3170 3170 3170 3170 3170 3170 3170 3170 3170 3170 3170 3170
      3170 3170 3170 3170 3170 3170 3170 3170 3170 3170 3170 3170 3170 3170 3170
      3170 3170 3170 3170 3170 3170 3170 3170 3170 3170 3170 3170 3170 3170 3170
      3170 3170 3170 3170 3170 3170 3170 3170 3170 3170 3170 3170 3170 3170 3170
      3170 3170 3170 3170 3170 3170 3170 3170 3170 3170 3170 3170 3170 3170 3170
      3170 3170 3170 3170 3170 3170 3170 3170 3170 3170 3170 3170 3170 3170 3170
      3170 3170 3170 3170 3170 3170 3170 3170 3170 3170 3170 3170 3170 3170 3170
      3170 3170 3170 3170 3170 3170 3170 3170 3170 3170 3170 3170 3170 3170 3170
      3170 3170 3170 3170 3170 3170 3170 3170 3170 3170 3170 3170 3170 3170 3170
      3170 3170 3170 3170 3170 3170 3170 3170 3170 3170 3170 3170 3170 3170 3170
      3170 3170 3170 3170 3170 3170 3170 3170 3170 3170 3170 3170 3170 3170 3170
      3170 3170 3170 3170 3170 3170 3170 3170 3170 3170 3170 3170 3170 3170 3170
      3170 3170 3170 3170 3170 3170 3170 3170 3170 3170 3170 3170 3170 3170 3170
      3170 3170 3170 3170 3170 3170 3170 3170 3170 3170 3170 3170 3170 3170 3170
      3170 3170 3170 3170 3170 3170 3170 3170 3170 3170 3170 3170 3170 3170 3170
      3170 3170 3170 3170 3170 3170 3170 3170 3170 3170 3170 3170 3170 3170 3170
      3170 3170 3170 3170 3170 3170 3170 3170 3170 3170 3170 3170 3170 3170 3170
      3170 3170 3170 3170 3170 3170 3170 3170 3170 3170 3170 3170 3170 3170 3170
      3170 3170 3170 3170 3170 3170 3170 3170 3170 3170 3170 3170 3170 3170 3170
      3170 3170 3170 3170 3170 3170 3170 3170 3170 3170 3170 3170 3170 3170 3170
      3170 3170 3170 3170 3170 3170 3170 3170 3170 3170 3170 3170 3170 3170 3170
      3170 3170 3170 3170 3170 3170 3170 3170 3170 3170 3170 3170 3170 3170 3170
      3170 3170 3170 3170 3170 3170 3170 3170 3170 3170 3170 3170 3170 3170 3170
      3170 3170 3170 3170 3170 3170 3170 3170 3170 3170 3170 3170 3170 3170 3170
      3170 3170 3170 3170 3170 3170 3170 3170 3170 3170 3170 3170 3170 3170 3170
      3170 3170 3170 3170 3170 3170 3170 3170 3170 3170 3170 3170 3170 3170 3170
      3170 3170 3170 3170 3170 3170 3170 3170 3170 3170 3170 3170 3170 3170 3170
      3170 3170 3170 3170 3170 3170 3170 3170 3170 3170 3170 3170 3170 3170 3170
      3170 3170 3170 3170 3170 3170 3170 3170 3170 3170 3170 3170 3170 3170 3170
      3170 3170 3170 3170 3170 3170 3170 3170 3170 3170 3170 3170 3170 3170 3170
      3170 3170 3170 3170 3170 3170 3170 3170 3170 3170 3170 3170 3170 3170 3170
      3170 3170 3170 3170 3170 3170 3170 3170 3170 3170 3170 3170 3170 3170 3170
      3170 3170 3170 3170 3170 3170 3170 3170 3170 3170 3170 3170 3170 3170 3170
      3170 3170 3170 3170 3170 3170 3170 3170 3170 3170 3170 3170 3170 3170 3170
      3170 3170 3170 3170 3170 3170 3170 3170 3170 3170 3170 3170 3170 3170 3170
      3170 3170 3170 3170 3170 3170 3170 3170 3170 3170 3170 3170 3170 3170 3170
      3170 3170 3170 3170 3170 3170 3170 3170 3170 3170 3170 3170 3170 3170 3170
      3170 3170 3170 3170 3170 3170 3170 3170 3170 3170 3170 3170 3170 3170 3170
      3170 3170 3170 3170 3170 3170 3170 3170 3170 3170 3170 3170 3170 3170 3170
      3170 3170 3170 3170 3170 3170 3170 3170 3170 3170 3170 3170 3170 3170 3170
      )
    )
    (tilemap
      (solid #f)
      (z-pos 100)
      (name "Foreground")
      (width 15)
      (height 110)
      (tiles
      0 0 0 0 0 0 0 0 0 0 0 0 0 0 0
      0 0 0 0 0 0 0 0 0 0 0 0 0 0 0
      0 0 0 0 0 0 0 0 0 0 0 0 0 0 0
      0 0 0 0 0 0 0 0 0 0 0 0 0 0 0
      0 0 0 0 0 0 0 0 0 0 0 0 0 0 0
      0 0 0 0 0 0 0 0 0 0 0 0 0 0 0
      0 0 0 0 0 0 0 0 0 0 0 0 0 0 0
      0 0 0 0 0 0 0 0 0 0 0 0 0 0 0
      0 0 0 0 0 0 0 0 0 0 0 0 0 0 0
      0 0 0 0 0 0 0 0 0 0 0 0 0 0 0
      0 0 0 0 0 0 0 0 0 0 0 0 0 0 0
      0 0 0 0 0 0 0 0 0 0 0 0 0 0 0
      0 0 0 0 0 0 0 0 0 0 0 0 0 0 0
      0 0 0 0 0 0 0 0 0 0 0 0 0 0 0
      0 0 0 0 0 0 0 0 0 0 0 0 0 0 0
      0 0 0 0 0 0 0 0 0 0 0 0 0 0 0
      0 0 0 0 0 0 0 0 0 0 0 0 0 0 0
      0 0 0 0 0 0 0 0 0 0 0 0 0 0 0
      0 0 0 0 0 0 0 0 0 0 0 0 0 0 0
      0 0 0 0 0 0 0 0 0 0 0 0 0 0 0
      0 0 0 0 0 0 0 0 0 0 0 0 0 0 0
      0 0 0 0 0 0 0 0 0 0 0 0 0 0 0
      0 0 0 0 0 0 0 0 0 0 0 0 0 0 0
      0 0 0 0 0 0 0 0 0 0 0 0 0 0 0
      0 0 0 0 0 0 0 0 0 0 0 0 0 0 0
      0 0 0 0 0 0 0 0 0 0 0 0 0 0 0
      0 0 0 0 0 0 0 0 0 0 0 0 0 0 0
      0 0 0 0 0 0 0 0 0 0 0 0 0 0 0
      0 0 0 0 0 0 0 0 0 0 0 0 0 0 0
      0 0 0 0 0 0 0 0 0 0 0 0 0 0 0
      0 0 0 0 0 0 0 0 0 0 0 0 0 0 0
      0 0 0 0 0 0 0 0 0 0 0 0 0 0 0
      0 0 0 0 0 0 0 0 0 0 0 0 0 0 0
      0 0 0 0 0 0 0 0 0 0 0 0 0 0 0
      0 0 0 0 0 0 0 0 0 0 0 0 0 0 0
      0 0 0 0 0 0 0 0 0 0 0 0 0 0 0
      0 0 0 0 0 0 0 0 0 0 0 0 0 0 0
      0 0 0 0 0 0 0 0 0 0 0 0 0 0 0
      0 0 0 0 0 0 0 0 0 0 0 0 0 0 0
      0 0 0 0 0 0 0 0 0 0 0 0 0 0 0
      0 0 0 0 0 0 0 0 0 0 0 0 0 0 0
      0 0 0 0 0 0 0 0 0 0 0 0 0 0 0
      0 0 0 0 0 0 0 0 0 0 0 0 0 0 0
      0 0 0 0 0 0 0 0 0 0 0 0 0 0 0
      0 0 0 0 0 0 0 0 0 0 0 0 0 0 0
      0 0 0 0 0 0 0 0 0 0 0 0 0 0 0
      0 0 0 0 0 0 0 0 0 0 0 0 0 0 0
      0 0 0 0 0 0 0 0 0 0 0 0 0 0 0
      0 0 0 0 0 0 0 0 0 0 0 0 0 0 0
      0 0 0 0 0 0 0 0 0 0 0 0 0 0 0
      0 0 0 0 0 0 0 0 0 0 0 0 0 0 0
      0 0 0 0 0 0 0 0 0 0 0 0 0 0 0
      0 0 0 0 0 0 0 0 0 0 0 0 0 0 0
      0 0 0 0 0 0 0 0 0 0 0 0 0 0 0
      0 0 0 0 0 0 0 0 0 0 0 0 0 0 0
      0 0 0 0 0 0 0 0 0 0 0 0 0 0 0
      0 0 0 0 0 0 0 0 0 0 0 0 0 0 0
      0 0 0 0 0 0 0 0 0 0 0 0 0 0 0
      0 0 0 0 0 0 0 0 0 0 0 0 0 0 0
      0 0 0 0 0 0 0 0 0 0 0 0 0 0 0
      0 0 0 0 0 0 0 0 0 0 0 0 0 0 0
      0 0 0 0 0 0 0 0 0 0 0 0 0 0 0
      0 0 0 0 0 0 0 0 0 0 0 0 0 0 0
      0 0 0 0 0 0 0 0 0 0 0 0 0 0 0
      0 0 0 0 0 0 0 0 0 0 0 0 0 0 0
      0 0 0 0 0 0 0 0 0 0 0 0 0 0 0
      0 0 0 0 0 0 0 0 0 0 0 0 0 0 0
      0 0 0 0 0 0 0 0 0 0 0 0 0 0 0
      0 0 0 0 0 0 0 0 0 0 0 0 0 0 0
      0 0 0 0 0 0 0 0 0 0 0 0 0 0 0
      0 0 0 0 0 0 0 0 0 0 0 0 0 0 0
      0 0 0 0 0 0 0 0 0 0 0 0 0 0 0
      0 0 0 0 0 0 0 0 0 0 0 0 0 0 0
      0 0 0 0 0 0 0 0 0 0 0 0 0 0 0
      0 0 0 0 0 0 0 0 0 0 0 0 0 0 0
      0 0 0 0 0 0 0 0 0 0 0 0 0 0 0
      0 0 0 0 0 0 0 0 0 0 0 0 0 0 0
      0 0 0 0 0 0 0 0 0 0 0 0 0 0 0
      0 0 0 0 0 0 0 0 0 0 0 0 0 0 0
      0 0 0 0 0 0 0 0 0 0 0 0 0 0 0
      0 0 0 0 0 0 0 0 0 0 0 0 0 0 0
      0 0 0 0 0 0 0 0 0 0 0 0 0 0 0
      0 0 0 0 0 0 0 0 0 0 0 0 0 0 0
      0 0 0 0 0 0 0 0 0 0 0 0 0 0 0
      0 0 0 0 0 0 0 0 0 0 0 0 0 0 0
      0 0 0 0 0 0 0 0 0 0 0 0 0 0 0
      0 0 0 0 0 0 0 0 0 0 0 0 0 0 0
      0 0 0 0 0 0 0 0 0 0 0 0 0 0 0
      0 0 0 0 0 0 0 0 0 0 0 0 0 0 0
      0 0 0 0 0 0 0 0 0 0 0 0 0 0 0
      0 0 0 0 0 0 0 0 0 0 0 0 0 0 0
      0 0 0 0 0 0 0 0 0 0 0 0 0 0 0
      0 0 0 0 0 0 0 0 0 0 0 0 0 0 0
      0 0 0 0 0 0 0 0 0 0 0 0 0 0 0
      0 0 0 0 0 0 0 0 0 0 0 0 0 0 0
      0 0 0 0 0 0 0 0 0 0 0 0 0 0 0
      0 0 0 0 0 0 0 0 0 0 0 0 0 0 0
      0 0 0 0 0 0 0 0 0 0 0 0 0 0 0
      0 0 0 0 0 0 0 0 0 0 0 0 0 0 0
      0 0 0 0 0 0 0 0 0 0 0 0 0 0 0
      0 0 0 0 0 0 0 0 0 0 0 0 0 0 0
      0 0 0 0 0 0 0 0 0 0 0 0 0 0 0
      0 0 0 0 0 0 0 0 0 0 0 0 0 0 0
      0 0 0 0 0 0 0 0 0 0 0 0 0 0 0
      0 0 0 0 0 0 0 0 0 0 0 0 0 0 0
      0 0 0 0 0 0 0 0 0 0 0 0 0 0 0
      0 0 0 0 0 0 0 0 0 0 0 0 0 0 0
      0 0 0 0 0 0 0 0 0 0 0 0 0 0 0
      0 0 0 0 0 0 0 0 0 0 0 0 0 0 0
      0 0 0 0 0 0 0 0 0 0 0 0 0 0 0
      )
    )
    (tilemap
      (solid #t)
      (z-pos 0)
      (name "Interactive")
      (width 15)
      (height 110)
      (tiles
      3170 3185 3186 3170 3170 3170 3170 3170 3170 3170 3170 3170 3170 3170 3170
      3170 3191 3192 3194 1311 0 0 0 1311 0 0 3193 3170 3170 3183
      3170 3170 3194 0 1311 133 133 133 1311 0 0 0 3193 3183 3184
      3170 3170 0 0 1311 0 0 0 1311 0 0 0 0 3170 3170
      3170 3170 3170 3170 3170 3170 2817 3170 3170 3170 3170 3170 3170 3170 3170
      0 0 0 0 0 0 0 0 0 0 0 0 0 0 0
      0 0 0 0 0 0 0 0 0 0 0 0 0 0 0
      0 0 0 0 0 0 0 0 0 0 0 0 0 0 0
      0 0 0 0 0 0 0 0 0 0 0 0 0 0 0
      0 0 0 0 0 0 0 0 0 0 0 0 0 0 0
      0 0 0 0 0 0 0 0 0 0 0 0 0 0 0
      0 0 0 0 0 0 0 0 0 0 0 0 0 0 0
      0 0 0 0 0 0 0 0 0 0 0 0 0 0 0
      0 0 0 0 0 0 0 0 0 0 0 0 0 0 0
      0 0 0 0 0 0 0 0 0 0 0 0 0 0 0
      0 0 0 0 0 0 0 0 0 0 0 0 0 0 0
      0 0 0 0 0 0 0 0 0 0 0 0 0 0 0
      0 0 0 0 0 0 0 0 0 0 0 0 0 0 0
      0 0 0 0 0 0 0 0 0 0 0 0 0 0 0
      0 0 0 0 0 0 0 0 0 0 0 0 3187 3170 3170
      0 0 0 0 0 0 0 0 0 0 0 3187 3170 3170 3170
      0 0 0 0 0 0 0 0 0 0 3187 3183 3184 3170 3170
      0 0 0 0 0 0 0 0 0 3187 3170 3170 3183 3184 3170
      0 0 0 0 0 0 0 0 3187 3170 3170 3185 3186 3170 3170
      0 0 0 0 0 0 0 0 3170 3170 3170 3191 3192 3170 3170
      0 0 0 0 0 0 0 0 2822 3170 3170 3170 3170 3170 3170
      0 0 0 0 0 0 0 0 0 0 0 0 0 0 0
      0 0 0 0 0 0 0 0 0 0 0 0 0 0 0
      0 0 0 0 0 0 0 0 0 0 0 0 0 0 0
      0 0 0 0 0 0 0 0 0 0 0 0 0 0 0
      0 0 0 0 0 0 1628 1629 0 0 0 0 0 0 0
      0 0 0 0 0 0 1630 1631 0 0 0 0 0 0 0
      0 0 3170 3170 0 0 3183 3184 0 0 0 0 0 0 0
      0 0 3170 3170 0 0 3170 3170 0 0 0 0 0 0 0
      0 0 3183 3184 0 0 3170 3170 0 0 0 0 0 0 0
      0 0 3170 3170 0 0 3170 3170 0 0 0 0 0 0 0
      0 0 3170 3170 0 0 3183 3184 0 0 0 0 0 0 0
      0 0 3183 3184 0 0 3170 3170 0 0 0 0 0 0 0
      0 0 3170 3170 0 0 3170 3170 0 0 0 0 0 0 0
      0 0 2822 2824 0 0 2822 2824 0 0 0 0 0 0 0
      0 0 0 0 0 0 0 0 0 0 3183 3184 0 0 0
      0 0 0 0 0 0 0 0 0 0 3170 3170 0 0 0
      0 0 0 0 0 0 0 0 0 0 3170 3170 0 0 0
      0 0 0 0 0 0 0 0 0 0 3170 3170 0 0 0
      3189 0 0 0 0 0 0 0 0 0 2822 2824 0 0 0
      3190 0 0 0 0 0 0 0 0 0 0 0 0 0 0
      3170 0 0 0 0 0 0 0 0 0 0 0 0 0 0
      3170 0 0 0 0 0 0 0 0 0 0 0 0 0 0
      3184 0 0 0 0 0 0 0 0 0 0 0 0 0 0
      3184 0 0 0 0 0 0 0 0 0 3183 3184 0 0 0
      3170 0 0 0 0 0 0 0 0 0 3170 3170 0 0 0
      3170 0 0 0 0 0 0 0 0 0 3170 3170 0 0 0
      3170 0 0 0 0 0 0 0 0 0 3170 3170 0 0 0
      2824 0 0 0 0 0 0 0 0 0 2822 2824 0 0 0
      0 0 0 0 0 0 0 0 0 0 0 0 0 0 0
      0 0 0 0 0 0 0 0 0 0 0 0 0 0 0
      0 0 0 0 0 0 0 0 0 0 0 0 0 0 0
      0 0 0 0 0 0 0 0 0 0 0 0 0 0 0
      0 0 0 0 0 0 0 0 0 0 0 3170 3183 3184 3170
      0 0 0 0 0 0 0 0 0 0 0 3170 3170 3170 3170
      0 0 0 0 0 0 0 0 0 0 0 3185 3186 3170 3170
      0 0 0 0 0 0 0 0 0 0 0 3191 3192 3170 3170
      0 0 0 0 0 0 0 0 0 0 0 3170 3170 3170 3170
      0 0 0 0 0 0 0 0 0 0 0 3170 3170 3170 3170
      0 0 0 3170 0 0 0 0 0 0 0 3170 3170 3185 3186
      0 0 0 0 0 0 0 0 0 0 0 3170 3170 3191 3192
      0 0 0 0 0 0 0 0 0 0 0 3170 3170 3170 3170
      0 0 0 0 0 0 0 0 0 0 0 2822 3170 3170 0
      0 0 0 0 0 0 0 0 0 0 0 0 0 0 0
      0 0 0 0 0 0 0 0 0 0 0 0 0 0 0
      3176 0 0 0 0 0 0 0 0 0 0 0 0 0 0
      2824 0 0 0 0 0 0 0 0 0 0 0 0 3182 3182
      0 0 0 0 0 0 0 0 0 0 0 0 0 0 0
      0 0 0 0 0 0 0 0 0 0 0 0 0 0 0
      0 0 0 0 0 0 0 0 0 0 0 0 0 0 0
      0 0 0 0 0 0 0 0 0 0 0 0 0 0 0
      0 0 3176 0 0 3176 0 0 0 0 0 0 0 0 0
      0 0 3170 3170 3170 3170 0 0 0 0 0 0 0 0 0
      0 0 3185 3186 3170 3170 0 0 0 0 0 0 0 0 0
      0 0 3191 3192 3170 3170 0 0 0 0 0 0 0 0 0
      0 0 3170 3170 3170 3170 0 0 0 0 0 0 0 0 0
      0 0 2822 3170 3170 2824 0 0 0 0 0 0 0 0 0
      0 0 0 0 0 0 0 0 0 0 0 0 0 0 0
      0 0 0 0 0 0 0 0 0 0 0 3170 0 0 0
      0 0 0 0 0 0 0 0 0 0 3189 3189 0 0 0
      0 0 0 0 0 0 0 0 0 0 3190 3190 0 0 0
      0 0 0 0 0 0 0 0 0 0 2822 2824 0 0 0
      0 0 0 0 0 0 0 0 0 0 0 0 0 0 0
      0 0 0 0 0 0 0 0 0 0 0 0 0 0 0
      0 0 0 0 0 0 0 0 0 0 0 0 0 0 0
      0 0 0 0 0 0 0 0 0 0 0 3170 0 0 0
      0 0 0 0 0 0 0 0 0 0 3189 3189 0 0 0
      0 0 0 0 0 0 0 0 0 0 3190 3190 0 0 0
      0 0 0 0 0 0 0 0 0 0 2822 2824 0 0 0
      0 0 0 0 0 0 0 0 0 0 0 0 0 0 0
      0 0 0 0 0 0 0 0 0 0 0 0 0 0 0
      0 0 0 0 0 0 0 0 0 0 0 0 0 0 0
      0 0 0 0 0 0 0 0 0 0 0 0 0 0 0
      0 0 0 0 0 0 0 0 0 0 0 0 0 0 0
      0 0 0 0 0 0 0 0 0 0 0 0 81 3170 3170
      0 0 0 0 0 0 0 0 0 0 0 0 0 3170 3170
      0 0 0 0 0 0 0 0 0 0 0 0 0 3170 3170
      0 0 0 0 0 0 0 0 0 0 0 0 0 3185 3186
      0 0 0 0 0 0 0 0 0 0 0 0 0 3191 3192
      0 0 0 0 0 3187 3189 0 0 0 0 0 0 3170 3170
      0 0 0 0 3187 3170 3190 0 0 0 0 0 0 3170 3170
      0 0 0 3187 3170 3170 3189 0 0 0 0 0 0 3170 3170
      0 0 3187 3170 3185 3186 3190 0 0 0 0 0 0 3185 3186
      0 3187 3170 3170 3191 3192 3189 0 0 0 0 0 0 3191 3192
      3183 3184 3183 3184 3183 3184 3190 0 0 0 0 0 0 3170 3170
      )
    )
    (tilemap
      (solid #f)
      (z-pos -110)
      (name "white")
      (width 15)
      (height 110)
      (tiles
      2032 2032 2032 2032 2032 2032 2032 2032 2032 2032 2032 2032 2032 2032 2032
      2032 2032 2032 2032 2032 2032 2032 2032 2032 2032 2032 2032 2032 2032 2032
      2032 2032 2032 2032 2032 2032 2032 2032 2032 2032 2032 2032 2032 2032 2032
      2032 2032 2032 2032 2032 2032 2032 2032 2032 2032 2032 2032 2032 2032 2032
      2032 2032 2032 2032 2032 2032 2032 2032 2032 2032 2032 2032 2032 2032 2032
      2032 2032 2032 2032 2032 2032 2032 2032 2032 2032 2032 2032 2032 2032 2032
      2032 2032 2032 2032 2032 2032 2032 2032 2032 2032 2032 2032 2032 2032 2032
      2032 2032 2032 2032 2032 2032 2032 2032 2032 2032 2032 2032 2032 2032 2032
      2032 2032 2032 2032 2032 2032 2032 2032 2032 2032 2032 2032 2032 2032 2032
      2032 2032 2032 2032 2032 2032 2032 2032 2032 2032 2032 2032 2032 2032 2032
      2032 2032 2032 2032 2032 2032 2032 2032 2032 2032 2032 2032 2032 2032 2032
      2032 2032 2032 2032 2032 2032 2032 2032 2032 2032 2032 2032 2032 2032 2032
      2032 2032 2032 2032 2032 2032 2032 2032 2032 2032 2032 2032 2032 2032 2032
      2032 2032 2032 2032 2032 2032 2032 2032 2032 2032 2032 2032 2032 2032 2032
      2032 2032 2032 2032 2032 2032 2032 2032 2032 2032 2032 2032 2032 2032 2032
      2032 2032 2032 2032 2032 2032 2032 2032 2032 2032 2032 2032 2032 2032 2032
      2032 2032 2032 2032 2032 2032 2032 2032 2032 2032 2032 2032 2032 2032 2032
      2032 2032 2032 2032 2032 2032 2032 2032 2032 2032 2032 2032 2032 2032 2032
      2032 2032 2032 2032 2032 2032 2032 2032 2032 2032 2032 2032 2032 2032 2032
      2032 2032 2032 2032 2032 2032 2032 2032 2032 2032 2032 2032 2032 2032 2032
      2032 2032 2032 2032 2032 2032 2032 2032 2032 2032 2032 2032 2032 2032 2032
      2032 2032 2032 2032 2032 2032 2032 2032 2032 2032 2032 2032 2032 2032 2032
      2032 2032 2032 2032 2032 2032 2032 2032 2032 2032 2032 2032 2032 2032 2032
      2032 2032 2032 2032 2032 2032 2032 2032 2032 2032 2032 2032 2032 2032 2032
      2032 2032 2032 2032 2032 2032 2032 2032 2032 2032 2032 2032 2032 2032 2032
      2032 2032 2032 2032 2032 2032 2032 2032 2032 2032 2032 2032 2032 2032 2032
      2032 2032 2032 2032 2032 2032 2032 2032 2032 2032 2032 2032 2032 2032 2032
      2032 2032 2032 2032 2032 2032 2032 2032 2032 2032 2032 2032 2032 2032 2032
      2032 2032 2032 2032 2032 2032 2032 2032 2032 2032 2032 2032 2032 2032 2032
      2032 2032 2032 2032 2032 2032 2032 2032 2032 2032 2032 2032 2032 2032 2032
      2032 2032 2032 2032 2032 2032 2032 2032 2032 2032 2032 2032 2032 2032 2032
      2032 2032 2032 2032 2032 2032 2032 2032 2032 2032 2032 2032 2032 2032 2032
      2032 2032 2032 2032 2032 2032 2032 2032 2032 2032 2032 2032 2032 2032 2032
      2032 2032 2032 2032 2032 2032 2032 2032 2032 2032 2032 2032 2032 2032 2032
      2032 2032 2032 2032 2032 2032 2032 2032 2032 2032 2032 2032 2032 2032 2032
      2032 2032 2032 2032 2032 2032 2032 2032 2032 2032 2032 2032 2032 2032 2032
      2032 2032 2032 2032 2032 2032 2032 2032 2032 2032 2032 2032 2032 2032 2032
      2032 2032 2032 2032 2032 2032 2032 2032 2032 2032 2032 2032 2032 2032 2032
      2032 2032 2032 2032 2032 2032 2032 2032 2032 2032 2032 2032 2032 2032 2032
      2032 2032 2032 2032 2032 2032 2032 2032 2032 2032 2032 2032 2032 2032 2032
      2032 2032 2032 2032 2032 2032 2032 2032 2032 2032 2032 2032 2032 2032 2032
      2032 2032 2032 2032 2032 2032 2032 2032 2032 2032 2032 2032 2032 2032 2032
      2032 2032 2032 2032 2032 2032 2032 2032 2032 2032 2032 2032 2032 2032 2032
      2032 2032 2032 2032 2032 2032 2032 2032 2032 2032 2032 2032 2032 2032 2032
      2032 2032 2032 2032 2032 2032 2032 2032 2032 2032 2032 2032 2032 2032 2032
      2032 2032 2032 2032 2032 2032 2032 2032 2032 2032 2032 2032 2032 2032 2032
      2032 2032 2032 2032 2032 2032 2032 2032 2032 2032 2032 2032 2032 2032 2032
      2032 2032 2032 2032 2032 2032 2032 2032 2032 2032 2032 2032 2032 2032 2032
      2032 2032 2032 2032 2032 2032 2032 2032 2032 2032 2032 2032 2032 2032 2032
      2032 2032 2032 2032 2032 2032 2032 2032 2032 2032 2032 2032 2032 2032 2032
      2032 2032 2032 2032 2032 2032 2032 2032 2032 2032 2032 2032 2032 2032 2032
      2032 2032 2032 2032 2032 2032 2032 2032 2032 2032 2032 2032 2032 2032 2032
      2032 2032 2032 2032 2032 2032 2032 2032 2032 2032 2032 2032 2032 2032 2032
      2032 2032 2032 2032 2032 2032 2032 2032 2032 2032 2032 2032 2032 2032 2032
      2032 2032 2032 2032 2032 2032 2032 2032 2032 2032 2032 2032 2032 2032 2032
      2032 2032 2032 2032 2032 2032 2032 2032 2032 2032 2032 2032 2032 2032 2032
      2032 2032 2032 2032 2032 2032 2032 2032 2032 2032 2032 2032 2032 2032 2032
      2032 2032 2032 2032 2032 2032 2032 2032 2032 2032 2032 2032 2032 2032 2032
      2032 2032 2032 2032 2032 2032 2032 2032 2032 2032 2032 2032 2032 2032 2032
      2032 2032 2032 2032 2032 2032 2032 2032 2032 2032 2032 2032 2032 2032 2032
      2032 2032 2032 2032 2032 2032 2032 2032 2032 2032 2032 2032 2032 2032 2032
      2032 2032 2032 2032 2032 2032 2032 2032 2032 2032 2032 2032 2032 2032 2032
      2032 2032 2032 2032 2032 2032 2032 2032 2032 2032 2032 2032 2032 2032 2032
      2032 2032 2032 2032 2032 2032 2032 2032 2032 2032 2032 2032 2032 2032 2032
      2032 2032 2032 2032 2032 2032 2032 2032 2032 2032 2032 2032 2032 2032 2032
      2032 2032 2032 2032 2032 2032 2032 2032 2032 2032 2032 2032 2032 2032 2032
      2032 2032 2032 2032 2032 2032 2032 2032 2032 2032 2032 2032 2032 2032 2032
      2032 2032 2032 2032 2032 2032 2032 2032 2032 2032 2032 2032 2032 2032 2032
      2032 2032 2032 2032 2032 2032 2032 2032 2032 2032 2032 2032 2032 2032 2032
      2032 2032 2032 2032 2032 2032 2032 2032 2032 2032 2032 2032 2032 2032 2032
      2032 2032 2032 2032 2032 2032 2032 2032 2032 2032 2032 2032 2032 2032 2032
      2032 2032 2032 2032 2032 2032 2032 2032 2032 2032 2032 2032 2032 2032 2032
      2032 2032 2032 2032 2032 2032 2032 2032 2032 2032 2032 2032 2032 2032 2032
      2032 2032 2032 2032 2032 2032 2032 2032 2032 2032 2032 2032 2032 2032 2032
      2032 2032 2032 2032 2032 2032 2032 2032 2032 2032 2032 2032 2032 2032 2032
      2032 2032 2032 2032 2032 2032 2032 2032 2032 2032 2032 2032 2032 2032 2032
      2032 2032 2032 2032 2032 2032 2032 2032 2032 2032 2032 2032 2032 2032 2032
      2032 2032 2032 2032 2032 2032 2032 2032 2032 2032 2032 2032 2032 2032 2032
      2032 2032 2032 2032 2032 2032 2032 2032 2032 2032 2032 2032 2032 2032 2032
      2032 2032 2032 2032 2032 2032 2032 2032 2032 2032 2032 2032 2032 2032 2032
      2032 2032 2032 2032 2032 2032 2032 2032 2032 2032 2032 2032 2032 2032 2032
      2032 2032 2032 2032 2032 2032 2032 2032 2032 2032 2032 2032 2032 2032 2032
      2032 2032 2032 2032 2032 2032 2032 2032 2032 2032 2032 2032 2032 2032 2032
      2032 2032 2032 2032 2032 2032 2032 2032 2032 2032 2032 2032 2032 2032 2032
      2032 2032 2032 2032 2032 2032 2032 2032 2032 2032 2032 2032 2032 2032 2032
      2032 2032 2032 2032 2032 2032 2032 2032 2032 2032 2032 2032 2032 2032 2032
      2032 2032 2032 2032 2032 2032 2032 2032 2032 2032 2032 2032 2032 2032 2032
      2032 2032 2032 2032 2032 2032 2032 2032 2032 2032 2032 2032 2032 2032 2032
      2032 2032 2032 2032 2032 2032 2032 2032 2032 2032 2032 2032 2032 2032 2032
      2032 2032 2032 2032 2032 2032 2032 2032 2032 2032 2032 2032 2032 2032 2032
      2032 2032 2032 2032 2032 2032 2032 2032 2032 2032 2032 2032 2032 2032 2032
      2032 2032 2032 2032 2032 2032 2032 2032 2032 2032 2032 2032 2032 2032 2032
      2032 2032 2032 2032 2032 2032 2032 2032 2032 2032 2032 2032 2032 2032 2032
      2032 2032 2032 2032 2032 2032 2032 2032 2032 2032 2032 2032 2032 2032 2032
      2032 2032 2032 2032 2032 2032 2032 2032 2032 2032 2032 2032 2032 2032 2032
      2032 2032 2032 2032 2032 2032 2032 2032 2032 2032 2032 2032 2032 2032 2032
      2032 2032 2032 2032 2032 2032 2032 2032 2032 2032 2032 2032 2032 2032 2032
      2032 2032 2032 2032 2032 2032 2032 2032 2032 2032 2032 2032 2032 2032 2032
      2032 2032 2032 2032 2032 2032 2032 2032 2032 2032 2032 2032 2032 2032 2032
      2032 2032 2032 2032 2032 2032 2032 2032 2032 2032 2032 2032 2032 2032 2032
      2032 2032 2032 2032 2032 2032 2032 2032 2032 2032 2032 2032 2032 2032 2032
      2032 2032 2032 2032 2032 2032 2032 2032 2032 2032 2032 2032 2032 2032 2032
      2032 2032 2032 2032 2032 2032 2032 2032 2032 2032 2032 2032 2032 2032 2032
      2032 2032 2032 2032 2032 2032 2032 2032 2032 2032 2032 2032 2032 2032 2032
      2032 2032 2032 2032 2032 2032 2032 2032 2032 2032 2032 2032 2032 2032 2032
      2032 2032 2032 2032 2032 2032 2032 2032 2032 2032 2032 2032 2032 2032 2032
      2032 2032 2032 2032 2032 2032 2032 2032 2032 2032 2032 2032 2032 2032 2032
      2032 2032 2032 2032 2032 2032 2032 2032 2032 2032 2032 2032 2032 2032 2032
      2032 2032 2032 2032 2032 2032 2032 2032 2032 2032 2032 2032 2032 2032 2032
      2032 2032 2032 2032 2032 2032 2032 2032 2032 2032 2032 2032 2032 2032 2032
      )
    )
    (tilemap
      (solid #f)
      (z-pos -50)
      (name "bg-deco")
      (width 15)
      (height 110)
      (tiles
      0 0 0 0 0 0 0 0 0 0 0 0 0 0 0
      0 0 0 0 0 130 0 130 0 0 0 0 0 0 0
      0 0 0 0 0 129 0 129 0 0 0 0 0 0 0
      0 0 0 0 0 129 0 129 0 0 0 0 0 0 0
      0 0 0 0 0 0 3170 0 0 0 0 0 0 0 0
      0 0 0 0 0 0 0 0 0 0 0 0 0 0 0
      0 0 0 0 0 0 0 0 0 0 0 0 0 0 0
      0 0 0 0 0 0 0 0 0 0 0 0 0 0 0
      0 0 0 0 0 0 0 0 0 0 0 0 0 0 0
      0 0 0 0 0 0 0 0 0 0 0 0 0 0 0
      0 0 0 0 0 0 0 0 0 0 0 0 0 0 0
      0 0 0 0 0 0 0 0 0 0 0 0 0 0 0
      0 0 0 0 0 0 0 0 0 0 0 0 0 0 0
      0 0 0 0 0 0 0 0 0 0 0 0 0 0 0
      0 0 0 0 0 0 0 0 0 0 0 0 0 0 0
      0 0 0 0 0 0 0 0 0 0 0 0 0 0 0
      0 0 0 0 0 0 0 0 0 0 0 0 0 0 0
      0 0 0 0 0 0 0 0 0 0 0 0 0 0 0
      0 0 0 0 0 0 0 0 0 0 0 0 0 0 0
      0 0 0 0 0 0 0 0 0 0 0 0 0 0 0
      0 0 0 0 0 0 0 0 0 0 0 0 0 0 0
      0 0 0 0 0 0 0 0 0 0 0 0 0 0 0
      0 0 0 0 0 0 0 0 0 0 0 0 0 0 0
      0 0 0 0 0 0 0 0 0 0 0 0 0 0 0
      0 0 0 0 0 0 0 0 0 0 0 0 0 0 0
      0 0 0 0 0 0 0 0 3193 0 0 0 0 0 0
      0 0 0 0 0 0 0 0 0 0 0 0 0 0 0
      0 0 0 0 0 0 0 0 0 0 0 0 0 0 0
      0 0 0 0 0 0 0 0 0 0 0 0 0 0 0
      0 0 0 0 0 0 0 0 0 0 0 0 0 0 0
      0 0 0 0 0 0 0 0 0 0 0 0 0 0 0
      0 0 0 0 0 0 0 0 0 0 0 0 0 0 0
      0 0 0 0 0 0 0 0 0 0 0 0 0 0 0
      0 0 0 0 0 0 0 0 0 0 0 0 0 0 0
      0 0 0 0 0 0 0 0 0 0 0 0 0 0 0
      0 0 0 0 0 0 0 0 0 0 0 0 0 0 0
      0 0 0 0 0 0 0 0 0 0 0 0 0 0 0
      0 0 0 0 0 0 0 0 0 0 0 0 0 0 0
      0 0 0 0 0 0 0 0 0 0 0 0 0 0 0
      0 0 3193 3194 0 0 3193 3194 0 0 0 0 0 0 0
      0 0 0 0 0 0 0 0 0 0 0 0 0 0 0
      0 0 0 0 0 0 0 0 0 0 0 0 0 0 0
      0 0 0 0 0 0 0 0 0 0 0 0 0 0 0
      0 0 0 0 0 0 0 0 0 0 0 0 0 0 0
      0 0 0 0 0 0 0 0 0 0 3193 3194 0 0 0
      0 0 0 0 0 0 0 0 0 0 0 0 0 0 0
      0 0 0 0 0 0 0 0 0 0 0 0 0 0 0
      0 0 0 0 0 0 0 0 0 0 0 0 0 0 0
      0 0 0 0 0 0 0 0 0 0 0 0 0 0 0
      0 0 0 0 0 0 0 0 0 0 0 0 0 0 0
      0 0 0 0 0 0 0 0 0 0 0 0 0 0 0
      0 0 0 0 0 0 0 0 0 0 0 0 0 0 0
      0 0 0 0 0 0 0 0 0 0 0 0 0 0 0
      3194 0 0 0 0 0 0 0 0 0 3193 3194 0 0 0
      0 0 0 0 0 0 0 0 0 0 0 0 0 0 0
      0 0 0 0 0 0 0 0 0 0 0 0 0 0 0
      0 0 0 0 0 0 0 0 0 0 0 0 0 0 0
      0 0 0 0 0 0 0 0 0 0 0 0 0 0 0
      0 0 0 0 0 0 0 0 0 0 0 0 0 0 0
      0 0 0 0 0 0 0 0 0 0 0 0 0 0 0
      0 0 0 0 0 0 0 0 0 0 0 0 0 0 0
      0 0 0 0 0 0 0 0 0 0 0 0 0 0 0
      0 0 0 0 0 0 0 0 0 0 0 0 0 0 0
      0 0 0 0 0 0 0 0 0 0 0 0 0 0 0
      0 0 0 0 0 0 0 0 0 0 0 0 0 0 0
      0 0 0 0 0 0 0 0 0 0 0 0 0 0 0
      0 0 0 0 0 0 0 0 0 0 0 0 0 0 0
      0 0 0 0 0 0 0 0 0 0 0 3193 0 0 0
      0 0 0 0 0 0 0 0 0 0 0 0 0 0 0
      0 0 0 0 0 0 0 0 0 0 0 0 0 0 0
      0 0 0 0 0 0 0 0 0 0 0 0 0 0 0
      3178 0 0 0 0 0 0 0 0 0 0 0 0 0 0
      0 0 0 0 0 0 0 0 0 0 0 0 0 0 0
      0 0 0 0 0 0 0 0 0 0 0 0 0 0 0
      0 0 0 0 0 0 0 0 0 0 0 0 0 0 0
      0 0 0 0 0 0 0 0 0 0 0 0 0 0 0
      0 0 0 0 0 0 0 0 0 0 0 0 0 0 0
      0 0 0 0 0 0 0 0 0 0 0 0 0 0 0
      0 0 0 0 0 0 0 0 0 0 0 0 0 0 0
      0 0 0 0 0 0 0 0 0 0 0 0 0 0 0
      0 0 0 0 0 0 0 0 0 0 0 0 0 0 0
      0 0 3193 0 0 3194 0 0 0 0 0 0 0 0 0
      0 0 0 0 0 0 0 0 0 0 0 0 0 0 0
      0 0 0 0 0 0 0 0 0 0 0 0 0 0 0
      0 0 0 0 0 0 0 0 0 0 0 0 0 0 0
      0 0 0 0 0 0 0 0 0 0 0 0 0 0 0
      0 0 0 0 0 0 0 0 0 0 3193 3194 0 0 0
      0 0 0 0 0 0 0 0 0 0 0 0 0 0 0
      0 0 0 0 0 0 0 0 0 0 0 0 0 0 0
      0 0 0 0 0 0 0 0 0 0 0 0 0 0 0
      0 0 0 0 0 0 0 0 0 0 0 0 0 0 0
      0 0 0 0 0 0 0 0 0 0 0 0 0 0 0
      0 0 0 0 0 0 0 0 0 0 0 0 0 0 0
      0 0 0 0 0 0 0 0 0 0 3193 3194 0 0 0
      0 0 0 0 0 0 0 0 0 0 0 0 0 0 0
      0 0 0 0 0 0 0 0 0 0 0 0 0 0 0
      0 0 0 0 0 0 0 0 0 0 0 0 0 0 0
      0 0 0 0 0 0 0 0 0 0 0 0 0 0 0
      0 0 0 0 0 0 0 0 0 0 0 0 0 0 0
      0 0 0 0 0 0 0 0 0 0 0 0 0 0 0
      0 0 0 0 0 0 0 0 0 0 0 0 0 0 0
      0 0 0 0 0 0 0 0 0 0 0 0 0 0 0
      0 0 0 0 0 0 0 0 0 0 0 0 0 0 0
      0 0 0 0 0 0 0 0 0 0 0 0 0 0 0
      0 0 0 0 0 0 0 0 0 0 0 0 0 0 0
      0 0 0 0 0 0 0 0 0 0 0 0 0 0 0
      0 0 0 0 0 0 0 0 0 0 0 0 0 0 0
      0 0 0 0 0 0 0 0 0 0 0 0 0 0 0
      0 0 0 0 0 0 0 0 0 0 0 0 0 0 0
      0 0 0 0 0 0 0 0 0 0 0 0 0 0 0
      )
    )
    (tilemap
      (solid #f)
      (tint 0.45 0.55 0.8999998)
      (z-pos 2)
      (name "ladder")
      (width 15)
      (height 110)
      (tiles
      0 0 0 0 0 0 0 0 0 0 0 0 0 0 0
      0 0 0 0 0 0 0 0 0 0 0 0 0 0 0
      0 0 0 0 0 0 0 0 0 0 0 0 0 0 0
      0 0 0 0 0 0 0 0 0 0 0 0 0 0 0
      0 0 0 0 0 0 2047 0 0 0 0 0 0 0 0
      0 0 0 0 0 0 2048 0 0 0 0 0 0 0 0
      0 0 0 0 0 0 2048 0 0 0 0 0 0 0 0
      0 0 0 0 0 0 2048 0 0 0 0 0 0 0 0
      0 0 0 0 0 0 2048 0 0 0 0 0 0 0 0
      0 0 0 0 0 0 2049 0 0 0 0 0 0 0 0
      0 0 0 0 0 0 0 0 0 0 0 0 0 0 0
      0 0 0 0 0 0 0 0 0 0 0 0 0 0 0
      0 0 0 0 0 0 0 0 0 0 0 0 0 0 0
      0 0 0 0 0 0 0 0 0 0 0 0 0 0 0
      0 0 0 0 0 0 0 0 0 0 0 0 0 0 0
      0 0 0 0 0 0 0 0 0 0 0 0 0 0 0
      0 0 0 0 0 0 0 0 0 0 0 0 0 0 0
      0 0 0 0 0 0 0 0 0 0 0 0 0 0 0
      0 0 0 0 0 0 0 0 0 0 0 0 0 0 0
      0 0 0 0 0 0 0 0 0 0 0 0 0 0 0
      0 0 0 0 0 0 0 0 0 0 0 0 0 0 0
      0 0 0 0 0 0 0 0 0 0 0 0 0 0 0
      0 0 0 0 0 0 0 0 0 0 0 0 0 0 0
      0 0 0 0 0 0 0 0 0 0 0 0 0 0 0
      0 0 0 0 0 0 0 0 0 0 0 0 0 0 0
      0 0 0 0 0 0 0 0 0 0 0 0 0 0 0
      0 0 0 0 0 0 0 0 0 0 0 0 0 0 0
      0 0 0 0 0 0 0 0 0 0 0 0 0 0 0
      0 0 0 0 0 0 0 0 0 0 0 0 0 0 0
      0 0 0 0 0 0 0 0 0 0 0 0 0 0 0
      0 0 0 0 0 0 0 0 0 0 0 0 0 0 0
      0 0 0 0 0 0 0 0 0 0 0 0 0 0 0
      0 0 0 0 0 0 0 0 0 0 0 0 0 0 0
      0 0 0 0 0 0 0 0 0 0 0 0 0 0 0
      0 0 0 0 0 0 0 0 0 0 0 0 0 0 0
      0 0 0 0 0 0 0 0 0 0 0 0 0 0 0
      0 0 0 0 0 0 0 0 0 0 0 0 0 0 0
      0 0 0 0 0 0 0 0 0 0 0 0 0 0 0
      0 0 0 0 0 0 0 0 0 0 0 0 0 0 0
      0 0 0 0 0 0 0 0 0 0 0 0 0 0 0
      0 0 0 0 0 0 0 0 0 0 0 0 0 0 0
      0 0 0 0 0 0 0 0 0 0 0 0 0 0 0
      0 0 0 0 0 0 0 0 0 0 0 0 0 0 0
      0 0 0 0 0 0 0 0 0 0 0 0 0 0 0
      0 0 0 0 0 0 0 0 0 0 0 0 0 0 0
      0 0 0 0 0 0 0 0 0 0 0 0 0 0 0
      0 0 0 0 0 0 0 0 0 0 0 0 0 0 0
      0 0 0 0 0 0 0 0 0 0 0 0 0 0 0
      0 0 0 0 0 0 0 0 0 0 0 0 0 0 0
      0 0 0 0 0 0 0 0 0 0 0 0 0 0 0
      0 0 0 0 0 0 0 0 0 0 0 0 0 0 0
      0 0 0 0 0 0 0 0 0 0 0 0 0 0 0
      0 0 0 0 0 0 0 0 0 0 0 0 0 0 0
      0 0 0 0 0 0 0 0 0 0 0 0 0 0 0
      0 0 0 0 0 0 0 0 0 0 0 0 0 0 0
      0 0 0 0 0 0 0 0 0 0 0 0 0 0 0
      0 0 0 0 0 0 0 0 0 0 0 0 0 0 0
      0 0 0 0 0 0 0 0 0 0 0 0 0 0 0
      0 0 0 0 0 0 0 0 0 0 0 0 0 0 0
      0 0 0 0 0 0 0 0 0 0 0 0 0 0 0
      0 0 0 0 0 0 0 0 0 0 0 0 0 0 0
      0 0 0 0 0 0 0 0 0 0 0 0 0 0 0
      0 0 0 0 0 0 0 0 0 0 0 0 0 0 0
      0 0 0 0 0 0 0 0 0 0 0 0 0 0 0
      0 0 0 0 0 0 0 0 0 0 0 0 0 0 0
      0 0 0 0 0 0 0 0 0 0 0 0 0 0 0
      0 0 0 0 0 0 0 0 0 0 0 0 0 0 0
      0 0 0 0 0 0 0 0 0 0 0 0 0 0 0
      0 0 0 0 0 0 0 0 0 0 0 0 0 0 0
      0 0 0 0 0 0 0 0 0 0 0 0 0 0 0
      0 0 0 0 0 0 0 0 0 0 0 0 0 0 0
      0 0 0 0 0 0 0 0 0 0 0 0 0 0 0
      0 0 0 0 0 0 0 0 0 0 0 0 0 0 0
      0 0 0 0 0 0 0 0 0 0 0 0 0 0 0
      0 0 0 0 0 0 0 0 0 0 0 0 0 0 0
      0 0 0 0 0 0 0 0 0 0 0 0 0 0 0
      0 0 0 0 0 0 0 0 0 0 0 0 0 0 0
      0 0 0 0 0 0 0 0 0 0 0 0 0 0 0
      0 0 0 0 0 0 0 0 0 0 0 0 0 0 0
      0 0 0 0 0 0 0 0 0 0 0 0 0 0 0
      0 0 0 0 0 0 0 0 0 0 0 0 0 0 0
      0 0 0 0 0 0 0 0 0 0 0 0 0 0 0
      0 0 0 0 0 0 0 0 0 0 0 0 0 0 0
      0 0 0 0 0 0 0 0 0 0 0 0 0 0 0
      0 0 0 0 0 0 0 0 0 0 0 0 0 0 0
      0 0 0 0 0 0 0 0 0 0 0 0 0 0 0
      0 0 0 0 0 0 0 0 0 0 0 0 0 0 0
      0 0 0 0 0 0 0 0 0 0 0 0 0 0 0
      0 0 0 0 0 0 0 0 0 0 0 0 0 0 0
      0 0 0 0 0 0 0 0 0 0 0 0 0 0 0
      0 0 0 0 0 0 0 0 0 0 0 0 0 0 0
      0 0 0 0 0 0 0 0 0 0 0 0 0 0 0
      0 0 0 0 0 0 0 0 0 0 0 0 0 0 0
      0 0 0 0 0 0 0 0 0 0 0 0 0 0 0
      0 0 0 0 0 0 0 0 0 0 0 0 0 0 0
      0 0 0 0 0 0 0 0 0 0 0 0 0 0 0
      0 0 0 0 0 0 0 0 0 0 0 0 0 0 0
      0 0 0 0 0 0 0 0 0 0 0 0 0 0 0
      0 0 0 0 0 0 0 0 0 0 0 0 0 0 0
      0 0 0 0 0 0 0 0 0 0 0 0 0 0 0
      0 0 0 0 0 0 0 0 0 0 0 0 0 0 0
      0 0 0 0 0 0 0 0 0 0 0 0 0 0 0
      0 0 0 0 0 0 0 0 0 0 0 0 0 0 0
      0 0 0 0 0 0 0 0 0 0 0 0 0 0 0
      0 0 0 0 0 0 0 0 0 0 0 0 0 0 0
      0 0 0 0 0 0 0 0 0 0 0 0 0 0 0
      0 0 0 0 0 0 0 0 0 0 0 0 0 0 0
      0 0 0 0 0 0 0 0 0 0 0 0 0 0 0
      0 0 0 0 0 0 0 0 0 0 0 0 0 0 0
      0 0 0 0 0 0 0 0 0 0 0 0 0 0 0
      )
    )
    (trampoline
      (portable #f)
      (x 127.75)
      (y 2430.75)
    )
    (trampoline
      (portable #f)
      (x 95.25)
      (y 2432)
    )
  )
)
