(supertux-level
  (version 2)
  (name (_ "Stealing Another Spaceship on Venus"))
  (author "Miksy91")
  (license "CC-BY-SA 4.0 International")
  (sector
    (name "main")
    (gravity 21)
    (ambient-light
      (color 1 1 1)
    )
    (background
      (speed 0.5)
      (image-top "images/background/black_800px.png")
      (image "images/background/black_800px.png")
      (image-bottom "images/background/black_800px.png")
      (z-pos -150)
    )
    (camera
      (name "Camera")
      (mode "normal")
    )
    (decal
      (z-pos -50)
      (sprite "images/decal/alien_final.png")
      (x 3185)
      (y -42.5)
    )
    (ghostflame
      (direction "left")
      (sprite "images/creatures/flame/ghostflame.sprite")
      (x 2576.25)
      (y 461.75)
    )
    (mrbomb
      (direction "left")
      (x 1688.5)
      (y 504.75)
    )
    (mrbomb
      (direction "left")
      (x 1590.5)
      (y 509.25)
    )
    (mrbomb
      (direction "left")
      (x 1491)
      (y 502.75)
    )
    (mrbomb
      (direction "left")
      (x 680.75)
      (y 476)
    )
    (music
      (file "/music/misc/halloween_1.ogg")
    )
    (path
      (name "gen15456860912070844037824")
      (path
        (mode "oneshot")
        (node
          (x 0)
          (y 0)
        )
      )
    )
    (sequencetrigger
      (sequence "fireworks")
      (width 319.5)
      (height 549.5)
      (x 3136.75)
      (y 124.5)
    )
    (short_fuse
      (direction "left")
      (x 2451.75)
      (y 576.25)
    )
    (short_fuse
      (direction "left")
      (x 2519.25)
      (y 576.25)
    )
    (short_fuse
      (direction "left")
      (x 2569.25)
      (y 575)
    )
    (short_fuse
      (direction "left")
      (x 2618)
      (y 573.75)
    )
    (short_fuse
      (direction "left")
      (x 2661.75)
      (y 573.75)
    )
    (spawnpoint
      (name "main")
      (x 105.5391)
      (y 338.5786)
    )
    (spidermite
      (direction "left")
      (x 429.1)
      (y 541.6)
    )
    (tilemap
      (solid #f)
      (z-pos -100)
      (name "Background")
      (width 115)
      (height 25)
      (tiles
      0 0 0 0 0 0 0 0 0 0 0 0 0 0 0 0 0 0 0 0 0 0 0 0 0 0 0 0 0 0 0 0 0 0 0 0 0 0 0 0 0 0 0 0 0 0 0 0 0 0 0 0 0 0 0 0 0 0 0 0 0 0 0 0 0 0 0 0 0 0 0 0 0 0 0 0 0 0 0 0 0 0 0 0 0 0 0 0 0 0 0 0 0 0 0 0 0 0 0 0 0 0 0 0 0 0 0 0 0 0 0 0 0 0 0
      0 0 0 0 0 0 0 0 0 0 0 0 0 0 0 0 0 0 0 0 0 0 0 0 0 0 0 0 0 0 0 0 0 0 0 0 0 0 0 0 0 0 0 0 0 0 0 0 0 0 0 0 0 0 0 0 0 0 0 0 0 0 0 0 0 0 0 0 0 0 0 0 0 0 0 0 0 0 0 0 0 0 0 0 0 0 0 0 0 0 0 0 0 0 0 0 0 0 0 0 0 0 0 0 0 0 0 0 0 0 0 0 0 0 0
      0 0 0 0 0 0 0 0 0 0 0 0 0 0 0 0 0 0 0 0 0 0 0 0 0 0 0 0 0 0 0 0 0 0 0 0 0 0 0 0 0 0 0 0 0 0 0 0 0 0 0 0 0 0 0 0 0 0 0 0 0 0 0 0 0 0 0 0 0 0 0 0 0 0 0 0 0 0 0 0 0 0 0 0 0 0 0 0 0 0 0 0 0 0 0 0 0 0 0 0 0 0 0 0 0 0 0 0 0 0 0 0 0 0 0
      0 0 0 0 0 0 0 0 0 0 0 0 0 0 0 0 0 0 0 0 0 0 0 0 0 0 0 0 0 0 0 0 0 0 0 0 0 0 0 0 0 0 0 0 0 0 0 0 0 0 0 0 0 0 0 0 0 0 0 0 0 0 0 0 0 0 0 0 0 0 0 0 0 0 0 0 0 0 0 0 0 0 0 0 0 0 0 0 0 0 0 0 0 0 0 0 0 0 0 0 0 0 0 0 0 0 0 0 0 0 0 0 0 0 0
      0 0 0 0 0 0 0 0 0 0 0 0 0 0 0 0 0 0 0 0 0 0 0 0 0 0 0 0 0 0 0 0 0 0 0 0 0 0 0 0 0 0 0 0 0 0 0 0 0 0 0 0 0 0 0 0 0 0 0 0 0 0 0 0 0 0 0 0 0 0 0 0 0 0 0 0 0 0 0 0 0 0 0 0 0 0 0 0 0 0 0 0 0 0 0 0 0 0 0 0 0 0 0 0 0 0 0 0 0 0 0 0 0 0 0
      0 0 0 0 0 0 0 0 0 0 0 0 0 0 0 0 0 0 0 0 0 0 0 0 0 0 0 0 0 0 0 0 0 0 0 0 0 0 0 0 0 0 0 0 0 0 0 0 0 0 0 0 0 0 0 0 0 0 0 0 0 0 0 0 0 0 0 0 0 0 0 0 0 0 0 0 0 0 0 0 0 0 0 0 0 0 0 0 0 0 0 0 0 0 0 0 0 0 0 0 0 0 0 0 0 0 0 0 0 0 0 0 0 0 0
      0 0 0 0 0 0 0 0 0 0 0 0 0 0 0 0 0 0 0 0 0 0 0 0 0 0 0 0 0 0 0 0 0 0 0 0 0 0 0 0 0 0 0 0 0 0 0 0 0 0 0 0 0 0 0 0 0 0 0 0 0 0 0 0 0 0 0 0 0 0 0 0 0 0 0 0 0 0 0 0 0 0 0 0 0 0 0 0 0 0 0 0 0 0 0 0 0 0 0 0 0 0 0 0 0 0 0 0 0 0 0 0 0 0 0
      0 0 0 0 0 0 0 0 0 0 0 0 0 0 0 0 0 0 0 0 0 0 0 0 0 0 0 0 0 0 0 0 0 0 0 0 0 0 0 0 0 0 0 0 0 0 0 0 0 0 0 0 0 0 0 0 0 0 0 0 0 0 0 0 0 0 0 0 0 0 0 0 0 0 0 0 0 0 0 0 0 0 0 0 0 0 0 0 0 0 0 0 0 0 0 0 0 0 0 0 0 0 0 0 0 0 0 0 0 0 0 0 0 0 0
      0 0 0 0 0 0 0 0 0 0 0 0 0 0 0 0 0 0 0 0 0 0 0 0 0 0 0 0 0 0 0 0 0 0 0 0 0 0 0 0 0 0 0 0 0 0 0 0 0 0 0 0 0 0 0 0 0 0 0 0 0 0 0 0 0 0 0 0 0 0 0 0 0 0 0 0 0 0 0 0 0 0 0 0 0 0 0 0 0 0 0 0 0 0 0 0 0 0 0 0 0 0 0 0 0 0 0 0 0 0 0 0 0 0 0
      0 0 0 0 0 0 0 0 0 0 0 0 0 0 0 0 0 0 0 0 0 0 0 0 0 0 0 0 0 0 0 0 0 0 0 0 0 0 0 0 0 0 0 0 0 0 0 0 0 0 0 0 0 0 0 0 0 0 0 0 0 0 0 0 0 0 0 0 0 0 0 0 0 0 0 0 0 0 0 0 0 0 0 0 0 0 0 0 0 0 0 0 0 0 0 0 0 0 0 0 0 0 0 0 0 0 0 0 0 0 0 0 0 0 0
      0 0 0 0 0 0 0 0 0 0 0 0 0 0 0 0 0 0 0 0 0 0 0 0 0 0 0 0 0 0 0 0 0 0 0 0 0 0 0 0 0 0 0 0 0 0 0 0 0 0 0 0 0 0 0 0 0 0 0 0 0 0 0 0 0 0 0 0 0 0 0 0 0 0 0 0 0 0 0 0 0 0 0 0 0 0 0 0 0 0 0 0 0 0 0 0 0 0 0 0 0 0 0 0 0 0 0 0 0 0 0 0 0 0 0
      0 0 0 0 0 0 0 0 0 0 0 0 0 0 0 0 0 0 0 0 0 0 0 0 0 0 0 0 0 0 0 0 0 0 0 0 0 0 0 0 0 0 0 0 0 0 0 0 0 0 0 0 0 0 0 0 0 0 0 0 0 0 0 0 0 0 0 0 0 0 0 0 0 0 0 0 0 0 0 0 0 0 0 0 0 0 0 0 0 0 0 0 0 0 0 0 0 0 0 0 0 0 0 0 0 0 0 0 0 0 0 0 0 0 0
      0 0 0 0 0 0 0 0 0 0 0 0 0 0 0 0 0 0 0 0 0 0 0 0 0 0 0 0 0 0 0 0 0 0 0 0 0 0 0 0 0 0 0 0 0 0 0 0 0 0 0 0 0 0 0 0 0 0 0 0 0 0 0 0 0 0 0 0 3023 3018 0 0 0 0 0 0 0 0 0 0 0 0 0 0 0 0 0 0 0 0 0 0 0 0 0 0 0 0 0 0 0 0 0 0 0 0 0 0 0 0 0 0 0 0 0
      0 0 0 0 0 0 0 0 0 0 0 0 0 0 0 0 0 0 0 0 0 0 0 0 0 0 0 0 0 0 0 0 0 0 0 0 0 0 0 0 0 0 0 0 0 0 0 0 0 0 0 0 0 0 0 0 0 0 1809 1812 0 0 0 0 0 0 0 3023 3016 3028 0 0 0 0 0 0 0 0 0 0 0 0 0 0 0 0 0 0 0 0 0 0 0 0 1355 0 0 0 0 0 0 0 0 0 0 0 0 0 0 0 0 1355 0 0 0
      0 0 0 0 0 0 0 0 0 0 0 0 0 0 0 0 0 0 0 0 0 0 0 0 0 0 0 0 0 0 0 0 0 0 0 0 0 0 0 0 0 0 0 0 0 0 0 0 0 0 0 0 0 0 0 0 0 0 1810 1813 0 0 0 0 0 0 0 3011 1719 1719 1719 1719 1718 0 0 0 0 0 0 0 0 0 0 0 0 0 0 0 0 0 0 0 0 0 1356 0 0 0 0 0 0 0 0 0 0 0 0 0 0 0 0 1356 0 0 0
      0 0 0 0 0 0 0 0 0 0 0 0 0 0 0 0 0 0 0 0 0 0 0 0 0 0 0 0 0 0 0 0 0 0 0 0 0 0 0 0 0 0 0 0 0 0 0 0 0 0 0 0 0 0 0 0 0 0 0 0 0 0 0 0 0 1355 1355 3027 3015 3024 0 0 0 0 0 0 0 0 0 0 0 0 0 0 0 0 0 0 0 0 0 0 0 0 1356 0 0 0 1355 0 0 0 0 0 0 0 0 1355 0 0 0 1356 0 0 0
      0 0 0 0 0 0 0 0 0 0 0 0 0 0 0 0 0 0 0 0 0 0 0 0 0 0 0 0 0 0 0 0 0 0 0 0 0 0 0 0 0 0 0 0 0 0 0 0 0 0 0 0 0 0 0 0 0 0 0 0 0 0 0 0 0 1356 1356 0 3027 3022 0 0 0 0 0 0 0 0 0 0 0 0 0 0 0 0 0 0 0 0 0 0 0 0 1356 0 0 0 1356 0 0 0 0 0 0 0 0 1356 0 0 0 1356 0 0 0
      0 0 0 0 0 0 0 0 0 0 0 0 0 0 0 0 0 0 0 0 0 0 0 0 0 0 0 0 0 0 0 0 0 0 0 0 0 0 0 0 0 0 0 0 0 0 0 0 0 0 0 0 0 0 0 0 0 0 0 0 0 0 0 0 0 1411 1411 0 0 0 0 0 0 0 0 0 0 2019 2140 0 0 0 0 0 0 27 0 0 0 0 0 0 0 0 1356 0 0 0 1356 0 0 0 0 0 0 0 0 1356 0 0 0 1356 0 0 0
      0 0 0 0 0 0 0 0 0 0 0 0 0 0 0 0 0 0 0 0 0 0 0 0 0 0 0 0 0 0 0 0 0 0 0 0 0 0 0 0 0 0 0 0 0 0 0 0 0 0 0 0 0 0 0 0 0 0 0 0 0 0 0 0 0 0 0 0 0 0 0 0 0 0 0 0 0 2020 2020 0 0 0 0 0 0 27 0 0 0 0 0 0 0 0 1411 0 0 0 1356 0 0 0 0 0 0 0 0 1356 0 0 0 1411 0 0 0
      0 0 0 0 0 0 0 0 0 0 0 0 0 0 0 0 0 0 0 0 0 0 0 0 0 0 0 0 0 0 0 0 0 0 0 0 0 0 0 0 0 0 0 0 0 0 0 0 0 0 0 0 0 0 0 0 0 0 0 0 0 0 0 0 0 0 0 0 0 0 0 0 0 0 0 1550 0 0 0 0 0 0 0 0 0 27 0 0 0 0 0 0 0 0 0 0 0 0 1356 0 0 0 0 0 0 0 0 1356 0 0 0 0 0 0 0
      0 0 0 0 0 0 0 0 0 0 0 0 0 0 0 0 0 0 0 0 0 0 0 0 0 0 0 0 0 0 0 0 0 0 0 0 0 0 0 0 0 0 0 0 0 0 0 0 0 0 0 0 0 0 0 0 0 0 0 0 0 0 0 0 0 0 0 0 0 0 0 0 0 0 0 0 0 0 0 0 0 0 0 0 0 0 0 0 0 0 0 0 0 0 0 0 0 0 1411 0 0 0 0 0 0 0 0 1411 0 0 0 0 0 0 0
      0 0 0 0 0 0 0 0 0 0 0 0 0 0 0 0 0 0 0 0 0 0 0 0 0 0 0 0 0 0 0 0 0 0 0 0 0 0 0 0 0 0 0 0 0 0 0 0 0 0 0 0 0 0 0 0 0 0 0 0 0 0 0 0 0 0 0 0 0 0 0 0 0 0 0 0 0 0 0 0 0 0 0 0 0 0 0 0 0 0 0 0 0 0 0 0 0 0 0 0 0 0 0 0 0 0 0 0 0 0 0 0 0 0 0
      0 0 0 0 0 0 0 0 0 0 0 0 0 0 0 0 0 0 0 0 0 0 0 0 0 0 0 0 0 0 0 0 0 0 0 0 0 0 0 0 0 0 0 0 0 0 0 0 0 0 0 0 0 0 0 0 0 0 0 0 0 0 0 0 0 0 0 0 0 0 0 0 0 0 0 0 0 0 0 0 0 0 0 0 0 0 0 0 0 0 0 0 0 0 0 0 0 0 0 0 0 0 0 0 0 0 0 0 0 0 0 0 0 0 0
      0 0 0 0 0 0 0 0 0 0 0 0 0 0 0 0 0 0 0 0 0 0 0 0 0 0 0 0 0 0 0 0 0 0 0 0 0 0 0 0 0 0 0 0 0 0 0 0 0 0 0 0 0 0 0 0 0 0 0 0 0 0 0 0 0 0 0 0 0 0 0 0 0 0 0 0 0 0 0 0 0 0 0 0 0 0 0 0 0 0 0 0 0 0 0 0 0 0 0 0 0 0 0 0 0 0 0 0 0 0 0 0 0 0 0
      0 0 0 0 0 0 0 0 0 0 0 0 0 0 0 0 0 0 0 0 0 0 0 0 0 0 0 0 0 0 0 0 0 0 0 0 0 0 0 0 0 0 0 0 0 0 0 0 0 0 0 0 0 0 0 0 0 0 0 0 0 0 0 0 0 0 0 0 0 0 0 0 0 0 0 0 0 0 0 0 0 0 0 0 0 0 0 0 0 0 0 0 0 0 0 0 0 0 0 0 0 0 0 0 0 0 0 0 0 0 0 0 0 0 0
      )
    )
    (tilemap
      (solid #t)
      (z-pos 0)
      (name "Interactive")
      (width 115)
      (height 25)
      (tiles
      0 0 0 0 0 0 0 0 0 0 0 0 0 0 0 0 0 0 0 0 0 0 0 0 0 0 0 0 0 0 0 0 0 0 0 0 0 0 0 0 0 0 0 0 0 0 0 0 0 0 0 0 0 0 0 0 0 0 0 0 0 0 0 0 0 0 0 0 0 0 0 0 0 0 0 0 0 0 0 0 0 0 0 0 0 0 0 0 0 0 0 0 0 0 0 0 0 0 0 0 0 0 0 0 0 0 0 0 0 0 0 0 0 0 0
      0 0 0 0 0 0 0 0 0 0 0 0 0 0 0 0 0 0 0 0 0 0 0 0 0 0 0 0 0 0 0 0 0 0 0 0 0 0 0 0 0 0 0 0 0 0 0 0 0 0 0 0 0 0 0 0 0 0 0 0 0 0 0 0 0 0 0 0 0 0 0 0 0 0 0 0 0 0 0 0 0 0 0 0 0 0 0 0 0 0 0 0 0 0 0 0 0 0 0 0 0 0 0 0 0 0 0 0 0 0 0 0 0 0 0
      0 0 0 0 0 0 0 0 0 0 0 0 0 0 0 0 0 0 0 0 0 0 0 0 0 0 0 0 0 0 0 0 0 0 0 0 0 0 0 0 0 0 0 0 0 0 0 0 0 0 0 0 0 0 0 0 0 0 0 0 0 0 0 0 0 0 0 0 0 0 0 0 0 0 0 0 0 0 0 0 0 0 0 0 0 0 0 0 0 0 0 0 0 0 0 0 0 0 0 0 0 0 0 0 0 0 0 0 0 0 0 0 0 0 0
      0 0 0 0 0 0 0 0 0 0 0 0 0 0 0 0 0 0 0 0 0 0 0 0 0 0 0 0 0 0 0 0 0 0 0 0 0 0 0 0 0 0 0 0 0 0 0 0 0 0 0 0 0 0 0 0 0 0 0 0 0 0 0 0 0 0 0 0 0 0 0 0 0 0 0 0 0 0 0 0 0 0 0 0 0 0 0 0 0 0 0 0 0 0 0 0 0 0 0 0 0 0 0 0 0 0 0 0 0 0 0 0 0 0 0
      0 0 0 0 0 0 0 0 0 0 0 0 0 0 0 0 0 0 0 0 0 0 0 0 0 0 0 0 0 0 0 0 0 0 0 0 0 0 0 0 0 0 0 0 0 0 0 0 0 0 0 0 0 0 0 0 0 0 0 0 0 0 0 0 0 0 0 0 0 0 0 0 0 0 0 0 0 0 0 0 0 0 0 0 0 0 0 0 0 0 0 0 0 0 0 0 0 0 0 0 0 0 0 0 0 0 0 0 0 0 0 0 0 0 0
      0 0 0 0 0 0 0 0 0 0 0 0 0 0 0 0 0 0 0 0 0 0 0 0 0 0 0 0 0 0 0 0 0 0 0 0 0 0 0 0 0 0 0 0 0 0 0 0 0 0 0 0 0 0 0 0 0 0 0 0 0 0 0 0 0 0 0 0 0 0 0 0 0 0 0 0 0 0 0 0 0 0 0 0 0 0 0 0 0 0 0 0 0 0 0 0 0 0 0 0 0 0 0 0 0 0 0 0 0 0 0 0 0 0 0
      0 0 0 0 0 0 0 0 0 0 0 0 0 0 0 0 0 0 0 0 0 0 0 0 0 0 0 0 0 0 0 0 0 0 0 0 0 0 0 0 0 0 0 0 0 0 0 0 0 0 0 0 0 0 0 0 0 0 0 0 0 0 0 0 0 0 0 0 0 0 0 0 0 0 0 0 0 0 0 0 0 0 0 0 0 0 0 0 0 0 0 0 0 0 0 0 0 0 0 0 0 0 0 0 0 0 0 0 0 0 0 0 0 0 0
      0 0 0 0 0 0 0 0 0 0 0 0 0 0 0 0 0 0 0 0 0 0 0 0 0 0 0 0 0 0 0 0 0 0 0 0 0 0 0 0 0 0 0 0 0 0 0 0 0 0 0 0 0 0 0 0 0 0 0 0 0 0 0 0 0 0 0 0 0 0 0 0 0 0 0 0 0 0 0 0 0 0 0 0 0 0 0 0 0 0 0 0 0 0 0 0 0 0 0 0 0 0 0 0 0 0 0 0 0 0 0 0 0 0 0
      0 0 0 0 0 0 0 0 0 0 0 0 0 0 0 0 0 0 0 0 0 0 0 0 0 0 0 0 0 0 0 0 0 0 0 0 0 0 0 0 0 0 0 0 0 0 0 0 0 0 0 0 0 0 0 0 0 0 0 0 0 0 0 0 0 0 0 0 0 0 0 0 0 0 0 0 0 0 0 0 0 0 0 0 0 0 0 0 0 0 0 0 0 0 0 0 0 0 0 0 0 0 0 0 0 0 0 0 0 0 0 0 0 0 0
      0 0 0 0 0 0 0 0 0 0 0 0 0 0 0 0 0 0 0 0 0 0 0 0 0 0 0 0 0 0 0 0 0 0 0 0 0 0 0 0 0 0 0 0 0 0 0 0 0 0 0 0 0 0 0 0 0 0 0 0 0 0 0 0 0 0 0 0 0 0 0 0 0 0 0 0 0 0 0 0 0 0 0 0 0 0 0 0 0 0 0 0 0 0 0 0 0 0 0 0 0 0 0 0 0 0 0 0 0 0 0 0 0 0 0
      0 0 0 0 0 0 0 0 0 0 0 0 0 0 0 0 0 0 0 0 0 0 0 0 0 0 0 0 0 0 0 0 0 0 0 0 0 0 0 0 0 0 0 0 0 0 0 0 0 0 0 0 0 0 0 0 0 0 0 0 0 0 0 0 0 0 0 0 0 0 0 0 0 0 0 0 0 0 0 0 0 0 0 0 0 0 0 0 0 0 0 0 0 0 0 0 0 0 0 0 0 0 0 0 0 0 0 0 0 0 0 0 0 0 0
      0 0 0 0 0 0 0 0 0 0 0 0 0 0 0 0 0 0 0 0 0 0 0 0 0 0 0 0 0 0 0 0 0 0 0 0 0 0 0 0 0 0 0 0 0 0 0 0 0 0 0 0 0 0 0 0 0 0 0 0 0 0 0 0 0 0 0 0 0 0 0 0 0 0 0 0 0 0 0 0 0 0 0 0 0 0 0 0 0 0 0 0 0 0 0 0 0 0 0 0 0 0 0 0 0 0 0 0 0 0 0 0 0 0 0
      0 0 0 0 0 0 0 0 0 0 0 0 0 0 0 0 0 0 0 0 0 0 0 0 0 0 0 0 0 0 0 0 0 0 0 0 0 0 0 0 0 0 0 0 0 0 0 0 0 0 0 0 0 0 0 0 0 0 0 0 0 0 0 0 0 0 0 0 0 0 0 0 0 0 0 0 0 0 0 0 0 0 0 0 0 0 0 0 0 0 0 0 0 0 0 0 0 0 0 0 0 0 0 0 0 0 0 0 0 0 0 0 0 0 0
      0 0 0 0 0 0 0 0 0 0 0 0 0 0 0 0 0 0 0 0 0 0 0 0 0 0 0 0 0 0 0 0 0 0 0 0 0 0 0 0 0 0 0 0 0 0 0 0 0 0 0 0 0 0 0 0 0 0 0 0 0 0 0 0 0 0 0 0 0 0 0 0 0 0 0 0 0 0 0 0 0 0 0 0 0 0 0 0 0 0 0 0 0 0 0 0 0 0 0 0 0 0 0 0 0 0 0 0 0 0 0 0 0 0 0
      0 0 0 0 0 0 0 0 0 0 0 0 0 0 0 0 0 0 0 0 0 0 0 0 0 0 0 0 0 0 0 0 0 0 0 0 0 0 0 0 0 0 0 0 0 0 0 0 0 0 0 0 0 0 0 0 0 0 0 0 0 0 0 0 0 27 102 0 3033 0 0 0 0 0 0 0 0 0 0 0 0 0 0 0 0 0 0 0 0 0 0 0 0 0 0 0 0 0 0 0 0 0 0 0 0 0 0 0 0 0 0 0 0 0 0
      0 0 0 0 0 0 0 0 0 0 0 0 0 0 0 0 0 0 0 0 0 0 0 0 0 0 0 0 0 0 0 0 0 0 0 0 0 0 0 0 0 0 0 0 0 0 0 0 0 0 0 0 0 0 0 0 0 27 28 28 28 29 0 0 0 0 0 0 0 0 0 0 0 0 0 0 0 0 0 0 0 0 0 0 0 0 0 0 0 0 0 0 0 0 0 0 0 0 0 0 0 0 0 0 0 0 0 0 0 0 0 0 0 0 0
      0 0 0 0 0 0 0 0 0 0 0 0 0 0 0 0 27 28 28 28 28 28 29 0 47 0 47 0 47 0 47 0 0 0 0 0 0 0 0 0 0 0 0 48 0 0 0 0 0 0 0 0 0 0 0 48 0 1355 0 0 0 1355 0 0 0 0 0 0 0 0 0 0 0 0 0 0 0 0 0 0 0 0 0 0 0 0 0 0 0 0 0 0 0 0 0 0 0 0 0 0 0 0 0 0 0 0 0 0 0 0 0 0 0 0 0
      0 0 0 0 0 0 0 0 0 0 0 0 0 0 0 0 27 28 28 28 28 28 29 0 1355 0 1355 0 1355 0 1355 0 0 27 28 28 28 28 28 28 28 28 28 28 28 28 28 28 28 28 28 28 28 28 28 29 0 1356 0 0 0 1356 0 0 0 0 0 0 0 0 0 0 0 0 0 1542 2142 1628 1629 2141 2142 2019 2140 2141 2142 1542 28 28 28 28 28 28 28 29 0 0 0 0 0 0 0 0 0 0 0 0 0 0 0 0 0 0 27 28 28
      0 0 0 0 0 0 0 0 0 0 0 0 0 0 0 0 1355 0 0 1355 0 0 1355 0 1356 0 1356 0 1356 0 1356 0 0 1355 0 0 0 0 0 0 0 0 0 0 0 0 0 0 0 0 0 0 0 0 0 1355 0 1356 0 0 0 1356 0 0 27 28 28 28 28 28 28 28 29 0 0 1546 2020 1630 1631 2020 2020 2020 2020 2020 2020 1546 28 28 28 28 28 28 28 29 0 0 0 0 0 0 0 0 0 0 0 0 0 0 0 0 0 0 27 28 28
      0 0 0 47 0 0 47 0 0 47 0 0 0 0 0 0 1356 0 0 1356 0 0 1356 0 1356 0 1356 0 1356 0 1356 0 0 1356 0 0 0 0 0 0 0 0 0 0 0 0 0 0 0 0 0 0 0 0 0 1356 0 1356 0 0 0 1356 0 0 1355 0 0 0 0 0 0 0 1355 0 0 1551 1540 1540 1540 1540 1540 1540 1540 1540 1540 1550 28 28 28 28 28 28 28 28 28 28 28 29 0 0 0 0 0 0 0 0 0 0 27 28 28 28 28 28 28
      0 0 0 1355 0 0 1355 0 0 1355 0 0 0 0 0 0 1356 0 0 1356 0 0 1356 0 1356 0 1356 0 1356 0 1356 0 0 1411 0 0 0 0 0 0 0 0 0 0 0 0 0 0 0 0 0 0 0 0 0 1411 0 1356 0 0 0 1356 0 0 1356 0 0 0 0 0 0 0 1356 0 0 27 28 28 28 28 28 28 28 28 28 28 28 28 28 28 28 28 28 28 28 28 28 29 0 0 0 0 0 0 0 0 0 0 27 28 28 28 28 28 28
      0 0 0 1356 0 0 1356 0 0 1356 0 0 0 0 0 0 1356 0 0 1356 0 0 1356 0 1356 0 1356 0 1356 0 1356 0 0 1355 0 0 0 0 0 0 0 0 0 0 0 0 0 0 0 0 0 0 0 0 0 1355 0 1356 0 0 0 1356 0 0 1411 0 0 0 0 0 0 0 1411 0 0 27 28 28 28 28 28 28 28 28 28 28 28 28 28 28 28 28 28 28 28 28 28 28 28 28 28 28 28 28 28 28 28 28 28 28 28 28 28 28 28
      0 0 0 1356 0 0 1356 0 0 1356 0 0 0 0 0 0 1356 0 0 1356 0 0 1356 0 1356 0 1356 0 1356 0 1356 0 0 1356 0 0 0 0 0 0 0 0 0 0 0 0 0 0 0 0 0 0 0 0 0 1356 0 1356 0 0 0 1356 0 0 1355 0 0 0 0 0 0 0 1355 0 0 27 28 28 28 28 28 28 28 28 28 28 28 28 28 28 28 28 28 28 28 28 28 28 28 28 28 28 28 28 28 28 28 28 28 28 28 28 28 28 28
      0 0 0 1356 0 0 1356 0 0 1356 0 0 0 0 0 0 1356 0 0 1356 0 0 1356 0 1356 0 1356 0 1356 0 1356 0 0 1356 0 0 0 0 0 0 0 0 0 0 0 0 0 0 0 0 0 0 0 0 0 1356 0 1356 0 0 0 1356 0 0 1356 0 0 0 0 0 0 0 1356 0 0 27 28 28 28 28 28 28 28 28 28 28 28 28 28 28 28 28 28 28 28 28 28 28 28 28 28 28 28 28 28 28 28 28 28 28 28 28 28 28 28
      0 0 0 1411 0 0 1411 0 0 1411 0 0 0 0 0 0 1411 0 0 1411 0 0 1411 0 1411 0 1411 0 1411 0 1411 0 0 1411 0 0 0 0 0 0 0 0 0 0 0 0 0 0 0 0 0 0 0 0 0 1411 0 1411 0 0 0 1411 0 0 1411 0 0 0 0 0 0 0 1411 0 0 27 28 28 28 28 28 28 28 28 28 28 28 28 28 28 28 28 28 28 28 28 28 28 28 28 28 28 28 28 28 28 28 28 28 28 28 28 28 28 28
      )
    )
    (tilemap
      (solid #f)
      (z-pos 100)
      (name "Foreground")
      (width 115)
      (height 25)
      (tiles
      0 0 0 0 0 0 0 0 0 0 0 0 0 0 0 0 0 0 0 0 0 0 0 0 0 0 0 0 0 0 0 0 0 0 0 0 0 0 0 0 0 0 0 0 0 0 0 0 0 0 0 0 0 0 0 0 0 0 0 0 0 0 0 0 0 0 0 0 0 0 0 0 0 0 0 0 0 0 0 0 0 0 0 0 0 0 0 0 0 0 0 0 0 0 0 0 0 0 0 0 0 0 0 0 0 0 0 0 0 0 0 0 0 0 0
      0 0 0 0 0 0 0 0 0 0 0 0 0 0 0 0 0 0 0 0 0 0 0 0 0 0 0 0 0 0 0 0 0 0 0 0 0 0 0 0 0 0 0 0 0 0 0 0 0 0 0 0 0 0 0 0 0 0 0 0 0 0 0 0 0 0 0 0 0 0 0 0 0 0 0 0 0 0 0 0 0 0 0 0 0 0 0 0 0 0 0 0 0 0 0 0 0 0 0 0 0 0 0 0 0 0 0 0 0 0 0 0 0 0 0
      0 0 0 0 0 0 0 0 0 0 0 0 0 0 0 0 0 0 0 0 0 0 0 0 0 0 0 0 0 0 0 0 0 0 0 0 0 0 0 0 0 0 0 0 0 0 0 0 0 0 0 0 0 0 0 0 0 0 0 0 0 0 0 0 0 0 0 0 0 0 0 0 0 0 0 0 0 0 0 0 0 0 0 0 0 0 0 0 0 0 0 0 0 0 0 0 0 0 0 0 0 0 0 0 0 0 0 0 0 0 0 0 0 0 0
      0 0 0 0 0 0 0 0 0 0 0 0 0 0 0 0 0 0 0 0 0 0 0 0 0 0 0 0 0 0 0 0 0 0 0 0 0 0 0 0 0 0 0 0 0 0 0 0 0 0 0 0 0 0 0 0 0 0 0 0 0 0 0 0 0 0 0 0 0 0 0 0 0 0 0 0 0 0 0 0 0 0 0 0 0 0 0 0 0 0 0 0 0 0 0 0 0 0 0 0 0 0 0 0 0 0 0 0 0 0 0 0 0 0 0
      0 0 0 0 0 0 0 0 0 0 0 0 0 0 0 0 0 0 0 0 0 0 0 0 0 0 0 0 0 0 0 0 0 0 0 0 0 0 0 0 0 0 0 0 0 0 0 0 0 0 0 0 0 0 0 0 0 0 0 0 0 0 0 0 0 0 0 0 0 0 0 0 0 0 0 0 0 0 0 0 0 0 0 0 0 0 0 0 0 0 0 0 0 0 0 0 0 0 0 0 0 0 0 0 0 0 0 0 0 0 0 0 0 0 0
      0 0 0 0 0 0 0 0 0 0 0 0 0 0 0 0 0 0 0 0 0 0 0 0 0 0 0 0 0 0 0 0 0 0 0 0 0 0 0 0 0 0 0 0 0 0 0 0 0 0 0 0 0 0 0 0 0 0 0 0 0 0 0 0 0 0 0 0 0 0 0 0 0 0 0 0 0 0 0 0 0 0 0 0 0 0 0 0 0 0 0 0 0 0 0 0 0 0 0 0 0 0 0 0 0 0 0 0 0 0 0 0 0 0 0
      0 0 0 0 0 0 0 0 0 0 0 0 0 0 0 0 0 0 0 0 0 0 0 0 0 0 0 0 0 0 0 0 0 0 0 0 0 0 0 0 0 0 0 0 0 0 0 0 0 0 0 0 0 0 0 0 0 0 0 0 0 0 0 0 0 0 0 0 0 0 0 0 0 0 0 0 0 0 0 0 0 0 0 0 0 0 0 0 0 0 0 0 0 0 0 0 0 0 0 0 0 0 0 0 0 0 0 0 0 0 0 0 0 0 0
      0 0 0 0 0 0 0 0 0 0 0 0 0 0 0 0 0 0 0 0 0 0 0 0 0 0 0 0 0 0 0 0 0 0 0 0 0 0 0 0 0 0 0 0 0 0 0 0 0 0 0 0 0 0 0 0 0 0 0 0 0 0 0 0 0 0 0 0 0 0 0 0 0 0 0 0 0 0 0 0 0 0 0 0 0 0 0 0 0 0 0 0 0 0 0 0 0 0 0 0 0 0 0 0 0 0 0 0 0 0 0 0 0 0 0
      0 0 0 0 0 0 0 0 0 0 0 0 0 0 0 0 0 0 0 0 0 0 0 0 0 0 0 0 0 0 0 0 0 0 0 0 0 0 0 0 0 0 0 0 0 0 0 0 0 0 0 0 0 0 0 0 0 0 0 0 0 0 0 0 0 0 0 0 0 0 0 0 0 0 0 0 0 0 0 0 0 0 0 0 0 0 0 0 0 0 0 0 0 0 0 0 0 0 0 0 0 0 0 0 0 0 0 0 0 0 0 0 0 0 0
      0 0 0 0 0 0 0 0 0 0 0 0 0 0 0 0 0 0 0 0 0 0 0 0 0 0 0 0 0 0 0 0 0 0 0 0 0 0 0 0 0 0 0 0 0 0 0 0 0 0 0 0 0 0 0 0 0 0 0 0 0 0 0 0 0 0 0 0 0 0 0 0 0 0 0 0 0 0 0 0 0 0 0 0 0 0 0 0 0 0 0 0 0 0 0 0 0 0 0 0 0 0 0 0 0 0 0 0 0 0 0 0 0 0 0
      0 0 0 0 0 0 0 0 0 0 0 0 0 0 0 0 0 0 0 0 0 0 0 0 0 0 0 0 0 0 0 0 0 0 0 0 0 0 0 0 0 0 0 0 0 0 0 0 0 0 0 0 0 0 0 0 0 0 0 0 0 0 0 0 0 0 0 0 0 0 0 0 0 0 0 0 0 0 0 0 0 0 0 0 0 0 0 0 0 0 0 0 0 0 0 0 0 0 0 0 0 0 0 0 0 0 0 0 0 0 0 0 0 0 0
      0 0 0 0 0 0 0 0 0 0 0 0 0 0 0 0 0 0 0 0 0 0 0 0 0 0 0 0 0 0 0 0 0 0 0 0 0 0 0 0 0 0 0 0 0 0 0 0 0 0 0 0 0 0 0 0 0 0 0 0 0 0 0 0 0 0 0 0 0 0 0 0 0 0 0 0 0 0 0 0 0 0 0 0 0 0 0 0 0 0 0 0 0 0 0 0 0 0 0 0 0 0 0 0 0 0 0 0 0 0 0 0 0 0 0
      0 0 0 0 0 0 0 0 0 0 0 0 0 0 0 0 0 0 0 0 0 0 0 0 0 0 0 0 0 0 0 0 0 0 0 0 0 0 0 0 0 0 0 0 0 0 0 0 0 0 0 0 0 0 0 0 0 0 0 0 0 0 0 0 0 0 0 0 0 0 0 0 0 0 0 0 0 0 0 0 0 0 0 0 0 0 0 0 0 0 0 0 0 0 0 0 0 0 0 0 0 0 0 0 0 0 0 0 0 0 0 0 0 0 0
      0 0 0 0 0 0 0 0 0 0 0 0 0 0 0 0 0 0 0 0 0 0 0 0 0 0 0 0 0 0 0 0 0 0 0 0 0 0 0 0 0 0 0 0 0 0 0 0 0 0 0 0 0 0 0 0 0 0 0 0 0 0 0 0 0 0 0 0 0 0 0 0 0 0 0 0 0 0 0 0 0 0 0 0 0 0 0 0 0 0 0 0 0 0 0 0 0 0 0 0 0 0 0 0 0 0 0 0 0 0 0 0 0 0 0
      0 0 0 0 0 0 0 0 0 0 0 0 0 0 0 0 0 0 0 0 0 0 0 0 0 0 0 0 0 0 0 0 0 0 0 0 0 0 0 0 0 0 0 0 0 0 0 0 0 0 0 0 0 0 0 0 0 0 0 0 0 0 0 0 0 27 29 0 0 0 0 0 0 0 0 0 0 0 0 0 0 0 0 0 0 0 0 0 0 0 0 0 0 0 0 0 0 0 0 0 0 0 0 0 0 0 0 0 0 0 0 0 0 0 0
      0 0 0 0 0 0 0 0 0 0 0 0 0 0 0 0 0 0 0 0 0 0 0 0 0 0 0 0 0 0 0 0 0 0 0 0 0 0 0 0 0 0 0 0 0 0 0 0 0 0 0 0 0 0 0 0 0 0 0 0 0 0 0 0 0 0 0 0 0 0 0 0 0 0 0 0 0 0 0 0 0 0 0 0 0 0 0 0 0 0 0 0 0 0 0 0 0 0 0 0 0 0 0 0 0 0 0 0 0 0 0 0 0 0 0
      0 0 0 0 0 0 0 0 0 0 0 0 0 0 0 0 0 0 0 0 0 0 0 0 0 0 0 0 0 0 0 0 0 0 0 0 0 0 0 0 0 0 0 0 0 0 0 0 0 0 0 0 0 0 0 0 0 0 0 0 0 0 0 0 0 0 0 0 0 0 0 0 0 0 0 0 0 0 0 0 0 0 0 0 0 0 0 0 0 0 0 0 0 0 0 0 0 0 0 0 0 0 0 0 0 0 0 0 0 0 0 0 0 0 0
      0 0 0 0 0 0 0 0 0 0 0 0 0 0 0 0 0 0 0 0 0 0 0 0 0 0 0 0 0 0 0 0 0 0 0 0 0 0 0 0 0 0 0 0 0 0 0 0 0 0 0 0 0 0 0 0 0 0 0 0 0 0 0 0 0 0 0 0 0 0 0 0 0 0 0 0 0 0 0 0 0 0 0 0 0 0 0 0 0 0 0 0 0 0 0 0 0 0 0 0 0 0 0 0 0 0 0 0 0 0 0 0 0 0 0
      0 0 0 0 0 0 0 0 0 0 0 0 0 0 0 0 0 0 0 0 0 0 0 0 0 0 0 0 0 0 0 0 0 0 0 0 0 0 0 0 0 0 0 0 0 0 0 0 0 0 0 0 0 0 0 0 0 0 0 0 0 0 0 0 0 0 0 0 0 0 0 0 0 0 0 0 0 0 0 0 0 0 0 0 0 0 0 0 0 0 0 0 0 0 0 0 0 0 0 0 0 0 0 0 0 0 0 0 0 0 0 0 0 0 0
      0 0 0 0 0 0 0 0 0 0 0 0 0 0 0 0 0 0 0 0 0 0 0 0 0 0 0 0 0 0 0 0 0 0 0 0 0 0 0 0 0 0 0 0 0 0 0 0 0 0 0 0 0 0 0 0 0 0 0 0 0 0 0 0 0 0 0 0 0 0 0 0 0 0 0 0 0 0 0 0 0 0 0 0 0 1541 0 0 0 0 0 0 0 0 0 0 0 0 0 0 0 0 0 0 0 0 0 0 0 0 0 0 0 0 0
      0 0 0 0 0 0 0 0 0 0 0 0 0 0 0 0 0 0 0 0 0 0 0 0 0 0 0 0 0 0 0 0 0 0 0 0 0 0 0 0 0 0 0 0 0 0 0 0 0 0 0 0 0 0 0 0 0 0 0 0 0 0 0 0 0 0 0 0 0 0 0 0 0 0 0 0 0 0 0 0 0 0 0 0 0 0 0 0 0 0 0 0 0 0 0 0 0 0 0 0 0 0 0 0 0 0 0 0 0 0 0 0 0 0 0
      0 0 0 0 0 0 0 0 0 0 0 0 0 0 0 0 0 0 0 0 0 0 0 0 0 0 0 0 0 0 0 0 0 0 0 0 0 0 0 0 0 0 0 0 0 0 0 0 0 0 0 0 0 0 0 0 0 0 0 0 0 0 0 0 0 0 0 0 0 0 0 0 0 0 0 0 0 0 0 0 0 0 0 0 0 0 0 0 0 0 0 0 0 0 0 0 0 0 0 0 0 0 0 0 0 0 0 0 0 0 0 0 0 0 0
      0 0 0 0 0 0 0 0 0 0 0 0 0 0 0 0 0 0 0 0 0 0 0 0 0 0 0 0 0 0 0 0 0 0 0 0 0 0 0 0 0 0 0 0 0 0 0 0 0 0 0 0 0 0 0 0 0 0 0 0 0 0 0 0 0 0 0 0 0 0 0 0 0 0 0 0 0 0 0 0 0 0 0 0 0 0 0 0 0 0 0 0 0 0 0 0 0 0 0 0 0 0 0 0 0 0 0 0 0 0 0 0 0 0 0
      0 0 0 0 0 0 0 0 0 0 0 0 0 0 0 0 0 0 0 0 0 0 0 0 0 0 0 0 0 0 0 0 0 0 0 0 0 0 0 0 0 0 0 0 0 0 0 0 0 0 0 0 0 0 0 0 0 0 0 0 0 0 0 0 0 0 0 0 0 0 0 0 0 0 0 0 0 0 0 0 0 0 0 0 0 0 0 0 0 0 0 0 0 0 0 0 0 0 0 0 0 0 0 0 0 0 0 0 0 0 0 0 0 0 0
      0 0 0 0 0 0 0 0 0 0 0 0 0 0 0 0 0 0 0 0 0 0 0 0 0 0 0 0 0 0 0 0 0 0 0 0 0 0 0 0 0 0 0 0 0 0 0 0 0 0 0 0 0 0 0 0 0 0 0 0 0 0 0 0 0 0 0 0 0 0 0 0 0 0 0 0 0 0 0 0 0 0 0 0 0 0 0 0 0 0 0 0 0 0 0 0 0 0 0 0 0 0 0 0 0 0 0 0 0 0 0 0 0 0 0
      )
    )
    (tilemap
      (solid #f)
      (speed-x 0.5)
      (speed-y 0.5)
      (alpha 0.5)
      (z-pos -110)
      (name "pillars")
      (width 115)
      (height 25)
      (tiles
      0 1762 1763 1762 1763 0 0 0 0 0 0 0 1762 1763 1762 1763 0 0 0 0 0 0 0 1762 1763 1762 1763 0 0 0 0 0 0 0 1762 1763 1762 1763 0 0 0 0 0 0 0 1762 1763 1762 1763 0 0 0 0 0 0 0 1762 1763 1762 1763 0 0 0 0 0 0 0 1762 1763 1762 1763 0 0 0 0 0 0 0 1762 1763 1762 1763 0 0 0 0 0 0 0 1762 1763 1762 1763 0 0 0 0 0 0 0 0 0 0 0 0 0 0 0 0 0 0 0 0 0 0
      0 1764 1765 1764 1765 0 0 0 0 0 0 0 1764 1765 1764 1765 0 0 0 0 0 0 0 1764 1765 1764 1765 0 0 0 0 0 0 0 1764 1765 1764 1765 0 0 0 0 0 0 0 1764 1765 1764 1765 0 0 0 0 0 0 0 1764 1765 1764 1765 0 0 0 0 0 0 0 1764 1765 1764 1765 0 0 0 0 0 0 0 1764 1765 1764 1765 0 0 0 0 0 0 0 1764 1765 1764 1765 0 0 0 0 0 0 0 0 0 0 0 0 0 0 0 0 0 0 0 0 0 0
      0 1766 1767 1766 1767 0 0 0 0 0 0 0 1766 1767 1766 1767 0 0 0 0 0 0 0 1766 1767 1766 1767 0 0 0 0 0 0 0 1766 1767 1766 1767 0 0 0 0 0 0 0 1766 1767 1766 1767 0 0 0 0 0 0 0 1766 1767 1766 1767 0 0 0 0 0 0 0 1766 1767 1766 1767 0 0 0 0 0 0 0 1766 1767 1766 1767 0 0 0 0 0 0 0 1766 1767 1766 1767 0 0 0 0 0 0 0 0 0 0 0 0 0 0 0 0 0 0 0 0 0 0
      0 1768 1769 1768 1769 0 0 0 0 0 0 0 1768 1769 1768 1769 0 0 0 0 0 0 0 1768 1769 1768 1769 0 0 0 0 0 0 0 1768 1769 1768 1769 0 0 0 0 0 0 0 1768 1769 1768 1769 0 0 0 0 0 0 0 1768 1769 1768 1769 0 0 0 0 0 0 0 1768 1769 1768 1769 0 0 0 0 0 0 0 1768 1769 1768 1769 0 0 0 0 0 0 0 1768 1769 1768 1769 0 0 0 0 0 0 0 0 0 0 0 0 0 0 0 0 0 0 0 0 0 0
      0 1770 1771 1770 1771 0 0 0 0 0 0 0 1770 1771 1770 1771 0 0 0 0 0 0 0 1770 1771 1770 1771 0 0 0 0 0 0 0 1770 1771 1770 1771 0 0 0 0 0 0 0 1770 1771 1770 1771 0 0 0 0 0 0 0 1770 1771 1770 1771 0 0 0 0 0 0 0 1770 1771 1770 1771 0 0 0 0 0 0 0 1770 1771 1770 1771 0 0 0 0 0 0 0 1770 1771 1770 1771 0 0 0 0 0 0 0 0 0 0 0 0 0 0 0 0 0 0 0 0 0 0
      0 1772 1773 1772 1773 0 0 0 0 0 0 0 1772 1773 1772 1773 0 0 0 0 0 0 0 1772 1773 1772 1773 0 0 0 0 0 0 0 1772 1773 1772 1773 0 0 0 0 0 0 0 1772 1773 1772 1773 0 0 0 0 0 0 0 1772 1773 1772 1773 0 0 0 0 0 0 0 1772 1773 1772 1773 0 0 0 0 0 0 0 1772 1773 1772 1773 0 0 0 0 0 0 0 1772 1773 1772 1773 0 0 0 0 0 0 0 0 0 0 0 0 0 0 0 0 0 0 0 0 0 0
      0 1762 1763 1762 1763 0 0 0 0 0 0 0 1762 1763 1762 1763 0 0 0 0 0 0 0 1762 1763 1762 1763 0 0 0 0 0 0 0 1762 1763 1762 1763 0 0 0 0 0 0 0 1762 1763 1762 1763 0 0 0 0 0 0 0 1762 1763 1762 1763 0 0 0 0 0 0 0 1762 1763 1762 1763 0 0 0 0 0 0 0 1762 1763 1762 1763 0 0 0 0 0 0 0 1762 1763 1762 1763 0 0 0 0 0 0 0 0 0 0 0 0 0 0 0 0 0 0 0 0 0 0
      0 1764 1765 1764 1765 0 0 0 0 0 0 0 1764 1765 1764 1765 0 0 0 0 0 0 0 1764 1765 1764 1765 0 0 0 0 0 0 0 1764 1765 1764 1765 0 0 0 0 0 0 0 1764 1765 1764 1765 0 0 0 0 0 0 0 1764 1765 1764 1765 0 0 0 0 0 0 0 1764 1765 1764 1765 0 0 0 0 0 0 0 1764 1765 1764 1765 0 0 0 0 0 0 0 1764 1765 1764 1765 0 0 0 0 0 0 0 0 0 0 0 0 0 0 0 0 0 0 0 0 0 0
      0 1766 1767 1766 1767 0 0 0 0 0 0 0 1766 1767 1766 1767 0 0 0 0 0 0 0 1766 1767 1766 1767 0 0 0 0 0 0 0 1766 1767 1766 1767 0 0 0 0 0 0 0 1766 1767 1766 1767 0 0 0 0 0 0 0 1766 1767 1766 1767 0 0 0 0 0 0 0 1766 1767 1766 1767 0 0 0 0 0 0 0 1766 1767 1766 1767 0 0 0 0 0 0 0 1766 1767 1766 1767 0 0 0 0 0 0 0 0 0 0 0 0 0 0 0 0 0 0 0 0 0 0
      0 1768 1769 1768 1769 0 0 0 0 0 0 0 1768 1769 1768 1769 0 0 0 0 0 0 0 1768 1769 1768 1769 0 0 0 0 0 0 0 1768 1769 1768 1769 0 0 0 0 0 0 0 1768 1769 1768 1769 0 0 0 0 0 0 0 1768 1769 1768 1769 0 0 0 0 0 0 0 1768 1769 1768 1769 0 0 0 0 0 0 0 1768 1769 1768 1769 0 0 0 0 0 0 0 1768 1769 1768 1769 0 0 0 0 0 0 0 0 0 0 0 0 0 0 0 0 0 0 0 0 0 0
      0 1770 1771 1770 1771 0 0 0 0 0 0 0 1770 1771 1770 1771 0 0 0 0 0 0 0 1770 1771 1770 1771 0 0 0 0 0 0 0 1770 1771 1770 1771 0 0 0 0 0 0 0 1770 1771 1770 1771 0 0 0 0 0 0 0 1770 1771 1770 1771 0 0 0 0 0 0 0 1770 1771 1770 1771 0 0 0 0 0 0 0 1770 1771 1770 1771 0 0 0 0 0 0 0 1770 1771 1770 1771 0 0 0 0 0 0 0 0 0 0 0 0 0 0 0 0 0 0 0 0 0 0
      0 1772 1773 1772 1773 0 0 0 0 0 0 0 1772 1773 1772 1773 0 0 0 0 0 0 0 1772 1773 1772 1773 0 0 0 0 0 0 0 1772 1773 1772 1773 0 0 0 0 0 0 0 1772 1773 1772 1773 0 0 0 0 0 0 0 1772 1773 1772 1773 0 0 0 0 0 0 0 1772 1773 1772 1773 0 0 0 0 0 0 0 1772 1773 1772 1773 0 0 0 0 0 0 0 1772 1773 1772 1773 0 0 0 0 0 0 0 0 0 0 0 0 0 0 0 0 0 0 0 0 0 0
      0 1762 1763 1762 1763 0 0 0 0 0 0 0 1762 1763 1762 1763 0 0 0 0 0 0 0 1762 1763 1762 1763 0 0 0 0 0 0 0 1762 1763 1762 1763 0 0 0 0 0 0 0 1762 1763 1762 1763 0 0 0 0 0 0 0 1762 1763 1762 1763 0 0 0 0 0 0 0 1762 1763 1762 1763 0 0 0 0 0 0 0 1762 1763 1762 1763 0 0 0 0 0 0 0 1762 1763 1762 1763 0 0 0 0 0 0 0 0 0 0 0 0 0 0 0 0 0 0 0 0 0 0
      0 1762 1763 1762 1763 0 0 0 0 0 0 0 1762 1763 1762 1763 0 0 0 0 0 0 0 1762 1763 1762 1763 0 0 0 0 0 0 0 1762 1763 1762 1763 0 0 0 0 0 0 0 1762 1763 1762 1763 0 0 0 0 0 0 0 1762 1763 1762 1763 0 0 0 0 0 0 0 1762 1763 1762 1763 0 0 0 0 0 0 0 1762 1763 1762 1763 0 0 0 0 0 0 0 1762 1763 1762 1763 0 0 0 0 0 0 0 0 0 0 0 0 0 0 0 0 0 0 0 0 0 0
      0 1764 1765 1764 1765 0 0 0 0 0 0 0 1764 1765 1764 1765 0 0 0 0 0 0 0 1764 1765 1764 1765 0 0 0 0 0 0 0 1764 1765 1764 1765 0 0 0 0 0 0 0 1764 1765 1764 1765 0 0 0 0 0 0 0 1764 1765 1764 1765 0 0 0 0 0 0 0 1764 1765 1764 1765 0 0 0 0 0 0 0 1764 1765 1764 1765 0 0 0 0 0 0 0 1764 1765 1764 1765 0 0 0 0 0 0 0 0 0 0 0 0 0 0 0 0 0 0 0 0 0 0
      0 1766 1767 1766 1767 0 0 0 0 0 0 0 1766 1767 1766 1767 0 0 0 0 0 0 0 1766 1767 1766 1767 0 0 0 0 0 0 0 1766 1767 1766 1767 0 0 0 0 0 0 0 1766 1767 1766 1767 0 0 0 0 0 0 0 1766 1767 1766 1767 0 0 0 0 0 0 0 1766 1767 1766 1767 0 0 0 0 0 0 0 1766 1767 1766 1767 0 0 0 0 0 0 0 1766 1767 1766 1767 0 0 0 0 0 0 0 0 0 0 0 0 0 0 0 0 0 0 0 0 0 0
      0 1768 1769 1768 1769 0 0 0 0 0 0 0 1768 1769 1768 1769 0 0 0 0 0 0 0 1768 1769 1768 1769 0 0 0 0 0 0 0 1768 1769 1768 1769 0 0 0 0 0 0 0 1768 1769 1768 1769 0 0 0 0 0 0 0 1768 1769 1768 1769 0 0 0 0 0 0 0 1768 1769 1768 1769 0 0 0 0 0 0 0 1768 1769 1768 1769 0 0 0 0 0 0 0 1768 1769 1768 1769 0 0 0 0 0 0 0 0 0 0 0 0 0 0 0 0 0 0 0 0 0 0
      0 1770 1771 1770 1771 0 0 0 0 0 0 0 1770 1771 1770 1771 0 0 0 0 0 0 0 1770 1771 1770 1771 0 0 0 0 0 0 0 1770 1771 1770 1771 0 0 0 0 0 0 0 1770 1771 1770 1771 0 0 0 0 0 0 0 1770 1771 1770 1771 0 0 0 0 0 0 0 1770 1771 1770 1771 0 0 0 0 0 0 0 1770 1771 1770 1771 0 0 0 0 0 0 0 1770 1771 1770 1771 0 0 0 0 0 0 0 0 0 0 0 0 0 0 0 0 0 0 0 0 0 0
      0 1772 1773 1772 1773 0 0 0 0 0 0 0 1772 1773 1772 1773 0 0 0 0 0 0 0 1772 1773 1772 1773 0 0 0 0 0 0 0 1772 1773 1772 1773 0 0 0 0 0 0 0 1772 1773 1772 1773 0 0 0 0 0 0 0 1772 1773 1772 1773 0 0 0 0 0 0 0 1772 1773 1772 1773 0 0 0 0 0 0 0 1772 1773 1772 1773 0 0 0 0 0 0 0 1772 1773 1772 1773 0 0 0 0 0 0 0 0 0 0 0 0 0 0 0 0 0 0 0 0 0 0
      0 1762 1763 1762 1763 0 0 0 0 0 0 0 1762 1763 1762 1763 0 0 0 0 0 0 0 1762 1763 1762 1763 0 0 0 0 0 0 0 1762 1763 1762 1763 0 0 0 0 0 0 0 1762 1763 1762 1763 0 0 0 0 0 0 0 1762 1763 1762 1763 0 0 0 0 0 0 0 1762 1763 1762 1763 0 0 0 0 0 0 0 1762 1763 1762 1763 0 0 0 0 0 0 0 1762 1763 1762 1763 0 0 0 0 0 0 0 0 0 0 0 0 0 0 0 0 0 0 0 0 0 0
      0 1764 1765 1764 1765 0 0 0 0 0 0 0 1764 1765 1764 1765 0 0 0 0 0 0 0 1764 1765 1764 1765 0 0 0 0 0 0 0 1764 1765 1764 1765 0 0 0 0 0 0 0 1764 1765 1764 1765 0 0 0 0 0 0 0 1764 1765 1764 1765 0 0 0 0 0 0 0 1764 1765 1764 1765 0 0 0 0 0 0 0 1764 1765 1764 1765 0 0 0 0 0 0 0 1764 1765 1764 1765 0 0 0 0 0 0 0 0 0 0 0 0 0 0 0 0 0 0 0 0 0 0
      0 1766 1767 1766 1767 0 0 0 0 0 0 0 1766 1767 1766 1767 0 0 0 0 0 0 0 1766 1767 1766 1767 0 0 0 0 0 0 0 1766 1767 1766 1767 0 0 0 0 0 0 0 1766 1767 1766 1767 0 0 0 0 0 0 0 1766 1767 1766 1767 0 0 0 0 0 0 0 1766 1767 1766 1767 0 0 0 0 0 0 0 1766 1767 1766 1767 0 0 0 0 0 0 0 1766 1767 1766 1767 0 0 0 0 0 0 0 0 0 0 0 0 0 0 0 0 0 0 0 0 0 0
      0 1768 1769 1768 1769 0 0 0 0 0 0 0 1768 1769 1768 1769 0 0 0 0 0 0 0 1768 1769 1768 1769 0 0 0 0 0 0 0 1768 1769 1768 1769 0 0 0 0 0 0 0 1768 1769 1768 1769 0 0 0 0 0 0 0 1768 1769 1768 1769 0 0 0 0 0 0 0 1768 1769 1768 1769 0 0 0 0 0 0 0 1768 1769 1768 1769 0 0 0 0 0 0 0 1768 1769 1768 1769 0 0 0 0 0 0 0 0 0 0 0 0 0 0 0 0 0 0 0 0 0 0
      0 1770 1771 1770 1771 0 0 0 0 0 0 0 1770 1771 1770 1771 0 0 0 0 0 0 0 1770 1771 1770 1771 0 0 0 0 0 0 0 1770 1771 1770 1771 0 0 0 0 0 0 0 1770 1771 1770 1771 0 0 0 0 0 0 0 1770 1771 1770 1771 0 0 0 0 0 0 0 1770 1771 1770 1771 0 0 0 0 0 0 0 1770 1771 1770 1771 0 0 0 0 0 0 0 1770 1771 1770 1771 0 0 0 0 0 0 0 0 0 0 0 0 0 0 0 0 0 0 0 0 0 0
      0 1772 1773 1772 1773 0 0 0 0 0 0 0 1772 1773 1772 1773 0 0 0 0 0 0 0 1772 1773 1772 1773 0 0 0 0 0 0 0 1772 1773 1772 1773 0 0 0 0 0 0 0 1772 1773 1772 1773 0 0 0 0 0 0 0 1772 1773 1772 1773 0 0 0 0 0 0 0 1772 1773 1772 1773 0 0 0 0 0 0 0 1772 1773 1772 1773 0 0 0 0 0 0 0 1772 1773 1772 1773 0 0 0 0 0 0 0 0 0 0 0 0 0 0 0 0 0 0 0 0 0 0
      )
    )
    (tilemap
      (solid #f)
      (speed-x 0.25)
      (speed-y 0.25)
      (alpha 0.1)
      (z-pos -120)
      (name "stones")
      (path-ref "gen15456860912070844037824")
      (width 115)
      (height 25)
      (tiles
      2286 2287 2362 2363 2264 2265 2266 2267 2284 2285 2286 2287 2360 2361 2334 2335 2308 2309 2360 2361 2264 2265 2266 2267 2381 2236 2237 2238 2239 2381 2264 2265 2266 2267 2216 2217 2218 2219 2220 2221 2222 2223 2360 2361 2356 2357 2332 2333 2314 2315 2216 2217 2218 2219 2220 2221 2222 2223 2338 2339 0 0 0 0 0 0 0 0 0 0 0 0 0 0 0 0 0 0 0 0 0 0 0 0 0 0 0 0 0 0 0 0 0 0 0 0 0 0 0 0 0 0 0 0 0 0 0 0 0 0 0 0 0 0 0
      2298 2299 2374 2375 2276 2277 2278 2279 2296 2297 2298 2299 2372 2373 2346 2347 2320 2321 2372 2373 2276 2277 2278 2279 2381 2248 2249 2250 2251 2382 2276 2277 2278 2279 2228 2229 2230 2231 2232 2233 2234 2235 2372 2373 2368 2369 2344 2345 2326 2327 2228 2229 2230 2231 2232 2233 2234 2235 2350 2351 0 0 0 0 0 0 0 0 0 0 0 0 0 0 0 0 0 0 0 0 0 0 0 0 0 0 0 0 0 0 0 0 0 0 0 0 0 0 0 0 0 0 0 0 0 0 0 0 0 0 0 0 0 0 0
      2260 2261 2262 2263 2288 2289 2290 2291 2312 2313 2360 2361 2284 2285 2286 2287 2332 2333 2312 2313 2288 2289 2290 2291 2212 2213 2214 2215 2308 2309 2288 2289 2290 2291 2240 2241 2242 2243 2244 2245 2246 2247 2364 2365 2310 2311 2362 2363 2338 2339 2240 2241 2242 2243 2244 2245 2246 2247 2364 2365 0 0 0 0 0 0 0 0 0 0 0 0 0 0 0 0 0 0 0 0 0 0 0 0 0 0 0 0 0 0 0 0 0 0 0 0 0 0 0 0 0 0 0 0 0 0 0 0 0 0 0 0 0 0 0
      2272 2273 2274 2275 2300 2301 2302 2303 2324 2325 2372 2373 2296 2297 2298 2299 2344 2345 2324 2325 2300 2301 2302 2303 2224 2225 2226 2227 2320 2321 2300 2301 2302 2303 2252 2253 2254 2255 2256 2257 2258 2259 2376 2377 2322 2323 2374 2375 2350 2351 2252 2253 2254 2255 2256 2257 2258 2259 2376 2377 0 0 0 0 0 0 0 0 0 0 0 0 0 0 0 0 0 0 0 0 0 0 0 0 0 0 0 0 0 0 0 0 0 0 0 0 0 0 0 0 0 0 0 0 0 0 0 0 0 0 0 0 0 0 0
      2216 2217 2218 2219 2220 2221 2222 2223 2336 2337 2264 2265 2266 2267 2308 2309 2366 2367 2336 2337 2356 2357 2314 2315 2236 2237 2238 2239 2332 2333 2312 2313 2364 2365 2308 2309 2284 2285 2286 2287 2364 2365 2314 2315 2334 2335 2381 2310 2311 2212 2213 2215 2284 2285 2286 2287 2312 2313 2284 2285 2286 2287 0 0 0 0 0 0 0 0 0 0 0 0 0 0 0 0 0 0 0 0 0 0 0 0 0 0 0 0 0 0 0 0 0 0 0 0 0 0 0 0 0 0 0 0 0 0 0 0 0 0 0 0 0
      2228 2229 2230 2231 2232 2233 2234 2235 2348 2349 2276 2277 2278 2279 2320 2321 2378 2379 2348 2349 2368 2369 2326 2327 2248 2249 2250 2251 2344 2345 2324 2325 2376 2377 2320 2321 2296 2297 2298 2299 2376 2377 2326 2327 2346 2347 2383 2322 2323 2224 2225 2227 2296 2297 2298 2299 2324 2325 2296 2297 2298 2299 0 0 0 0 0 0 0 0 0 0 0 0 0 0 0 0 0 0 0 0 0 0 0 0 0 0 0 0 0 0 0 0 0 0 0 0 0 0 0 0 0 0 0 0 0 0 0 0 0 0 0 0 0
      2240 2241 2242 2243 2244 2245 2246 2247 2366 2367 2288 2289 2290 2291 2332 2333 2212 2213 2214 2215 2362 2363 2338 2339 2360 2361 2268 2269 2270 2271 2336 2337 2360 2361 2332 2333 2366 2367 2312 2313 2314 2315 2338 2339 2308 2309 2381 2334 2335 2382 2268 2269 2270 2271 2314 2315 2336 2337 2364 2365 0 0 0 0 0 0 0 0 0 0 0 0 0 0 0 0 0 0 0 0 0 0 0 0 0 0 0 0 0 0 0 0 0 0 0 0 0 0 0 0 0 0 0 0 0 0 0 0 0 0 0 0 0 0 0
      2252 2253 2254 2255 2256 2257 2258 2259 2378 2379 2300 2301 2302 2303 2344 2345 2224 2225 2226 2227 2374 2375 2350 2351 2372 2373 2280 2281 2282 2283 2348 2349 2372 2373 2344 2345 2378 2379 2324 2325 2326 2327 2350 2351 2320 2321 2381 2346 2347 2382 2280 2281 2282 2283 2326 2327 2348 2349 2376 2377 0 0 0 0 0 0 0 0 0 0 0 0 0 0 0 0 0 0 0 0 0 0 0 0 0 0 0 0 0 0 0 0 0 0 0 0 0 0 0 0 0 0 0 0 0 0 0 0 0 0 0 0 0 0 0
      2383 2284 2285 2286 2287 2381 2312 2313 2284 2285 2286 2287 2268 2269 2270 2271 2312 2313 2284 2285 2286 2287 2264 2265 2266 2267 2292 2293 2294 2295 2264 2265 2266 2267 2236 2237 2238 2239 2336 2337 2338 2339 2312 2313 2332 2333 2236 2237 2238 2239 2292 2293 2294 2295 2338 2339 2212 2213 2214 2215 0 0 0 0 0 0 0 0 0 0 0 0 0 0 0 0 0 0 0 0 0 0 0 0 0 0 0 0 0 0 0 0 0 0 0 0 0 0 0 0 0 0 0 0 0 0 0 0 0 0 0 0 0 0 0
      2383 2296 2297 2298 2299 2382 2324 2325 2296 2297 2298 2299 2280 2281 2282 2283 2324 2325 2296 2297 2298 2299 2276 2277 2278 2279 2304 2305 2306 2307 2276 2277 2278 2279 2248 2249 2250 2251 2348 2349 2350 2351 2324 2325 2344 2345 2248 2249 2250 2251 2304 2305 2306 2307 2350 2351 2224 2225 2226 2227 0 0 0 0 0 0 0 0 0 0 0 0 0 0 0 0 0 0 0 0 0 0 0 0 0 0 0 0 0 0 0 0 0 0 0 0 0 0 0 0 0 0 0 0 0 0 0 0 0 0 0 0 0 0 0
      2264 2265 2266 2267 2360 2361 2336 2337 2358 2359 2360 2361 2292 2293 2294 2295 2336 2337 2360 2361 2312 2313 2288 2289 2290 2291 2316 2317 2318 2319 2288 2289 2290 2291 2356 2357 2366 2367 2362 2363 2312 2313 2336 2337 2310 2311 2360 2361 2356 2357 2316 2317 2318 2319 2360 2361 2366 2367 2268 2269 2270 2271 0 0 0 0 0 0 0 0 0 0 0 0 0 0 0 0 0 0 0 0 0 0 0 0 0 0 0 0 0 0 0 0 0 0 0 0 0 0 0 0 0 0 0 0 0 0 0 0 0 0 0 0 0
      2276 2277 2278 2279 2372 2373 2348 2349 2370 2371 2372 2373 2304 2305 2306 2307 2348 2349 2372 2373 2324 2325 2300 2301 2302 2303 2328 2329 2330 2331 2300 2301 2302 2303 2368 2369 2378 2379 2374 2375 2324 2325 2348 2349 2322 2323 2372 2373 2368 2369 2328 2329 2330 2331 2372 2373 2378 2379 2280 2281 2282 2283 0 0 0 0 0 0 0 0 0 0 0 0 0 0 0 0 0 0 0 0 0 0 0 0 0 0 0 0 0 0 0 0 0 0 0 0 0 0 0 0 0 0 0 0 0 0 0 0 0 0 0 0 0
      2288 2289 2290 2291 2312 2313 2236 2237 2238 2239 2362 2363 2316 2317 2318 2319 2260 2261 2262 2263 2336 2337 2284 2285 2286 2287 2340 2341 2342 2343 2310 2311 2358 2359 2284 2285 2286 2287 2360 2361 2336 2337 2364 2365 2334 2335 2284 2285 2286 2287 2340 2341 2342 2343 2284 2285 2286 2287 2292 2293 2294 2295 0 0 0 0 0 0 0 0 0 0 0 0 0 0 0 0 0 0 0 0 0 0 0 0 0 0 0 0 0 0 0 0 0 0 0 0 0 0 0 0 0 0 0 0 0 0 0 0 0 0 0 0 0
      2300 2301 2302 2303 2324 2325 2248 2249 2250 2251 2374 2375 2328 2329 2330 2331 2272 2273 2274 2275 2348 2349 2296 2297 2298 2299 2352 2353 2354 2355 2322 2323 2370 2371 2296 2297 2298 2299 2372 2373 2348 2349 2376 2377 2346 2347 2296 2297 2298 2299 2352 2353 2354 2355 2296 2297 2298 2299 2304 2305 2306 2307 0 0 0 0 0 0 0 0 0 0 0 0 0 0 0 0 0 0 0 0 0 0 0 0 0 0 0 0 0 0 0 0 0 0 0 0 0 0 0 0 0 0 0 0 0 0 0 0 0 0 0 0 0
      2366 2367 2308 2309 2336 2337 2314 2315 2236 2237 2238 2239 2340 2341 2342 2343 2284 2285 2286 2287 2260 2261 2262 2263 2212 2213 2214 2215 2360 2361 2334 2335 2260 2261 2262 2263 2212 2213 2214 2215 2364 2365 2264 2265 2266 2267 2364 2365 2362 2363 2312 2313 2212 2213 2214 2215 2314 2315 2316 2317 2318 2319 0 0 0 0 0 0 0 0 0 0 0 0 0 0 0 0 0 0 0 0 0 0 0 0 0 0 0 0 0 0 0 0 0 0 0 0 0 0 0 0 0 0 0 0 0 0 0 0 0 0 0 0 0
      2378 2379 2320 2321 2348 2349 2326 2327 2248 2249 2250 2251 2352 2353 2354 2355 2296 2297 2298 2299 2272 2273 2274 2275 2224 2225 2226 2227 2372 2373 2346 2347 2272 2273 2274 2275 2224 2225 2226 2227 2376 2377 2276 2277 2278 2279 2376 2377 2374 2375 2324 2325 2224 2225 2226 2227 2326 2327 2328 2329 2330 2331 0 0 0 0 0 0 0 0 0 0 0 0 0 0 0 0 0 0 0 0 0 0 0 0 0 0 0 0 0 0 0 0 0 0 0 0 0 0 0 0 0 0 0 0 0 0 0 0 0 0 0 0 0
      2360 2361 2332 2333 2310 2311 2338 2339 2362 2363 2236 2237 2238 2239 2308 2309 2364 2365 2212 2213 2214 2215 2212 2213 2214 2215 2260 2261 2262 2263 2260 2261 2262 2263 2236 2237 2238 2239 2236 2237 2238 2239 2288 2289 2290 2291 2212 2213 2214 2215 2336 2337 2364 2365 2314 2315 2338 2339 2340 2341 2342 2343 0 0 0 0 0 0 0 0 0 0 0 0 0 0 0 0 0 0 0 0 0 0 0 0 0 0 0 0 0 0 0 0 0 0 0 0 0 0 0 0 0 0 0 0 0 0 0 0 0 0 0 0 0
      2372 2373 2344 2345 2322 2323 2350 2351 2374 2375 2248 2249 2250 2251 2320 2321 2376 2377 2224 2225 2226 2227 2224 2225 2226 2227 2272 2273 2274 2275 2272 2273 2274 2275 2248 2249 2250 2251 2248 2249 2250 2251 2300 2301 2302 2303 2224 2225 2226 2227 2348 2349 2376 2377 2326 2327 2350 2351 2352 2353 2354 2355 0 0 0 0 0 0 0 0 0 0 0 0 0 0 0 0 0 0 0 0 0 0 0 0 0 0 0 0 0 0 0 0 0 0 0 0 0 0 0 0 0 0 0 0 0 0 0 0 0 0 0 0 0
      2358 2359 2364 2365 2334 2335 2358 2359 2308 2309 2268 2269 2270 2271 2332 2333 2308 2309 2362 2363 2264 2265 2266 2267 2360 2361 2360 2361 2308 2309 2308 2309 2312 2313 2360 2361 2212 2213 2214 2215 2216 2217 2218 2219 2220 2221 2222 2223 2312 2313 2236 2237 2238 2239 2338 2339 2260 2261 2262 2263 0 0 0 0 0 0 0 0 0 0 0 0 0 0 0 0 0 0 0 0 0 0 0 0 0 0 0 0 0 0 0 0 0 0 0 0 0 0 0 0 0 0 0 0 0 0 0 0 0 0 0 0 0 0 0
      2370 2371 2376 2377 2346 2347 2370 2371 2320 2321 2280 2281 2282 2283 2344 2345 2320 2321 2374 2375 2276 2277 2278 2279 2372 2373 2372 2373 2320 2321 2320 2321 2324 2325 2372 2373 2224 2225 2226 2227 2228 2229 2230 2231 2232 2233 2234 2235 2324 2325 2248 2249 2250 2251 2350 2351 2272 2273 2274 2275 0 0 0 0 0 0 0 0 0 0 0 0 0 0 0 0 0 0 0 0 0 0 0 0 0 0 0 0 0 0 0 0 0 0 0 0 0 0 0 0 0 0 0 0 0 0 0 0 0 0 0 0 0 0 0
      2216 2217 2218 2219 2220 2221 2222 2223 2332 2333 2292 2293 2294 2295 2308 2309 2332 2333 2364 2365 2288 2289 2290 2291 2382 2383 2362 2363 2332 2333 2344 2345 2336 2337 2308 2309 2284 2285 2286 2287 2240 2241 2242 2243 2244 2245 2246 2247 2336 2337 2360 2361 2308 2309 2264 2265 2266 2267 2264 2265 2266 2267 0 0 0 0 0 0 0 0 0 0 0 0 0 0 0 0 0 0 0 0 0 0 0 0 0 0 0 0 0 0 0 0 0 0 0 0 0 0 0 0 0 0 0 0 0 0 0 0 0 0 0 0 0
      2228 2229 2230 2231 2232 2233 2234 2235 2344 2345 2304 2305 2306 2307 2320 2321 2344 2345 2376 2377 2300 2301 2302 2303 2382 2382 2374 2375 2344 2345 2381 2382 2348 2349 2320 2321 2296 2297 2298 2299 2252 2253 2254 2255 2256 2257 2258 2259 2348 2349 2372 2373 2320 2321 2276 2277 2278 2279 2276 2277 2278 2279 0 0 0 0 0 0 0 0 0 0 0 0 0 0 0 0 0 0 0 0 0 0 0 0 0 0 0 0 0 0 0 0 0 0 0 0 0 0 0 0 0 0 0 0 0 0 0 0 0 0 0 0 0
      2240 2241 2242 2243 2244 2245 2246 2247 2308 2309 2316 2317 2318 2319 2332 2333 2314 2315 2260 2261 2262 2263 2284 2285 2286 2287 2236 2237 2238 2239 2212 2213 2214 2215 2332 2333 2366 2367 2312 2313 2264 2265 2266 2267 2212 2213 2214 2215 2356 2357 2308 2309 2332 2333 2288 2289 2290 2291 2288 2289 2290 2291 0 0 0 0 0 0 0 0 0 0 0 0 0 0 0 0 0 0 0 0 0 0 0 0 0 0 0 0 0 0 0 0 0 0 0 0 0 0 0 0 0 0 0 0 0 0 0 0 0 0 0 0 0
      2252 2253 2254 2255 2256 2257 2258 2259 2320 2321 2328 2329 2330 2331 2344 2345 2326 2327 2272 2273 2274 2275 2296 2297 2298 2299 2248 2249 2250 2251 2224 2225 2226 2227 2344 2345 2378 2379 2324 2325 2276 2277 2278 2279 2224 2225 2226 2227 2368 2369 2320 2321 2344 2345 2300 2301 2302 2303 2300 2301 2302 2303 0 0 0 0 0 0 0 0 0 0 0 0 0 0 0 0 0 0 0 0 0 0 0 0 0 0 0 0 0 0 0 0 0 0 0 0 0 0 0 0 0 0 0 0 0 0 0 0 0 0 0 0 0
      2356 2357 2284 2285 2286 2287 2364 2365 2332 2333 2340 2341 2342 2343 2308 2309 2338 2339 2380 2381 2212 2213 2214 2215 2260 2261 2262 2263 2284 2285 2286 2287 2314 2315 2236 2237 2238 2239 2336 2337 2288 2289 2290 2291 2362 2363 2212 2213 2214 2215 2332 2333 2216 2217 2218 2219 2222 2223 2360 2361 0 0 0 0 0 0 0 0 0 0 0 0 0 0 0 0 0 0 0 0 0 0 0 0 0 0 0 0 0 0 0 0 0 0 0 0 0 0 0 0 0 0 0 0 0 0 0 0 0 0 0 0 0 0 0
      )
    )
  )
)
