(supertux-level
  (version 2)
  (name (_ "Planet Nolok - Monochrome Valley"))
  (author "Miksy91")
  (license "CC-BY-SA 4.0 International")
  (sector
    (name "main")
    (ambient-light
      (color 1 1 1)
    )
    (background
      (alignment "bottom")
      (speed 0.5)
      (image-top "images/background/transparent_up.png")
      (image "/images/background/halloween/mountain.png")
      (image-bottom "images/background/transparent_up.png")
    )
    (bouncingsnowball
      (direction "left")
      (x 673)
      (y 165)
    )
    (bouncingsnowball
      (direction "left")
      (x 684)
      (y 218)
    )
    (bouncingsnowball
      (direction "left")
      (x 568)
      (y 238)
    )
    (bouncingsnowball
      (direction "left")
      (x 619)
      (y 224)
    )
    (bouncingsnowball
      (direction "left")
      (x 599)
      (y 192)
    )
    (bouncingsnowball
      (direction "left")
      (x 656)
      (y 214)
    )
    (bouncingsnowball
      (direction "left")
      (x 654)
      (y 171)
    )
    (bouncingsnowball
      (direction "left")
      (x 612)
      (y 160)
    )
    (bouncingsnowball
      (direction "left")
      (x 695)
      (y 184)
    )
    (bouncingsnowball
      (direction "left")
      (x 677)
      (y 185)
    )
    (bouncingsnowball
      (direction "left")
      (x 659)
      (y 179)
    )
    (bouncingsnowball
      (direction "left")
      (x 698)
      (y 168)
    )
    (camera
      (name "Camera")
      (mode "normal")
    )
    (decal
      (z-pos -100)
      (sprite "/images/decal/snow/exitbg.png")
      (x 1248)
      (y 352)
    )
    (decal
      (z-pos -100)
      (sprite "/images/decal/snow/exitfg.png")
      (x 1344)
      (y 352)
    )
    (decal
      (z-pos -100)
      (sprite "/images/decal/snow/exitbg.png")
      (x 896)
      (y 416)
    )
    (decal
      (z-pos -100)
      (sprite "/images/decal/snow/exitfg.png")
      (x 992)
      (y 416)
    )
    (flyingsnowball
      (direction "left")
      (x 463.5)
      (y 459.5)
    )
    (flyingsnowball
      (direction "left")
      (x 417.5)
      (y 508.75)
    )
    (flyingsnowball
      (direction "left")
      (x 337)
      (y 544)
    )
    (gradient
      (top_color 0.5 0.5 0.5)
      (bottom_color 0 0 0)
      (z-pos -350)
    )
    (haywire
      (direction "left")
      (x 1947.1)
      (y 224.1)
    )
    (iceflame
      (direction "left")
      (x 2927.6)
      (y 287.3499)
    )
    (jumpy
      (direction "left")
      (x 3498)
      (y 165)
    )
    (jumpy
      (direction "left")
      (x 3498)
      (y 165)
    )
    (jumpy
      (direction "left")
      (x 3637)
      (y 165)
    )
    (jumpy
      (direction "left")
      (x 3901)
      (y 183)
    )
    (mrbomb
      (direction "left")
      (x 1814.75)
      (y 240.25)
    )
    (mrbomb
      (direction "left")
      (x 2470.5)
      (y 457.5)
    )
    (mrbomb
      (direction "left")
      (x 2046.25)
      (y 248)
    )
    (mrbomb
      (direction "left")
      (x 2688)
      (y 328.25)
    )
    (mrbomb
      (direction "left")
      (x 2787)
      (y 331)
    )
    (mrbomb
      (direction "left")
      (x 3292.75)
      (y 226.75)
    )
    (mrbomb
      (direction "left")
      (x 3387)
      (y 209.75)
    )
    (mrbomb
      (direction "left")
      (x 3628)
      (y 275)
    )
    (mrbomb
      (direction "left")
      (x 3893)
      (y 279)
    )
    (mrbomb
      (direction "left")
      (x 4210)
      (y 86)
    )
    (music
      (file "/music/forest/forest_theme.ogg")
    )
    (spawnpoint
      (name "main")
      (x 128)
      (y 448)
    )
    (spiky
      (direction "left")
      (x 3830)
      (y 285)
    )
    (stalactite
      (direction "left")
      (x 4098.75)
      (y 3)
    )
    (stalactite
      (direction "left")
      (x 4131)
      (y 1.5)
    )
    (stalactite
      (direction "left")
      (x 4164)
      (y 1.5)
    )
    (stalactite
      (direction "left")
      (x 4194.75)
      (y 2.25)
    )
    (stalactite
      (direction "left")
      (x 4228)
      (y 0.25)
    )
    (tilemap
      (solid #f)
      (tint 0.2 0.2 0.15)
      (z-pos -100)
      (name "Background")
      (width 160)
      (height 25)
      (tiles
      0 0 0 0 0 0 0 0 0 0 0 0 0 0 0 0 0 0 0 0 0 0 0 0 0 0 0 0 0 0 0 0 0 0 0 0 0 0 0 0 0 0 0 0 0 0 0 0 0 0 0 0 0 0 0 0 0 0 0 0 0 0 0 0 0 0 0 0 0 0 0 0 0 0 0 0 0 0 0 0 0 0 0 0 0 0 0 0 0 0 0 0 0 0 0 0 0 0 0 0 0 0 0 0 0 0 0 0 0 0 0 0 0 0 0 0 0 0 0 0 0 0 0 0 0 0 0 0 0 0 0 0 0 0 0 0 0 0 0 0 0 0 0 0 0 0 0 0 0 0 0 0 0 0 0 0 0 0 0 0
      0 0 0 0 0 0 0 0 0 0 0 0 0 0 0 0 0 0 0 0 0 0 0 0 0 0 0 0 0 0 0 0 0 0 0 0 0 0 0 0 0 0 0 0 0 0 0 0 0 0 0 0 0 0 0 0 0 0 0 0 0 0 0 0 0 0 0 0 0 0 0 0 0 0 0 0 0 0 0 0 0 0 0 0 0 0 0 0 0 0 0 0 0 0 0 0 0 0 0 0 0 0 0 0 0 0 0 0 0 0 0 0 0 0 0 0 0 0 0 0 0 0 0 0 0 0 0 0 0 0 0 0 0 0 0 0 0 0 0 0 0 0 0 0 0 0 0 0 0 0 0 0 0 0 0 0 0 0 0 0
      0 0 0 0 0 0 0 0 0 0 0 0 0 0 0 0 0 0 0 0 0 0 0 0 0 0 0 0 0 0 0 0 0 0 0 0 0 0 0 0 0 0 0 0 0 0 0 0 0 0 0 0 0 0 0 0 0 0 0 0 0 0 0 0 0 0 0 0 0 0 0 0 0 0 0 0 0 0 0 0 0 0 0 0 0 0 0 0 0 0 0 0 0 0 0 0 0 0 0 0 0 0 0 0 0 0 0 0 0 0 0 0 0 0 0 0 0 0 0 0 0 0 0 0 0 0 0 0 0 0 0 0 0 0 0 0 0 0 0 0 0 0 0 0 0 0 0 0 0 0 0 0 0 0 0 0 0 0 0 0
      0 0 0 0 0 0 0 0 0 0 0 0 0 0 0 0 0 0 0 0 0 0 0 0 0 0 0 0 0 0 0 0 0 0 0 0 0 0 0 0 0 0 0 0 0 0 0 0 0 0 0 0 0 0 0 0 0 0 0 0 0 0 0 0 0 0 0 0 0 0 0 0 0 0 0 0 0 0 0 0 0 0 0 0 0 0 0 0 0 0 0 0 0 0 0 0 0 0 0 0 0 0 0 0 0 0 0 0 0 0 0 0 0 0 0 0 0 0 0 0 0 0 0 0 0 0 0 0 0 0 0 0 0 0 0 0 0 0 0 0 0 0 0 0 0 0 0 0 0 0 0 0 0 0 0 0 0 0 0 0
      0 0 0 0 0 0 0 0 0 0 0 0 0 0 0 0 0 0 0 0 0 0 0 0 0 0 0 0 0 0 0 0 0 0 0 0 0 0 0 0 0 0 0 0 0 0 0 0 0 0 0 0 0 0 0 0 0 0 0 0 0 0 0 2185 2199 2186 0 0 0 0 0 0 0 0 0 0 0 0 0 0 0 0 0 0 0 0 0 0 0 0 0 0 0 0 0 0 0 0 0 0 0 0 0 0 0 0 0 0 0 0 0 0 0 0 0 0 0 0 0 0 0 0 0 0 0 0 0 0 0 0 0 0 0 0 0 0 0 0 0 0 0 0 0 0 0 0 0 0 0 0 0 0 0 0 0 0 0 0 0 0
      0 0 0 0 0 0 0 0 0 0 0 0 0 0 0 0 0 0 0 0 0 0 0 0 0 0 0 0 0 0 0 0 0 0 0 0 0 0 0 0 0 0 0 0 0 0 0 0 0 0 0 0 0 0 0 0 0 0 0 0 0 0 0 2192 2188 2190 0 0 0 0 0 0 0 0 0 0 0 0 0 0 0 0 0 0 0 0 0 0 0 0 0 0 0 0 0 0 0 0 0 0 0 0 0 0 0 0 0 0 0 0 0 0 0 0 0 0 0 0 0 0 0 0 0 0 0 0 0 0 0 0 0 0 0 0 0 0 0 0 0 0 0 0 0 0 0 0 0 0 0 0 0 0 0 0 0 0 0 0 0 0
      0 0 0 0 0 0 0 0 0 0 0 0 0 0 0 0 0 0 0 0 0 0 0 0 0 0 0 0 0 0 0 0 0 0 0 0 0 0 0 0 0 0 0 0 0 0 0 0 0 0 0 0 0 0 0 0 0 0 0 0 2185 2186 2185 2200 2188 2190 0 0 0 0 0 0 0 0 0 0 0 0 0 0 0 0 0 0 0 0 0 0 0 0 0 0 0 0 0 0 0 0 0 0 0 0 0 0 0 0 0 0 0 0 0 0 0 0 0 0 0 0 0 0 0 0 0 0 0 0 0 0 0 0 0 0 0 0 0 0 0 0 0 0 0 0 0 0 0 0 0 0 0 0 0 0 0 0 0 0 0 0 0 0
      0 0 0 0 0 0 0 0 0 0 0 0 0 0 0 0 0 0 0 0 0 0 0 0 0 0 0 0 0 0 0 0 0 0 0 0 0 0 0 0 0 0 0 0 0 0 0 0 0 0 0 0 0 0 0 2185 2199 2199 2199 2199 2200 2198 2200 2188 2188 2190 0 0 0 0 0 0 0 0 0 0 0 0 0 0 0 0 0 0 0 0 0 0 0 0 0 0 0 0 0 0 0 0 0 0 0 0 0 0 0 0 0 0 0 0 0 0 0 0 0 0 0 0 0 0 0 0 0 0 0 0 0 0 0 0 0 0 0 0 0 0 0 0 0 0 0 0 0 0 0 0 0 0 0 0 0 0 0 0 0 0 0 0 0 0
      0 0 0 0 0 0 0 0 0 0 0 0 0 0 0 0 0 0 0 0 0 0 0 0 0 0 0 0 0 0 0 0 0 0 0 0 0 0 0 0 0 0 0 0 0 0 0 0 0 0 0 0 0 0 2185 2200 2188 2188 2188 2188 2188 2188 2188 2188 2188 2190 0 0 0 0 0 0 0 0 0 0 0 0 0 0 0 0 0 0 0 0 0 0 0 0 0 0 0 0 0 0 0 0 0 0 0 0 0 0 0 0 0 2199 2199 2186 0 0 0 0 0 0 0 0 0 0 0 0 0 2185 2186 0 0 0 0 0 0 0 0 0 0 0 0 0 0 0 0 0 0 0 0 0 0 0 0 0 0 0 0 0 0 0 0 0 0 0
      0 0 0 0 0 0 0 0 0 0 0 0 0 0 0 0 0 0 0 0 0 0 0 0 0 0 0 0 0 0 0 0 0 0 0 0 0 0 0 0 0 0 0 0 0 0 0 0 0 0 0 0 0 0 2192 2188 2188 2188 2188 2188 2188 2188 2188 2188 2188 2198 0 0 0 0 0 0 0 0 0 0 0 0 0 0 0 0 0 0 0 0 0 0 0 0 0 0 0 0 0 0 0 0 0 0 0 0 0 0 0 0 0 2188 2188 2198 2199 2186 0 0 0 0 0 0 0 0 0 0 0 2192 2190 0 0 0 0 0 0 0 0 0 0 0 0 0 0 0 0 0 0 0 0 0 0 0 0 0 0 0 0 0 0 0 0 0 0 0
      0 0 0 0 0 0 0 0 0 0 0 0 0 0 0 0 0 0 0 0 0 0 0 0 0 0 0 0 0 0 0 0 0 0 0 0 0 0 0 0 0 0 0 0 0 0 0 0 0 0 0 0 0 3178 0 0 0 0 0 0 0 0 0 0 0 0 0 3177 0 0 0 0 0 0 0 0 0 0 0 0 0 0 0 0 0 0 0 0 0 0 0 0 0 0 0 0 0 0 0 0 0 0 0 0 0 0 0 2188 2189 2188 2188 2198 2186 0 0 0 0 0 0 0 0 0 2185 2200 2190 0 0 0 0 0 0 0 0 0 0 0 0 0 0 0 0 0 0 0 0 0 0 0 0 0 0 0 0 0 0 0 0 0 0 0
      0 0 0 0 0 0 0 0 0 0 0 0 0 0 0 0 0 0 0 0 0 0 0 0 0 0 0 0 0 0 0 0 0 0 0 0 0 0 0 0 0 0 0 0 0 0 0 0 0 0 0 0 3176 0 0 0 0 0 0 0 0 0 0 0 0 0 0 0 2199 2199 2186 0 0 0 0 0 0 0 0 0 0 0 0 0 0 0 0 0 0 0 0 0 0 0 0 0 0 0 0 0 0 0 0 0 0 0 0 2188 2188 2196 2179 2188 2190 0 0 0 0 0 0 0 0 0 2192 2188 2190 0 0 0 0 0 0 0 0 0 0 0 0 0 0 0 0 0 0 0 130 0 0 126 0 0 0 0 0 0 0 0 0 0 0 0
      0 0 0 0 0 0 0 0 0 0 0 0 0 0 0 0 0 0 0 0 0 0 0 0 0 0 0 0 0 0 0 0 0 0 0 0 0 0 0 0 0 0 0 0 0 0 0 0 0 0 0 0 3176 0 0 0 0 0 0 0 0 0 0 0 0 0 0 0 2188 2188 2198 2199 2199 2186 0 0 0 0 0 0 0 0 0 0 0 0 0 0 0 0 0 0 0 0 0 0 0 0 0 0 0 2185 2199 0 0 0 0 2188 2179 2188 2188 2197 2198 2199 2186 0 0 0 0 0 0 0 2192 2179 2190 0 0 0 0 0 0 0 0 0 0 0 0 0 0 0 0 0 0 0 129 0 0 0 0 0 0 0 0 0 0 0 0 0 0 0
      0 0 0 0 0 0 0 0 0 0 0 0 0 0 0 0 0 0 0 0 0 0 0 0 0 0 0 0 0 0 0 0 0 0 0 0 0 0 0 0 0 0 0 0 0 0 0 0 0 0 0 0 0 0 0 0 0 0 0 0 0 0 0 0 0 0 0 0 2188 2189 2188 2188 2188 2198 2186 0 0 0 0 2185 2199 2199 2199 2199 0 0 0 0 0 0 0 0 2199 2199 2199 2186 0 0 2185 2186 0 2192 2188 0 0 0 0 2188 2182 2183 2184 2188 2188 2181 2198 2186 0 0 0 0 0 2185 2200 2188 2198 2199 0 0 0 0 0 0 0 0 0 0 0 0 0 0 0 0 0 0 129 0 0 0 0 0 0 0 0 0 0 0 0 0 0 0
      0 0 0 0 0 0 0 0 0 0 0 0 0 0 0 0 0 0 0 0 0 0 0 0 0 0 0 0 0 0 0 0 0 0 0 0 0 0 0 0 0 0 0 0 0 0 0 0 0 0 0 0 3178 0 0 0 0 0 0 0 0 0 0 0 0 0 0 0 2188 2188 2188 2188 2188 2188 2198 2199 2199 2199 2199 2200 2188 2188 2188 2188 0 0 0 0 0 0 0 0 2188 2196 2188 2198 0 0 2192 2190 0 2192 2188 0 0 0 0 2188 2198 2199 2200 2188 2189 2188 2188 2198 0 0 0 0 2185 2200 2188 2189 2188 2188 0 0 0 0 0 0 2199 2186 0 0 0 0 0 0 0 0 0 0 129 0 0 0 0 0 0 0 0 0 0 0 0 0 0 0
      0 0 0 0 0 0 0 0 0 0 0 0 0 0 0 0 0 0 0 0 0 0 0 0 0 0 0 0 0 0 0 0 0 0 0 0 0 0 0 0 0 0 0 0 0 0 0 0 0 0 2185 2199 2199 0 0 0 0 0 0 0 0 0 0 0 0 0 0 0 2188 2181 2188 2188 2188 2188 2188 2188 2188 2188 2182 2183 2183 2184 2188 2188 2188 2188 2188 2188 2188 2188 2188 2188 2188 2188 2188 2196 2198 2186 2192 2190 0 2192 2188 0 0 0 0 0 0 0 0 0 0 0 0 0 0 0 0 0 0 0 0 0 0 0 0 0 0 0 0 0 2188 2198 2199 2186 0 0 0 0 0 0 0 0 129 0 0 0 0 0 0 0 0 0 0 0 0 0 0 0
      0 0 0 0 0 0 0 0 0 0 0 0 0 0 0 0 0 0 0 0 0 0 0 0 0 0 0 0 0 0 0 0 0 0 0 0 0 0 0 0 0 0 0 0 0 0 0 0 0 2185 2200 2188 2188 0 0 0 0 0 0 0 0 0 0 0 0 0 0 0 2188 2179 2188 2188 2188 2182 2183 2183 2183 2183 2198 0 2199 2200 2188 2188 2188 2188 2188 2188 2197 2188 2188 2181 2181 2188 2188 2189 2188 2190 2192 2198 2199 2200 2188 0 0 0 0 0 0 0 0 0 0 0 0 0 0 0 0 0 0 0 0 0 0 0 0 0 0 0 0 0 2188 2181 2188 2198 2186 0 0 0 0 0 0 0 129 2385 0 0 0 0 0 0 0 0 0 0 0 0 0 0
      0 0 0 0 0 0 0 0 0 2199 2199 2186 0 0 0 2185 2186 0 0 0 0 0 0 0 0 0 0 0 0 0 0 0 0 0 0 0 0 0 0 0 0 0 0 0 0 0 0 0 2199 2200 2188 2180 2188 0 0 0 0 0 0 0 0 0 0 0 0 0 0 0 2188 2188 2188 2188 2188 2198 0 2200 2188 2188 2188 2188 2179 2188 2188 2188 2188 2181 2188 2188 2180 2188 2182 2183 2184 2188 2188 2188 2188 2198 2200 2181 2188 2196 2188 0 0 0 0 0 0 0 0 0 0 0 0 0 0 0 0 0 0 0 0 0 0 0 0 0 0 0 0 0 2188 2195 2180 2188 2190 0 0 0 0 0 0 0 0 0 0 0 0 0 0 0 0 0 0 0 0 0 0 0
      0 0 2185 2200 0 0 0 0 0 2188 2188 2198 2186 0 0 2192 2190 0 0 0 0 0 0 0 0 0 0 0 0 0 0 0 0 0 0 0 0 0 0 0 0 0 0 0 0 0 0 0 2188 2188 2180 2188 2188 0 0 0 0 0 0 0 0 0 0 0 0 0 0 0 2188 2180 2187 2188 2188 2188 2179 2188 2188 2188 2188 2188 2188 2188 2188 2188 2188 2179 2188 2188 2188 2188 2190 0 2193 2184 2187 2188 2197 2181 2188 2188 2195 2188 2188 0 0 0 0 0 0 0 0 0 0 0 0 0 0 0 0 0 0 0 0 0 0 0 0 0 0 0 0 0 2188 2188 2187 2188 2198 2186 0 0 0 0 0 0 0 0 0 0 0 0 0 0 0 0 0 0 0 0 0 0
      0 0 2192 2188 0 0 0 0 0 2188 2188 2188 2198 2186 0 2192 2190 0 0 0 0 0 0 0 0 0 0 0 0 0 0 0 0 0 0 0 0 0 0 0 0 0 0 0 0 0 0 0 2188 2188 2188 2188 2188 0 0 0 0 0 0 0 0 0 0 0 0 0 0 0 2188 2188 2188 2181 2188 2180 2188 2188 2188 2188 2181 2188 2180 2187 2188 2188 2188 2188 2188 2188 2188 2188 2198 2199 2199 2200 2188 2188 2188 2179 2188 2188 2188 2188 2188 0 0 0 0 0 0 0 0 0 0 0 0 0 0 0 0 0 0 0 0 0 0 0 0 0 0 0 0 0 2188 2179 2188 2188 2188 2190 0 0 0 0 0 0 0 0 0 0 0 0 0 0 0 0 0 0 0 0 0 0
      0 2185 2200 2188 0 0 0 0 0 2188 2195 2188 2188 2198 2199 2200 2188 0 0 0 0 0 0 0 0 0 0 0 0 0 0 0 0 0 0 0 0 0 0 0 0 0 0 0 0 0 0 0 2188 2189 2188 2195 2189 0 0 0 0 0 0 0 0 0 0 0 0 0 0 0 2188 2181 2188 2188 2188 2188 2180 2187 2188 2188 2179 2188 2188 2181 2188 2188 2188 2180 2187 2188 2179 2188 2188 2188 2188 2188 2181 2188 2188 2188 2188 2188 2181 2188 2188 0 0 0 0 0 0 0 0 0 0 0 0 0 0 0 0 0 0 0 0 0 0 0 0 0 0 0 0 0 2188 2180 2179 2188 2188 2190 0 0 0 2185 2200 0 0 0 0 0 0 0 0 0 0 0 0 0 0 0 0 0
      0 2192 2180 2188 0 0 0 0 0 2188 2188 2188 2179 2188 2188 2189 2188 0 0 0 0 0 0 0 0 0 0 0 0 0 0 0 0 0 0 0 0 0 0 0 0 0 0 0 0 0 0 0 2188 2188 2195 2188 2188 0 0 0 0 0 0 0 0 0 0 0 0 0 0 0 2188 2179 2188 2188 2188 2181 2188 2188 2181 2188 2188 2188 2188 2179 2188 2188 2188 2188 2188 2181 2188 2180 2188 2188 2187 2179 2188 2188 2188 2180 2187 2188 2179 2196 2188 0 0 0 0 0 0 0 0 0 0 0 0 0 0 0 0 0 0 0 0 0 0 0 0 0 0 0 0 0 2188 2188 2197 2195 2188 2198 2199 2186 0 2193 2184 0 0 0 0 0 0 0 0 0 0 0 0 0 0 0 0 0
      0 2192 2188 2188 0 0 0 0 0 2188 2189 2188 2180 2188 2188 2188 2188 0 0 0 0 0 0 0 0 0 0 0 0 0 0 0 0 0 0 0 0 0 0 0 0 0 0 0 0 0 0 0 2188 2189 2188 2188 2188 0 0 0 0 0 0 0 0 0 0 0 0 0 0 0 2188 2188 2188 2188 2188 2179 2188 2188 2188 2188 2180 2187 2188 2188 2188 2188 2195 2188 2188 2188 2188 2188 2181 2188 2188 2188 2188 2188 2188 2188 2188 2181 2188 2188 2188 0 0 0 0 0 0 0 0 0 0 0 0 0 0 0 0 0 0 0 0 0 0 0 0 0 0 0 0 0 2188 2188 2188 2188 2188 2188 2188 2198 2186 0 0 0 0 0 0 0 0 0 0 0 0 0 0 0 0 0 0 0
      2185 2200 2196 2188 0 0 0 0 0 2188 2188 2188 2188 2195 2188 2195 2188 0 0 0 0 0 0 0 0 0 0 0 0 0 0 0 0 0 0 0 0 0 0 0 0 0 0 0 0 0 0 0 2188 2188 2195 2188 2188 0 0 0 0 0 0 0 0 0 0 0 0 0 0 0 2188 2180 2187 2188 2188 2188 2188 2188 2188 2188 2188 2188 2181 2180 2187 2188 2188 2180 2188 2179 2188 2188 2188 2188 2188 2180 2187 2188 2188 2188 2188 2188 2180 2187 2188 0 0 0 0 0 0 0 0 0 0 0 0 0 0 0 0 0 0 0 0 0 0 0 0 0 0 0 0 0 2188 2179 2188 2188 2188 2179 2188 2188 2198 2199 2199 0 0 0 0 0 0 0 0 0 0 0 0 0 0 0 0 0
      2192 2188 2179 2188 0 0 0 0 0 2188 2188 2195 2188 2188 2188 2189 2188 0 0 0 0 0 0 0 0 0 0 0 0 0 0 0 0 0 0 0 0 0 0 0 0 0 0 0 0 0 0 0 2195 2188 2188 2188 2189 0 0 0 0 0 0 0 0 0 0 0 0 0 0 0 2188 2188 2188 2181 2188 2180 2187 2188 2188 2188 2188 2188 2188 2188 2188 2181 2188 2188 2188 2188 2188 2188 2188 2195 2188 2188 2188 2181 2188 2188 2188 2188 2188 2188 2181 0 0 0 0 0 0 0 0 0 0 0 0 0 0 0 0 0 0 0 0 0 0 0 0 0 0 0 0 0 2188 2188 2187 2188 2181 2188 2179 2188 2188 2188 2188 0 0 0 0 0 0 0 0 0 0 0 0 0 0 0 0 0
      )
    )
    (tilemap
      (solid #t)
      (tint 0.2 0.2 0.15)
      (z-pos 0)
      (name "Interactive")
      (width 160)
      (height 25)
      (tiles
      0 0 0 0 0 0 0 0 0 0 0 0 0 0 0 0 0 0 0 0 0 0 0 0 0 0 0 0 0 0 0 0 0 0 0 0 0 0 0 0 0 0 0 0 0 0 0 0 0 0 0 0 0 0 0 0 0 0 0 0 0 0 0 0 0 0 0 0 0 0 0 0 0 0 0 0 0 0 0 0 0 0 0 0 0 0 0 0 0 0 0 0 0 0 0 0 0 0 0 0 0 0 0 0 0 0 0 0 0 0 0 0 0 0 0 0 0 0 0 0 0 0 0 0 0 0 0 0 0 0 0 0 0 0 0 0 0 0 0 0 0 0 0 0 0 133 0 0 0 0 0 0 0 0 0 0 0 0 0 0
      0 0 0 0 0 0 0 0 0 0 0 0 0 0 0 0 0 0 0 0 0 0 0 0 0 0 0 0 0 0 0 0 0 0 0 0 0 0 0 0 0 0 0 0 0 0 0 0 0 0 0 0 0 0 0 0 0 0 0 0 0 0 0 0 0 0 0 0 0 0 0 0 0 0 0 0 0 0 0 0 0 0 0 0 0 0 0 0 0 0 0 0 0 0 0 0 0 0 0 0 0 0 0 0 0 0 0 0 0 0 0 0 0 0 0 0 0 0 0 0 0 0 0 0 0 0 0 0 0 0 0 0 0 0 0 0 0 0 0 0 0 0 0 0 0 133 0 0 0 0 0 0 0 0 0 0 0 0 0 0
      0 0 0 0 0 0 0 0 0 0 0 0 0 0 0 0 0 0 0 0 0 0 0 0 0 0 0 0 0 0 0 0 0 0 0 0 0 0 0 0 0 0 0 0 0 0 0 0 0 0 0 0 0 0 0 0 0 0 0 0 0 0 0 0 0 0 0 0 0 0 0 0 0 0 0 0 0 0 0 0 0 0 0 0 0 0 0 0 0 0 0 0 0 0 0 0 0 0 0 0 0 0 0 0 0 0 0 0 0 0 0 0 0 0 0 0 0 0 0 0 0 0 0 0 0 0 0 0 0 0 0 0 0 0 0 0 0 0 0 0 0 0 0 0 0 133 0 0 0 0 0 0 0 0 0 0 0 0 0 0
      0 0 0 0 0 0 0 0 0 0 0 0 0 0 0 0 0 0 0 0 0 0 0 0 0 0 0 0 0 0 0 0 0 0 0 0 0 0 0 0 0 0 0 0 0 0 0 0 0 0 0 0 0 0 0 0 0 0 0 0 0 0 0 0 0 0 0 0 0 0 0 0 0 0 0 0 0 0 0 0 0 0 0 0 0 0 0 0 0 0 0 0 0 0 0 0 0 0 0 0 0 0 0 0 0 0 0 0 0 0 0 0 0 0 0 0 0 0 0 0 0 0 0 0 0 0 0 0 0 0 0 0 0 0 0 0 0 0 0 0 0 0 0 0 0 133 0 0 0 0 0 0 0 0 0 0 0 0 0 0
      0 0 0 0 0 0 0 0 0 0 0 0 0 0 0 0 0 0 0 0 0 0 0 0 0 0 0 0 0 0 0 0 0 0 0 0 0 0 0 0 0 0 0 0 0 0 0 0 0 0 0 0 0 0 0 0 0 0 0 0 0 0 0 0 0 0 0 0 0 0 0 0 0 0 0 0 0 0 0 0 0 0 0 0 0 0 0 0 0 0 0 0 0 0 0 0 0 0 0 0 0 0 0 0 0 0 0 0 0 0 0 0 0 0 0 0 0 0 0 0 0 0 0 0 0 0 0 0 0 0 0 0 0 0 0 0 0 0 0 0 0 0 0 0 0 133 0 0 0 0 0 0 0 0 0 0 0 0 0 0
      0 0 0 0 0 0 0 0 0 0 0 0 0 0 0 0 0 0 0 0 0 0 0 0 0 0 0 0 0 0 0 0 0 0 0 0 0 0 0 0 0 0 0 0 0 0 0 0 0 0 0 0 0 0 0 0 0 0 0 0 0 0 0 0 0 0 0 0 0 0 0 0 0 0 0 0 0 0 0 0 0 0 0 0 0 0 0 0 0 0 0 0 0 0 0 0 0 0 0 0 0 0 0 0 0 0 0 0 0 0 0 0 0 0 0 0 0 0 0 0 0 0 0 0 0 0 0 0 0 0 0 0 0 0 0 0 0 0 0 0 0 0 0 0 0 133 0 0 0 0 0 0 0 0 0 0 0 0 0 0
      0 0 0 0 0 0 0 0 0 0 0 0 0 0 0 0 0 0 0 0 0 0 0 0 0 0 0 0 0 0 0 0 0 0 0 0 0 0 0 0 0 0 0 0 0 0 0 0 0 0 0 0 0 0 0 0 0 0 0 0 0 0 0 0 0 0 0 0 0 0 0 0 0 0 0 0 0 0 0 0 0 0 0 0 0 0 0 0 0 0 0 0 0 0 0 0 0 0 0 0 0 0 0 0 0 0 0 0 0 0 0 0 0 0 0 0 0 0 0 0 0 0 0 0 0 0 0 0 0 0 0 0 0 0 0 0 0 0 0 0 0 0 0 0 0 133 0 0 0 0 0 0 0 0 0 0 0 0 0 0
      0 0 0 0 0 0 0 0 0 0 0 0 0 0 0 0 0 0 0 0 0 0 0 0 0 0 0 0 0 0 0 0 0 0 0 0 0 0 0 0 0 0 0 0 0 0 0 0 0 0 0 0 0 0 0 0 0 0 0 0 0 0 0 0 0 0 0 0 0 0 0 0 0 0 0 0 0 0 0 0 0 0 0 0 0 0 0 0 0 0 0 2817 2817 0 0 0 0 0 0 0 0 0 2384 2385 2385 2385 2385 2386 0 0 0 0 0 0 0 0 0 0 0 0 0 0 0 0 0 0 0 0 0 0 0 0 0 0 0 0 0 0 0 0 0 0 0 0 0 133 0 0 0 0 0 0 0 0 0 0 0 0 0 0
      0 0 0 0 0 0 0 0 0 0 0 0 0 0 0 0 0 0 0 0 0 0 0 0 0 0 0 0 0 0 0 0 0 0 0 0 0 0 0 0 0 0 0 0 0 0 0 0 0 0 0 0 0 0 0 0 0 0 0 0 0 0 0 0 0 0 0 0 0 0 0 0 0 0 0 0 0 0 0 0 0 0 0 0 0 0 0 0 0 0 0 0 0 0 0 0 0 0 0 0 0 0 2387 2388 2388 2388 2388 2389 0 0 0 0 0 0 0 0 0 0 0 0 0 0 0 0 0 2384 2385 2385 2385 2385 2385 2385 2386 0 0 0 0 0 0 0 0 0 0 0 0 133 0 0 0 0 0 0 0 0 0 0 0 0 0 0
      0 0 0 0 0 0 0 0 0 0 0 0 0 0 0 0 0 0 0 0 0 0 0 0 0 0 0 0 0 0 0 0 0 0 0 0 0 0 0 0 0 0 0 0 0 0 0 0 0 0 0 0 0 3171 3182 3182 3182 3182 3182 3182 3182 3182 3182 3182 3182 3182 3182 3172 0 0 0 0 0 0 0 0 0 0 0 0 0 0 0 0 0 0 0 0 0 0 0 0 0 0 0 0 0 0 0 0 0 0 2390 2391 2391 2391 2391 2392 0 0 0 0 0 0 0 0 0 0 0 0 0 0 0 0 0 2387 2388 2388 2388 2388 2388 2388 2389 0 0 0 0 0 0 0 0 0 0 0 0 133 0 0 0 0 0 0 0 0 0 0 0 0 0 0
      0 0 0 0 0 0 0 0 0 0 0 0 0 0 0 0 0 0 0 0 0 0 0 0 0 0 0 0 0 0 0 0 0 0 0 0 0 0 0 0 0 0 0 0 0 0 0 0 0 0 0 0 3171 2976 2388 2388 2388 2388 2388 2388 2388 2388 2388 2388 2388 2388 2388 2980 3172 0 0 0 0 0 0 0 0 0 0 0 0 0 0 0 0 0 0 0 0 0 0 0 0 0 0 0 0 0 0 0 0 0 2390 2399 2391 2391 2391 2392 0 0 0 0 0 0 0 0 0 0 0 0 0 0 0 0 0 2390 2391 2391 2391 2391 2391 2391 2392 0 0 0 0 0 0 0 0 0 0 0 0 133 0 0 0 0 0 0 0 0 0 0 0 0 0 0
      0 0 0 0 0 0 0 0 0 0 0 0 0 0 0 0 0 0 0 0 0 0 0 0 0 0 0 0 0 0 0 0 0 0 0 0 0 0 0 0 0 0 0 0 0 0 0 0 0 0 0 0 3176 2977 2391 2391 2391 2391 2391 2391 2391 2391 2391 2391 2391 2391 2391 2981 3176 0 0 0 0 0 0 0 0 0 0 0 0 0 0 2384 2385 2385 2385 2385 2385 2385 2385 2385 2386 0 0 0 0 0 0 0 0 0 2390 2391 2398 2391 2391 2392 0 0 0 0 0 0 0 0 0 0 0 0 0 0 0 0 0 2390 2391 2391 2391 2391 2396 2391 2392 0 0 0 0 0 0 0 0 0 0 0 0 133 0 0 0 0 0 0 0 0 0 0 0 0 0 0
      0 0 0 0 0 0 0 0 0 0 0 0 0 0 0 0 0 0 0 0 0 0 0 0 0 0 0 0 0 0 0 0 0 0 0 0 0 0 0 0 0 0 0 0 0 0 0 0 0 0 0 0 3176 2391 2391 2391 2391 2391 2391 2391 2391 2391 2391 2391 2391 2391 2391 2391 3176 0 0 0 0 0 0 0 0 0 0 0 0 0 0 2387 2388 2388 2388 2388 2388 2388 2388 2388 2389 0 0 0 0 0 0 0 0 0 2390 2391 2391 2391 2391 2392 0 0 0 0 0 0 0 0 0 0 128 0 0 0 0 0 0 2390 2391 2391 2391 2391 2391 2391 2392 0 0 0 0 0 0 0 0 0 0 0 0 133 0 0 0 0 0 0 0 0 0 0 0 0 0 0
      0 0 0 0 0 0 0 0 0 0 0 0 0 0 0 0 2384 2385 2385 2385 2385 2385 2386 0 0 0 0 0 0 0 0 0 0 0 0 0 0 0 0 0 0 0 0 0 0 0 0 0 0 0 0 0 2390 2391 2391 2391 2391 2391 2391 2397 2391 2391 2391 2391 2391 2391 2391 2391 2392 0 0 0 0 0 0 0 0 0 0 0 0 0 0 2390 2391 2391 2396 2391 2391 2391 2391 2391 2392 0 0 0 0 0 0 0 0 0 2390 2391 2391 2391 2391 2392 0 0 0 0 0 0 0 0 0 0 0 0 0 0 0 0 0 2390 2391 2398 2391 2396 2391 2391 2392 0 0 0 0 0 0 0 0 0 0 0 0 133 0 0 0 0 0 0 0 0 0 0 0 0 0 0
      0 0 0 0 0 0 0 0 0 0 0 0 0 0 0 0 2387 2388 2388 2388 2388 2388 2389 0 0 0 0 0 0 0 0 0 0 0 0 0 0 0 0 0 0 0 0 0 0 0 0 0 0 0 0 3182 2390 2391 2391 2391 2391 2391 2391 2391 2391 2391 2391 2391 2391 2391 2391 2391 2392 0 0 0 0 0 0 0 0 0 0 0 0 0 0 2978 2962 2399 2397 2391 2391 2399 2391 2957 2982 0 0 0 0 0 0 0 0 0 2390 2391 2391 2399 2391 2958 2385 2385 2385 2385 2385 2385 2385 2385 2385 2385 2385 2385 2385 2385 2385 2385 2385 2961 2391 2391 2391 2391 2391 2391 2392 0 0 0 0 0 0 0 0 0 0 0 0 133 0 0 0 0 0 0 0 0 0 0 0 0 0 0
      0 0 0 0 0 0 0 0 0 0 0 0 0 0 0 0 2390 2391 2391 2391 2391 2391 2392 0 0 0 102 0 0 0 0 0 0 0 0 0 0 0 0 0 0 0 0 0 0 0 0 0 0 0 0 0 2390 2391 2391 2391 2391 2397 2391 2391 2391 2391 2391 2391 2399 2391 2391 2391 2392 0 0 0 0 0 0 0 0 0 0 0 0 0 0 0 2985 2989 2394 2394 2394 2394 2993 2996 0 0 0 0 0 0 0 0 0 0 2390 2391 2391 2391 2391 2959 2388 2388 2388 2388 2388 2388 2388 2388 2388 2388 2388 2388 2388 2388 2388 2388 2388 2960 2391 2391 2391 2391 2391 2391 2392 0 0 0 0 0 0 0 0 0 0 0 0 133 0 0 0 0 0 0 0 0 132 0 0 0 0 0
      0 0 0 2384 2385 2385 2385 2385 2385 2386 0 0 0 0 0 0 2390 2391 2396 2391 2391 2391 2392 0 0 0 0 0 0 0 0 0 0 0 0 0 0 0 2384 2385 2385 2385 2385 2385 2385 2385 2385 2385 2386 0 0 0 2390 2391 2391 2399 2391 2391 2391 2398 2391 2391 2391 2391 2391 2391 2391 2391 2392 0 0 0 0 0 3171 3182 3182 3182 3182 3182 3172 0 0 0 0 0 0 0 0 0 0 0 0 0 0 0 0 0 0 0 0 0 2390 2391 2391 2396 2391 2391 2391 2391 2391 2391 2391 2391 2391 2391 2391 2391 2391 2391 2391 2391 2391 2399 2391 2391 2391 2391 2391 2391 2391 2391 2392 0 0 0 0 0 0 0 0 0 2384 2385 2385 133 2385 2385 2385 2385 2385 2385 2385 2385 132 2385 2385 2385 2385 2385
      0 0 0 2387 2388 2388 2388 2388 2388 2389 0 0 0 0 0 0 2390 2391 2391 2391 2391 2398 2392 0 0 0 0 0 0 0 0 0 0 0 0 0 0 0 2387 2388 2388 2388 2388 2388 2388 2388 2388 2388 2389 0 0 0 2390 2391 2391 2391 2391 2391 2391 2391 2391 2391 2391 2391 2391 2391 2391 2391 2392 0 0 0 0 0 3176 0 0 0 0 0 0 0 0 0 0 0 0 0 0 0 0 0 0 0 0 0 0 0 0 0 0 0 2390 2391 2391 2398 2391 2391 2391 2391 2391 2391 2391 2391 2398 2391 2391 2391 2391 2391 2391 2391 2391 2391 2391 2391 2391 2391 2391 2391 2391 2391 2392 0 0 0 0 0 0 0 0 0 2387 2388 2388 2388 2388 2388 2388 2388 2388 2388 2388 2388 2388 2388 2388 2388 2388 2388
      0 0 0 2390 2391 2391 2391 2391 2391 2392 0 0 0 0 0 0 2390 2391 2391 2391 2391 2391 2392 2384 2385 2385 2385 2385 2385 2385 2385 2385 2385 2385 2385 2385 2385 2385 2961 2391 2391 2391 2391 2391 2391 2391 2391 2391 2392 0 0 0 2390 2391 2391 2398 2391 2391 2391 2391 2391 2391 2391 2391 2391 2391 2391 2391 2392 0 0 0 0 0 0 0 0 0 0 0 0 0 0 0 0 0 0 0 0 0 0 0 0 0 0 0 0 0 0 0 0 0 2390 2391 2391 2391 2391 2391 2391 2391 2391 2391 2391 2391 2391 2391 2391 2397 2391 2391 2391 2391 2396 2398 2391 2391 2391 2391 2391 2399 2391 2391 2392 0 0 0 0 0 0 0 0 0 2390 2391 2391 2391 2391 2391 2391 2391 2391 2391 2391 2391 2391 2391 2391 2391 2391 2391
      0 0 0 2390 2391 2391 2397 2399 2391 2392 0 0 0 0 0 0 2390 2391 2391 2391 2391 2391 2392 2387 2388 2388 2388 2388 2388 2388 2388 2388 2388 2388 2388 2388 2388 2388 2960 2391 2391 2397 2391 2391 2391 2391 2391 2391 2392 0 0 0 2390 2391 2391 2391 2391 2391 2391 2391 2391 2391 2399 2391 2398 2391 2391 2391 2392 0 0 0 0 0 0 0 0 0 0 0 0 0 0 0 0 0 0 0 0 0 0 2199 2199 0 0 0 0 0 0 0 0 0 2390 2391 2391 2391 2391 2391 2391 2391 2391 2391 2391 2391 2391 2391 2391 2391 2391 2391 2391 2391 2391 2391 2391 2391 2397 2391 2391 2391 2391 2391 2392 0 0 0 0 0 0 0 0 0 2390 2391 2391 2391 2391 2391 2391 2391 2391 2391 2391 2391 2391 2391 2391 2391 2391 2391
      0 0 0 2390 2391 2391 2391 2391 2391 2392 0 0 0 0 0 0 2390 2391 2391 2398 2399 2391 2392 2390 2391 2391 2391 2391 2391 2391 2391 2391 2391 2391 2391 2391 2391 2391 2398 2391 2391 2391 2391 2391 2391 2391 2391 2391 2392 0 0 0 2390 2391 2391 2391 2391 2391 2397 2391 2391 2391 2391 2391 2391 2391 2391 2391 2392 0 0 0 0 0 0 0 0 0 0 0 0 0 0 0 0 0 0 0 0 0 0 0 0 0 0 0 0 0 0 0 0 0 2390 2391 2391 2391 2391 2391 2391 2391 2391 2391 2391 2391 2391 2391 2391 2391 2399 2391 2391 2391 2391 2391 2391 2391 2391 2391 2391 2391 2391 2391 2392 0 0 0 0 0 0 0 0 0 2390 2391 2391 2391 2391 2391 2391 2391 2391 2391 2391 2391 2391 2391 2391 2391 2391 2391
      0 0 0 2390 2391 2396 2391 2398 2391 2392 0 0 0 0 0 0 2390 2397 2391 2391 2391 2391 2392 2390 2391 2391 2391 2391 2399 2391 2391 2391 2391 2391 2391 2391 2391 2391 2391 2391 2391 2399 2391 2391 2391 2391 2398 2391 2392 0 0 0 2390 2391 2391 2391 2391 2391 2391 2391 2391 2391 2398 2391 2391 2391 2391 2391 2392 0 0 0 0 0 0 0 0 0 0 0 0 0 0 0 0 0 0 0 0 0 0 0 0 0 0 0 0 0 0 0 0 0 2390 2391 2391 2391 2391 2391 2397 2391 2399 2391 2391 2391 2391 2391 2396 2391 2391 2391 2391 2391 2391 2391 2391 2391 2391 2391 2391 2391 2391 2391 2392 0 0 0 0 0 0 0 0 0 2390 2391 2391 2391 2391 2391 2391 2391 2391 2391 2391 2391 2391 2391 2391 2391 2391 2391
      0 0 0 2390 2391 2391 2391 2399 2391 2392 0 0 0 0 0 0 2390 2391 2391 2391 2396 2391 2392 2390 2391 2391 2391 2391 2391 2391 2398 2391 2391 2391 2391 2391 2396 2391 2391 2391 2391 2391 2391 2391 2391 2391 2391 2391 2392 0 0 0 2390 2391 2391 2391 2391 2399 2391 2391 2391 2391 2391 2391 2391 2391 2391 2391 2392 0 0 0 0 0 0 0 0 0 0 0 0 0 0 0 0 0 0 0 0 0 0 0 0 0 0 0 0 0 0 0 0 0 2390 2391 2391 2391 2391 2391 2391 2391 2391 2391 2391 2391 2391 2391 2391 2391 2391 2391 2397 2391 2391 2391 2391 2391 2391 2396 2391 2391 2391 2391 2392 0 0 0 0 0 0 0 0 0 2390 2391 2391 2391 2391 2391 2391 2391 2391 2391 2391 2391 2391 2391 2391 2391 2391 2391
      0 0 0 2390 2391 2391 2391 2391 2391 2392 0 0 0 0 0 0 2390 2391 2391 2391 2391 2391 2392 2390 2391 2399 2391 2391 2391 2397 2391 2391 2391 2391 2391 2391 2391 2391 2391 2391 2391 2391 2391 2391 2391 2396 2391 2391 2392 0 0 0 2390 2391 2398 2391 2391 2391 2391 2391 2391 2391 2391 2391 2391 2399 2397 2391 2392 0 0 0 0 0 0 0 0 0 0 0 0 0 0 0 0 0 0 0 0 0 0 0 0 0 0 0 0 0 0 0 0 0 2390 2391 2399 2396 2391 2391 2391 2391 2391 2391 2391 2391 2398 2391 2391 2391 2391 2391 2391 2391 2391 2391 2391 2391 2391 2391 2391 2391 2391 2391 2392 0 0 0 0 0 0 0 0 0 2390 2391 2391 2391 2391 2391 2391 2391 2391 2391 2391 2391 2391 2391 2391 2391 2391 2391
      0 0 0 2390 2391 2399 2391 2391 2391 2392 0 0 0 0 0 0 2390 2399 2391 2391 2391 2391 2392 2390 2391 2391 2391 2391 2391 2391 2391 2391 2391 2391 2391 2391 2391 2391 2391 2391 2391 2391 2391 2391 2391 2391 2391 2391 2392 0 0 0 2390 2391 2391 2391 2391 2391 2391 2391 2391 2391 2391 2391 2391 2391 2391 2391 2392 0 0 0 0 0 0 0 0 0 0 0 0 0 0 0 0 0 0 0 0 0 0 0 0 0 0 0 0 0 0 0 0 0 2390 2391 2391 2391 2391 2391 2391 2391 2391 2391 2391 2391 2391 2391 2391 2391 2391 2391 2391 2391 2391 2391 2391 2391 2391 2391 2391 2391 2391 2391 2392 0 0 0 0 0 0 0 0 0 2390 2391 2391 2391 2391 2391 2391 2391 2391 2391 2391 2391 2391 2391 2391 2391 2391 2391
      )
    )
    (tilemap
      (solid #f)
      (tint 0.2 0.2 0.15)
      (z-pos 100)
      (name "Foreground")
      (width 160)
      (height 25)
      (tiles
      0 0 0 0 0 0 0 0 0 0 0 0 0 0 0 0 0 0 0 0 0 0 0 0 0 0 0 0 0 0 0 0 0 0 0 0 0 0 0 0 0 0 0 0 0 0 0 0 0 0 0 0 0 0 0 0 0 0 0 0 0 0 0 0 0 0 0 0 0 0 0 0 0 0 0 0 0 0 0 0 0 0 0 0 0 0 0 0 0 0 0 0 0 0 0 0 0 0 0 0 0 0 0 0 0 0 0 0 0 0 0 0 0 0 0 0 0 0 0 0 0 0 0 0 0 0 0 0 0 0 0 0 0 0 0 0 0 0 0 0 0 0 0 0 0 0 0 0 0 0 0 0 0 0 0 0 0 0 0 0
      0 0 0 0 0 0 0 0 0 0 0 0 0 0 0 0 0 0 0 0 0 0 0 0 0 0 0 0 0 0 0 0 0 0 0 0 0 0 0 0 0 0 0 0 0 0 0 0 0 0 0 0 0 0 0 0 0 0 0 0 0 0 0 0 0 0 0 0 0 0 0 0 0 0 0 0 0 0 0 0 0 0 0 0 0 0 0 0 0 0 0 0 0 0 0 0 0 0 0 0 0 0 0 0 0 0 0 0 0 0 0 0 0 0 0 0 0 0 0 0 0 0 0 0 0 0 0 0 0 0 0 0 0 0 0 0 0 0 0 0 0 0 0 0 0 0 0 0 0 0 0 0 0 0 0 0 0 0 0 0
      0 0 0 0 0 0 0 0 0 0 0 0 0 0 0 0 0 0 0 0 0 0 0 0 0 0 0 0 0 0 0 0 0 0 0 0 0 0 0 0 0 0 0 0 0 0 0 0 0 0 0 0 0 0 0 0 0 0 0 0 0 0 0 0 0 0 0 0 0 0 0 0 0 0 0 0 0 0 0 0 0 0 0 0 0 0 0 0 0 0 0 0 0 0 0 0 0 0 0 0 0 0 0 0 0 0 0 0 0 0 0 0 0 0 0 0 0 0 0 0 0 0 0 0 0 0 0 0 0 0 0 0 0 0 0 0 0 0 0 0 0 0 0 0 0 0 0 0 0 0 0 0 0 0 0 0 0 0 0 0
      0 0 0 0 0 0 0 0 0 0 0 0 0 0 0 0 0 0 0 0 0 0 0 0 0 0 0 0 0 0 0 0 0 0 0 0 0 0 0 0 0 0 0 0 0 0 0 0 0 0 0 0 0 0 0 0 0 0 0 0 0 0 0 0 0 0 0 0 0 0 0 0 0 0 0 0 0 0 0 0 0 0 0 0 0 0 0 0 0 0 0 0 0 0 0 0 0 0 0 0 0 0 0 0 0 0 0 0 0 0 0 0 0 0 0 0 0 0 0 0 0 0 0 0 0 0 0 0 0 0 0 0 0 0 0 0 0 0 0 0 0 0 0 0 0 0 0 0 0 0 0 0 0 0 0 0 0 0 0 0
      0 0 0 0 0 0 0 0 0 0 0 0 0 0 0 0 0 0 0 0 0 0 0 0 0 0 0 0 0 0 0 0 0 0 0 0 0 0 0 0 0 0 0 0 0 0 0 0 0 0 0 0 0 0 0 0 0 0 0 0 0 0 0 0 0 0 0 0 0 0 0 0 0 0 0 0 0 0 0 0 0 0 0 0 0 0 0 0 0 0 0 0 0 0 0 0 0 0 0 0 0 0 0 0 0 0 0 0 0 0 0 0 0 0 0 0 0 0 0 0 0 0 0 0 0 0 0 0 0 0 0 0 0 0 0 0 0 0 0 0 0 0 0 0 0 0 0 0 0 0 0 0 0 0 0 0 0 0 0 0
      0 0 0 0 0 0 0 0 0 0 0 0 0 0 0 0 0 0 0 0 0 0 0 0 0 0 0 0 0 0 0 0 0 0 0 0 0 0 0 0 0 0 0 0 0 0 0 0 0 0 0 0 0 0 0 0 0 0 0 0 0 0 0 0 0 0 0 0 0 0 0 0 0 0 0 0 0 0 0 0 0 0 0 0 0 0 0 0 0 0 0 0 0 0 0 0 0 0 0 0 0 0 0 0 0 0 0 0 0 0 0 0 0 0 0 0 0 0 0 0 0 0 0 0 0 0 0 0 0 0 0 0 0 0 0 0 0 0 0 0 0 0 0 0 0 0 0 0 0 0 0 0 0 0 0 0 0 0 0 0
      0 0 0 0 0 0 0 0 0 0 0 0 0 0 0 0 0 0 0 0 0 0 0 0 0 0 0 0 0 0 0 0 0 0 0 0 0 0 0 0 0 0 0 0 0 0 0 0 0 0 0 0 0 0 0 0 0 0 0 0 0 0 0 0 0 0 0 0 0 0 0 0 0 0 0 0 0 0 0 0 0 0 0 0 0 0 0 0 0 0 0 0 0 0 0 0 0 0 0 0 0 0 0 0 0 0 0 0 0 0 0 0 0 0 0 0 0 0 0 0 0 0 0 0 0 0 0 0 0 0 0 0 0 0 0 0 0 0 0 0 0 0 0 0 0 0 0 0 0 0 0 0 0 0 0 0 0 0 0 0
      0 0 0 0 0 0 0 0 0 0 0 0 0 0 0 0 0 0 0 0 0 0 0 0 0 0 0 0 0 0 0 0 0 0 0 0 0 0 0 0 0 0 0 0 0 0 0 0 0 0 0 0 0 0 0 0 0 0 0 0 0 0 0 0 0 0 0 0 0 0 0 0 0 0 0 0 0 0 0 0 0 0 0 0 0 0 0 0 0 0 0 0 0 0 0 0 0 0 0 0 0 0 0 0 0 0 0 0 0 0 0 0 0 0 0 0 0 0 0 0 0 0 0 0 0 0 0 0 0 0 0 0 0 0 0 0 0 0 0 0 0 0 0 0 0 0 0 0 0 0 0 0 0 0 0 0 0 0 0 0
      0 0 0 0 0 0 0 0 0 0 0 0 0 0 0 0 0 0 0 0 0 0 0 0 0 0 0 0 0 0 0 0 0 0 0 0 0 0 0 0 0 0 0 0 0 0 0 0 0 0 0 0 0 0 0 0 0 0 0 0 0 0 0 0 0 0 0 0 0 0 0 0 0 0 0 0 0 0 0 0 0 0 0 0 0 0 0 0 0 0 0 0 0 0 0 0 0 0 0 0 0 0 0 0 0 0 0 0 0 0 0 0 0 0 0 0 0 0 0 0 0 0 0 0 0 0 0 0 0 0 0 0 0 0 0 0 0 0 0 0 0 0 0 0 0 0 0 0 0 0 0 0 0 0 0 0 0 0 0 0
      0 0 0 0 0 0 0 0 0 0 0 0 0 0 0 0 0 0 0 0 0 0 0 0 0 0 0 0 0 0 0 0 0 0 0 0 0 0 0 0 0 0 0 0 0 0 0 0 0 0 0 0 0 2975 2385 2385 2385 2385 2385 2385 2385 2385 2385 2385 2385 2385 2385 2979 0 0 0 0 0 0 0 0 0 0 0 0 0 0 0 0 0 0 0 0 0 0 0 0 0 0 0 0 0 0 0 0 0 0 0 0 0 0 0 0 0 0 0 0 0 0 0 0 0 0 0 0 0 0 0 0 0 0 0 0 0 0 0 0 0 0 0 0 0 0 0 0 0 0 0 0 0 0 0 0 0 0 0 0 0 0 0 0 0 0 0 0
      0 0 0 0 0 0 0 0 0 0 0 0 0 0 0 0 0 0 0 0 0 0 0 0 0 0 0 0 0 0 0 0 0 0 0 0 0 0 0 0 0 0 0 0 0 0 0 0 0 0 0 0 0 0 0 0 0 0 0 0 0 0 0 0 0 0 0 0 0 0 0 0 0 0 0 0 0 0 0 0 0 0 0 0 0 0 0 0 0 0 0 0 0 0 0 0 0 0 0 0 0 0 0 0 0 0 0 0 0 0 0 0 0 0 0 0 0 0 0 0 0 0 0 0 0 0 0 0 0 0 0 0 0 0 0 0 0 0 0 0 0 0 0 0 0 0 0 0 0 0 0 0 0 0 0 0 0 0 0 0
      0 0 0 0 0 0 0 0 0 0 0 0 0 0 0 0 0 0 0 0 0 0 0 0 0 0 0 0 0 0 0 0 0 0 0 0 0 0 0 0 0 0 0 0 0 0 0 0 0 0 0 0 2964 0 0 0 0 0 0 0 0 0 0 0 0 0 0 0 2970 0 0 0 0 0 0 0 0 0 0 0 0 0 0 0 0 0 0 0 0 0 0 0 0 0 0 0 0 0 0 0 0 0 0 0 0 0 0 0 0 0 0 0 0 0 0 0 0 0 0 0 0 0 0 0 0 0 0 0 0 0 0 0 0 0 0 0 0 0 0 0 0 0 0 0 0 0 130 0 0 0 127 0 0 0 0 0 0 0 0 0
      0 0 0 0 0 0 0 0 0 0 0 0 0 0 0 0 0 0 0 0 0 0 0 0 0 0 0 0 0 0 0 0 0 0 0 0 0 0 0 0 0 0 0 0 0 0 0 0 0 0 0 0 2965 0 0 0 0 0 0 0 0 0 0 0 0 0 0 0 2971 0 0 0 0 0 0 0 0 0 0 0 0 0 0 0 0 0 0 0 0 0 0 0 0 0 0 0 0 0 0 0 0 0 0 0 0 0 0 0 0 0 0 0 0 0 0 0 0 0 0 0 0 0 0 0 0 0 0 0 0 0 0 0 0 0 0 0 0 0 0 0 0 0 0 0 0 0 129 0 0 0 0 0 0 0 0 0 0 0 0 0
      0 0 0 0 0 0 0 0 0 0 0 0 0 0 0 0 0 0 0 0 0 0 0 0 0 0 0 0 0 0 0 0 0 0 0 0 0 0 0 0 0 0 0 0 0 0 0 0 0 0 0 0 0 0 0 0 0 0 0 0 0 0 0 0 0 0 0 0 0 0 0 0 0 0 0 0 0 0 0 0 0 0 0 0 0 0 0 0 0 0 0 0 0 0 0 0 0 0 0 0 0 0 0 0 0 0 0 0 0 0 0 0 0 0 0 0 0 0 0 0 0 0 0 0 0 0 0 0 0 0 0 0 0 0 0 0 0 0 0 0 0 0 0 0 0 0 129 0 0 0 0 0 0 0 0 0 0 0 0 0
      0 0 0 0 0 0 0 0 0 0 0 0 0 0 0 0 0 0 0 0 0 0 0 0 0 0 0 0 0 0 0 0 0 0 0 0 0 0 0 0 0 0 0 0 0 0 0 0 0 0 0 0 0 0 0 0 0 0 0 0 0 0 0 0 0 0 0 0 0 0 0 0 0 0 0 0 0 0 0 0 0 0 0 0 0 0 0 0 0 0 0 0 0 0 0 0 0 0 0 0 0 0 0 0 0 0 0 0 0 0 0 0 0 0 0 0 0 0 0 0 0 0 0 0 0 0 0 0 0 0 0 0 0 0 0 0 0 0 0 0 0 0 0 0 0 0 129 0 0 0 0 0 0 0 0 0 0 0 0 0
      0 0 0 0 0 0 0 0 0 0 0 0 0 0 0 0 0 0 0 0 0 0 0 0 0 0 0 0 0 0 0 0 0 0 0 0 0 0 0 0 0 0 0 0 0 0 0 0 0 0 0 0 0 0 0 0 0 0 0 0 0 0 0 0 0 0 0 0 0 0 0 0 0 0 0 0 0 0 0 0 0 0 0 0 0 0 0 0 0 0 0 0 0 0 0 0 0 0 0 0 0 0 0 0 0 0 0 0 0 0 0 0 0 0 0 0 0 0 0 0 0 0 0 0 0 0 0 0 0 0 0 0 0 0 0 0 0 0 0 0 0 0 0 0 0 0 129 0 0 0 0 0 0 0 0 0 0 0 0 0
      0 0 0 0 0 0 0 0 0 0 0 0 0 0 0 0 0 0 0 0 0 0 0 0 0 0 0 0 0 0 0 0 0 0 0 0 0 0 0 0 0 0 0 0 0 0 0 0 0 0 0 0 0 0 0 0 0 0 0 0 0 0 0 0 0 0 0 0 0 0 0 0 0 0 0 2185 2199 2199 2199 2199 2199 0 0 0 0 0 0 0 0 0 0 0 0 0 0 0 0 0 0 0 0 0 0 0 0 0 0 0 0 0 0 0 0 0 0 0 0 0 0 0 0 0 0 0 0 0 0 0 0 0 0 0 0 0 0 0 0 0 0 0 0 0 0 0 0 0 129 0 0 0 0 0 0 0 0 0 0 0 0 0
      0 0 0 0 0 0 0 0 0 0 0 0 0 0 0 0 0 0 0 0 0 0 0 0 0 0 0 0 0 0 0 0 0 0 0 0 0 0 0 0 0 0 0 0 0 0 0 0 0 0 0 0 0 0 0 0 0 0 0 0 0 0 0 0 0 0 0 0 0 0 0 0 0 0 2199 0 0 0 0 0 0 0 0 0 0 0 0 0 0 0 0 0 0 0 0 0 0 0 0 0 0 0 0 0 0 0 0 0 0 0 0 0 0 0 0 0 0 0 0 0 0 0 0 0 0 0 0 0 0 0 0 0 0 0 0 0 0 0 0 0 0 0 0 0 0 0 0 0 0 0 0 0 0 0 0 0 0 0 0 0
      0 0 0 0 0 0 0 0 0 0 0 0 0 0 0 0 0 0 0 0 0 0 0 0 0 0 0 0 0 0 0 0 0 0 0 0 0 0 0 0 0 0 0 0 0 0 0 0 0 0 0 0 0 0 0 0 0 0 0 0 0 0 0 0 0 0 0 0 0 0 0 0 0 0 0 0 0 0 0 0 0 0 0 0 0 0 0 0 0 0 0 0 0 0 0 0 0 0 0 0 0 0 0 0 0 0 0 0 0 0 0 0 0 0 0 0 0 0 0 0 0 0 0 0 0 0 0 0 0 0 0 0 0 0 0 0 0 0 0 0 0 0 0 0 0 0 0 0 0 0 0 0 0 0 0 0 0 0 0 0
      0 0 0 0 0 0 0 0 0 0 0 0 0 0 0 0 0 0 0 0 0 0 0 0 0 0 0 0 0 0 0 0 0 0 0 0 0 0 0 0 0 0 0 0 0 0 0 0 0 0 0 0 0 0 0 0 0 0 0 0 0 0 0 0 0 0 0 0 0 0 0 0 0 0 0 0 0 0 0 0 0 0 0 0 0 0 0 0 0 0 0 0 0 0 0 0 0 0 0 0 0 0 0 0 0 0 0 0 0 0 0 0 0 0 0 0 0 0 0 0 0 0 0 0 0 0 0 0 0 0 0 0 0 0 0 0 0 0 0 0 0 0 0 0 0 0 0 0 0 0 0 0 0 0 0 0 0 0 0 0
      0 0 0 0 0 0 0 0 0 0 0 0 0 0 0 0 0 0 0 0 0 0 0 0 0 0 0 0 0 0 0 0 0 0 0 0 0 0 0 0 0 0 0 0 0 0 0 0 0 0 0 0 0 0 0 0 0 0 0 0 0 0 0 0 0 0 0 0 0 0 0 0 0 0 0 0 0 0 0 0 0 0 0 0 0 0 0 0 0 0 0 0 0 0 0 0 0 0 0 0 0 0 0 0 0 0 0 0 0 0 0 0 0 0 0 0 0 0 0 0 0 0 0 0 0 0 0 0 0 0 0 0 0 0 0 0 0 0 0 0 0 0 0 0 0 0 0 0 0 0 0 0 0 0 0 0 0 0 0 0
      0 0 0 0 0 0 0 0 0 0 0 0 0 0 0 0 0 0 0 0 0 0 0 0 0 0 0 0 0 0 0 0 0 0 0 0 0 0 0 0 0 0 0 0 0 0 0 0 0 0 0 0 0 0 0 0 0 0 0 0 0 0 0 0 0 0 0 0 0 0 0 0 0 0 0 0 0 0 0 0 0 0 0 0 0 0 0 0 0 0 0 0 0 0 0 0 0 0 0 0 0 0 0 0 0 0 0 0 0 0 0 0 0 0 0 0 0 0 0 0 0 0 0 0 0 0 0 0 0 0 0 0 0 0 0 0 0 0 0 0 0 0 0 0 0 0 0 0 0 0 0 0 0 0 0 0 0 0 0 0
      0 0 0 0 0 0 0 0 0 0 0 0 0 0 0 0 0 0 0 0 0 0 0 0 0 0 0 0 0 0 0 0 0 0 0 0 0 0 0 0 0 0 0 0 0 0 0 0 0 0 0 0 0 0 0 0 0 0 0 0 0 0 0 0 0 0 0 0 0 0 0 0 0 0 0 0 0 0 0 0 0 0 0 0 0 0 0 0 0 0 0 0 0 0 0 0 0 0 0 0 0 0 0 0 0 0 0 0 0 0 0 0 0 0 0 0 0 0 0 0 0 0 0 0 0 0 0 0 0 0 0 0 0 0 0 0 0 0 0 0 0 0 0 0 0 0 0 0 0 0 0 0 0 0 0 0 0 0 0 0
      0 0 0 0 0 0 0 0 0 0 0 0 0 0 0 0 0 0 0 0 0 0 0 0 0 0 0 0 0 0 0 0 0 0 0 0 0 0 0 0 0 0 0 0 0 0 0 0 0 0 0 0 0 0 0 0 0 0 0 0 0 0 0 0 0 0 0 0 0 0 0 0 0 0 0 0 0 0 0 0 0 0 0 0 0 0 0 0 0 0 0 0 0 0 0 0 0 0 0 0 0 0 0 0 0 0 0 0 0 0 0 0 0 0 0 0 0 0 0 0 0 0 0 0 0 0 0 0 0 0 0 0 0 0 0 0 0 0 0 0 0 0 0 0 0 0 0 0 0 0 0 0 0 0 0 0 0 0 0 0
      0 0 0 0 0 0 0 0 0 0 0 0 0 0 0 0 0 0 0 0 0 0 0 0 0 0 0 0 0 0 0 0 0 0 0 0 0 0 0 0 0 0 0 0 0 0 0 0 0 0 0 0 0 0 0 0 0 0 0 0 0 0 0 0 0 0 0 0 0 0 0 0 0 0 0 0 0 0 0 0 0 0 0 0 0 0 0 0 0 0 0 0 0 0 0 0 0 0 0 0 0 0 0 0 0 0 0 0 0 0 0 0 0 0 0 0 0 0 0 0 0 0 0 0 0 0 0 0 0 0 0 0 0 0 0 0 0 0 0 0 0 0 0 0 0 0 0 0 0 0 0 0 0 0 0 0 0 0 0 0
      )
    )
    (tilemap
      (solid #f)
      (alpha 0.7)
      (z-pos -250)
      (name "black")
      (width 160)
      (height 25)
      (tiles
      2035 2035 2035 2035 2035 2035 2035 2035 2035 2035 2035 2035 2035 2035 2035 2035 2035 2035 2035 2035 2035 2035 2035 2035 2035 2035 2035 2035 2035 2035 2035 2035 2035 2035 2035 2035 2035 2035 2035 2035 2035 2035 2035 2035 2035 2035 2035 2035 2035 2035 2035 2035 2035 2035 2035 2035 2035 2035 2035 2035 2035 2035 2035 2035 2035 2035 2035 2035 2035 2035 2035 2035 2035 2035 2035 2035 2035 2035 2035 2035 2035 2035 2035 2035 2035 2035 2035 2035 2035 2035 2035 2035 2035 2035 2035 2035 2035 2035 2035 2035 2035 2035 2035 2035 2035 2035 2035 2035 2035 2035 2035 2035 2035 2035 2035 2035 2035 2035 2035 2035 2035 2035 2035 2035 2035 2035 2035 2035 2035 2035 2035 2035 2035 2035 2035 2035 2035 2035 2035 2035 2035 2035 2035 2035 2035 2035 2035 2035 2035 2035 2035 2035 2035 2035 2035 2035 2035 2035 2035 2035
      2035 2035 2035 2035 2035 2035 2035 2035 2035 2035 2035 2035 2035 2035 2035 2035 2035 2035 2035 2035 2035 2035 2035 2035 2035 2035 2035 2035 2035 2035 2035 2035 2035 2035 2035 2035 2035 2035 2035 2035 2035 2035 2035 2035 2035 2035 2035 2035 2035 2035 2035 2035 2035 2035 2035 2035 2035 2035 2035 2035 2035 2035 2035 2035 2035 2035 2035 2035 2035 2035 2035 2035 2035 2035 2035 2035 2035 2035 2035 2035 2035 2035 2035 2035 2035 2035 2035 2035 2035 2035 2035 2035 2035 2035 2035 2035 2035 2035 2035 2035 2035 2035 2035 2035 2035 2035 2035 2035 2035 2035 2035 2035 2035 2035 2035 2035 2035 2035 2035 2035 2035 2035 2035 2035 2035 2035 2035 2035 2035 2035 2035 2035 2035 2035 2035 2035 2035 2035 2035 2035 2035 2035 2035 2035 2035 2035 2035 2035 2035 2035 2035 2035 2035 2035 2035 2035 2035 2035 2035 2035
      2035 2035 2035 2035 2035 2035 2035 2035 2035 2035 2035 2035 2035 2035 2035 2035 2035 2035 2035 2035 2035 2035 2035 2035 2035 2035 2035 2035 2035 2035 2035 2035 2035 2035 2035 2035 2035 2035 2035 2035 2035 2035 2035 2035 2035 2035 2035 2035 2035 2035 2035 2035 2035 2035 2035 2035 2035 2035 2035 2035 2035 2035 2035 2035 2035 2035 2035 2035 2035 2035 2035 2035 2035 2035 2035 2035 2035 2035 2035 2035 2035 2035 2035 2035 2035 2035 2035 2035 2035 2035 2035 2035 2035 2035 2035 2035 2035 2035 2035 2035 2035 2035 2035 2035 2035 2035 2035 2035 2035 2035 2035 2035 2035 2035 2035 2035 2035 2035 2035 2035 2035 2035 2035 2035 2035 2035 2035 2035 2035 2035 2035 2035 2035 2035 2035 2035 2035 2035 2035 2035 2035 2035 2035 2035 2035 2035 2035 2035 2035 2035 2035 2035 2035 2035 2035 2035 2035 2035 2035 2035
      2035 2035 2035 2035 2035 2035 2035 2035 2035 2035 2035 2035 2035 2035 2035 2035 2035 2035 2035 2035 2035 2035 2035 2035 2035 2035 2035 2035 2035 2035 2035 2035 2035 2035 2035 2035 2035 2035 2035 2035 2035 2035 2035 2035 2035 2035 2035 2035 2035 2035 2035 2035 2035 2035 2035 2035 2035 2035 2035 2035 2035 2035 2035 2035 2035 2035 2035 2035 2035 2035 2035 2035 2035 2035 2035 2035 2035 2035 2035 2035 2035 2035 2035 2035 2035 2035 2035 2035 2035 2035 2035 2035 2035 2035 2035 2035 2035 2035 2035 2035 2035 2035 2035 2035 2035 2035 2035 2035 2035 2035 2035 2035 2035 2035 2035 2035 2035 2035 2035 2035 2035 2035 2035 2035 2035 2035 2035 2035 2035 2035 2035 2035 2035 2035 2035 2035 2035 2035 2035 2035 2035 2035 2035 2035 2035 2035 2035 2035 2035 2035 2035 2035 2035 2035 2035 2035 2035 2035 2035 2035
      2035 2035 2035 2035 2035 2035 2035 2035 2035 2035 2035 2035 2035 2035 2035 2035 2035 2035 2035 2035 2035 2035 2035 2035 2035 2035 2035 2035 2035 2035 2035 2035 2035 2035 2035 2035 2035 2035 2035 2035 2035 2035 2035 2035 2035 2035 2035 2035 2035 2035 2035 2035 2035 2035 2035 2035 2035 2035 2035 2035 2035 2035 2035 2035 2035 2035 2035 2035 2035 2035 2035 2035 2035 2035 2035 2035 2035 2035 2035 2035 2035 2035 2035 2035 2035 2035 2035 2035 2035 2035 2035 2035 2035 2035 2035 2035 2035 2035 2035 2035 2035 2035 2035 2035 2035 2035 2035 2035 2035 2035 2035 2035 2035 2035 2035 2035 2035 2035 2035 2035 2035 2035 2035 2035 2035 2035 2035 2035 2035 2035 2035 2035 2035 2035 2035 2035 2035 2035 2035 2035 2035 2035 2035 2035 2035 2035 2035 2035 2035 2035 2035 2035 2035 2035 2035 2035 2035 2035 2035 2035
      2035 2035 2035 2035 2035 2035 2035 2035 2035 2035 2035 2035 2035 2035 2035 2035 2035 2035 2035 2035 2035 2035 2035 2035 2035 2035 2035 2035 2035 2035 2035 2035 2035 2035 2035 2035 2035 2035 2035 2035 2035 2035 2035 2035 2035 2035 2035 2035 2035 2035 2035 2035 2035 2035 2035 2035 2035 2035 2035 2035 2035 2035 2035 2035 2035 2035 2035 2035 2035 2035 2035 2035 2035 2035 2035 2035 2035 2035 2035 2035 2035 2035 2035 2035 2035 2035 2035 2035 2035 2035 2035 2035 2035 2035 2035 2035 2035 2035 2035 2035 2035 2035 2035 2035 2035 2035 2035 2035 2035 2035 2035 2035 2035 2035 2035 2035 2035 2035 2035 2035 2035 2035 2035 2035 2035 2035 2035 2035 2035 2035 2035 2035 2035 2035 2035 2035 2035 2035 2035 2035 2035 2035 2035 2035 2035 2035 2035 2035 2035 2035 2035 2035 2035 2035 2035 2035 2035 2035 2035 2035
      2035 2035 2035 2035 2035 2035 2035 2035 2035 2035 2035 2035 2035 2035 2035 2035 2035 2035 2035 2035 2035 2035 2035 2035 2035 2035 2035 2035 2035 2035 2035 2035 2035 2035 2035 2035 2035 2035 2035 2035 2035 2035 2035 2035 2035 2035 2035 2035 2035 2035 2035 2035 2035 2035 2035 2035 2035 2035 2035 2035 2035 2035 2035 2035 2035 2035 2035 2035 2035 2035 2035 2035 2035 2035 2035 2035 2035 2035 2035 2035 2035 2035 2035 2035 2035 2035 2035 2035 2035 2035 2035 2035 2035 2035 2035 2035 2035 2035 2035 2035 2035 2035 2035 2035 2035 2035 2035 2035 2035 2035 2035 2035 2035 2035 2035 2035 2035 2035 2035 2035 2035 2035 2035 2035 2035 2035 2035 2035 2035 2035 2035 2035 2035 2035 2035 2035 2035 2035 2035 2035 2035 2035 2035 2035 2035 2035 2035 2035 2035 2035 2035 2035 2035 2035 2035 2035 2035 2035 2035 2035
      2035 2035 2035 2035 2035 2035 2035 2035 2035 2035 2035 2035 2035 2035 2035 2035 2035 2035 2035 2035 2035 2035 2035 2035 2035 2035 2035 2035 2035 2035 2035 2035 2035 2035 2035 2035 2035 2035 2035 2035 2035 2035 2035 2035 2035 2035 2035 2035 2035 2035 2035 2035 2035 2035 2035 2035 2035 2035 2035 2035 2035 2035 2035 2035 2035 2035 2035 2035 2035 2035 2035 2035 2035 2035 2035 2035 2035 2035 2035 2035 2035 2035 2035 2035 2035 2035 2035 2035 2035 2035 2035 2035 2035 2035 2035 2035 2035 2035 2035 2035 2035 2035 2035 2035 2035 2035 2035 2035 2035 2035 2035 2035 2035 2035 2035 2035 2035 2035 2035 2035 2035 2035 2035 2035 2035 2035 2035 2035 2035 2035 2035 2035 2035 2035 2035 2035 2035 2035 2035 2035 2035 2035 2035 2035 2035 2035 2035 2035 2035 2035 2035 2035 2035 2035 2035 2035 2035 2035 2035 2035
      2035 2035 2035 2035 2035 2035 2035 2035 2035 2035 2035 2035 2035 2035 2035 2035 2035 2035 2035 2035 2035 2035 2035 2035 2035 2035 2035 2035 2035 2035 2035 2035 2035 2035 2035 2035 2035 2035 2035 2035 2035 2035 2035 2035 2035 2035 2035 2035 2035 2035 2035 2035 2035 2035 2035 2035 2035 2035 2035 2035 2035 2035 2035 2035 2035 2035 2035 2035 2035 2035 2035 2035 2035 2035 2035 2035 2035 2035 2035 2035 2035 2035 2035 2035 2035 2035 2035 2035 2035 2035 2035 2035 2035 2035 2035 2035 2035 2035 2035 2035 2035 2035 2035 2035 2035 2035 2035 2035 2035 2035 2035 2035 2035 2035 2035 2035 2035 2035 2035 2035 2035 2035 2035 2035 2035 2035 2035 2035 2035 2035 2035 2035 2035 2035 2035 2035 2035 2035 2035 2035 2035 2035 2035 2035 2035 2035 2035 2035 2035 2035 2035 2035 2035 2035 2035 2035 2035 2035 2035 2035
      2035 2035 2035 2035 2035 2035 2035 2035 2035 2035 2035 2035 2035 2035 2035 2035 2035 2035 2035 2035 2035 2035 2035 2035 2035 2035 2035 2035 2035 2035 2035 2035 2035 2035 2035 2035 2035 2035 2035 2035 2035 2035 2035 2035 2035 2035 2035 2035 2035 2035 2035 2035 2035 2035 2035 2035 2035 2035 2035 2035 2035 2035 2035 2035 2035 2035 2035 2035 2035 2035 2035 2035 2035 2035 2035 2035 2035 2035 2035 2035 2035 2035 2035 2035 2035 2035 2035 2035 2035 2035 2035 2035 2035 2035 2035 2035 2035 2035 2035 2035 2035 2035 2035 2035 2035 2035 2035 2035 2035 2035 2035 2035 2035 2035 2035 2035 2035 2035 2035 2035 2035 2035 2035 2035 2035 2035 2035 2035 2035 2035 2035 2035 2035 2035 2035 2035 2035 2035 2035 2035 2035 2035 2035 2035 2035 2035 2035 2035 2035 2035 2035 2035 2035 2035 2035 2035 2035 2035 2035 2035
      2035 2035 2035 2035 2035 2035 2035 2035 2035 2035 2035 2035 2035 2035 2035 2035 2035 2035 2035 2035 2035 2035 2035 2035 2035 2035 2035 2035 2035 2035 2035 2035 2035 2035 2035 2035 2035 2035 2035 2035 2035 2035 2035 2035 2035 2035 2035 2035 2035 2035 2035 2035 2035 2035 2035 2035 2035 2035 2035 2035 2035 2035 2035 2035 2035 2035 2035 2035 2035 2035 2035 2035 2035 2035 2035 2035 2035 2035 2035 2035 2035 2035 2035 2035 2035 2035 2035 2035 2035 2035 2035 2035 2035 2035 2035 2035 2035 2035 2035 2035 2035 2035 2035 2035 2035 2035 2035 2035 2035 2035 2035 2035 2035 2035 2035 2035 2035 2035 2035 2035 2035 2035 2035 2035 2035 2035 2035 2035 2035 2035 2035 2035 2035 2035 2035 2035 2035 2035 2035 2035 2035 2035 2035 2035 2035 2035 2035 2035 2035 2035 2035 2035 2035 2035 2035 2035 2035 2035 2035 2035
      2035 2035 2035 2035 2035 2035 2035 2035 2035 2035 2035 2035 2035 2035 2035 2035 2035 2035 2035 2035 2035 2035 2035 2035 2035 2035 2035 2035 2035 2035 2035 2035 2035 2035 2035 2035 2035 2035 2035 2035 2035 2035 2035 2035 2035 2035 2035 2035 2035 2035 2035 2035 2035 2035 2035 2035 2035 2035 2035 2035 2035 2035 2035 2035 2035 2035 2035 2035 2035 2035 2035 2035 2035 2035 2035 2035 2035 2035 2035 2035 2035 2035 2035 2035 2035 2035 2035 2035 2035 2035 2035 2035 2035 2035 2035 2035 2035 2035 2035 2035 2035 2035 2035 2035 2035 2035 2035 2035 2035 2035 2035 2035 2035 2035 2035 2035 2035 2035 2035 2035 2035 2035 2035 2035 2035 2035 2035 2035 2035 2035 2035 2035 2035 2035 2035 2035 2035 2035 2035 2035 2035 2035 2035 2035 2035 2035 2035 2035 2035 2035 2035 2035 2035 2035 2035 2035 2035 2035 2035 2035
      2035 2035 2035 2035 2035 2035 2035 2035 2035 2035 2035 2035 2035 2035 2035 2035 2035 2035 2035 2035 2035 2035 2035 2035 2035 2035 2035 2035 2035 2035 2035 2035 2035 2035 2035 2035 2035 2035 2035 2035 2035 2035 2035 2035 2035 2035 2035 2035 2035 2035 2035 2035 2035 2035 2035 2035 2035 2035 2035 2035 2035 2035 2035 2035 2035 2035 2035 2035 2035 2035 2035 2035 2035 2035 2035 2035 2035 2035 2035 2035 2035 2035 2035 2035 2035 2035 2035 2035 2035 2035 2035 2035 2035 2035 2035 2035 2035 2035 2035 2035 2035 2035 2035 2035 2035 2035 2035 2035 2035 2035 2035 2035 2035 2035 2035 2035 2035 2035 2035 2035 2035 2035 2035 2035 2035 2035 2035 2035 2035 2035 2035 2035 2035 2035 2035 2035 2035 2035 2035 2035 2035 2035 2035 2035 2035 2035 2035 2035 2035 2035 2035 2035 2035 2035 2035 2035 2035 2035 2035 2035
      2035 2035 2035 2035 2035 2035 2035 2035 2035 2035 2035 2035 2035 2035 2035 2035 2035 2035 2035 2035 2035 2035 2035 2035 2035 2035 2035 2035 2035 2035 2035 2035 2035 2035 2035 2035 2035 2035 2035 2035 2035 2035 2035 2035 2035 2035 2035 2035 2035 2035 2035 2035 2035 2035 2035 2035 2035 2035 2035 2035 2035 2035 2035 2035 2035 2035 2035 2035 2035 2035 2035 2035 2035 2035 2035 2035 2035 2035 2035 2035 2035 2035 2035 2035 2035 2035 2035 2035 2035 2035 2035 2035 2035 2035 2035 2035 2035 2035 2035 2035 2035 2035 2035 2035 2035 2035 2035 2035 2035 2035 2035 2035 2035 2035 2035 2035 2035 2035 2035 2035 2035 2035 2035 2035 2035 2035 2035 2035 2035 2035 2035 2035 2035 2035 2035 2035 2035 2035 2035 2035 2035 2035 2035 2035 2035 2035 2035 2035 2035 2035 2035 2035 2035 2035 2035 2035 2035 2035 2035 2035
      2035 2035 2035 2035 2035 2035 2035 2035 2035 2035 2035 2035 2035 2035 2035 2035 2035 2035 2035 2035 2035 2035 2035 2035 2035 2035 2035 2035 2035 2035 2035 2035 2035 2035 2035 2035 2035 2035 2035 2035 2035 2035 2035 2035 2035 2035 2035 2035 2035 2035 2035 2035 2035 2035 2035 2035 2035 2035 2035 2035 2035 2035 2035 2035 2035 2035 2035 2035 2035 2035 2035 2035 2035 2035 2035 2035 2035 2035 2035 2035 2035 2035 2035 2035 2035 2035 2035 2035 2035 2035 2035 2035 2035 2035 2035 2035 2035 2035 2035 2035 2035 2035 2035 2035 2035 2035 2035 2035 2035 2035 2035 2035 2035 2035 2035 2035 2035 2035 2035 2035 2035 2035 2035 2035 2035 2035 2035 2035 2035 2035 2035 2035 2035 2035 2035 2035 2035 2035 2035 2035 2035 2035 2035 2035 2035 2035 2035 2035 2035 2035 2035 2035 2035 2035 2035 2035 2035 2035 2035 2035
      2035 2035 2035 2035 2035 2035 2035 2035 2035 2035 2035 2035 2035 2035 2035 2035 2035 2035 2035 2035 2035 2035 2035 2035 2035 2035 2035 2035 2035 2035 2035 2035 2035 2035 2035 2035 2035 2035 2035 2035 2035 2035 2035 2035 2035 2035 2035 2035 2035 2035 2035 2035 2035 2035 2035 2035 2035 2035 2035 2035 2035 2035 2035 2035 2035 2035 2035 2035 2035 2035 2035 2035 2035 2035 2035 2035 2035 2035 2035 2035 2035 2035 2035 2035 2035 2035 2035 2035 2035 2035 2035 2035 2035 2035 2035 2035 2035 2035 2035 2035 2035 2035 2035 2035 2035 2035 2035 2035 2035 2035 2035 2035 2035 2035 2035 2035 2035 2035 2035 2035 2035 2035 2035 2035 2035 2035 2035 2035 2035 2035 2035 2035 2035 2035 2035 2035 2035 2035 2035 2035 2035 2035 2035 2035 2035 2035 2035 2035 2035 2035 2035 2035 2035 2035 2035 2035 2035 2035 2035 2035
      2035 2035 2035 2035 2035 2035 2035 2035 2035 2035 2035 2035 2035 2035 2035 2035 2035 2035 2035 2035 2035 2035 2035 2035 2035 2035 2035 2035 2035 2035 2035 2035 2035 2035 2035 2035 2035 2035 2035 2035 2035 2035 2035 2035 2035 2035 2035 2035 2035 2035 2035 2035 2035 2035 2035 2035 2035 2035 2035 2035 2035 2035 2035 2035 2035 2035 2035 2035 2035 2035 2035 2035 2035 2035 2035 2035 2035 2035 2035 2035 2035 2035 2035 2035 2035 2035 2035 2035 2035 2035 2035 2035 2035 2035 2035 2035 2035 2035 2035 2035 2035 2035 2035 2035 2035 2035 2035 2035 2035 2035 2035 2035 2035 2035 2035 2035 2035 2035 2035 2035 2035 2035 2035 2035 2035 2035 2035 2035 2035 2035 2035 2035 2035 2035 2035 2035 2035 2035 2035 2035 2035 2035 2035 2035 2035 2035 2035 2035 2035 2035 2035 2035 2035 2035 2035 2035 2035 2035 2035 2035
      2035 2035 2035 2035 2035 2035 2035 2035 2035 2035 2035 2035 2035 2035 2035 2035 2035 2035 2035 2035 2035 2035 2035 2035 2035 2035 2035 2035 2035 2035 2035 2035 2035 2035 2035 2035 2035 2035 2035 2035 2035 2035 2035 2035 2035 2035 2035 2035 2035 2035 2035 2035 2035 2035 2035 2035 2035 2035 2035 2035 2035 2035 2035 2035 2035 2035 2035 2035 2035 2035 2035 2035 2035 2035 2035 2035 2035 2035 2035 2035 2035 2035 2035 2035 2035 2035 2035 2035 2035 2035 2035 2035 2035 2035 2035 2035 2035 2035 2035 2035 2035 2035 2035 2035 2035 2035 2035 2035 2035 2035 2035 2035 2035 2035 2035 2035 2035 2035 2035 2035 2035 2035 2035 2035 2035 2035 2035 2035 2035 2035 2035 2035 2035 2035 2035 2035 2035 2035 2035 2035 2035 2035 2035 2035 2035 2035 2035 2035 2035 2035 2035 2035 2035 2035 2035 2035 2035 2035 2035 2035
      2035 2035 2035 2035 2035 2035 2035 2035 2035 2035 2035 2035 2035 2035 2035 2035 2035 2035 2035 2035 2035 2035 2035 2035 2035 2035 2035 2035 2035 2035 2035 2035 2035 2035 2035 2035 2035 2035 2035 2035 2035 2035 2035 2035 2035 2035 2035 2035 2035 2035 2035 2035 2035 2035 2035 2035 2035 2035 2035 2035 2035 2035 2035 2035 2035 2035 2035 2035 2035 2035 2035 2035 2035 2035 2035 2035 2035 2035 2035 2035 2035 2035 2035 2035 2035 2035 2035 2035 2035 2035 2035 2035 2035 2035 2035 2035 2035 2035 2035 2035 2035 2035 2035 2035 2035 2035 2035 2035 2035 2035 2035 2035 2035 2035 2035 2035 2035 2035 2035 2035 2035 2035 2035 2035 2035 2035 2035 2035 2035 2035 2035 2035 2035 2035 2035 2035 2035 2035 2035 2035 2035 2035 2035 2035 2035 2035 2035 2035 2035 2035 2035 2035 2035 2035 2035 2035 2035 2035 2035 2035
      2035 2035 2035 2035 2035 2035 2035 2035 2035 2035 2035 2035 2035 2035 2035 2035 2035 2035 2035 2035 2035 2035 2035 2035 2035 2035 2035 2035 2035 2035 2035 2035 2035 2035 2035 2035 2035 2035 2035 2035 2035 2035 2035 2035 2035 2035 2035 2035 2035 2035 2035 2035 2035 2035 2035 2035 2035 2035 2035 2035 2035 2035 2035 2035 2035 2035 2035 2035 2035 2035 2035 2035 2035 2035 2035 2035 2035 2035 2035 2035 2035 2035 2035 2035 2035 2035 2035 2035 2035 2035 2035 2035 2035 2035 2035 2035 2035 2035 2035 2035 2035 2035 2035 2035 2035 2035 2035 2035 2035 2035 2035 2035 2035 2035 2035 2035 2035 2035 2035 2035 2035 2035 2035 2035 2035 2035 2035 2035 2035 2035 2035 2035 2035 2035 2035 2035 2035 2035 2035 2035 2035 2035 2035 2035 2035 2035 2035 2035 2035 2035 2035 2035 2035 2035 2035 2035 2035 2035 2035 2035
      2035 2035 2035 2035 2035 2035 2035 2035 2035 2035 2035 2035 2035 2035 2035 2035 2035 2035 2035 2035 2035 2035 2035 2035 2035 2035 2035 2035 2035 2035 2035 2035 2035 2035 2035 2035 2035 2035 2035 2035 2035 2035 2035 2035 2035 2035 2035 2035 2035 2035 2035 2035 2035 2035 2035 2035 2035 2035 2035 2035 2035 2035 2035 2035 2035 2035 2035 2035 2035 2035 2035 2035 2035 2035 2035 2035 2035 2035 2035 2035 2035 2035 2035 2035 2035 2035 2035 2035 2035 2035 2035 2035 2035 2035 2035 2035 2035 2035 2035 2035 2035 2035 2035 2035 2035 2035 2035 2035 2035 2035 2035 2035 2035 2035 2035 2035 2035 2035 2035 2035 2035 2035 2035 2035 2035 2035 2035 2035 2035 2035 2035 2035 2035 2035 2035 2035 2035 2035 2035 2035 2035 2035 2035 2035 2035 2035 2035 2035 2035 2035 2035 2035 2035 2035 2035 2035 2035 2035 2035 2035
      2035 2035 2035 2035 2035 2035 2035 2035 2035 2035 2035 2035 2035 2035 2035 2035 2035 2035 2035 2035 2035 2035 2035 2035 2035 2035 2035 2035 2035 2035 2035 2035 2035 2035 2035 2035 2035 2035 2035 2035 2035 2035 2035 2035 2035 2035 2035 2035 2035 2035 2035 2035 2035 2035 2035 2035 2035 2035 2035 2035 2035 2035 2035 2035 2035 2035 2035 2035 2035 2035 2035 2035 2035 2035 2035 2035 2035 2035 2035 2035 2035 2035 2035 2035 2035 2035 2035 2035 2035 2035 2035 2035 2035 2035 2035 2035 2035 2035 2035 2035 2035 2035 2035 2035 2035 2035 2035 2035 2035 2035 2035 2035 2035 2035 2035 2035 2035 2035 2035 2035 2035 2035 2035 2035 2035 2035 2035 2035 2035 2035 2035 2035 2035 2035 2035 2035 2035 2035 2035 2035 2035 2035 2035 2035 2035 2035 2035 2035 2035 2035 2035 2035 2035 2035 2035 2035 2035 2035 2035 2035
      2035 2035 2035 2035 2035 2035 2035 2035 2035 2035 2035 2035 2035 2035 2035 2035 2035 2035 2035 2035 2035 2035 2035 2035 2035 2035 2035 2035 2035 2035 2035 2035 2035 2035 2035 2035 2035 2035 2035 2035 2035 2035 2035 2035 2035 2035 2035 2035 2035 2035 2035 2035 2035 2035 2035 2035 2035 2035 2035 2035 2035 2035 2035 2035 2035 2035 2035 2035 2035 2035 2035 2035 2035 2035 2035 2035 2035 2035 2035 2035 2035 2035 2035 2035 2035 2035 2035 2035 2035 2035 2035 2035 2035 2035 2035 2035 2035 2035 2035 2035 2035 2035 2035 2035 2035 2035 2035 2035 2035 2035 2035 2035 2035 2035 2035 2035 2035 2035 2035 2035 2035 2035 2035 2035 2035 2035 2035 2035 2035 2035 2035 2035 2035 2035 2035 2035 2035 2035 2035 2035 2035 2035 2035 2035 2035 2035 2035 2035 2035 2035 2035 2035 2035 2035 2035 2035 2035 2035 2035 2035
      2035 2035 2035 2035 2035 2035 2035 2035 2035 2035 2035 2035 2035 2035 2035 2035 2035 2035 2035 2035 2035 2035 2035 2035 2035 2035 2035 2035 2035 2035 2035 2035 2035 2035 2035 2035 2035 2035 2035 2035 2035 2035 2035 2035 2035 2035 2035 2035 2035 2035 2035 2035 2035 2035 2035 2035 2035 2035 2035 2035 2035 2035 2035 2035 2035 2035 2035 2035 2035 2035 2035 2035 2035 2035 2035 2035 2035 2035 2035 2035 2035 2035 2035 2035 2035 2035 2035 2035 2035 2035 2035 2035 2035 2035 2035 2035 2035 2035 2035 2035 2035 2035 2035 2035 2035 2035 2035 2035 2035 2035 2035 2035 2035 2035 2035 2035 2035 2035 2035 2035 2035 2035 2035 2035 2035 2035 2035 2035 2035 2035 2035 2035 2035 2035 2035 2035 2035 2035 2035 2035 2035 2035 2035 2035 2035 2035 2035 2035 2035 2035 2035 2035 2035 2035 2035 2035 2035 2035 2035 2035
      2035 2035 2035 2035 2035 2035 2035 2035 2035 2035 2035 2035 2035 2035 2035 2035 2035 2035 2035 2035 2035 2035 2035 2035 2035 2035 2035 2035 2035 2035 2035 2035 2035 2035 2035 2035 2035 2035 2035 2035 2035 2035 2035 2035 2035 2035 2035 2035 2035 2035 2035 2035 2035 2035 2035 2035 2035 2035 2035 2035 2035 2035 2035 2035 2035 2035 2035 2035 2035 2035 2035 2035 2035 2035 2035 2035 2035 2035 2035 2035 2035 2035 2035 2035 2035 2035 2035 2035 2035 2035 2035 2035 2035 2035 2035 2035 2035 2035 2035 2035 2035 2035 2035 2035 2035 2035 2035 2035 2035 2035 2035 2035 2035 2035 2035 2035 2035 2035 2035 2035 2035 2035 2035 2035 2035 2035 2035 2035 2035 2035 2035 2035 2035 2035 2035 2035 2035 2035 2035 2035 2035 2035 2035 2035 2035 2035 2035 2035 2035 2035 2035 2035 2035 2035 2035 2035 2035 2035 2035 2035
      )
    )
    (tilemap
      (solid #f)
      (tint 0.2 0.2 0.15)
      (z-pos 110)
      (name "fgend")
      (width 160)
      (height 25)
      (tiles
      0 0 0 0 0 0 0 0 0 0 0 0 0 0 0 0 0 0 0 0 0 0 0 0 0 0 0 0 0 0 0 0 0 0 0 0 0 0 0 0 0 0 0 0 0 0 0 0 0 0 0 0 0 0 0 0 0 0 0 0 0 0 0 0 0 0 0 0 0 0 0 0 0 0 0 0 0 0 0 0 0 0 0 0 0 0 0 0 0 0 0 0 0 0 0 0 0 0 0 0 0 0 0 0 0 0 0 0 0 0 0 0 0 0 0 0 0 0 0 0 0 0 0 0 0 0 0 0 0 0 0 0 0 0 0 0 0 0 0 0 0 0 0 0 0 0 0 0 0 0 0 0 0 0 0 0 0 0 0 0
      0 0 0 0 0 0 0 0 0 0 0 0 0 0 0 0 0 0 0 0 0 0 0 0 0 0 0 0 0 0 0 0 0 0 0 0 0 0 0 0 0 0 0 0 0 0 0 0 0 0 0 0 0 0 0 0 0 0 0 0 0 0 0 0 0 0 0 0 0 0 0 0 0 0 0 0 0 0 0 0 0 0 0 0 0 0 0 0 0 0 0 0 0 0 0 0 0 0 0 0 0 0 0 0 0 0 0 0 0 0 0 0 0 0 0 0 0 0 0 0 0 0 0 0 0 0 0 0 0 0 0 0 0 0 0 0 0 0 0 0 0 0 0 0 0 0 0 0 0 0 0 0 0 0 0 0 0 0 0 0
      0 0 0 0 0 0 0 0 0 0 0 0 0 0 0 0 0 0 0 0 0 0 0 0 0 0 0 0 0 0 0 0 0 0 0 0 0 0 0 0 0 0 0 0 0 0 0 0 0 0 0 0 0 0 0 0 0 0 0 0 0 0 0 0 0 0 0 0 0 0 0 0 0 0 0 0 0 0 0 0 0 0 0 0 0 0 0 0 0 0 0 0 0 0 0 0 0 0 0 0 0 0 0 0 0 0 0 0 0 0 0 0 0 0 0 0 0 0 0 0 0 0 0 0 0 0 0 0 0 0 0 0 0 0 0 0 0 0 0 0 0 0 0 0 0 0 0 0 0 0 0 0 0 0 0 0 0 0 0 0
      0 0 0 0 0 0 0 0 0 0 0 0 0 0 0 0 0 0 0 0 0 0 0 0 0 0 0 0 0 0 0 0 0 0 0 0 0 0 0 0 0 0 0 0 0 0 0 0 0 0 0 0 0 0 0 0 0 0 0 0 0 0 0 0 0 0 0 0 0 0 0 0 0 0 0 0 0 0 0 0 0 0 0 0 0 0 0 0 0 0 0 0 0 0 0 0 0 0 0 0 0 0 0 0 0 0 0 0 0 0 0 0 0 0 0 0 0 0 0 0 0 0 0 0 0 0 0 0 0 0 0 0 0 0 0 0 0 0 0 0 0 0 0 0 0 0 0 0 0 0 0 0 0 0 0 0 0 0 0 0
      0 0 0 0 0 0 0 0 0 0 0 0 0 0 0 0 0 0 0 0 0 0 0 0 0 0 0 0 0 0 0 0 0 0 0 0 0 0 0 0 0 0 0 0 0 0 0 0 0 0 0 0 0 0 0 0 0 0 0 0 0 0 0 0 0 0 0 0 0 0 0 0 0 0 0 0 0 0 0 0 0 0 0 0 0 0 0 0 0 0 0 0 0 0 0 0 0 0 0 0 0 0 0 0 0 0 0 0 0 0 0 0 0 0 0 0 0 0 0 0 0 0 0 0 0 0 0 0 0 0 0 0 0 0 0 0 0 0 0 0 0 0 0 0 0 0 0 0 0 0 0 0 0 0 0 0 0 0 0 0
      0 0 0 0 0 0 0 0 0 0 0 0 0 0 0 0 0 0 0 0 0 0 0 0 0 0 0 0 0 0 0 0 0 0 0 0 0 0 0 0 0 0 0 0 0 0 0 0 0 0 0 0 0 0 0 0 0 0 0 0 0 0 0 0 0 0 0 0 0 0 0 0 0 0 0 0 0 0 0 0 0 0 0 0 0 0 0 0 0 0 0 0 0 0 0 0 0 0 0 0 0 0 0 0 0 0 0 0 0 0 0 0 0 0 0 0 0 0 0 0 0 0 0 0 0 0 0 0 0 0 0 0 0 0 0 0 0 0 0 0 0 0 0 0 0 0 0 0 0 0 0 0 0 0 0 0 0 0 0 0
      0 0 0 0 0 0 0 0 0 0 0 0 0 0 0 0 0 0 0 0 0 0 0 0 0 0 0 0 0 0 0 0 0 0 0 0 0 0 0 0 0 0 0 0 0 0 0 0 0 0 0 0 0 0 0 0 0 0 0 0 0 0 0 0 0 0 0 0 0 0 0 0 0 0 0 0 0 0 0 0 0 0 0 0 0 0 0 0 0 0 0 0 0 0 0 0 0 0 0 0 0 0 0 0 0 0 0 0 0 0 0 0 0 0 0 0 0 0 0 0 0 0 0 0 0 0 0 0 0 0 0 0 0 0 0 0 0 0 0 0 0 0 0 0 0 0 0 0 0 0 0 0 0 0 0 0 0 0 0 0
      0 0 0 0 0 0 0 0 0 0 0 0 0 0 0 0 0 0 0 0 0 0 0 0 0 0 0 0 0 0 0 0 0 0 0 0 0 0 0 0 0 0 0 0 0 0 0 0 0 0 0 0 0 0 0 0 0 0 0 0 0 0 0 0 0 0 0 0 0 0 0 0 0 0 0 0 0 0 0 0 0 0 0 0 0 0 0 0 0 0 0 0 0 0 0 0 0 0 0 0 0 0 0 0 0 0 0 0 0 0 0 0 0 0 0 0 0 0 0 0 0 0 0 0 0 0 0 0 0 0 0 0 0 0 0 0 0 0 0 0 0 0 0 0 0 0 0 0 0 0 0 0 0 0 0 0 0 0 0 0
      0 0 0 0 0 0 0 0 0 0 0 0 0 0 0 0 0 0 0 0 0 0 0 0 0 0 0 0 0 0 0 0 0 0 0 0 0 0 0 0 0 0 0 0 0 0 0 0 0 0 0 0 0 0 0 0 0 0 0 0 0 0 0 0 0 0 0 0 0 0 0 0 0 0 0 0 0 0 0 0 0 0 0 0 0 0 0 0 0 0 0 0 0 0 0 0 0 0 0 0 0 0 0 0 0 0 0 0 0 0 0 0 0 0 0 0 0 0 0 0 0 0 0 0 0 0 0 0 0 0 0 0 0 0 0 0 0 0 0 0 0 0 0 0 0 0 0 0 0 0 0 0 0 0 0 0 0 0 0 0
      0 0 0 0 0 0 0 0 0 0 0 0 0 0 0 0 0 0 0 0 0 0 0 0 0 0 0 0 0 0 0 0 0 0 0 0 0 0 0 0 0 0 0 0 0 0 0 0 0 0 0 0 0 0 0 0 0 0 0 0 0 0 0 0 0 0 0 0 0 0 0 0 0 0 0 0 0 0 0 0 0 0 0 0 0 0 0 0 0 0 0 0 0 0 0 0 0 0 0 0 0 0 0 0 0 0 0 0 0 0 0 0 0 0 0 0 0 0 0 0 0 0 0 0 0 0 0 0 0 0 0 0 0 0 0 0 0 0 0 0 0 0 0 0 0 0 0 0 0 0 0 0 0 0 0 0 0 0 0 0
      0 0 0 0 0 0 0 0 0 0 0 0 0 0 0 0 0 0 0 0 0 0 0 0 0 0 0 0 0 0 0 0 0 0 0 0 0 0 0 0 0 0 0 0 0 0 0 0 0 0 0 0 0 0 0 0 0 0 0 0 0 0 0 0 0 0 0 0 0 0 0 0 0 0 0 0 0 0 0 0 0 0 0 0 0 0 0 0 0 0 0 0 0 0 0 0 0 0 0 0 0 0 0 0 0 0 0 0 0 0 0 0 0 0 0 0 0 0 0 0 0 0 0 0 0 0 0 0 0 0 0 0 0 0 0 0 0 0 0 0 0 0 0 0 0 0 0 0 0 0 0 0 0 0 0 0 0 0 0 0
      0 0 0 0 0 0 0 0 0 0 0 0 0 0 0 0 0 0 0 0 0 0 0 0 0 0 0 0 0 0 0 0 0 0 0 0 0 0 0 0 0 0 0 0 0 0 0 0 0 0 0 0 0 0 0 0 0 0 0 0 0 0 0 0 0 0 0 0 0 0 0 0 0 0 0 0 0 0 0 0 0 0 0 0 0 0 0 0 0 0 0 0 0 0 0 0 0 0 0 0 0 0 0 0 0 0 0 0 0 0 0 0 0 0 0 0 0 0 0 0 0 0 0 0 0 0 0 0 0 0 0 0 0 0 0 0 0 0 0 0 0 0 0 0 0 0 0 0 0 0 0 0 0 0 0 0 0 0 0 0
      0 0 0 0 0 0 0 0 0 0 0 0 0 0 0 0 0 0 0 0 0 0 0 0 0 0 0 0 0 0 0 0 0 0 0 0 0 0 0 0 0 0 0 0 0 0 0 0 0 0 0 0 0 0 0 0 0 0 0 0 0 0 0 0 0 0 0 0 0 0 0 0 0 0 0 0 0 0 0 0 0 0 0 0 0 0 0 0 0 0 0 0 0 0 0 0 0 0 0 0 0 0 0 0 0 0 0 0 0 0 0 0 0 0 0 0 0 0 0 0 0 0 0 0 0 0 0 0 0 0 0 0 0 0 0 0 0 0 0 0 0 0 0 0 0 0 0 0 0 0 0 0 0 0 0 0 0 0 0 0
      0 0 0 0 0 0 0 0 0 0 0 0 0 0 0 0 0 0 0 0 0 0 0 0 0 0 0 0 0 0 0 0 0 0 0 0 0 0 0 0 0 0 0 0 0 0 0 0 0 0 0 0 0 0 0 0 0 0 0 0 0 0 0 0 0 0 0 0 0 0 0 0 0 0 0 0 0 0 0 0 0 0 0 0 0 0 0 0 0 0 0 0 0 0 0 0 0 0 0 0 0 0 0 0 0 0 0 0 0 0 0 0 0 0 0 0 0 0 0 0 0 0 0 0 0 0 0 0 0 0 0 0 0 0 0 0 0 0 0 0 0 0 0 0 0 0 0 0 0 0 0 0 0 0 0 0 0 0 0 0
      0 0 0 0 0 0 0 0 0 0 0 0 0 0 0 0 0 0 0 0 0 0 0 0 0 0 0 0 0 0 0 0 0 0 0 0 0 0 0 0 0 0 0 0 0 0 0 0 0 0 0 0 0 0 0 0 0 0 0 0 0 0 0 0 0 0 0 0 0 0 0 0 0 0 0 0 0 0 0 0 0 0 0 0 0 0 0 0 0 0 0 0 0 0 0 0 0 0 0 0 0 0 0 0 0 0 0 0 0 0 0 0 0 0 0 0 0 0 0 0 0 0 0 0 0 0 0 0 0 0 0 0 0 0 0 0 0 0 0 0 0 0 0 0 0 0 0 0 0 0 0 0 0 0 0 0 0 0 0 0
      0 0 0 0 0 0 0 0 0 0 0 0 0 0 0 0 0 0 0 0 0 0 0 0 0 0 0 0 0 0 0 0 0 0 0 0 0 0 0 0 0 0 0 0 0 0 0 0 0 0 0 0 0 0 0 0 0 0 0 0 0 0 0 0 0 0 0 0 0 0 0 0 0 0 0 0 0 0 0 0 0 0 0 0 0 0 0 0 0 0 0 0 0 0 0 0 0 0 0 0 0 0 0 0 0 0 0 0 0 0 0 0 0 0 0 0 0 0 0 0 0 0 0 0 0 0 0 0 0 0 0 0 0 0 0 0 0 0 0 0 0 0 0 0 0 0 0 0 0 0 0 0 0 0 0 0 0 0 0 0
      0 0 0 0 0 0 0 0 0 0 0 0 0 0 0 0 0 0 0 0 0 0 0 0 0 0 0 0 0 0 0 0 0 0 0 0 0 0 0 0 0 0 0 0 0 0 0 0 0 0 0 0 0 0 0 0 0 0 0 0 0 0 0 0 0 0 0 0 0 0 0 0 0 0 0 0 0 0 0 0 0 0 0 0 0 0 0 0 0 0 0 0 0 0 0 0 0 0 0 0 0 0 0 0 0 0 0 0 0 0 0 0 0 0 0 0 0 0 0 0 0 0 0 0 0 0 0 0 0 0 0 0 0 0 0 0 0 0 0 0 0 0 2384 2385 2385 2385 2385 2385 2385 2385 2385 2385 2385 2385 2385 2385 2385 2385 2385 2385
      0 0 0 0 0 0 0 0 0 0 0 0 0 0 0 0 0 0 0 0 0 0 0 0 0 0 0 0 0 0 0 0 0 0 0 0 0 0 0 0 0 0 0 0 0 0 0 0 0 0 0 0 0 0 0 0 0 0 0 0 0 0 0 0 0 0 0 0 0 0 0 0 0 0 0 0 0 0 0 0 0 0 0 0 0 0 0 0 0 0 0 0 0 0 0 0 0 0 0 0 0 0 0 0 0 0 0 0 0 0 0 0 0 0 0 0 0 0 0 0 0 0 0 0 0 0 0 0 0 0 0 0 0 0 0 0 0 0 0 0 0 0 2387 2388 2388 2388 2388 2388 2388 2388 2388 2388 2388 2388 2388 2388 2388 2388 2388 2388
      0 0 0 0 0 0 0 0 0 0 0 0 0 0 0 0 0 0 0 0 0 0 0 0 0 0 0 0 0 0 0 0 0 0 0 0 0 0 0 0 0 0 0 0 0 0 0 0 0 0 0 0 0 0 0 0 0 0 0 0 0 0 0 0 0 0 0 0 0 0 0 0 0 0 0 0 0 0 0 0 0 0 0 0 0 0 0 0 0 0 0 0 0 0 0 0 0 0 0 0 0 0 0 0 0 0 0 0 0 0 0 0 0 0 0 0 0 0 0 0 0 0 0 0 0 0 0 0 0 0 0 0 0 0 0 0 0 0 0 0 0 0 0 0 0 0 0 0 0 0 0 0 0 0 0 0 0 0 0 0
      0 0 0 0 0 0 0 0 0 0 0 0 0 0 0 0 0 0 0 0 0 0 0 0 0 0 0 0 0 0 0 0 0 0 0 0 0 0 0 0 0 0 0 0 0 0 0 0 0 0 0 0 0 0 0 0 0 0 0 0 0 0 0 0 0 0 0 0 0 0 0 0 0 0 0 0 0 0 0 0 0 0 0 0 0 0 0 0 0 0 0 0 0 0 0 0 0 0 0 0 0 0 0 0 0 0 0 0 0 0 0 0 0 0 0 0 0 0 0 0 0 0 0 0 0 0 0 0 0 0 0 0 0 0 0 0 0 0 0 0 0 0 0 0 0 0 0 0 0 0 0 0 0 0 0 0 0 0 0 0
      0 0 0 0 0 0 0 0 0 0 0 0 0 0 0 0 0 0 0 0 0 0 0 0 0 0 0 0 0 0 0 0 0 0 0 0 0 0 0 0 0 0 0 0 0 0 0 0 0 0 0 0 0 0 0 0 0 0 0 0 0 0 0 0 0 0 0 0 0 0 0 0 0 0 0 0 0 0 0 0 0 0 0 0 0 0 0 0 0 0 0 0 0 0 0 0 0 0 0 0 0 0 0 0 0 0 0 0 0 0 0 0 0 0 0 0 0 0 0 0 0 0 0 0 0 0 0 0 0 0 0 0 0 0 0 0 0 0 0 0 0 0 0 0 0 0 0 0 0 0 0 0 0 0 0 0 0 0 0 0
      0 0 0 0 0 0 0 0 0 0 0 0 0 0 0 0 0 0 0 0 0 0 0 0 0 0 0 0 0 0 0 0 0 0 0 0 0 0 0 0 0 0 0 0 0 0 0 0 0 0 0 0 0 0 0 0 0 0 0 0 0 0 0 0 0 0 0 0 0 0 0 0 0 0 0 0 0 0 0 0 0 0 0 0 0 0 0 0 0 0 0 0 0 0 0 0 0 0 0 0 0 0 0 0 0 0 0 0 0 0 0 0 0 0 0 0 0 0 0 0 0 0 0 0 0 0 0 0 0 0 0 0 0 0 0 0 0 0 0 0 0 0 0 0 0 0 0 0 0 0 0 0 0 0 0 0 0 0 0 0
      0 0 0 0 0 0 0 0 0 0 0 0 0 0 0 0 0 0 0 0 0 0 0 0 0 0 0 0 0 0 0 0 0 0 0 0 0 0 0 0 0 0 0 0 0 0 0 0 0 0 0 0 0 0 0 0 0 0 0 0 0 0 0 0 0 0 0 0 0 0 0 0 0 0 0 0 0 0 0 0 0 0 0 0 0 0 0 0 0 0 0 0 0 0 0 0 0 0 0 0 0 0 0 0 0 0 0 0 0 0 0 0 0 0 0 0 0 0 0 0 0 0 0 0 0 0 0 0 0 0 0 0 0 0 0 0 0 0 0 0 0 0 0 0 0 0 0 0 0 0 0 0 0 0 0 0 0 0 0 0
      0 0 0 0 0 0 0 0 0 0 0 0 0 0 0 0 0 0 0 0 0 0 0 0 0 0 0 0 0 0 0 0 0 0 0 0 0 0 0 0 0 0 0 0 0 0 0 0 0 0 0 0 0 0 0 0 0 0 0 0 0 0 0 0 0 0 0 0 0 0 0 0 0 0 0 0 0 0 0 0 0 0 0 0 0 0 0 0 0 0 0 0 0 0 0 0 0 0 0 0 0 0 0 0 0 0 0 0 0 0 0 0 0 0 0 0 0 0 0 0 0 0 0 0 0 0 0 0 0 0 0 0 0 0 0 0 0 0 0 0 0 0 0 0 0 0 0 0 0 0 0 0 0 0 0 0 0 0 0 0
      0 0 0 0 0 0 0 0 0 0 0 0 0 0 0 0 0 0 0 0 0 0 0 0 0 0 0 0 0 0 0 0 0 0 0 0 0 0 0 0 0 0 0 0 0 0 0 0 0 0 0 0 0 0 0 0 0 0 0 0 0 0 0 0 0 0 0 0 0 0 0 0 0 0 0 0 0 0 0 0 0 0 0 0 0 0 0 0 0 0 0 0 0 0 0 0 0 0 0 0 0 0 0 0 0 0 0 0 0 0 0 0 0 0 0 0 0 0 0 0 0 0 0 0 0 0 0 0 0 0 0 0 0 0 0 0 0 0 0 0 0 0 0 0 0 0 0 0 0 0 0 0 0 0 0 0 0 0 0 0
      )
    )
    (tilemap
      (solid #f)
      (tint 0.2 0.125 0.2)
      (z-pos -50)
      (name "pipe")
      (width 160)
      (height 25)
      (tiles
      0 0 0 0 0 0 0 0 0 0 0 0 0 0 0 0 0 0 0 0 0 0 0 0 0 0 0 0 0 0 0 0 0 0 0 0 0 0 0 0 0 0 0 0 0 0 0 0 0 0 0 0 0 0 0 0 0 0 0 0 0 0 0 0 0 0 0 0 0 0 0 0 0 0 0 0 0 0 0 0 0 0 0 0 0 0 0 0 0 0 0 0 0 0 0 0 0 0 0 0 0 0 0 0 0 0 0 0 0 0 0 0 0 0 0 0 0 0 0 0 0 0 0 0 0 0 0 0 0 0 0 0 0 0 0 0 0 0 0 0 0 0 0 0 0 0 0 0 0 0 0 0 0 0 0 0 0 0 0 0
      0 0 0 0 0 0 0 0 0 0 0 0 0 0 0 0 0 0 0 0 0 0 0 0 0 0 0 0 0 0 0 0 0 0 0 0 0 0 0 0 0 0 0 0 0 0 0 0 0 0 0 0 0 0 0 0 0 0 0 0 0 0 0 0 0 0 0 0 0 0 0 0 0 0 0 0 0 0 0 0 0 0 0 0 0 0 0 0 0 0 0 0 0 0 0 0 0 0 0 0 0 0 0 0 0 0 0 0 0 0 0 0 0 0 0 0 0 0 0 0 0 0 0 0 0 0 0 0 0 0 0 0 0 0 0 0 0 0 0 0 0 0 0 0 0 0 0 0 0 0 0 0 0 0 0 0 0 0 0 0
      0 0 0 0 0 0 0 0 0 0 0 0 0 0 0 0 0 0 0 0 0 0 0 0 0 0 0 0 0 0 0 0 0 0 0 0 0 0 0 0 0 0 0 0 0 0 0 0 0 0 0 0 0 0 0 0 0 0 0 0 0 0 0 0 0 0 0 0 0 0 0 0 0 0 0 0 0 0 0 0 0 0 0 0 0 0 0 0 0 0 0 0 0 0 0 0 0 0 0 0 0 0 0 0 0 0 0 0 0 0 0 0 0 0 0 0 0 0 0 0 0 0 0 0 0 0 0 0 0 0 0 0 0 0 0 0 0 0 0 0 0 0 0 0 0 0 0 0 0 0 0 0 0 0 0 0 0 0 0 0
      0 0 0 0 0 0 0 0 0 0 0 0 0 0 0 0 0 0 0 0 0 0 0 0 0 0 0 0 0 0 0 0 0 0 0 0 0 0 0 0 0 0 0 0 0 0 0 0 0 0 0 0 0 0 0 0 0 0 0 0 0 0 0 0 0 0 0 0 0 0 0 0 0 0 0 0 0 0 0 0 0 0 0 0 0 0 0 0 0 0 0 0 0 0 0 0 0 0 0 0 0 0 0 0 0 0 0 0 0 0 0 0 0 0 0 0 0 0 0 0 0 0 0 0 0 0 0 0 0 0 0 0 0 0 0 0 0 0 0 0 0 0 0 0 0 0 0 0 0 0 0 0 0 0 0 0 0 0 0 0
      0 0 0 0 0 0 0 0 0 0 0 0 0 0 0 0 0 0 0 0 0 0 0 0 0 0 0 0 0 0 0 0 0 0 0 0 0 0 0 0 0 0 0 0 0 0 0 0 0 0 0 0 0 0 0 0 0 0 0 0 0 0 0 0 0 0 0 0 0 0 0 0 0 0 0 0 0 0 0 0 0 0 0 0 0 0 0 0 0 0 0 0 0 0 0 0 0 0 0 0 0 0 0 0 0 0 0 0 0 0 0 0 0 0 0 0 0 0 0 0 0 0 0 0 0 0 0 0 0 0 0 0 0 0 0 0 0 0 0 0 0 0 0 0 0 0 0 0 0 0 0 0 0 0 0 0 0 0 0 0
      0 0 0 0 0 0 0 0 0 0 0 0 0 0 0 0 0 0 0 0 0 0 0 0 0 0 0 0 0 0 0 0 0 0 0 0 0 0 0 0 0 0 0 0 0 0 0 0 0 0 0 0 0 0 0 0 0 0 0 0 0 0 0 0 0 0 0 0 0 0 0 0 0 0 0 0 0 0 0 0 0 0 0 0 0 0 0 0 0 0 0 0 0 0 0 0 0 0 0 0 0 0 0 0 0 0 0 0 0 0 0 0 0 0 0 0 0 0 0 0 0 0 0 0 0 0 0 0 0 0 0 0 0 0 0 0 0 0 0 0 0 0 0 0 0 0 0 0 0 0 0 0 0 0 0 0 0 0 0 0
      0 0 0 0 0 0 0 0 0 0 0 0 0 0 0 0 0 0 0 0 0 0 0 0 0 0 0 0 0 0 0 0 0 0 0 0 0 0 0 0 0 0 0 0 0 0 0 0 0 0 0 0 0 0 0 0 0 0 0 0 0 0 0 0 0 0 0 0 0 0 0 0 0 0 0 0 0 0 0 0 0 0 0 0 0 0 0 0 0 0 0 0 0 0 0 0 0 0 0 0 0 0 0 0 0 0 0 0 0 0 0 0 0 0 0 0 0 0 0 0 0 0 0 0 0 0 0 0 0 0 0 0 0 0 0 0 0 0 0 0 0 0 0 0 0 0 0 0 0 0 0 0 0 0 0 0 0 0 0 0
      0 0 0 0 0 0 0 0 0 0 0 0 0 0 0 0 0 0 0 0 0 0 0 0 0 0 0 0 0 0 0 0 0 0 0 0 0 0 0 0 0 0 0 0 0 0 0 0 0 0 0 0 0 0 0 0 0 0 0 0 0 0 0 0 0 0 0 0 0 0 0 0 0 0 0 0 0 0 0 0 0 0 0 0 0 0 0 0 0 0 0 57 58 0 0 0 0 0 0 0 0 0 0 0 0 0 0 0 0 0 0 0 0 0 0 0 0 0 0 0 0 0 0 0 0 0 0 0 0 0 0 0 0 0 0 0 0 0 0 0 0 0 0 0 0 0 0 0 0 0 0 0 0 0 0 0 0 0 0 0
      0 0 0 0 0 0 0 0 0 0 0 0 0 0 0 0 0 0 0 0 0 0 0 0 0 0 0 0 0 0 0 0 0 0 0 0 0 0 0 0 0 0 0 0 0 0 0 0 0 0 0 0 0 0 0 0 0 0 0 0 0 0 0 0 0 0 0 0 0 0 0 0 0 0 0 0 0 0 0 0 0 0 0 0 0 0 0 0 0 0 0 59 60 0 0 0 0 0 0 0 0 0 0 0 0 0 0 0 0 0 0 0 0 0 0 0 0 0 0 0 0 0 0 0 0 0 0 0 0 0 0 0 0 0 0 0 0 0 0 0 0 0 0 0 0 0 0 0 0 0 0 0 0 0 0 0 0 0 0 0
      0 0 0 0 0 0 0 0 0 0 0 0 0 0 0 0 0 0 0 0 0 0 0 0 0 0 0 0 0 0 0 0 0 0 0 0 0 0 0 0 0 0 0 0 0 0 0 0 0 0 0 0 0 0 0 0 0 0 0 0 0 0 0 0 0 0 0 0 0 0 0 0 0 0 0 0 0 0 0 0 0 0 0 0 0 0 0 0 0 0 0 59 60 0 0 0 0 0 0 0 0 0 0 0 0 0 0 0 0 0 0 0 0 0 0 0 0 0 0 0 0 0 0 0 0 0 0 0 0 0 0 0 0 0 0 0 0 0 0 0 0 0 0 0 0 0 0 0 0 0 0 0 0 0 0 0 0 0 0 0
      0 0 0 0 0 0 0 0 0 0 0 0 0 0 0 0 0 0 0 0 0 0 0 0 0 0 0 0 0 0 0 0 0 0 0 0 0 0 0 0 0 0 0 0 0 0 0 0 0 0 0 0 0 0 0 0 0 0 0 0 0 0 0 0 0 0 0 0 0 0 0 0 0 0 0 0 0 0 0 0 0 0 0 0 0 0 0 0 0 0 0 59 60 0 0 0 0 0 0 0 0 0 0 0 0 0 0 0 0 0 0 0 0 0 0 0 0 0 0 0 0 0 0 0 0 0 0 0 0 0 0 0 0 0 0 0 0 0 0 0 0 0 0 0 0 0 0 0 0 0 0 0 0 0 0 0 0 0 0 0
      0 0 0 0 0 0 0 0 0 0 0 0 0 0 0 0 0 0 0 0 0 0 0 0 0 0 0 0 0 0 0 0 0 0 0 0 0 0 0 0 0 0 0 0 0 0 0 0 0 0 0 0 0 0 0 0 0 0 0 0 0 0 0 0 0 0 0 0 0 0 0 0 0 0 0 0 0 0 0 0 0 0 0 0 0 0 0 0 0 0 0 59 60 0 0 0 0 0 0 0 0 0 0 0 0 0 0 0 0 0 0 0 0 0 0 0 0 0 0 0 0 0 0 0 0 0 0 0 0 0 0 0 0 0 0 0 0 0 0 0 0 0 0 0 0 0 0 0 0 0 0 0 0 0 0 0 0 0 0 0
      0 0 0 0 0 0 0 0 0 0 0 0 0 0 0 0 0 0 0 0 0 0 0 0 0 0 0 0 0 0 0 0 0 0 0 0 0 0 0 0 0 0 0 0 0 0 0 0 0 0 0 0 0 0 0 0 0 0 0 0 0 0 0 0 0 0 0 0 0 0 0 0 0 0 0 0 0 0 0 0 0 0 0 0 0 0 0 0 0 0 0 59 60 0 0 0 0 0 0 0 0 0 0 0 0 0 0 0 0 0 0 0 0 0 0 0 0 0 0 0 0 0 0 0 0 0 0 0 0 0 0 0 0 0 0 0 0 0 0 0 0 0 0 0 0 0 0 0 0 0 0 0 0 0 0 0 0 0 0 0
      0 0 0 0 0 0 0 0 0 0 0 0 0 0 0 0 0 0 0 0 0 0 0 0 0 0 0 0 0 0 0 0 0 0 0 0 0 0 0 0 0 0 0 0 0 0 0 0 0 0 0 0 0 0 0 0 0 0 0 0 0 0 0 0 0 0 0 0 0 0 0 0 0 0 0 0 0 0 0 0 0 0 0 0 0 0 0 0 0 0 0 59 60 0 0 0 0 0 0 0 0 0 0 0 0 0 0 0 0 0 0 0 0 0 0 0 0 0 0 0 0 0 0 0 0 0 0 0 0 0 0 0 0 0 0 0 0 0 0 0 0 0 0 0 0 0 0 0 0 0 0 0 0 0 0 0 0 0 0 0
      0 0 0 0 0 0 0 0 0 0 0 0 0 0 0 0 0 0 0 0 0 0 0 0 0 0 0 0 0 0 0 0 0 0 0 0 0 0 0 0 0 0 0 0 0 0 0 0 0 0 0 0 0 0 0 0 0 0 0 0 0 0 0 0 0 0 0 0 0 0 0 0 0 0 0 0 0 0 0 0 0 0 0 0 0 0 0 0 0 0 0 59 60 0 0 0 0 0 0 0 0 0 0 0 0 0 0 0 0 0 0 0 0 0 0 0 0 0 0 0 0 0 0 0 0 0 0 0 0 0 0 0 0 0 0 0 0 0 0 0 0 0 0 0 0 0 0 0 0 0 0 0 0 0 0 0 0 0 0 0
      0 0 0 0 0 0 0 0 0 0 0 0 0 0 0 0 0 0 0 0 0 0 0 0 0 0 0 0 0 0 0 0 0 0 0 0 0 0 0 0 0 0 0 0 0 0 0 0 0 0 0 0 0 0 0 0 0 0 0 0 0 0 0 0 0 0 0 0 0 0 0 0 0 0 0 0 0 0 0 0 0 0 0 0 0 0 0 0 0 0 0 59 60 0 0 0 0 0 0 0 0 0 0 0 0 0 0 0 0 0 0 0 0 0 0 0 0 0 0 0 0 0 0 0 0 0 0 0 0 0 0 0 0 0 0 0 0 0 0 0 0 0 0 0 0 0 0 0 0 0 0 0 0 0 0 0 0 0 0 0
      0 0 0 0 0 0 0 0 0 0 0 0 0 0 0 0 0 0 0 0 0 0 0 0 0 0 0 0 0 0 0 0 0 0 0 0 0 0 0 0 0 0 0 0 0 0 0 0 0 0 0 0 0 0 0 0 0 0 0 0 0 0 0 0 0 0 0 0 0 0 0 0 0 0 0 0 0 0 0 0 0 0 0 0 0 0 0 0 0 0 0 59 60 0 0 0 0 0 0 0 0 0 0 0 0 0 0 0 0 0 0 0 0 0 0 0 0 0 0 0 0 0 0 0 0 0 0 0 0 0 0 0 0 0 0 0 0 0 0 0 0 0 0 0 0 0 0 0 0 0 0 0 0 0 0 0 0 0 0 0
      0 0 0 0 0 0 0 0 0 0 0 0 0 0 0 0 0 0 0 0 0 0 0 0 0 0 0 0 0 0 0 0 0 0 0 0 0 0 0 0 0 0 0 0 0 0 0 0 0 0 0 0 0 0 0 0 0 0 0 0 0 0 0 0 0 0 0 0 0 0 0 0 0 0 0 0 0 0 0 0 0 0 0 0 0 0 0 0 0 0 0 59 60 0 0 0 0 0 0 0 0 0 0 0 0 0 0 0 0 0 0 0 0 0 0 0 0 0 0 0 0 0 0 0 0 0 0 0 0 0 0 0 0 0 0 0 0 0 0 0 0 0 0 0 0 0 0 0 0 0 0 0 0 0 0 0 0 0 0 0
      0 0 0 0 0 0 0 0 0 0 0 0 0 0 0 0 0 0 0 0 0 0 0 0 0 0 0 0 0 0 0 0 0 0 0 0 0 0 0 0 0 0 0 0 0 0 0 0 0 0 0 0 0 0 0 0 0 0 0 0 0 0 0 0 0 0 0 0 0 0 0 0 0 0 0 0 0 0 0 0 0 0 0 0 0 0 0 0 0 0 0 59 60 0 0 0 0 0 0 0 0 0 0 0 0 0 0 0 0 0 0 0 0 0 0 0 0 0 0 0 0 0 0 0 0 0 0 0 0 0 0 0 0 0 0 0 0 0 0 0 0 0 0 0 0 0 0 0 0 0 0 0 0 0 0 0 0 0 0 0
      0 0 0 0 0 0 0 0 0 0 0 0 0 0 0 0 0 0 0 0 0 0 0 0 0 0 0 0 0 0 0 0 0 0 0 0 0 0 0 0 0 0 0 0 0 0 0 0 0 0 0 0 0 0 0 0 0 0 0 0 0 0 0 0 0 0 0 0 0 0 0 0 0 0 0 0 0 0 0 0 0 0 0 0 0 0 0 0 0 0 0 59 60 0 0 0 0 0 0 0 0 0 0 0 0 0 0 0 0 0 0 0 0 0 0 0 0 0 0 0 0 0 0 0 0 0 0 0 0 0 0 0 0 0 0 0 0 0 0 0 0 0 0 0 0 0 0 0 0 0 0 0 0 0 0 0 0 0 0 0
      0 0 0 0 0 0 0 0 0 0 0 0 0 0 0 0 0 0 0 0 0 0 0 0 0 0 0 0 0 0 0 0 0 0 0 0 0 0 0 0 0 0 0 0 0 0 0 0 0 0 0 0 0 0 0 0 0 0 0 0 0 0 0 0 0 0 0 0 0 0 0 0 0 0 0 0 0 0 0 0 0 0 0 0 0 0 0 0 0 0 0 0 0 0 0 0 0 0 0 0 0 0 0 0 0 0 0 0 0 0 0 0 0 0 0 0 0 0 0 0 0 0 0 0 0 0 0 0 0 0 0 0 0 0 0 0 0 0 0 0 0 0 0 0 0 0 0 0 0 0 0 0 0 0 0 0 0 0 0 0
      0 0 0 0 0 0 0 0 0 0 0 0 0 0 0 0 0 0 0 0 0 0 0 0 0 0 0 0 0 0 0 0 0 0 0 0 0 0 0 0 0 0 0 0 0 0 0 0 0 0 0 0 0 0 0 0 0 0 0 0 0 0 0 0 0 0 0 0 0 0 0 0 0 0 0 0 0 0 0 0 0 0 0 0 0 0 0 0 0 0 0 0 0 0 0 0 0 0 0 0 0 0 0 0 0 0 0 0 0 0 0 0 0 0 0 0 0 0 0 0 0 0 0 0 0 0 0 0 0 0 0 0 0 0 0 0 0 0 0 0 0 0 0 0 0 0 0 0 0 0 0 0 0 0 0 0 0 0 0 0
      0 0 0 0 0 0 0 0 0 0 0 0 0 0 0 0 0 0 0 0 0 0 0 0 0 0 0 0 0 0 0 0 0 0 0 0 0 0 0 0 0 0 0 0 0 0 0 0 0 0 0 0 0 0 0 0 0 0 0 0 0 0 0 0 0 0 0 0 0 0 0 0 0 0 0 0 0 0 0 0 0 0 0 0 0 0 0 0 0 0 0 0 0 0 0 0 0 0 0 0 0 0 0 0 0 0 0 0 0 0 0 0 0 0 0 0 0 0 0 0 0 0 0 0 0 0 0 0 0 0 0 0 0 0 0 0 0 0 0 0 0 0 0 0 0 0 0 0 0 0 0 0 0 0 0 0 0 0 0 0
      0 0 0 0 0 0 0 0 0 0 0 0 0 0 0 0 0 0 0 0 0 0 0 0 0 0 0 0 0 0 0 0 0 0 0 0 0 0 0 0 0 0 0 0 0 0 0 0 0 0 0 0 0 0 0 0 0 0 0 0 0 0 0 0 0 0 0 0 0 0 0 0 0 0 0 0 0 0 0 0 0 0 0 0 0 0 0 0 0 0 0 0 0 0 0 0 0 0 0 0 0 0 0 0 0 0 0 0 0 0 0 0 0 0 0 0 0 0 0 0 0 0 0 0 0 0 0 0 0 0 0 0 0 0 0 0 0 0 0 0 0 0 0 0 0 0 0 0 0 0 0 0 0 0 0 0 0 0 0 0
      0 0 0 0 0 0 0 0 0 0 0 0 0 0 0 0 0 0 0 0 0 0 0 0 0 0 0 0 0 0 0 0 0 0 0 0 0 0 0 0 0 0 0 0 0 0 0 0 0 0 0 0 0 0 0 0 0 0 0 0 0 0 0 0 0 0 0 0 0 0 0 0 0 0 0 0 0 0 0 0 0 0 0 0 0 0 0 0 0 0 0 0 0 0 0 0 0 0 0 0 0 0 0 0 0 0 0 0 0 0 0 0 0 0 0 0 0 0 0 0 0 0 0 0 0 0 0 0 0 0 0 0 0 0 0 0 0 0 0 0 0 0 0 0 0 0 0 0 0 0 0 0 0 0 0 0 0 0 0 0
      )
    )
  )
)
