(supertux-level
  (version 2)
  (name (_ "Planet Nolok - Colorless Courtyard"))
  (author "Miksy91")
  (license "CC-BY-SA 4.0 International")
  (sector
    (name "main")
    (ambient-light
      (color 0.5645232 0.5645232 0.5645232)
    )
    (background
      (alignment "bottom")
      (speed 0.5)
      (image-top "/images/background/transparent_up.png")
      (image "/images/background/ghostforest_para.png")
      (image-bottom "/images/background/transparent_up.png")
      (z-pos -200)
    )
    (background
      (alignment "bottom")
      (speed 0.1)
      (image-top "/images/background/transparent_up.png")
      (image "/images/background/halloween/mountain.png")
      (image-bottom "/images/background/transparent_up.png")
      (z-pos -250)
    )
    (bonusblock
      (contents "firegrow")
      (x 1744.25)
      (y 256)
    )
    (camera
      (name "Camera")
      (mode "normal")
    )
    (dispenser
      (cycle 4)
      (random #t)
      (type "rocketlauncher")
      (badguy "spiky" "skullyhop")
      (direction "left")
      (x 5348)
      (y 120.5)
    )
    (fish
      (direction "left")
      (x 4672)
      (y 374.5)
    )
    (fish
      (direction "left")
      (x 4908)
      (y 389)
    )
    (fish
      (direction "left")
      (x 4366.5)
      (y 347.25)
    )
    (fish
      (direction "left")
      (x 4269.5)
      (y 361.25)
    )
    (fish
      (direction "left")
      (x 4511.843)
      (y 220.35)
    )
    (fish
      (direction "left")
      (x 4509.343)
      (y 159.1)
    )
    (fish
      (direction "left")
      (x 4988.1)
      (y 327.8499)
    )
    (fish
      (direction "left")
      (x 4990.6)
      (y 381.6)
    )
    (flyingsnowball
      (direction "left")
      (x 368.75)
      (y 284.25)
    )
    (flyingsnowball
      (direction "left")
      (x 512)
      (y 384)
    )
    (flyingsnowball
      (direction "left")
      (x 640)
      (y 288)
    )
    (flyingsnowball
      (direction "left")
      (x 818.75)
      (y 379.5)
    )
    (flyingsnowball
      (direction "left")
      (x 960)
      (y 288)
    )
    (flyingsnowball
      (direction "left")
      (x 1107)
      (y 383.25)
    )
    (flyingsnowball
      (direction "left")
      (x 1309.75)
      (y 350.25)
    )
    (flyingsnowball
      (direction "left")
      (x 1441.25)
      (y 349)
    )
    (gradient
      (name "-360")
      (top_color 0.3 0.3 0.3)
      (bottom_color 0 0 0)
    )
    (haywire
      (direction "left")
      (x 2521.85)
      (y 254.1)
    )
    (haywire
      (direction "left")
      (x 2005.6)
      (y 247.85)
    )
    (jumpy
      (direction "left")
      (sprite "/images/creatures/jumpy/jumpy.sprite")
      (x 1663)
      (y 8)
    )
    (jumpy
      (direction "left")
      (sprite "/images/creatures/jumpy/jumpy.sprite")
      (x 1824)
      (y 21)
    )
    (jumpy
      (direction "left")
      (sprite "/images/creatures/jumpy/jumpy.sprite")
      (x 4021)
      (y 86)
    )
    (jumpy
      (direction "left")
      (sprite "/images/creatures/jumpy/jumpy.sprite")
      (x 5233)
      (y 76)
    )
    (jumpy
      (direction "left")
      (sprite "/images/creatures/jumpy/jumpy.sprite")
      (x 1439)
      (y 154)
    )
    (mrbomb
      (direction "left")
      (x 3761)
      (y 340.75)
    )
    (mrbomb
      (direction "left")
      (x 3629)
      (y 340.25)
    )
    (mrbomb
      (direction "left")
      (x 2156.35)
      (y 249.1)
    )
    (mrbomb
      (direction "left")
      (x 2358.35)
      (y 254.1)
    )
    (music
      (file "/music/forest/clavelian_march.ogg")
    )
    (spawnpoint
      (name "main")
      (x 80.5)
      (y 294.25)
    )
    (sspiky
      (direction "left")
      (x 2256.35)
      (y 246.6)
    )
    (stalactite
      (direction "left")
      (x 3233)
      (y -32)
    )
    (stalactite
      (direction "left")
      (x 2978)
      (y -32)
    )
    (stalactite
      (direction "left")
      (x 2754)
      (y -32)
    )
    (stalactite
      (direction "left")
      (x 3521)
      (y -32)
    )
    (stalactite
      (direction "left")
      (x 3425)
      (y -32)
    )
    (stalactite
      (direction "left")
      (x 3950)
      (y 9)
    )
    (tilemap
      (solid #f)
      (z-pos -100)
      (name "Background")
      (width 186)
      (height 25)
      (tiles
      0 0 0 0 0 0 0 0 0 0 0 0 0 0 0 0 0 0 0 0 0 0 0 0 0 0 0 0 0 0 0 0 0 0 0 0 0 0 0 0 0 0 0 0 0 0 0 0 0 0 0 0 0 0 0 0 0 0 0 0 0 0 0 0 0 0 0 0 0 0 0 0 0 0 0 0 0 0 0 0 0 0 0 0 0 0 0 0 0 0 0 0 0 0 0 0 0 0 0 0 0 0 0 0 0 0 0 0 0 0 0 0 0 0 0 0 0 0 0 0 0 0 0 0 0 0 0 0 0 0 0 0 0 0 0 0 0 0 0 0 0 0 0 0 0 0 0 0 0 0 0 0 0 0 0 0 0 0 0 0 0 0 0 0 0 0 0 0 0 0 0 0 0 0 0 0 0 0 0 0 0 0 0 0 0 0
      1467 1468 1477 0 0 0 0 0 0 0 0 0 0 0 0 0 0 0 0 0 0 0 0 0 0 0 0 0 0 0 0 0 0 0 0 0 0 0 0 0 0 0 0 0 0 0 0 0 0 0 0 0 0 0 0 0 0 0 0 0 0 0 0 0 0 0 0 0 0 0 0 0 0 0 0 0 0 0 0 0 0 0 0 0 0 0 0 0 0 0 0 0 0 0 0 0 0 0 0 0 0 0 0 0 0 0 0 0 0 0 0 0 0 0 0 0 0 0 0 0 0 0 0 0 0 0 0 0 0 0 0 0 0 0 0 0 0 0 0 0 0 0 0 0 0 0 0 0 0 0 0 0 0 0 0 0 0 0 0 0 0 0 0 0 0 0 0 0 0 0 0 0 0 0 0 0 0 0 0 0 0 0 0 0 0 0
      1471 1472 1482 1482 1482 1482 1482 0 0 0 0 0 0 0 0 0 0 0 0 0 0 0 0 0 0 0 0 0 0 0 0 0 0 0 0 0 0 0 0 0 0 0 0 0 0 0 0 0 0 0 0 0 0 0 0 0 0 0 0 0 0 0 0 0 0 0 0 0 0 0 0 0 0 0 0 0 0 0 0 0 0 0 0 0 0 0 0 0 0 0 0 0 0 0 0 0 0 0 0 0 0 0 0 0 0 0 0 0 0 0 0 0 0 0 0 0 0 0 0 0 0 0 0 0 0 0 0 0 0 0 0 0 0 0 0 0 0 0 0 0 0 0 0 0 0 0 0 0 0 0 0 0 0 0 0 0 0 0 0 0 0 0 0 0 0 0 0 0 0 0 0 0 0 0 0 0 0 0 0 0 0 0 0 0 0 0
      1477 1477 1482 1482 1482 1482 1482 1477 0 0 0 0 0 0 0 0 0 0 0 0 0 0 0 0 0 0 0 0 0 0 0 0 0 0 0 0 0 0 0 0 0 0 0 0 0 0 0 0 0 0 0 0 0 0 0 0 0 0 0 0 0 0 0 0 0 0 0 0 0 0 0 0 0 0 0 0 0 0 0 0 0 0 0 0 0 0 0 0 0 0 0 0 0 0 0 0 0 0 0 0 0 0 0 0 0 0 0 0 0 0 0 0 0 0 0 0 0 0 0 0 0 0 0 0 0 0 0 0 0 0 0 0 0 0 0 0 0 0 0 0 0 0 0 0 0 0 0 0 0 0 0 0 0 0 0 0 0 0 0 0 0 0 0 0 0 0 0 0 0 0 0 0 0 0 0 0 0 0 0 0 0 0 0 0 0 0
      1469 1503 1503 1503 1503 1482 1482 1469 1469 1469 1469 0 0 0 0 0 0 0 0 0 0 0 0 0 0 0 0 0 0 0 0 0 0 0 0 0 0 0 0 0 0 0 0 0 0 0 0 0 0 0 0 0 0 0 0 0 0 0 0 0 0 0 0 0 0 0 0 0 0 0 0 0 0 0 0 0 0 0 0 0 0 0 0 0 0 0 0 0 0 0 0 0 0 0 0 0 0 0 0 0 0 0 0 0 0 0 0 0 0 0 0 0 0 0 0 0 0 0 0 0 0 0 0 0 0 0 0 0 0 0 0 0 0 0 0 0 0 0 0 0 0 0 0 0 0 0 0 0 0 0 0 0 0 0 0 0 0 0 0 0 0 0 0 0 0 0 0 0 0 0 0 0 0 0 0 0 0 0 0 0 0 0 0 0 0 0
      1482 1503 0 0 1503 1482 1482 1482 1482 1482 1469 0 0 0 0 0 0 0 0 0 0 0 0 0 0 0 0 0 0 0 0 0 0 0 0 0 0 0 0 0 0 0 0 0 0 0 0 0 0 0 0 0 0 0 0 0 0 0 0 0 0 1482 1482 1482 1482 1482 1482 1482 1482 1503 1503 1503 1503 1482 1482 1482 1482 1482 1476 1476 1476 0 0 0 0 0 0 0 0 0 0 0 0 0 0 0 0 0 0 0 0 0 0 0 0 0 0 0 1482 1482 1482 1482 1482 1482 1482 1482 1482 1482 1482 1482 1482 1482 1482 1482 1482 1482 1482 1482 1482 1482 1482 1482 1482 1482 1482 1482 1482 1482 1482 1482 1482 1482 1482 1482 1482 1482 1482 1482 1482 1482 1482 1482 1482 1469 1469 1469 1469 1469 1469 1503 1503 1503 1503 1503 1503 1503 1469 1469 1469 1469 1469 1469 1469 1469 1469 1469 1469 1469 1469 1469 1469 1469 1469 1469 0 0
      1482 1503 0 0 1503 1482 1482 1482 1482 1482 1469 0 0 0 0 0 0 0 0 0 0 0 0 0 0 0 0 0 0 0 0 0 0 0 0 0 0 0 0 0 0 0 0 0 0 0 0 0 0 0 0 0 0 0 0 0 0 0 0 0 0 1482 1482 1482 1482 1482 1482 1482 1482 1503 0 0 1503 1482 1482 1482 1482 1482 1476 1476 1476 0 0 0 0 0 0 0 0 0 0 0 0 0 0 0 0 0 0 0 0 0 0 0 0 0 0 0 1482 1482 1482 1482 1482 1482 1482 1482 1482 1482 1482 1482 1482 1482 1482 1482 1482 1482 1482 1482 1482 1482 1482 1482 1482 1482 1482 1482 1482 1482 1482 1482 1482 1482 1482 1482 1482 1482 1482 1482 1482 1482 1482 1482 1482 1469 1469 1469 1469 1469 1469 1503 0 0 0 0 0 1503 1469 1469 1467 1468 1469 1469 1469 1469 1469 1469 1469 1469 1469 1469 1469 1469 1469 1469 0 0
      1482 1503 0 0 1503 1482 1482 1482 1482 1482 1469 0 0 0 0 0 0 0 0 0 0 0 0 0 0 0 0 0 0 0 0 0 0 0 0 0 0 0 0 0 0 0 0 0 0 0 0 0 0 0 0 0 0 0 0 0 0 0 0 0 0 1482 1482 1482 1482 1467 1468 1482 1482 1503 0 0 1503 1482 1482 1482 1482 1482 1476 1476 1476 0 0 0 0 0 0 0 0 0 0 0 0 0 0 0 0 0 0 0 0 0 0 0 0 0 0 0 1482 1482 1482 1482 1482 1482 1482 1482 1482 1482 1482 1482 1482 1482 1482 1482 1482 1482 1482 1482 1482 1482 1482 1482 1482 1482 1482 1482 1482 1482 1482 1482 1482 1482 1482 1482 1482 1482 1482 1482 1482 1482 1482 1482 1482 1469 1469 1469 1469 1469 1469 1503 0 0 0 0 0 1503 1469 1469 1471 1472 1469 1469 1469 1469 1469 1469 1469 1469 1469 1469 1469 1469 1469 1469 0 0
      1482 1503 1503 1503 1503 1482 1482 1482 1482 1482 1469 0 0 0 0 0 0 0 0 0 0 0 0 0 0 0 0 0 0 0 0 0 0 0 0 0 0 0 0 0 0 0 0 0 0 0 0 0 0 0 0 0 0 0 0 0 0 0 0 0 0 1482 1482 1482 1482 1471 1472 1482 1482 1503 1503 1503 1503 1482 1482 1482 1482 1482 1476 1476 1476 0 0 0 0 0 0 0 0 0 0 0 0 0 0 0 0 0 0 0 0 0 0 0 0 0 0 0 1482 1482 1482 1482 1482 1482 1482 1482 1482 1482 1482 1482 1482 1482 1482 1482 1482 1482 1482 1482 1482 1482 1482 1482 1482 1482 1482 1482 1482 1482 1482 1482 1482 1482 1482 1482 1482 1482 1482 1482 1482 1482 1482 1482 1482 1482 1482 1482 1482 1482 1482 1503 0 0 0 0 0 1503 1469 1469 1469 1469 1469 1469 1469 0 0 0 0 0 0 0 0 0 0 0 0 0
      1482 1482 1482 1482 1482 1482 1482 1482 1482 1482 1469 0 0 0 0 0 0 0 0 0 0 0 0 0 0 0 0 0 0 0 0 0 0 0 0 0 0 0 0 1482 1482 0 0 0 0 0 0 0 0 0 0 0 1482 1482 1482 1482 1482 1482 1482 1482 1482 1482 1482 1482 1482 1482 1482 1482 1482 1482 1482 1482 1482 1482 1482 1482 1482 1482 1482 1482 1482 1482 1482 0 0 0 0 0 0 0 0 0 0 0 0 0 0 0 0 0 0 0 0 0 0 0 0 0 1482 1482 1482 1482 1482 1482 1482 1482 1482 1482 1482 1482 1482 1482 1482 1482 1482 1482 1482 1482 1482 1482 1482 1482 1482 1482 1482 1482 1482 1482 1482 1482 1482 1482 1482 1482 1482 1482 1482 1482 1482 1482 1482 1482 1482 1482 1482 1482 1482 1482 1482 1503 1809 1812 0 0 0 1503 1469 1469 1469 1469 1469 1469 1469 0 0 0 0 0 0 0 0 0 0 0 0 0
      1482 1482 1482 1482 1482 1482 1482 1482 1482 1482 1469 0 0 0 0 0 0 0 0 0 0 0 0 0 0 0 0 0 0 0 0 0 0 0 0 0 0 0 0 1482 1482 1482 1482 1482 1482 1482 1482 1482 1482 0 0 0 1482 1482 1482 1482 1482 1482 1482 1482 1482 1482 1482 1482 1482 1482 1482 1482 1482 1482 1482 1482 1482 1482 1482 1482 1482 1482 1482 1482 1482 1482 1482 0 0 0 0 0 0 0 0 0 0 0 0 0 0 0 0 0 0 0 0 0 0 0 0 0 1482 1482 1482 1482 1482 1482 1482 1482 1482 1482 1482 1482 1482 1482 1482 1482 1482 1482 1482 1482 1482 1482 1482 1482 1482 1482 1482 1482 1482 1482 1482 1482 1482 1482 1482 1482 1482 1482 1482 1482 1482 1482 1482 1482 1482 1482 1482 1482 1482 1482 1482 1503 1810 1813 0 0 0 1503 1469 1469 1469 1469 1469 1469 1469 0 0 0 0 0 0 0 0 0 0 0 0 0
      1482 1482 1482 1482 1482 1482 1482 1482 1482 1482 1469 0 0 0 0 0 0 0 0 0 0 0 0 0 0 0 0 0 0 0 0 0 0 0 0 0 0 0 0 1482 1482 1482 1482 1482 1482 1482 1482 1482 1482 0 0 0 1482 1482 1482 1482 1482 1482 1482 1482 1482 1482 1482 1482 1482 1482 1482 1482 1482 1482 1482 1482 1482 1482 1482 1482 1482 1482 1482 1482 1482 1482 1482 0 0 0 0 0 0 0 0 0 0 0 0 0 0 0 0 0 0 0 0 0 0 0 0 0 1482 1482 1482 1482 1482 1482 1482 1482 1482 1482 1482 1482 1482 1482 1482 1482 1482 1482 1482 1482 1482 1482 1482 1482 1482 1482 1482 1482 1482 1482 1482 1482 1482 1482 1482 1482 1482 1482 1482 1482 1482 1482 1482 1482 1482 1482 1482 1482 1482 1482 1482 1503 1811 1814 0 0 0 1503 1469 1469 1469 1469 1469 1469 1469 0 0 0 0 0 0 0 0 0 0 0 0 0
      1482 1482 1482 1482 1482 1482 1482 1482 1482 1482 1469 0 0 0 0 0 0 0 0 0 0 0 0 0 0 0 0 0 0 0 0 0 0 0 0 0 0 0 1482 1482 1482 1482 1482 1482 1482 1482 1482 1482 1482 0 0 0 1482 1482 1482 1482 1482 1482 1482 1482 1482 1482 1482 1482 1482 1482 1482 1482 1482 1482 1482 1482 1482 1482 1482 1482 1482 1482 1482 1482 1482 1482 1482 0 0 0 0 0 0 0 0 0 0 0 0 0 0 0 0 0 0 0 0 0 0 0 0 0 1482 1482 1482 1482 1482 1482 1482 1482 1482 1482 1482 1482 1482 1482 1482 1482 1482 1482 1482 1482 1482 1482 1482 1482 1482 1482 1482 1482 1482 1482 1482 1482 1482 1482 1482 1482 1482 1482 1482 1482 1482 1482 1482 1482 1482 1482 1482 1482 1482 1482 1482 1503 1503 1503 1503 1503 1503 1503 1469 1469 1469 1469 1469 1469 1469 0 0 0 0 0 0 0 0 0 0 0 0 0
      1482 1482 1482 1482 1482 1482 1482 1482 1482 1482 1469 0 0 0 0 0 0 0 0 0 0 0 0 0 0 0 0 0 0 0 0 0 0 0 0 0 0 0 1482 1482 1482 1482 1482 1482 1482 1482 1482 1482 1482 0 0 0 1482 1482 1482 1482 1482 1482 1482 1482 1482 1482 1482 1482 1482 1482 1482 1482 1482 1482 1482 1482 1482 1482 1482 1482 1482 1482 1482 1482 1482 1482 1482 0 0 0 0 0 0 0 0 0 0 0 0 0 0 0 0 0 0 0 0 0 0 0 0 0 1482 1482 1482 1482 1482 1482 1482 1482 1482 1482 1482 1482 1482 1482 1482 1482 1482 1482 1482 1482 1482 1482 1482 1482 1482 1482 1482 1482 1482 1482 1482 1482 1482 1482 1482 1482 1482 1482 1482 1482 1482 1482 1482 1482 1482 1469 1469 1469 1469 1469 1469 1469 1469 0 0 0 0 0 0 0 0 0 0 0 0 0 0 0 0 0 0 0 0 0 0 0 0 0
      1482 1482 1482 1482 1482 1482 1482 1482 1482 1482 1469 0 0 0 0 0 0 0 0 0 0 0 0 0 0 0 0 0 0 0 0 0 0 0 0 0 0 0 1482 1482 1482 1482 1482 1482 1482 1482 1482 1482 1482 1482 0 0 1482 1482 1482 1482 1482 1482 1482 1482 1482 1482 1482 1482 1482 1482 1482 1482 1482 1482 1482 1482 1482 1482 1482 1482 1482 1482 1482 1482 1482 1482 1482 0 0 0 0 0 0 0 0 0 0 0 0 0 0 0 0 0 0 0 0 0 0 0 0 0 1482 1482 1482 1482 1482 1482 1482 1482 1482 1482 1482 1482 1482 1482 1482 1482 1482 1482 1482 1482 1482 1482 1482 1482 1482 1482 1482 1482 1482 1482 1482 1482 1482 1482 1482 1482 1482 1482 1482 1482 1482 1482 1482 1482 1482 1469 1469 1469 1469 1469 1469 0 0 0 0 0 0 0 0 0 0 0 0 0 0 0 0 0 0 0 0 0 0 0 0 0 0 0
      1482 1482 1482 1482 1482 1482 1482 1482 1482 1482 1469 1482 0 0 0 0 0 0 0 0 0 0 0 0 0 0 0 0 0 0 0 0 0 0 0 0 0 0 1482 1467 1468 1482 1482 1482 1482 1482 1482 1482 1482 1482 1482 1482 1482 1482 1482 1482 1482 1482 1482 1482 1482 1482 1482 1482 1482 1482 1482 1482 1482 1482 1482 1482 1482 1482 1482 1482 1482 1482 1482 1482 1482 1482 1482 0 0 0 0 0 0 0 0 0 0 0 0 0 0 0 0 0 0 0 0 0 0 0 0 0 1482 1482 1482 1482 1482 1482 1482 1482 1482 1482 1482 1482 1482 1482 1482 1482 1482 1482 1482 1482 1482 1482 1482 1482 1482 1482 1482 1482 1482 1482 1482 1482 1482 1482 1482 1482 1482 1482 1482 1482 1482 1482 1482 1482 1482 1469 1469 1469 1469 1469 1469 0 0 0 0 0 0 0 0 0 0 0 0 0 0 0 0 0 0 0 0 0 0 0 0 0 0 0
      1482 1482 1482 1482 1482 1482 1482 1482 1482 1482 1469 1482 0 0 0 0 0 0 0 0 0 0 0 0 0 0 0 0 0 0 0 0 0 0 0 0 0 0 1482 1471 1472 1482 1482 1482 1482 1482 1482 1482 1482 1482 1482 1482 1482 1482 1482 1482 1482 1482 1482 1482 1482 1482 1482 1482 1482 1482 1482 1482 1482 1482 1482 1482 1482 1482 1482 1482 1482 1482 1482 1482 1482 1482 1482 0 0 0 0 0 0 0 0 0 0 0 0 0 0 0 0 0 0 0 0 0 0 0 0 0 1482 1482 1482 1482 1482 1482 1482 1482 1482 1482 1482 1482 1482 1482 1482 1482 1482 1482 1482 1482 1467 1468 1482 1482 1482 1469 1469 1469 1469 1469 1469 1469 1469 1469 1469 1469 1469 1469 1469 1469 1469 1469 1469 1469 1469 1469 1469 1469 1469 1469 1469 0 0 0 0 0 0 0 0 0 0 0 0 0 0 0 0 0 0 0 0 0 0 0 0 0 0 0
      1482 1482 1482 1482 1482 1482 1482 1482 1482 1482 1469 1482 0 0 0 0 0 0 0 0 0 0 0 0 0 0 0 0 0 0 0 0 0 0 0 0 0 1482 1482 1482 1482 1482 1482 1482 1482 1482 1482 1482 1482 1482 1482 1476 1482 1482 1482 1482 1482 1482 1482 1482 1482 1482 1482 1482 1482 1482 1482 1482 1482 1482 1482 1482 1482 1482 1482 1482 1482 1482 1482 1482 1482 1482 1467 0 0 0 0 0 0 0 0 0 0 0 0 0 0 0 0 0 0 0 0 0 0 0 0 0 1482 1482 1482 1482 1482 1482 1482 1482 1482 1482 1482 1482 1482 1482 1482 1482 1482 1482 1482 1482 1471 1472 1482 1482 1482 1469 1469 1469 1469 1469 1469 1469 1469 1469 1469 1469 1469 1469 1469 1469 1469 1469 1469 1469 1469 1469 1469 1469 1469 1469 1469 0 0 0 0 0 0 0 0 0 0 0 0 0 0 0 0 0 0 0 0 0 0 0 0 0 0 0
      1482 1482 1482 1482 1482 1482 1482 1482 1482 1482 1469 1482 0 0 0 0 0 0 0 0 0 0 0 0 0 0 0 0 0 0 0 0 0 0 0 0 0 1482 1482 1482 1482 1482 1482 1482 1482 1482 1482 1482 1482 1482 1482 1476 1482 1482 1482 1482 1482 1482 1482 1482 1482 1482 1482 1482 1482 1482 1482 1482 1482 1482 1482 1482 1482 1482 1482 1482 1482 1482 1482 1482 1482 1482 1471 1472 1476 0 0 0 0 0 0 0 0 0 0 0 0 0 0 0 0 0 0 0 0 0 0 0 1482 1482 1482 1482 1482 1482 1482 1482 1482 1482 1482 1482 1482 1482 1482 1482 1482 1482 1482 1482 1482 1482 1482 1482 1482 1469 1469 1469 1469 1469 1469 1469 1469 1469 1469 1469 1469 1469 1469 1469 1469 1469 1469 1469 1469 1469 1469 1469 1469 1469 1469 0 0 0 0 0 0 0 0 0 0 0 0 0 0 0 0 0 0 0 0 0 0 0 0 0 0 0
      1482 1482 1482 1482 1482 1482 1482 1482 1482 1482 1469 1482 0 0 0 0 0 0 0 0 0 0 0 0 0 0 0 0 0 0 0 0 0 0 0 0 0 1482 1482 1482 1482 1482 1482 1482 1482 1482 1482 1482 1482 1482 1482 1476 1482 1482 1482 1482 1482 1482 1482 1482 1482 1482 1482 1482 1482 1482 1482 1482 1482 1482 1482 1482 1482 1482 1482 1482 1482 1482 1482 1482 1482 1482 1482 1476 1476 0 0 0 0 0 0 0 0 0 0 0 0 0 0 0 0 0 0 0 0 0 0 0 1482 1482 1482 1482 1482 1482 1482 1482 1482 1482 1482 1482 1482 1482 1482 1482 1482 0 0 0 0 0 0 1469 1469 1469 1469 1469 1469 1469 1469 1469 1469 1469 1469 1469 1469 1469 1469 1469 1469 1469 1469 1469 1469 1469 1469 1469 1469 1469 1469 0 0 0 0 0 0 0 0 0 0 0 0 0 0 0 0 0 0 0 0 0 0 0 0 0 0 0
      1482 1482 1482 1482 1482 1482 1482 1482 1482 1482 1469 1482 0 0 0 0 0 0 0 0 0 0 0 0 0 0 0 0 0 0 0 0 0 0 0 0 0 1482 1482 1482 1482 1482 1482 1482 1482 1482 1482 1482 1482 1482 1482 1476 1482 1482 1482 1482 1482 1482 1482 1482 1482 1482 1482 1482 1482 1482 1482 1482 1482 1482 1482 1482 1482 1482 1482 1482 1482 1482 1482 1482 1482 1482 1482 1476 1476 0 0 0 0 0 0 0 0 0 0 0 0 0 0 0 0 0 0 0 0 0 0 0 1482 1482 1482 1482 1482 1482 1482 1482 1482 1482 1482 1482 1482 1482 1482 1482 1482 0 0 0 0 0 0 1469 1469 1469 1469 1469 1469 1469 1469 1469 1469 1469 1469 1469 1469 1469 1469 1469 1469 1469 1469 1469 1469 1469 1469 1469 1469 1469 1469 0 0 0 0 0 0 0 0 0 0 0 0 0 0 0 0 0 0 0 0 0 0 0 0 0 0 0
      1482 1482 1482 1482 1482 1482 1482 1482 1482 1482 1469 1482 1482 0 0 0 0 0 0 0 0 0 0 0 0 0 0 0 0 0 0 0 0 0 0 0 0 1482 1482 1482 1482 1482 1482 1482 1482 1482 1482 1482 1482 1482 1482 1476 1482 1482 1482 1482 1482 1482 1482 1482 1482 1482 1482 1482 1482 1482 1482 1482 1482 1482 1482 1482 1482 1482 1482 1482 1482 1482 1482 1482 1482 1482 1482 1476 1476 0 0 0 0 0 0 0 0 0 0 0 0 0 0 0 0 0 0 0 0 0 0 0 1482 1482 1482 1482 1482 1482 1482 1482 1482 1482 1482 1482 1482 1482 1482 1482 1482 0 0 0 0 0 0 0 0 0 0 0 0 0 0 0 0 0 0 0 0 0 0 0 0 0 0 0 0 0 0 0 0 0 0 0 0 0 0 0 0 0 0 0 0 0 0 0 0 0 0 0 0 0 0 0 0 0 0 0 0 0
      1482 1482 1482 1482 1482 1482 1482 1482 1482 1482 1469 1482 1482 0 0 0 0 0 0 0 0 0 0 0 0 0 0 0 0 0 0 0 0 0 0 0 0 1482 1482 1482 1482 1482 1482 1482 1482 1482 1482 1482 1482 1482 1482 1476 1482 1482 1482 1482 1482 1482 1482 1482 1482 1482 1482 1482 1482 1482 1482 1482 1482 1482 1482 1482 1482 1482 1482 1482 1482 1482 1482 1482 1482 1482 1482 1476 1476 0 0 0 0 0 0 0 0 0 0 0 0 0 0 0 0 0 0 0 0 0 0 0 0 0 0 0 0 0 0 0 0 0 0 0 0 0 0 0 0 0 0 0 0 0 0 0 0 0 0 0 0 0 0 0 0 0 0 0 0 0 0 0 0 0 0 0 0 0 0 0 0 0 0 0 0 0 0 0 0 0 0 0 0 0 0 0 0 0 0 0 0 0 0 0 0 0 0 0 0 0
      1469 1469 1469 1469 1469 1469 1469 1469 1469 1469 1469 1482 1482 0 0 0 0 0 0 0 0 0 0 0 0 0 0 0 0 0 0 0 0 0 0 0 0 1482 1482 1482 1482 1482 1482 1482 1482 1482 1482 1482 1482 1482 1482 1476 1482 1482 1482 1482 1482 1482 1482 1482 1482 1482 1482 1482 1482 1482 1482 1482 1482 1482 1482 1482 1482 1482 1482 1482 1482 1482 1482 1482 1482 1482 1482 1476 1476 0 0 0 0 0 0 0 0 0 0 0 0 0 0 0 0 0 0 0 0 0 0 0 0 0 0 0 0 0 0 0 0 0 0 0 0 0 0 0 0 0 0 0 0 0 0 0 0 0 0 0 0 0 0 0 0 0 0 0 0 0 0 0 0 0 0 0 0 0 0 0 0 0 0 0 0 0 0 0 0 0 0 0 0 0 0 0 0 0 0 0 0 0 0 0 0 0 0 0 0 0
      1469 1469 1469 1469 1469 1469 1469 1469 1469 1469 1469 1482 1482 1482 0 0 0 0 0 0 0 0 0 0 0 0 0 0 0 0 0 0 0 0 0 0 0 1482 1482 1482 1482 1482 1482 1482 1482 1482 1482 1482 1482 1482 1482 1482 1476 1476 1476 1476 1476 1476 1476 1476 1476 1476 1476 1476 1476 1476 1476 1476 1476 1476 1476 1476 1476 1476 1476 1476 1476 1476 1476 1476 1476 1476 1476 1476 1476 0 0 0 0 0 0 0 0 0 0 0 0 0 0 0 0 0 0 0 0 0 0 0 0 0 0 0 0 0 0 0 0 0 0 0 0 0 0 0 0 0 0 0 0 0 0 0 0 0 0 0 0 0 0 0 0 0 0 0 0 0 0 0 0 0 0 0 0 0 0 0 0 0 0 0 0 0 0 0 0 0 0 0 0 0 0 0 0 0 0 0 0 0 0 0 0 0 0 0 0 0
      )
    )
    (tilemap
      (solid #t)
      (z-pos 0)
      (name "Interactive")
      (width 186)
      (height 25)
      (tiles
      0 0 0 0 0 0 0 0 0 0 0 0 0 0 0 0 0 0 0 0 0 0 0 0 0 0 0 0 0 0 0 0 0 0 0 0 0 0 0 0 0 0 0 0 0 0 0 0 0 0 0 0 0 0 0 0 0 0 0 0 0 0 0 0 0 0 0 0 0 0 0 0 0 0 0 0 0 0 0 0 0 0 0 0 0 0 0 0 0 0 0 0 0 0 0 0 0 0 0 0 0 0 0 0 0 0 0 0 0 0 0 0 0 0 0 0 0 0 0 0 0 0 0 0 0 0 0 0 0 0 0 0 0 0 0 0 0 0 0 0 0 0 0 0 0 0 0 0 0 0 0 0 0 0 0 0 0 0 0 0 0 0 0 0 0 0 0 0 0 0 0 1378 1368 1368 1368 1368 1368 1368 1368 1368 1368 1368 1368 1368 1368 1368
      0 0 0 0 0 0 0 0 0 0 0 0 0 0 0 0 0 0 0 0 0 0 0 0 0 0 0 0 0 0 0 0 0 0 0 0 0 0 0 0 0 0 0 0 0 0 0 0 0 0 0 0 0 0 0 0 0 0 0 0 0 0 0 0 0 0 0 0 0 0 0 0 0 0 0 0 0 0 0 0 0 0 0 0 0 0 0 0 0 0 0 0 0 0 0 0 0 0 0 0 0 0 0 0 0 0 0 0 0 0 0 0 0 0 0 0 0 0 0 0 0 0 0 0 0 0 0 0 0 0 0 0 0 0 0 0 0 0 0 0 0 0 0 0 0 0 0 0 0 0 0 0 0 0 0 0 0 0 0 0 0 0 0 0 0 0 0 0 0 0 0 1404 1372 1372 1372 1372 1372 1395 1372 1372 1372 1372 1372 1372 1372 1372
      0 0 0 0 0 0 0 0 0 0 0 0 0 0 0 0 0 0 0 0 0 0 0 0 0 0 0 0 0 0 0 0 0 0 0 0 0 0 0 0 0 0 0 0 0 0 0 0 0 0 0 0 0 0 0 0 0 0 0 0 0 0 0 0 0 0 0 0 0 0 0 0 0 0 0 0 0 0 0 0 0 0 0 0 0 0 0 0 0 0 0 0 0 0 0 0 0 0 0 0 0 0 0 0 0 0 0 0 0 0 0 0 0 0 0 0 0 0 0 0 0 0 0 0 0 0 0 0 0 0 0 0 0 0 0 0 0 0 0 0 0 0 0 0 0 0 0 0 0 0 0 0 0 0 0 0 0 0 0 0 0 0 0 0 0 0 0 0 0 0 0 1404 1372 1372 1372 1372 1372 1372 1372 1372 1372 1372 1372 1372 1372 1372
      0 0 0 0 0 0 0 0 0 0 0 0 0 0 0 0 0 0 0 0 0 0 0 0 0 0 0 0 0 0 0 0 0 0 0 0 0 0 0 0 0 0 0 0 0 0 0 0 0 0 0 0 0 0 0 0 0 0 0 0 0 0 0 0 0 0 0 0 0 0 0 0 0 0 0 0 0 0 0 0 0 0 0 0 0 0 0 0 0 0 0 0 0 0 0 0 0 0 0 0 0 0 0 0 0 0 0 0 0 0 0 0 0 0 0 0 0 0 0 0 0 0 0 0 0 0 0 0 0 0 0 0 0 0 0 0 0 0 0 0 0 0 0 0 0 0 0 0 0 0 0 0 0 0 0 0 0 0 0 0 0 0 0 0 0 0 0 0 0 0 0 1404 1372 1372 1372 1372 1372 1372 1372 1372 1372 1372 1372 1372 1372 1372
      0 0 0 0 0 0 0 0 0 0 0 0 0 0 0 0 0 0 0 0 0 0 0 0 0 0 0 0 0 0 0 0 0 0 0 0 0 0 0 0 0 0 0 0 0 0 0 0 0 0 0 0 0 0 0 0 0 0 0 0 0 0 0 0 0 0 0 0 0 0 0 0 0 0 0 0 0 0 0 0 0 0 0 0 0 0 0 0 0 0 0 0 0 0 0 0 0 0 0 0 0 0 0 0 0 0 0 0 0 0 0 0 0 0 0 0 0 0 0 0 0 0 0 0 0 0 0 0 0 0 0 0 0 0 0 0 0 0 0 0 0 0 0 0 0 0 0 0 0 0 0 0 0 0 0 0 0 0 0 0 0 0 0 0 0 0 0 0 0 0 0 1404 1372 1372 1372 1372 1372 1372 1372 1372 1372 1372 1372 1372 1372 1372
      0 0 0 0 0 0 0 0 0 0 0 0 0 0 0 0 0 0 0 0 0 0 0 0 0 0 0 0 0 0 0 0 0 0 0 0 0 0 0 0 0 0 0 0 0 0 0 0 0 0 0 0 0 0 0 0 0 0 0 0 0 0 0 0 0 0 0 0 0 0 0 0 0 0 0 0 0 0 0 0 0 0 0 0 0 0 0 0 0 0 0 0 0 0 0 0 0 0 0 0 0 0 0 0 0 0 0 1370 1416 1412 1388 0 0 0 0 0 0 0 0 0 0 0 0 0 0 0 0 0 0 0 0 0 0 0 0 0 0 0 0 0 0 0 0 0 0 0 0 0 0 0 0 0 0 0 0 0 0 0 0 0 0 0 0 0 0 1378 1368 1368 1416 1412 1412 1413 1376 1376 1376 1376 1376 1376 1376 1375 1376 1376 1394 1372 1372 1372
      0 0 0 0 0 0 0 0 0 0 0 0 0 0 0 0 0 0 0 0 0 0 0 0 0 0 0 0 0 0 0 0 0 0 0 0 0 0 0 0 0 0 0 0 0 0 0 0 0 0 0 0 0 0 0 0 0 0 0 0 0 0 0 0 0 0 0 0 0 0 0 0 0 0 0 0 0 0 0 0 0 0 0 0 1370 1368 1380 0 0 0 0 1370 1368 1380 0 0 0 0 0 1370 1368 1380 0 0 0 0 0 1404 1373 0 0 0 0 0 0 0 0 0 0 0 0 0 0 0 0 0 0 0 0 0 0 0 0 0 0 0 0 0 0 0 0 0 0 0 0 0 0 0 0 0 0 0 0 0 0 0 0 0 0 0 0 0 0 0 0 1404 1372 1372 1373 0 0 0 0 133 0 0 0 0 0 0 0 0 0 0 132 1372
      0 0 0 0 0 0 0 0 0 0 0 0 0 0 0 0 0 0 0 0 0 0 0 0 0 0 0 0 0 0 0 0 0 0 0 0 0 0 0 0 0 0 0 0 0 0 0 0 0 0 0 0 0 0 0 0 0 0 0 0 0 0 0 0 0 0 0 0 0 0 0 0 0 0 0 0 0 0 0 0 0 0 0 0 1404 1372 1373 0 0 0 0 1404 1372 1373 0 0 0 0 0 1404 1372 1373 0 0 0 0 0 1404 1373 0 0 0 0 0 0 0 0 0 0 0 0 0 0 0 0 0 0 0 0 0 0 0 0 0 0 0 0 0 0 0 0 0 0 0 0 0 0 0 0 0 0 0 0 0 0 0 0 0 0 0 0 0 0 0 0 1404 1372 1372 1373 0 0 0 0 133 0 0 0 0 0 0 0 0 0 0 132 1372
      0 0 0 0 0 0 0 0 0 0 0 0 0 0 0 0 0 0 0 0 0 0 0 0 0 0 0 0 0 0 0 0 0 0 0 0 0 0 0 0 0 0 0 0 0 0 0 0 0 0 0 0 0 0 0 0 0 0 0 0 0 0 0 0 0 0 0 0 0 0 0 0 0 0 0 0 0 0 0 0 0 0 0 0 1404 1372 1373 0 0 0 0 1404 1372 1373 0 0 0 0 0 1404 1372 1373 0 0 0 0 0 1404 1373 0 0 0 0 0 83 128 83 83 0 0 0 0 0 0 0 0 0 0 0 0 0 0 0 0 0 0 0 0 0 0 0 0 0 0 0 0 0 0 0 0 0 0 0 0 0 0 0 0 0 0 0 0 0 0 0 1404 1372 1372 1373 0 0 1367 1368 1368 1368 1368 1368 1368 1368 1368 1368 1368 1371 1372 1372 1372
      0 0 0 0 0 0 0 0 0 0 0 0 0 0 0 0 0 0 0 0 0 0 0 0 0 0 0 0 0 0 0 0 0 0 0 0 0 0 0 0 0 0 0 0 0 0 0 0 0 0 0 0 0 0 0 0 0 0 0 0 0 0 1503 1503 1503 1503 1503 1503 1503 0 0 0 0 1503 1503 1503 1503 1503 1503 1503 0 0 0 0 1404 1372 1373 0 0 0 0 1404 1372 1373 0 0 0 0 0 1404 1372 1373 0 0 0 0 0 1404 1373 0 0 0 0 0 0 0 0 0 0 0 0 0 0 0 0 0 0 0 0 0 0 0 0 0 0 0 0 0 0 0 0 0 0 0 0 0 0 0 0 0 0 0 0 0 0 0 0 0 0 0 0 0 0 0 0 1393 1387 1409 1407 0 0 1404 1372 1372 1372 1372 1372 1372 1372 1372 1372 1372 1372 1372 1372 1372
      0 0 0 0 0 0 0 0 0 0 0 0 0 0 0 0 0 0 0 0 0 0 0 0 0 0 0 0 0 0 0 0 0 0 0 0 0 0 0 0 0 0 0 0 0 0 0 0 0 0 0 0 0 0 0 0 0 0 0 0 0 0 0 0 0 0 0 0 0 0 0 0 0 0 0 0 0 0 0 0 0 0 0 0 1404 1372 1373 0 0 0 0 1404 1372 1373 0 0 0 0 0 1404 1372 1373 0 0 0 0 0 1404 1373 0 0 0 0 0 0 0 0 0 0 0 0 0 1503 1503 1503 1503 1503 0 0 0 0 0 0 0 0 0 0 0 0 0 0 0 0 0 0 0 0 0 0 0 0 0 0 0 0 0 0 0 0 0 0 0 0 0 0 0 0 0 0 0 0 1404 1372 1372 1372 1372 1372 1372 1372 1395 1372 1372 1372 1372 1372 1372
      0 0 0 0 0 0 0 0 0 0 0 0 0 0 0 0 0 0 0 0 0 0 0 0 0 0 0 0 0 0 0 0 0 0 0 0 0 0 0 0 0 0 0 0 0 0 0 0 0 0 0 0 0 0 0 0 0 0 0 0 0 0 0 0 0 0 0 0 0 0 0 0 0 0 0 0 0 0 0 0 0 0 0 0 1404 1372 1373 0 0 0 0 1404 1372 1373 0 0 0 0 0 1404 1382 1373 0 0 0 0 0 1404 1373 0 0 0 0 0 0 0 0 0 0 0 0 0 0 0 0 0 0 0 0 0 0 0 0 0 0 0 0 0 0 0 0 0 0 0 0 0 0 0 0 0 0 0 0 0 0 0 0 0 0 0 0 0 0 0 0 0 0 0 0 0 0 1404 1372 1372 1372 1372 1372 1372 1372 1372 1372 1372 1372 1372 1372 1372
      0 1503 1503 1503 1503 0 0 0 0 0 0 0 0 0 0 0 0 0 0 0 0 0 0 0 0 0 0 0 0 0 0 0 0 0 0 0 0 0 0 0 0 0 0 0 0 0 0 0 0 0 0 0 1503 1503 1503 1503 1503 1503 0 0 0 0 0 0 0 0 0 0 0 0 0 0 0 0 0 0 0 0 0 0 0 0 0 0 1404 1372 1373 0 0 0 0 1404 1372 1373 0 0 0 0 0 1404 1372 1373 0 0 0 0 0 1404 1373 0 0 0 0 1503 1503 1503 1503 1503 1503 0 0 0 0 0 0 0 0 0 0 0 0 0 0 0 0 0 0 0 0 0 0 0 0 0 0 0 0 0 0 0 0 0 0 0 0 0 0 0 0 0 1367 1368 1368 1368 1368 1368 1368 1368 1368 1368 1368 1371 1372 1372 1372 1372 1372 1372 1372 1372 1372 1372 1372 1372 1372 1372
      0 0 0 0 0 0 0 0 0 0 0 0 0 0 0 0 0 0 0 0 0 0 0 0 0 0 0 0 0 0 0 0 0 0 0 0 0 0 0 0 0 0 0 0 0 0 0 0 0 0 0 0 0 0 0 0 0 0 0 0 0 0 0 0 0 0 0 0 0 0 0 0 0 0 0 0 0 0 0 0 0 0 0 0 1404 1372 1373 0 0 0 0 1404 1372 1373 0 0 0 0 0 1404 1372 1373 0 0 0 0 0 1404 1373 0 0 0 0 0 0 0 0 0 0 0 0 0 0 0 0 0 0 0 0 0 1367 1380 0 0 0 0 0 0 1419 0 0 0 0 0 1419 0 0 0 0 0 0 1419 0 0 0 0 0 0 1367 1368 1371 1372 1372 1372 1372 1372 1372 1372 1372 1372 1372 1372 1372 1372 1372 1382 1372 1372 1372 1372 1372 1372 1372 1372 1372 1372
      0 0 0 0 0 0 0 0 0 0 0 0 0 0 0 0 0 0 0 0 0 0 0 0 0 0 0 0 0 0 0 0 0 0 0 0 0 0 0 0 0 0 0 0 0 0 0 0 0 0 0 0 0 0 0 0 0 0 0 0 0 0 0 0 0 0 0 0 0 0 0 0 0 0 0 0 0 0 0 0 0 0 0 0 1404 1372 1373 0 0 0 0 1404 1372 1373 0 0 0 0 0 1404 1372 1373 0 0 0 0 0 1404 1373 0 0 0 0 0 0 0 0 0 0 0 0 0 0 0 0 0 0 0 0 0 1404 1373 0 0 0 0 0 0 1420 0 0 0 0 0 1420 0 0 0 0 0 0 1420 0 0 0 0 0 0 1404 1372 1372 1372 1372 1372 1372 1372 1372 1372 1372 1372 1372 1372 1372 1372 1372 1372 1372 1372 1372 1372 1372 1372 1372 1372 1372 1372
      0 0 0 0 0 0 0 0 0 0 0 0 0 0 0 0 0 0 0 0 0 0 0 0 0 0 0 0 0 0 0 0 0 0 0 0 0 0 0 0 0 0 0 0 0 0 0 0 0 0 0 0 0 0 0 0 0 0 0 0 0 0 0 0 0 0 0 0 0 0 0 0 0 0 0 0 0 0 0 0 0 0 0 0 1404 1372 1373 0 0 0 0 1404 1372 1373 0 0 0 0 0 1404 1406 1407 0 0 0 0 0 1404 1373 0 0 0 0 0 0 0 0 0 0 0 0 0 0 0 0 0 0 0 0 0 1404 1373 0 0 0 0 0 0 0 0 0 0 0 0 0 0 0 0 0 0 0 0 0 0 0 0 0 0 1404 1372 1372 1372 1372 1372 1372 1372 1372 1372 1372 1372 1372 1372 1372 1372 1372 1372 1372 1372 1372 1382 1372 1372 1372 1372 1372 1372
      0 0 0 0 0 0 0 0 0 0 0 0 0 0 0 0 0 0 0 0 0 0 0 0 0 0 0 0 0 0 0 0 0 0 0 0 0 0 0 0 0 0 0 0 0 0 0 0 0 0 0 0 0 0 0 0 0 0 0 0 0 0 0 0 0 0 0 0 0 0 0 0 0 0 0 0 0 0 0 0 0 0 0 0 1404 1372 1373 0 0 0 0 1404 1372 1373 0 0 0 0 0 1404 1383 1392 0 0 0 0 0 1404 1373 0 0 0 0 0 0 0 0 0 0 0 0 0 0 0 0 0 0 0 0 0 1404 1373 0 0 0 0 0 0 0 0 0 0 0 0 0 0 0 0 0 0 0 0 0 0 0 0 0 0 1404 1372 1372 1372 1372 1372 1372 1372 1372 1372 1372 1372 1372 1372 1372 1372 1372 1372 1372 1372 1372 1372 1372 1372 1372 1372 1372 1372
      0 0 0 0 0 0 0 0 0 0 0 0 0 0 0 0 0 0 0 0 0 0 0 0 0 0 0 0 0 0 0 0 0 0 0 0 0 0 0 0 0 0 0 0 0 0 0 0 0 0 0 0 0 0 0 0 0 0 0 0 0 0 0 0 0 0 0 0 0 0 0 0 0 0 0 0 0 0 0 0 0 0 0 0 1404 1382 1373 0 0 0 0 1404 1372 1373 0 0 0 0 0 1404 1372 1373 0 0 0 0 0 1404 1373 0 0 0 0 0 0 0 0 0 0 0 0 0 0 0 3458 3458 3458 3458 3458 3458 1404 1373 0 0 0 0 0 0 0 0 0 0 0 0 0 0 0 0 0 0 0 0 0 0 0 0 0 0 1404 1372 1372 1372 1372 1372 1372 1372 1382 1372 1372 1372 1372 1372 1372 1372 1372 1372 1372 1372 1372 1372 1372 1372 1372 1372 1372 1372
      0 0 0 0 0 0 0 0 0 0 0 0 0 0 0 0 0 0 0 0 0 0 0 0 0 0 0 0 0 0 0 0 0 0 0 0 0 0 0 0 0 0 0 0 0 0 0 0 0 0 0 0 0 0 0 0 0 0 0 0 0 0 0 0 0 0 0 0 0 0 0 0 0 0 0 0 0 0 0 0 0 0 0 0 1404 1372 1373 0 0 0 0 1404 1372 1373 0 0 0 0 0 1404 1372 1373 0 0 0 0 0 1404 1373 0 0 0 0 0 0 0 0 0 0 0 0 0 0 3460 1370 1368 1368 1368 1368 1368 1371 1373 0 0 0 0 0 0 0 0 0 0 0 0 0 0 0 0 0 0 0 0 0 0 0 0 0 0 1404 1372 1372 1372 1372 1372 1372 1372 1372 1372 1372 1372 1372 1372 1372 1372 1372 1395 1372 1372 1372 1372 1372 1372 1372 1372 1372 1372
      0 0 0 0 0 0 0 0 0 0 0 0 0 0 0 0 0 0 0 0 0 0 0 0 0 0 0 0 0 0 0 0 0 0 0 0 0 0 0 0 0 0 0 0 0 0 0 0 0 0 0 0 0 0 0 0 0 0 0 0 0 0 0 0 0 0 0 0 0 0 0 0 0 0 0 0 0 0 0 0 0 0 0 0 1404 1372 1373 0 0 0 0 1404 1372 1373 0 0 0 0 0 1404 1372 1373 0 0 0 0 0 1404 1373 0 0 0 0 0 0 0 0 0 0 0 0 0 0 3460 1404 1372 1372 1372 1372 1372 1372 1373 3458 3458 3458 3458 3458 3458 3458 3458 3458 3458 3458 3458 3458 3458 3458 3458 3458 3458 3458 3458 3458 3458 3458 3458 3458 3458 1404 1372 1372 1372 1372 1372 1372 1372 1372 1372 1372 1372 1372 1372 1372 1372 1372 1372 1372 1372 1372 1372 1372 1372 1395 1372 1372 1372
      0 0 0 0 0 0 0 0 0 0 0 0 0 0 0 0 0 0 0 0 0 0 0 0 0 0 0 0 0 0 0 0 0 0 0 0 0 0 0 0 0 0 0 0 0 0 0 0 0 0 0 0 0 0 0 0 0 0 0 0 0 0 0 0 0 0 0 0 0 0 0 0 0 0 0 0 0 0 0 0 0 0 0 0 1404 1372 1373 0 0 0 0 1404 1372 1373 0 0 0 0 0 1404 1372 1373 0 0 0 0 0 1404 1373 3458 3458 3458 3458 3458 3458 3458 3458 3458 3458 3458 3458 3458 3458 3460 1404 1372 1372 1372 1372 1372 1372 1383 1368 1368 1368 1368 1368 1368 1368 1368 1368 1368 1368 1368 1368 1368 1368 1368 1368 1368 1368 1368 1368 1368 1368 1368 1368 1368 1371 1372 1372 1372 1372 1372 1372 1372 1372 1372 1372 1372 1372 1372 1372 1372 1372 1372 1372 1372 1372 1372 1372 1372 1372 1372 1372 1372
      0 0 0 0 0 0 0 0 0 0 0 0 0 0 0 0 0 0 0 0 0 0 0 0 0 0 0 0 0 0 0 0 0 0 0 0 0 0 0 0 0 0 0 0 0 0 0 0 0 0 0 0 0 0 0 0 0 0 0 0 0 0 0 0 0 0 0 0 0 0 0 0 0 0 0 0 0 0 0 0 0 0 0 0 1404 1372 1373 0 0 0 0 1404 1372 1373 0 0 0 0 0 1404 1372 1373 0 0 0 0 0 1404 1383 1368 1368 1368 1368 1368 1368 1368 1368 1368 1368 1368 1368 1368 1368 1368 1371 1372 1372 1382 1372 1372 1372 1372 1372 1372 1372 1372 1372 1372 1372 1372 1372 1372 1372 1372 1372 1372 1372 1372 1372 1372 1372 1372 1372 1372 1372 1372 1372 1372 1372 1372 1372 1372 1372 1395 1372 1372 1372 1372 1372 1372 1372 1382 1372 1372 1372 1372 1372 1372 1372 1372 1372 1372 1372 1372 1372 1372
      0 0 0 0 0 0 0 0 0 0 0 0 0 0 0 0 0 0 0 0 0 0 0 0 0 0 0 0 0 0 0 0 0 0 0 0 0 0 0 0 0 0 0 0 0 0 0 0 0 0 0 0 0 0 0 0 0 0 0 0 0 0 0 0 0 0 0 0 0 0 0 0 0 0 0 0 0 0 0 0 0 0 0 0 1404 1372 1373 0 0 0 0 1404 1372 1373 0 0 0 0 0 1404 1372 1373 0 0 0 0 0 1404 1372 1372 1372 1372 1372 1372 1372 1372 1372 1372 1372 1372 1372 1372 1372 1372 1372 1372 1372 1372 1372 1372 1372 1372 1372 1372 1372 1372 1372 1372 1372 1372 1372 1372 1372 1372 1372 1372 1372 1372 1372 1372 1372 1372 1372 1372 1372 1372 1372 1372 1372 1372 1372 1372 1372 1372 1372 1372 1372 1372 1372 1372 1372 1372 1372 1372 1372 1372 1372 1372 1372 1372 1372 1372 1372 1372 1372 1372
      0 0 0 0 0 0 0 0 0 0 0 0 0 0 0 0 0 0 0 0 0 0 0 0 0 0 0 0 0 0 0 0 0 0 0 0 0 0 0 0 0 0 0 0 0 0 0 0 0 0 0 0 0 0 0 0 0 0 0 0 0 0 0 0 0 0 0 0 0 0 0 0 0 0 0 0 0 0 0 0 0 0 0 0 1404 1372 1373 0 0 0 0 1404 1372 1373 0 0 0 0 0 1404 1372 1373 0 0 0 0 0 1404 1372 1372 1372 1372 1382 1372 1372 1372 1372 1372 1372 1372 1372 1372 1372 1372 1372 1372 1372 1372 1372 1372 1372 1372 1372 1372 1372 1372 1372 1372 1372 1372 1372 1372 1372 1372 1372 1372 1372 1372 1372 1372 1372 1372 1372 1372 1372 1372 1372 1372 1372 1372 1372 1372 1372 1372 1372 1372 1372 1372 1372 1372 1372 1372 1372 1372 1372 1372 1372 1372 1372 1372 1372 1372 1372 1372 1372 1372
      0 0 0 0 0 0 0 0 0 0 0 0 0 0 0 0 0 0 0 0 0 0 0 0 0 0 0 0 0 0 0 0 0 0 0 0 0 0 0 0 0 0 0 0 0 0 0 0 0 0 0 0 0 0 0 0 0 0 0 0 0 0 0 0 0 0 0 0 0 0 0 0 0 0 0 0 0 0 0 0 0 0 0 0 1404 1372 1373 0 0 0 0 1404 1372 1373 0 0 0 0 0 1404 1372 1373 0 0 0 0 0 1404 1372 1372 1372 1372 1372 1372 1372 1372 1372 1372 1372 1372 1372 1372 1372 1372 1372 1372 1372 1372 1372 1372 1372 1372 1372 1372 1372 1372 1372 1372 1372 1372 1372 1372 1372 1372 1372 1372 1372 1372 1372 1372 1372 1372 1372 1372 1372 1372 1372 1372 1372 1372 1372 1372 1372 1372 1372 1372 1372 1372 1372 1372 1372 1372 1372 1372 1372 1372 1372 1372 1372 1372 1372 1372 1372 1372 1372 1372
      )
    )
    (tilemap
      (solid #f)
      (z-pos 100)
      (name "Foreground")
      (width 186)
      (height 25)
      (tiles
      0 0 0 0 0 0 0 0 0 0 0 0 0 0 0 0 0 0 0 0 0 0 0 0 0 0 0 0 0 0 0 0 0 0 0 0 0 0 0 0 0 0 0 0 0 0 0 0 0 0 0 0 0 0 0 0 0 0 0 0 0 0 0 0 0 0 0 0 0 0 0 0 0 0 0 0 0 0 0 0 0 0 0 0 0 0 0 0 0 0 0 0 0 0 0 0 0 0 0 0 0 0 0 0 0 0 0 0 0 0 0 0 0 0 0 0 0 0 0 0 0 0 0 0 0 0 0 0 0 0 0 0 0 0 0 0 0 0 0 0 0 0 0 0 0 0 0 0 0 0 0 0 0 0 0 0 0 0 0 0 0 0 0 0 0 0 0 0 0 0 0 0 0 0 0 0 0 0 0 0 0 0 0 0 0 0
      0 0 0 0 0 0 0 0 0 0 0 0 0 0 0 0 0 0 0 0 0 0 0 0 0 0 0 0 0 0 0 0 0 0 0 0 0 0 0 0 0 0 0 0 0 0 0 0 0 0 0 0 0 0 0 0 0 0 0 0 0 0 0 0 0 0 0 0 0 0 0 0 0 0 0 0 0 0 0 0 0 0 0 0 0 0 0 0 0 0 0 0 0 0 0 0 0 0 0 0 0 0 0 0 0 0 0 0 0 0 0 0 0 0 0 0 0 0 0 0 0 0 0 0 0 0 0 0 0 0 0 0 0 0 0 0 0 0 0 0 0 0 0 0 0 0 0 0 0 0 0 0 0 0 0 0 0 0 0 0 0 0 0 0 0 0 0 0 0 0 0 0 0 0 0 0 0 0 0 0 0 0 0 0 0 0
      0 0 0 0 0 0 0 0 0 0 0 0 0 0 0 0 0 0 0 0 0 0 0 0 0 0 0 0 0 0 0 0 0 0 0 0 0 0 0 0 0 0 0 0 0 0 0 0 0 0 0 0 0 0 0 0 0 0 0 0 0 0 0 0 0 0 0 0 0 0 0 0 0 0 0 0 0 0 0 0 0 0 0 0 0 0 0 0 0 0 0 0 0 0 0 0 0 0 0 0 0 0 0 0 0 0 0 0 0 0 0 0 0 0 0 0 0 0 0 0 0 0 0 0 0 0 0 0 0 0 0 0 0 0 0 0 0 0 0 0 0 0 0 0 0 0 0 0 0 0 0 0 0 0 0 0 0 0 0 0 0 0 0 0 0 0 0 0 0 0 0 0 0 0 0 0 0 0 0 0 0 0 0 0 0 0
      0 0 0 0 0 0 0 0 0 0 0 0 0 0 0 0 0 0 0 0 0 0 0 0 0 0 0 0 0 0 0 0 0 0 0 0 0 0 0 0 0 0 0 0 0 0 0 0 0 0 0 0 0 0 0 0 0 0 0 0 0 0 0 0 0 0 0 0 0 0 0 0 0 0 0 0 0 0 0 0 0 0 0 0 0 0 0 0 0 0 0 0 0 0 0 0 0 0 0 0 0 0 0 0 0 0 0 0 0 0 0 0 0 0 0 0 0 0 0 0 0 0 0 0 0 0 0 0 0 0 0 0 0 0 0 0 0 0 0 0 0 0 0 0 0 0 0 0 0 0 0 0 0 0 0 0 0 0 0 0 0 0 0 0 0 0 0 0 0 0 0 0 0 0 0 0 0 0 0 0 0 0 0 0 0 0
      0 0 0 0 0 0 0 0 0 0 0 0 0 0 0 0 0 0 0 0 0 0 0 0 0 0 0 0 0 0 0 0 0 0 0 0 0 0 0 0 0 0 0 0 0 0 0 0 0 0 0 0 0 0 0 0 0 0 0 0 0 0 0 0 0 0 0 0 0 0 0 0 0 0 0 0 0 0 0 0 0 0 0 0 0 0 0 0 0 0 0 0 0 0 0 0 0 0 0 0 0 0 0 0 0 0 0 0 0 0 0 0 0 0 0 0 0 0 0 0 0 0 0 0 0 0 0 0 0 0 0 0 0 0 0 0 0 0 0 0 0 0 0 0 0 0 0 0 0 0 0 0 0 0 0 0 0 0 0 0 0 0 0 0 0 0 0 0 0 0 0 0 0 0 0 0 0 0 0 0 0 0 0 0 0 0
      0 0 0 0 0 0 0 0 0 0 0 0 0 0 0 0 0 0 0 0 0 0 0 0 0 0 0 0 0 0 0 0 0 0 0 0 0 0 0 0 0 0 0 0 0 0 0 0 0 0 0 0 0 0 0 0 0 0 0 0 0 0 0 0 0 0 0 0 0 0 0 0 0 0 0 0 0 0 0 0 0 0 0 0 0 0 0 0 0 0 0 0 0 0 0 0 0 0 0 0 0 0 0 0 0 0 0 0 0 0 0 0 0 0 0 0 0 0 0 0 0 0 0 0 0 0 0 0 0 0 0 0 0 0 0 0 0 0 0 0 0 0 0 0 0 0 0 0 0 0 0 0 0 0 0 0 0 0 0 0 0 0 0 0 0 0 1368 1368 1416 1412 1412 1413 1398 1398 1398 1398 1398 1398 1398 1398 1398 1398 1394 1372 1372 1372
      0 0 0 0 0 0 0 0 0 0 0 0 0 0 0 0 0 0 0 0 0 0 0 0 0 0 0 0 0 0 0 0 0 0 0 0 0 0 0 0 0 0 0 0 0 0 0 0 0 0 0 0 0 0 0 0 0 0 0 0 0 0 0 0 0 0 0 0 0 0 0 0 0 0 0 0 0 0 0 0 0 0 0 0 0 0 0 0 0 0 0 0 0 0 0 0 0 0 0 0 0 0 0 0 0 0 0 0 0 0 0 0 0 0 0 0 0 0 0 0 0 0 0 0 0 0 0 0 0 0 0 0 0 0 0 0 0 0 0 0 0 0 0 0 0 0 0 0 0 0 0 0 0 0 0 0 0 0 0 0 0 0 0 0 0 0 0 0 1373 3185 3186 0 0 0 0 0 0 0 0 0 0 0 1404 1372 1372 1372
      0 0 0 0 0 0 0 0 0 0 0 0 0 0 0 0 0 0 0 0 0 0 0 0 0 0 0 0 0 0 0 0 0 0 0 0 0 0 0 0 0 0 0 0 0 0 0 0 0 0 0 0 0 0 0 0 0 0 0 0 0 0 0 0 0 0 0 0 0 0 0 0 0 0 0 0 0 0 0 0 0 0 0 0 0 0 0 0 0 0 0 0 0 0 0 0 0 0 0 0 0 0 0 0 0 0 0 0 0 0 0 0 0 0 0 0 0 0 0 0 0 0 0 0 0 0 0 0 0 0 0 0 0 0 0 0 0 0 0 0 0 0 0 0 0 0 0 0 0 0 0 0 0 0 0 0 0 0 0 0 0 0 0 0 0 0 0 0 1373 3191 3192 0 0 0 0 0 0 0 0 0 0 0 1404 1372 1372 1372
      0 0 0 0 0 0 0 0 0 0 0 0 0 0 0 0 0 0 0 0 0 0 0 0 0 0 0 0 0 0 0 0 0 0 0 0 0 0 0 0 0 0 0 0 0 0 0 0 0 0 0 0 0 0 0 0 0 0 0 0 0 0 0 0 0 0 0 0 0 0 0 0 0 0 0 0 0 0 0 0 0 0 0 0 0 0 0 0 0 0 0 0 0 0 0 0 0 0 0 0 0 0 0 0 0 0 0 0 0 0 0 0 0 0 0 0 0 0 0 0 0 0 0 0 0 0 0 0 0 0 0 0 0 0 0 0 0 0 0 0 0 0 0 0 0 0 0 0 0 0 0 0 0 0 0 0 0 0 0 0 0 0 0 0 0 0 0 0 1373 0 0 1367 1368 1368 1368 1368 1368 1368 1368 1368 1368 1368 1371 1372 1372 1372
      0 0 0 0 0 0 0 0 0 0 0 0 0 0 0 0 0 0 0 0 0 0 0 0 0 0 0 0 0 0 0 0 0 0 0 0 0 0 0 0 0 0 0 0 0 0 0 0 0 0 0 0 0 0 0 0 0 0 0 0 0 0 0 0 0 0 0 0 0 0 0 0 0 0 0 0 0 0 0 0 0 0 0 0 0 0 0 0 0 0 0 0 0 0 0 0 0 0 0 0 0 0 0 0 0 0 0 0 0 0 0 0 0 0 0 0 0 0 0 0 0 0 0 0 0 0 0 0 0 0 0 0 0 0 0 0 0 0 0 0 0 0 0 0 0 0 0 0 0 0 0 0 0 0 0 0 0 0 0 0 0 0 0 1809 1812 1393 1376 1376 1407 0 0 1404 0 0 0 0 0 0 0 0 0 0 0 0 0 0
      0 0 0 0 0 0 0 0 0 0 0 0 0 0 0 0 0 0 0 0 0 0 0 0 0 0 0 0 0 0 0 0 0 0 0 0 0 0 0 0 0 0 0 0 0 0 0 0 0 0 0 0 0 0 0 0 0 0 0 0 0 0 0 0 0 0 0 0 0 0 0 0 0 0 0 0 0 0 0 0 0 0 0 0 0 0 0 0 0 0 0 0 0 0 0 0 0 0 0 0 0 0 0 0 0 0 0 0 0 0 0 0 0 0 0 0 0 0 0 0 0 0 0 0 0 0 0 0 0 0 0 0 0 0 0 0 0 0 0 0 0 0 0 0 0 0 0 0 0 0 0 0 0 0 0 0 0 0 0 0 0 0 0 1810 1813 0 0 0 0 3185 3186 1404 0 0 0 0 0 0 0 0 0 0 0 0 0 0
      0 0 0 0 0 0 0 0 0 0 0 0 0 0 0 0 0 0 0 0 0 0 0 0 0 0 0 0 0 0 0 0 0 0 0 0 0 0 0 0 0 0 0 0 0 0 0 0 0 0 0 0 0 0 0 0 0 0 0 0 0 0 0 0 0 0 0 0 0 0 0 0 0 0 0 0 0 0 0 0 0 0 0 0 0 0 0 0 0 0 0 0 0 0 0 0 0 0 0 0 0 0 0 0 0 0 0 0 0 0 0 0 0 0 0 0 0 0 0 0 0 0 0 0 0 0 0 0 0 0 0 0 0 0 0 0 0 0 0 0 0 0 0 0 0 0 0 0 0 0 0 0 0 0 0 0 0 0 0 0 0 0 0 1811 1814 0 0 0 0 3191 3192 1404 0 0 0 0 0 0 0 0 0 0 0 0 0 0
      0 0 0 0 0 0 0 0 0 0 0 0 0 0 0 0 0 0 0 0 0 0 0 0 0 0 0 0 0 0 0 0 0 0 0 0 0 0 0 0 0 0 0 0 0 0 0 0 0 0 0 0 0 0 0 0 0 0 0 0 0 0 0 0 0 0 0 0 0 0 0 0 0 0 0 0 0 0 0 0 0 0 0 0 0 0 0 0 0 0 0 0 0 0 0 0 0 0 0 0 0 0 0 0 0 0 0 0 0 0 0 0 0 0 0 0 0 0 0 0 0 0 0 0 0 0 0 0 0 0 0 0 0 0 0 0 0 0 0 0 0 0 0 0 0 0 0 0 0 0 0 0 0 0 0 0 0 0 0 0 0 0 0 0 0 1368 1368 1368 1368 1368 1368 1371 0 0 0 0 0 0 0 0 0 0 0 0 0 0
      0 0 0 0 0 0 0 0 0 0 0 0 0 0 0 0 0 0 0 0 0 0 0 0 0 0 0 0 0 0 0 0 0 0 0 0 0 0 0 0 0 0 0 0 0 0 0 0 0 0 0 0 0 0 0 0 0 0 0 0 0 0 0 0 0 0 0 0 0 0 0 0 0 0 0 0 0 0 0 0 0 0 0 0 0 0 0 0 0 0 0 0 0 0 0 0 0 0 0 0 0 0 0 0 0 0 0 0 0 0 0 0 0 0 0 0 0 0 0 0 0 0 0 0 0 0 0 0 0 0 0 1380 0 0 0 0 0 0 0 0 0 0 0 0 0 0 0 0 0 0 0 0 0 0 0 0 0 0 1367 0 0 0 0 0 0 0 0 0 0 0 0 0 0 0 0 0 0 0 0 0 0 0 0 0 0 0
      0 0 0 0 0 0 0 0 0 0 0 0 0 0 0 0 0 0 0 0 0 0 0 0 0 0 0 0 0 0 0 0 0 0 0 0 0 0 0 0 0 0 0 0 0 0 0 0 0 0 0 0 0 0 0 0 0 0 0 0 0 0 0 0 0 0 0 0 0 0 0 0 0 0 0 0 0 0 0 0 0 0 0 0 0 0 0 0 0 0 0 0 0 0 0 0 0 0 0 0 0 0 0 0 0 0 0 0 0 0 0 0 0 0 0 0 0 0 0 0 0 0 0 0 0 0 0 0 0 0 0 1373 0 0 0 0 0 0 0 0 0 0 0 0 0 0 0 0 0 0 0 0 0 0 0 0 0 0 1404 0 0 0 0 0 0 0 0 0 0 0 0 0 0 0 0 0 0 0 0 0 0 0 0 0 0 0
      0 0 0 0 0 0 0 0 0 0 0 0 0 0 0 0 0 0 0 0 0 0 0 0 0 0 0 0 0 0 0 0 0 0 0 0 0 0 0 0 0 0 0 0 0 0 0 0 0 0 0 0 0 0 0 0 0 0 0 0 0 0 0 0 0 0 0 0 0 0 0 0 0 0 0 0 0 0 0 0 0 0 0 0 0 0 0 0 0 0 0 0 0 0 0 0 0 0 0 0 0 0 0 0 0 0 0 0 0 0 0 0 0 0 0 0 0 0 0 0 0 0 0 0 0 0 0 0 0 0 0 1373 0 0 0 0 0 0 0 0 0 0 0 0 0 0 0 0 0 0 0 0 0 0 0 0 0 0 1404 0 0 0 0 0 0 0 0 0 0 0 0 0 0 0 0 0 0 0 0 0 0 0 0 0 0 0
      0 0 0 0 0 0 0 0 0 0 0 0 0 0 0 0 0 0 0 0 0 0 0 0 0 0 0 0 0 0 0 0 0 0 0 0 0 0 0 0 0 0 0 0 0 0 0 0 0 0 0 0 0 0 0 0 0 0 0 0 0 0 0 0 0 0 0 0 0 0 0 0 0 0 0 0 0 0 0 0 0 0 0 0 0 0 0 0 0 0 0 0 0 0 0 0 0 0 0 0 0 0 0 0 0 0 0 0 0 0 0 0 0 0 0 0 0 0 0 0 0 0 0 0 0 0 0 0 0 0 0 1373 0 0 0 0 0 0 0 0 0 0 0 0 0 0 0 0 0 0 0 0 0 0 0 0 0 0 1404 0 0 0 0 0 0 0 0 0 0 0 0 0 0 0 0 0 0 0 0 0 0 0 0 0 0 0
      0 0 0 0 0 0 0 0 0 0 0 0 0 0 0 0 0 0 0 0 0 0 0 0 0 0 0 0 0 0 0 0 0 0 0 0 0 0 0 0 0 0 0 0 0 0 0 0 0 0 0 0 0 0 0 0 0 0 0 0 0 0 0 0 0 0 0 0 0 0 0 0 0 0 0 0 0 0 0 0 0 0 0 0 0 0 0 0 0 0 0 0 0 0 0 0 0 0 0 0 0 0 0 0 0 0 0 0 0 0 0 0 0 0 0 0 0 0 0 0 0 0 0 0 0 0 0 0 0 0 0 1373 0 0 0 0 0 0 0 0 0 0 0 0 0 0 0 0 0 0 0 0 0 0 0 0 0 0 1404 0 0 0 0 0 0 0 0 0 0 0 0 0 0 0 0 0 0 0 0 0 0 0 0 0 0 0
      0 0 0 0 0 0 0 0 0 0 0 0 0 0 0 0 0 0 0 0 0 0 0 0 0 0 0 0 0 0 0 0 0 0 0 0 0 0 0 0 0 0 0 0 0 0 0 0 0 0 0 0 0 0 0 0 0 0 0 0 0 0 0 0 0 0 0 0 0 0 0 0 0 0 0 0 0 0 0 0 0 0 0 0 0 0 0 0 0 0 0 0 0 0 0 0 0 0 0 0 0 0 0 0 0 0 0 0 0 0 0 0 0 0 0 0 0 0 0 0 0 0 0 0 1370 0 0 0 0 0 0 1373 0 0 0 0 0 0 0 0 0 0 0 0 0 0 0 0 0 0 0 0 0 0 0 0 0 0 1404 0 0 0 0 0 0 0 0 0 0 0 0 0 0 0 0 0 0 0 0 0 0 0 0 0 0 0
      0 0 0 0 0 0 0 0 0 0 0 0 0 0 0 0 0 0 0 0 0 0 0 0 0 0 0 0 0 0 0 0 0 0 0 0 0 0 0 0 0 0 0 0 0 0 0 0 0 0 0 0 0 0 0 0 0 0 0 0 0 0 0 0 0 0 0 0 0 0 0 0 0 0 0 0 0 0 0 0 0 0 0 0 0 0 0 0 0 0 0 0 0 0 0 0 0 0 0 0 0 0 0 0 0 0 0 0 0 0 0 0 0 0 0 0 0 0 0 0 0 0 0 0 1404 0 0 0 0 0 0 1373 0 0 0 0 0 0 0 0 0 0 0 0 0 0 0 0 0 0 0 0 0 0 0 0 0 0 1404 0 0 0 0 0 0 0 0 0 0 0 0 0 0 0 0 0 0 0 0 0 0 0 0 0 0 0
      0 0 0 0 0 0 0 0 0 0 0 0 0 0 0 0 0 0 0 0 0 0 0 0 0 0 0 0 0 0 0 0 0 0 0 0 0 0 0 0 0 0 0 0 0 0 0 0 0 0 0 0 0 0 0 0 0 0 0 0 0 0 0 0 0 0 0 0 0 0 0 0 0 0 0 0 0 0 0 0 0 0 0 0 0 0 0 0 0 0 0 0 0 0 0 0 0 0 0 0 0 0 0 0 0 0 0 0 0 0 0 0 0 0 0 0 0 0 0 0 0 0 0 0 1404 0 0 0 0 0 0 1383 1368 1368 1368 1368 1368 1368 1368 1368 1368 1368 1368 1368 1368 1368 1368 1368 1368 1368 1368 1368 1368 1368 1368 1368 1368 1368 1371 0 0 0 0 0 0 0 0 0 0 0 0 0 0 0 0 0 0 0 0 0 0 0 0 0 0 0
      0 0 0 0 0 0 0 0 0 0 0 0 0 0 0 0 0 0 0 0 0 0 0 0 0 0 0 0 0 0 0 0 0 0 0 0 0 0 0 0 0 0 0 0 0 0 0 0 0 0 0 0 0 0 0 0 0 0 0 0 0 0 0 0 0 0 0 0 0 0 0 0 0 0 0 0 0 0 0 0 0 0 0 0 0 0 0 0 0 0 0 0 0 0 0 0 0 0 0 0 0 0 0 0 0 0 0 0 0 0 0 0 0 0 0 0 0 0 0 0 0 0 0 0 0 0 0 0 0 0 0 0 0 0 0 0 0 0 0 0 0 0 0 0 0 0 0 0 0 0 0 0 0 0 0 0 0 0 0 0 0 0 0 0 0 0 0 0 0 0 0 0 0 0 0 0 0 0 0 0 0 0 0 0 0 0
      0 0 0 0 0 0 0 0 0 0 0 0 0 0 0 0 0 0 0 0 0 0 0 0 0 0 0 0 0 0 0 0 0 0 0 0 0 0 0 0 0 0 0 0 0 0 0 0 0 0 0 0 0 0 0 0 0 0 0 0 0 0 0 0 0 0 0 0 0 0 0 0 0 0 0 0 0 0 0 0 0 0 0 0 0 0 0 0 0 0 0 0 0 0 0 0 0 0 0 0 0 0 0 0 0 0 0 0 0 0 0 0 0 0 0 0 0 0 0 0 0 0 0 0 0 0 0 0 0 0 0 0 0 0 0 0 0 0 0 0 0 0 0 0 0 0 0 0 0 0 0 0 0 0 0 0 0 0 0 0 0 0 0 0 0 0 0 0 0 0 0 0 0 0 0 0 0 0 0 0 0 0 0 0 0 0
      0 0 0 0 0 0 0 0 0 0 0 0 0 0 0 0 0 0 0 0 0 0 0 0 0 0 0 0 0 0 0 0 0 0 0 0 0 0 0 0 0 0 0 0 0 0 0 0 0 0 0 0 0 0 0 0 0 0 0 0 0 0 0 0 0 0 0 0 0 0 0 0 0 0 0 0 0 0 0 0 0 0 0 0 0 0 0 0 0 0 0 0 0 0 0 0 0 0 0 0 0 0 0 0 0 0 0 0 0 0 0 0 0 0 0 0 0 0 0 0 0 0 0 0 0 0 0 0 0 0 0 0 0 0 0 0 0 0 0 0 0 0 0 0 0 0 0 0 0 0 0 0 0 0 0 0 0 0 0 0 0 0 0 0 0 0 0 0 0 0 0 0 0 0 0 0 0 0 0 0 0 0 0 0 0 0
      0 0 0 0 0 0 0 0 0 0 0 0 0 0 0 0 0 0 0 0 0 0 0 0 0 0 0 0 0 0 0 0 0 0 0 0 0 0 0 0 0 0 0 0 0 0 0 0 0 0 0 0 0 0 0 0 0 0 0 0 0 0 0 0 0 0 0 0 0 0 0 0 0 0 0 0 0 0 0 0 0 0 0 0 0 0 0 0 0 0 0 0 0 0 0 0 0 0 0 0 0 0 0 0 0 0 0 0 0 0 0 0 0 0 0 0 0 0 0 0 0 0 0 0 0 0 0 0 0 0 0 0 0 0 0 0 0 0 0 0 0 0 0 0 0 0 0 0 0 0 0 0 0 0 0 0 0 0 0 0 0 0 0 0 0 0 0 0 0 0 0 0 0 0 0 0 0 0 0 0 0 0 0 0 0 0
      )
    )
    (tilemap
      (solid #t)
      (tint 1 0.7 0.6)
      (z-pos 90)
      (name "water")
      (width 186)
      (height 25)
      (tiles
      0 0 0 0 0 0 0 0 0 0 0 0 0 0 0 0 0 0 0 0 0 0 0 0 0 0 0 0 0 0 0 0 0 0 0 0 0 0 0 0 0 0 0 0 0 0 0 0 0 0 0 0 0 0 0 0 0 0 0 0 0 0 0 0 0 0 0 0 0 0 0 0 0 0 0 0 0 0 0 0 0 0 0 0 0 0 0 0 0 0 0 0 0 0 0 0 0 0 0 0 0 0 0 0 0 0 0 0 0 0 0 0 0 0 0 0 0 0 0 0 0 0 0 0 0 0 0 0 0 0 0 0 0 0 0 0 0 0 0 0 0 0 0 0 0 0 0 0 0 0 0 0 0 0 0 0 0 0 0 0 0 0 0 0 0 0 0 0 0 0 0 0 0 0 0 0 0 0 0 0 0 0 0 0 0 0
      0 0 0 0 0 0 0 0 0 0 0 0 0 0 0 0 0 0 0 0 0 0 0 0 0 0 0 0 0 0 0 0 0 0 0 0 0 0 0 0 0 0 0 0 0 0 0 0 0 0 0 0 0 0 0 0 0 0 0 0 0 0 0 0 0 0 0 0 0 0 0 0 0 0 0 0 0 0 0 0 0 0 0 0 0 0 0 0 0 0 0 0 0 0 0 0 0 0 0 0 0 0 0 0 0 0 0 0 0 0 0 0 0 0 0 0 0 0 0 0 0 0 0 0 0 0 0 0 0 0 0 0 0 0 0 0 0 0 0 0 0 0 0 0 0 0 0 0 0 0 0 0 0 0 0 0 0 0 0 0 0 0 0 0 0 0 0 0 0 0 0 0 0 0 0 0 0 0 0 0 0 0 0 0 0 0
      0 0 0 0 0 0 0 0 0 0 0 0 0 0 0 0 0 0 0 0 0 0 0 0 0 0 0 0 0 0 0 0 0 0 0 0 0 0 0 0 0 0 0 0 0 0 0 0 0 0 0 0 0 0 0 0 0 0 0 0 0 0 0 0 0 0 0 0 0 0 0 0 0 0 0 0 0 0 0 0 0 0 0 0 0 0 0 0 0 0 0 0 0 0 0 0 0 0 0 0 0 0 0 0 0 0 0 0 0 0 0 0 0 0 0 0 0 0 0 0 0 0 0 0 0 0 0 0 0 0 0 0 0 0 0 0 0 0 0 0 0 0 0 0 0 0 0 0 0 0 0 0 0 0 0 0 0 0 0 0 0 0 0 0 0 0 0 0 0 0 0 0 0 0 0 0 0 0 0 0 0 0 0 0 0 0
      0 0 0 0 0 0 0 0 0 0 0 0 0 0 0 0 0 0 0 0 0 0 0 0 0 0 0 0 0 0 0 0 0 0 0 0 0 0 0 0 0 0 0 0 0 0 0 0 0 0 0 0 0 0 0 0 0 0 0 0 0 0 0 0 0 0 0 0 0 0 0 0 0 0 0 0 0 0 0 0 0 0 0 0 0 0 0 0 0 0 0 0 0 0 0 0 0 0 0 0 0 0 0 0 0 0 0 0 0 0 0 0 0 0 0 0 0 0 0 0 0 0 0 0 0 0 0 0 0 0 0 0 0 0 0 0 0 0 0 0 0 0 0 0 0 0 0 0 0 0 0 0 0 0 0 0 0 0 0 0 0 0 0 0 0 0 0 0 0 0 0 0 0 0 0 0 0 0 0 0 0 0 0 0 0 0
      0 0 0 0 0 0 0 0 0 0 0 0 0 0 0 0 0 0 0 0 0 0 0 0 0 0 0 0 0 0 0 0 0 0 0 0 0 0 0 0 0 0 0 0 0 0 0 0 0 0 0 0 0 0 0 0 0 0 0 0 0 0 0 0 0 0 0 0 0 0 0 0 0 0 0 0 0 0 0 0 0 0 0 0 0 0 0 0 0 0 0 0 0 0 0 0 0 0 0 0 0 0 0 0 0 0 0 0 0 0 0 0 0 0 0 0 0 0 0 0 0 0 0 0 0 0 0 0 0 0 0 0 0 0 0 0 0 0 0 0 0 0 0 0 0 0 0 0 0 0 0 0 0 0 0 0 0 0 0 0 0 0 0 0 0 0 0 0 0 0 0 0 0 0 0 0 0 0 0 0 0 0 0 0 0 0
      0 0 0 0 0 0 0 0 0 0 0 0 0 0 0 0 0 0 0 0 0 0 0 0 0 0 0 0 0 0 0 0 0 0 0 0 0 0 0 0 0 0 0 0 0 0 0 0 0 0 0 0 0 0 0 0 0 0 0 0 0 0 0 0 0 0 0 0 0 0 0 0 0 0 0 0 0 0 0 0 0 0 0 0 0 0 0 0 0 0 0 0 0 0 0 0 0 0 0 0 0 0 0 0 0 0 0 0 0 0 0 0 0 0 0 0 0 0 0 0 0 0 0 0 0 0 0 0 0 0 0 0 0 0 0 0 0 0 0 0 0 0 0 0 0 0 0 0 0 0 0 0 0 0 0 0 0 0 0 0 0 0 0 0 0 0 0 0 0 0 0 0 0 0 0 0 0 0 0 0 0 0 0 0 0 0
      0 0 0 0 0 0 0 0 0 0 0 0 0 0 0 0 0 0 0 0 0 0 0 0 0 0 0 0 0 0 0 0 0 0 0 0 0 0 0 0 0 0 0 0 0 0 0 0 0 0 0 0 0 0 0 0 0 0 0 0 0 0 0 0 0 0 0 0 0 0 0 0 0 0 0 0 0 0 0 0 0 0 0 0 0 0 0 0 0 0 0 0 0 0 0 0 0 0 0 0 0 0 0 0 0 0 0 0 0 0 0 0 0 0 0 0 0 0 0 0 0 0 0 0 0 0 0 0 0 0 0 0 0 0 0 0 0 0 0 0 0 0 0 0 0 0 0 0 0 0 0 0 0 0 0 0 0 0 0 0 0 0 0 0 0 0 0 0 0 0 0 0 0 0 0 0 0 0 0 0 0 0 0 0 0 0
      0 0 0 0 0 0 0 0 0 0 0 0 0 0 0 0 0 0 0 0 0 0 0 0 0 0 0 0 0 0 0 0 0 0 0 0 0 0 0 0 0 0 0 0 0 0 0 0 0 0 0 0 0 0 0 0 0 0 0 0 0 0 0 0 0 0 0 0 0 0 0 0 0 0 0 0 0 0 0 0 0 0 0 0 0 0 0 0 0 0 0 0 0 0 0 0 0 0 0 0 0 0 0 0 0 0 0 0 0 0 0 0 0 0 0 0 0 0 0 0 0 0 0 0 0 0 0 0 0 0 0 0 0 0 0 0 0 0 0 0 0 0 0 0 0 0 0 0 0 0 0 0 0 0 0 0 0 0 0 0 0 0 0 0 0 0 0 0 0 0 0 0 0 0 0 0 0 0 0 0 0 0 0 0 0 0
      0 0 0 0 0 0 0 0 0 0 0 0 0 0 0 0 0 0 0 0 0 0 0 0 0 0 0 0 0 0 0 0 0 0 0 0 0 0 0 0 0 0 0 0 0 0 0 0 0 0 0 0 0 0 0 0 0 0 0 0 0 0 0 0 0 0 0 0 0 0 0 0 0 0 0 0 0 0 0 0 0 0 0 0 0 0 0 0 0 0 0 0 0 0 0 0 0 0 0 0 0 0 0 0 0 0 0 0 0 0 0 0 0 0 0 0 0 0 0 0 0 0 0 0 0 0 0 0 0 0 0 0 0 0 0 0 0 0 0 0 0 0 0 0 0 0 0 0 0 0 0 0 0 0 0 0 0 0 0 0 0 0 0 0 0 0 0 0 0 0 0 0 0 0 0 0 0 0 0 0 0 0 0 0 0 0
      0 0 0 0 0 0 0 0 0 0 0 0 0 0 0 0 0 0 0 0 0 0 0 0 0 0 0 0 0 0 0 0 0 0 0 0 0 0 0 0 0 0 0 0 0 0 0 0 0 0 0 0 0 0 0 0 0 0 0 0 0 0 0 0 0 0 0 0 0 0 0 0 0 0 0 0 0 0 0 0 0 0 0 0 0 0 0 0 0 0 0 0 0 0 0 0 0 0 0 0 0 0 0 0 0 0 0 0 0 0 0 0 0 0 0 0 0 0 0 0 0 0 0 0 0 0 0 0 0 0 0 0 0 0 0 0 0 0 0 0 0 0 0 0 0 0 0 0 0 0 0 0 0 0 0 0 0 0 0 0 0 0 0 0 0 0 0 0 0 0 0 0 0 0 0 0 0 0 0 0 0 0 0 0 0 0
      0 0 0 0 0 0 0 0 0 0 0 0 0 0 0 0 0 0 0 0 0 0 0 0 0 0 0 0 0 0 0 0 0 0 0 0 0 0 0 0 0 0 0 0 0 0 0 0 0 0 0 0 0 0 0 0 0 0 0 0 0 0 0 0 0 0 0 0 0 0 0 0 0 0 0 0 0 0 0 0 0 0 0 0 0 0 0 0 0 0 0 0 0 0 0 0 0 0 0 0 0 0 0 0 0 0 0 0 0 0 0 0 0 0 0 0 0 0 0 0 0 0 0 0 0 0 0 0 0 0 0 0 0 0 0 0 0 0 0 0 0 0 0 0 0 0 0 0 0 0 0 0 0 0 0 0 0 0 0 0 0 0 0 0 0 0 0 0 0 0 0 0 0 0 0 0 0 0 0 0 0 0 0 0 0 0
      0 0 0 0 0 0 0 0 0 0 0 0 0 0 0 0 0 0 0 0 0 0 0 0 0 0 0 0 0 0 0 0 0 0 0 0 0 0 0 0 0 0 0 0 0 0 0 0 0 0 0 0 0 0 0 0 0 0 0 0 0 0 0 0 0 0 0 0 0 0 0 0 0 0 0 0 0 0 0 0 0 0 0 0 0 0 0 0 0 0 0 0 0 0 0 0 0 0 0 0 0 0 0 0 0 0 0 0 0 0 0 0 0 0 0 0 0 0 0 0 0 0 0 0 0 0 0 0 0 0 0 0 0 0 0 0 0 0 0 0 0 0 0 0 0 0 0 0 0 0 0 0 0 0 0 0 0 0 0 0 0 0 0 0 0 0 0 0 0 0 0 0 0 0 0 0 0 0 0 0 0 0 0 0 0 0
      0 0 0 0 0 0 0 0 0 0 0 0 0 0 0 0 0 0 0 0 0 0 0 0 0 0 0 0 0 0 0 0 0 0 0 0 0 0 0 0 0 0 0 0 0 0 0 0 0 0 0 0 0 0 0 0 0 0 0 0 0 0 0 0 0 0 0 0 0 0 0 0 0 0 0 0 0 0 0 0 0 0 0 0 0 0 0 0 0 0 0 0 0 0 0 0 0 0 0 0 0 0 0 0 0 0 0 0 0 0 0 0 0 0 0 0 0 0 0 0 0 0 0 0 0 0 0 0 0 0 0 0 0 0 0 0 0 0 0 0 0 0 0 0 0 0 0 0 0 0 0 0 0 0 0 0 0 0 0 0 0 0 0 0 0 0 0 0 0 0 0 0 0 0 0 0 0 0 0 0 0 0 0 0 0 0
      0 0 0 0 0 0 0 0 0 0 0 0 0 0 0 0 0 0 0 0 0 0 0 0 0 0 0 0 0 0 0 0 0 0 0 0 0 0 0 0 0 0 0 0 0 0 0 0 0 0 0 0 0 0 0 0 0 0 0 0 0 0 0 0 0 0 0 0 0 0 0 0 0 0 0 0 0 0 0 0 0 0 0 0 0 0 0 0 0 0 0 0 0 0 0 0 0 0 0 0 0 0 0 0 0 0 0 0 0 0 0 0 0 0 0 0 0 0 0 0 0 0 0 0 0 0 0 0 0 0 0 2019 2140 2141 2142 2019 2140 2141 2142 2019 2140 2141 2142 2019 2140 2141 2142 2019 2140 2141 2142 2019 2140 2141 2142 2019 2140 2141 2142 0 0 0 0 0 0 0 0 0 0 0 0 0 0 0 0 0 0 0 0 0 0 0 0 0 0 0
      0 0 0 0 0 0 0 0 0 0 0 0 0 0 0 0 0 0 0 0 0 0 0 0 0 0 0 0 0 0 0 0 0 0 0 0 0 0 0 0 0 0 0 0 0 0 0 0 0 0 0 0 0 0 0 0 0 0 0 0 0 0 0 0 0 0 0 0 0 0 0 0 0 0 0 0 0 0 0 0 0 0 0 0 0 0 0 0 0 0 0 0 0 0 0 0 0 0 0 0 0 0 0 0 0 0 0 0 0 0 0 0 0 0 0 0 0 0 0 0 0 0 0 0 0 0 0 0 0 0 0 2020 2020 2020 2020 2020 2020 2020 2020 2020 2020 2020 2020 2020 2020 2020 2020 2020 2020 2020 2020 2020 2020 2020 2020 2020 2020 2020 2020 0 0 0 0 0 0 0 0 0 0 0 0 0 0 0 0 0 0 0 0 0 0 0 0 0 0 0
      0 0 0 0 0 0 0 0 0 0 0 0 0 0 0 0 0 0 0 0 0 0 0 0 0 0 0 0 0 0 0 0 0 0 0 0 0 0 0 0 0 0 0 0 0 0 0 0 0 0 0 0 0 0 0 0 0 0 0 0 0 0 0 0 0 0 0 0 0 0 0 0 0 0 0 0 0 0 0 0 0 0 0 0 0 0 0 0 0 0 0 0 0 0 0 0 0 0 0 0 0 0 0 0 0 0 0 0 0 0 0 0 0 0 0 0 0 0 0 0 0 0 0 0 0 0 0 0 0 0 0 2020 2020 2020 2020 2020 2020 2020 2020 2020 2020 2020 2020 2020 2020 2020 2020 2020 2020 2020 2020 2020 2020 2020 2020 2020 2020 2020 2020 0 0 0 0 0 0 0 0 0 0 0 0 0 0 0 0 0 0 0 0 0 0 0 0 0 0 0
      0 0 0 0 0 0 0 0 0 0 0 0 0 0 0 0 0 0 0 0 0 0 0 0 0 0 0 0 0 0 0 0 0 0 0 0 0 0 0 0 0 0 0 0 0 0 0 0 0 0 0 0 0 0 0 0 0 0 0 0 0 0 0 0 0 0 0 0 0 0 0 0 0 0 0 0 0 0 0 0 0 0 0 0 0 0 0 0 0 0 0 0 0 0 0 0 0 0 0 0 0 0 0 0 0 0 0 0 0 0 0 0 0 0 0 0 0 0 0 0 0 0 0 0 0 0 0 0 0 0 0 2020 2020 2020 2020 2020 2020 2020 2020 2020 2020 2020 2020 2020 2020 2020 2020 2020 2020 2020 2020 2020 2020 2020 2020 2020 2020 2020 2020 0 0 0 0 0 0 0 0 0 0 0 0 0 0 0 0 0 0 0 0 0 0 0 0 0 0 0
      0 0 0 0 0 0 0 0 0 0 0 0 0 0 0 0 0 0 0 0 0 0 0 0 0 0 0 0 0 0 0 0 0 0 0 0 0 0 0 0 0 0 0 0 0 0 0 0 0 0 0 0 0 0 0 0 0 0 0 0 0 0 0 0 0 0 0 0 0 0 0 0 0 0 0 0 0 0 0 0 0 0 0 0 0 0 0 0 0 0 0 0 0 0 0 0 0 0 0 0 0 0 0 0 0 0 0 0 0 0 0 0 0 0 0 0 0 0 0 0 0 0 0 0 0 0 0 0 0 0 0 2020 2020 2020 2020 2020 2020 2020 2020 2020 2020 2020 2020 2020 2020 2020 2020 2020 2020 2020 2020 2020 2020 2020 2020 2020 2020 2020 2020 0 0 0 0 0 0 0 0 0 0 0 0 0 0 0 0 0 0 0 0 0 0 0 0 0 0 0
      0 0 0 0 0 0 0 0 0 0 0 0 0 0 0 0 0 0 0 0 0 0 0 0 0 0 0 0 0 0 0 0 0 0 0 0 0 0 0 0 0 0 0 0 0 0 0 0 0 0 0 0 0 0 0 0 0 0 0 0 0 0 0 0 0 0 0 0 0 0 0 0 0 0 0 0 0 0 0 0 0 0 0 0 0 0 0 0 0 0 0 0 0 0 0 0 0 0 0 0 0 0 0 0 0 0 0 0 0 0 0 0 0 0 0 0 0 0 0 0 0 0 0 0 3461 0 0 0 0 0 0 2020 2020 2020 2020 2020 2020 2020 2020 2020 2020 2020 2020 2020 2020 2020 2020 2020 2020 2020 2020 2020 2020 2020 2020 2020 2020 2020 2020 0 0 0 0 0 0 0 0 0 0 0 0 0 0 0 0 0 0 0 0 0 0 0 0 0 0 0
      0 0 0 0 0 0 0 0 0 0 0 0 0 0 0 0 0 0 0 0 0 0 0 0 0 0 0 0 0 0 0 0 0 0 0 0 0 0 0 0 0 0 0 0 0 0 0 0 0 0 0 0 0 0 0 0 0 0 0 0 0 0 0 0 0 0 0 0 0 0 0 0 0 0 0 0 0 0 0 0 0 0 0 0 0 0 0 0 0 0 0 0 0 0 0 0 0 0 0 0 0 0 0 0 0 0 0 0 0 0 0 0 0 0 0 0 0 0 0 0 0 0 0 0 3461 0 0 0 0 0 0 2020 2020 2020 2020 2020 2020 2020 2020 2020 2020 2020 2020 2020 2020 2020 2020 2020 2020 2020 2020 2020 2020 2020 2020 2020 2020 2020 2020 0 0 0 0 0 0 0 0 0 0 0 0 0 0 0 0 0 0 0 0 0 0 0 0 0 0 0
      0 0 0 0 0 0 0 0 0 0 0 0 0 0 0 0 0 0 0 0 0 0 0 0 0 0 0 0 0 0 0 0 0 0 0 0 0 0 0 0 0 0 0 0 0 0 0 0 0 0 0 0 0 0 0 0 0 0 0 0 0 0 0 0 0 0 0 0 0 0 0 0 0 0 0 0 0 0 0 0 0 0 0 0 0 0 0 0 0 0 0 0 0 0 0 0 0 0 0 0 0 0 0 0 0 0 0 0 0 0 0 0 0 0 0 0 0 0 0 0 0 0 0 0 3461 0 0 0 0 0 0 0 0 0 0 0 0 0 0 0 0 0 0 0 0 0 0 0 0 0 0 0 0 0 0 0 0 0 0 0 0 0 0 0 0 0 0 0 0 0 0 0 0 0 0 0 0 0 0 0 0 0 0 0 0 0
      0 0 0 0 0 0 0 0 0 0 0 0 0 0 0 0 0 0 0 0 0 0 0 0 0 0 0 0 0 0 0 0 0 0 0 0 0 0 0 0 0 0 0 0 0 0 0 0 0 0 0 0 0 0 0 0 0 0 0 0 0 0 0 0 0 0 0 0 0 0 0 0 0 0 0 0 0 0 0 0 0 0 0 0 0 0 0 0 0 0 0 0 0 0 0 0 0 0 0 0 0 0 0 0 0 0 0 0 0 0 0 0 0 0 0 0 0 0 0 0 0 0 0 0 0 0 0 0 0 0 0 0 0 0 0 0 0 0 0 0 0 0 0 0 0 0 0 0 0 0 0 0 0 0 0 0 0 0 0 0 0 0 0 0 0 0 0 0 0 0 0 0 0 0 0 0 0 0 0 0 0 0 0 0 0 0
      0 0 0 0 0 0 0 0 0 0 0 0 0 0 0 0 0 0 0 0 0 0 0 0 0 0 0 0 0 0 0 0 0 0 0 0 0 0 0 0 0 0 0 0 0 0 0 0 0 0 0 0 0 0 0 0 0 0 0 0 0 0 0 0 0 0 0 0 0 0 0 0 0 0 0 0 0 0 0 0 0 0 0 0 0 0 0 0 0 0 0 0 0 0 0 0 0 0 0 0 0 0 0 0 0 0 0 0 0 0 0 0 0 0 0 0 0 0 0 0 0 0 0 0 0 0 0 0 0 0 0 0 0 0 0 0 0 0 0 0 0 0 0 0 0 0 0 0 0 0 0 0 0 0 0 0 0 0 0 0 0 0 0 0 0 0 0 0 0 0 0 0 0 0 0 0 0 0 0 0 0 0 0 0 0 0
      0 0 0 0 0 0 0 0 0 0 0 0 0 0 0 0 0 0 0 0 0 0 0 0 0 0 0 0 0 0 0 0 0 0 0 0 0 0 0 0 0 0 0 0 0 0 0 0 0 0 0 0 0 0 0 0 0 0 0 0 0 0 0 0 0 0 0 0 0 0 0 0 0 0 0 0 0 0 0 0 0 0 0 0 0 0 0 0 0 0 0 0 0 0 0 0 0 0 0 0 0 0 0 0 0 0 0 0 0 0 0 0 0 0 0 0 0 0 0 0 0 0 0 0 0 0 0 0 0 0 0 0 0 0 0 0 0 0 0 0 0 0 0 0 0 0 0 0 0 0 0 0 0 0 0 0 0 0 0 0 0 0 0 0 0 0 0 0 0 0 0 0 0 0 0 0 0 0 0 0 0 0 0 0 0 0
      0 0 0 0 0 0 0 0 0 0 0 0 0 0 0 0 0 0 0 0 0 0 0 0 0 0 0 0 0 0 0 0 0 0 0 0 0 0 0 0 0 0 0 0 0 0 0 0 0 0 0 0 0 0 0 0 0 0 0 0 0 0 0 0 0 0 0 0 0 0 0 0 0 0 0 0 0 0 0 0 0 0 0 0 0 0 0 0 0 0 0 0 0 0 0 0 0 0 0 0 0 0 0 0 0 0 0 0 0 0 0 0 0 0 0 0 0 0 0 0 0 0 0 0 0 0 0 0 0 0 0 0 0 0 0 0 0 0 0 0 0 0 0 0 0 0 0 0 0 0 0 0 0 0 0 0 0 0 0 0 0 0 0 0 0 0 0 0 0 0 0 0 0 0 0 0 0 0 0 0 0 0 0 0 0 0
      )
    )
    (tilemap
      (solid #f)
      (tint 0.3 0.225 0.3)
      (z-pos 95)
      (name "fgpipe")
      (width 186)
      (height 25)
      (tiles
      0 0 0 0 0 0 0 0 0 0 0 0 0 0 0 0 0 0 0 0 0 0 0 0 0 0 0 0 0 0 0 0 0 0 0 0 0 0 0 0 0 0 0 0 0 0 0 0 0 0 0 0 0 0 0 0 0 0 0 0 0 0 0 0 0 0 0 0 0 0 0 0 0 0 0 0 0 0 0 0 0 0 0 0 0 0 0 0 0 0 0 0 0 0 0 0 0 0 0 0 0 0 0 0 0 0 0 0 0 0 0 0 0 0 0 0 0 0 0 0 0 0 0 0 0 0 0 0 0 0 0 0 0 0 0 0 0 0 0 0 0 0 0 0 0 0 0 0 0 0 0 0 0 0 0 0 0 0 0 0 0 0 0 0 0 0 0 0 0 0 0 0 0 0 0 0 0 0 0 0 0 0 0 0 0 0
      0 0 0 0 0 0 0 0 0 0 0 0 0 0 0 0 0 0 0 0 0 0 0 0 0 0 0 0 0 0 0 0 0 0 0 0 0 0 0 0 0 0 0 0 0 0 0 0 0 0 0 0 0 0 0 0 0 0 0 0 0 0 0 0 0 0 0 0 0 0 0 0 0 0 0 0 0 0 0 0 0 0 0 0 0 0 0 0 0 0 0 0 0 0 0 0 0 0 0 0 0 0 0 0 0 0 0 0 0 0 0 0 0 0 0 0 0 0 0 0 0 0 0 0 0 0 0 0 0 0 0 0 0 0 0 0 0 0 0 0 0 0 0 0 0 0 0 0 0 0 0 0 0 0 0 0 0 0 0 0 0 0 0 0 0 0 0 0 0 0 0 0 0 0 0 0 0 0 0 0 0 0 0 0 0 0
      0 0 0 0 0 0 0 0 0 0 0 0 0 0 0 0 0 0 0 0 0 0 0 0 0 0 0 0 0 0 0 0 0 0 0 0 0 0 0 0 0 0 0 0 0 0 0 0 0 0 0 0 0 0 0 0 0 0 0 0 0 0 0 0 0 0 0 0 0 0 0 0 0 0 0 0 0 0 0 0 0 0 0 0 0 0 0 0 0 0 0 0 0 0 0 0 0 0 0 0 0 0 0 0 0 0 0 0 0 0 0 0 0 0 0 0 0 0 0 0 0 0 0 0 0 0 0 0 0 0 0 0 0 0 0 0 0 0 0 0 0 0 0 0 0 0 0 0 0 0 0 0 0 0 0 0 0 0 0 0 0 0 0 0 0 0 0 0 0 0 0 0 0 0 0 0 0 0 0 0 0 0 0 0 0 0
      0 0 0 0 0 0 0 0 0 0 0 0 0 0 0 0 0 0 0 0 0 0 0 0 0 0 0 0 0 0 0 0 0 0 0 0 0 0 0 0 0 0 0 0 0 0 0 0 0 0 0 0 0 0 0 0 0 0 0 0 0 0 0 0 0 0 0 0 0 0 0 0 0 0 0 0 0 0 0 0 0 0 0 0 0 0 0 0 0 0 0 0 0 0 0 0 0 0 0 0 0 0 0 0 0 0 0 0 0 0 0 0 0 0 0 0 0 0 0 0 0 0 0 0 0 0 0 0 0 0 0 0 0 0 0 0 0 0 0 0 0 0 0 0 0 0 0 0 0 0 0 0 0 0 0 0 0 0 0 0 0 0 0 0 0 0 0 0 0 0 0 0 0 0 0 0 0 0 0 0 0 0 0 0 0 0
      0 0 0 0 0 0 0 0 0 0 0 0 0 0 0 0 0 0 0 0 0 0 0 0 0 0 0 0 0 0 0 0 0 0 0 0 0 0 0 0 0 0 0 0 0 0 0 0 0 0 0 0 0 0 0 0 0 0 0 0 0 0 0 0 0 0 0 0 0 0 0 0 0 0 0 0 0 0 0 0 0 0 0 0 0 0 0 0 0 0 0 0 0 0 0 0 0 0 0 0 0 0 0 0 0 0 0 0 0 0 0 0 0 0 0 0 0 0 0 0 0 0 0 0 0 0 0 0 0 0 0 0 0 0 0 0 0 0 0 0 0 0 0 0 0 0 0 0 0 0 0 0 0 0 0 0 0 0 0 0 0 0 0 0 0 0 0 0 0 0 0 0 0 0 0 0 0 0 0 0 0 0 0 0 0 0
      0 0 0 0 0 0 0 0 0 0 0 0 0 0 0 0 0 0 0 0 0 0 0 0 0 0 0 0 0 0 0 0 0 0 0 0 0 0 0 0 0 0 0 0 0 0 0 0 0 0 0 0 0 0 0 0 0 0 0 0 0 0 0 0 0 0 0 0 0 0 0 0 0 0 0 0 0 0 0 0 0 0 0 0 0 0 0 0 0 0 0 0 0 0 0 0 0 0 0 0 0 0 0 0 0 0 0 0 0 0 0 0 0 0 0 0 0 0 0 0 0 0 0 0 0 0 0 0 0 0 0 0 0 0 0 0 0 0 0 0 0 0 0 0 0 0 0 0 0 0 0 0 0 0 0 0 0 0 0 0 0 0 0 0 0 0 0 0 0 0 0 0 0 0 0 0 0 0 0 0 0 0 0 0 0 0
      0 0 0 0 0 0 0 0 0 0 0 0 0 0 0 0 0 0 0 0 0 0 0 0 0 0 0 0 0 0 0 0 0 0 0 0 0 0 0 0 0 0 0 0 0 0 0 0 0 0 0 0 0 0 0 0 0 0 0 0 0 0 0 0 0 0 0 0 0 0 0 0 0 0 0 0 0 0 0 0 0 0 0 0 0 0 0 0 0 0 0 0 0 0 0 0 0 0 0 0 0 0 0 0 0 0 0 0 0 0 0 0 0 0 0 0 0 0 0 0 0 0 0 0 0 0 0 0 0 0 0 0 0 0 0 0 0 0 0 0 0 0 0 0 0 0 0 0 0 0 0 0 0 0 0 0 0 0 0 0 0 0 0 0 0 0 0 0 0 0 0 55 55 55 55 55 55 55 55 55 55 55 55 0 0 0
      0 0 0 0 0 0 0 0 0 0 0 0 0 0 0 0 0 0 0 0 0 0 0 0 0 0 0 0 0 0 0 0 0 0 0 0 0 0 0 0 0 0 0 0 0 0 0 0 0 0 0 0 0 0 0 0 0 0 0 0 0 0 0 0 0 0 0 0 0 0 0 0 0 0 0 0 0 0 0 0 0 0 0 0 0 0 0 0 0 0 0 0 0 0 0 0 0 0 0 0 0 0 0 0 0 0 0 0 0 0 0 0 0 0 0 0 0 0 0 0 0 0 0 0 0 0 0 0 0 0 0 0 0 0 0 0 0 0 0 0 0 0 0 0 0 0 0 0 0 0 0 0 0 0 0 0 0 0 0 0 0 0 0 0 0 0 0 0 0 0 0 56 56 56 56 56 56 56 56 56 56 56 56 0 0 0
      0 0 0 0 0 0 0 0 0 0 0 0 0 0 0 0 0 0 0 0 0 0 0 0 0 0 0 0 0 0 0 0 0 0 0 0 0 0 0 0 0 0 0 0 0 0 0 0 0 0 0 0 0 0 0 0 0 0 0 0 0 0 0 0 0 0 0 0 0 0 0 0 0 0 0 0 0 0 0 0 0 0 0 0 0 0 0 0 0 0 0 0 0 0 0 0 0 0 0 0 0 0 0 0 0 0 0 0 0 0 0 0 0 0 0 0 0 0 0 0 0 0 0 0 0 0 0 0 0 0 0 0 0 0 0 0 0 0 0 0 0 0 0 0 0 0 0 0 0 0 0 0 0 0 0 0 0 0 0 0 0 0 0 0 0 0 0 0 0 59 60 0 0 0 0 0 0 0 0 0 0 0 0 0 0 0
      0 0 0 0 0 0 0 0 0 0 0 0 0 0 0 0 0 0 0 0 0 0 0 0 0 0 0 0 0 0 0 0 0 0 0 0 0 0 0 0 0 0 0 0 0 0 0 0 0 0 0 0 0 0 0 0 0 0 0 0 0 0 0 0 0 0 0 0 0 0 0 0 0 0 0 0 0 0 0 0 0 0 0 0 0 0 0 0 0 0 0 0 0 0 0 0 0 0 0 0 0 0 0 0 0 0 0 0 0 0 0 0 0 0 0 0 0 0 0 0 0 0 0 0 0 0 0 0 0 0 0 0 0 0 0 0 0 0 0 0 0 0 0 0 0 0 0 0 0 0 0 0 0 0 0 0 0 0 0 0 0 0 0 0 0 0 0 0 0 59 60 0 0 0 0 0 0 0 0 0 0 0 0 0 0 0
      0 0 0 0 0 0 0 0 0 0 0 0 0 0 0 0 0 0 0 0 0 0 0 0 0 0 0 0 0 0 0 0 0 0 0 0 0 0 0 0 0 0 0 0 0 0 0 0 0 0 0 0 0 0 0 0 0 0 0 0 0 0 0 0 0 0 0 0 0 0 0 0 0 0 0 0 0 0 0 0 0 0 0 0 0 0 0 0 0 0 0 0 0 0 0 0 0 0 0 0 0 0 0 0 0 0 0 0 0 0 0 0 0 0 0 0 0 0 0 0 0 0 0 0 0 0 0 0 0 0 0 0 0 0 0 0 0 0 0 0 0 0 0 0 0 0 0 0 0 0 0 0 0 0 0 0 0 0 0 0 0 0 0 0 0 53 55 55 55 0 0 0 0 0 0 0 0 0 0 0 0 0 0 0 0 0
      0 0 0 0 0 0 0 0 0 0 0 0 0 0 0 0 0 0 0 0 0 0 0 0 0 0 0 0 0 0 0 0 0 0 0 0 0 0 0 0 0 0 0 0 0 0 0 0 0 0 0 0 0 0 0 0 0 0 0 0 0 0 0 0 0 0 0 0 0 0 0 0 0 0 0 0 0 0 0 0 0 0 0 0 0 0 0 0 0 0 0 0 0 0 0 0 0 0 0 0 0 0 0 0 0 0 0 0 0 0 0 0 0 0 0 0 0 0 0 0 0 0 0 0 0 0 0 0 0 0 0 0 0 0 0 0 0 0 0 0 0 0 0 0 0 0 0 0 0 0 0 0 0 0 0 0 0 0 0 0 0 0 0 0 0 54 56 56 56 0 0 0 0 0 0 0 0 0 0 0 0 0 0 0 0 0
      0 0 0 0 0 0 0 0 0 0 0 0 0 0 0 0 0 0 0 0 0 0 0 0 0 0 0 0 0 0 0 0 0 0 0 0 0 0 0 0 0 0 0 0 0 0 0 0 0 0 0 0 0 0 0 0 0 0 0 0 0 0 0 0 0 0 0 0 0 0 0 0 0 0 0 0 0 0 0 0 0 0 0 0 0 0 0 0 0 0 0 0 0 0 0 0 0 0 0 0 0 0 0 0 0 0 0 0 0 0 0 0 0 0 0 0 0 0 0 0 0 0 0 0 0 0 0 0 0 0 0 0 0 0 0 0 0 0 0 0 0 0 0 0 0 0 0 0 0 0 0 0 0 0 0 0 0 0 0 0 0 0 0 0 0 0 0 0 0 0 0 0 0 0 0 0 0 0 0 0 0 0 0 0 0 0
      0 0 0 0 0 0 0 0 0 0 0 0 0 0 0 0 0 0 0 0 0 0 0 0 0 0 0 0 0 0 0 0 0 0 0 0 0 0 0 0 0 0 0 0 0 0 0 0 0 0 0 0 0 0 0 0 0 0 0 0 0 0 0 0 0 0 0 0 0 0 0 0 0 0 0 0 0 0 0 0 0 0 0 0 0 0 0 0 0 0 0 0 0 0 0 0 0 0 0 0 0 0 0 0 0 0 0 0 0 0 0 0 0 0 0 0 0 0 0 0 0 0 0 0 0 0 0 0 0 0 0 0 0 0 0 0 0 0 0 0 0 0 0 0 0 0 0 0 0 0 0 0 0 0 0 0 0 0 0 0 0 0 0 0 0 0 0 0 0 0 0 0 0 0 0 0 0 0 0 0 0 0 0 0 0 0
      0 0 0 0 0 0 0 0 0 0 0 0 0 0 0 0 0 0 0 0 0 0 0 0 0 0 0 0 0 0 0 0 0 0 0 0 0 0 0 0 0 0 0 0 0 0 0 0 0 0 0 0 0 0 0 0 0 0 0 0 0 0 0 0 0 0 0 0 0 0 0 0 0 0 0 0 0 0 0 0 0 0 0 0 0 0 0 0 0 0 0 0 0 0 0 0 0 0 0 0 0 0 0 0 0 0 0 0 0 0 0 0 0 0 0 0 0 0 0 0 0 0 0 0 0 0 0 0 0 0 0 0 0 0 0 0 0 0 0 0 0 0 0 0 0 0 0 0 0 0 0 0 0 0 0 0 0 0 0 0 0 0 0 0 0 0 0 0 0 0 0 0 0 0 0 0 0 0 0 0 0 0 0 0 0 0
      0 0 0 0 0 0 0 0 0 0 0 0 0 0 0 0 0 0 0 0 0 0 0 0 0 0 0 0 0 0 0 0 0 0 0 0 0 0 0 0 0 0 0 0 0 0 0 0 0 0 0 0 0 0 0 0 0 0 0 0 0 0 0 0 0 0 0 0 0 0 0 0 0 0 0 0 0 0 0 0 0 0 0 0 0 0 0 0 0 0 0 0 0 0 0 0 0 0 0 0 0 0 0 0 0 0 0 0 0 0 0 0 0 0 0 0 0 0 0 0 0 0 0 0 0 0 0 0 0 0 0 0 0 0 0 0 0 0 0 0 0 0 0 0 0 0 0 0 0 0 0 0 0 0 0 0 0 0 0 0 0 0 0 0 0 0 0 0 0 0 0 0 0 0 0 0 0 0 0 0 0 0 0 0 0 0
      0 0 0 0 0 0 0 0 0 0 0 0 0 0 0 0 0 0 0 0 0 0 0 0 0 0 0 0 0 0 0 0 0 0 0 0 0 0 0 0 0 0 0 0 0 0 0 0 0 0 0 0 0 0 0 0 0 0 0 0 0 0 0 0 0 0 0 0 0 0 0 0 0 0 0 0 0 0 0 0 0 0 0 0 0 0 0 0 0 0 0 0 0 0 0 0 0 0 0 0 0 0 0 0 0 0 0 0 0 0 0 0 0 0 0 0 0 0 0 0 0 0 0 0 0 0 0 0 0 0 0 0 0 0 0 0 0 0 0 0 0 0 0 0 0 0 0 0 0 0 0 0 0 0 0 0 0 0 0 0 0 0 0 0 0 0 0 0 0 0 0 0 0 0 0 0 0 0 0 0 0 0 0 0 0 0
      0 0 0 0 0 0 0 0 0 0 0 0 0 0 0 0 0 0 0 0 0 0 0 0 0 0 0 0 0 0 0 0 0 0 0 0 0 0 0 0 0 0 0 0 0 0 0 0 0 0 0 0 0 0 0 0 0 0 0 0 0 0 0 0 0 0 0 0 0 0 0 0 0 0 0 0 0 0 0 0 0 0 0 0 0 0 0 0 0 0 0 0 0 0 0 0 0 0 0 0 0 0 0 0 0 0 0 0 0 0 0 0 0 0 0 0 0 0 0 0 0 0 0 0 0 0 0 0 0 0 0 0 0 0 0 0 0 0 0 0 0 0 0 0 0 0 0 0 0 0 0 0 0 0 0 0 0 0 0 0 0 0 0 0 0 0 0 0 0 0 0 0 0 0 0 0 0 0 0 0 0 0 0 0 0 0
      0 0 0 0 0 0 0 0 0 0 0 0 0 0 0 0 0 0 0 0 0 0 0 0 0 0 0 0 0 0 0 0 0 0 0 0 0 0 0 0 0 0 0 0 0 0 0 0 0 0 0 0 0 0 0 0 0 0 0 0 0 0 0 0 0 0 0 0 0 0 0 0 0 0 0 0 0 0 0 0 0 0 0 0 0 0 0 0 0 0 0 0 0 0 0 0 0 0 0 0 0 0 0 0 0 0 0 0 0 0 0 0 0 0 0 0 0 0 0 0 0 0 0 0 0 0 0 0 0 0 0 0 0 0 0 0 0 0 0 0 0 0 0 0 0 0 0 0 0 0 0 0 0 0 0 0 0 0 0 0 0 0 0 0 0 0 0 0 0 0 0 0 0 0 0 0 0 0 0 0 0 0 0 0 0 0
      0 0 0 0 0 0 0 0 0 0 0 0 0 0 0 0 0 0 0 0 0 0 0 0 0 0 0 0 0 0 0 0 0 0 0 0 0 0 0 0 0 0 0 0 0 0 0 0 0 0 0 0 0 0 0 0 0 0 0 0 0 0 0 0 0 0 0 0 0 0 0 0 0 0 0 0 0 0 0 0 0 0 0 0 0 0 0 0 0 0 0 0 0 0 0 0 0 0 0 0 0 0 0 0 0 0 0 0 0 0 0 0 0 0 0 0 0 0 0 0 0 0 0 0 0 0 0 0 0 0 0 0 0 0 0 0 0 0 0 0 0 0 0 0 0 0 0 0 0 0 0 0 0 0 0 0 0 0 0 0 0 0 0 0 0 0 0 0 0 0 0 0 0 0 0 0 0 0 0 0 0 0 0 0 0 0
      0 0 0 0 0 0 0 0 0 0 0 0 0 0 0 0 0 0 0 0 0 0 0 0 0 0 0 0 0 0 0 0 0 0 0 0 0 0 0 0 0 0 0 0 0 0 0 0 0 0 0 0 0 0 0 0 0 0 0 0 0 0 0 0 0 0 0 0 0 0 0 0 0 0 0 0 0 0 0 0 0 0 0 0 0 0 0 0 0 0 0 0 0 0 0 0 0 0 0 0 0 0 0 0 0 0 0 0 0 0 0 0 0 0 0 0 0 0 0 0 0 0 0 0 0 0 0 0 0 0 0 0 0 0 0 0 0 0 0 0 0 0 0 0 0 0 0 0 0 0 0 0 0 0 0 0 0 0 0 0 0 0 0 0 0 0 0 0 0 0 0 0 0 0 0 0 0 0 0 0 0 0 0 0 0 0
      0 0 0 0 0 0 0 0 0 0 0 0 0 0 0 0 0 0 0 0 0 0 0 0 0 0 0 0 0 0 0 0 0 0 0 0 0 0 0 0 0 0 0 0 0 0 0 0 0 0 0 0 0 0 0 0 0 0 0 0 0 0 0 0 0 0 0 0 0 0 0 0 0 0 0 0 0 0 0 0 0 0 0 0 0 0 0 0 0 0 0 0 0 0 0 0 0 0 0 0 0 0 0 0 0 0 0 0 0 0 0 0 0 0 0 0 0 0 0 0 0 0 0 0 0 0 0 0 0 0 0 0 0 0 0 0 0 0 0 0 0 0 0 0 0 0 0 0 0 0 0 0 0 0 0 0 0 0 0 0 0 0 0 0 0 0 0 0 0 0 0 0 0 0 0 0 0 0 0 0 0 0 0 0 0 0
      0 0 0 0 0 0 0 0 0 0 0 0 0 0 0 0 0 0 0 0 0 0 0 0 0 0 0 0 0 0 0 0 0 0 0 0 0 0 0 0 0 0 0 0 0 0 0 0 0 0 0 0 0 0 0 0 0 0 0 0 0 0 0 0 0 0 0 0 0 0 0 0 0 0 0 0 0 0 0 0 0 0 0 0 0 0 0 0 0 0 0 0 0 0 0 0 0 0 0 0 0 0 0 0 0 0 0 0 0 0 0 0 0 0 0 0 0 0 0 0 0 0 0 0 0 0 0 0 0 0 0 0 0 0 0 0 0 0 0 0 0 0 0 0 0 0 0 0 0 0 0 0 0 0 0 0 0 0 0 0 0 0 0 0 0 0 0 0 0 0 0 0 0 0 0 0 0 0 0 0 0 0 0 0 0 0
      0 0 0 0 0 0 0 0 0 0 0 0 0 0 0 0 0 0 0 0 0 0 0 0 0 0 0 0 0 0 0 0 0 0 0 0 0 0 0 0 0 0 0 0 0 0 0 0 0 0 0 0 0 0 0 0 0 0 0 0 0 0 0 0 0 0 0 0 0 0 0 0 0 0 0 0 0 0 0 0 0 0 0 0 0 0 0 0 0 0 0 0 0 0 0 0 0 0 0 0 0 0 0 0 0 0 0 0 0 0 0 0 0 0 0 0 0 0 0 0 0 0 0 0 0 0 0 0 0 0 0 0 0 0 0 0 0 0 0 0 0 0 0 0 0 0 0 0 0 0 0 0 0 0 0 0 0 0 0 0 0 0 0 0 0 0 0 0 0 0 0 0 0 0 0 0 0 0 0 0 0 0 0 0 0 0
      0 0 0 0 0 0 0 0 0 0 0 0 0 0 0 0 0 0 0 0 0 0 0 0 0 0 0 0 0 0 0 0 0 0 0 0 0 0 0 0 0 0 0 0 0 0 0 0 0 0 0 0 0 0 0 0 0 0 0 0 0 0 0 0 0 0 0 0 0 0 0 0 0 0 0 0 0 0 0 0 0 0 0 0 0 0 0 0 0 0 0 0 0 0 0 0 0 0 0 0 0 0 0 0 0 0 0 0 0 0 0 0 0 0 0 0 0 0 0 0 0 0 0 0 0 0 0 0 0 0 0 0 0 0 0 0 0 0 0 0 0 0 0 0 0 0 0 0 0 0 0 0 0 0 0 0 0 0 0 0 0 0 0 0 0 0 0 0 0 0 0 0 0 0 0 0 0 0 0 0 0 0 0 0 0 0
      )
    )
    (tilemap
      (solid #f)
      (alpha 0.5)
      (z-pos -150)
      (name "black")
      (width 186)
      (height 25)
      (tiles
      2035 2035 2035 2035 2035 2035 2035 2035 2035 2035 2035 2035 2035 2035 2035 2035 2035 2035 2035 2035 2035 2035 2035 2035 2035 2035 2035 2035 2035 2035 2035 2035 2035 2035 2035 2035 2035 2035 2035 2035 2035 2035 2035 2035 2035 2035 2035 2035 2035 2035 2035 2035 2035 2035 2035 2035 2035 2035 2035 2035 2035 2035 2035 2035 2035 2035 2035 2035 2035 2035 2035 2035 2035 2035 2035 2035 2035 2035 2035 2035 2035 2035 2035 2035 2035 2035 2035 2035 2035 2035 2035 2035 2035 2035 2035 2035 2035 2035 2035 2035 2035 2035 2035 2035 2035 2035 2035 2035 2035 2035 2035 2035 2035 2035 2035 2035 2035 2035 2035 2035 2035 2035 2035 2035 2035 2035 2035 2035 2035 2035 2035 2035 2035 2035 2035 2035 2035 2035 2035 2035 2035 2035 2035 2035 2035 2035 2035 2035 2035 2035 2035 2035 2035 2035 2035 2035 2035 2035 2035 2035 2035 2035 2035 2035 2035 2035 2035 2035 2035 2035 2035 2035 2035 2035 2035 2035 2035 2035 2035 2035 2035 2035 2035 2035 2035 2035
      2035 2035 2035 2035 2035 2035 2035 2035 2035 2035 2035 2035 2035 2035 2035 2035 2035 2035 2035 2035 2035 2035 2035 2035 2035 2035 2035 2035 2035 2035 2035 2035 2035 2035 2035 2035 2035 2035 2035 2035 2035 2035 2035 2035 2035 2035 2035 2035 2035 2035 2035 2035 2035 2035 2035 2035 2035 2035 2035 2035 2035 2035 2035 2035 2035 2035 2035 2035 2035 2035 2035 2035 2035 2035 2035 2035 2035 2035 2035 2035 2035 2035 2035 2035 2035 2035 2035 2035 2035 2035 2035 2035 2035 2035 2035 2035 2035 2035 2035 2035 2035 2035 2035 2035 2035 2035 2035 2035 2035 2035 2035 2035 2035 2035 2035 2035 2035 2035 2035 2035 2035 2035 2035 2035 2035 2035 2035 2035 2035 2035 2035 2035 2035 2035 2035 2035 2035 2035 2035 2035 2035 2035 2035 2035 2035 2035 2035 2035 2035 2035 2035 2035 2035 2035 2035 2035 2035 2035 2035 2035 2035 2035 2035 2035 2035 2035 2035 2035 2035 2035 2035 2035 2035 2035 2035 2035 2035 2035 2035 2035 2035 2035 2035 2035 2035 2035
      2035 2035 2035 2035 2035 2035 2035 2035 2035 2035 2035 2035 2035 2035 2035 2035 2035 2035 2035 2035 2035 2035 2035 2035 2035 2035 2035 2035 2035 2035 2035 2035 2035 2035 2035 2035 2035 2035 2035 2035 2035 2035 2035 2035 2035 2035 2035 2035 2035 2035 2035 2035 2035 2035 2035 2035 2035 2035 2035 2035 2035 2035 2035 2035 2035 2035 2035 2035 2035 2035 2035 2035 2035 2035 2035 2035 2035 2035 2035 2035 2035 2035 2035 2035 2035 2035 2035 2035 2035 2035 2035 2035 2035 2035 2035 2035 2035 2035 2035 2035 2035 2035 2035 2035 2035 2035 2035 2035 2035 2035 2035 2035 2035 2035 2035 2035 2035 2035 2035 2035 2035 2035 2035 2035 2035 2035 2035 2035 2035 2035 2035 2035 2035 2035 2035 2035 2035 2035 2035 2035 2035 2035 2035 2035 2035 2035 2035 2035 2035 2035 2035 2035 2035 2035 2035 2035 2035 2035 2035 2035 2035 2035 2035 2035 2035 2035 2035 2035 2035 2035 2035 2035 2035 2035 2035 2035 2035 2035 2035 2035 2035 2035 2035 2035 2035 2035
      2035 2035 2035 2035 2035 2035 2035 2035 2035 2035 2035 2035 2035 2035 2035 2035 2035 2035 2035 2035 2035 2035 2035 2035 2035 2035 2035 2035 2035 2035 2035 2035 2035 2035 2035 2035 2035 2035 2035 2035 2035 2035 2035 2035 2035 2035 2035 2035 2035 2035 2035 2035 2035 2035 2035 2035 2035 2035 2035 2035 2035 2035 2035 2035 2035 2035 2035 2035 2035 2035 2035 2035 2035 2035 2035 2035 2035 2035 2035 2035 2035 2035 2035 2035 2035 2035 2035 2035 2035 2035 2035 2035 2035 2035 2035 2035 2035 2035 2035 2035 2035 2035 2035 2035 2035 2035 2035 2035 2035 2035 2035 2035 2035 2035 2035 2035 2035 2035 2035 2035 2035 2035 2035 2035 2035 2035 2035 2035 2035 2035 2035 2035 2035 2035 2035 2035 2035 2035 2035 2035 2035 2035 2035 2035 2035 2035 2035 2035 2035 2035 2035 2035 2035 2035 2035 2035 2035 2035 2035 2035 2035 2035 2035 2035 2035 2035 2035 2035 2035 2035 2035 2035 2035 2035 2035 2035 2035 2035 2035 2035 2035 2035 2035 2035 2035 2035
      2035 2035 2035 2035 2035 2035 2035 2035 2035 2035 2035 2035 2035 2035 2035 2035 2035 2035 2035 2035 2035 2035 2035 2035 2035 2035 2035 2035 2035 2035 2035 2035 2035 2035 2035 2035 2035 2035 2035 2035 2035 2035 2035 2035 2035 2035 2035 2035 2035 2035 2035 2035 2035 2035 2035 2035 2035 2035 2035 2035 2035 2035 2035 2035 2035 2035 2035 2035 2035 2035 2035 2035 2035 2035 2035 2035 2035 2035 2035 2035 2035 2035 2035 2035 2035 2035 2035 2035 2035 2035 2035 2035 2035 2035 2035 2035 2035 2035 2035 2035 2035 2035 2035 2035 2035 2035 2035 2035 2035 2035 2035 2035 2035 2035 2035 2035 2035 2035 2035 2035 2035 2035 2035 2035 2035 2035 2035 2035 2035 2035 2035 2035 2035 2035 2035 2035 2035 2035 2035 2035 2035 2035 2035 2035 2035 2035 2035 2035 2035 2035 2035 2035 2035 2035 2035 2035 2035 2035 2035 2035 2035 2035 2035 2035 2035 2035 2035 2035 2035 2035 2035 2035 2035 2035 2035 2035 2035 2035 2035 2035 2035 2035 2035 2035 2035 2035
      2035 2035 2035 2035 2035 2035 2035 2035 2035 2035 2035 2035 2035 2035 2035 2035 2035 2035 2035 2035 2035 2035 2035 2035 2035 2035 2035 2035 2035 2035 2035 2035 2035 2035 2035 2035 2035 2035 2035 2035 2035 2035 2035 2035 2035 2035 2035 2035 2035 2035 2035 2035 2035 2035 2035 2035 2035 2035 2035 2035 2035 2035 2035 2035 2035 2035 2035 2035 2035 2035 2035 2035 2035 2035 2035 2035 2035 2035 2035 2035 2035 2035 2035 2035 2035 2035 2035 2035 2035 2035 2035 2035 2035 2035 2035 2035 2035 2035 2035 2035 2035 2035 2035 2035 2035 2035 2035 2035 2035 2035 2035 2035 2035 2035 2035 2035 2035 2035 2035 2035 2035 2035 2035 2035 2035 2035 2035 2035 2035 2035 2035 2035 2035 2035 2035 2035 2035 2035 2035 2035 2035 2035 2035 2035 2035 2035 2035 2035 2035 2035 2035 2035 2035 2035 2035 2035 2035 2035 2035 2035 2035 2035 2035 2035 2035 2035 2035 2035 2035 2035 2035 2035 2035 2035 2035 2035 2035 2035 2035 2035 2035 2035 2035 2035 2035 2035
      2035 2035 2035 2035 2035 2035 2035 2035 2035 2035 2035 2035 2035 2035 2035 2035 2035 2035 2035 2035 2035 2035 2035 2035 2035 2035 2035 2035 2035 2035 2035 2035 2035 2035 2035 2035 2035 2035 2035 2035 2035 2035 2035 2035 2035 2035 2035 2035 2035 2035 2035 2035 2035 2035 2035 2035 2035 2035 2035 2035 2035 2035 2035 2035 2035 2035 2035 2035 2035 2035 2035 2035 2035 2035 2035 2035 2035 2035 2035 2035 2035 2035 2035 2035 2035 2035 2035 2035 2035 2035 2035 2035 2035 2035 2035 2035 2035 2035 2035 2035 2035 2035 2035 2035 2035 2035 2035 2035 2035 2035 2035 2035 2035 2035 2035 2035 2035 2035 2035 2035 2035 2035 2035 2035 2035 2035 2035 2035 2035 2035 2035 2035 2035 2035 2035 2035 2035 2035 2035 2035 2035 2035 2035 2035 2035 2035 2035 2035 2035 2035 2035 2035 2035 2035 2035 2035 2035 2035 2035 2035 2035 2035 2035 2035 2035 2035 2035 2035 2035 2035 2035 2035 2035 2035 2035 2035 2035 2035 2035 2035 2035 2035 2035 2035 2035 2035
      2035 2035 2035 2035 2035 2035 2035 2035 2035 2035 2035 2035 2035 2035 2035 2035 2035 2035 2035 2035 2035 2035 2035 2035 2035 2035 2035 2035 2035 2035 2035 2035 2035 2035 2035 2035 2035 2035 2035 2035 2035 2035 2035 2035 2035 2035 2035 2035 2035 2035 2035 2035 2035 2035 2035 2035 2035 2035 2035 2035 2035 2035 2035 2035 2035 2035 2035 2035 2035 2035 2035 2035 2035 2035 2035 2035 2035 2035 2035 2035 2035 2035 2035 2035 2035 2035 2035 2035 2035 2035 2035 2035 2035 2035 2035 2035 2035 2035 2035 2035 2035 2035 2035 2035 2035 2035 2035 2035 2035 2035 2035 2035 2035 2035 2035 2035 2035 2035 2035 2035 2035 2035 2035 2035 2035 2035 2035 2035 2035 2035 2035 2035 2035 2035 2035 2035 2035 2035 2035 2035 2035 2035 2035 2035 2035 2035 2035 2035 2035 2035 2035 2035 2035 2035 2035 2035 2035 2035 2035 2035 2035 2035 2035 2035 2035 2035 2035 2035 2035 2035 2035 2035 2035 2035 2035 2035 2035 2035 2035 2035 2035 2035 2035 2035 2035 2035
      2035 2035 2035 2035 2035 2035 2035 2035 2035 2035 2035 2035 2035 2035 2035 2035 2035 2035 2035 2035 2035 2035 2035 2035 2035 2035 2035 2035 2035 2035 2035 2035 2035 2035 2035 2035 2035 2035 2035 2035 2035 2035 2035 2035 2035 2035 2035 2035 2035 2035 2035 2035 2035 2035 2035 2035 2035 2035 2035 2035 2035 2035 2035 2035 2035 2035 2035 2035 2035 2035 2035 2035 2035 2035 2035 2035 2035 2035 2035 2035 2035 2035 2035 2035 2035 2035 2035 2035 2035 2035 2035 2035 2035 2035 2035 2035 2035 2035 2035 2035 2035 2035 2035 2035 2035 2035 2035 2035 2035 2035 2035 2035 2035 2035 2035 2035 2035 2035 2035 2035 2035 2035 2035 2035 2035 2035 2035 2035 2035 2035 2035 2035 2035 2035 2035 2035 2035 2035 2035 2035 2035 2035 2035 2035 2035 2035 2035 2035 2035 2035 2035 2035 2035 2035 2035 2035 2035 2035 2035 2035 2035 2035 2035 2035 2035 2035 2035 2035 2035 2035 2035 2035 2035 2035 2035 2035 2035 2035 2035 2035 2035 2035 2035 2035 2035 2035
      2035 2035 2035 2035 2035 2035 2035 2035 2035 2035 2035 2035 2035 2035 2035 2035 2035 2035 2035 2035 2035 2035 2035 2035 2035 2035 2035 2035 2035 2035 2035 2035 2035 2035 2035 2035 2035 2035 2035 2035 2035 2035 2035 2035 2035 2035 2035 2035 2035 2035 2035 2035 2035 2035 2035 2035 2035 2035 2035 2035 2035 2035 2035 2035 2035 2035 2035 2035 2035 2035 2035 2035 2035 2035 2035 2035 2035 2035 2035 2035 2035 2035 2035 2035 2035 2035 2035 2035 2035 2035 2035 2035 2035 2035 2035 2035 2035 2035 2035 2035 2035 2035 2035 2035 2035 2035 2035 2035 2035 2035 2035 2035 2035 2035 2035 2035 2035 2035 2035 2035 2035 2035 2035 2035 2035 2035 2035 2035 2035 2035 2035 2035 2035 2035 2035 2035 2035 2035 2035 2035 2035 2035 2035 2035 2035 2035 2035 2035 2035 2035 2035 2035 2035 2035 2035 2035 2035 2035 2035 2035 2035 2035 2035 2035 2035 2035 2035 2035 2035 2035 2035 2035 2035 2035 2035 2035 2035 2035 2035 2035 2035 2035 2035 2035 2035 2035
      2035 2035 2035 2035 2035 2035 2035 2035 2035 2035 2035 2035 2035 2035 2035 2035 2035 2035 2035 2035 2035 2035 2035 2035 2035 2035 2035 2035 2035 2035 2035 2035 2035 2035 2035 2035 2035 2035 2035 2035 2035 2035 2035 2035 2035 2035 2035 2035 2035 2035 2035 2035 2035 2035 2035 2035 2035 2035 2035 2035 2035 2035 2035 2035 2035 2035 2035 2035 2035 2035 2035 2035 2035 2035 2035 2035 2035 2035 2035 2035 2035 2035 2035 2035 2035 2035 2035 2035 2035 2035 2035 2035 2035 2035 2035 2035 2035 2035 2035 2035 2035 2035 2035 2035 2035 2035 2035 2035 2035 2035 2035 2035 2035 2035 2035 2035 2035 2035 2035 2035 2035 2035 2035 2035 2035 2035 2035 2035 2035 2035 2035 2035 2035 2035 2035 2035 2035 2035 2035 2035 2035 2035 2035 2035 2035 2035 2035 2035 2035 2035 2035 2035 2035 2035 2035 2035 2035 2035 2035 2035 2035 2035 2035 2035 2035 2035 2035 2035 2035 2035 2035 2035 2035 2035 2035 2035 2035 2035 2035 2035 2035 2035 2035 2035 2035 2035
      2035 2035 2035 2035 2035 2035 2035 2035 2035 2035 2035 2035 2035 2035 2035 2035 2035 2035 2035 2035 2035 2035 2035 2035 2035 2035 2035 2035 2035 2035 2035 2035 2035 2035 2035 2035 2035 2035 2035 2035 2035 2035 2035 2035 2035 2035 2035 2035 2035 2035 2035 2035 2035 2035 2035 2035 2035 2035 2035 2035 2035 2035 2035 2035 2035 2035 2035 2035 2035 2035 2035 2035 2035 2035 2035 2035 2035 2035 2035 2035 2035 2035 2035 2035 2035 2035 2035 2035 2035 2035 2035 2035 2035 2035 2035 2035 2035 2035 2035 2035 2035 2035 2035 2035 2035 2035 2035 2035 2035 2035 2035 2035 2035 2035 2035 2035 2035 2035 2035 2035 2035 2035 2035 2035 2035 2035 2035 2035 2035 2035 2035 2035 2035 2035 2035 2035 2035 2035 2035 2035 2035 2035 2035 2035 2035 2035 2035 2035 2035 2035 2035 2035 2035 2035 2035 2035 2035 2035 2035 2035 2035 2035 2035 2035 2035 2035 2035 2035 2035 2035 2035 2035 2035 2035 2035 2035 2035 2035 2035 2035 2035 2035 2035 2035 2035 2035
      2035 2035 2035 2035 2035 2035 2035 2035 2035 2035 2035 2035 2035 2035 2035 2035 2035 2035 2035 2035 2035 2035 2035 2035 2035 2035 2035 2035 2035 2035 2035 2035 2035 2035 2035 2035 2035 2035 2035 2035 2035 2035 2035 2035 2035 2035 2035 2035 2035 2035 2035 2035 2035 2035 2035 2035 2035 2035 2035 2035 2035 2035 2035 2035 2035 2035 2035 2035 2035 2035 2035 2035 2035 2035 2035 2035 2035 2035 2035 2035 2035 2035 2035 2035 2035 2035 2035 2035 2035 2035 2035 2035 2035 2035 2035 2035 2035 2035 2035 2035 2035 2035 2035 2035 2035 2035 2035 2035 2035 2035 2035 2035 2035 2035 2035 2035 2035 2035 2035 2035 2035 2035 2035 2035 2035 2035 2035 2035 2035 2035 2035 2035 2035 2035 2035 2035 2035 2035 2035 2035 2035 2035 2035 2035 2035 2035 2035 2035 2035 2035 2035 2035 2035 2035 2035 2035 2035 2035 2035 2035 2035 2035 2035 2035 2035 2035 2035 2035 2035 2035 2035 2035 2035 2035 2035 2035 2035 2035 2035 2035 2035 2035 2035 2035 2035 2035
      2035 2035 2035 2035 2035 2035 2035 2035 2035 2035 2035 2035 2035 2035 2035 2035 2035 2035 2035 2035 2035 2035 2035 2035 2035 2035 2035 2035 2035 2035 2035 2035 2035 2035 2035 2035 2035 2035 2035 2035 2035 2035 2035 2035 2035 2035 2035 2035 2035 2035 2035 2035 2035 2035 2035 2035 2035 2035 2035 2035 2035 2035 2035 2035 2035 2035 2035 2035 2035 2035 2035 2035 2035 2035 2035 2035 2035 2035 2035 2035 2035 2035 2035 2035 2035 2035 2035 2035 2035 2035 2035 2035 2035 2035 2035 2035 2035 2035 2035 2035 2035 2035 2035 2035 2035 2035 2035 2035 2035 2035 2035 2035 2035 2035 2035 2035 2035 2035 2035 2035 2035 2035 2035 2035 2035 2035 2035 2035 2035 2035 2035 2035 2035 2035 2035 2035 2035 2035 2035 2035 2035 2035 2035 2035 2035 2035 2035 2035 2035 2035 2035 2035 2035 2035 2035 2035 2035 2035 2035 2035 2035 2035 2035 2035 2035 2035 2035 2035 2035 2035 2035 2035 2035 2035 2035 2035 2035 2035 2035 2035 2035 2035 2035 2035 2035 2035
      2035 2035 2035 2035 2035 2035 2035 2035 2035 2035 2035 2035 2035 2035 2035 2035 2035 2035 2035 2035 2035 2035 2035 2035 2035 2035 2035 2035 2035 2035 2035 2035 2035 2035 2035 2035 2035 2035 2035 2035 2035 2035 2035 2035 2035 2035 2035 2035 2035 2035 2035 2035 2035 2035 2035 2035 2035 2035 2035 2035 2035 2035 2035 2035 2035 2035 2035 2035 2035 2035 2035 2035 2035 2035 2035 2035 2035 2035 2035 2035 2035 2035 2035 2035 2035 2035 2035 2035 2035 2035 2035 2035 2035 2035 2035 2035 2035 2035 2035 2035 2035 2035 2035 2035 2035 2035 2035 2035 2035 2035 2035 2035 2035 2035 2035 2035 2035 2035 2035 2035 2035 2035 2035 2035 2035 2035 2035 2035 2035 2035 2035 2035 2035 2035 2035 2035 2035 2035 2035 2035 2035 2035 2035 2035 2035 2035 2035 2035 2035 2035 2035 2035 2035 2035 2035 2035 2035 2035 2035 2035 2035 2035 2035 2035 2035 2035 2035 2035 2035 2035 2035 2035 2035 2035 2035 2035 2035 2035 2035 2035 2035 2035 2035 2035 2035 2035
      2035 2035 2035 2035 2035 2035 2035 2035 2035 2035 2035 2035 2035 2035 2035 2035 2035 2035 2035 2035 2035 2035 2035 2035 2035 2035 2035 2035 2035 2035 2035 2035 2035 2035 2035 2035 2035 2035 2035 2035 2035 2035 2035 2035 2035 2035 2035 2035 2035 2035 2035 2035 2035 2035 2035 2035 2035 2035 2035 2035 2035 2035 2035 2035 2035 2035 2035 2035 2035 2035 2035 2035 2035 2035 2035 2035 2035 2035 2035 2035 2035 2035 2035 2035 2035 2035 2035 2035 2035 2035 2035 2035 2035 2035 2035 2035 2035 2035 2035 2035 2035 2035 2035 2035 2035 2035 2035 2035 2035 2035 2035 2035 2035 2035 2035 2035 2035 2035 2035 2035 2035 2035 2035 2035 2035 2035 2035 2035 2035 2035 2035 2035 2035 2035 2035 2035 2035 2035 2035 2035 2035 2035 2035 2035 2035 2035 2035 2035 2035 2035 2035 2035 2035 2035 2035 2035 2035 2035 2035 2035 2035 2035 2035 2035 2035 2035 2035 2035 2035 2035 2035 2035 2035 2035 2035 2035 2035 2035 2035 2035 2035 2035 2035 2035 2035 2035
      2035 2035 2035 2035 2035 2035 2035 2035 2035 2035 2035 2035 2035 2035 2035 2035 2035 2035 2035 2035 2035 2035 2035 2035 2035 2035 2035 2035 2035 2035 2035 2035 2035 2035 2035 2035 2035 2035 2035 2035 2035 2035 2035 2035 2035 2035 2035 2035 2035 2035 2035 2035 2035 2035 2035 2035 2035 2035 2035 2035 2035 2035 2035 2035 2035 2035 2035 2035 2035 2035 2035 2035 2035 2035 2035 2035 2035 2035 2035 2035 2035 2035 2035 2035 2035 2035 2035 2035 2035 2035 2035 2035 2035 2035 2035 2035 2035 2035 2035 2035 2035 2035 2035 2035 2035 2035 2035 2035 2035 2035 2035 2035 2035 2035 2035 2035 2035 2035 2035 2035 2035 2035 2035 2035 2035 2035 2035 2035 2035 2035 2035 2035 2035 2035 2035 2035 2035 2035 2035 2035 2035 2035 2035 2035 2035 2035 2035 2035 2035 2035 2035 2035 2035 2035 2035 2035 2035 2035 2035 2035 2035 2035 2035 2035 2035 2035 2035 2035 2035 2035 2035 2035 2035 2035 2035 2035 2035 2035 2035 2035 2035 2035 2035 2035 2035 2035
      2035 2035 2035 2035 2035 2035 2035 2035 2035 2035 2035 2035 2035 2035 2035 2035 2035 2035 2035 2035 2035 2035 2035 2035 2035 2035 2035 2035 2035 2035 2035 2035 2035 2035 2035 2035 2035 2035 2035 2035 2035 2035 2035 2035 2035 2035 2035 2035 2035 2035 2035 2035 2035 2035 2035 2035 2035 2035 2035 2035 2035 2035 2035 2035 2035 2035 2035 2035 2035 2035 2035 2035 2035 2035 2035 2035 2035 2035 2035 2035 2035 2035 2035 2035 2035 2035 2035 2035 2035 2035 2035 2035 2035 2035 2035 2035 2035 2035 2035 2035 2035 2035 2035 2035 2035 2035 2035 2035 2035 2035 2035 2035 2035 2035 2035 2035 2035 2035 2035 2035 2035 2035 2035 2035 2035 2035 2035 2035 2035 2035 2035 2035 2035 2035 2035 2035 2035 2035 2035 2035 2035 2035 2035 2035 2035 2035 2035 2035 2035 2035 2035 2035 2035 2035 2035 2035 2035 2035 2035 2035 2035 2035 2035 2035 2035 2035 2035 2035 2035 2035 2035 2035 2035 2035 2035 2035 2035 2035 2035 2035 2035 2035 2035 2035 2035 2035
      2035 2035 2035 2035 2035 2035 2035 2035 2035 2035 2035 2035 2035 2035 2035 2035 2035 2035 2035 2035 2035 2035 2035 2035 2035 2035 2035 2035 2035 2035 2035 2035 2035 2035 2035 2035 2035 2035 2035 2035 2035 2035 2035 2035 2035 2035 2035 2035 2035 2035 2035 2035 2035 2035 2035 2035 2035 2035 2035 2035 2035 2035 2035 2035 2035 2035 2035 2035 2035 2035 2035 2035 2035 2035 2035 2035 2035 2035 2035 2035 2035 2035 2035 2035 2035 2035 2035 2035 2035 2035 2035 2035 2035 2035 2035 2035 2035 2035 2035 2035 2035 2035 2035 2035 2035 2035 2035 2035 2035 2035 2035 2035 2035 2035 2035 2035 2035 2035 2035 2035 2035 2035 2035 2035 2035 2035 2035 2035 2035 2035 2035 2035 2035 2035 2035 2035 2035 2035 2035 2035 2035 2035 2035 2035 2035 2035 2035 2035 2035 2035 2035 2035 2035 2035 2035 2035 2035 2035 2035 2035 2035 2035 2035 2035 2035 2035 2035 2035 2035 2035 2035 2035 2035 2035 2035 2035 2035 2035 2035 2035 2035 2035 2035 2035 2035 2035
      2035 2035 2035 2035 2035 2035 2035 2035 2035 2035 2035 2035 2035 2035 2035 2035 2035 2035 2035 2035 2035 2035 2035 2035 2035 2035 2035 2035 2035 2035 2035 2035 2035 2035 2035 2035 2035 2035 2035 2035 2035 2035 2035 2035 2035 2035 2035 2035 2035 2035 2035 2035 2035 2035 2035 2035 2035 2035 2035 2035 2035 2035 2035 2035 2035 2035 2035 2035 2035 2035 2035 2035 2035 2035 2035 2035 2035 2035 2035 2035 2035 2035 2035 2035 2035 2035 2035 2035 2035 2035 2035 2035 2035 2035 2035 2035 2035 2035 2035 2035 2035 2035 2035 2035 2035 2035 2035 2035 2035 2035 2035 2035 2035 2035 2035 2035 2035 2035 2035 2035 2035 2035 2035 2035 2035 2035 2035 2035 2035 2035 2035 2035 2035 2035 2035 2035 2035 2035 2035 2035 2035 2035 2035 2035 2035 2035 2035 2035 2035 2035 2035 2035 2035 2035 2035 2035 2035 2035 2035 2035 2035 2035 2035 2035 2035 2035 2035 2035 2035 2035 2035 2035 2035 2035 2035 2035 2035 2035 2035 2035 2035 2035 2035 2035 2035 2035
      2035 2035 2035 2035 2035 2035 2035 2035 2035 2035 2035 2035 2035 2035 2035 2035 2035 2035 2035 2035 2035 2035 2035 2035 2035 2035 2035 2035 2035 2035 2035 2035 2035 2035 2035 2035 2035 2035 2035 2035 2035 2035 2035 2035 2035 2035 2035 2035 2035 2035 2035 2035 2035 2035 2035 2035 2035 2035 2035 2035 2035 2035 2035 2035 2035 2035 2035 2035 2035 2035 2035 2035 2035 2035 2035 2035 2035 2035 2035 2035 2035 2035 2035 2035 2035 2035 2035 2035 2035 2035 2035 2035 2035 2035 2035 2035 2035 2035 2035 2035 2035 2035 2035 2035 2035 2035 2035 2035 2035 2035 2035 2035 2035 2035 2035 2035 2035 2035 2035 2035 2035 2035 2035 2035 2035 2035 2035 2035 2035 2035 2035 2035 2035 2035 2035 2035 2035 2035 2035 2035 2035 2035 2035 2035 2035 2035 2035 2035 2035 2035 2035 2035 2035 2035 2035 2035 2035 2035 2035 2035 2035 2035 2035 2035 2035 2035 2035 2035 2035 2035 2035 2035 2035 2035 2035 2035 2035 2035 2035 2035 2035 2035 2035 2035 2035 2035
      2035 2035 2035 2035 2035 2035 2035 2035 2035 2035 2035 2035 2035 2035 2035 2035 2035 2035 2035 2035 2035 2035 2035 2035 2035 2035 2035 2035 2035 2035 2035 2035 2035 2035 2035 2035 2035 2035 2035 2035 2035 2035 2035 2035 2035 2035 2035 2035 2035 2035 2035 2035 2035 2035 2035 2035 2035 2035 2035 2035 2035 2035 2035 2035 2035 2035 2035 2035 2035 2035 2035 2035 2035 2035 2035 2035 2035 2035 2035 2035 2035 2035 2035 2035 2035 2035 2035 2035 2035 2035 2035 2035 2035 2035 2035 2035 2035 2035 2035 2035 2035 2035 2035 2035 2035 2035 2035 2035 2035 2035 2035 2035 2035 2035 2035 2035 2035 2035 2035 2035 2035 2035 2035 2035 2035 2035 2035 2035 2035 2035 2035 2035 2035 2035 2035 2035 2035 2035 2035 2035 2035 2035 2035 2035 2035 2035 2035 2035 2035 2035 2035 2035 2035 2035 2035 2035 2035 2035 2035 2035 2035 2035 2035 2035 2035 2035 2035 2035 2035 2035 2035 2035 2035 2035 2035 2035 2035 2035 2035 2035 2035 2035 2035 2035 2035 2035
      2035 2035 2035 2035 2035 2035 2035 2035 2035 2035 2035 2035 2035 2035 2035 2035 2035 2035 2035 2035 2035 2035 2035 2035 2035 2035 2035 2035 2035 2035 2035 2035 2035 2035 2035 2035 2035 2035 2035 2035 2035 2035 2035 2035 2035 2035 2035 2035 2035 2035 2035 2035 2035 2035 2035 2035 2035 2035 2035 2035 2035 2035 2035 2035 2035 2035 2035 2035 2035 2035 2035 2035 2035 2035 2035 2035 2035 2035 2035 2035 2035 2035 2035 2035 2035 2035 2035 2035 2035 2035 2035 2035 2035 2035 2035 2035 2035 2035 2035 2035 2035 2035 2035 2035 2035 2035 2035 2035 2035 2035 2035 2035 2035 2035 2035 2035 2035 2035 2035 2035 2035 2035 2035 2035 2035 2035 2035 2035 2035 2035 2035 2035 2035 2035 2035 2035 2035 2035 2035 2035 2035 2035 2035 2035 2035 2035 2035 2035 2035 2035 2035 2035 2035 2035 2035 2035 2035 2035 2035 2035 2035 2035 2035 2035 2035 2035 2035 2035 2035 2035 2035 2035 2035 2035 2035 2035 2035 2035 2035 2035 2035 2035 2035 2035 2035 2035
      2035 2035 2035 2035 2035 2035 2035 2035 2035 2035 2035 2035 2035 2035 2035 2035 2035 2035 2035 2035 2035 2035 2035 2035 2035 2035 2035 2035 2035 2035 2035 2035 2035 2035 2035 2035 2035 2035 2035 2035 2035 2035 2035 2035 2035 2035 2035 2035 2035 2035 2035 2035 2035 2035 2035 2035 2035 2035 2035 2035 2035 2035 2035 2035 2035 2035 2035 2035 2035 2035 2035 2035 2035 2035 2035 2035 2035 2035 2035 2035 2035 2035 2035 2035 2035 2035 2035 2035 2035 2035 2035 2035 2035 2035 2035 2035 2035 2035 2035 2035 2035 2035 2035 2035 2035 2035 2035 2035 2035 2035 2035 2035 2035 2035 2035 2035 2035 2035 2035 2035 2035 2035 2035 2035 2035 2035 2035 2035 2035 2035 2035 2035 2035 2035 2035 2035 2035 2035 2035 2035 2035 2035 2035 2035 2035 2035 2035 2035 2035 2035 2035 2035 2035 2035 2035 2035 2035 2035 2035 2035 2035 2035 2035 2035 2035 2035 2035 2035 2035 2035 2035 2035 2035 2035 2035 2035 2035 2035 2035 2035 2035 2035 2035 2035 2035 2035
      2035 2035 2035 2035 2035 2035 2035 2035 2035 2035 2035 2035 2035 2035 2035 2035 2035 2035 2035 2035 2035 2035 2035 2035 2035 2035 2035 2035 2035 2035 2035 2035 2035 2035 2035 2035 2035 2035 2035 2035 2035 2035 2035 2035 2035 2035 2035 2035 2035 2035 2035 2035 2035 2035 2035 2035 2035 2035 2035 2035 2035 2035 2035 2035 2035 2035 2035 2035 2035 2035 2035 2035 2035 2035 2035 2035 2035 2035 2035 2035 2035 2035 2035 2035 2035 2035 2035 2035 2035 2035 2035 2035 2035 2035 2035 2035 2035 2035 2035 2035 2035 2035 2035 2035 2035 2035 2035 2035 2035 2035 2035 2035 2035 2035 2035 2035 2035 2035 2035 2035 2035 2035 2035 2035 2035 2035 2035 2035 2035 2035 2035 2035 2035 2035 2035 2035 2035 2035 2035 2035 2035 2035 2035 2035 2035 2035 2035 2035 2035 2035 2035 2035 2035 2035 2035 2035 2035 2035 2035 2035 2035 2035 2035 2035 2035 2035 2035 2035 2035 2035 2035 2035 2035 2035 2035 2035 2035 2035 2035 2035 2035 2035 2035 2035 2035 2035
      )
    )
    (torch
      (sprite "/images/objects/torch/torch3.sprite")
      (x 32)
      (y 288)
    )
    (torch
      (sprite "/images/objects/torch/torch3.sprite")
      (x 128)
      (y 288)
    )
    (torch
      (x 2976)
      (y 96)
    )
    (torch
      (sprite "/images/objects/torch/torch3.sprite")
      (x 2528)
      (y 192)
    )
    (torch
      (sprite "/images/objects/torch/torch3.sprite")
      (x 1984)
      (y 192)
    )
    (torch
      (sprite "/images/objects/torch/torch1.sprite")
      (x 3936)
      (y 224)
    )
    (torch
      (sprite "/images/objects/torch/torch3.sprite")
      (x 4192)
      (y 320)
    )
    (torch
      (sprite "/images/objects/torch/torch3.sprite")
      (x 5056)
      (y 320)
    )
    (torch
      (sprite "/images/objects/torch/torch2.sprite")
      (x 5408)
      (y 64)
    )
    (unstable_tile
      (sprite "/images/objects/unstable_tile/unstable_tile.sprite")
      (x 1374.5)
      (y 352.75)
    )
    (unstable_tile
      (sprite "/images/objects/unstable_tile/unstable_tile.sprite")
      (x 1503.25)
      (y 354)
    )
    (unstable_tile
      (sprite "/images/objects/unstable_tile/unstable_tile.sprite")
      (x 2208)
      (y 288)
    )
    (unstable_tile
      (sprite "/images/objects/unstable_tile/unstable_tile.sprite")
      (x 2304)
      (y 288)
    )
    (unstable_tile
      (sprite "/images/objects/unstable_tile/unstable_tile.sprite")
      (x 2272)
      (y 288)
    )
    (unstable_tile
      (sprite "/images/objects/unstable_tile/unstable_tile.sprite")
      (x 2240)
      (y 288)
    )
  )
)
