(supertux-level
  (version 3)
  (name (_ "In Front of Yeti's Castle"))
  (author "Skittles")
  (license "CC-BY-SA 4.0 International")
  (sector
    (name "main")
    (init-script "import(\"levels/Skitt_land/key.nut\");
KEYHINT.set_action(\"outline\");")
    (ambient-light
      (color 0.7 0.9 1)
    )
    (background
      (color 1 1 1)
      (speed 0.5)
      (image "/images/background/antarctic/misty_snowhills_small.png")
    )
    (camera
      (name "Camera")
      (mode "normal")
    )
    (gradient
      (top_color 0 0 0.3)
      (bottom_color 0 0 0 0)
      (z-pos -299)
    )
    (infoblock
      (message (_ "-Have you already got the Key?
#If you get it, you can enter to the Castle, in case you didn't get it you must to search it."))
      (x 1184)
      (y 512)
    )
    (music
      (file "forest\\forest3.music")
    )
    (particles-snow
      (z-pos -201)
    )
    (path
      (name "gen16651728291759732223616")
      (path
        (mode "oneshot")
        (adapt_speed #f)
        (node
          (x 1472)
          (y 448)
        )
        (node
          (x 1472)
          (y 288)
        )
      )
    )
    (scriptedobject
      (z-pos 1)
      (physic-enabled #f)
      (solid #f)
      (name "KEYHINT")
      (sprite "/images/objects/keys/key_air.sprite")
      (x 1408)
      (y 368)
    )
    (scripttrigger
      (width 96)
      (height 192)
      (script "if(state.key_items.key) {
if( ! (\"open\" in this)) {
play_sound(\"sounds/turnkey.ogg\");
wait(1);
KEYHINT.set_action(\"display\");
wait(2);
door.goto_node(1);
this.open <- true;
}
} else {
play_sound(\"sounds/locked.ogg\");
}")
      (button #f)
      (x 1376)
      (y 448)
    )
    (scripttrigger
      (width 32)
      (height 192)
      (script "start_cutscene();
Tux.deactivate();
Effect.sixteen_to_nine(2);
Tux.walk(150);
wait(3);
Effect.fade_out(2);
wait(2.1);
end_cutscene();
Level.finish(true);")
      (button #f)
      (x 1536)
      (y 448)
    )
    (spawnpoint
      (name "main")
      (x 16)
      (y 288)
    )
    (tilemap
      (solid #f)
      (z-pos -100)
      (width 100)
      (height 35)
      (tiles
      0 0 0 0 0 0 0 0 0 0 0 0 0 0 0 0 0 0 0 0 0 0 0 0 0 0 0 0 0 0 0 0 0 0 0 0 0 0 0 0 0 0 0 0 0 0 0 0 0 0 0 0 0 0 0 0 0 0 0 0 0 0 0 0 0 0 0 0 0 0 0 0 0 0 0 0 0 0 0 0 0 0 0 0 0 0 0 0 0 0 0 0 0 0 0 0 0 0 0 0
      0 0 0 0 0 0 0 0 0 0 0 0 0 0 0 0 0 0 0 0 0 0 0 0 0 0 0 0 0 0 0 0 0 0 0 0 0 0 0 0 0 0 0 0 0 0 0 0 0 0 0 0 0 0 0 0 0 0 0 0 0 0 0 0 0 0 0 0 0 0 0 0 0 0 0 0 0 0 0 0 0 0 0 0 0 0 0 0 0 0 0 0 0 0 0 0 0 0 0 0
      0 0 0 0 0 0 0 0 0 0 0 0 0 0 0 0 0 0 0 0 0 0 0 0 0 0 0 0 0 0 0 0 0 0 0 0 0 0 0 0 0 0 0 0 0 0 0 0 0 0 0 0 0 0 0 0 0 0 0 0 0 0 0 0 0 0 0 0 0 0 0 0 0 0 0 0 0 0 0 0 0 0 0 0 0 0 0 0 0 0 0 0 0 0 0 0 0 0 0 0
      0 0 0 0 0 0 0 0 0 0 0 0 0 0 0 0 0 0 0 0 0 0 0 0 0 0 0 0 0 0 0 0 0 0 0 0 0 0 0 0 0 0 0 0 0 0 0 0 0 0 0 0 0 0 0 0 0 0 0 0 0 0 0 0 0 0 0 0 0 0 0 0 0 0 0 0 0 0 0 0 0 0 0 0 0 0 0 0 0 0 0 0 0 0 0 0 0 0 0 0
      0 0 0 0 0 0 0 0 0 0 0 0 0 0 0 0 0 0 0 0 0 0 0 0 0 0 0 0 0 0 0 0 0 0 0 0 0 0 0 0 0 0 0 0 0 0 0 0 0 0 0 0 0 0 0 0 0 0 0 0 0 0 0 0 0 0 0 0 0 0 0 0 0 0 0 0 0 0 0 0 0 0 0 0 0 0 0 0 0 0 0 0 0 0 0 0 0 0 0 0
      0 0 0 0 0 0 0 0 0 0 0 0 0 0 0 0 0 0 0 0 0 0 0 0 0 0 0 0 0 0 0 0 0 0 0 0 0 0 0 0 0 0 0 0 0 0 0 0 0 0 0 0 0 0 0 0 0 0 0 0 0 0 0 0 0 0 0 0 0 0 0 0 0 0 0 0 0 0 0 0 0 0 0 0 0 0 0 0 0 0 0 0 0 0 0 0 0 0 0 0
      0 0 0 0 0 0 0 0 0 0 0 0 0 0 0 0 0 0 0 0 0 0 0 0 0 0 0 0 0 0 0 0 0 0 0 0 0 0 0 0 0 0 0 0 0 0 0 0 0 0 0 0 0 0 0 0 0 0 0 0 0 0 0 0 0 0 0 0 0 0 0 0 0 0 0 0 0 0 0 0 0 0 0 0 0 0 0 0 0 0 0 0 0 0 0 0 0 0 0 0
      0 0 0 0 0 0 0 0 0 0 0 0 0 0 0 0 0 0 0 0 0 0 0 0 0 0 0 0 0 0 0 0 0 0 0 0 0 0 0 0 0 0 0 0 0 0 0 0 0 0 0 0 0 0 0 0 0 0 0 0 0 0 0 0 0 0 0 0 0 0 0 0 0 0 0 0 0 0 0 0 0 0 0 0 0 0 0 0 0 0 0 0 0 0 0 0 0 0 0 0
      0 0 0 0 0 0 0 0 0 0 0 0 0 0 0 0 0 0 0 0 0 0 0 0 0 0 0 0 0 0 0 0 0 0 0 0 0 0 0 0 0 0 0 0 0 0 0 0 0 0 0 0 0 0 0 0 0 0 0 0 0 0 0 0 0 0 0 0 0 0 0 0 0 0 0 0 0 0 0 0 0 0 0 0 0 0 0 0 0 0 0 0 0 0 0 0 0 0 0 0
      0 0 0 0 0 0 0 0 0 0 0 0 0 0 0 0 0 0 0 0 0 0 0 0 0 0 0 0 0 0 0 0 0 0 0 0 0 0 0 0 0 0 0 0 0 0 0 0 0 0 0 0 0 0 0 0 0 0 0 0 0 0 0 0 0 0 0 0 0 0 0 0 0 0 0 0 0 0 0 0 0 0 0 0 0 0 0 0 0 0 0 0 0 0 0 0 0 0 0 0
      0 0 0 0 0 0 0 0 0 0 0 0 0 0 0 0 0 0 0 0 0 0 0 0 0 0 0 0 0 0 0 0 0 0 0 0 0 0 0 0 0 0 0 0 0 0 0 0 0 0 0 0 0 0 0 0 0 0 0 0 0 0 0 0 0 0 0 0 0 0 0 0 0 0 0 0 0 0 0 0 0 0 0 0 0 0 0 0 0 0 0 0 0 0 0 0 0 0 0 0
      0 0 0 0 0 0 0 0 0 0 0 0 0 0 0 0 0 0 0 0 0 0 0 0 0 0 0 0 0 0 0 0 0 0 0 0 0 0 0 0 0 0 0 0 0 0 0 0 0 0 0 0 0 0 0 0 0 0 0 0 0 0 0 0 0 0 0 0 0 0 0 0 0 0 0 0 0 0 0 0 0 0 0 0 0 0 0 0 0 0 0 0 0 0 0 0 0 0 0 0
      0 0 0 0 0 0 0 0 0 0 0 0 0 0 0 0 0 0 0 0 0 0 0 0 0 0 0 0 0 0 0 0 0 0 0 0 0 0 0 0 0 0 0 0 0 0 0 0 0 0 0 0 0 0 0 0 0 0 0 0 0 0 0 0 0 0 0 0 0 0 0 0 0 0 0 0 0 0 0 0 0 0 0 0 0 0 0 0 0 0 0 0 0 0 0 0 0 0 0 0
      2180 2182 2194 0 0 0 0 0 0 0 0 0 0 0 0 0 0 0 0 0 0 0 0 0 0 0 0 0 0 0 0 0 0 0 0 0 0 0 0 0 0 0 0 0 0 0 0 0 0 0 0 0 0 0 0 0 0 0 0 0 0 0 0 0 0 0 0 0 0 0 0 0 0 0 0 0 0 0 0 0 0 0 0 0 0 0 0 0 0 0 0 0 0 0 0 0 0 0 0 0
      2181 2190 0 0 0 0 0 0 0 0 0 0 0 0 0 0 0 0 0 0 0 0 0 0 0 0 0 0 0 0 0 0 0 0 0 0 0 0 0 0 3280 3277 3277 3277 3277 3277 3277 3277 3277 3277 3277 3277 3277 3277 3277 3277 3277 3277 3277 3277 3277 3277 3277 3277 3277 3277 3277 3277 3277 3277 3277 3277 3277 3277 3277 3277 3277 3277 3277 3277 3277 3277 3277 3277 3277 3277 3277 3277 3277 3277 3277 3277 3277 3277 3277 3277 3277 3277 3277 3277
      2188 2198 2199 2186 0 0 0 0 0 0 0 0 0 0 0 0 0 0 0 0 0 0 0 0 0 0 0 0 0 0 0 0 0 0 0 0 0 0 0 0 3280 3277 3277 3277 3277 3277 3277 3277 3277 3277 3277 3278 0 0 3280 3277 3277 3277 3277 3277 3277 3277 3277 3277 3277 3277 3277 3277 3277 3277 3277 3278 0 0 3280 3277 3277 3277 3277 3277 3277 3277 3277 3277 3277 3277 3277 3277 3277 3277 3277 3278 0 0 3280 3277 3277 3277 3277 3277
      0 0 0 0 0 0 0 0 4094 4095 0 0 122 123 0 0 0 0 0 0 0 0 0 0 0 0 0 0 0 0 0 0 0 0 0 0 0 0 0 0 0 3280 3277 3277 3277 3277 3277 3277 3277 3277 3278 0 0 0 0 3280 3277 3277 3277 3277 3277 3277 3277 3277 3277 3277 3277 3277 3277 3277 3278 0 0 0 0 3280 3277 3277 3277 3277 3277 3277 3277 3277 3277 3277 3277 3277 3277 3277 3278 0 0 0 0 3280 3277 3277 3277 3277
      0 0 0 0 0 122 123 0 4096 4097 0 0 124 125 0 0 0 0 0 4094 4095 0 0 0 0 0 0 0 0 0 0 0 0 0 0 0 0 0 0 0 0 3280 3277 3277 3277 3277 3277 3277 3277 3277 3278 0 0 0 0 3280 3277 3277 3277 3277 3277 3277 3277 3277 3277 3277 3277 3277 3277 3277 3278 0 0 0 0 3280 3277 3277 3277 3277 3277 3277 3277 3277 3277 3277 3277 3277 3277 3277 3278 0 0 0 0 3280 3277 3277 3277 3277
      0 0 0 0 0 124 125 0 4098 4099 0 0 124 125 0 0 0 0 0 4096 4097 0 0 0 0 0 0 0 0 0 4094 4095 0 0 0 0 122 123 0 0 3280 3277 3277 3277 3277 3277 3277 3277 3277 3277 3278 0 0 0 0 3280 3277 3277 3277 3277 3277 3277 3277 3277 3277 3277 3277 3277 3277 3277 3278 0 0 0 0 3280 3277 3277 3277 3277 3277 3277 3277 3277 3277 3277 3277 3277 3277 3277 3278 0 0 0 0 3280 3277 3277 3277 3277
      0 0 0 0 0 0 0 0 0 0 0 0 0 0 0 0 0 0 0 4098 4099 0 0 0 0 106 107 108 0 0 4096 4097 0 0 0 0 124 125 0 0 3280 3277 3277 3277 3277 3277 3277 3277 3277 3277 3277 3277 3277 3277 3277 3277 3277 3277 3277 3277 3277 3277 3277 3277 3277 3277 3277 3277 3277 3277 3277 3277 3277 3277 3277 3277 3277 3277 3277 3277 3277 3277 3277 3277 3277 3277 3277 3277 3277 3277 3277 3277 3277 3277 3277 3277 3277 3277 3277 3277
      0 0 0 0 0 0 0 0 0 0 0 0 0 0 0 0 0 0 0 0 0 0 0 0 0 109 110 111 0 0 4098 4099 0 0 0 0 0 0 0 0 0 0 0 0 0 0 0 0 0 0 0 0 0 0 0 0 0 0 0 0 0 0 0 0 0 0 0 0 0 0 0 0 0 0 0 0 0 0 0 0 0 0 0 0 0 0 0 0 0 0 0 0 0 0 0 0 0 0 0 0
      0 0 0 0 0 0 0 0 0 0 0 0 0 0 0 0 0 0 0 0 0 0 0 0 0 0 0 0 0 0 0 0 0 0 0 0 0 0 0 0 0 0 0 0 0 0 0 0 0 0 0 0 0 0 0 0 0 0 0 0 0 0 0 0 0 0 0 0 0 0 0 0 0 0 0 0 0 0 0 0 0 0 0 0 0 0 0 0 0 0 0 0 0 0 0 0 0 0 0 0
      0 0 0 0 0 0 0 0 0 0 0 0 0 0 0 0 0 0 0 0 0 0 0 0 0 0 0 0 0 0 0 0 0 0 0 0 0 0 0 0 0 0 0 0 0 0 0 0 0 0 0 0 0 0 0 0 0 0 0 0 0 0 0 0 0 0 0 0 0 0 0 0 0 0 0 0 0 0 0 0 0 0 0 0 0 0 0 0 0 0 0 0 0 0 0 0 0 0 0 0
      0 0 0 0 0 0 0 0 0 0 0 0 0 0 0 0 0 0 0 0 0 0 0 0 0 0 0 0 0 0 0 0 0 0 0 0 0 0 0 0 0 0 0 0 0 0 0 0 0 0 0 0 0 0 0 0 0 0 0 0 0 0 0 0 0 0 0 0 0 0 0 0 0 0 0 0 0 0 0 0 0 0 0 0 0 0 0 0 0 0 0 0 0 0 0 0 0 0 0 0
      0 0 0 0 0 0 0 0 0 0 0 0 0 0 0 0 0 0 0 0 0 0 0 0 0 0 0 0 0 0 0 0 0 0 0 0 0 0 0 0 0 0 0 0 0 0 0 0 0 0 0 0 0 0 0 0 0 0 0 0 0 0 0 0 0 0 0 0 0 0 0 0 0 0 0 0 0 0 0 0 0 0 0 0 0 0 0 0 0 0 0 0 0 0 0 0 0 0 0 0
      0 0 0 0 0 0 0 0 0 0 0 0 0 0 0 0 0 0 0 0 0 0 0 0 0 0 0 0 0 0 0 0 0 0 0 0 0 0 0 0 0 0 0 0 0 0 0 0 0 0 0 0 0 0 0 0 0 0 0 0 0 0 0 0 0 0 0 0 0 0 0 0 0 0 0 0 0 0 0 0 0 0 0 0 0 0 0 0 0 0 0 0 0 0 0 0 0 0 0 0
      0 0 0 0 0 0 0 0 0 0 0 0 0 0 0 0 0 0 0 0 0 0 0 0 0 0 0 0 0 0 0 0 0 0 0 0 0 0 0 0 0 0 0 0 0 0 0 0 0 0 0 0 0 0 0 0 0 0 0 0 0 0 0 0 0 0 0 0 0 0 0 0 0 0 0 0 0 0 0 0 0 0 0 0 0 0 0 0 0 0 0 0 0 0 0 0 0 0 0 0
      0 0 0 0 0 0 0 0 0 0 0 0 0 0 0 0 0 0 0 0 0 0 0 0 0 0 0 0 0 0 0 0 0 0 0 0 0 0 0 0 0 0 0 0 0 0 0 0 0 0 0 0 0 0 0 0 0 0 0 0 0 0 0 0 0 0 0 0 0 0 0 0 0 0 0 0 0 0 0 0 0 0 0 0 0 0 0 0 0 0 0 0 0 0 0 0 0 0 0 0
      0 0 0 0 0 0 0 0 0 0 0 0 0 0 0 0 0 0 0 0 0 0 0 0 0 0 0 0 0 0 0 0 0 0 0 0 0 0 0 0 0 0 0 0 0 0 0 0 0 0 0 0 0 0 0 0 0 0 0 0 0 0 0 0 0 0 0 0 0 0 0 0 0 0 0 0 0 0 0 0 0 0 0 0 0 0 0 0 0 0 0 0 0 0 0 0 0 0 0 0
      0 0 0 0 0 0 0 0 0 0 0 0 0 0 0 0 0 0 0 0 0 0 0 0 0 0 0 0 0 0 0 0 0 0 0 0 0 0 0 0 0 0 0 0 0 0 0 0 0 0 0 0 0 0 0 0 0 0 0 0 0 0 0 0 0 0 0 0 0 0 0 0 0 0 0 0 0 0 0 0 0 0 0 0 0 0 0 0 0 0 0 0 0 0 0 0 0 0 0 0
      0 0 0 0 0 0 0 0 0 0 0 0 0 0 0 0 0 0 0 0 0 0 0 0 0 0 0 0 0 0 0 0 0 0 0 0 0 0 0 0 0 0 0 0 0 0 0 0 0 0 0 0 0 0 0 0 0 0 0 0 0 0 0 0 0 0 0 0 0 0 0 0 0 0 0 0 0 0 0 0 0 0 0 0 0 0 0 0 0 0 0 0 0 0 0 0 0 0 0 0
      0 0 0 0 0 0 0 0 0 0 0 0 0 0 0 0 0 0 0 0 0 0 0 0 0 0 0 0 0 0 0 0 0 0 0 0 0 0 0 0 0 0 0 0 0 0 0 0 0 0 0 0 0 0 0 0 0 0 0 0 0 0 0 0 0 0 0 0 0 0 0 0 0 0 0 0 0 0 0 0 0 0 0 0 0 0 0 0 0 0 0 0 0 0 0 0 0 0 0 0
      0 0 0 0 0 0 0 0 0 0 0 0 0 0 0 0 0 0 0 0 0 0 0 0 0 0 0 0 0 0 0 0 0 0 0 0 0 0 0 0 0 0 0 0 0 0 0 0 0 0 0 0 0 0 0 0 0 0 0 0 0 0 0 0 0 0 0 0 0 0 0 0 0 0 0 0 0 0 0 0 0 0 0 0 0 0 0 0 0 0 0 0 0 0 0 0 0 0 0 0
      0 0 0 0 0 0 0 0 0 0 0 0 0 0 0 0 0 0 0 0 0 0 0 0 0 0 0 0 0 0 0 0 0 0 0 0 0 0 0 0 0 0 0 0 0 0 0 0 0 0 0 0 0 0 0 0 0 0 0 0 0 0 0 0 0 0 0 0 0 0 0 0 0 0 0 0 0 0 0 0 0 0 0 0 0 0 0 0 0 0 0 0 0 0 0 0 0 0 0 0
      0 0 0 0 0 0 0 0 0 0 0 0 0 0 0 0 0 0 0 0 0 0 0 0 0 0 0 0 0 0 0 0 0 0 0 0 0 0 0 0 0 0 0 0 0 0 0 0 0 0 0 0 0 0 0 0 0 0 0 0 0 0 0 0 0 0 0 0 0 0 0 0 0 0 0 0 0 0 0 0 0 0 0 0 0 0 0 0 0 0 0 0 0 0 0 0 0 0 0 0
      )
    )
    (tilemap
      (solid #f)
      (z-pos 100)
      (width 100)
      (height 35)
      (tiles
      0 0 0 0 0 0 0 0 0 0 0 0 0 0 0 0 0 0 0 0 0 0 0 0 0 0 0 0 0 0 0 0 0 0 0 0 0 0 0 0 0 0 0 0 0 0 0 0 0 0 0 0 0 0 0 0 0 0 0 0 0 0 0 0 0 0 0 0 0 0 0 0 0 0 0 0 0 0 0 0 0 0 0 0 0 0 0 0 0 0 0 0 0 0 0 0 0 0 0 0
      0 0 0 0 0 0 0 0 0 0 0 0 0 0 0 0 0 0 0 0 0 0 0 0 0 0 0 0 0 0 0 0 0 0 0 0 0 0 0 0 0 0 0 0 0 0 0 0 0 0 0 0 0 0 0 0 0 0 0 0 0 0 0 0 0 0 0 0 0 0 0 0 0 0 0 0 0 0 0 0 0 0 0 0 0 0 0 0 0 0 0 0 0 0 0 0 0 0 0 0
      0 0 0 0 0 0 0 0 0 0 0 0 0 0 0 0 0 0 0 0 0 0 0 0 0 0 0 0 0 0 0 0 0 0 0 0 0 0 0 0 0 0 0 0 0 0 0 0 0 0 0 0 0 0 0 0 0 0 0 0 0 0 0 0 0 0 0 0 0 0 0 0 0 0 0 0 0 0 0 0 0 0 0 0 0 0 0 0 0 0 0 0 0 0 0 0 0 0 0 0
      0 0 0 0 0 0 0 0 0 0 0 0 0 0 0 0 0 0 0 0 0 0 0 0 0 0 0 0 0 0 0 0 0 0 0 0 0 0 0 0 0 0 0 0 0 0 0 0 0 0 0 0 0 0 0 0 0 0 0 0 0 0 0 0 0 0 0 0 0 0 0 0 0 0 0 0 0 0 0 0 0 0 0 0 0 0 0 0 0 0 0 0 0 0 0 0 0 0 0 0
      0 0 0 0 0 0 0 0 0 0 0 0 0 0 0 0 0 0 0 0 0 0 0 0 0 0 0 0 0 0 0 0 0 0 0 0 0 0 0 0 0 0 0 0 0 0 0 0 0 0 0 0 0 0 0 0 0 0 0 0 0 0 0 0 0 0 0 0 0 0 0 0 0 0 0 0 0 0 0 0 0 0 0 0 0 0 0 0 0 0 0 0 0 0 0 0 0 0 0 0
      0 0 0 0 0 0 0 0 0 0 0 0 0 0 0 0 0 0 0 0 0 0 0 0 0 0 0 0 0 0 0 0 0 0 0 0 0 0 0 0 0 0 0 0 0 0 0 0 0 0 0 0 0 0 0 0 0 0 0 0 0 0 0 0 0 0 0 0 0 0 0 0 0 0 0 0 0 0 0 0 0 0 0 0 0 0 0 0 0 0 0 0 0 0 0 0 0 0 0 0
      0 0 0 0 0 0 0 0 0 0 0 0 0 0 0 0 0 0 0 0 0 0 0 0 0 0 0 0 0 0 0 0 0 0 0 0 0 0 0 0 0 0 0 0 0 0 0 0 0 0 0 0 0 0 0 0 0 0 0 0 0 0 0 0 0 0 0 0 0 0 0 0 0 0 0 0 0 0 0 0 0 0 0 0 0 0 0 0 0 0 0 0 0 0 0 0 0 0 0 0
      0 0 0 0 0 0 0 0 0 0 0 0 0 0 0 0 0 0 0 0 0 0 0 0 0 0 0 0 0 0 0 0 0 0 0 0 0 0 0 0 0 0 0 0 0 0 0 0 0 0 0 0 0 0 0 0 0 0 0 0 0 0 0 0 0 0 0 0 0 0 0 0 0 0 0 0 0 0 0 0 0 0 0 0 0 0 0 0 0 0 0 0 0 0 0 0 0 0 0 0
      0 0 0 0 0 0 0 0 0 0 0 0 0 0 0 0 0 0 0 0 0 0 0 0 0 0 0 0 0 0 0 0 0 0 0 0 0 0 0 0 0 0 0 0 0 0 0 0 0 0 0 0 0 0 0 0 0 0 0 0 0 0 0 0 0 0 0 0 0 0 0 0 0 0 0 0 0 0 0 0 0 0 0 0 0 0 0 0 0 0 0 0 0 0 0 0 0 0 0 0
      0 0 0 0 0 0 0 0 0 0 0 0 0 0 0 0 0 0 0 0 0 0 0 0 0 0 0 0 0 0 0 0 0 0 0 0 0 0 0 0 0 0 0 0 0 0 0 0 0 0 0 0 0 0 0 0 0 0 0 0 0 0 0 0 0 0 0 0 0 0 0 0 0 0 0 0 0 0 0 0 0 0 0 0 0 0 0 0 0 0 0 0 0 0 0 0 0 0 0 0
      0 0 0 0 0 0 0 0 0 0 0 0 0 0 0 0 0 0 0 0 0 0 0 0 0 0 0 0 0 0 0 0 0 0 0 0 0 0 0 0 0 0 0 0 0 0 0 0 0 0 0 0 0 0 0 0 0 0 0 0 0 0 0 0 0 0 0 0 0 0 0 0 0 0 0 0 0 0 0 0 0 0 0 0 0 0 0 0 0 0 0 0 0 0 0 0 0 0 0 0
      0 0 0 0 0 0 0 0 0 0 0 0 0 0 0 0 0 0 0 0 0 0 0 0 0 0 0 0 0 0 0 0 0 0 0 0 0 0 0 0 0 0 0 0 0 0 0 0 0 0 0 0 0 0 0 0 0 0 0 0 0 0 0 0 0 0 0 0 0 0 0 0 0 0 0 0 0 0 0 0 0 0 0 0 0 0 0 0 0 0 0 0 0 0 0 0 0 0 0 0
      0 0 0 0 0 0 0 0 0 0 0 0 0 0 0 0 0 0 0 0 0 0 0 0 0 0 0 0 0 0 0 0 0 0 0 0 0 0 0 0 0 0 0 0 0 0 0 0 0 0 0 0 0 0 0 0 0 0 0 0 0 0 0 0 0 0 0 0 0 0 0 0 0 0 0 0 0 0 0 0 0 0 0 0 0 0 0 0 0 0 0 0 0 0 0 0 0 0 0 0
      0 0 0 0 0 0 0 0 0 0 0 0 0 0 0 0 0 0 0 0 0 0 0 0 0 0 0 0 0 0 0 0 0 0 0 0 0 0 0 0 0 0 0 0 0 0 0 0 0 0 0 0 0 0 0 0 0 0 0 0 0 0 0 0 0 0 0 0 0 0 0 0 0 0 0 0 0 0 0 0 0 0 0 0 0 0 0 0 0 0 0 0 0 0 0 0 0 0 0 0
      0 0 0 0 0 0 0 0 0 0 0 0 0 0 0 0 0 0 0 0 0 0 0 0 0 0 0 0 0 0 0 0 0 0 0 0 0 0 0 0 0 0 0 0 0 0 0 0 0 0 0 0 0 0 0 0 0 0 0 0 0 0 0 0 0 0 0 0 0 0 0 0 0 0 0 0 0 0 0 0 0 0 0 0 0 0 0 0 0 0 0 0 0 0 0 0 0 0 0 0
      0 0 0 0 0 0 0 0 0 0 0 0 0 0 0 0 0 0 0 0 0 0 0 0 0 0 0 0 0 0 0 0 0 0 0 0 0 0 0 0 0 0 0 0 0 0 0 0 0 0 0 0 0 0 0 0 0 0 0 0 0 0 0 0 0 0 0 0 0 0 0 0 0 0 0 0 0 0 0 0 0 0 0 0 0 0 0 0 0 0 0 0 0 0 0 0 0 0 0 0
      0 0 0 0 0 0 0 0 0 0 0 0 0 0 0 0 0 0 0 0 0 0 0 0 0 0 0 0 0 0 0 0 0 0 0 0 0 0 0 0 0 0 0 0 0 0 0 0 0 0 0 0 0 0 0 0 0 0 0 0 0 0 0 0 0 0 0 0 0 0 0 0 0 0 0 0 0 0 0 0 0 0 0 0 0 0 0 0 0 0 0 0 0 0 0 0 0 0 0 0
      0 0 0 0 0 0 0 0 0 0 0 0 0 0 0 0 0 0 0 0 0 0 0 0 0 0 0 0 0 0 0 0 0 0 0 0 0 0 0 0 0 0 0 0 0 0 0 0 0 0 0 0 0 0 0 0 0 0 0 0 0 0 0 0 0 0 0 0 0 0 0 0 0 0 0 0 0 0 0 0 0 0 0 0 0 0 0 0 0 0 0 0 0 0 0 0 0 0 0 0
      0 0 0 0 0 0 0 0 0 0 0 0 0 0 0 0 0 0 0 0 0 0 0 0 0 0 0 0 0 0 0 0 0 0 0 0 0 0 0 0 0 0 0 0 0 0 0 0 0 0 0 0 0 0 0 0 0 0 0 0 0 0 0 0 0 0 0 0 0 0 0 0 0 0 0 0 0 0 0 0 0 0 0 0 0 0 0 0 0 0 0 0 0 0 0 0 0 0 0 0
      0 0 0 0 0 0 0 0 0 0 0 0 0 0 0 0 0 0 0 0 0 0 0 0 0 0 0 0 0 0 0 0 0 0 0 0 0 0 0 0 0 0 0 0 0 0 0 0 0 0 0 0 0 0 0 0 0 0 0 0 0 0 0 0 0 0 0 0 0 0 0 0 0 0 0 0 0 0 0 0 0 0 0 0 0 0 0 0 0 0 0 0 0 0 0 0 0 0 0 0
      0 0 0 0 0 0 0 0 0 0 0 0 0 0 0 0 0 0 0 0 0 0 0 0 0 0 0 0 0 0 0 0 0 0 0 0 0 0 15 0 0 0 0 0 0 0 0 0 0 0 0 0 0 0 0 0 0 0 0 0 0 0 0 0 0 0 0 0 0 0 0 0 0 0 0 0 0 0 0 0 0 0 0 0 0 0 0 0 0 0 0 0 0 0 0 0 0 0 0 0
      0 0 0 0 0 0 0 0 0 0 0 0 0 0 0 0 0 0 0 0 0 0 0 0 0 0 0 0 0 0 0 0 0 0 0 0 0 0 3250 0 0 0 0 0 0 0 0 0 0 0 0 0 0 0 0 0 0 0 0 0 0 0 0 0 0 0 0 0 0 0 0 0 0 0 0 0 0 0 0 0 0 0 0 0 0 0 0 0 0 0 0 0 0 0 0 0 0 0 0 0
      0 0 0 0 0 0 0 0 0 0 0 0 0 0 0 0 0 0 0 0 0 0 0 0 0 0 0 0 0 0 0 0 0 0 0 0 0 2124 2133 0 0 0 0 0 0 0 0 0 0 0 0 0 0 0 0 0 0 0 0 0 0 0 0 0 0 0 0 0 0 0 0 0 0 0 0 0 0 0 0 0 0 0 0 0 0 0 0 0 0 0 0 0 0 0 0 0 0 0 0 0
      0 0 0 0 0 0 0 0 0 0 0 0 0 0 0 0 0 0 0 0 0 0 0 0 0 0 0 0 0 0 0 0 0 0 0 0 0 2128 0 0 0 0 0 0 0 0 0 0 0 0 0 0 0 0 0 0 0 0 0 0 0 0 0 0 0 0 0 0 0 0 0 0 0 0 0 0 0 0 0 0 0 0 0 0 0 0 0 0 0 0 0 0 0 0 0 0 0 0 0 0
      0 0 0 0 0 0 0 0 0 0 0 0 0 0 0 0 0 0 0 0 0 0 0 0 0 0 0 0 0 0 0 0 0 0 0 0 0 2128 0 0 0 0 0 0 0 0 0 0 0 0 0 0 0 0 0 0 0 0 0 0 0 0 0 0 0 0 0 0 0 0 0 0 0 0 0 0 0 0 0 0 0 0 0 0 0 0 0 0 0 0 0 0 0 0 0 0 0 0 0 0
      0 0 0 0 0 0 0 0 0 0 0 0 0 0 0 0 0 0 0 0 0 0 0 0 0 0 0 0 0 0 0 0 0 0 0 0 0 2128 0 0 0 0 0 0 0 0 0 0 0 0 0 0 0 0 0 0 0 0 0 0 0 0 0 0 0 0 0 0 0 0 0 0 0 0 0 0 0 0 0 0 0 0 0 0 0 0 0 0 0 0 0 0 0 0 0 0 0 0 0 0
      0 0 0 0 0 0 0 0 0 0 0 0 0 0 0 0 0 0 0 0 0 0 0 0 0 0 0 0 0 0 0 0 0 0 0 0 0 2129 2123 0 0 0 0 0 0 0 0 0 0 0 0 0 0 0 0 0 0 0 0 0 0 0 0 0 0 0 0 0 0 0 0 0 0 0 0 0 0 0 0 0 0 0 0 0 0 0 0 0 0 0 0 0 0 0 0 0 0 0 0 0
      0 0 0 0 0 0 0 0 0 0 0 0 0 0 0 0 0 0 0 0 0 0 0 0 0 0 0 0 0 0 0 0 0 0 0 0 0 0 2128 0 0 0 0 0 0 0 0 0 0 0 0 0 0 0 0 0 0 0 0 0 0 0 0 0 0 0 0 0 0 0 0 0 0 0 0 0 0 0 0 0 0 0 0 0 0 0 0 0 0 0 0 0 0 0 0 0 0 0 0 0
      0 0 0 0 0 0 0 0 0 0 0 0 0 0 0 0 0 0 0 0 0 0 0 0 0 0 0 0 0 0 0 0 0 0 0 0 0 0 2129 2123 0 0 0 0 0 0 0 0 0 0 0 0 0 0 0 0 0 0 0 0 0 0 0 0 0 0 0 0 0 0 0 0 0 0 0 0 0 0 0 0 0 0 0 0 0 0 0 0 0 0 0 0 0 0 0 0 0 0 0 0
      0 0 0 0 0 0 0 0 0 0 0 0 0 0 0 0 0 0 0 0 0 0 0 0 0 0 0 0 0 0 0 0 0 0 0 0 0 0 0 2128 0 0 0 0 0 0 0 0 0 0 0 0 0 0 0 0 0 0 0 0 0 0 0 0 0 0 0 0 0 0 0 0 0 0 0 0 0 0 0 0 0 0 0 0 0 0 0 0 0 0 0 0 0 0 0 0 0 0 0 0
      0 0 0 0 0 0 0 0 0 0 0 0 0 0 0 0 0 0 0 0 0 0 0 0 0 0 0 0 0 0 0 0 0 0 0 0 0 2124 2132 2133 0 0 0 0 0 0 0 0 0 0 0 0 0 0 0 0 0 0 0 0 0 0 0 0 0 0 0 0 0 0 0 0 0 0 0 0 0 0 0 0 0 0 0 0 0 0 0 0 0 0 0 0 0 0 0 0 0 0 0 0
      0 0 0 0 0 0 0 0 0 0 0 0 0 0 0 0 0 0 0 0 0 0 0 0 0 0 0 0 0 0 0 0 0 0 0 0 0 2128 0 0 0 0 0 0 0 0 0 0 0 0 0 0 0 0 0 0 0 0 0 0 0 0 0 0 0 0 0 0 0 0 0 0 0 0 0 0 0 0 0 0 0 0 0 0 0 0 0 0 0 0 0 0 0 0 0 0 0 0 0 0
      0 0 0 0 0 0 0 0 0 0 0 0 0 0 0 0 0 0 0 0 0 0 0 0 0 0 0 0 0 0 0 0 0 0 0 0 0 2128 0 0 0 0 0 0 0 0 0 0 0 0 0 0 0 0 0 0 0 0 0 0 0 0 0 0 0 0 0 0 0 0 0 0 0 0 0 0 0 0 0 0 0 0 0 0 0 0 0 0 0 0 0 0 0 0 0 0 0 0 0 0
      0 0 0 0 0 0 0 0 0 0 0 0 0 0 0 0 0 0 0 0 0 0 0 0 0 0 0 0 0 0 0 0 0 0 0 0 0 2129 2123 0 0 0 0 0 0 0 0 0 0 0 0 0 0 0 0 0 0 0 0 0 0 0 0 0 0 0 0 0 0 0 0 0 0 0 0 0 0 0 0 0 0 0 0 0 0 0 0 0 0 0 0 0 0 0 0 0 0 0 0 0
      0 0 0 0 0 0 0 0 0 0 0 0 0 0 0 0 0 0 0 0 0 0 0 0 0 0 0 0 0 0 0 0 0 0 0 0 0 0 2128 0 0 0 0 0 0 0 0 0 0 0 0 0 0 0 0 0 0 0 0 0 0 0 0 0 0 0 0 0 0 0 0 0 0 0 0 0 0 0 0 0 0 0 0 0 0 0 0 0 0 0 0 0 0 0 0 0 0 0 0 0
      )
    )
    (tilemap
      (solid #t)
      (z-pos 0)
      (width 100)
      (height 35)
      (tiles
      0 0 0 0 0 0 0 0 0 0 0 0 0 0 0 0 0 0 0 0 0 0 0 0 0 0 0 0 0 0 0 0 0 0 0 0 0 0 2101 2117 2102 2117 2102 2117 2102 2117 2102 2117 2102 2117 2102 2117 2102 2117 2102 2117 2102 2117 2102 2117 2102 2117 2102 2117 2102 2117 2102 2117 2102 2117 2102 2117 2102 2117 2102 2117 2102 2117 2102 2117 2102 2117 2102 2117 2102 2117 2102 2117 2102 2117 2102 2117 2102 2117 2102 2117 2102 2117 2102 2117
      0 0 0 0 0 0 0 0 0 0 0 0 0 0 0 0 0 0 0 0 0 0 0 0 0 0 0 0 0 0 0 0 0 0 0 0 0 0 2111 2097 2112 2097 2112 2097 2112 2097 2112 2097 2112 2097 2112 2097 2112 2097 2112 2097 2112 2097 2112 2097 2112 2097 2112 2097 2112 2097 2112 2097 2112 2097 2112 2097 2112 2097 2112 2097 2112 2097 2112 2097 2112 2097 2112 2097 2112 2097 2112 2097 2112 2097 2112 2097 2112 2097 2112 2097 2112 2097 2112 2097
      0 0 0 0 0 0 0 0 0 0 0 0 0 0 0 0 0 0 0 0 0 0 0 0 0 0 0 0 0 0 0 0 0 0 0 0 0 0 2101 2117 2102 2117 2102 2117 2102 2117 2102 2117 2102 2117 2102 2117 2102 2117 2102 2117 2102 2117 2102 2117 2102 2117 2102 2117 2102 2117 2102 2117 2102 2117 2102 2117 2102 2117 2102 2117 2102 2117 2102 2117 2102 2117 2102 2117 2102 2117 2102 2117 2102 2117 2102 2117 2102 2117 2102 2117 2102 2117 2102 2117
      0 0 0 0 0 0 0 0 0 0 0 0 0 0 0 0 0 0 0 0 0 0 0 0 0 0 0 0 0 0 0 0 0 0 0 0 0 0 2111 2097 2112 2097 2112 2097 2112 2097 2112 2097 2112 2097 2112 2097 2112 2097 2112 2097 2112 2097 2112 2097 2112 2097 2112 2097 2112 2097 2112 2097 2112 2097 2112 2097 2112 2097 2112 2097 2112 2097 2112 2097 2112 2097 2112 2097 2112 2097 2112 2097 2112 2097 2112 2097 2112 2097 2112 2097 2112 2097 2112 2097
      0 0 0 0 0 0 0 0 0 0 0 0 0 0 0 0 0 0 0 0 0 0 0 0 0 0 0 0 0 0 0 0 0 0 0 0 0 0 2101 2117 2102 2117 2102 2117 2102 2117 2102 2117 2102 2117 2102 2117 2102 2117 2102 2117 2102 2117 2102 2117 2102 2117 2102 2117 2102 2117 2102 2117 2102 2117 2102 2117 2102 2117 2102 2117 2102 2117 2102 2117 2102 2117 2102 2117 2102 2117 2102 2117 2102 2117 2102 2117 2102 2117 2102 2117 2102 2117 2102 2117
      0 0 0 0 0 0 0 0 0 0 0 0 0 0 0 0 0 0 0 0 0 0 0 0 0 0 0 0 0 0 0 0 0 0 0 0 0 0 2111 2097 2112 2097 2112 2097 2112 2097 2112 2097 2112 2097 2112 2097 2112 2097 2112 2097 2112 2097 2112 2097 2112 2097 2112 2097 2112 2097 2112 2097 2112 2097 2112 2097 2112 2097 2112 2097 2112 2097 2112 2097 2112 2097 2112 2097 2112 2097 2112 2097 2112 2097 2112 2097 2112 2097 2112 2097 2112 2097 2112 2097
      0 0 0 0 0 0 0 0 0 0 0 0 0 0 0 0 0 0 0 0 0 0 0 0 0 0 0 0 0 0 0 0 0 0 0 0 0 0 2101 2117 2102 2117 2102 2117 2102 2117 2102 2117 2102 2117 2102 2117 2102 2117 2102 2117 2102 2117 2102 2117 2102 2117 2102 2117 2102 2117 2102 2117 2102 2117 2102 2117 2102 2117 2102 2117 2102 2117 2102 2117 2102 2117 2102 2117 2102 2117 2102 2117 2102 2117 2102 2117 2102 2117 2102 2117 2102 2117 2102 2117
      0 0 0 0 0 0 0 0 0 0 0 0 0 0 0 0 0 0 0 0 0 0 0 0 0 0 0 0 0 0 0 0 0 0 0 0 0 0 2111 2097 2112 2097 2112 2097 2112 2097 2112 2097 2112 2097 2112 2097 2112 2097 2112 2097 2112 2097 2112 2097 2112 2097 2112 2097 2112 2097 2112 2097 2112 2097 2112 2097 2112 2097 2112 2097 2112 2097 2112 2097 2112 2097 2112 2097 2112 2097 2112 2097 2112 2097 2112 2097 2112 2097 2112 2097 2112 2097 2112 2097
      0 0 0 0 0 0 0 0 0 0 0 0 0 0 0 0 0 0 0 0 0 0 0 0 0 0 0 0 0 0 0 0 0 0 0 0 0 0 2101 2117 2102 2117 2102 2117 2102 2117 2102 2117 2102 2117 2102 2117 2102 2117 2102 2117 2102 2117 2102 2117 2102 2117 2102 2117 2102 2117 2102 2117 2102 2117 2102 2117 2102 2117 2102 2117 2102 2117 2102 2117 2102 2117 2102 2117 2102 2117 2102 2117 2102 2117 2102 2117 2102 2117 2102 2117 2102 2117 2102 2117
      0 0 0 0 0 0 0 0 0 0 0 0 0 0 0 0 0 0 0 0 0 0 0 0 0 0 0 0 0 0 0 0 0 0 0 0 0 0 2111 2097 2112 2097 2112 2097 2112 2097 2112 2097 2112 2097 2112 2097 2112 2097 2112 2097 2112 2097 2112 2097 2112 2097 2112 2097 2112 2097 2112 2097 2112 2097 2112 2097 2112 2097 2112 2097 2112 2097 2112 2097 2112 2097 2112 2097 2112 2097 2112 2097 2112 2097 2112 2097 2112 2097 2112 2097 2112 2097 2112 2097
      8 9 0 0 0 0 0 0 0 0 0 0 0 0 0 0 0 0 0 0 0 0 0 0 0 0 0 0 0 0 0 0 0 0 0 0 0 0 2101 2117 2102 2117 2102 2117 2102 2117 2102 2117 2102 2117 2102 2117 2102 2117 2102 2117 2102 2117 2102 2117 2102 2117 2102 2117 2102 2117 2102 2117 2102 2117 2102 2117 2102 2117 2102 2117 2102 2117 2102 2117 2102 2117 2102 2117 2102 2117 2102 2117 2102 2117 2102 2117 2102 2117 2102 2117 2102 2117 2102 2117
      14 113 9 0 0 0 0 0 0 0 0 0 0 0 0 0 0 0 0 0 0 0 0 0 0 0 0 0 0 0 0 0 0 0 0 0 0 0 2111 2097 2112 2097 2112 2097 2112 2097 2112 2097 2112 2097 2112 2097 2112 2097 2112 2097 2112 2097 2112 2097 2112 2097 2112 2097 2112 2097 2112 2097 2112 2097 2112 2097 2112 2097 2112 2097 2112 2097 2112 2097 2112 2097 2112 2097 2112 2097 2112 2097 2112 2097 2112 2097 2112 2097 2112 2097 2112 2097 2112 2097
      11 20 15 0 0 0 0 0 0 0 0 0 0 0 0 0 0 0 0 0 0 0 0 0 0 0 0 0 0 0 0 0 0 0 0 0 0 0 2101 2117 2102 2117 2102 2117 2102 2117 2102 2117 2102 2117 2102 2117 2102 2117 2102 2117 2102 2117 2102 2117 2102 2117 2102 2117 2102 2117 2102 2117 2102 2117 2102 2117 2102 2117 2102 2117 2102 2117 2102 2117 2102 2117 2102 2117 2102 2117 2102 2117 2102 2117 2102 2117 2102 2117 2102 2117 2102 2117 2102 2117
      17 17 18 0 0 0 0 0 0 0 0 0 0 0 0 0 0 0 0 0 0 0 0 0 0 0 0 0 0 0 0 0 0 0 0 0 0 0 2111 2097 2112 2097 2112 2097 2112 2097 2112 2097 2112 2097 2112 2097 2112 2097 2112 2097 2112 2097 2112 2097 2112 2097 2112 2097 2112 2097 2112 2097 2112 2097 2112 2097 2112 2097 2112 2097 2112 2097 2112 2097 2112 2097 2112 2097 2112 2097 2112 2097 2112 2097 2112 2097 2112 2097 2112 2097 2112 2097 2112 2097
      0 0 0 0 0 0 0 0 0 0 0 0 0 0 0 0 0 0 0 0 0 0 0 0 0 0 0 0 0 0 0 0 0 0 0 0 0 0 0 0 0 0 0 0 0 0 0 0 0 0 0 0 0 0 0 0 0 0 0 0 0 0 0 0 0 0 0 0 0 0 0 0 0 0 0 0 0 0 0 0 0 0 0 0 0 0 0 0 0 0 0 0 0 0 0 0 0 0 0 0
      8 8 8 9 0 0 0 0 0 0 0 0 0 0 0 0 0 0 0 0 0 0 0 0 0 0 0 0 0 0 0 0 0 0 0 0 0 0 0 0 0 0 0 0 0 0 0 0 0 0 0 0 0 0 0 0 0 0 0 0 0 0 0 0 0 0 0 0 0 0 0 0 0 0 0 0 0 0 0 0 0 0 0 0 0 0 0 0 0 0 0 0 0 0 0 0 0 0 0 0
      14 14 14 15 0 0 0 0 0 0 0 0 0 0 0 0 0 0 0 0 0 0 0 0 0 0 0 0 0 0 0 0 0 0 0 0 0 0 0 0 0 0 0 0 0 0 0 0 0 0 0 0 0 0 0 0 0 0 0 0 0 0 0 0 0 0 0 0 0 0 0 0 0 0 0 0 0 0 0 0 0 0 0 0 0 0 0 0 0 0 0 0 0 0 0 0 0 0 0 0
      11 11 11 12 0 0 0 0 0 0 0 0 0 0 0 0 0 0 0 0 0 0 0 0 0 0 0 0 0 0 0 0 0 0 0 0 0 0 0 0 0 0 0 0 0 0 0 0 0 0 0 0 0 0 0 0 0 0 0 0 0 0 0 0 0 0 0 0 0 0 0 0 0 0 0 0 0 0 0 0 0 0 0 0 0 0 0 0 0 0 0 0 0 0 0 0 0 0 0 0
      11 11 11 21 8 8 8 8 8 8 8 8 8 8 8 8 9 0 0 0 0 0 0 0 0 0 0 0 0 0 0 0 0 0 0 0 0 0 0 0 0 0 0 0 0 0 0 0 0 0 0 0 0 0 0 0 0 0 0 0 0 0 0 0 0 0 0 0 0 0 0 0 0 0 0 0 0 0 0 0 0 0 0 0 0 0 0 0 0 0 0 0 0 0 0 0 0 0 0 0
      11 11 11 20 14 14 14 14 14 14 14 14 14 14 14 14 113 8 8 8 8 8 8 9 0 0 0 0 0 0 0 0 0 0 0 7 8 8 9 0 0 0 0 0 0 0 0 0 0 0 0 0 0 0 0 0 0 0 0 0 0 0 0 0 0 0 0 0 0 0 0 0 0 0 0 0 0 0 0 0 0 0 0 0 0 0 0 0 0 0 0 0 0 0 0 0 0 0 0 0
      11 11 11 11 11 11 11 11 11 11 11 11 11 11 11 11 20 14 14 14 14 14 14 113 8 8 8 8 8 8 8 8 8 8 8 114 14 14 2104 2107 2104 2107 2104 2107 2104 2107 2104 2107 2104 2107 2104 2107 2104 2107 2104 2107 2104 2107 2104 2107 2104 2107 2104 2107 2104 2107 2104 2107 2104 2107 2104 2107 2104 2107 2104 2107 2104 2107 2104 2107 2104 2107 2104 2107 2104 2107 2104 2107 2104 2107 2104 2107 2104 2107 2104 2107 2104 2107 2104 2107
      11 11 11 11 11 11 11 11 11 11 11 11 11 11 11 11 11 11 11 11 11 11 11 20 14 14 14 14 14 14 14 14 14 14 14 23 11 11 2112 2097 2112 2097 2112 2097 2112 2097 2112 2097 2112 2097 2112 2097 2112 2097 2112 2097 2112 2097 2112 2097 2112 2097 2112 2097 2112 2097 2112 2097 2112 2097 2112 2097 2112 2097 2112 2097 2112 2097 2112 2097 2112 2097 2112 2097 2112 2097 2112 2097 2112 2097 2112 2097 2112 2097 2112 2097 2112 2097 2112 2097
      11 11 11 11 11 11 11 11 11 11 11 11 11 11 11 11 11 11 11 11 11 11 11 11 11 11 11 11 11 11 11 11 11 11 11 11 11 2117 2102 2117 2102 2117 2102 2117 2102 2117 2102 2117 2102 2117 2102 2117 2102 2117 2102 2117 2102 2117 2102 2117 2102 2117 2102 2117 2102 2117 2102 2117 2102 2117 2102 2117 2102 2117 2102 2117 2102 2117 2102 2117 2102 2117 2102 2117 2102 2117 2102 2117 2102 2117 2102 2117 2102 2117 2102 2117 2102 2117 2102 2117
      11 11 11 11 11 11 11 11 11 11 11 11 11 11 11 11 11 11 11 11 11 11 11 11 11 11 11 11 11 11 11 11 11 11 11 11 11 2097 2112 2097 2112 2097 2112 2097 2112 2097 2112 2097 2112 2097 2112 2097 2112 2097 2112 2097 2112 2097 2112 2097 2112 2097 2112 2097 2112 2097 2112 2097 2112 2097 2112 2097 2112 2097 2112 2097 2112 2097 2112 2097 2112 2097 2112 2097 2112 2097 2112 2097 2112 2097 2112 2097 2112 2097 2112 2097 2112 2097 2112 2097
      11 11 11 11 11 11 11 11 11 11 11 11 11 11 11 11 11 11 11 11 11 11 11 11 11 11 11 11 11 11 11 11 11 11 11 11 11 2117 2102 2117 2102 2117 2102 2117 2102 2117 2102 2117 2102 2117 2102 2117 2102 2117 2102 2117 2102 2117 2102 2117 2102 2117 2102 2117 2102 2117 2102 2117 2102 2117 2102 2117 2102 2117 2102 2117 2102 2117 2102 2117 2102 2117 2102 2117 2102 2117 2102 2117 2102 2117 2102 2117 2102 2117 2102 2117 2102 2117 2102 2117
      11 11 11 11 11 11 11 11 11 11 11 11 11 11 11 11 11 11 11 11 11 11 11 11 11 11 11 11 11 11 11 11 11 11 11 11 11 2097 2112 2097 2112 2097 2112 2097 2112 2097 2112 2097 2112 2097 2112 2097 2112 2097 2112 2097 2112 2097 2112 2097 2112 2097 2112 2097 2112 2097 2112 2097 2112 2097 2112 2097 2112 2097 2112 2097 2112 2097 2112 2097 2112 2097 2112 2097 2112 2097 2112 2097 2112 2097 2112 2097 2112 2097 2112 2097 2112 2097 2112 2097
      11 11 11 11 11 11 11 11 11 11 11 11 11 11 11 11 11 11 11 11 11 11 11 11 11 11 11 11 11 11 11 11 11 11 11 11 11 2117 2102 2117 2102 2117 2102 2117 2102 2117 2102 2117 2102 2117 2102 2117 2102 2117 2102 2117 2102 2117 2102 2117 2102 2117 2102 2117 2102 2117 2102 2117 2102 2117 2102 2117 2102 2117 2102 2117 2102 2117 2102 2117 2102 2117 2102 2117 2102 2117 2102 2117 2102 2117 2102 2117 2102 2117 2102 2117 2102 2117 2102 2117
      11 11 11 11 11 11 11 11 11 11 11 11 11 11 11 11 11 11 11 11 11 11 11 11 11 11 11 11 11 11 11 11 11 11 11 11 11 11 2112 2097 2112 2097 2112 2097 2112 2097 2112 2097 2112 2097 2112 2097 2112 2097 2112 2097 2112 2097 2112 2097 2112 2097 2112 2097 2112 2097 2112 2097 2112 2097 2112 2097 2112 2097 2112 2097 2112 2097 2112 2097 2112 2097 2112 2097 2112 2097 2112 2097 2112 2097 2112 2097 2112 2097 2112 2097 2112 2097 2112 2097
      11 11 11 11 11 11 11 11 11 11 11 11 11 11 11 11 11 11 11 11 11 11 11 11 11 11 11 11 11 11 11 11 11 11 11 11 11 11 2102 2117 2102 2117 2102 2117 2102 2117 2102 2117 2102 2117 2102 2117 2102 2117 2102 2117 2102 2117 2102 2117 2102 2117 2102 2117 2102 2117 2102 2117 2102 2117 2102 2117 2102 2117 2102 2117 2102 2117 2102 2117 2102 2117 2102 2117 2102 2117 2102 2117 2102 2117 2102 2117 2102 2117 2102 2117 2102 2117 2102 2117
      11 11 11 11 11 11 11 11 11 11 11 11 11 11 11 11 11 11 11 11 11 11 11 11 11 11 11 11 11 11 11 11 11 11 11 11 11 11 11 2097 2112 2097 2112 2097 2112 2097 2112 2097 2112 2097 2112 2097 2112 2097 2112 2097 2112 2097 2112 2097 2112 2097 2112 2097 2112 2097 2112 2097 2112 2097 2112 2097 2112 2097 2112 2097 2112 2097 2112 2097 2112 2097 2112 2097 2112 2097 2112 2097 2112 2097 2112 2097 2112 2097 2112 2097 2112 2097 2112 2097
      11 11 11 11 11 11 11 11 11 11 11 11 11 11 11 11 11 11 11 11 11 11 11 11 11 11 11 11 11 11 11 11 11 11 11 11 11 2117 2102 2117 2102 2117 2102 2117 2102 2117 2102 2117 2102 2117 2102 2117 2102 2117 2102 2117 2102 2117 2102 2117 2102 2117 2102 2117 2102 2117 2102 2117 2102 2117 2102 2117 2102 2117 2102 2117 2102 2117 2102 2117 2102 2117 2102 2117 2102 2117 2102 2117 2102 2117 2102 2117 2102 2117 2102 2117 2102 2117 2102 2117
      11 11 11 11 11 11 11 11 11 11 11 11 11 11 11 11 11 11 11 11 11 11 11 11 11 11 11 11 11 11 11 11 11 11 11 11 11 2097 2112 2097 2112 2097 2112 2097 2112 2097 2112 2097 2112 2097 2112 2097 2112 2097 2112 2097 2112 2097 2112 2097 2112 2097 2112 2097 2112 2097 2112 2097 2112 2097 2112 2097 2112 2097 2112 2097 2112 2097 2112 2097 2112 2097 2112 2097 2112 2097 2112 2097 2112 2097 2112 2097 2112 2097 2112 2097 2112 2097 2112 2097
      11 11 11 11 11 11 11 11 11 11 11 11 11 11 11 11 11 11 11 11 11 11 11 11 11 11 11 11 11 11 11 11 11 11 11 11 11 2117 2102 2117 2102 2117 2102 2117 2102 2117 2102 2117 2102 2117 2102 2117 2102 2117 2102 2117 2102 2117 2102 2117 2102 2117 2102 2117 2102 2117 2102 2117 2102 2117 2102 2117 2102 2117 2102 2117 2102 2117 2102 2117 2102 2117 2102 2117 2102 2117 2102 2117 2102 2117 2102 2117 2102 2117 2102 2117 2102 2117 2102 2117
      11 11 11 11 11 11 11 11 11 11 11 11 11 11 11 11 11 11 11 11 11 11 11 11 11 11 11 11 11 11 11 11 11 11 11 11 11 2097 2112 2097 2112 2097 2112 2097 2112 2097 2112 2097 2112 2097 2112 2097 2112 2097 2112 2097 2112 2097 2112 2097 2112 2097 2112 2097 2112 2097 2112 2097 2112 2097 2112 2097 2112 2097 2112 2097 2112 2097 2112 2097 2112 2097 2112 2097 2112 2097 2112 2097 2112 2097 2112 2097 2112 2097 2112 2097 2112 2097 2112 2097
      11 11 11 11 11 11 11 11 11 11 11 11 11 11 11 11 11 11 11 11 11 11 11 11 11 11 11 11 11 11 11 11 11 11 11 11 11 11 2102 2117 2102 2117 2102 2117 2102 2117 2102 2117 2102 2117 2102 2117 2102 2117 2102 2117 2102 2117 2102 2117 2102 2117 2102 2117 2102 2117 2102 2117 2102 2117 2102 2117 2102 2117 2102 2117 2102 2117 2102 2117 2102 2117 2102 2117 2102 2117 2102 2117 2102 2117 2102 2117 2102 2117 2102 2117 2102 2117 2102 2117
      )
    )
    (tilemap
      (solid #t)
      (z-pos -1)
      (name "door")
      (path-ref "gen16651728291759732223616")
      (width 1)
      (height 6)
      (tiles
      212
      212
      212
      212
      212
      213
      )
    )
  )
)
